<svg xmlns="http://www.w3.org/2000/svg" width="121" height="121" viewBox="0 0 121 121">
  <g id="Grupo_953275" data-name="Grupo 953275" transform="translate(-487.235 -495)">
    <circle id="Elipse_5498" data-name="Elipse 5498" cx="60.5" cy="60.5" r="60.5" transform="translate(487.235 495)" fill="#e8e8e8"/>
    <g id="cubrir" transform="translate(497.904 505.428)">
      <g id="Grupo_947506" data-name="Grupo 947506" transform="translate(9.119 8.874)">
        <g id="Grupo_947496" data-name="Grupo 947496" transform="translate(6.642 0)">
          <g id="Grupo_947495" data-name="Grupo 947495">
            <g id="Grupo_947494" data-name="Grupo 947494">
              <g id="Grupo_947484" data-name="Grupo 947484" transform="translate(0 0)">
                <path id="Trazado_690856" data-name="Trazado 690856" d="M33.511,8.874a5.188,5.188,0,0,0-5.188,5.188V82.313a6.146,6.146,0,0,1,6.146-6.146H91.586V10.6a1.729,1.729,0,0,0-1.729-1.729Z" transform="translate(-28.323 -8.874)" fill="#ba9dd6"/>
              </g>
              <g id="Grupo_947486" data-name="Grupo 947486" transform="translate(54.617)">
                <g id="Grupo_947485" data-name="Grupo 947485">
                  <path id="Trazado_690857" data-name="Trazado 690857" d="M193.165,8.874h-6.917a1.729,1.729,0,0,1,1.729,1.729V76.168h6.917V10.6a1.729,1.729,0,0,0-1.729-1.729Z" transform="translate(-186.248 -8.874)" fill="#a48bc1"/>
                </g>
              </g>
              <g id="Grupo_947487" data-name="Grupo 947487" transform="translate(0 0)">
                <path id="Trazado_690858" data-name="Trazado 690858" d="M39.7,8.874H33.511a5.188,5.188,0,0,0-5.188,5.188V82.313a6.146,6.146,0,0,1,6.146-6.146H39.7Z" transform="translate(-28.323 -8.874)" fill="#725246"/>
              </g>
              <g id="Grupo_947488" data-name="Grupo 947488" transform="translate(0 67.294)">
                <path id="Trazado_690859" data-name="Trazado 690859" d="M28.323,209.6a6.146,6.146,0,0,0,6.146,6.146H89.857a1.729,1.729,0,0,0,1.729-1.729V203.456H34.469A6.145,6.145,0,0,0,28.323,209.6Z" transform="translate(-28.323 -203.456)" fill="#fedbb0"/>
              </g>
              <g id="Grupo_947489" data-name="Grupo 947489" transform="translate(54.617 67.294)">
                <path id="Trazado_690860" data-name="Trazado 690860" d="M187.977,203.455v10.562a1.729,1.729,0,0,1-1.729,1.729h6.917a1.729,1.729,0,0,0,1.729-1.729V203.455Z" transform="translate(-186.248 -203.455)" fill="#e8c197"/>
              </g>
              <g id="Grupo_947490" data-name="Grupo 947490" transform="translate(6.961 75.86)">
                <path id="Trazado_690861" data-name="Trazado 690861" d="M99.867,229.608H49.144a.692.692,0,1,1,0-1.383H99.867a.692.692,0,0,1,0,1.383Z" transform="translate(-48.452 -228.225)" fill="#d1ab86"/>
              </g>
              <g id="Grupo_947491" data-name="Grupo 947491" transform="translate(6.961 72.748)">
                <path id="Trazado_690862" data-name="Trazado 690862" d="M99.867,220.608H49.144a.692.692,0,1,1,0-1.383H99.867a.692.692,0,0,1,0,1.383Z" transform="translate(-48.452 -219.225)" fill="#d1ab86"/>
              </g>
              <g id="Grupo_947492" data-name="Grupo 947492" transform="translate(11.376 70.327)">
                <path id="Trazado_690863" data-name="Trazado 690863" d="M67.209,224.177l-2.457-1.649-2.457,1.649a.692.692,0,0,1-1.077-.574V212.225h7.068V223.6a.692.692,0,0,1-1.077.574Z" transform="translate(-61.218 -212.225)" fill="#f47da5"/>
              </g>
              <g id="Grupo_947493" data-name="Grupo 947493" transform="translate(6.961 69.635)">
                <path id="Trazado_690864" data-name="Trazado 690864" d="M99.867,211.608H49.144a.692.692,0,1,1,0-1.383H99.867a.692.692,0,0,1,0,1.383Z" transform="translate(-48.452 -210.225)" fill="#d1ab86"/>
              </g>
            </g>
          </g>
        </g>
        <g id="Grupo_947502" data-name="Grupo 947502" transform="translate(22.243 7.07)">
          <g id="Grupo_947497" data-name="Grupo 947497" transform="translate(0)">
            <path id="Trazado_690865" data-name="Trazado 690865" d="M115.733,83.343H74.572a1.136,1.136,0,0,1-1.136-1.136V30.453a1.136,1.136,0,0,1,1.136-1.136h41.161a1.136,1.136,0,0,1,1.136,1.136V82.208A1.136,1.136,0,0,1,115.733,83.343Z" transform="translate(-73.436 -29.317)" fill="#fedbb0"/>
          </g>
          <g id="Grupo_947498" data-name="Grupo 947498" transform="translate(1.729 1.729)">
            <path id="Trazado_690866" data-name="Trazado 690866" d="M117.275,84.885h-37.7a1.136,1.136,0,0,1-1.136-1.136v-48.3a1.136,1.136,0,0,1,1.136-1.136h37.7a1.136,1.136,0,0,1,1.136,1.136v48.3A1.136,1.136,0,0,1,117.275,84.885Z" transform="translate(-78.436 -34.317)" fill="#8dc8d8"/>
          </g>
          <g id="Grupo_947499" data-name="Grupo 947499" transform="translate(1.73 20.374)">
            <path id="Trazado_690867" data-name="Trazado 690867" d="M93.385,88.639l-14.948,12.7v13.7l22.779-21-5.509-5.334a1.73,1.73,0,0,0-2.323-.075Z" transform="translate(-78.437 -88.227)" fill="#bbe2a1"/>
          </g>
          <g id="Grupo_947500" data-name="Grupo 947500" transform="translate(1.73 18.804)">
            <path id="Trazado_690868" data-name="Trazado 690868" d="M108.736,84.148l-30.3,27.932v3.967a1.136,1.136,0,0,0,1.136,1.136h37.7a1.136,1.136,0,0,0,1.136-1.136V90.621l-7.358-6.5a1.729,1.729,0,0,0-2.317.025Z" transform="translate(-78.437 -83.69)" fill="#99bc82"/>
          </g>
          <g id="Grupo_947501" data-name="Grupo 947501" transform="translate(7.754 9.731)">
            <circle id="Elipse_5504" data-name="Elipse 5504" cx="3.558" cy="3.558" r="3.558" fill="#fcc171"/>
          </g>
        </g>
        <g id="Grupo_947503" data-name="Grupo 947503" transform="translate(65.018 36.272)">
          <path id="Trazado_690869" data-name="Trazado 690869" d="M213.492,121.7l.414.112a.57.57,0,0,1,0,1.1l-.414.112a10.07,10.07,0,0,0-7.106,7.106l-.112.414a.57.57,0,0,1-1.1,0l-.112-.414a10.07,10.07,0,0,0-7.106-7.106l-.414-.112a.57.57,0,0,1,0-1.1l.414-.112a10.07,10.07,0,0,0,7.106-7.106l.112-.414a.57.57,0,0,1,1.1,0l.112.414A10.07,10.07,0,0,0,213.492,121.7Z" transform="translate(-197.119 -113.756)" fill="#fcc171"/>
        </g>
        <g id="Grupo_947504" data-name="Grupo 947504" transform="translate(51.161 46.373)">
          <path id="Trazado_690870" data-name="Trazado 690870" d="M167.443,148l.263.071a.362.362,0,0,1,0,.7l-.263.071a6.392,6.392,0,0,0-4.51,4.51l-.071.263a.362.362,0,0,1-.7,0l-.071-.263a6.392,6.392,0,0,0-4.51-4.51l-.263-.071a.362.362,0,0,1,0-.7l.263-.071a6.392,6.392,0,0,0,4.51-4.51l.071-.263a.362.362,0,0,1,.7,0l.071.263A6.391,6.391,0,0,0,167.443,148Z" transform="translate(-157.051 -142.962)" fill="#fcc171"/>
        </g>
        <g id="Grupo_947505" data-name="Grupo 947505" transform="translate(0 13.793)">
          <path id="Trazado_690871" data-name="Trazado 690871" d="M25.492,56.7l.414.112a.57.57,0,0,1,0,1.1l-.414.112a10.07,10.07,0,0,0-7.106,7.106l-.112.414a.57.57,0,0,1-1.1,0l-.112-.414a10.07,10.07,0,0,0-7.106-7.106l-.414-.112a.57.57,0,0,1,0-1.1l.414-.112a10.07,10.07,0,0,0,7.106-7.106l.112-.414a.57.57,0,0,1,1.1,0l.112.414A10.07,10.07,0,0,0,25.492,56.7Z" transform="translate(-9.119 -48.756)" fill="#fcc171"/>
        </g>
      </g>
    </g>
  </g>
</svg>
