<svg xmlns="http://www.w3.org/2000/svg" width="121" height="121" viewBox="0 0 121 121">
  <g id="Grupo_953278" data-name="Grupo 953278" transform="translate(-1245.271 -495)">
    <circle id="Elipse_5501" data-name="Elipse 5501" cx="60.5" cy="60.5" r="60.5" transform="translate(1245.271 495)" fill="#e8e8e8"/>
    <g id="libro-de-hechizos" transform="translate(1262.929 511.302)">
      <path id="Trazado_690872" data-name="Trazado 690872" d="M11.7,53h68.44V64.407H11.7A5.7,5.7,0,1,1,11.7,53Z" transform="translate(0 21.292)" fill="#fcec97"/>
      <path id="Trazado_690873" data-name="Trazado 690873" d="M9,56h8.555v2.852H9Z" transform="translate(1.277 22.569)" fill="#f1c056"/>
      <path id="Trazado_690874" data-name="Trazado 690874" d="M23,56H72.9v2.852H23Z" transform="translate(7.239 22.569)" fill="#f1c056"/>
      <path id="Trazado_690875" data-name="Trazado 690875" d="M6,79.995a5.7,5.7,0,0,1,5.7-5.7h68.44V3H14.555A8.555,8.555,0,0,0,6,11.555Z" transform="translate(0)" fill="#2d75bb"/>
      <path id="Trazado_690876" data-name="Trazado 690876" d="M6,79.995a5.7,5.7,0,0,1,5.7-5.7h2.852V3A8.555,8.555,0,0,0,6,11.555Z" transform="translate(0)" fill="#f1c056"/>
      <path id="Trazado_690877" data-name="Trazado 690877" d="M17.852,14.555H15V6h8.555V8.852h-5.7Z" transform="translate(3.832 1.277)" fill="#cfdfe8"/>
      <path id="Trazado_690878" data-name="Trazado 690878" d="M23.555,52.555H15V44h2.852v5.7h5.7Z" transform="translate(3.832 17.459)" fill="#cfdfe8"/>
      <path id="Trazado_690879" data-name="Trazado 690879" d="M57.479,14.3H54.627V8.852H49.179V6h8.3Z" transform="translate(18.387 1.277)" fill="#cfdfe8"/>
      <path id="Trazado_690880" data-name="Trazado 690880" d="M57.555,52.555H49V49.7h5.7V44h2.852Z" transform="translate(18.311 17.459)" fill="#cfdfe8"/>
      <path id="Trazado_690881" data-name="Trazado 690881" d="M56.832,40.7a4.277,4.277,0,0,1-4.277-4.277,1.426,1.426,0,0,0-2.852,0A4.278,4.278,0,0,1,45.426,40.7a1.426,1.426,0,1,0,0,2.852A4.277,4.277,0,0,1,49.7,47.832a1.426,1.426,0,0,0,2.852,0,4.278,4.278,0,0,1,4.278-4.277,1.426,1.426,0,0,0,0-2.852Zm-5.7,2.9a7.112,7.112,0,0,0-1.47-1.47,7.112,7.112,0,0,0,1.47-1.47,7.112,7.112,0,0,0,1.47,1.47,7.112,7.112,0,0,0-1.47,1.47Z" transform="translate(16.182 13.627)" fill="#e4544f"/>
      <path id="Trazado_690882" data-name="Trazado 690882" d="M27.832,39.7a4.277,4.277,0,0,1-4.277-4.277,1.426,1.426,0,1,0-2.852,0A4.277,4.277,0,0,1,16.426,39.7a1.426,1.426,0,1,0,0,2.852A4.277,4.277,0,0,1,20.7,46.832a1.426,1.426,0,1,0,2.852,0,4.277,4.277,0,0,1,4.277-4.277,1.426,1.426,0,0,0,0-2.852Zm-5.7,2.9a7.112,7.112,0,0,0-1.47-1.47,7.112,7.112,0,0,0,1.47-1.47,7.112,7.112,0,0,0,1.47,1.47,7.112,7.112,0,0,0-1.47,1.47Z" transform="translate(3.832 13.201)" fill="#e4544f"/>
      <path id="Trazado_690883" data-name="Trazado 690883" d="M51.832,11.7a4.277,4.277,0,0,1-4.277-4.277,1.426,1.426,0,1,0-2.852,0A4.277,4.277,0,0,1,40.426,11.7a1.426,1.426,0,1,0,0,2.852A4.278,4.278,0,0,1,44.7,18.832a1.426,1.426,0,1,0,2.852,0,4.277,4.277,0,0,1,4.277-4.277,1.426,1.426,0,1,0,0-2.852Zm-5.7,2.9a7.112,7.112,0,0,0-1.47-1.47,7.112,7.112,0,0,0,1.47-1.47,7.112,7.112,0,0,0,1.47,1.47,7.112,7.112,0,0,0-1.47,1.47Z" transform="translate(14.052 1.277)" fill="#e4544f"/>
      <circle id="Elipse_5505" data-name="Elipse 5505" cx="3" cy="3" r="3" transform="translate(26 18.698)" fill="#fcec97"/>
      <circle id="Elipse_5506" data-name="Elipse 5506" cx="3" cy="3" r="3" transform="translate(43 62.698)" fill="#fcec97"/>
      <ellipse id="Elipse_5507" data-name="Elipse 5507" cx="2.5" cy="3" rx="2.5" ry="3" transform="translate(69 29.698)" fill="#fcec97"/>
      <path id="Trazado_690884" data-name="Trazado 690884" d="M30,11h2.852v2.852H30Z" transform="translate(10.22 3.407)" fill="#7fc99d"/>
      <path id="Trazado_690885" data-name="Trazado 690885" d="M47,17h2.852v2.852H47Z" transform="translate(17.459 5.962)" fill="#7fc99d"/>
      <path id="Trazado_690886" data-name="Trazado 690886" d="M52,33h2.852v2.852H52Z" transform="translate(19.588 12.775)" fill="#7fc99d"/>
      <path id="Trazado_690887" data-name="Trazado 690887" d="M22,45h2.852v2.852H22Z" transform="translate(6.813 17.885)" fill="#7fc99d"/>
      <path id="Trazado_690888" data-name="Trazado 690888" d="M40,48h2.852v2.852H40Z" transform="translate(14.478 19.162)" fill="#7fc99d"/>
      <path id="Trazado_690889" data-name="Trazado 690889" d="M18,24h2.852v2.852H18Z" transform="translate(5.11 8.942)" fill="#7fc99d"/>
      <g id="Grupo_947508" data-name="Grupo 947508" transform="translate(29.783 22.17)">
        <path id="Trazado_690890" data-name="Trazado 690890" d="M31.02,22.305l-2.852-4.277,2.373-1.583,3.247,4.869Z" transform="translate(-20.343 -16.445)" fill="#394d5c"/>
        <path id="Trazado_690891" data-name="Trazado 690891" d="M0,0H2.852V4.508H0Z" transform="matrix(0.316, -0.949, 0.949, 0.316, 0.009, 13.532)" fill="#394d5c"/>
        <path id="Trazado_690892" data-name="Trazado 690892" d="M40.75,22.305l-3.074-.529,3.553-5.331L43.6,18.028Z" transform="translate(-16.294 -16.445)" fill="#394d5c"/>
        <path id="Trazado_690893" data-name="Trazado 690893" d="M44.968,27.183,42.784,24.9l5.561-1.854.9,2.706Z" transform="translate(-14.119 -13.632)" fill="#394d5c"/>
        <path id="Trazado_690894" data-name="Trazado 690894" d="M30.541,43.305l-2.373-1.583,2.852-4.277,2.9.791Z" transform="translate(-20.343 -7.503)" fill="#394d5c"/>
        <path id="Trazado_690895" data-name="Trazado 690895" d="M0,0H4.508V2.852H0Z" transform="matrix(0.949, -0.316, 0.316, 0.949, 0, 22.282)" fill="#394d5c"/>
        <path id="Trazado_690896" data-name="Trazado 690896" d="M41.229,43.305l-3.553-5.331,3.074-.529L43.6,41.722Z" transform="translate(-16.294 -7.503)" fill="#394d5c"/>
        <path id="Trazado_690897" data-name="Trazado 690897" d="M0,0H2.852V4.508H0Z" transform="matrix(0.316, -0.949, 0.949, 0.316, 29.947, 22.076)" fill="#394d5c"/>
      </g>
      <path id="Trazado_690898" data-name="Trazado 690898" d="M26.407,61.555,20.7,58.7,15,61.555V53H26.407Z" transform="translate(3.832 21.292)" fill="#e4544f"/>
      <circle id="Elipse_5508" data-name="Elipse 5508" cx="14.5" cy="14.5" r="14.5" transform="translate(33 25.698)" fill="#f9bb4b"/>
      <path id="Trazado_690899" data-name="Trazado 690899" d="M53.517,31.555S50.665,40.11,39.258,40.11,25,31.555,25,31.555,30.7,23,39.258,23,53.517,31.555,53.517,31.555Z" transform="translate(8.091 8.517)" fill="#cdeef6"/>
      <circle id="Elipse_5509" data-name="Elipse 5509" cx="8.5" cy="8.5" r="8.5" transform="translate(39 31.698)" fill="#394d5c"/>
      <ellipse id="Elipse_5510" data-name="Elipse 5510" cx="3" cy="2.5" rx="3" ry="2.5" transform="translate(44 34.698)" fill="#cdeef6"/>
    </g>
  </g>
</svg>
