<svg xmlns="http://www.w3.org/2000/svg" width="165" height="165" viewBox="0 0 165 165">
  <g id="Grupo_953283" data-name="Grupo 953283" transform="translate(-714 -3281)">
    <circle id="Elipse_5412" data-name="Elipse 5412" cx="82.5" cy="82.5" r="82.5" transform="translate(714 3281)" fill="#ccd3ca"/>
    <g id="publicidad" transform="translate(739.325 3306.447)">
      <path id="Trazado_700061" data-name="Trazado 700061" d="M137.689,50.786a7.911,7.911,0,0,1,.555-9.236A25.459,25.459,0,1,0,98.789,9.363a16,16,0,0,1-16.511,5.614A33.287,33.287,0,0,0,45.162,64.713H57.309a51,51,0,0,0,16.1-2.614l21.553-7.183V66.672h1.959a5.878,5.878,0,0,1,5.878,5.878v7.838a5.878,5.878,0,0,1-5.878,5.878H94.959V98.022L73.406,90.839a51.14,51.14,0,0,0-8.327-2,41.105,41.105,0,1,0,72.6-38.051Zm0,0" transform="translate(-30.183 0)" fill="#a0dce8"/>
      <path id="Trazado_700062" data-name="Trazado 700062" d="M139.711,119.58a3.919,3.919,0,0,0,3.919-3.919v-9.8a3.919,3.919,0,0,0-3.919-3.919h-1.959a3.918,3.918,0,0,1-3.919-3.919V92.149a3.919,3.919,0,0,0-7.838,0v5.878a3.919,3.919,0,0,1-3.919,3.919h-1.959V119.58Zm0,0" transform="translate(-90.609 -66.624)" fill="#fff5e0"/>
      <path id="Trazado_700063" data-name="Trazado 700063" d="M266.077,291.824a5.878,5.878,0,0,0,5.878-5.878v-7.838a5.878,5.878,0,0,0-5.878-5.878h-1.959v19.594Zm0,0" transform="translate(-199.341 -205.558)" fill="#ffb41f"/>
      <path id="Trazado_700064" data-name="Trazado 700064" d="M311.792,71.58a15.675,15.675,0,1,0-15.675-15.675A15.675,15.675,0,0,0,311.792,71.58Zm0,0" transform="translate(-223.503 -30.38)" fill="#fff5e0"/>
      <path id="Trazado_700065" data-name="Trazado 700065" d="M344.117,72.23V87.905l11.756-7.838Zm0,0" transform="translate(-259.747 -54.542)" fill="#1cc8eb"/>
      <path id="Trazado_700066" data-name="Trazado 700066" d="M95.955,155.824V136.23H88.117v21.553h7.837Zm0,0" transform="translate(-66.447 -102.867)" fill="#1cc8eb"/>
      <path id="Trazado_700067" data-name="Trazado 700067" d="M362.709,280.889l-3.206,2.135-3.2-2.135a3.919,3.919,0,0,0-4.945.49l-.835.835a3.918,3.918,0,0,0,0,5.542l8.984,8.984,8.986-8.984a3.917,3.917,0,0,0,0-5.542l-.834-.835A3.919,3.919,0,0,0,362.709,280.889Zm0,0" transform="translate(-263.714 -211.599)" fill="#e32210"/>
      <path id="Trazado_700068" data-name="Trazado 700068" d="M48.117,360.23,50.4,383.743a1.959,1.959,0,0,0,1.959,1.959H63.792a1.96,1.96,0,0,0,1.935-2.257L59.873,360.23Zm0,0" transform="translate(-36.244 -272.005)" fill="#8c8c8c"/>
      <path id="Trazado_700069" data-name="Trazado 700069" d="M11.873,287.743V264.23a11.756,11.756,0,1,0,0,23.512Zm0,0" transform="translate(0 -199.517)" fill="#8c8c8c"/>
      <path id="Trazado_700070" data-name="Trazado 700070" d="M55.955,287.743V264.23H48.117v23.512Zm0,0" transform="translate(-36.244 -199.517)" fill="#ffb41f"/>
      <path id="Trazado_700071" data-name="Trazado 700071" d="M103.63,231.414a50.991,50.991,0,0,1-16.1,2.614H80.117V257.54h7.408a51.988,51.988,0,0,1,16.1,2.614l21.553,7.183V224.23Zm0,0" transform="translate(-60.406 -169.314)" fill="#d9d9d9"/>
      <path id="Trazado_700072" data-name="Trazado 700072" d="M61.85,368.068l-1.977-7.837H48.117Zm0,0" transform="translate(-36.244 -272.005)" fill="#7a7a7a"/>
      <path id="Trazado_700073" data-name="Trazado 700073" d="M311.792,114.926a15.674,15.674,0,0,1-15.626-14.7c-.02.325-.049.649-.049.98a15.675,15.675,0,1,0,31.35,0c0-.331-.03-.654-.05-.98A15.674,15.674,0,0,1,311.792,114.926Zm0,0" transform="translate(-223.503 -75.685)" fill="#e6e6e6"/>
      <path id="Trazado_700074" data-name="Trazado 700074" d="M120.117,186.027h19.594a3.919,3.919,0,0,0,3.919-3.919V176.23a14.341,14.341,0,0,1-12.681,7.926l-10.831.108Zm0,0" transform="translate(-90.609 -133.07)" fill="#e6e6e6"/>
      <path id="Trazado_700075" data-name="Trazado 700075" d="M88.117,208.23h7.837v3.919H88.117Zm0,0" transform="translate(-66.447 -157.233)" fill="#1bc1e3"/>
      <path id="Trazado_700076" data-name="Trazado 700076" d="M390.738,296.767l8.986-8.984a3.917,3.917,0,0,0,0-5.542l-.834-.835a3.919,3.919,0,0,0-4.393-.784,3.9,3.9,0,0,1,1.146.784l.835.835c2,2,.768,4.7-.578,6.675-.833,1.215-1.628,2.459-2.442,3.69A26.655,26.655,0,0,1,390.738,296.767Zm0,0" transform="translate(-294.949 -211.626)" fill="#c91e0e"/>
      <g id="Grupo_950599" data-name="Grupo 950599" transform="translate(73.087 50.94)">
        <path id="Trazado_700077" data-name="Trazado 700077" d="M298.114,213.516l1.009-4.035a1.959,1.959,0,1,1,3.8.95l-1.01,4.035a1.958,1.958,0,1,1-3.8-.951Zm0,0" transform="translate(-298.053 -207.996)" fill="#ffb41f"/>
        <path id="Trazado_700078" data-name="Trazado 700078" d="M320.358,238.179l4.332-2.166a1.959,1.959,0,0,1,1.752,3.505l-4.332,2.166a1.959,1.959,0,0,1-1.752-3.505Zm0,0" transform="translate(-314.076 -228.995)" fill="#ffb41f"/>
        <path id="Trazado_700079" data-name="Trazado 700079" d="M299.533,392.053a1.959,1.959,0,0,1,2.375,1.426l1.009,4.035a1.959,1.959,0,1,1-3.8.95l-1.009-4.035A1.959,1.959,0,0,1,299.533,392.053Zm0,0" transform="translate(-298.049 -346.929)" fill="#ffb41f"/>
        <path id="Trazado_700080" data-name="Trazado 700080" d="M319.48,372.887a1.961,1.961,0,0,1,2.629-.876l4.332,2.166a1.96,1.96,0,1,1-1.753,3.505l-4.332-2.166A1.961,1.961,0,0,1,319.48,372.887Zm0,0" transform="translate(-314.075 -331.684)" fill="#ffb41f"/>
      </g>
      <path id="Trazado_700081" data-name="Trazado 700081" d="M4.036,63.255H.117c0-29,17.268-47.025,45.066-47.025v3.919C19.8,20.149,4.036,36.667,4.036,63.255Zm0,0" transform="translate(0 -12.258)" fill="#1cc8eb"/>
      <path id="Trazado_700082" data-name="Trazado 700082" d="M106.077,320.23H110a1.959,1.959,0,0,1,0,3.919h-3.919a1.959,1.959,0,1,1,0-3.919Zm0,0" transform="translate(-78.528 -241.802)" fill="#8c8c8c"/>
      <path id="Trazado_700083" data-name="Trazado 700083" d="M106.077,288.23H110a1.959,1.959,0,0,1,0,3.919h-3.919a1.959,1.959,0,1,1,0-3.919Zm0,0" transform="translate(-78.528 -217.639)" fill="#8c8c8c"/>
      <path id="Trazado_700084" data-name="Trazado 700084" d="M264.117,272.23h1.959v19.594h-1.959Zm0,0" transform="translate(-199.341 -205.558)" fill="#de9a10"/>
    </g>
  </g>
</svg>
