<svg xmlns="http://www.w3.org/2000/svg" xmlns:xlink="http://www.w3.org/1999/xlink" width="129.346" height="249.743" viewBox="0 0 129.346 249.743">
  <defs>
    <clipPath id="clip-path">
      <path id="Trazado_699689" data-name="Trazado 699689" d="M121.742,132.173l-6.941-2.061a3.658,3.658,0,0,1-.35-.252c-2.253-2.17.136-6.746.36-7.164l-9.3-1.417c.054.837.285,5.479-2.672,6.841a4.121,4.121,0,0,1-.464.161l-6.83-.1a14.681,14.681,0,0,0,26.193,3.993Z" transform="translate(-95.549 -121.278)" fill="none"/>
    </clipPath>
    <clipPath id="clip-path-2">
      <path id="Trazado_699701" data-name="Trazado 699701" d="M118.063,110.46a29.439,29.439,0,0,1-6.777-3.018,7.38,7.38,0,0,0,1.368,4.113,7.566,7.566,0,0,0,4.2,2.719,7.319,7.319,0,0,0,8.523-2.593A29.323,29.323,0,0,1,118.063,110.46Z" transform="translate(-111.286 -107.442)" fill="none"/>
    </clipPath>
    <clipPath id="clip-path-3">
      <path id="Trazado_699711" data-name="Trazado 699711" d="M110.726,177.832a33.351,33.351,0,0,1,.021-3.705,25.789,25.789,0,0,1,.3-2.82,21.382,21.382,0,0,1,1.471-4.7,58.273,58.273,0,0,1,2.82-5.956,10.148,10.148,0,0,0,2.782-3.407,11.5,11.5,0,0,0,1.209-5.643c.186-.335.42-.779.669-1.316.015-.032.182-.373.333-.759a34.883,34.883,0,0,0,2.111-8.237c.119-.831.223-1.75.319-2.721a5.63,5.63,0,0,0-.888-1.6,5.4,5.4,0,0,0-3.1-1.8c-1.946-.508-4.355-1.25-7.307-2.17a6.609,6.609,0,0,1-13.076-1.928c-2.889,0-8.278-.761-10.191-.851-.755-.035.874.625-.491,1.541a5.625,5.625,0,0,0-1.324,1.26c-.2.956-.372,1.864-.506,2.693a34.863,34.863,0,0,0-.439,8.491c.029.42.14,1.153.225,1.871a12.376,12.376,0,0,0-.47,5.362,11.128,11.128,0,0,0,1.645,4.533c.463,2.871.766,5.259.962,6.983a26.113,26.113,0,0,1,.282,4.915,34.367,34.367,0,0,1-1.806,8.409C94.34,177.526,102.662,176.584,110.726,177.832Z" transform="translate(-85.086 -130.217)" fill="none"/>
    </clipPath>
  </defs>
  <g id="Grupo_950465" data-name="Grupo 950465" transform="translate(0 0)">
    <g id="Grupo_950436" data-name="Grupo 950436" transform="translate(0 147.42)">
      <path id="Trazado_699626" data-name="Trazado 699626" d="M65.012,356.962,26.7,356.7a7.524,7.524,0,0,1-7.8-7.365l-.1-51.375a7.671,7.671,0,0,1,7.664-7.679l38.43-.036a7.671,7.671,0,0,1,7.678,7.664l.1,51.376A7.671,7.671,0,0,1,65.012,356.962Z" transform="translate(-16.919 -267.262)" fill="#7c8e9c"/>
      <path id="Trazado_699627" data-name="Trazado 699627" d="M45.324,296.911l16.243-.016a4.291,4.291,0,0,0,4.286-4.295l0-2.582a1.668,1.668,0,0,0-1.233-.434,1.628,1.628,0,0,0-.968.436q0,1.542,0,3.083a1.671,1.671,0,0,1-1.67,1.673l-17.163.016a1.672,1.672,0,0,1-1.673-1.67l0-3.084a1.521,1.521,0,0,0-.929-.435,1.566,1.566,0,0,0-1.189.437q0,1.291,0,2.582A4.292,4.292,0,0,0,45.324,296.911Z" transform="translate(-24.66 -267.03)" fill="#27aae2"/>
      <path id="Trazado_699628" data-name="Trazado 699628" d="M44.279,293.36a1.672,1.672,0,0,0,1.673,1.67l17.162-.016a1.672,1.672,0,0,0,1.67-1.673l0-3.083-20.506.02Z" transform="translate(-25.792 -267.266)" fill="#817f80"/>
      <g id="Grupo_950433" data-name="Grupo 950433" transform="translate(18.484 4.41)">
        <rect id="Rectángulo_338072" data-name="Rectángulo 338072" width="14.194" height="4.755" transform="translate(3.179 18.591)" fill="#817f80"/>
        <path id="Trazado_699629" data-name="Trazado 699629" d="M74.182,290.258l0,4.622a1.671,1.671,0,0,0,1.017-1.54l0-3.083Z" transform="translate(-54.694 -271.676)" fill="#817f80"/>
        <path id="Trazado_699630" data-name="Trazado 699630" d="M44.276,290.287l0,3.084a1.669,1.669,0,0,0,1.06,1.551l0-4.635Z" transform="translate(-44.276 -271.687)" fill="#817f80"/>
        <g id="Grupo_950432" data-name="Grupo 950432" transform="translate(0.961)">
          <path id="Trazado_699631" data-name="Trazado 699631" d="M45.849,280.345l0,4.635a1.668,1.668,0,0,0,.613.119h1.5l0-4.755-.1-18.593-2.117,0Z" transform="translate(-45.751 -261.745)" fill="#cfd3d6"/>
          <path id="Trazado_699632" data-name="Trazado 699632" d="M70.782,261.745l.1,18.582,0,4.755h1.464a1.652,1.652,0,0,0,.653-.134l0-4.622-.1-18.582Z" transform="translate(-54.471 -261.743)" fill="#cfd3d6"/>
        </g>
      </g>
      <rect id="Rectángulo_338073" data-name="Rectángulo 338073" width="2.389" height="0.529" transform="translate(19.354 4.068)" fill="#27aae2"/>
      <rect id="Rectángulo_338074" data-name="Rectángulo 338074" width="2.389" height="0.529" transform="translate(35.666 4.063)" fill="#27aae2"/>
      <path id="Trazado_699633" data-name="Trazado 699633" d="M46.035,259.225l.036-1.43a2.646,2.646,0,0,1,2.3-2.751l13.559-.068a2.939,2.939,0,0,1,2.305,2.6l-.036,1.671-1.931-.035.055-1.077c-.026-.395-.179-.664-.595-.668a45.3,45.3,0,0,1-13.188.087.747.747,0,0,0-.631.687l-.018,1.04Z" transform="translate(-26.405 -254.975)" fill="#27aae2"/>
      <path id="Trazado_699634" data-name="Trazado 699634" d="M101.258,330.1l.864.009c1.557,6.624,1.724,9.047.1,15.245l-.918.006-.049-4.421h.557c.368-3.287.3-2.786-.036-6.463l-.529.019Z" transform="translate(-45.637 -281.145)" fill="#27aae2"/>
      <path id="Trazado_699635" data-name="Trazado 699635" d="M18.365,317.265h0a2.452,2.452,0,0,1-2.454-2.449v-.474a2.452,2.452,0,0,1,2.449-2.454h0Z" transform="translate(-15.91 -274.802)" fill="#27aae2"/>
      <path id="Trazado_699636" data-name="Trazado 699636" d="M18.495,373.189h0a2.452,2.452,0,0,1-2.454-2.449v-.473a2.452,2.452,0,0,1,2.449-2.455h0Z" transform="translate(-15.955 -294.284)" fill="#27aae2"/>
      <path id="Trazado_699637" data-name="Trazado 699637" d="M30.283,355.06a.631.631,0,0,1-.632-.631l-.1-51.487a.631.631,0,1,1,1.263,0l.1,51.487A.631.631,0,0,1,30.283,355.06Zm3.826-.635-.1-51.487a.631.631,0,0,0-1.263,0l.1,51.487a.631.631,0,0,0,1.263,0Zm3.194,0-.1-51.487a.632.632,0,1,0-1.264,0l.1,51.487a.631.631,0,1,0,1.263,0Zm3.195,0-.1-51.487a.632.632,0,0,0-1.264,0l.1,51.487a.631.631,0,0,0,1.263,0Zm3.166-20.33-.07-31.16a.631.631,0,0,0-1.263,0l.1,51.487a.631.631,0,1,0,1.263,0l-.029-20.327m3.224,20.324-.1-51.487a.632.632,0,1,0-1.264,0l.1,51.487a.632.632,0,1,0,1.264,0Zm3.194,0-.1-51.487a.632.632,0,0,0-1.264,0l.1,51.487a.631.631,0,0,0,1.263,0Zm3.195,0-.1-51.487a.631.631,0,1,0-1.263,0l.1,51.487a.631.631,0,1,0,1.263,0Zm3.195,0-.1-51.487a.632.632,0,1,0-1.264,0l.1,51.487a.632.632,0,1,0,1.264,0Zm3.195,0-.1-51.487a.632.632,0,0,0-1.264,0l.1,51.487a.632.632,0,0,0,1.264,0Zm3.194,0-.1-51.487a.632.632,0,1,0-1.264,0l.1,51.487a.631.631,0,1,0,1.263,0Zm3.195,0-.1-51.487a.632.632,0,0,0-1.264,0l.1,51.487a.632.632,0,0,0,1.264,0Zm3.195,0-.1-51.487a.632.632,0,0,0-1.264,0l.1,51.487a.632.632,0,0,0,1.264,0Z" transform="translate(-20.662 -271.452)" fill="#7c8e9c" style="mix-blend-mode: multiply;isolation: isolate"/>
      <path id="Trazado_699638" data-name="Trazado 699638" d="M90.158,292.925a5.766,5.766,0,0,1,3.875,1.3,5.941,5.941,0,0,1,2.006,4.568l-4.4-.054a1.42,1.42,0,0,1-1.394-1.551Q90.2,295.057,90.158,292.925Z" transform="translate(-41.776 -268.194)" fill="#27aae2"/>
      <path id="Trazado_699639" data-name="Trazado 699639" d="M26.647,292.982a5.764,5.764,0,0,0-3.872,1.309,5.942,5.942,0,0,0-2,4.572l4.4-.062a1.421,1.421,0,0,0,1.391-1.554Q26.605,295.115,26.647,292.982Z" transform="translate(-17.605 -268.214)" fill="#27aae2"/>
      <g id="Grupo_950434" data-name="Grupo 950434" transform="translate(44.024 86.811)">
        <path id="Trazado_699640" data-name="Trazado 699640" d="M83.469,391.083l.411-1.649a1.8,1.8,0,0,1,1.647-1.237l8,.009a8.732,8.732,0,0,1-1.368,1.752,3.565,3.565,0,0,1-1.051.717c-.953.6-3.576.413-3.69.414C86.091,391.094,84.8,391.076,83.469,391.083Z" transform="translate(-83.469 -388.196)" fill="#27aae2"/>
        <path id="Trazado_699641" data-name="Trazado 699641" d="M92.909,397.673h0a1.728,1.728,0,0,0,1.739-1.716l.046-7-1.727-.011Z" transform="translate(-86.758 -388.457)" fill="#27aae2"/>
        <path id="Trazado_699642" data-name="Trazado 699642" d="M86.874,397.633h0a1.727,1.727,0,0,1-1.716-1.739l.046-7,1.727.011Z" transform="translate(-84.057 -388.439)" fill="#27aae2"/>
        <path id="Trazado_699643" data-name="Trazado 699643" d="M89.456,401.605h0a1.666,1.666,0,0,1-1.655-1.677l.036-5.4a1.666,1.666,0,0,1,1.677-1.656h0a1.667,1.667,0,0,1,1.656,1.677l-.036,5.4A1.666,1.666,0,0,1,89.456,401.605Z" transform="translate(-84.978 -389.826)" fill="#030300"/>
      </g>
      <g id="Grupo_950435" data-name="Grupo 950435" transform="translate(3.494 86.488)">
        <path id="Trazado_699644" data-name="Trazado 699644" d="M31.291,390.681l-.386-1.625a1.8,1.8,0,0,0-1.631-1.26l-8-.1a8.7,8.7,0,0,0,1.346,1.77,3.531,3.531,0,0,0,1.042.73c.944.611,3.57.461,3.684.462C28.671,390.687,29.963,390.656,31.291,390.681Z" transform="translate(-21.272 -387.7)" fill="#27aae2"/>
        <path id="Trazado_699645" data-name="Trazado 699645" d="M26.165,397.235h0a1.729,1.729,0,0,1-1.716-1.739l.046-7,1.727.012Z" transform="translate(-22.379 -387.977)" fill="#27aae2"/>
        <path id="Trazado_699646" data-name="Trazado 699646" d="M32.2,397.274h0a1.727,1.727,0,0,0,1.739-1.716l.046-7-1.727-.012Z" transform="translate(-25.079 -387.994)" fill="#27aae2"/>
        <path id="Trazado_699647" data-name="Trazado 699647" d="M28.714,401.206h0a1.666,1.666,0,0,0,1.677-1.655l.035-5.4a1.667,1.667,0,0,0-1.655-1.677h0a1.667,1.667,0,0,0-1.677,1.656l-.035,5.4A1.665,1.665,0,0,0,28.714,401.206Z" transform="translate(-23.288 -389.364)" fill="#030300"/>
      </g>
    </g>
    <path id="Trazado_699648" data-name="Trazado 699648" d="M40.941,77.131a230.27,230.27,0,0,0,60.426,12.506c26.339,1.829,37.386-2.562,52.6-5.859-3.014-.924-7.78-2.343-13.663-3.9-22.609-5.99-36.436-11.2-65.29-9.123A155.5,155.5,0,0,0,40.941,77.131Z" transform="translate(-24.63 -43.216)" fill="#ea9b24"/>
    <path id="Trazado_699649" data-name="Trazado 699649" d="M125.357,45.591a19.479,19.479,0,0,0-3.671-7.078,11.189,11.189,0,0,0-3.3-3.155c-2.47-1.413-3.982-1.123-8.519-.353-9.464,1.606-10.089.688-13.508,2.64-.443.253-4.053,9.6-6.669,12.79-5.252,6.4-5.194,7.041-6.046,14.674-2.239,20.067-3.359,30.1-6.893,38.343-3.261,7.6-8.167,14.806-7.941,24.08a18.594,18.594,0,0,0,1.695,7.736,14.891,14.891,0,0,0,7.742,7.36l-2.266-8.671a19.559,19.559,0,0,0,5.289,8.48,9.551,9.551,0,0,0,6.582,2.457q-.339-2.593-.68-5.188c2.557,2.564,7.945,7.1,15.626,7.368,8.846.311,15.76-5.205,18.677-7.858-1.816,2.732-3.517,5.408-3.382,5.7a.093.093,0,0,0,.038.024c.433.129,8.13-1.948,12.243-8.913,2.812-4.761,1.792-8.155,1.446-25.322-.313-15.51-.126-23.212.513-28.927.911-8.147,2.024-13.05,1.607-21.762-.353-7.363-1.522-11.693-4.363-13.532A6.368,6.368,0,0,0,125.357,45.591Z" transform="translate(-34.335 -30.7)" fill="#573218"/>
    <path id="Trazado_699650" data-name="Trazado 699650" d="M107.775,173.221l-20.623-3.143c-3.36-.512-6.39-5.867-6.526-13.969l2.007-26.1c1.253-8.628,1.17-9.362,21.383-2.9,22.147,4.109,20.465,7.751,19.26,15.2l-5.047,19.422C115.841,169.277,111.134,173.734,107.775,173.221Z" transform="translate(-38.455 -61.517)" fill="#f4787a"/>
    <g id="Grupo_950441" data-name="Grupo 950441" transform="translate(38.781 109.194)">
      <g id="Grupo_950438" data-name="Grupo 950438" transform="translate(0)">
        <path id="Trazado_699651" data-name="Trazado 699651" d="M77.076,241.513c-1.149-8.3-3.56-26.516,1.116-33.107.921-1.3,1.756-2.657,2.674-3.957,1.737-2.458,2.9-3.89,3.511-6.241a11.818,11.818,0,0,0,.334-1.894q2.478,3.287,4.991,6.895,2.26,3.251,4.279,6.393c-.133,4.795.687,12.511.554,17.305,0,0-2.754,19.612-3.425,34.934-.173,3.976-.48,7.233-.818,10.792-.031.386-.088,1.006-.159,1.723v.005c-.176,1.776-.43,4.122-.531,4.861.508,5.885-.089,18.239-.558,26.06-.39,6.5-.466,9.41-.251,11.814l-.012,0c.043.474.1.932.164,1.4.717,1.4-4.588,5.118-4.5,1.78a10.694,10.694,0,0,1-.24-3.531c-.005-.187-.014-.482-.027-.842-.081-2.367-.74-11.186-2.815-24.548-1.436-9.246-.639-12.321-.161-14.436a23.3,23.3,0,0,0,.371-4.614c-.023-.812-.3-1.6-2.113-11.871C78.542,255.212,77.522,244.736,77.076,241.513Z" transform="translate(-75.424 -196.313)" fill="#f8c2a8"/>
        <g id="Grupo_950437" data-name="Grupo 950437" transform="translate(4.666 116.942)">
          <path id="Trazado_699652" data-name="Trazado 699652" d="M92.277,391.188a.067.067,0,0,1,.133.009,9.446,9.446,0,0,1,.033,2.634,6.841,6.841,0,0,0-.22,1.972,6.736,6.736,0,0,0,.117,1.019c.038.215.061.373.068.408.631,3.549-.831,5.4-.831,5.4a3.6,3.6,0,0,1-.323.353c-2.015,2-5.666,2.421-7.626.538a2.88,2.88,0,0,1-.449-.521c-1.139-1.713-.334-4.415-.094-5.154a4.05,4.05,0,0,0,.14,1.563A3.792,3.792,0,0,0,85.6,401.8c2.408.833,5.528-1.525,6.039-4.1.214-1.078-.158-1.55.028-3.574A13.356,13.356,0,0,1,92.277,391.188Z" transform="translate(-82.585 -381.125)" fill="#dadada"/>
          <path id="Trazado_699653" data-name="Trazado 699653" d="M83.574,379a.88.88,0,0,1-.126-.437c-.007-1.348,2.848-3.278,4.789-2.678,2.412.746,3.558,5.468,3.558,5.468h0l-.749,13.564-7.743-.7,2.755-9.408-.106-1.617Z" transform="translate(-82.835 -375.774)" fill="#015ba4"/>
          <path id="Trazado_699654" data-name="Trazado 699654" d="M94.724,378.319c.234-.4.387-.471.487-.448.5.117.5,2.792.5,3.725,0,1.119-.074,1.52-.014,2.656.042.8.122,1.443.182,1.866.007.053.018.135.028.235a12.915,12.915,0,0,1-.351,3.815c-.282,1.943.117,2.066-.253,3.479a7.619,7.619,0,0,1-.843,2l-1.194-2.387a3.14,3.14,0,0,1-.154-.84,3.2,3.2,0,0,1,.182-1.227q.869-4.645,1.739-9.29Z" transform="translate(-86.251 -376.503)" fill="#01a0e4"/>
          <path id="Trazado_699655" data-name="Trazado 699655" d="M85.414,385.748c.168.295.49.758.525.888a8.879,8.879,0,0,1,.164,2.5q-.764,3.139-1.528,6.278a13.53,13.53,0,0,1-1.29,2.283,7.537,7.537,0,0,1,.346-3.1c.338-1.063,1.073-3.008,2.116-5.457A23.9,23.9,0,0,0,85.414,385.748Z" transform="translate(-82.816 -379.249)" fill="#01a0e4"/>
          <path id="Trazado_699656" data-name="Trazado 699656" d="M87.591,401.745a5.547,5.547,0,0,1,3.455,2.2,4.846,4.846,0,0,1-4.241,1.866c-2.174-.317-3.1-.773-3.5-2.566A5.189,5.189,0,0,1,87.591,401.745Z" transform="translate(-82.835 -384.803)" fill="#e6e7e8"/>
          <path id="Trazado_699657" data-name="Trazado 699657" d="M92.354,388.129c0,.334-.132.605-.3.605s-.295-.271-.295-.605.132-.6.295-.6S92.354,387.8,92.354,388.129Zm-.337,1.235c-.163,0-.3.271-.3.605s.132.6.3.6.295-.271.295-.6S92.18,389.364,92.017,389.364Zm-.1,1.8c-.163,0-.3.27-.3.6s.132.605.3.605.295-.271.295-.605S92.081,391.163,91.918,391.163Zm-.3,1.765c-.162,0-.295.271-.295.6s.132.605.295.605.3-.271.3-.605S91.779,392.927,91.616,392.927Zm-.583,2.017c-.163,0-.295.271-.295.605s.132.6.295.6.3-.271.3-.6S91.2,394.944,91.033,394.944Zm-6.717.294c-.156-.056-.347.158-.428.478s-.019.625.137.681.347-.158.428-.478S84.473,395.295,84.316,395.239Zm.506-1.9c-.152-.038-.383.217-.428.478-.033.19.017.465.169.508s.323-.142.4-.305C85.079,393.748,84.984,393.374,84.822,393.334Zm.58-1.634c-.145-.052-.328.165-.409.485s-.028.622.117.674.328-.165.408-.485S85.547,391.752,85.4,391.7Zm.654-1.831c-.091-.033-.231.2-.311.519s-.072.606.02.639.231-.2.311-.52S86.147,389.9,86.055,389.869Zm.051-1.859c-.1-.007-.171.228-.166.525s.088.543.185.549.172-.228.167-.525S86.2,388.017,86.106,388.01Z" transform="translate(-83.026 -379.867)" fill="#0f0f0f"/>
          <path id="Trazado_699658" data-name="Trazado 699658" d="M93.19,387.851a.363.363,0,0,1,.325.42.359.359,0,0,1-.378.262,5.376,5.376,0,0,0-3.92.832c-.548.146-1.06.286-1.608.431a7.011,7.011,0,0,1,2.786-1.711,6.653,6.653,0,0,1,1.579-.286A6.277,6.277,0,0,1,93.19,387.851Z" transform="translate(-84.335 -379.96)" fill="#dadada"/>
          <path id="Trazado_699659" data-name="Trazado 699659" d="M87.327,388.312a.225.225,0,0,0-.051.023c-.2.125-.117.531-.07.673a.192.192,0,0,0,.1.134.144.144,0,0,0,.09,0,7.142,7.142,0,0,1,.891-.158,7.277,7.277,0,0,1,2.7.215l1.258.117.032-.2a3.132,3.132,0,0,0-.955-.657,4.336,4.336,0,0,0-1.84-.286c-.6-.009-1.03,0-1.218.012A9.058,9.058,0,0,0,87.327,388.312Z" transform="translate(-84.174 -380.094)" fill="#dadada"/>
          <path id="Trazado_699660" data-name="Trazado 699660" d="M92.928,390.212a.439.439,0,0,1,.118.555.313.313,0,0,1-.216.1c-.025-.02-.065-.051-.115-.086a2.772,2.772,0,0,0-1.909-.365,6.37,6.37,0,0,0-3.7,1.688c-.059.056-.108.1-.141.136q.074-.309.151-.616c.014-.056.027-.111.042-.167a5.808,5.808,0,0,1,3.183-1.786,3.518,3.518,0,0,1,2.047.22A2.993,2.993,0,0,1,92.928,390.212Z" transform="translate(-84.111 -380.594)" fill="#dadada"/>
          <path id="Trazado_699661" data-name="Trazado 699661" d="M87.12,390.82a.734.734,0,0,0-.126.146c-.156.237-.173.569-.079.613.029.014.083.005.189-.094a2.389,2.389,0,0,1,.758-.471,2.473,2.473,0,0,1,1.045-.154,3.238,3.238,0,0,1,1.985.872,4.245,4.245,0,0,1,.925.044l.078-.435c-.091-.059-.211-.136-.355-.22,0,0-.09-.053-.182-.1-.324-.176-.586-.3-.687-.339a4.311,4.311,0,0,0-1.658-.45,2.761,2.761,0,0,0-1.755.479C87.2,390.753,87.151,390.793,87.12,390.82Z" transform="translate(-84.073 -380.809)" fill="#dadada"/>
          <path id="Trazado_699662" data-name="Trazado 699662" d="M92.608,392.97a.642.642,0,0,1,.252.464.266.266,0,0,1-.079.22.252.252,0,0,1-.263,0,2.725,2.725,0,0,0-.291-.169A3.5,3.5,0,0,0,90,393.266a8.746,8.746,0,0,0-3.323,1.473c-.094.025-.231.054-.325.079.014-.066.039-.152.068-.276a2.86,2.86,0,0,1,1.445-1.336c1.284-.642,3.241-1.376,4.459-.487A2.059,2.059,0,0,1,92.608,392.97Z" transform="translate(-83.898 -381.534)" fill="#dadada"/>
          <path id="Trazado_699663" data-name="Trazado 699663" d="M86.179,393.632a1.482,1.482,0,0,0-.163.351.624.624,0,0,0-.01.414.105.105,0,0,0,.05.047c.068.028.149-.044.157-.052a1.454,1.454,0,0,1,.388-.5c.764-.619,2.21-.375,3.632.556.337.062.581.114.918.176l.047-.253.022-.109a4.329,4.329,0,0,0-3.635-1.28A3.465,3.465,0,0,0,86.179,393.632Z" transform="translate(-83.764 -381.747)" fill="#dadada"/>
          <path id="Trazado_699664" data-name="Trazado 699664" d="M92.012,395.849a.444.444,0,0,1,.22.267.376.376,0,0,1-.087.329.337.337,0,0,1-.163.09,4.792,4.792,0,0,0-2.5-.461,4.851,4.851,0,0,0-2.859,1.3,6.066,6.066,0,0,0-.66.241c-.115.049-.224.1-.327.153.033-.132.065-.264.1-.4a7.547,7.547,0,0,1,1.285-1.1,5.068,5.068,0,0,1,2.4-1A4.449,4.449,0,0,1,92.012,395.849Z" transform="translate(-83.648 -382.561)" fill="#dadada"/>
          <path id="Trazado_699665" data-name="Trazado 699665" d="M85.361,396.317c-.061.164-.191.547-.067.633a.166.166,0,0,0,.138,0c.244-.066.483-.155.732-.2a4.528,4.528,0,0,1,2.971.617l1.352.313c-.28-.295-1.986-2.031-4.1-1.7A3.569,3.569,0,0,0,85.361,396.317Z" transform="translate(-83.511 -382.801)" fill="#dadada"/>
          <path id="Trazado_699666" data-name="Trazado 699666" d="M84.55,399.8a6.691,6.691,0,0,1,6.443-.26.43.43,0,0,0,.28-.212.524.524,0,0,0-.244-.585,7.212,7.212,0,0,0-1.359-.528,6.612,6.612,0,0,0-1.9-.261,5.761,5.761,0,0,0-3.119,1.091.6.6,0,0,0-.216.507A.5.5,0,0,0,84.55,399.8Z" transform="translate(-83.226 -383.501)" fill="#dadada"/>
          <path id="Trazado_699667" data-name="Trazado 699667" d="M91.345,393.621a.237.237,0,0,1-.1-.022.288.288,0,0,1-.136-.366,4.7,4.7,0,0,0,.162-2.9,4.354,4.354,0,0,0-.878-1.671,3.577,3.577,0,0,0-.527,2,3.5,3.5,0,0,0,.467,1.6.294.294,0,0,1-.08.385.244.244,0,0,1-.354-.087,4.084,4.084,0,0,1-.545-1.873,4.2,4.2,0,0,1,.811-2.625.252.252,0,0,1,.182-.1.24.24,0,0,1,.194.075,4.916,4.916,0,0,1,1.223,2.145,5.307,5.307,0,0,1-.182,3.28A.256.256,0,0,1,91.345,393.621Z" transform="translate(-84.941 -380.016)" fill="#d1d3d4"/>
          <path id="Trazado_699668" data-name="Trazado 699668" d="M91.672,387.9c-.409-.6-1.25-.571-2.384-.172-.992-.43-2.978-.716-3.279.566,0,0-.2.918.557,1.084s2.633-1.163,2.633-1.163a7.98,7.98,0,0,0,2,.979c.528.136.785.01.856-.3A2.168,2.168,0,0,0,91.672,387.9Zm-4.657.972c-.613.208-.7-.327-.3-.708a2.51,2.51,0,0,1,1.925-.224Zm4.5-.187c-.119.185-.98-.283-1.694-.639a2.347,2.347,0,0,1,1.238.016A.528.528,0,0,1,91.512,388.684Z" transform="translate(-83.769 -379.812)" fill="#d1d3d4"/>
        </g>
      </g>
      <g id="Grupo_950440" data-name="Grupo 950440" transform="translate(20.739)">
        <path id="Trazado_699669" data-name="Trazado 699669" d="M124.724,241.513c1.149-8.3,3.56-26.516-1.116-33.107-.921-1.3-1.756-2.657-2.675-3.957-1.737-2.458-2.9-3.89-3.51-6.241a11.817,11.817,0,0,1-.334-1.894q-2.478,3.287-4.991,6.895-2.26,3.251-4.28,6.393c.134,4.795-.686,12.511-.553,17.305,0,0,2.754,19.612,3.425,34.934.173,3.976.48,7.233.818,10.792.031.386.088,1.006.159,1.723v.005c.176,1.776.43,4.122.531,4.861-.508,5.885.089,18.239.558,26.06.39,6.5.466,9.41.251,11.814l.012,0c-.043.474-.1.932-.164,1.4-.717,1.4,4.588,5.118,4.5,1.78a10.693,10.693,0,0,0,.24-3.531c.005-.187.014-.482.027-.842.081-2.367.74-11.186,2.815-24.548,1.436-9.246.639-12.321.161-14.436a23.3,23.3,0,0,1-.371-4.614c.023-.812.3-1.6,2.112-11.871C123.258,255.212,124.278,244.736,124.724,241.513Z" transform="translate(-107.25 -196.313)" fill="#f8c2a8"/>
        <g id="Grupo_950439" data-name="Grupo 950439" transform="translate(4.479 116.942)">
          <path id="Trazado_699670" data-name="Trazado 699670" d="M114.412,391.188a.067.067,0,0,0-.133.009,9.444,9.444,0,0,0-.033,2.634,6.841,6.841,0,0,1,.22,1.972,6.733,6.733,0,0,1-.117,1.019c-.038.215-.061.373-.068.408-.631,3.549.831,5.4.831,5.4a3.607,3.607,0,0,0,.323.353c2.016,2,5.666,2.421,7.626.538a2.88,2.88,0,0,0,.449-.521c1.139-1.713.334-4.415.094-5.154a4.05,4.05,0,0,1-.14,1.563,3.793,3.793,0,0,1-2.374,2.387c-2.408.833-5.528-1.525-6.039-4.1-.214-1.078.158-1.55-.028-3.574A13.355,13.355,0,0,0,114.412,391.188Z" transform="translate(-114.124 -381.125)" fill="#dadada"/>
          <path id="Trazado_699671" data-name="Trazado 699671" d="M123.911,379a.88.88,0,0,0,.126-.437c.007-1.348-2.848-3.278-4.789-2.678-2.412.746-3.558,5.468-3.558,5.468h0l.749,13.564,7.743-.7-2.755-9.408.106-1.617Z" transform="translate(-114.67 -375.774)" fill="#015ba4"/>
          <path id="Trazado_699672" data-name="Trazado 699672" d="M115.78,378.319c-.234-.4-.387-.471-.487-.448-.5.117-.5,2.792-.5,3.725,0,1.119.074,1.52.014,2.656-.042.8-.122,1.443-.182,1.866-.007.053-.018.135-.028.235a12.915,12.915,0,0,0,.351,3.815c.282,1.943-.117,2.066.253,3.479a7.618,7.618,0,0,0,.843,2l1.194-2.387a3.139,3.139,0,0,0,.154-.84,3.209,3.209,0,0,0-.182-1.227q-.869-4.645-1.739-9.29Z" transform="translate(-114.272 -376.503)" fill="#01a0e4"/>
          <path id="Trazado_699673" data-name="Trazado 699673" d="M125.068,385.748c-.169.295-.49.758-.525.888a8.9,8.9,0,0,0-.163,2.5q.763,3.139,1.528,6.278a13.53,13.53,0,0,0,1.29,2.283,7.537,7.537,0,0,0-.346-3.1c-.338-1.063-1.073-3.008-2.116-5.457A23.9,23.9,0,0,1,125.068,385.748Z" transform="translate(-117.685 -379.249)" fill="#01a0e4"/>
          <path id="Trazado_699674" data-name="Trazado 699674" d="M120.295,401.745a5.547,5.547,0,0,0-3.455,2.2,4.846,4.846,0,0,0,4.241,1.866c2.174-.317,3.1-.773,3.5-2.566A5.19,5.19,0,0,0,120.295,401.745Z" transform="translate(-115.07 -384.803)" fill="#e6e7e8"/>
          <path id="Trazado_699675" data-name="Trazado 699675" d="M115.127,388.129c0,.334.132.605.3.605s.295-.271.295-.605-.132-.6-.295-.6S115.127,387.8,115.127,388.129Zm.337,1.235c.163,0,.3.271.3.605s-.132.6-.3.6-.295-.271-.295-.6S115.3,389.364,115.464,389.364Zm.1,1.8c.163,0,.3.27.3.6s-.132.605-.3.605-.295-.271-.295-.605S115.4,391.163,115.562,391.163Zm.3,1.765c.163,0,.3.271.3.6s-.132.605-.3.605-.295-.271-.295-.605S115.7,392.927,115.864,392.927Zm.583,2.017c.163,0,.295.271.295.605s-.132.6-.295.6-.3-.271-.3-.6S116.284,394.944,116.447,394.944Zm6.716.294c.156-.056.348.158.429.478s.019.625-.137.681-.348-.158-.428-.478S123.008,395.295,123.164,395.239Zm-.505-1.9c.152-.038.382.217.428.478.033.19-.017.465-.169.508s-.323-.142-.4-.305C122.4,393.748,122.5,393.374,122.659,393.334Zm-.58-1.634c.145-.052.328.165.409.485s.028.622-.117.674-.328-.165-.408-.485S121.934,391.752,122.079,391.7Zm-.654-1.831c.091-.033.231.2.311.519s.072.606-.02.639-.231-.2-.311-.52S121.333,389.9,121.425,389.869Zm-.051-1.859c.1-.007.172.228.167.525s-.088.543-.186.549-.171-.228-.166-.525S121.276,388.017,121.374,388.01Z" transform="translate(-114.473 -379.867)" fill="#0f0f0f"/>
          <path id="Trazado_699676" data-name="Trazado 699676" d="M115.673,387.851a.363.363,0,0,0-.325.42.359.359,0,0,0,.378.262,5.376,5.376,0,0,1,3.92.832c.547.146,1.06.286,1.608.431a7.011,7.011,0,0,0-2.786-1.711,6.653,6.653,0,0,0-1.579-.286A6.277,6.277,0,0,0,115.673,387.851Z" transform="translate(-114.548 -379.96)" fill="#dadada"/>
          <path id="Trazado_699677" data-name="Trazado 699677" d="M121.954,388.312a.225.225,0,0,1,.051.023c.2.125.117.531.07.673a.2.2,0,0,1-.1.134.144.144,0,0,1-.09,0,7.141,7.141,0,0,0-.891-.158,7.277,7.277,0,0,0-2.7.215l-1.259.117-.031-.2a3.132,3.132,0,0,1,.955-.657,4.336,4.336,0,0,1,1.84-.286c.6-.009,1.03,0,1.218.012A9.059,9.059,0,0,1,121.954,388.312Z" transform="translate(-115.126 -380.094)" fill="#dadada"/>
          <path id="Trazado_699678" data-name="Trazado 699678" d="M115.816,390.212a.44.44,0,0,0-.119.555.315.315,0,0,0,.216.1c.025-.02.065-.051.115-.086a2.772,2.772,0,0,1,1.909-.365,6.37,6.37,0,0,1,3.7,1.688c.059.056.108.1.141.136q-.074-.309-.151-.616c-.014-.056-.028-.111-.042-.167a5.808,5.808,0,0,0-3.183-1.786,3.518,3.518,0,0,0-2.047.22A2.993,2.993,0,0,0,115.816,390.212Z" transform="translate(-114.652 -380.594)" fill="#dadada"/>
          <path id="Trazado_699679" data-name="Trazado 699679" d="M122.213,390.82a.734.734,0,0,1,.126.146c.156.237.173.569.079.613-.029.014-.083.005-.189-.094a2.388,2.388,0,0,0-.758-.471,2.473,2.473,0,0,0-1.045-.154,3.238,3.238,0,0,0-1.985.872,4.245,4.245,0,0,0-.925.044c-.026-.145-.051-.29-.078-.435.091-.059.21-.136.355-.22,0,0,.09-.053.182-.1.324-.176.586-.3.687-.339a4.311,4.311,0,0,1,1.658-.45,2.761,2.761,0,0,1,1.755.479C122.135,390.753,122.181,390.793,122.213,390.82Z" transform="translate(-115.278 -380.809)" fill="#dadada"/>
          <path id="Trazado_699680" data-name="Trazado 699680" d="M115.938,392.97a.642.642,0,0,0-.252.464.266.266,0,0,0,.079.22.252.252,0,0,0,.263,0,2.661,2.661,0,0,1,.291-.169,3.5,3.5,0,0,1,2.226-.219,8.746,8.746,0,0,1,3.323,1.473c.094.025.231.054.325.079-.014-.066-.039-.152-.068-.276a2.86,2.86,0,0,0-1.445-1.336c-1.284-.642-3.241-1.376-4.459-.487A2.02,2.02,0,0,0,115.938,392.97Z" transform="translate(-114.668 -381.534)" fill="#dadada"/>
          <path id="Trazado_699681" data-name="Trazado 699681" d="M123.04,393.632a1.482,1.482,0,0,1,.163.351.624.624,0,0,1,.01.414.105.105,0,0,1-.05.047c-.068.028-.149-.044-.157-.052a1.454,1.454,0,0,0-.388-.5c-.764-.619-2.21-.375-3.632.556-.337.062-.581.114-.918.176-.016-.085-.031-.169-.048-.253-.007-.037-.014-.073-.021-.109a4.329,4.329,0,0,1,3.635-1.28A3.465,3.465,0,0,1,123.04,393.632Z" transform="translate(-115.474 -381.747)" fill="#dadada"/>
          <path id="Trazado_699682" data-name="Trazado 699682" d="M116.482,395.849a.444.444,0,0,0-.22.267.376.376,0,0,0,.087.329.337.337,0,0,0,.163.09,4.792,4.792,0,0,1,2.5-.461,4.852,4.852,0,0,1,2.859,1.3,6.01,6.01,0,0,1,.659.241c.116.049.225.1.328.153-.033-.132-.065-.264-.1-.4a7.547,7.547,0,0,0-1.285-1.1,5.068,5.068,0,0,0-2.4-1A4.448,4.448,0,0,0,116.482,395.849Z" transform="translate(-114.866 -382.561)" fill="#dadada"/>
          <path id="Trazado_699683" data-name="Trazado 699683" d="M123.86,396.317c.061.164.191.547.067.633a.166.166,0,0,1-.137,0c-.244-.066-.483-.155-.732-.2a4.528,4.528,0,0,0-2.971.617l-1.352.313c.28-.295,1.986-2.031,4.1-1.7A3.569,3.569,0,0,1,123.86,396.317Z" transform="translate(-115.73 -382.801)" fill="#dadada"/>
          <path id="Trazado_699684" data-name="Trazado 699684" d="M123.8,399.8a6.691,6.691,0,0,0-6.443-.26.43.43,0,0,1-.28-.212.524.524,0,0,1,.244-.585,7.213,7.213,0,0,1,1.359-.528,6.613,6.613,0,0,1,1.9-.261,5.761,5.761,0,0,1,3.119,1.091.6.6,0,0,1,.216.507A.5.5,0,0,1,123.8,399.8Z" transform="translate(-115.143 -383.501)" fill="#dadada"/>
          <path id="Trazado_699685" data-name="Trazado 699685" d="M119.294,393.621a.238.238,0,0,0,.1-.022.288.288,0,0,0,.136-.366,4.7,4.7,0,0,1-.162-2.9,4.354,4.354,0,0,1,.878-1.671,3.577,3.577,0,0,1,.527,2,3.5,3.5,0,0,1-.467,1.6.294.294,0,0,0,.08.385.244.244,0,0,0,.354-.087,4.084,4.084,0,0,0,.545-1.873,4.2,4.2,0,0,0-.811-2.625.252.252,0,0,0-.182-.1.24.24,0,0,0-.194.075,4.916,4.916,0,0,0-1.223,2.145,5.307,5.307,0,0,0,.182,3.28A.256.256,0,0,0,119.294,393.621Z" transform="translate(-115.717 -380.016)" fill="#d1d3d4"/>
          <path id="Trazado_699686" data-name="Trazado 699686" d="M117.11,387.9c.409-.6,1.25-.571,2.384-.172.992-.43,2.978-.716,3.279.566,0,0,.2.918-.557,1.084s-2.633-1.163-2.633-1.163a7.981,7.981,0,0,1-2,.979c-.528.136-.785.01-.856-.3A2.168,2.168,0,0,1,117.11,387.9Zm4.657.972c.612.208.7-.327.3-.708a2.51,2.51,0,0,0-1.925-.224Zm-4.5-.187c.119.185.98-.283,1.694-.639a2.348,2.348,0,0,0-1.238.016A.528.528,0,0,0,117.269,388.684Z" transform="translate(-115.032 -379.812)" fill="#d1d3d4"/>
        </g>
      </g>
    </g>
    <g id="Grupo_950443" data-name="Grupo 950443" transform="translate(51.895 60.299)">
      <g id="Grupo_950442" data-name="Grupo 950442" clip-path="url(#clip-path)">
        <path id="Trazado_699687" data-name="Trazado 699687" d="M121.742,132.173l-6.941-2.061a3.658,3.658,0,0,1-.35-.252c-2.253-2.17.136-6.746.36-7.164l-9.3-1.417c.054.837.285,5.479-2.672,6.841a4.121,4.121,0,0,1-.464.161l-6.83-.1a14.681,14.681,0,0,0,26.193,3.993Z" transform="translate(-95.549 -121.278)" fill="#f8c2a8"/>
        <path id="Trazado_699688" data-name="Trazado 699688" d="M119.314,124.8a14.843,14.843,0,0,1-7.887-.765,13.48,13.48,0,0,1-1.39-.649q.238-1.563.476-3.125l9.277,1.415Z" transform="translate(-100.596 -120.923)" fill="#de8d7b"/>
      </g>
    </g>
    <g id="Grupo_950451" data-name="Grupo 950451" transform="translate(49.673 5.124)">
      <g id="Grupo_950446" data-name="Grupo 950446" transform="translate(0 23.827)">
        <g id="Grupo_950444" data-name="Grupo 950444" transform="translate(38.67 12.618)">
          <path id="Trazado_699690" data-name="Trazado 699690" d="M159.293,97.9c-1.639,2.525-2.859,2.161-5.334,4.874-.633.694-1.018,1.227-1.458,1.157-.718-.114-1.023-1.741-1.02-2.8.01-3.975,4.421-9.246,6.9-8.534a3.091,3.091,0,0,1,1.849,3.138A4.573,4.573,0,0,1,159.293,97.9Z" transform="translate(-151.481 -92.534)" fill="#f8c2a8"/>
          <path id="Trazado_699691" data-name="Trazado 699691" d="M159.847,96.4c-4.172-2.068-7.946,5.843-7.4,7.322a19.178,19.178,0,0,1,2.394-3.75,1.094,1.094,0,0,1,.489.963,3.428,3.428,0,0,1-.674,2.062,3.7,3.7,0,0,0,1.279-2.258c.091-.657-.055-1.344-.429-1.518.19-.2.386-.4.594-.594A8.709,8.709,0,0,1,159.847,96.4Z" transform="translate(-151.799 -93.762)" fill="#de8d7b"/>
        </g>
        <g id="Grupo_950445" data-name="Grupo 950445">
          <path id="Trazado_699692" data-name="Trazado 699692" d="M92.139,77.167c-.027,3.011,1.192,3.38,1.759,7.008.145.929.171,1.585.577,1.77.661.3,1.814-.888,2.393-1.768,2.186-3.321,1.415-10.151-1.045-10.924a3.089,3.089,0,0,0-3.273,1.6A4.561,4.561,0,0,0,92.139,77.167Z" transform="translate(-92.138 -73.171)" fill="#f8c2a8"/>
          <path id="Trazado_699693" data-name="Trazado 699693" d="M94.142,75.618c4.621.577,3.4,9.257,2.133,10.19a19.169,19.169,0,0,0,.073-4.448,1.093,1.093,0,0,0-.939.534,3.421,3.421,0,0,0-.575,2.091,3.7,3.7,0,0,1,.18-2.588c.287-.6.787-1.091,1.2-1.029-.048-.272-.1-.547-.167-.822A8.7,8.7,0,0,0,94.142,75.618Z" transform="translate(-92.836 -74.023)" fill="#de8d7b"/>
        </g>
      </g>
      <path id="Trazado_699694" data-name="Trazado 699694" d="M131.668,91.943c.1-.175.53-1.014,1.082-2.073.533-1.022,1.288-2.556,2.406-5.117a56.92,56.92,0,0,1,4.061-7.644c-.045-1.185-.985-19.076-14.451-24.679-5.945-2.474-11.7-1.341-16.337.8a35.585,35.585,0,0,0-9.215,7.139c-.189,2.175-.545,5.412-1.267,9.236-.79,4.193-1.078,6.449-1.215,7.894-.1,1.061-.185,2-.21,2.393-.51,7.891,6.113,14.964,6.507,15.382,1.7,1.8,3.375,3.58,6.262,4.582,3.23,1.121,5.962.572,8.85-.008C123.952,98.677,129.681,95.577,131.668,91.943Z" transform="translate(-93.655 -41.63)" fill="#f8c2a8"/>
      <path id="Trazado_699695" data-name="Trazado 699695" d="M124.3,106.067a.469.469,0,0,1,.156.489c-.19.456-1.536.479-2.579.163s-2.173-1.087-2.055-1.576a.466.466,0,0,1,.373-.317c.626-.091.779,1.451,1.731,1.732S123.809,105.648,124.3,106.067Z" transform="translate(-101.781 -60.371)" fill="#de8d7b"/>
      <g id="Grupo_950447" data-name="Grupo 950447" transform="translate(3.924)">
        <path id="Trazado_699696" data-name="Trazado 699696" d="M98.4,62.6c.229-4.854.795-8.405,2.249-11.626a19.31,19.31,0,0,1,3.533-5.453,19.645,19.645,0,0,1,9.972-5.566c8.641-2.014,18.97,2.361,24.451,10.354,1.412,2.059,5.684,9,3.8,17.889a23.136,23.136,0,0,1-7.552,12.582,32.564,32.564,0,0,0,.762-19.686,49.422,49.422,0,0,1-15.564,2.6c-8.467,0-14.4-3.59-18.875.178C99.714,65.1,98.539,67.9,98.16,68.81,98.43,66.429,98.339,63.915,98.4,62.6Z" transform="translate(-98.16 -37.604)" fill="#573218"/>
        <path id="Trazado_699697" data-name="Trazado 699697" d="M141.375,66.811c1.383-4.9,1.13-7.489.691-9.288a14.448,14.448,0,0,0-1.694-4.066,11.077,11.077,0,0,1,2.831,4.067c1.357,3.452.447,6.638-.409,9.486a31.162,31.162,0,0,1-7.28,12.337A43.845,43.845,0,0,0,141.375,66.811Zm-35.791-22.75C99.375,49.4,99.27,57.521,98.943,59.52c1.429-5.042,3.4-10.2,7.666-13.985a26.651,26.651,0,0,1,12.071-6.1C116.472,39.764,110.294,40.011,105.584,44.061Zm24.324-7.431a6.64,6.64,0,0,0-3.273.578,19.13,19.13,0,0,1,3.638,1.536,21.7,21.7,0,0,1,9.21,10.612C138.062,42.124,134.2,37.02,129.907,36.63Zm2.472,14a31.307,31.307,0,0,1-5.523,4.211,33.284,33.284,0,0,1-17.6,4.554,21.339,21.339,0,0,0,14.359-1.133A21.015,21.015,0,0,0,132.38,50.634Z" transform="translate(-98.433 -36.606)" fill="#573218" style="mix-blend-mode: screen;isolation: isolate"/>
      </g>
      <g id="Grupo_950449" data-name="Grupo 950449" transform="translate(12.477 46.159)">
        <g id="Grupo_950448" data-name="Grupo 950448" clip-path="url(#clip-path-2)">
          <path id="Trazado_699698" data-name="Trazado 699698" d="M117.86,109.972a34.138,34.138,0,0,1-7.174-2.9,8.04,8.04,0,0,0,5.959,7.073,8.519,8.519,0,0,0,9.084-2.577A39.059,39.059,0,0,1,117.86,109.972Z" transform="translate(-111.077 -107.313)" fill="#37121a"/>
          <path id="Trazado_699699" data-name="Trazado 699699" d="M125.066,111.725a40.429,40.429,0,0,1-12.86-3.844c.181.934,1.263,2.373,5.576,3.673h0l.055.016.523.156.055.016h0C122.734,113.024,124.413,112.41,125.066,111.725Z" transform="translate(-111.607 -107.595)" fill="#fff"/>
          <path id="Trazado_699700" data-name="Trazado 699700" d="M118.647,115.308c-1.035-.309-3.092-.923-3.732-.2a8.885,8.885,0,0,0,3.2,1.716,9.07,9.07,0,0,0,3.925.3C121.9,116.161,119.682,115.617,118.647,115.308Z" transform="translate(-112.55 -109.995)" fill="#860718"/>
        </g>
      </g>
      <g id="Grupo_950450" data-name="Grupo 950450" transform="translate(6.648 25.211)">
        <path id="Trazado_699702" data-name="Trazado 699702" d="M136.278,86.094c-1.018.727-1.407,1.469-1.262,2.225,2.5-.576,10.1.376,11.095,1.443A9.019,9.019,0,0,1,147.663,92c.213-.96-1.033-4.722-4-6.178C143.135,85.562,136.278,86.094,136.278,86.094Z" transform="translate(-113.713 -78.938)" fill="#573218"/>
        <path id="Trazado_699703" data-name="Trazado 699703" d="M144.37,97.641a2.768,2.768,0,0,1-1.051-.72,2.459,2.459,0,0,0,.809.187,2.6,2.6,0,0,0,1.113-.183,3.478,3.478,0,0,1-1.178-.108,3.354,3.354,0,0,1-1.279-.668,1.962,1.962,0,0,0,1.022.123,2.1,2.1,0,0,0,.928-.383,3.237,3.237,0,0,1-2.235-.2,7.689,7.689,0,0,0-5.483-1.236,5.811,5.811,0,0,0-3.267,1.782,13.794,13.794,0,0,1,3.282-.774c2.42-.087,4.47,1.423,5.916,2.861a1.682,1.682,0,0,0,.227.153,1.654,1.654,0,0,0,.3.137,1.806,1.806,0,0,0,.947.054,1.958,1.958,0,0,0,1.2-.839A2.877,2.877,0,0,1,144.37,97.641Z" transform="translate(-113.282 -81.926)" fill="#573218"/>
        <path id="Trazado_699704" data-name="Trazado 699704" d="M103.471,84.9a2.767,2.767,0,0,0,1.274,0,2.463,2.463,0,0,1-.772-.3,2.606,2.606,0,0,1-.811-.783,3.488,3.488,0,0,0,1.031.58,3.361,3.361,0,0,0,1.432.177,1.961,1.961,0,0,1-.911-.48,2.085,2.085,0,0,1-.547-.843,3.269,3.269,0,0,0,1.022.8,3.22,3.22,0,0,0,.934.3,7.69,7.69,0,0,1,5.215,2.1,5.809,5.809,0,0,1,1.677,3.321,13.768,13.768,0,0,0-2.262-2.5c-1.942-1.445-4.486-1.368-6.494-1a1.786,1.786,0,0,1-.274,0,1.69,1.69,0,0,1-.326-.058,1.8,1.8,0,0,1-.81-.493,1.959,1.959,0,0,1-.508-1.369A2.881,2.881,0,0,0,103.471,84.9Z" transform="translate(-102.341 -78.068)" fill="#573218"/>
        <path id="Trazado_699705" data-name="Trazado 699705" d="M115.672,79.647c.448,1.168.362,2-.176,2.552-1.765-1.859-8.635-5.263-10.049-4.919a9.012,9.012,0,0,0-2.528,1.007c.352-.917,3.467-3.368,6.747-2.943C110.248,75.42,115.672,79.647,115.672,79.647Z" transform="translate(-102.542 -75.296)" fill="#573218"/>
      </g>
    </g>
    <g id="Grupo_950452" data-name="Grupo 950452" transform="translate(16.311 0)">
      <path id="Trazado_699706" data-name="Trazado 699706" d="M145.975,50.088a26.614,26.614,0,0,0-1.232-6.8,17.313,17.313,0,0,0-4.182-7.187c-4.8-5-10.759-6.207-14.681-6.868a33.973,33.973,0,0,0-3.57-.4c-3.349-.225-13.187-.4-18.6,4.32a14.353,14.353,0,0,0-3.213,4.011,17.517,17.517,0,0,0-1.263,3.177,38.083,38.083,0,0,0-1.176,5.094c-.246,1.353-.541,3.158-.8,5.31a48.571,48.571,0,0,1,19.125-4.772,45.639,45.639,0,0,1,29.23,9.64A24.632,24.632,0,0,0,145.975,50.088Z" transform="translate(-60.561 -28.743)" fill="#f4a52e"/>
      <path id="Trazado_699707" data-name="Trazado 699707" d="M122.769,64.556a60.4,60.4,0,0,0-18.343-5.693,57.005,57.005,0,0,0-11.267-.388h0q-2.6.32-5.267.724s-2.721.414-5.4.905c-3.828.7-19.888,5.233-41.545,12.871a155,155,0,0,0,19.611-2.813c6.3-1.327,8.932-2.309,14.413-2.647a67.389,67.389,0,0,1,14.624.908,107.231,107.231,0,0,1,18.753,4.595c8.31,2.887,13.245,4.754,45.634,6.557C133.56,72.467,131.365,68.61,122.769,64.556Z" transform="translate(-40.941 -39.06)" fill="#f4a52e"/>
      <path id="Trazado_699708" data-name="Trazado 699708" d="M97.818,53.95a79.754,79.754,0,0,1,21.119-1.562,76.439,76.439,0,0,1,26.875,6.664c.006.831-.023,1.746-.107,2.734-.065.765-.156,1.484-.262,2.15a74.1,74.1,0,0,0-48.717-4.659Q97.272,56.613,97.818,53.95Z" transform="translate(-60.375 -36.93)" fill="#754c29"/>
    </g>
    <g id="Grupo_950454" data-name="Grupo 950454" transform="translate(45.077 66.124)">
      <g id="Grupo_950453" data-name="Grupo 950453" transform="translate(0 0)" clip-path="url(#clip-path-3)">
        <path id="Trazado_699709" data-name="Trazado 699709" d="M110.726,177.729a33.351,33.351,0,0,1,.021-3.705,25.788,25.788,0,0,1,.3-2.82,21.382,21.382,0,0,1,1.471-4.7,58.272,58.272,0,0,1,2.82-5.956,10.148,10.148,0,0,0,2.782-3.407,11.5,11.5,0,0,0,1.209-5.643c.186-.335.42-.779.669-1.316.015-.032.182-.373.333-.759a34.883,34.883,0,0,0,2.111-8.237c.119-.831.223-1.75.319-2.721a5.63,5.63,0,0,0-.888-1.6,5.4,5.4,0,0,0-3.1-1.8c-1.946-.508-4.355-1.25-7.307-2.17a6.609,6.609,0,0,1-13.076-1.928c-2.889,0-7.883-.954-9.8-1.045-.754-.035.478.818-.887,1.735a5.623,5.623,0,0,0-1.324,1.26c-.2.956-.372,1.864-.506,2.693a34.863,34.863,0,0,0-.439,8.491c.029.42.14,1.153.225,1.871a12.377,12.377,0,0,0-.47,5.362,11.127,11.127,0,0,0,1.645,4.533c.463,2.871.766,5.259.962,6.983a26.113,26.113,0,0,1,.282,4.915,32.346,32.346,0,0,1-1.806,8.186C94.34,177.2,102.662,176.48,110.726,177.729Z" transform="translate(-85.086 -130.114)" fill="#cfd25f"/>
        <path id="Trazado_699710" data-name="Trazado 699710" d="M118.986,160.016a10.526,10.526,0,0,1-3.764,8.97c-1.269,1.08-3.657,1.248-7.015.469a30.331,30.331,0,0,1-6.89-3.1,41.488,41.488,0,0,1-7.882.449,14.5,14.5,0,0,1-5.582-1.269,36.222,36.222,0,0,1,.049,4.7,36.855,36.855,0,0,1-2.41,11.192l-1.366-.21c.4-3.072,3.119-6.226,2.887-10.316a57.987,57.987,0,0,0-.771-6.681,10.935,10.935,0,0,1-1.322-3.624,13.038,13.038,0,0,1,.417-6.055c-.171.9-1.045,5.938,2.063,8.986a8.522,8.522,0,0,0,3.029,1.782,18.225,18.225,0,0,0,11.007.349,14.7,14.7,0,0,0,7.713,3.3,9.074,9.074,0,0,0,5.149-.579C118.5,166.325,118.952,160.547,118.986,160.016Z" transform="translate(-84.751 -138.69)" fill="#bab452" style="mix-blend-mode: multiply;isolation: isolate"/>
      </g>
    </g>
    <g id="Grupo_950456" data-name="Grupo 950456" transform="translate(37.914 111.916)">
      <path id="Trazado_699712" data-name="Trazado 699712" d="M107.054,201.572c-3.594.018-8.334.035-12.124.053-3.79-.018-8.53-.036-12.124-.053-2.122,8.048-12.779,7.713-7.032,42.779,7.837,1.946,9.926,1.215,17.068-.779l2.088-8.527,2.088,8.527c7.143,1.994,9.232,2.726,17.068.779C119.833,209.285,109.175,209.62,107.054,201.572Z" transform="translate(-74.093 -200.867)" fill="#d0875a"/>
      <path id="Trazado_699713" data-name="Trazado 699713" d="M75.466,269.173a30.815,30.815,0,0,0,9.353,1.392,27.16,27.16,0,0,0,8.387-1.226c1.092-.4.929-4.444.058-4.073a27.606,27.606,0,0,1-8.6,1.238,28.245,28.245,0,0,1-8.75-1.243C74.863,264.9,74.537,268.865,75.466,269.173Z" transform="translate(-74.381 -223.047)" fill="#b06143"/>
      <path id="Trazado_699714" data-name="Trazado 699714" d="M76.116,236.422a34.487,34.487,0,0,0,4.751-3.893,30.4,30.4,0,0,0,3.619-4.151c.408-.606-.716-1.61-1.029-1.114a30.928,30.928,0,0,1-3.716,4.251,31.636,31.636,0,0,1-4.429,3.658C74.726,235.557,75.6,236.763,76.116,236.422Z" transform="translate(-74.45 -209.771)" fill="#b06143"/>
      <path id="Trazado_699715" data-name="Trazado 699715" d="M126.587,269.173a31.124,31.124,0,0,1-9.4,1.392,27.436,27.436,0,0,1-8.431-1.226c-1.1-.4-.934-4.444-.059-4.073a27.89,27.89,0,0,0,8.645,1.238,28.532,28.532,0,0,0,8.8-1.243C127.193,264.9,127.521,268.865,126.587,269.173Z" transform="translate(-85.9 -223.047)" fill="#b06143"/>
      <path id="Trazado_699716" data-name="Trazado 699716" d="M130.969,236.294a34.488,34.488,0,0,1-4.751-3.893,30.384,30.384,0,0,1-3.619-4.151c-.408-.606.716-1.611,1.029-1.114a30.87,30.87,0,0,0,3.715,4.252,31.666,31.666,0,0,0,4.43,3.658C132.359,235.428,131.485,236.634,130.969,236.294Z" transform="translate(-90.96 -209.726)" fill="#b06143"/>
      <path id="Trazado_699717" data-name="Trazado 699717" d="M103.357,221.4h-.277V201.87h3.271v14.26C106.351,219.284,104.8,221.4,103.357,221.4Zm.277-18.31v17.056c1.073-.238,2.163-1.822,2.163-4.019V203.092Z" transform="translate(-84.191 -200.971)" fill="#b06143"/>
      <g id="Grupo_950455" data-name="Grupo 950455" transform="translate(6.673)">
        <path id="Trazado_699718" data-name="Trazado 699718" d="M111.724,202.14H86.33l.353-1.649h24.685Z" transform="translate(-85.029 -200.491)" fill="#d0875a"/>
        <path id="Trazado_699719" data-name="Trazado 699719" d="M112.672,205.515l-28.33-.056a6.778,6.778,0,0,1,1.039-3.944l26.142.05a12.294,12.294,0,0,1,1.148,3.951Z" transform="translate(-84.334 -200.848)" fill="#a97c50"/>
        <rect id="Rectángulo_338075" data-name="Rectángulo 338075" width="1.288" height="4.237" transform="translate(8.989 0.612)" fill="#d0875a"/>
        <rect id="Rectángulo_338076" data-name="Rectángulo 338076" width="1.288" height="4.237" transform="translate(2.709 0.612)" fill="#d0875a"/>
        <rect id="Rectángulo_338077" data-name="Rectángulo 338077" width="1.288" height="4.237" transform="translate(23.75 0.612)" fill="#d0875a"/>
        <rect id="Rectángulo_338078" data-name="Rectángulo 338078" width="1.288" height="4.237" transform="translate(17.278 0.544)" fill="#d0875a"/>
        <path id="Trazado_699720" data-name="Trazado 699720" d="M105.209,200.983h-2.433a1.561,1.561,0,0,0-1.421,1.668V204a1.561,1.561,0,0,0,1.421,1.668h2.433A1.561,1.561,0,0,0,106.63,204v-1.347A1.561,1.561,0,0,0,105.209,200.983Zm0,4.015h-2.433a.936.936,0,0,1-.852-1v-1.347a.936.936,0,0,1,.852-1h2.433a.935.935,0,0,1,.852,1v.315h-1.908a.339.339,0,0,0,0,.668h1.908V204A.935.935,0,0,1,105.209,205Z" transform="translate(-90.264 -200.662)" fill="#f1f2f2"/>
      </g>
    </g>
    <g id="Grupo_950457" data-name="Grupo 950457" transform="translate(78.755 71.851)">
      <path id="Trazado_699721" data-name="Trazado 699721" d="M145.757,148.7c-.308.214-4.473-4.047-5.16-1.842a6.2,6.2,0,0,1-1.151,2.077c-2.762,3.819,5.726,12.8,10.834,19.234.227.285,2.975,3.11,4.483,2.451.1-.044.826.617,1.992-1.132C158.463,166.929,147.132,147.745,145.757,148.7Z" transform="translate(-137.513 -141.521)" fill="#f8c2a8"/>
      <path id="Trazado_699722" data-name="Trazado 699722" d="M150.993,153.294c-5.77-9.485-10.5-14.776-11.19-14.252-.326.246.032,1.6-.622,4.024a21.4,21.4,0,0,1-.9,3c-1.564,2.348-4.134,5,5.615,13.111Z" transform="translate(-136.768 -139.006)" fill="#cfd25f"/>
      <path id="Trazado_699723" data-name="Trazado 699723" d="M155.631,162.592l-6.865,5.475c-.382.3-1.946-.952-1.617-1.273l7.668-6.139C155.216,160.375,156.028,162.261,155.631,162.592Z" transform="translate(-140.369 -146.538)" fill="#bab452"/>
    </g>
    <g id="Grupo_950458" data-name="Grupo 950458" transform="translate(34.123 42.623)">
      <path id="Trazado_699724" data-name="Trazado 699724" d="M83.491,114.452c-.335.169,1.444,5.857-.823,5.417a8.868,8.868,0,0,0-2.375.029c-6.575-.77-11.875-20.318-12.016-21.478-.044-.361,1.986-4.057,4.077-4.266C74.026,93.986,84.986,113.695,83.491,114.452Z" transform="translate(-68.276 -94.152)" fill="#f8c2a8"/>
      <path id="Trazado_699725" data-name="Trazado 699725" d="M81.8,112.054A40.461,40.461,0,0,0,91.8,123.028c.831.624,1.658,1.194,2.475,1.713-2.381,2.5-5,5.063-7.881,7.649q-2.571,2.31-5.071,4.347c-.167-.658-.437-1.631-.836-2.786a34.958,34.958,0,0,0-2.452-5.517c-1.1-2.015-2.657-5.687-4.774-12.923Z" transform="translate(-70.012 -100.389)" fill="#cfd25f"/>
      <path id="Trazado_699726" data-name="Trazado 699726" d="M80.314,109.359l-8.074,3.451c-.448.192-.084,2.165.354,2.027l9.041-3.844C82.069,110.776,80.793,109.167,80.314,109.359Z" transform="translate(-69.585 -99.445)" fill="#bab452"/>
    </g>
    <g id="Grupo_950459" data-name="Grupo 950459" transform="translate(72.634 70.028)">
      <path id="Trazado_699727" data-name="Trazado 699727" d="M132.055,177.449c-1.3-2.63-2.715-5.13-2.775-8.377-.027-1.486.219-2.918.093-3.731,2,.317,3.559.577,5.56.894-.119.706-.219,1.469-.285,2.284a34.681,34.681,0,0,0,.061,4.721,4.067,4.067,0,0,1-.8,2.349c-1.119,1.826-1.55,2.06-1.653,2.056S132.083,177.506,132.055,177.449Z" transform="translate(-128.038 -146.357)" fill="#a46846"/>
      <path id="Trazado_699728" data-name="Trazado 699728" d="M133.017,136.215c.188.029,1.209.265,1.853.426,3.132.785,3.342,1.237,3.37,1.372a.191.191,0,0,1-.012.117.3.3,0,0,1-.191.143c-.2-.1-.3-.173-.416-.169a.418.418,0,0,0-.246.133c-.277.3-1.525,11.484-1.592,12.352l-6.134-.927C129.725,148.427,130.884,135.887,133.017,136.215Z" transform="translate(-128.166 -136.208)" fill="#b87c5a"/>
      <path id="Trazado_699729" data-name="Trazado 699729" d="M128.169,156.706l-.791,5.19c-.037.238.22.475.573.528l6.432.981c.353.054.669-.1.705-.334l.791-5.19c.036-.238-.22-.475-.573-.528l-6.432-.981C128.521,156.318,128.206,156.468,128.169,156.706Z" transform="translate(-127.375 -143.229)" fill="#414042"/>
      <path id="Trazado_699730" data-name="Trazado 699730" d="M134.1,162.964l-4.412-.672c-.353-.054-.61-.291-.573-.529l.549-3.6c.036-.238.352-.388.705-.334l4.412.673c.353.054.609.291.573.529l-.55,3.6C134.768,162.869,134.452,163.018,134.1,162.964Z" transform="translate(-127.979 -143.735)" fill="#b87c5a"/>
      <path id="Trazado_699731" data-name="Trazado 699731" d="M129.056,165.8l5.691.867c-.236,2.814-2.051,4.609-3.307,4.509C130.125,171.068,128.542,168.818,129.056,165.8Z" transform="translate(-127.926 -146.516)" fill="#b87c5a"/>
    </g>
    <g id="Grupo_950460" data-name="Grupo 950460" transform="translate(42.943 62.068)">
      <path id="Trazado_699732" data-name="Trazado 699732" d="M82.542,161.909c2.406-1.675,4.857-3.178,6.48-5.992.742-1.288,1.219-2.66,1.723-3.31-1.9-.691-3.394-1.215-5.3-1.906-.238.676-.519,1.392-.856,2.137a34.484,34.484,0,0,1-2.337,4.1,4.068,4.068,0,0,0-.432,2.444c.1,2.14.36,2.552.452,2.6S82.49,161.945,82.542,161.909Z" transform="translate(-81.81 -133.297)" fill="#a46846"/>
      <path id="Trazado_699733" data-name="Trazado 699733" d="M99.2,126.854c-.143-.124-.982-.752-1.522-1.14-2.621-1.886-3.165-1.778-3.253-1.674a.193.193,0,0,0-.046.108.359.359,0,0,0,.094.239c.113.124.437.419.476.579.1.4-4.092,10.478-4.454,11.271l5.818,2.155C96.847,137.273,100.831,128.271,99.2,126.854Z" transform="translate(-84.837 -123.992)" fill="#b87c5a"/>
      <path id="Trazado_699734" data-name="Trazado 699734" d="M95.439,145.057l-1.817,4.926c-.083.226-.423.309-.758.186l-6.1-2.252c-.335-.124-.539-.407-.456-.633l1.817-4.925c.083-.226.422-.31.757-.186l6.105,2.251C95.318,144.548,95.522,144.831,95.439,145.057Z" transform="translate(-83.369 -130.306)" fill="#414042"/>
      <path id="Trazado_699735" data-name="Trazado 699735" d="M88.657,148.109l4.187,1.544c.335.124.674.04.757-.186l1.262-3.42c.083-.226-.121-.51-.456-.633L90.22,143.87c-.336-.123-.674-.04-.758.186l-1.262,3.42C88.118,147.7,88.322,147.985,88.657,148.109Z" transform="translate(-84.03 -130.897)" fill="#b87c5a"/>
      <path id="Trazado_699736" data-name="Trazado 699736" d="M92.375,153.111l-5.4-1.992c-1.154,2.577-.433,5.026.715,5.547C88.89,157.21,91.363,156.006,92.375,153.111Z" transform="translate(-83.405 -133.442)" fill="#b87c5a"/>
    </g>
    <path id="Trazado_699737" data-name="Trazado 699737" d="M126.325,192.5c-.235-.267-.581-.673-.969-1.189-1.31-1.739-1.894-3.1-2.23-3.463a8.519,8.519,0,0,0-3.718-1.9.432.432,0,0,0-.483.324c-.1.373.531.716,2.653,1.969,1.064,1.874,1.211,2.731.953,2.629a15.629,15.629,0,0,0-2.936-1.606,6.843,6.843,0,0,0-2.334.377c-.97.3-.586.867-.481.919a.712.712,0,0,0,.478.145c.237,0,1.432-.053,1.929-.024a4.248,4.248,0,0,1,2.347,1.739c-.007.145-2.258-1.18-2.984-.973a7.316,7.316,0,0,0-2.343.955c-.091.149.1.532.3.618a1.293,1.293,0,0,0,.783.067c1.636-.2,1.371-.26,2.621.43a3.8,3.8,0,0,1,.9.6c.093.229-1.458-.04-2.249.027a2.55,2.55,0,0,0-1.507.832.41.41,0,0,0,.3.688,4.6,4.6,0,0,1,.867-.3,4.528,4.528,0,0,1,2.047.164c1.167.487,1.368,1.311,2.231,1.95.738.546,1.591.364,4.15.012,1.987-.274,15.766-8.538,20.4-14.055.834-.993,2.639-3.338,1.658-4.9a4.118,4.118,0,0,0-2.2-1.546,6.191,6.191,0,0,0-5.212,1.588C137.411,182.922,129.357,193.063,126.325,192.5Z" transform="translate(-50.842 -80.354)" fill="#f8c2a8"/>
    <path id="Trazado_699738" data-name="Trazado 699738" d="M64.912,41.857c-.139-.243-.736-.115-.809-.1a3.172,3.172,0,0,0-2.057,1.815c-.25.419-.371.766-.7.85a.778.778,0,0,1-.739-.319,5.537,5.537,0,0,1-.709-2.184c-.04-.688.061-3.436.149-5.6-.064-.537-.151-.719-.392-.908a.58.58,0,0,0-.85.089,5.726,5.726,0,0,0-.3,1.916c-.053.617-.173,1.23-.274,1.845-.143.81.034,2.507-.291,2.435-.271-.061-.438-2.163-.554-2.689L56.7,35.288a.684.684,0,0,0-.843-.437c-.381.1-.558.294-.5.7.117.946.283,2.049.3,2.438.058,1.352.56,4.085.355,4.128-.188.035-.585-1.789-.756-2.587l-.816-2.969a.654.654,0,0,0-.863-.523.721.721,0,0,0-.43.757c.415,2.264,1.357,6.079,1.028,6.146-.236.045-.545-.762-.836-1.286l-.816-1.659c-.286-.942-.717-1.192-1.2-1.077-.319.093-.35.607-.192,1.029q.694,1.878,1.428,3.446l1.067,3.714a12.913,12.913,0,0,0,2.036,2.825c2.85,20.222,5.685,29.8,7.927,29.854.581.014,3.431-3.446,3.579-3.563,2.4-1.887-3.141-8.759-5.3-19.084-.674-3.218-1.649-7.49-1.657-7.571.1-.521.914-.992,1.449-1.773a12.541,12.541,0,0,0,1.355-2.332c.252-.58.249-.655.49-1.115a5.973,5.973,0,0,1,.431-.734c.131-.183.2-.253.317-.391S65.1,42.191,64.912,41.857Z" transform="translate(-28.147 -30.861)" fill="#f8c2a8"/>
    <g id="Grupo_950464" data-name="Grupo 950464" transform="translate(53.382 83.431)">
      <path id="Trazado_699739" data-name="Trazado 699739" d="M98.848,158.633c.007-.16,0-.6.151-.762a2.376,2.376,0,0,1,1.726-.465l5.09.5,1.182-.942a5.988,5.988,0,0,1,2.485-.13,6.471,6.471,0,0,1,2.52.718l.992,1.411c1.383.284,2.646.607,2.757,1.793l-.886,7.24c-.087.332-.253.391-.558.412l-12.915-1.482a14.211,14.211,0,0,1-3.44-.461,1.091,1.091,0,0,1,0-.849Z" transform="translate(-97.844 -156.777)" fill="#060606"/>
      <path id="Trazado_699740" data-name="Trazado 699740" d="M98.835,159.625l3.792.465.587.691,1.34.138.074.259a5.14,5.14,0,0,0-.867,3.634,5.027,5.027,0,0,0,1.288,2.644l-7.1-.871a11.93,11.93,0,0,1,.825-6.334.465.465,0,0,1-.093-.314A.471.471,0,0,1,98.835,159.625Z" transform="translate(-97.831 -157.769)" fill="#231f20"/>
      <path id="Trazado_699741" data-name="Trazado 699741" d="M111.973,157.7l2.966.358a1.9,1.9,0,0,1,1.5,1.447l.511,2.1-7.772-.951.978-1.9A1.909,1.909,0,0,1,111.973,157.7Z" transform="translate(-101.785 -157.095)" fill="#282f39"/>
      <g id="Grupo_950461" data-name="Grupo 950461" transform="translate(5.919 0.954)">
        <path id="Trazado_699742" data-name="Trazado 699742" d="M108.045,160.487h0a.236.236,0,0,0,.288-.363h0a.236.236,0,0,1,.326-.339h0a.236.236,0,0,0,.352-.3h0a.236.236,0,0,1,.384-.271h0a.236.236,0,0,0,.4-.23h0a.236.236,0,0,1,.428-.194h0a.236.236,0,0,0,.439-.15h0a.236.236,0,0,1,.457-.109h0a.236.236,0,0,0,.459-.064h0a.236.236,0,0,1,.47-.021h0a.236.236,0,0,0,.463.024h0a.236.236,0,0,1,.465.069h0a.236.236,0,0,0,.45.111h0a.236.236,0,0,1,.444.155h0a.236.236,0,0,0,.421.195h0a.236.236,0,0,1,.406.237h0a.236.236,0,0,0,.377.27h0a.236.236,0,0,1,.354.31h0a.236.236,0,0,0,.319.337h0a.236.236,0,0,1,.289.371h0a.236.236,0,0,0,.249.391h0a.236.236,0,0,1,.214.418h0a.236.236,0,0,0,.17.431h0a.236.236,0,0,1,.131.452h0a.236.236,0,0,0,.085.455h0a.236.236,0,0,1,.043.468h0a.236.236,0,0,0,0,.464h0a.236.236,0,0,1-.047.468h0a.236.236,0,0,0-.089.455h0a.236.236,0,0,1-.135.45h0a.236.236,0,0,0-.174.429h0a.236.236,0,0,1-.217.417h0a.236.236,0,0,0-.252.389h0a.236.236,0,0,1-.293.368h0a.236.236,0,0,0-.321.334h0a.236.236,0,0,1-.356.306h0a.236.236,0,0,0-.379.267h0a.236.236,0,0,1-.408.233h0a.236.236,0,0,0-.423.191h0a.236.236,0,0,1-.444.152h0a.236.236,0,0,0-.452.108h0a.236.236,0,0,1-.465.065h0a.236.236,0,0,0-.463.02h0a.236.236,0,0,1-.469-.024h0a.236.236,0,0,0-.459-.068h0a.236.236,0,0,1-.456-.113h0a.236.236,0,0,0-.437-.153h0a.236.236,0,0,1-.427-.2h0a.236.236,0,0,0-.4-.233h0a.236.236,0,0,1-.382-.274h0a.236.236,0,0,0-.349-.3h0a.236.236,0,0,1-.323-.341h0a.236.236,0,0,0-.285-.366h0a.236.236,0,0,1-.253-.4h0a.236.236,0,0,0-.21-.413h0a.236.236,0,0,1-.173-.437h0a.236.236,0,0,0-.129-.446h0a.236.236,0,0,1-.087-.462h0a.236.236,0,0,0-.042-.461h0a.236.236,0,0,1,0-.47h0a.236.236,0,0,0,.046-.461h0a.236.236,0,0,1,.091-.461h0a.236.236,0,0,0,.132-.444h0a.236.236,0,0,1,.177-.435h0a.236.236,0,0,0,.214-.411h0A.236.236,0,0,1,108.045,160.487Z" transform="translate(-106.914 -158.242)" fill="#191919"/>
        <path id="Trazado_699743" data-name="Trazado 699743" d="M116.159,164.857a3,3,0,1,1-2.608-3.354A3,3,0,0,1,116.159,164.857Z" transform="translate(-108.054 -159.37)" fill="#aaa7a2"/>
        <path id="Trazado_699744" data-name="Trazado 699744" d="M116.424,164.616a3.576,3.576,0,1,1-3.112-4A3.585,3.585,0,0,1,116.424,164.616Z" transform="translate(-107.744 -159.059)" fill="#60605e"/>
        <path id="Trazado_699745" data-name="Trazado 699745" d="M116.91,164.174a4.639,4.639,0,1,1-4.038-5.192A4.651,4.651,0,0,1,116.91,164.174Z" transform="translate(-107.176 -158.487)" fill="#7f7e83"/>
        <path id="Trazado_699746" data-name="Trazado 699746" d="M116.832,164.245a4.468,4.468,0,1,1-3.889-5A4.479,4.479,0,0,1,116.832,164.245Z" transform="translate(-107.267 -158.579)" fill="#474747"/>
        <path id="Trazado_699747" data-name="Trazado 699747" d="M116.663,164.4a4.1,4.1,0,1,1-3.566-4.587A4.108,4.108,0,0,1,116.663,164.4Z" transform="translate(-107.465 -158.778)" fill="#06101f"/>
        <path id="Trazado_699748" data-name="Trazado 699748" d="M116.493,164.552a3.727,3.727,0,1,1-3.244-4.172A3.738,3.738,0,0,1,116.493,164.552Z" transform="translate(-107.663 -158.977)" fill="#2f3032"/>
        <path id="Trazado_699749" data-name="Trazado 699749" d="M116.081,164.928a2.826,2.826,0,1,1-2.46-3.163A2.834,2.834,0,0,1,116.081,164.928Z" transform="translate(-108.146 -159.462)" fill="#141414"/>
        <path id="Trazado_699750" data-name="Trazado 699750" d="M115.982,165.017a2.611,2.611,0,1,1-2.272-2.922A2.618,2.618,0,0,1,115.982,165.017Z" transform="translate(-108.26 -159.578)" fill="#47484c"/>
        <path id="Trazado_699751" data-name="Trazado 699751" d="M115.968,165.03a2.579,2.579,0,1,1-2.245-2.887A2.586,2.586,0,0,1,115.968,165.03Z" transform="translate(-108.278 -159.594)" fill="#3b3c40"/>
        <path id="Trazado_699752" data-name="Trazado 699752" d="M115.92,165.074a2.474,2.474,0,1,1-2.154-2.77A2.481,2.481,0,0,1,115.92,165.074Z" transform="translate(-108.333 -159.651)" fill="#7f7e83"/>
        <path id="Trazado_699753" data-name="Trazado 699753" d="M115.822,165.163a2.261,2.261,0,1,1-1.967-2.531A2.267,2.267,0,0,1,115.822,165.163Z" transform="translate(-108.448 -159.765)" fill="#232228"/>
        <path id="Trazado_699754" data-name="Trazado 699754" d="M115.8,165.184a2.208,2.208,0,1,1-1.922-2.472A2.215,2.215,0,0,1,115.8,165.184Z" transform="translate(-108.476 -159.793)" fill="#3a3b3f"/>
        <path id="Trazado_699755" data-name="Trazado 699755" d="M115.748,165.23a2.1,2.1,0,1,1-1.828-2.35A2.1,2.1,0,0,1,115.748,165.23Z" transform="translate(-108.534 -159.852)" fill="#232228"/>
        <path id="Trazado_699756" data-name="Trazado 699756" d="M115.735,165.242a2.071,2.071,0,1,1-1.8-2.318A2.076,2.076,0,0,1,115.735,165.242Z" transform="translate(-108.549 -159.867)" fill="#3a3b3f"/>
        <path id="Trazado_699757" data-name="Trazado 699757" d="M115.354,165.592a1.237,1.237,0,1,1-1.078-1.379A1.238,1.238,0,0,1,115.354,165.592Z" transform="translate(-108.995 -160.319)" fill="#545456"/>
        <path id="Trazado_699758" data-name="Trazado 699758" d="M115.306,165.636a1.132,1.132,0,1,1-.987-1.262A1.132,1.132,0,0,1,115.306,165.636Z" transform="translate(-109.051 -160.375)" fill="#27262c"/>
        <path id="Trazado_699759" data-name="Trazado 699759" d="M115.02,165.893a.51.51,0,1,1-.444-.569A.51.51,0,0,1,115.02,165.893Z" transform="translate(-109.383 -160.708)" fill="#7c8e9c"/>
      </g>
      <g id="Grupo_950462" data-name="Grupo 950462" transform="translate(5.598 1.368)">
        <path id="Trazado_699760" data-name="Trazado 699760" d="M106.5,159.914l-.083-.663a.855.855,0,0,1,1.514.2l-.231.666Z" transform="translate(-106.421 -158.876)" fill="#111"/>
        <path id="Trazado_699761" data-name="Trazado 699761" d="M107.821,160.023a.635.635,0,1,1-.553-.708A.635.635,0,0,1,107.821,160.023Z" transform="translate(-106.468 -159.027)" fill="#979797"/>
        <path id="Trazado_699762" data-name="Trazado 699762" d="M107.786,160.055a.559.559,0,1,1-.487-.623A.56.56,0,0,1,107.786,160.055Z" transform="translate(-106.509 -159.068)" fill="#fff"/>
        <path id="Trazado_699763" data-name="Trazado 699763" d="M107.6,160.226a.145.145,0,1,1-.126-.162A.145.145,0,0,1,107.6,160.226Z" transform="translate(-106.73 -159.289)" fill="#ddd"/>
      </g>
      <g id="Grupo_950463" data-name="Grupo 950463" transform="translate(1.867 0.438)">
        <path id="Trazado_699764" data-name="Trazado 699764" d="M103.043,158.2a.985.985,0,0,0-.357-.51,2.805,2.805,0,0,0-1.552-.19,1.092,1.092,0,0,0-.433.394c-.056.1.552.41,1.164.473A1.8,1.8,0,0,0,103.043,158.2Z" transform="translate(-100.696 -157.45)" fill="#cbcbcb"/>
        <path id="Trazado_699765" data-name="Trazado 699765" d="M102.918,157.763c-.011.088-.368.117-.8.064s-.769-.166-.758-.254.368-.117.8-.064S102.929,157.675,102.918,157.763Z" transform="translate(-100.929 -157.462)" fill="#4b4b4b"/>
        <path id="Trazado_699766" data-name="Trazado 699766" d="M102.9,157.778c-.008.063-.34.075-.743.026s-.723-.141-.715-.2.34-.075.743-.026S102.9,157.715,102.9,157.778Z" transform="translate(-100.955 -157.483)" fill="#cfcecc"/>
      </g>
    </g>
    <path id="Trazado_699767" data-name="Trazado 699767" d="M100.851,149.318q1.505-8.971,3.01-17.943l.78.2L101.7,149.355Z" transform="translate(-45.501 -64.497)"/>
    <path id="Trazado_699768" data-name="Trazado 699768" d="M123.866,152.232q.451-8.918.9-17.836l-.808-.028q-.462,8.848-.925,17.7Z" transform="translate(-53.229 -65.539)"/>
  </g>
</svg>
