<svg xmlns="http://www.w3.org/2000/svg" width="165" height="165" viewBox="0 0 165 165">
  <g id="Grupo_953286" data-name="Grupo 953286" transform="translate(-714 -2690)">
    <circle id="Elipse_5412" data-name="Elipse 5412" cx="82.5" cy="82.5" r="82.5" transform="translate(714 2690)" fill="#ccd3ca"/>
    <g id="luna-de-miel" transform="translate(722 2706)">
      <path id="Trazado_699881" data-name="Trazado 699881" d="M139.242,73.342l1.085-.259a63.54,63.54,0,0,0-124.613,0l1.14.259Z" transform="translate(-3.492 -16.295)" fill="#d8ecfe"/>
      <g id="Grupo_950524" data-name="Grupo 950524" transform="translate(75.307 19.837)">
        <path id="Trazado_699882" data-name="Trazado 699882" d="M266.455,78.445A1.95,1.95,0,0,0,264.51,76.5h-3.565a1.945,1.945,0,0,0,0,3.89h3.565A1.95,1.95,0,0,0,266.455,78.445Z" transform="translate(-259 -76.5)" fill="#eaf6ff"/>
      </g>
      <g id="Grupo_950525" data-name="Grupo 950525" transform="translate(55.146 14.002)">
        <path id="Trazado_699883" data-name="Trazado 699883" d="M188.7,55.945A1.95,1.95,0,0,0,186.76,54h-3.565a1.945,1.945,0,0,0,0,3.89h3.565A1.95,1.95,0,0,0,188.7,55.945Z" transform="translate(-181.25 -54)" fill="#eaf6ff"/>
      </g>
      <g id="Grupo_950526" data-name="Grupo 950526" transform="translate(111.869 31.635)">
        <path id="Trazado_699884" data-name="Trazado 699884" d="M407.455,123.945A1.95,1.95,0,0,0,405.51,122h-3.565a1.945,1.945,0,1,0,0,3.89h3.565A1.95,1.95,0,0,0,407.455,123.945Z" transform="translate(-400 -122)" fill="#eaf6ff"/>
      </g>
      <path id="Trazado_699885" data-name="Trazado 699885" d="M136.938,131.116a12.829,12.829,0,0,0-14.14-17.435c.018-.28.031-.562.031-.846a12.835,12.835,0,0,0-25.537-1.842,12.835,12.835,0,0,0-16.175,6.262,12.778,12.778,0,0,0-8.132-.19,12.912,12.912,0,0,0-2.077.848c-.065-.273-.136-.546-.22-.818A12.835,12.835,0,0,0,45.74,122.86,12.828,12.828,0,0,0,32.8,131.116Z" transform="translate(-16.146 -74.07)" fill="#8bc727"/>
      <path id="Trazado_699886" data-name="Trazado 699886" d="M136.836,219H12.222a63.809,63.809,0,0,0,3.731,37.08l.964.259h115.32l.867-.259A63.809,63.809,0,0,0,136.836,219Z" transform="translate(0 -162.213)" fill="#26a6fe"/>
      <g id="Grupo_950527" data-name="Grupo 950527" transform="translate(18.144 61.455)">
        <path id="Trazado_699887" data-name="Trazado 699887" d="M385.833,269.421h8.7a2.377,2.377,0,0,0,2.373-2.524,2.437,2.437,0,0,0-2.464-2.23h-8.611Z" transform="translate(-295.782 -257.493)" fill="#0593fc"/>
        <path id="Trazado_699888" data-name="Trazado 699888" d="M437.622,321.23a2.437,2.437,0,0,0-2.464-2.23H426.8c0,.061.009.122.009.184v4.569h8.443A2.377,2.377,0,0,0,437.622,321.23Z" transform="translate(-326.123 -297.737)" fill="#0593fc"/>
        <path id="Trazado_699889" data-name="Trazado 699889" d="M65.957,237H40.926a2.377,2.377,0,1,0,0,4.754h8.715a2.377,2.377,0,1,1,0,4.754h-5.7a2.377,2.377,0,1,0,0,4.754H54.123l2.1-2.1.019-.036a8.8,8.8,0,0,1,4.681-4.2,2.371,2.371,0,0,1,2.237-3.175h4.639a2.365,2.365,0,0,0,1.3-.388A7.586,7.586,0,0,1,65.957,237Z" transform="translate(-38.549 -237)" fill="#0593fc"/>
      </g>
      <g id="Grupo_950528" data-name="Grupo 950528" transform="translate(15.954 93.867)">
        <path id="Trazado_699890" data-name="Trazado 699890" d="M44.9,377.708a2.466,2.466,0,0,1,2.463-2.463h1.645V362H30.1a63.638,63.638,0,0,0,14.8,21.388Z" transform="translate(-30.104 -362)" fill="#fff3de"/>
        <path id="Trazado_699891" data-name="Trazado 699891" d="M411.521,362v23.63l.259.61A63.716,63.716,0,0,0,429.769,362H411.521Z" transform="translate(-312.619 -362)" fill="#fff3de"/>
      </g>
      <path id="Trazado_699892" data-name="Trazado 699892" d="M39.911,366.1a2.458,2.458,0,0,1,.947-1.938L34.6,357.905l4.139-4.139L31.3,346.334l-6.416,6.416a5.186,5.186,0,0,0,0,7.334l15.022,15.022Z" transform="translate(-9.162 -256.529)" fill="#fed2a4"/>
      <path id="Trazado_699893" data-name="Trazado 699893" d="M29.2,360.083a5.186,5.186,0,0,1,0-7.334l4.26-4.26-2.156-2.156-6.416,6.416a5.186,5.186,0,0,0,0,7.334l15.022,15.022v-4.312Z" transform="translate(-9.163 -256.528)" fill="#ffbd86"/>
      <path id="Trazado_699894" data-name="Trazado 699894" d="M63.582,285.368a8.765,8.765,0,0,1,1.48-4.882l-14.9,14.9a1.3,1.3,0,0,0,0,1.833l8.431,8.432a1.3,1.3,0,0,0,1.834,0l3.156-3.157Z" transform="translate(-28.724 -207.755)" fill="#fe76a8"/>
      <path id="Trazado_699895" data-name="Trazado 699895" d="M54.384,297.222a1.3,1.3,0,0,1,0-1.833l9.2-9.2v-.821a8.765,8.765,0,0,1,1.48-4.882l-14.9,14.9a1.3,1.3,0,0,0,0,1.833l8.431,8.432a1.3,1.3,0,0,0,1.834,0l1.2-1.2Z" transform="translate(-28.724 -207.756)" fill="#fe5694"/>
      <g id="Grupo_950561" data-name="Grupo 950561" transform="translate(33.943 26.449)">
        <g id="Grupo_950545" data-name="Grupo 950545">
          <path id="Trazado_699896" data-name="Trazado 699896" d="M143.352,265.672l-.259-.392a9.035,9.035,0,0,0-4.072-.965h-27.94a9.076,9.076,0,0,0-9.076,9.076v41.029A63.227,63.227,0,0,0,136.432,328.3l.259-2.148V282.818a10.174,10.174,0,0,1,6.366-9.391l.295-.19v-7.565Z" transform="translate(-101.35 -222.226)" fill="#fe5694"/>
          <path id="Trazado_699897" data-name="Trazado 699897" d="M111.081,264.315a9.076,9.076,0,0,0-9.076,9.076V302.63h3.757a2.705,2.705,0,0,1,1.687.592V273.391a9.076,9.076,0,0,1,9.076-9.076Z" transform="translate(-101.35 -222.226)" fill="#fd3581"/>
          <g id="Grupo_950529" data-name="Grupo 950529" transform="translate(13.593 42.088)">
            <path id="Trazado_699898" data-name="Trazado 699898" d="M162.008,276.462a10.119,10.119,0,0,0,10.107-10.107v-2.04H151.9v2.04A10.119,10.119,0,0,0,162.008,276.462Z" transform="translate(-151.901 -264.314)" fill="#fe76a8"/>
          </g>
          <path id="Trazado_699899" data-name="Trazado 699899" d="M181.61,258.676h-9.574c-.045,0-.089,0-.134,0v3.5a4.921,4.921,0,1,0,9.843,0v-3.5c-.045,0-.089,0-.134,0Z" transform="translate(-153.122 -218.047)" fill="#ffbd86"/>
          <g id="Grupo_950530" data-name="Grupo 950530" transform="translate(18.78 40.626)">
            <path id="Trazado_699900" data-name="Trazado 699900" d="M176.087,262.176v-3.5h-4.051c-.045,0-.089,0-.134,0v3.5a4.913,4.913,0,0,0,7.014,4.449,4.917,4.917,0,0,1-2.829-4.449Z" transform="translate(-171.902 -258.673)" fill="#f6a96c"/>
          </g>
          <g id="Grupo_950531" data-name="Grupo 950531" transform="translate(7.278 18.533)">
            <path id="Trazado_699901" data-name="Trazado 699901" d="M238.484,176.162H241.1a4.865,4.865,0,0,1,1.462.224v-2.914h-4.079Z" transform="translate(-209.718 -173.472)" fill="#c57a44"/>
            <path id="Trazado_699902" data-name="Trazado 699902" d="M129.008,176.162h2.617v-2.69h-4.079v2.914A4.867,4.867,0,0,1,129.008,176.162Z" transform="translate(-127.546 -173.472)" fill="#c57a44"/>
          </g>
          <g id="Grupo_950538" data-name="Grupo 950538" transform="translate(3.598 18.512)">
            <g id="Grupo_950532" data-name="Grupo 950532" transform="translate(0 2.452)">
              <path id="Trazado_699903" data-name="Trazado 699903" d="M121.111,182.846h-2.617a5.142,5.142,0,0,0-5.142,5.142v1.2a5.142,5.142,0,0,0,5.142,5.142h2.617Z" transform="translate(-113.352 -182.846)" fill="#f6a96c"/>
              <path id="Trazado_699904" data-name="Trazado 699904" d="M241.1,182.846h-2.617v11.488H241.1a5.142,5.142,0,0,0,5.142-5.143v-1.2a5.142,5.142,0,0,0-5.142-5.143Z" transform="translate(-206.037 -182.846)" fill="#ffbd86"/>
            </g>
            <g id="Grupo_950534" data-name="Grupo 950534" transform="translate(7.5)">
              <g id="Grupo_950533" data-name="Grupo 950533">
                <path id="Trazado_699905" data-name="Trazado 699905" d="M142.276,173.39v14.561a7.816,7.816,0,0,0,7.816,7.816h9.574a7.816,7.816,0,0,0,7.816-7.816V173.39Z" transform="translate(-142.276 -173.39)" fill="#fed2a4"/>
              </g>
            </g>
            <path id="Trazado_699906" data-name="Trazado 699906" d="M147.65,187.951V173.39h-5.374v14.561a7.816,7.816,0,0,0,7.816,7.816h5.374A7.816,7.816,0,0,1,147.65,187.951Z" transform="translate(-134.776 -173.39)" fill="#ffbd86"/>
            <g id="Grupo_950537" data-name="Grupo 950537" transform="translate(14.466 4.348)">
              <g id="Grupo_950535" data-name="Grupo 950535" transform="translate(0 9.037)">
                <path id="Trazado_699907" data-name="Trazado 699907" d="M174.777,230.227a7.722,7.722,0,0,1-4.932-1.773,1.945,1.945,0,1,1,2.479-3,3.852,3.852,0,0,0,4.905,0,1.945,1.945,0,1,1,2.479,3A7.722,7.722,0,0,1,174.777,230.227Z" transform="translate(-169.14 -225.01)" fill="#d88a55"/>
              </g>
              <g id="Grupo_950536" data-name="Grupo 950536" transform="translate(1.292)">
                <path id="Trazado_699908" data-name="Trazado 699908" d="M178.466,198.126a1.934,1.934,0,0,1-1.023-.292l-2.4-1.489a1.945,1.945,0,0,1-.4-2.975l2.4-2.589a1.945,1.945,0,0,1,2.852,2.645l-.8.858.394.244a1.945,1.945,0,0,1-1.027,3.6Z" transform="translate(-174.123 -190.159)" fill="#d88a55"/>
              </g>
            </g>
          </g>
          <g id="Grupo_950541" data-name="Grupo 950541" transform="translate(14.554 19.979)">
            <g id="Grupo_950539" data-name="Grupo 950539">
              <path id="Trazado_699909" data-name="Trazado 699909" d="M157.551,185.578a1.945,1.945,0,0,1-1.945-1.945v-2.641a1.945,1.945,0,0,1,3.89,0v2.641A1.944,1.944,0,0,1,157.551,185.578Z" transform="translate(-155.606 -179.048)" fill="#d88a55"/>
            </g>
            <g id="Grupo_950540" data-name="Grupo 950540" transform="translate(14.404)">
              <path id="Trazado_699910" data-name="Trazado 699910" d="M213.1,185.578a1.945,1.945,0,0,1-1.945-1.945v-2.641a1.945,1.945,0,0,1,3.89,0v2.641A1.945,1.945,0,0,1,213.1,185.578Z" transform="translate(-211.154 -179.048)" fill="#d88a55"/>
            </g>
          </g>
          <g id="Grupo_950542" data-name="Grupo 950542" transform="translate(7.278 0)">
            <path id="Trazado_699911" data-name="Trazado 699911" d="M160.392,113.76v-2.35A9.409,9.409,0,0,0,150.984,102H136.956a9.409,9.409,0,0,0-9.409,9.409v2.35Z" transform="translate(-127.547 -102.001)" fill="#fea613"/>
          </g>
          <path id="Trazado_699912" data-name="Trazado 699912" d="M134.146,113.5v-2.091A9.409,9.409,0,0,1,143.555,102h-6.6a9.409,9.409,0,0,0-9.409,9.409V113.5h6.6Z" transform="translate(-120.268 -102)" fill="#fe9901"/>
          <g id="Grupo_950543" data-name="Grupo 950543" transform="translate(6.419 11.5)">
            <path id="Trazado_699913" data-name="Trazado 699913" d="M124.233,149.715H158.8v-2.588a.778.778,0,0,0-.778-.778H125.011a.778.778,0,0,0-.778.778Z" transform="translate(-124.233 -146.349)" fill="#7a8c98"/>
          </g>
          <path id="Trazado_699914" data-name="Trazado 699914" d="M131.616,146.349h-6.605a.778.778,0,0,0-.778.778v2.588h6.605v-2.588A.778.778,0,0,1,131.616,146.349Z" transform="translate(-117.814 -134.849)" fill="#596c76"/>
          <g id="Grupo_950544" data-name="Grupo 950544" transform="translate(0 14.585)">
            <path id="Trazado_699915" data-name="Trazado 699915" d="M145.478,162.455h-44.6a1.4,1.4,0,0,1-1.4-1.4v-1.4a1.4,1.4,0,0,1,1.4-1.4h44.6a1.4,1.4,0,0,1,1.4,1.4v1.4A1.4,1.4,0,0,1,145.478,162.455Z" transform="translate(-99.479 -158.248)" fill="#fdb441"/>
          </g>
          <path id="Trazado_699916" data-name="Trazado 699916" d="M108.221,161.053v-1.4a1.4,1.4,0,0,1,1.4-1.4H100.88a1.4,1.4,0,0,0-1.4,1.4v1.4a1.4,1.4,0,0,0,1.4,1.4h8.743A1.4,1.4,0,0,1,108.221,161.053Z" transform="translate(-99.478 -143.663)" fill="#fea613"/>
        </g>
        <g id="Grupo_950560" data-name="Grupo 950560" transform="translate(35.081 9.649)">
          <path id="Trazado_699917" data-name="Trazado 699917" d="M264.17,180.041h25.347a10.055,10.055,0,0,1,3.711.708V155.6a16.385,16.385,0,0,0-32.769,0V180.75A10.056,10.056,0,0,1,264.17,180.041Z" transform="translate(-253.798 -139.211)" fill="#a44f3e"/>
          <g id="Grupo_950547" data-name="Grupo 950547" transform="translate(6.661)">
            <g id="Grupo_950546" data-name="Grupo 950546">
              <path id="Trazado_699918" data-name="Trazado 699918" d="M276.844,139.211A16.385,16.385,0,0,0,260.459,155.6v3.437a5.524,5.524,0,0,1,2.493-.6h1.887a3.784,3.784,0,0,1,2.146-1.981V155.6a16.389,16.389,0,0,1,13.121-16.059,16.476,16.476,0,0,0-3.263-.326Z" transform="translate(-260.459 -139.211)" fill="#883f2e"/>
              <path id="Trazado_699919" data-name="Trazado 699919" d="M262.952,254.509a5.523,5.523,0,0,1-2.493-.6v11.8A10.055,10.055,0,0,1,264.17,265h2.815v-7.119a12.335,12.335,0,0,1-1.8-3.373Z" transform="translate(-260.459 -224.171)" fill="#883f2e"/>
            </g>
          </g>
          <path id="Trazado_699920" data-name="Trazado 699920" d="M272.823,323.389a.954.954,0,0,1,.953-.953h6.982l.1-.259V306.045a10.372,10.372,0,0,0-10.372-10.372H245.142a10.372,10.372,0,0,0-10.372,10.372v16.132l.073.259h7.013a.954.954,0,0,1,.953.953v27.393l.259.923a63.169,63.169,0,0,0,29.5-8.749l.259-.65Z" transform="translate(-234.77 -255.102)" fill="#fd3581"/>
          <g id="Grupo_950548" data-name="Grupo 950548" transform="translate(0 40.571)">
            <path id="Trazado_699921" data-name="Trazado 699921" d="M245.142,295.673a10.372,10.372,0,0,0-10.372,10.372v16.132h6.542V306.045a10.372,10.372,0,0,1,10.372-10.372Z" transform="translate(-234.77 -295.673)" fill="#fe0364"/>
          </g>
          <path id="Trazado_699922" data-name="Trazado 699922" d="M300.795,286.35v-1.513a12.3,12.3,0,0,1-9.111,0v1.513a1.3,1.3,0,0,1-1.3,1.3h-3.742l3.95,8.713a1.3,1.3,0,0,0,1.181.761h8.957a1.3,1.3,0,0,0,1.182-.765l3.918-8.71h-3.742A1.3,1.3,0,0,1,300.795,286.35Z" transform="translate(-273.194 -247.076)" fill="#ffbd86"/>
          <g id="Grupo_950549" data-name="Grupo 950549" transform="translate(13.452 40.571)">
            <path id="Trazado_699923" data-name="Trazado 699923" d="M294.058,304.386l-3.95-8.713h-3.463l3.95,8.713a1.3,1.3,0,0,0,1.181.761h3.463A1.3,1.3,0,0,1,294.058,304.386Z" transform="translate(-286.646 -295.673)" fill="#f6a96c"/>
          </g>
          <g id="Grupo_950556" data-name="Grupo 950556" transform="translate(3.598 11.764)">
            <g id="Grupo_950550" data-name="Grupo 950550" transform="translate(0 7.461)">
              <path id="Trazado_699924" data-name="Trazado 699924" d="M255.749,220.42v-5.513a3.732,3.732,0,0,1,.34-1.554H254.2a5.556,5.556,0,1,0,0,11.113h2.232A12.285,12.285,0,0,1,255.749,220.42Z" transform="translate(-248.645 -213.353)" fill="#f6a96c"/>
              <path id="Trazado_699925" data-name="Trazado 699925" d="M370.841,213.354h-1.548v7.067a12.282,12.282,0,0,1-.685,4.046h2.232a5.556,5.556,0,1,0,0-11.113Z" transform="translate(-337.502 -213.354)" fill="#ffbd86"/>
            </g>
            <g id="Grupo_950551" data-name="Grupo 950551" transform="translate(6.845)">
              <path id="Trazado_699926" data-name="Trazado 699926" d="M291.711,185.975a5.049,5.049,0,0,1,8.529,3.291c.005.1.008.205.008.309v9.532a12.6,12.6,0,1,1-25.206,0v-5.513a4.02,4.02,0,0,1,4.02-4.02h7.25a4.02,4.02,0,0,0,2.765-1.1Z" transform="translate(-275.041 -184.579)" fill="#fed2a4"/>
            </g>
            <g id="Grupo_950552" data-name="Grupo 950552" transform="translate(6.845 4.996)">
              <path id="Trazado_699927" data-name="Trazado 699927" d="M279.439,213.377v-5.513a4.02,4.02,0,0,1,4.02-4.02h-4.4a4.02,4.02,0,0,0-4.02,4.02v5.513a12.594,12.594,0,0,0,14.8,12.408A12.6,12.6,0,0,1,279.439,213.377Z" transform="translate(-275.042 -203.844)" fill="#ffbd86"/>
            </g>
            <g id="Grupo_950555" data-name="Grupo 950555" transform="translate(13.811 9.578)">
              <g id="Grupo_950553" data-name="Grupo 950553" transform="translate(0 9.037)">
                <path id="Trazado_699928" data-name="Trazado 699928" d="M307.543,261.585a7.722,7.722,0,0,1-4.932-1.773,1.945,1.945,0,1,1,2.479-3,3.853,3.853,0,0,0,4.905,0,1.945,1.945,0,1,1,2.479,3A7.722,7.722,0,0,1,307.543,261.585Z" transform="translate(-301.906 -256.368)" fill="#d88a55"/>
              </g>
              <g id="Grupo_950554" data-name="Grupo 950554" transform="translate(1.292)">
                <path id="Trazado_699929" data-name="Trazado 699929" d="M311.232,229.483a1.936,1.936,0,0,1-1.023-.292l-2.4-1.489a1.945,1.945,0,0,1-.4-2.975l2.4-2.588a1.945,1.945,0,0,1,2.852,2.645l-.8.858.394.244a1.945,1.945,0,0,1-1.027,3.6Z" transform="translate(-306.889 -221.517)" fill="#d88a55"/>
              </g>
            </g>
          </g>
          <g id="Grupo_950559" data-name="Grupo 950559" transform="translate(13.899 18.461)">
            <g id="Grupo_950557" data-name="Grupo 950557">
              <path id="Trazado_699930" data-name="Trazado 699930" d="M290.317,216.937a1.945,1.945,0,0,1-1.945-1.945v-2.641a1.945,1.945,0,1,1,3.89,0v2.641A1.945,1.945,0,0,1,290.317,216.937Z" transform="translate(-288.372 -210.407)" fill="#d88a55"/>
            </g>
            <g id="Grupo_950558" data-name="Grupo 950558" transform="translate(14.403)">
              <path id="Trazado_699931" data-name="Trazado 699931" d="M345.864,216.937a1.945,1.945,0,0,1-1.945-1.945v-2.641a1.945,1.945,0,1,1,3.89,0v2.641A1.945,1.945,0,0,1,345.864,216.937Z" transform="translate(-343.919 -210.407)" fill="#d88a55"/>
            </g>
          </g>
        </g>
      </g>
      <g id="Grupo_950562" data-name="Grupo 950562" transform="translate(108.498 80.179)">
        <path id="Trazado_699932" data-name="Trazado 699932" d="M387.7,313.749a2.716,2.716,0,0,1,2.021-4.538h5.143a2.731,2.731,0,0,1,2.723,2.723v10.891a2.731,2.731,0,0,1-2.723,2.723h-5.143a2.716,2.716,0,0,1-2.021-4.538,2.7,2.7,0,0,1,0-3.63,2.7,2.7,0,0,1,0-3.63Z" transform="translate(-387 -309.211)" fill="#ffbd86"/>
      </g>
      <path id="Trazado_699933" data-name="Trazado 699933" d="M391.408,322.824a2.707,2.707,0,0,1,.7-1.815,2.7,2.7,0,0,1,0-3.63,2.7,2.7,0,0,1,0-3.63,2.716,2.716,0,0,1,2.021-4.538h-4.408a2.716,2.716,0,0,0-2.021,4.538,2.7,2.7,0,0,0,0,3.63,2.7,2.7,0,0,0,0,3.63,2.716,2.716,0,0,0,2.021,4.538h4.408A2.731,2.731,0,0,1,391.408,322.824Z" transform="translate(-278.502 -229.032)" fill="#f6a96c"/>
      <g id="Grupo_950563" data-name="Grupo 950563" transform="translate(30.489 106.852)">
        <path id="Trazado_699934" data-name="Trazado 699934" d="M96.047,416.615a2.716,2.716,0,0,0-2.021-4.538H88.884a2.731,2.731,0,0,0-2.723,2.723V425.69a2.731,2.731,0,0,0,2.723,2.723h5.143a6.02,6.02,0,0,0,2.021-8.168,2.7,2.7,0,0,0,0-3.63Z" transform="translate(-86.161 -412.077)" fill="#ffbd86"/>
      </g>
      <path id="Trazado_699935" data-name="Trazado 699935" d="M90.527,425.69V414.8a2.731,2.731,0,0,1,2.723-2.723H88.884a2.731,2.731,0,0,0-2.723,2.723V425.69a2.731,2.731,0,0,0,2.723,2.723H93.25A2.731,2.731,0,0,1,90.527,425.69Z" transform="translate(-55.672 -305.225)" fill="#f6a96c"/>
      <g id="Grupo_950564" data-name="Grupo 950564" transform="translate(69.024 103.172)">
        <path id="Trazado_699936" data-name="Trazado 699936" d="M241.856,397.885H234.77v29.35c1.815.156,3.65.24,5.5.24.936,0,1.866-.024,2.793-.065V399.1A1.212,1.212,0,0,0,241.856,397.885Z" transform="translate(-234.77 -397.885)" fill="#fed2a4"/>
      </g>
      <path id="Trazado_699937" data-name="Trazado 699937" d="M238.978,397.885H234.77v29.35q2.086.179,4.208.226Z" transform="translate(-165.746 -294.713)" fill="#ffbd86"/>
      <g id="Grupo_950565" data-name="Grupo 950565" transform="translate(106.818 103.172)">
        <path id="Trazado_699938" data-name="Trazado 699938" d="M380.521,399.1v19.567a63.7,63.7,0,0,0,8.3-5.845V397.885h-7.086A1.212,1.212,0,0,0,380.521,399.1Z" transform="translate(-380.521 -397.885)" fill="#fed2a4"/>
      </g>
      <path id="Trazado_699939" data-name="Trazado 699939" d="M384.016,399.1a1.212,1.212,0,0,1,1.212-1.212h-3.5a1.212,1.212,0,0,0-1.212,1.212v19.567q1.786-1.056,3.5-2.226Z" transform="translate(-273.703 -294.713)" fill="#ffbd86"/>
      <g id="Grupo_950568" data-name="Grupo 950568" transform="translate(93.654 0)">
        <g id="Grupo_950566" data-name="Grupo 950566" transform="translate(0 0)">
          <circle id="Elipse_5585" data-name="Elipse 5585" cx="12.571" cy="12.571" r="12.571" fill="#fee45a"/>
        </g>
        <g id="Grupo_950567" data-name="Grupo 950567" transform="translate(0)">
          <path id="Trazado_699940" data-name="Trazado 699940" d="M338.945,12.571a12.573,12.573,0,0,1,7.974-11.7,12.571,12.571,0,1,0,0,23.4A12.572,12.572,0,0,1,338.945,12.571Z" transform="translate(-329.754 0)" fill="#fed402"/>
        </g>
      </g>
    </g>
  </g>
</svg>
