<svg xmlns="http://www.w3.org/2000/svg" width="127" height="127" viewBox="0 0 127 127">
  <g id="Grupo_953267" data-name="Grupo 953267" transform="translate(-895 -474)">
    <circle id="Elipse_5554" data-name="Elipse 5554" cx="63.5" cy="63.5" r="63.5" transform="translate(895 474)" fill="#ccd3ca"/>
    <g id="familia" transform="translate(908.5 487.002)">
      <path id="Trazado_693452" data-name="Trazado 693452" d="M.869,68.031s55.222,22.92,97,7.644a49.259,49.259,0,0,0,.255-5.01A48.668,48.668,0,0,0,.855,68.047Zm0,0" transform="translate(-0.285 -17.628)" fill="#2299f2"/>
      <path id="Trazado_693453" data-name="Trazado 693453" d="M58.417.167c-8.128,1.108-8.9,5.716-8.9,7.407A.931.931,0,0,1,49,8.413C44.768,10.47,47.048,20.78,47.048,20.78a3.429,3.429,0,0,1,1.2.361,12.067,12.067,0,0,1,.6-1.881,6.173,6.173,0,0,1,.544-1.086,3.335,3.335,0,0,0,.51-2.038c-.152-2.068-.277-5.945,2.452-7.173,2.313-1.041,5.15-.438,6.959.164a5.749,5.749,0,0,0,3.622,0c1.809-.6,4.646-1.2,6.958-.164,2.722,1.225,2.6,5.082,2.454,7.155a3.371,3.371,0,0,0,.509,2.056,6.182,6.182,0,0,1,.557,1.121A12.126,12.126,0,0,1,74,21.141a2.887,2.887,0,0,1,1.526-.351c.062-2.168.262-4.9.262-4.9C78.2,4.091,67.169-1.024,58.417.167Zm0,0" transform="translate(-36.809 0)" fill="#3c2b8e"/>
      <path id="Trazado_693454" data-name="Trazado 693454" d="M49.513,8.255A.931.931,0,0,1,49,9.093C44.768,11.15,47.048,21.46,47.048,21.46a3.429,3.429,0,0,1,1.2.361,12.067,12.067,0,0,1,.6-1.881,6.173,6.173,0,0,1,.544-1.086,3.335,3.335,0,0,0,.51-2.038c-.152-2.068-.277-5.945,2.453-7.173a8.964,8.964,0,0,1,5.665-.206c-.033-.074-.064-.149-.1-.223-2.521-5.087.5-8.367.5-8.367C50.289,1.956,49.516,6.564,49.513,8.255Zm0,0" transform="translate(-36.809 -0.68)" fill="#2c217c"/>
      <path id="Trazado_693455" data-name="Trazado 693455" d="M86.787,252.255v-34.32a15.6,15.6,0,0,1,1.76-7.2l.228-.439a18.725,18.725,0,0,0,3.175-11.153,12.874,12.874,0,0,1-1.239-5.527c-2.194,2.557-4.7,4.3-8.093,4.3s-5.9-1.742-8.093-4.3a12.872,12.872,0,0,1-1.239,5.527A18.73,18.73,0,0,0,76.461,210.3l.229.439a15.612,15.612,0,0,1,1.759,7.2v29.326A48.612,48.612,0,0,0,86.787,252.255Zm0,0" transform="translate(-58.304 -155.157)" fill="#fe9d9a"/>
      <path id="Trazado_693456" data-name="Trazado 693456" d="M77.557,212.8a15.476,15.476,0,0,1,.577,2.13c2.769-5.311,3.725-10.91,3.849-17.032-3.122-.2-5.46-1.927-7.478-4.279a12.807,12.807,0,0,1-1.239,5.527C72.84,205.613,76.524,209.819,77.557,212.8Zm0,0" transform="translate(-58.284 -155.157)" fill="#f98f8f"/>
      <path id="Trazado_693457" data-name="Trazado 693457" d="M80.725,281.428a11.331,11.331,0,0,1-8.986-4.42h-.844v32.147a48.661,48.661,0,0,0,19.662,12.165V277.008h-.845A11.328,11.328,0,0,1,80.725,281.428Zm0,0" transform="translate(-56.411 -221.983)" fill="#d9f5ff"/>
      <path id="Trazado_693458" data-name="Trazado 693458" d="M80.725,281.428a11.331,11.331,0,0,1-8.986-4.42h-.844v5a16.116,16.116,0,0,0,19.662,0v-5h-.845A11.328,11.328,0,0,1,80.725,281.428Zm0,0" transform="translate(-56.411 -221.983)" fill="#abe4fe"/>
      <path id="Trazado_693459" data-name="Trazado 693459" d="M80.544,52.379a6.285,6.285,0,0,0-.557-1.121,3.371,3.371,0,0,1-.509-2.055c.151-2.073.07-6.128-2.652-7.354-2.312-1.041-5.149-.438-6.958.164a5.74,5.74,0,0,1-3.623,0c-1.81-.6-4.646-1.2-6.958-.164-2.73,1.228-2.8,5.3-2.651,7.372a3.335,3.335,0,0,1-.51,2.038,6.206,6.206,0,0,0-.544,1.086,7.493,7.493,0,0,0-.424,3.738L55.8,60.77a17.219,17.219,0,0,0,6.657,13.695,9.143,9.143,0,0,0,11.2,0A17.221,17.221,0,0,0,80.311,60.77l.643-4.686A7.5,7.5,0,0,0,80.544,52.379Zm0,0" transform="translate(-43.742 -33.084)" fill="#ffbaae"/>
      <path id="Trazado_693460" data-name="Trazado 693460" d="M66.81,74.467c-2.343-2.376-5.1-6.956-5.1-13.695l-.493-4.688a9.651,9.651,0,0,1,.324-3.739,7.2,7.2,0,0,1,.416-1.086,4.151,4.151,0,0,0,.391-2.038c-.116-2.068-.061-6.143,2.03-7.372a3.862,3.862,0,0,1,.469-.23,8.892,8.892,0,0,0-5.565.23c-2.73,1.228-2.8,5.3-2.651,7.372a3.335,3.335,0,0,1-.51,2.038,6.173,6.173,0,0,0-.544,1.086,7.5,7.5,0,0,0-.424,3.739l.644,4.688a17.221,17.221,0,0,0,6.657,13.695,9.122,9.122,0,0,0,7.32,1.749A6.347,6.347,0,0,1,66.81,74.467Zm0,0" transform="translate(-43.742 -33.087)" fill="#fe9d9a"/>
      <path id="Trazado_693461" data-name="Trazado 693461" d="M185,102.755a2.292,2.292,0,0,0-2.44.069,7.656,7.656,0,0,1,.023,2.256l-.643,4.687c0,.378-.012.748-.034,1.112a1.988,1.988,0,0,0,2.48-1.9,7.213,7.213,0,0,1,.277-1.227C185.081,106.447,186.586,104.208,185,102.755Zm0,0" transform="translate(-145.371 -82.081)" fill="#f98f8f"/>
      <path id="Trazado_693462" data-name="Trazado 693462" d="M40.423,102.755a2.291,2.291,0,0,1,2.439.069,7.656,7.656,0,0,0-.023,2.256l.643,4.687q0,.567.033,1.112c-1.569.473-2.348-.935-2.479-1.9a7.214,7.214,0,0,0-.277-1.227C40.342,106.447,38.837,104.208,40.423,102.755Zm0,0" transform="translate(-31.423 -82.081)" fill="#f98f8f"/>
      <path id="Trazado_693463" data-name="Trazado 693463" d="M18.554,227.426c-4.346-6.873-3.011-12.434-3.011-12.434a6.274,6.274,0,0,1-1.215,2.208c-.048.053-.094.109-.144.159a33.993,33.993,0,0,0-4.849,1.512c-4.925,1.947-5.831,3.336-7.619,3.482-.39.032-.766.079-1.132.137C.53,223.428.5,224.372.5,225.323a48.6,48.6,0,0,0,20.042,39.359V235.064a15.6,15.6,0,0,0-1.76-7.2Zm0,0" transform="translate(0 -172.286)" fill="#fbc840"/>
      <path id="Trazado_693464" data-name="Trazado 693464" d="M82.484,277.123l-.07-.115-2.137,1.917a18.013,18.013,0,0,1,4.195,5.835,15.6,15.6,0,0,0-1.76-7.2Zm0,0" transform="translate(-63.93 -221.983)" fill="#f9b50b"/>
      <path id="Trazado_693465" data-name="Trazado 693465" d="M55.53,214.992a9.484,9.484,0,0,0-5.131,3.473,31.893,31.893,0,0,0,2.484,11.51,1.366,1.366,0,0,0,2.164.511l3.494-3.06C54.835,219.139,55.53,214.992,55.53,214.992Zm0,0" transform="translate(-39.986 -172.286)" fill="#ffebb3"/>
      <path id="Trazado_693466" data-name="Trazado 693466" d="M158.2,222.354c-1.789-.146-2.694-1.535-7.619-3.482a34,34,0,0,0-4.85-1.512c-.05-.05-.1-.106-.144-.159a6.277,6.277,0,0,1-1.214-2.208s1.335,5.561-3.011,12.434l-.229.439a15.612,15.612,0,0,0-1.759,7.2V269.2a48.343,48.343,0,0,0,12.158,3.971h4.62a53.914,53.914,0,0,0,1.269-10.594c0-3.572,1-7.23,1.61-11.1a.276.276,0,0,1,.549.032c.067,1.757.666,5.073.875,6.962l11.934-1.552a53.692,53.692,0,0,0-2.01-14.645S172.4,223.514,158.2,222.354Zm0,0" transform="translate(-111.285 -172.286)" fill="#fbc840"/>
      <path id="Trazado_693467" data-name="Trazado 693467" d="M141.359,277.123l.07-.115,2.137,1.917a18.014,18.014,0,0,0-4.195,5.835,15.6,15.6,0,0,1,1.76-7.2Zm0,0" transform="translate(-111.285 -221.983)" fill="#f9b50b"/>
      <path id="Trazado_693468" data-name="Trazado 693468" d="M152.39,214.992a9.485,9.485,0,0,1,5.132,3.473,31.891,31.891,0,0,1-2.485,11.51,1.365,1.365,0,0,1-2.164.511l-3.494-3.06C153.084,219.139,152.39,214.992,152.39,214.992Zm0,0" transform="translate(-119.305 -172.286)" fill="#ffebb3"/>
      <path id="Trazado_693469" data-name="Trazado 693469" d="M128.842,98.831a2.508,2.508,0,0,0-1.328,3.759c1.138,1.791,3.292,4.138,6,4.138s3.63-2.638,3.63-4.235a4.154,4.154,0,0,0-4.477-4.235A12.444,12.444,0,0,0,128.842,98.831Zm0,0" transform="translate(-101.455 -78.74)" fill="#3c2b8e"/>
      <path id="Trazado_693470" data-name="Trazado 693470" d="M71.414,98.831a2.507,2.507,0,0,1,1.328,3.759c-1.138,1.791-3.291,4.138-6,4.138s-3.63-2.638-3.63-4.235a4.155,4.155,0,0,1,4.477-4.235A12.444,12.444,0,0,1,71.414,98.831Zm0,0" transform="translate(-50.172 -78.74)" fill="#3c2b8e"/>
      <path id="Trazado_693471" data-name="Trazado 693471" d="M130.527,102.148a2.507,2.507,0,0,1,1.328-3.759l.072-.022a12.16,12.16,0,0,0-3.085.552,2.508,2.508,0,0,0-1.328,3.759c1.138,1.79,3.292,4.138,6,4.138a3.266,3.266,0,0,0,2.01-.637C133.289,105.7,131.52,103.711,130.527,102.148Zm0,0" transform="translate(-101.455 -78.828)" fill="#2c217c"/>
      <path id="Trazado_693472" data-name="Trazado 693472" d="M66.122,101.963a4.206,4.206,0,0,1,2.094-3.69c-.2-.009-.414-.015-.63-.015a4.154,4.154,0,0,0-4.477,4.235c0,1.6.92,4.235,3.631,4.235a5.16,5.16,0,0,0,2.343-.59C66.889,105.743,66.122,103.42,66.122,101.963Zm0,0" transform="translate(-50.172 -78.74)" fill="#2c217c"/>
      <path id="Trazado_693473" data-name="Trazado 693473" d="M112.046,106.321a1.443,1.443,0,0,0-1.574,0l-.047.029a.954.954,0,0,1-.985-1.633,3.352,3.352,0,0,1,3.646.006.954.954,0,0,1-1.041,1.6Zm0,0" transform="translate(-86.945 -83.486)" fill="#554cbf"/>
      <path id="Trazado_693474" data-name="Trazado 693474" d="M291.845,136.059l14.636,2.281,14.635-2.281s2.233-.707,2.233-2.628-8.045-4.911-16.868-4.911c0,0-16.625.8-16.625,4.91A2.824,2.824,0,0,0,291.845,136.059Zm0,0" transform="translate(-231.876 -102.991)" fill="#f9b50b"/>
      <path id="Trazado_693475" data-name="Trazado 693475" d="M235.28,284.261a11.148,11.148,0,0,1,.171-2.805,50.623,50.623,0,0,0,.676-8.98.2.2,0,0,1,.406-.023,25.079,25.079,0,0,0,1.265,6.537,25.282,25.282,0,0,1,1.616,7.022l.685,8.168A48.7,48.7,0,0,0,278.779,251.3a10.752,10.752,0,0,0-3.642-1.439s-13.744-2.508-13.744-7.382v-1.068c-1.381,1.235-3.749,2.807-5.7,2.854-1.95-.047-4.317-1.619-5.7-2.854v1.068c0,4.875-13.744,7.382-13.744,7.382a10.465,10.465,0,0,0-7.444,5.679c-2.721,5.441-2.53,17.625-1.571,26.655a9.968,9.968,0,0,1,.059,1.054l.04,11.819c1,.061,2,.1,3.011.1,1.466,0,2.916-.069,4.349-.2C234.811,290.748,235.421,286.475,235.28,284.261Zm0,0" transform="translate(-181.179 -193.453)" fill="#fe9d9a"/>
      <path id="Trazado_693476" data-name="Trazado 693476" d="M323,244.261c-1.95-.047-4.318-1.62-5.7-2.855v1.068c0,2.4-3.335,4.227-6.719,5.463a9.154,9.154,0,0,1,1.017,2.974,4.61,4.61,0,0,1,1.785,3.435,57.633,57.633,0,0,0,7.681-3.51c1.8-1.178,2.4-4.293,2.585-6.647A4.417,4.417,0,0,1,323,244.261Zm0,0" transform="translate(-248.489 -193.453)" fill="#f98f8f"/>
      <path id="Trazado_693477" data-name="Trazado 693477" d="M313.978,284.916a14.826,14.826,0,0,1-1.124-6.01c0-4.925-.358-12.759-3.577-18.282-2.107-3.193-4.832-2.92-4.832-2.92s5.732,3.82.9,14.3c-2.269,4.922-5.433,10.151-6.6,12.641a1.08,1.08,0,0,1-.74.611,1.046,1.046,0,0,1-1.167-.589c-1.158-2.481-4.334-7.727-6.61-12.664-4.832-10.48.9-14.3.9-14.3s-2.725-.273-4.832,2.92c-3.219,5.523-3.576,13.357-3.576,18.282s-1.74,7.582-3.045,8.892c-.852.856-.494,2.009-.414,3.276l1.661,16.4A48.706,48.706,0,0,0,313.978,284.916Zm0,0" transform="translate(-223.272 -206.508)" fill="#d93a59"/>
      <path id="Trazado_693478" data-name="Trazado 693478" d="M406.535,202.249a33.771,33.771,0,0,1-1.4-7.746,28.228,28.228,0,0,1-2.747,6.713,12.809,12.809,0,0,1-2.383,2.959,25.2,25.2,0,0,0,3.263,17.6.852.852,0,0,0,1.573-.405C404.753,214.631,409.033,211,406.535,202.249Zm0,0" transform="translate(-319.834 -155.868)" fill="#483ba8"/>
      <path id="Trazado_693479" data-name="Trazado 693479" d="M403.546,205.306a4.141,4.141,0,0,1,3.817,2.533,18.709,18.709,0,0,0-.777-5.591,33.724,33.724,0,0,1-1.4-7.745,28.258,28.258,0,0,1-2.747,6.713,12.81,12.81,0,0,1-2.383,2.959,26.945,26.945,0,0,0-.38,3.8A4.139,4.139,0,0,1,403.546,205.306Zm0,0" transform="translate(-319.885 -155.868)" fill="#3c2b8e"/>
      <path id="Trazado_693480" data-name="Trazado 693480" d="M304.723,156.607s-.685-4.338.1-6.921c-.716-.477-2.1-.71-2.723-.1-1.274,1.245-.341,3.127.106,4.315a4.524,4.524,0,0,1,.266,1.1,2.049,2.049,0,0,0,2.329,1.952C304.778,156.838,304.75,156.724,304.723,156.607Zm0,0" transform="translate(-241.176 -119.577)" fill="#f98f8f"/>
      <path id="Trazado_693481" data-name="Trazado 693481" d="M431.414,149.583c-.622-.608-2.007-.376-2.723.1.789,2.584.1,6.921.1,6.921-.026.117-.054.231-.081.348A2.049,2.049,0,0,0,431.043,155a4.489,4.489,0,0,1,.265-1.1C431.755,152.711,432.688,150.829,431.414,149.583Zm0,0" transform="translate(-343.134 -119.577)" fill="#f98f8f"/>
      <path id="Trazado_693482" data-name="Trazado 693482" d="M311.621,82.356a3.457,3.457,0,0,1,.661-1.284,1.656,1.656,0,0,0,.437-1.048c.068-2.275.943-9.287,9.341-6.068a1.442,1.442,0,0,0,1.029,0c8.4-3.219,9.273,3.792,9.341,6.068a1.656,1.656,0,0,0,.437,1.048,3.445,3.445,0,0,1,.661,1.284,3.121,3.121,0,0,1,1.684-.465V76.727a11.277,11.277,0,0,0-6.119-10.017,14.814,14.814,0,0,0-13.035,0,11.276,11.276,0,0,0-6.119,10.017v5.165A3.118,3.118,0,0,1,311.621,82.356Zm0,0" transform="translate(-247.97 -52.249)" fill="#3c2b8e"/>
      <path id="Trazado_693483" data-name="Trazado 693483" d="M337.806,112.626a1.559,1.559,0,0,1-.414-.991c-.04-1.351-.382-4.657-2.672-6.182-1.626-1.082-3.91-1.072-6.791.033a1.34,1.34,0,0,1-.964,0c-2.881-1.1-5.166-1.116-6.791-.034-2.291,1.526-2.632,4.832-2.672,6.183a1.554,1.554,0,0,1-.414.991c-1.435,1.617-1.12,6.34-.785,8.285a29.932,29.932,0,0,0,3.191,8.48,12.991,12.991,0,0,0,6.118,5.377,4.638,4.638,0,0,0,3.672,0,12.986,12.986,0,0,0,6.118-5.377,29.938,29.938,0,0,0,3.193-8.486C338.915,118.861,339.258,114.262,337.806,112.626Zm0,0" transform="translate(-252.843 -83.862)" fill="#ffbaae"/>
      <path id="Trazado_693484" data-name="Trazado 693484" d="M325.839,129.393a39.875,39.875,0,0,1-2.146-8.48c-.225-1.945-.436-6.668.528-8.285a2.01,2.01,0,0,0,.279-.991c.027-1.351.256-4.657,1.8-6.183.054-.053.109-.1.165-.149-2.644-.918-4.759-.869-6.288.149-2.291,1.526-2.632,4.832-2.672,6.183a1.555,1.555,0,0,1-.414.991c-1.435,1.617-1.12,6.34-.785,8.285a29.932,29.932,0,0,0,3.191,8.48,12.987,12.987,0,0,0,6.118,5.377,4.638,4.638,0,0,0,3.672,0c.136-.059.268-.12.4-.183A11.23,11.23,0,0,1,325.839,129.393Zm0,0" transform="translate(-252.843 -83.864)" fill="#fe9d9a"/>
      <path id="Trazado_693485" data-name="Trazado 693485" d="M318.141,56.178a73.649,73.649,0,0,1,13.735,1.2L330.105,47.6a4.379,4.379,0,0,0-2.293-3.145,20.449,20.449,0,0,0-19.341,0,4.382,4.382,0,0,0-2.294,3.145l-1.772,9.779A73.656,73.656,0,0,1,318.141,56.178Zm0,0" transform="translate(-243.537 -33.674)" fill="#fbc840"/>
      <path id="Trazado_693486" data-name="Trazado 693486" d="M310.788,48.637a4.873,4.873,0,0,1,1.882-3.421c.463-.3.928-.578,1.394-.829a23.746,23.746,0,0,0-5.591,1.961,4.382,4.382,0,0,0-2.294,3.145l-1.772,9.779c1.548-.3,3.236-.552,5.03-.745Zm0,0" transform="translate(-243.537 -35.57)" fill="#f9b50b"/>
      <path id="Trazado_693487" data-name="Trazado 693487" d="M318.141,93.352A75,75,0,0,0,305.15,94.41l-.743,4.1a79.434,79.434,0,0,1,27.47,0l-.743-4.1A75.081,75.081,0,0,0,318.141,93.352Zm0,0" transform="translate(-243.537 -74.809)" fill="#f97396"/>
      <path id="Trazado_693488" data-name="Trazado 693488" d="M309.985,95.336c-1.713.171-3.335.395-4.836.664-.068.373-.665,3.669-.743,4.1,1.252-.249,3.069-.533,5.03-.745Zm0,0" transform="translate(-243.537 -76.399)" fill="#f7577a"/>
      <path id="Trazado_693489" data-name="Trazado 693489" d="M398.616,91.771a7.642,7.642,0,0,0,4.477-.508,1.29,1.29,0,0,1-.27-.976l.2-1.5a1.292,1.292,0,0,1,.52-.869,7.7,7.7,0,0,0-4.181-1.681.422.422,0,0,0-.474.362c-.2,1.494-.434,3.2-.636,4.7A.423.423,0,0,0,398.616,91.771Zm0,0" transform="translate(-318.74 -69.106)" fill="#f7577a"/>
      <path id="Trazado_693490" data-name="Trazado 693490" d="M408.525,89.514l-.2,1.5a1.291,1.291,0,0,0,.27.976,7.28,7.28,0,0,1-3.479.625l.1-.026a2.988,2.988,0,0,0,.736-5.447,7.3,7.3,0,0,1,3.094,1.5A1.29,1.29,0,0,0,408.525,89.514Zm0,0" transform="translate(-324.239 -69.832)" fill="#d93a59"/>
      <path id="Trazado_693491" data-name="Trazado 693491" d="M437.981,95.1l-.2,1.5a1.29,1.29,0,0,1-.521.869,7.646,7.646,0,0,0,4.182,1.681.422.422,0,0,0,.474-.362c.2-1.494.434-3.2.636-4.7a.422.422,0,0,0-.362-.475,7.7,7.7,0,0,0-4.477.508A1.291,1.291,0,0,1,437.981,95.1Zm0,0" transform="translate(-349.998 -74.915)" fill="#f7577a"/>
      <path id="Trazado_693492" data-name="Trazado 693492" d="M441.231,93.613a2.958,2.958,0,0,0-.728,5.392,7.311,7.311,0,0,1-3.246-1.539,1.29,1.29,0,0,0,.521-.869l.2-1.5a1.291,1.291,0,0,0-.27-.976,7.374,7.374,0,0,1,3.891-.586A3,3,0,0,0,441.231,93.613Zm0,0" transform="translate(-349.998 -74.915)" fill="#d93a59"/>
      <path id="Trazado_693493" data-name="Trazado 693493" d="M421.4,97.4l1.5.2a1.3,1.3,0,0,0,1.458-1.11l.2-1.5a1.3,1.3,0,0,0-1.11-1.458l-1.5-.2a1.3,1.3,0,0,0-1.457,1.11l-.2,1.5A1.3,1.3,0,0,0,421.4,97.4Zm0,0" transform="translate(-336.394 -74.783)" fill="#f97396"/>
      <path id="Trazado_693494" data-name="Trazado 693494" d="M422.446,94.693l-.206,1.522a1.321,1.321,0,0,0,.811,1.4,1.226,1.226,0,0,1-.15-.011l-1.5-.2a1.3,1.3,0,0,1-1.11-1.458l.2-1.5a1.3,1.3,0,0,1,1.457-1.11l1.5.2a1.339,1.339,0,0,1,.147.029A1.319,1.319,0,0,0,422.446,94.693Zm0,0" transform="translate(-336.394 -74.783)" fill="#f7577a"/>
      <path id="Trazado_693495" data-name="Trazado 693495" d="M271.03,109.285c-14.035,0-25.413,2.8-25.413,6.25,0,2.111,4.258,3.978,10.778,5.11a2.673,2.673,0,0,1-1.423-2.05c0-2.748,7.19-4.975,16.058-4.975s16.058,2.227,16.058,4.975a2.674,2.674,0,0,1-1.422,2.05c6.519-1.131,10.777-3,10.777-5.11C296.444,112.083,285.066,109.285,271.03,109.285Zm0,0" transform="translate(-196.426 -87.577)" fill="#fcdb75"/>
      <path id="Trazado_693496" data-name="Trazado 693496" d="M175.106,444.667a48.515,48.515,0,0,0,19.3-3.98c-.016-11.357-6.134-12.711-13.609-12.711h-9.529c-7.486,0-13.61,1.357-13.61,12.752v.713A48.541,48.541,0,0,0,175.106,444.667Zm0,0" transform="translate(-125.938 -342.962)" fill="#52b0f5"/>
      <path id="Trazado_693497" data-name="Trazado 693497" d="M226.1,435.375a5.982,5.982,0,0,0,5.964-5.964V427.99c-.395-.009-.8-.013-1.2-.013h-9.529q-.606,0-1.2.013v1.421A5.982,5.982,0,0,0,226.1,435.375Zm0,0" transform="translate(-176.004 -342.962)" fill="#82c6f9"/>
      <path id="Trazado_693498" data-name="Trazado 693498" d="M164.344,440.515c0-6.859,1.807-10.436,4.658-12.272-6.418.334-11.346,2.478-11.346,12.7v.713a48.384,48.384,0,0,0,6.688,2.027Zm0,0" transform="translate(-125.938 -343.175)" fill="#2299f2"/>
      <path id="Trazado_693499" data-name="Trazado 693499" d="M233.015,403.508a4.261,4.261,0,0,1-4.249-4.248V395.8a4.249,4.249,0,0,1,8.5,0v3.46A4.261,4.261,0,0,1,233.015,403.508Zm0,0" transform="translate(-182.922 -313.772)" fill="#f98f8f"/>
      <path id="Trazado_693500" data-name="Trazado 693500" d="M202.111,250.464s-.958-8.945-13.419-9.616c-12.461.671-13.419,9.616-13.419,9.616-3.727,2.758-.567,9.467-.567,9.467h27.972S205.839,253.222,202.111,250.464Zm0,0" transform="translate(-138.6 -193.006)" fill="#3c2b8e"/>
      <path id="Trazado_693501" data-name="Trazado 693501" d="M190.193,259.931c.369-3.416.286-7.858-1.928-10.667-4.01-5.087.428-8.417.428-8.417-12.461.671-13.419,9.616-13.419,9.616-3.727,2.758-.567,9.467-.567,9.467Zm0,0" transform="translate(-138.6 -193.006)" fill="#2c217c"/>
      <path id="Trazado_693502" data-name="Trazado 693502" d="M312.9,329.64a3.113,3.113,0,0,0-3.067-.019,22.955,22.955,0,0,1-.117,9.172c3.05.539,3.2-2.918,3.487-3.911C313.5,333.826,315.056,330.8,312.9,329.64Zm0,0" transform="translate(-247.791 -263.828)" fill="#f98f8f"/>
      <path id="Trazado_693503" data-name="Trazado 693503" d="M173.094,329.621a3.113,3.113,0,0,0-3.067.019c-2.158,1.161-.605,4.186-.3,5.242.285.993.436,4.45,3.486,3.911A22.97,22.97,0,0,1,173.094,329.621Zm0,0" transform="translate(-134.95 -263.828)" fill="#f98f8f"/>
      <path id="Trazado_693504" data-name="Trazado 693504" d="M211.885,292.227c-1.795-10.485-12-9.068-12-9.068s-10.2-1.417-12,9.068,2.033,14.537,4.21,15.8a19.519,19.519,0,0,1,2.873,2.045,7.583,7.583,0,0,0,9.825,0,19.575,19.575,0,0,1,2.873-2.045C209.852,306.765,213.679,302.712,211.885,292.227Zm0,0" transform="translate(-149.796 -226.861)" fill="#ffbaae"/>
      <path id="Trazado_693505" data-name="Trazado 693505" d="M199.838,310.025a15.552,15.552,0,0,0-2.069-2.1c-1.568-1.29-4.325-5.441-3.032-16.179.638-5.3,2.75-7.629,4.726-8.631-1.951-.129-9.994-.091-11.568,9.107-1.795,10.484,2.033,14.537,4.21,15.8a19.527,19.527,0,0,1,2.873,2.045,7.579,7.579,0,0,0,6.949,1.531A5.073,5.073,0,0,1,199.838,310.025Zm0,0" transform="translate(-149.796 -226.86)" fill="#fe9d9a"/>
      <path id="Trazado_693506" data-name="Trazado 693506" d="M56.864,223.143c-1.792-5.432-1.338-8.151-1.338-8.151a9.485,9.485,0,0,0-5.132,3.473,27.813,27.813,0,0,0,.948,6.894A3.718,3.718,0,0,1,56.864,223.143Zm0,0" transform="translate(-39.983 -172.286)" fill="#fcdb75"/>
      <path id="Trazado_693507" data-name="Trazado 693507" d="M157.8,223.143c1.792-5.432,1.338-8.151,1.338-8.151a9.485,9.485,0,0,1,5.132,3.473,27.852,27.852,0,0,1-.947,6.894A3.719,3.719,0,0,0,157.8,223.143Zm0,0" transform="translate(-126.054 -172.286)" fill="#fcdb75"/>
      <path id="Trazado_693508" data-name="Trazado 693508" d="M7.318,238.863c-3.209,1.485-4.091,2.5-5.6,2.62-.39.032-.766.079-1.132.137C.53,242.558.5,243.5.5,244.452A48.722,48.722,0,0,0,2.132,256.99C3.11,242.655,7.318,238.863,7.318,238.863Zm0,0" transform="translate(0 -191.415)" fill="#f9b50b"/>
      <path id="Trazado_693509" data-name="Trazado 693509" d="M268.2,115.176h0c-8.525-.711-5.749-4.046-5.748-4.047-9.81.866-16.828,3.173-16.828,5.884,0,2.111,4.258,3.978,10.778,5.11a2.673,2.673,0,0,1-1.423-2.05C254.972,117.624,260.681,115.591,268.2,115.176Zm0,0" transform="translate(-196.426 -89.055)" fill="#fbc840"/>
    </g>
  </g>
</svg>
