<svg xmlns="http://www.w3.org/2000/svg" xmlns:xlink="http://www.w3.org/1999/xlink" width="120.568" height="249.743" viewBox="0 0 120.568 249.743">
  <defs>
    <clipPath id="clip-path">
      <path id="Trazado_699410" data-name="Trazado 699410" d="M543.217,147.4q-.322-.795-.693-1.683c-2.212-5.293-3.861-6.932-4.7-10.7a22.958,22.958,0,0,1-.42-2.94,25.4,25.4,0,0,1-.123-2.685,20.311,20.311,0,0,1,.706-4.615,55.4,55.4,0,0,1,1.791-5.981,9.62,9.62,0,0,0,2.119-3.588,10.893,10.893,0,0,0,.327-5.458c.127-.34.283-.79.438-1.328.01-.032.118-.375.2-.758a32.934,32.934,0,0,0,.8-8.015c-.007-.8-.04-1.671-.09-2.594a5.34,5.34,0,0,0-1.06-1.371,5.118,5.118,0,0,0-3.157-1.243c-1.9-.2-4.256-.548-7.152-.99a3.428,3.428,0,0,1-.383-.195c-2.547-1.8-.88-6.672-.721-7.118h-9.379c.18.818,1.106,5.359-1.606,7.147a4.058,4.058,0,0,1-.433.228c-2.706.411-4.945.74-6.749.928a5.118,5.118,0,0,0-3.157,1.243,5.3,5.3,0,0,0-1.06,1.371c-.05.923-.083,1.8-.09,2.594a32.922,32.922,0,0,0,.8,8.015c.087.388.295,1.06.476,1.719a11.726,11.726,0,0,0,.327,5.089,10.562,10.562,0,0,0,2.187,4.012c.67,1.919,1.321,4.057,1.9,6.4.391,1.591.708,3.117.966,4.563a22.4,22.4,0,0,1-.708,6.549c-.97,3.638-2.477,5.281-5.373,11.553-.666,1.444-1.178,2.637-1.491,3.383h36.868C544.263,150.071,543.808,148.847,543.217,147.4Z" transform="translate(-507.711 -86.14)" fill="none"/>
    </clipPath>
    <clipPath id="clip-path-2">
      <path id="Trazado_699422" data-name="Trazado 699422" d="M521.852,82.172a29.319,29.319,0,0,1-7.339-.935A7.346,7.346,0,0,0,517,84.772a7.537,7.537,0,0,0,4.791,1.389,7.3,7.3,0,0,0,7.393-4.924A29.212,29.212,0,0,1,521.852,82.172Z" transform="translate(-514.513 -81.237)" fill="none"/>
    </clipPath>
    <clipPath id="clip-path-3">
      <path id="Trazado_699427" data-name="Trazado 699427" d="M530.989,74.94a3.445,3.445,0,0,1-2.917,2.3q-2.369.015-4.741.032a2.006,2.006,0,0,1-.8-.262,2.162,2.162,0,0,1-.948-1.329,3.854,3.854,0,0,1,.235-.8A5.048,5.048,0,0,1,526.138,72,5.235,5.235,0,0,1,530.989,74.94Z" transform="translate(-521.583 -71.994)" fill="none"/>
    </clipPath>
    <clipPath id="clip-path-4">
      <path id="Trazado_699435" data-name="Trazado 699435" d="M510.225,74.959a3.444,3.444,0,0,0,2.917,2.3q2.369.015,4.741.032a1.993,1.993,0,0,0,.8-.262,2.143,2.143,0,0,0,.948-1.329,3.859,3.859,0,0,0-.233-.8,5.048,5.048,0,0,0-4.321-2.882A5.234,5.234,0,0,0,510.225,74.959Z" transform="translate(-510.225 -72.013)" fill="none"/>
    </clipPath>
    <clipPath id="clip-path-5">
      <path id="Trazado_699445" data-name="Trazado 699445" d="M538.507,134.682a33.179,33.179,0,0,1-.535-3.655,25.628,25.628,0,0,1-.132-2.825,21.43,21.43,0,0,1,.745-4.859,58.344,58.344,0,0,1,1.884-6.3,10.141,10.141,0,0,0,2.231-3.777,11.473,11.473,0,0,0,.345-5.746c.133-.358.3-.831.461-1.4.01-.033.123-.395.213-.8a34.754,34.754,0,0,0,.844-8.436c-.008-.838-.043-1.759-.095-2.73a5.574,5.574,0,0,0-1.116-1.443,5.387,5.387,0,0,0-3.323-1.309c-2-.208-4.481-.576-7.53-1.041a6.591,6.591,0,0,1-13.182.065c-2.847.431-5.206.778-7.105.976a5.388,5.388,0,0,0-3.322,1.309,5.572,5.572,0,0,0-1.116,1.443c-.052.971-.087,1.892-.095,2.73a34.749,34.749,0,0,0,.845,8.436c.092.41.31,1.118.5,1.811a12.353,12.353,0,0,0,.343,5.358,11.122,11.122,0,0,0,2.3,4.223c.89,2.76,1.546,5.069,2,6.74a26.151,26.151,0,0,1,1.016,4.8,18.027,18.027,0,0,1-.593,6.364Z" transform="translate(-507.677 -90.367)" fill="none"/>
    </clipPath>
  </defs>
  <g id="Grupo_950466" data-name="Grupo 950466" transform="translate(0 0)">
    <g id="Grupo_950343" data-name="Grupo 950343" transform="translate(72.134 133.516)">
      <path id="Trazado_699350" data-name="Trazado 699350" d="M547.136,192.942a4.076,4.076,0,1,0,4.056-4.476A4.281,4.281,0,0,0,547.136,192.942Z" transform="translate(-516.155 -88.872)" fill="#030300"/>
      <ellipse id="Elipse_5565" data-name="Elipse 5565" cx="4.056" cy="4.476" rx="4.056" ry="4.476" transform="translate(4.867 89.498)" fill="#030300"/>
      <path id="Trazado_699351" data-name="Trazado 699351" d="M548.812,221.641l8.594-2.864a4.332,4.332,0,0,0,2.857-3.2,149.024,149.024,0,0,0-.1-64.2,1.817,1.817,0,0,0-2.351-1.319l-10.865,3.62a2.632,2.632,0,0,0-1.8,2.5V219A2.785,2.785,0,0,0,548.812,221.641Z" transform="translate(-517.481 -114.507)" fill="#97a6bf"/>
      <path id="Trazado_699352" data-name="Trazado 699352" d="M530.3,144.242l11.667-3.888a1.128,1.128,0,0,1,.918.088l25.006,14.17a1.136,1.136,0,0,1-.2,2.066l-11.665,3.888a1.139,1.139,0,0,1-.92-.088l-25-14.172A1.134,1.134,0,0,1,530.3,144.242Z" transform="translate(-527.882 -120.95)" fill="#8e9cb0"/>
      <path id="Trazado_699353" data-name="Trazado 699353" d="M528.539,145.909v63.165a3.611,3.611,0,0,0,1.831,3.14l22.27,12.621a2.386,2.386,0,0,0,3.563-2.076v-62.38a3.605,3.605,0,0,0-1.829-3.14L531.419,144.23A1.929,1.929,0,0,0,528.539,145.909Z" transform="translate(-528.539 -118.499)" fill="#7c8e9c"/>
      <rect id="Rectángulo_338034" data-name="Rectángulo 338034" width="1.528" height="30.323" transform="translate(18.76 9.353)" fill="#d1d3d4"/>
      <path id="Trazado_699354" data-name="Trazado 699354" d="M534.738,161.2l-1.528-1.214V129.666h1.528Z" transform="translate(-525.429 -128.028)" fill="#d1d3d4"/>
      <path id="Trazado_699355" data-name="Trazado 699355" d="M545.3,139.673a1.628,1.628,0,0,1-.94-.3l-10.98-7.715a1.638,1.638,0,1,1,1.884-2.679l10.978,7.715a1.638,1.638,0,0,1-.943,2.977Z" transform="translate(-525.778 -128.683)" fill="#27aae2"/>
      <path id="Trazado_699356" data-name="Trazado 699356" d="M550.338,193.979a1.176,1.176,0,0,1-.73,1.784,8.815,8.815,0,0,1-6.176-.858,1.175,1.175,0,0,1-.381-1.748l2.647-3.492a1.173,1.173,0,0,1,1.922.077Q548.98,191.861,550.338,193.979Z" transform="translate(-519.035 -88.382)" fill="#27aae2"/>
      <path id="Trazado_699357" data-name="Trazado 699357" d="M529.437,181.725a.884.884,0,0,0-.9-.468v2.994a3.611,3.611,0,0,0,1.831,3.14l1.688.958a.91.91,0,0,0,.2-1.085Q530.845,184.5,529.437,181.725Z" transform="translate(-528.539 -93.676)" fill="#27aae2"/>
      <path id="Trazado_699358" data-name="Trazado 699358" d="M552.034,193.08a.883.883,0,0,0,.043,1.011q.942-.315,1.882-.633a4.076,4.076,0,0,0,1.113-1.171,5.021,5.021,0,0,0,.736-1.7l.655-3.08a.909.909,0,0,0-1.038.368Q553.729,190.477,552.034,193.08Z" transform="translate(-512.986 -89.541)" fill="#27aae2"/>
      <path id="Trazado_699359" data-name="Trazado 699359" d="M528.6,146.623c-.092-.107-.027-.3,0-.375a6.567,6.567,0,0,1,.738-2.042,3.57,3.57,0,0,1,1.316-1.389.732.732,0,0,1,.641-.108.679.679,0,0,1,.335.436l.726,1.864a.728.728,0,0,1-.51.971c-1.419.366-2.5.625-2.89.695C528.874,146.69,528.686,146.723,528.6,146.623Z" transform="translate(-528.533 -119.367)" fill="#27aae2"/>
      <path id="Trazado_699360" data-name="Trazado 699360" d="M544.518,151.554c1.143.11,2.672.253,3.78.357a.809.809,0,0,1,.568,1.293l-1.987,2.629a.809.809,0,0,1-1.339-.073l-1.786-2.985A.806.806,0,0,1,544.518,151.554Z" transform="translate(-518.485 -113.455)" fill="#27aae2"/>
      <path id="Trazado_699361" data-name="Trazado 699361" d="M552,149.337q-.065.81-.13,1.618a2.122,2.122,0,0,0,.347.613,5.081,5.081,0,0,0,3.062,1.664c.24.055.488.1.6-.033.078-.087.093-.252-.23-1.128-.163-.438-.245-.658-.345-.861a7.012,7.012,0,0,0-2.379-2.374A.627.627,0,0,0,552,149.337Z" transform="translate(-513 -115.315)" fill="#27aae2"/>
      <path id="Trazado_699362" data-name="Trazado 699362" d="M540.73,142.341a.987.987,0,0,0,.831-.488l-1.974-1.221c-1.01-.585-1.639-.362-2.727.072l-1.654.663a.549.549,0,0,0,.535.621Z" transform="translate(-524.101 -120.961)" fill="#27aae2"/>
      <path id="Trazado_699363" data-name="Trazado 699363" d="M530.706,202.234a1.066,1.066,0,0,1-.355-.841q-.122-25.868-.243-51.738c0-.35.155-.541.35-.428a1.069,1.069,0,0,1,.355.841q.122,25.868.243,51.738C531.058,202.155,530.9,202.347,530.706,202.234Zm2.132.615q-.12-25.868-.243-51.737a1.067,1.067,0,0,0-.355-.841c-.195-.113-.351.078-.35.428l.243,51.738a1.063,1.063,0,0,0,.355.84C532.684,203.392,532.84,203.2,532.839,202.848Zm1.783,1.044q-.123-25.868-.243-51.738a1.063,1.063,0,0,0-.355-.84c-.195-.115-.352.077-.35.428l.243,51.737a1.067,1.067,0,0,0,.355.841C534.466,204.434,534.623,204.243,534.621,203.893Zm1.783,1.045L536.16,153.2a1.073,1.073,0,0,0-.355-.841c-.195-.113-.352.078-.35.428q.12,25.868.243,51.738a1.07,1.07,0,0,0,.355.841C536.249,205.479,536.405,205.287,536.4,204.938Zm1.691-19.38c-.06-12.526-.092-18.79-.152-31.314a1.065,1.065,0,0,0-.356-.841c-.193-.115-.35.077-.348.428l.243,51.737a1.064,1.064,0,0,0,.355.841c.195.115.352-.077.35-.428-.037-8.17-.055-12.253-.092-20.422m1.874,21.467q-.122-25.871-.245-51.738a1.069,1.069,0,0,0-.355-.841c-.195-.113-.351.078-.35.428q.122,25.868.245,51.738a1.07,1.07,0,0,0,.355.841C539.814,207.566,539.97,207.375,539.969,207.025Zm1.783,1.043q-.122-25.868-.245-51.737a1.065,1.065,0,0,0-.355-.841c-.195-.115-.352.077-.35.428l.245,51.737a1.065,1.065,0,0,0,.355.841C541.6,208.611,541.753,208.419,541.751,208.068Zm1.783,1.045-.245-51.738a1.07,1.07,0,0,0-.355-.841c-.195-.113-.352.078-.35.428q.122,25.871.245,51.738a1.062,1.062,0,0,0,.355.841C543.379,209.654,543.535,209.462,543.534,209.112Zm1.781,1.043-.243-51.737a1.064,1.064,0,0,0-.355-.841c-.195-.115-.351.077-.35.428q.122,25.868.243,51.738a1.064,1.064,0,0,0,.356.84C545.16,210.7,545.316,210.507,545.315,210.155ZM547.1,211.2q-.12-25.868-.243-51.738a1.063,1.063,0,0,0-.355-.84c-.195-.115-.352.077-.35.428l.243,51.737a1.072,1.072,0,0,0,.355.841C546.942,211.741,547.1,211.55,547.1,211.2Zm1.782,1.044q-.122-25.871-.243-51.738a1.067,1.067,0,0,0-.355-.841c-.195-.113-.352.078-.35.428l.243,51.738a1.07,1.07,0,0,0,.355.841C548.725,212.786,548.881,212.594,548.88,212.244Zm1.783,1.043q-.123-25.868-.243-51.738a1.068,1.068,0,0,0-.355-.84c-.195-.115-.351.077-.35.428q.12,25.868.243,51.737a1.064,1.064,0,0,0,.355.841C550.507,213.83,550.664,213.639,550.662,213.287Zm1.782,1.045q-.122-25.871-.243-51.738a1.075,1.075,0,0,0-.355-.841c-.195-.113-.352.078-.35.428l.243,51.738a1.07,1.07,0,0,0,.355.841C552.29,214.873,552.446,214.681,552.445,214.332Z" transform="translate(-527.494 -115.024)" fill="#7c8e9c" style="mix-blend-mode: multiply;isolation: isolate"/>
      <path id="Trazado_699364" data-name="Trazado 699364" d="M546.608,159.421a2.527,2.527,0,0,1-1.323-.38l-11.555-7.113a4.594,4.594,0,0,1-2.174-3.918l.013-3.149,2.176,1.219-.007,1.941a2.4,2.4,0,0,0,1.136,2.047l11.555,7.112a.324.324,0,0,0,.345.008.33.33,0,0,0,.175-.3v-3.307l2.182,1.233v2.074a2.538,2.538,0,0,1-2.524,2.531Z" transform="translate(-526.53 -117.909)" fill="#27aae2"/>
    </g>
    <path id="Trazado_699365" data-name="Trazado 699365" d="M485.239,90.486a229.642,229.642,0,0,0,61.3-5.419,225.053,225.053,0,0,0,59.265-22.553,225.654,225.654,0,0,0-63.315,5.721A220.9,220.9,0,0,0,485.239,90.486Z" transform="translate(-485.239 -39.426)" fill="#ea9b24"/>
    <path id="Trazado_699366" data-name="Trazado 699366" d="M546.47,60.248a19.437,19.437,0,0,0-4.415-6.614,11.186,11.186,0,0,0-3.622-2.765c-2.6-1.129-4.07-.676-8.483.585-9.206,2.63-9.926,1.789-13.1,4.1a22.961,22.961,0,0,0-5.379,5.769c-4.5,6.922-4.2,15.19-4.213,22.85-.018,20.138-.027,30.206-2.627,38.764-2.4,7.895-6.471,15.573-5.229,24.74a18.55,18.55,0,0,0,2.529,7.483,14.854,14.854,0,0,0,8.481,6.447l-3.2-8.348a19.5,19.5,0,0,0,6.172,7.825,9.517,9.517,0,0,0,6.794,1.714q-.62-2.534-1.243-5.068c2.817,2.262,8.655,6.164,16.3,5.591,8.8-.661,15.052-6.889,17.652-9.839-1.5,2.907-2.894,5.747-2.727,6.017a.1.1,0,0,0,.04.02c.443.08,7.845-2.824,11.158-10.177,2.266-5.029.883-8.281-1.345-25.26-2.011-15.34-2.67-22.995-2.664-28.73.008-8.176.575-13.159-.795-21.748-1.156-7.26-2.79-11.425-5.807-12.936A6.35,6.35,0,0,0,546.47,60.248Z" transform="translate(-475.961 -47.414)" fill="#573218"/>
    <g id="Grupo_950348" data-name="Grupo 950348" transform="translate(36.086 109.57)">
      <g id="Grupo_950345" data-name="Grupo 950345">
        <path id="Trazado_699367" data-name="Trazado 699367" d="M508.548,159.387c-1.146-8.273-3.55-26.445,1.113-33.018.92-1.294,1.753-2.649,2.669-3.945,1.733-2.452,2.887-3.882,3.5-6.226a11.806,11.806,0,0,0,.335-1.889q2.471,3.279,4.976,6.877,2.254,3.241,4.268,6.375c-.132,4.781.685,12.478.553,17.259,0,0-2.747,19.56-3.417,34.841-.173,3.965-.478,7.212-.816,10.762-.03.386-.087,1-.158,1.719v.005c-.177,1.771-.43,4.111-.53,4.848.506,5.869-.088,18.19-.556,25.99-.39,6.479-.465,9.386-.25,11.781l-.012,0c.042.473.095.93.162,1.391.715,1.4-4.575,5.1-4.485,1.776a10.672,10.672,0,0,1-.238-3.522c-.007-.187-.015-.48-.027-.84-.082-2.361-.738-11.155-2.809-24.481-1.431-9.221-.636-12.288-.16-14.4a23.326,23.326,0,0,0,.37-4.6c-.023-.811-.3-1.593-2.107-11.84C510.01,173.049,508.994,162.6,508.548,159.387Z" transform="translate(-506.9 -114.309)" fill="#f8c2a8"/>
        <g id="Grupo_950344" data-name="Grupo 950344" transform="translate(4.655 116.628)">
          <path id="Trazado_699368" data-name="Trazado 699368" d="M519.359,190.364a.066.066,0,0,1,.132.008,9.431,9.431,0,0,1,.035,2.627,6.675,6.675,0,0,0-.1,2.984c.038.215.062.371.067.406.63,3.54-.828,5.388-.828,5.388a3.669,3.669,0,0,1-.322.353c-2.011,1.992-5.651,2.414-7.6.536a2.854,2.854,0,0,1-.448-.52c-1.136-1.709-.333-4.4-.093-5.141a4,4,0,0,0,.14,1.559,3.782,3.782,0,0,0,2.366,2.381c2.4.831,5.514-1.523,6.024-4.09.213-1.076-.158-1.546.027-3.565A13.317,13.317,0,0,1,519.359,190.364Z" transform="translate(-509.694 -180.327)" fill="#dadada"/>
          <path id="Trazado_699369" data-name="Trazado 699369" d="M510.244,187.537a.873.873,0,0,1-.125-.436c-.007-1.344,2.84-3.27,4.776-2.67,2.4.745,3.549,5.453,3.549,5.453h0L517.7,203.41l-7.721-.7,2.749-9.382-.107-1.614Q511.432,189.626,510.244,187.537Z" transform="translate(-509.508 -184.317)" fill="#015ba4"/>
          <path id="Trazado_699370" data-name="Trazado 699370" d="M515.409,185.584c.233-.4.386-.47.486-.446.5.117.5,2.785.5,3.715,0,1.116-.073,1.516-.013,2.649.042.795.122,1.439.182,1.861.007.053.018.135.028.235a12.858,12.858,0,0,1-.35,3.8c-.282,1.937.117,2.059-.252,3.47a7.556,7.556,0,0,1-.841,1.994l-1.189-2.381a3.094,3.094,0,0,1-.155-.838,3.177,3.177,0,0,1,.182-1.223l1.734-9.266Q515.564,187.372,515.409,185.584Z" transform="translate(-506.96 -183.774)" fill="#01a0e4"/>
          <path id="Trazado_699371" data-name="Trazado 699371" d="M512.112,188.208c.168.295.488.756.523.886a8.84,8.84,0,0,1,.163,2.489l-1.524,6.261a13.491,13.491,0,0,1-1.286,2.277,7.557,7.557,0,0,1,.345-3.1c.338-1.061,1.07-3,2.111-5.443A24.108,24.108,0,0,0,512.112,188.208Z" transform="translate(-509.521 -181.727)" fill="#01a0e4"/>
          <path id="Trazado_699372" data-name="Trazado 699372" d="M514.25,194.482a5.525,5.525,0,0,1,3.445,2.2,4.832,4.832,0,0,1-4.23,1.861c-2.167-.317-3.09-.771-3.492-2.559A5.17,5.17,0,0,1,514.25,194.482Z" transform="translate(-509.508 -177.585)" fill="#e6e7e8"/>
          <path id="Trazado_699373" data-name="Trazado 699373" d="M518.665,189.5c0,.333-.132.6-.293.6s-.295-.27-.295-.6.132-.6.295-.6S518.665,189.171,518.665,189.5Zm-.335,1.233c-.163,0-.3.27-.3.6s.132.6.3.6.293-.27.293-.6S518.492,190.737,518.331,190.737Zm-.1,1.792c-.163,0-.3.27-.3.6s.132.6.3.6.293-.272.293-.6S518.394,192.529,518.232,192.529Zm-.3,1.761c-.162,0-.293.27-.293.6s.132.6.293.6.295-.27.295-.6S518.094,194.29,517.931,194.29Zm-.581,2.011c-.162,0-.293.27-.293.6s.132.6.293.6.295-.27.295-.6S517.513,196.3,517.349,196.3Zm-6.7.293c-.155-.055-.347.158-.426.476s-.02.623.137.68.347-.157.426-.476S510.807,196.651,510.651,196.594Zm.5-1.9c-.153-.038-.382.217-.428.476-.033.19.018.463.168.506s.323-.142.4-.3C511.41,195.108,511.317,194.735,511.155,194.7Zm.578-1.629c-.145-.052-.327.163-.408.483s-.028.62.117.671.326-.163.406-.483S511.877,193.117,511.733,193.066Zm.651-1.826c-.092-.033-.23.2-.31.518s-.072.6.02.636.23-.2.31-.518S512.476,191.273,512.385,191.24Zm.052-1.854c-.1-.007-.172.228-.167.523s.088.541.185.548.172-.228.167-.523S512.533,189.392,512.436,189.386Z" transform="translate(-509.365 -181.265)" fill="#0f0f0f"/>
          <path id="Trazado_699374" data-name="Trazado 699374" d="M517.22,189.065a.363.363,0,0,1,.325.418.356.356,0,0,1-.376.262,5.374,5.374,0,0,0-3.91.83c-.546.145-1.058.285-1.6.431a6.96,6.96,0,0,1,2.779-1.708,6.582,6.582,0,0,1,1.574-.285A6.334,6.334,0,0,1,517.22,189.065Z" transform="translate(-508.389 -181.196)" fill="#dadada"/>
          <path id="Trazado_699375" data-name="Trazado 699375" d="M511.652,189.292a.179.179,0,0,0-.05.023c-.2.125-.118.53-.072.671a.2.2,0,0,0,.1.133.153.153,0,0,0,.09,0,7.1,7.1,0,0,1,.89-.158,7.245,7.245,0,0,1,2.7.215q.627.057,1.254.117l.032-.2a3.09,3.09,0,0,0-.953-.655,4.315,4.315,0,0,0-1.834-.287c-.595-.008-1.026,0-1.214.013A8.935,8.935,0,0,0,511.652,189.292Z" transform="translate(-508.509 -181.096)" fill="#dadada"/>
          <path id="Trazado_699376" data-name="Trazado 699376" d="M517.349,190.315a.439.439,0,0,1,.118.553.313.313,0,0,1-.216.1c-.025-.02-.063-.052-.113-.087a2.777,2.777,0,0,0-1.906-.363,6.34,6.34,0,0,0-3.687,1.684c-.06.055-.108.1-.142.135l.15-.615.042-.167a5.794,5.794,0,0,1,3.175-1.781,3.506,3.506,0,0,1,2.042.22A2.931,2.931,0,0,1,517.349,190.315Z" transform="translate(-508.556 -180.723)" fill="#dadada"/>
          <path id="Trazado_699377" data-name="Trazado 699377" d="M511.623,190.548a.68.68,0,0,0-.127.145c-.155.235-.172.568-.078.611.03.013.083.005.188-.093a2.392,2.392,0,0,1,.756-.47,2.441,2.441,0,0,1,1.041-.153,3.228,3.228,0,0,1,1.981.87,4.2,4.2,0,0,1,.461,0,4.391,4.391,0,0,1,.462.047l.076-.433c-.09-.06-.21-.135-.353-.218,0,0-.092-.053-.183-.1-.323-.177-.585-.3-.686-.34a4.3,4.3,0,0,0-1.653-.448,2.756,2.756,0,0,0-1.751.478A1.531,1.531,0,0,0,511.623,190.548Z" transform="translate(-508.584 -180.563)" fill="#dadada"/>
          <path id="Trazado_699378" data-name="Trazado 699378" d="M517.4,191.426a.639.639,0,0,1,.25.463.264.264,0,0,1-.078.22.252.252,0,0,1-.263,0,2.635,2.635,0,0,0-.288-.168,3.484,3.484,0,0,0-2.221-.218,8.708,8.708,0,0,0-3.314,1.469c-.093.025-.232.053-.325.078.013-.067.04-.152.068-.275a2.846,2.846,0,0,1,1.441-1.331c1.281-.641,3.232-1.373,4.446-.486A2.091,2.091,0,0,1,517.4,191.426Z" transform="translate(-508.715 -180.022)" fill="#dadada"/>
          <path id="Trazado_699379" data-name="Trazado 699379" d="M511.221,191.716a1.55,1.55,0,0,0-.162.352.621.621,0,0,0-.01.413.1.1,0,0,0,.048.047c.068.027.148-.045.158-.053a1.459,1.459,0,0,1,.386-.5c.763-.616,2.2-.373,3.622.555.337.062.58.113.916.175.015-.083.03-.168.047-.252l.022-.108a4.32,4.32,0,0,0-3.625-1.278A3.471,3.471,0,0,0,511.221,191.716Z" transform="translate(-508.814 -179.864)" fill="#dadada"/>
          <path id="Trazado_699380" data-name="Trazado 699380" d="M517.243,192.508a.443.443,0,0,1,.22.267.371.371,0,0,1-.087.328.333.333,0,0,1-.162.09,4.782,4.782,0,0,0-2.5-.46,4.841,4.841,0,0,0-2.85,1.3,6.081,6.081,0,0,0-.658.24c-.115.048-.223.1-.327.152l.1-.393a7.467,7.467,0,0,1,1.283-1.1,5.049,5.049,0,0,1,2.4-.993A4.435,4.435,0,0,1,517.243,192.508Z" transform="translate(-508.902 -179.257)" fill="#dadada"/>
          <path id="Trazado_699381" data-name="Trazado 699381" d="M510.849,192.557c-.062.163-.19.545-.067.631a.164.164,0,0,0,.137,0,7.5,7.5,0,0,1,.73-.2,4.528,4.528,0,0,1,2.964.615l1.349.313c-.28-.293-1.981-2.026-4.085-1.7A3.532,3.532,0,0,0,510.849,192.557Z" transform="translate(-509.004 -179.077)" fill="#dadada"/>
          <path id="Trazado_699382" data-name="Trazado 699382" d="M510.535,194.813a6.665,6.665,0,0,1,6.426-.258.427.427,0,0,0,.28-.213.521.521,0,0,0-.243-.583,7.148,7.148,0,0,0-1.354-.526,6.591,6.591,0,0,0-1.9-.26,5.747,5.747,0,0,0-3.11,1.088.6.6,0,0,0-.215.506A.5.5,0,0,0,510.535,194.813Z" transform="translate(-509.216 -178.556)" fill="#dadada"/>
          <path id="Trazado_699383" data-name="Trazado 699383" d="M514.322,194.723a.227.227,0,0,1-.1-.022.287.287,0,0,1-.137-.365,4.692,4.692,0,0,0,.162-2.9,4.362,4.362,0,0,0-.875-1.668,3.574,3.574,0,0,0-.526,1.991,3.478,3.478,0,0,0,.465,1.6.29.29,0,0,1-.08.383.244.244,0,0,1-.353-.087,4.077,4.077,0,0,1-.543-1.868,4.183,4.183,0,0,1,.81-2.619.245.245,0,0,1,.18-.1.24.24,0,0,1,.193.073,4.908,4.908,0,0,1,1.221,2.141,5.3,5.3,0,0,1-.182,3.27A.257.257,0,0,1,514.322,194.723Z" transform="translate(-507.937 -181.154)" fill="#d1d3d4"/>
          <path id="Trazado_699384" data-name="Trazado 699384" d="M516.692,189.372c-.408-.595-1.248-.57-2.377-.172-.99-.428-2.97-.713-3.27.565,0,0-.2.916.555,1.081s2.625-1.16,2.625-1.16a8.033,8.033,0,0,0,1.991.976c.528.135.783.01.855-.295A2.161,2.161,0,0,0,516.692,189.372Zm-4.645.97c-.61.208-.7-.325-.3-.706a2.508,2.508,0,0,1,1.921-.222Zm4.486-.187c-.12.185-.978-.283-1.689-.636a2.339,2.339,0,0,1,1.235.015A.529.529,0,0,1,516.534,190.155Z" transform="translate(-508.811 -181.306)" fill="#d1d3d4"/>
        </g>
      </g>
      <g id="Grupo_950347" data-name="Grupo 950347" transform="translate(20.684)">
        <path id="Trazado_699385" data-name="Trazado 699385" d="M536.743,159.387c1.146-8.273,3.55-26.445-1.113-33.018-.92-1.294-1.753-2.649-2.669-3.945-1.733-2.452-2.887-3.882-3.5-6.226a11.583,11.583,0,0,1-.333-1.889q-2.471,3.279-4.978,6.877-2.254,3.241-4.268,6.375c.132,4.781-.685,12.478-.551,17.259,0,0,2.745,19.56,3.415,34.841.173,3.965.478,7.212.816,10.762.03.386.088,1,.158,1.719v.005c.177,1.771.43,4.111.53,4.848-.506,5.869.088,18.19.556,25.99.39,6.479.465,9.386.252,11.781l.012,0c-.043.473-.1.93-.163,1.391-.715,1.4,4.575,5.1,4.485,1.776a10.672,10.672,0,0,0,.24-3.522c.005-.187.013-.48.025-.84.082-2.361.738-11.155,2.809-24.481,1.433-9.221.638-12.288.16-14.4a23.335,23.335,0,0,1-.37-4.6c.023-.811.3-1.593,2.107-11.84C535.28,173.049,536.3,162.6,536.743,159.387Z" transform="translate(-519.316 -114.309)" fill="#f8c2a8"/>
        <g id="Grupo_950346" data-name="Grupo 950346" transform="translate(4.466 116.628)">
          <path id="Trazado_699386" data-name="Trazado 699386" d="M522.285,190.364a.066.066,0,0,0-.132.008A9.372,9.372,0,0,0,522.12,193a6.7,6.7,0,0,1,.1,2.984c-.038.215-.06.371-.067.406-.63,3.54.828,5.388.828,5.388a3.653,3.653,0,0,0,.321.353c2.011,1.992,5.651,2.414,7.607.536a2.991,2.991,0,0,0,.448-.52c1.134-1.709.333-4.4.093-5.141a4.064,4.064,0,0,1-.14,1.559,3.787,3.787,0,0,1-2.367,2.381c-2.4.831-5.514-1.523-6.022-4.09-.213-1.076.157-1.546-.028-3.565A13.312,13.312,0,0,0,522.285,190.364Z" transform="translate(-521.997 -180.327)" fill="#dadada"/>
          <path id="Trazado_699387" data-name="Trazado 699387" d="M530.807,187.537a.872.872,0,0,0,.125-.436c.007-1.344-2.84-3.27-4.776-2.67-2.4.745-3.547,5.453-3.547,5.453h0l.746,13.527,7.721-.7-2.747-9.382.1-1.614Q529.622,189.626,530.807,187.537Z" transform="translate(-521.59 -184.317)" fill="#015ba4"/>
          <path id="Trazado_699388" data-name="Trazado 699388" d="M523.391,185.584c-.233-.4-.386-.47-.485-.446-.5.117-.5,2.785-.5,3.715,0,1.116.073,1.516.013,2.649-.042.795-.122,1.439-.182,1.861-.007.053-.018.135-.028.235a12.919,12.919,0,0,0,.35,3.8c.281,1.937-.117,2.059.253,3.47a7.564,7.564,0,0,0,.84,1.994q.595-1.189,1.191-2.381a3.2,3.2,0,0,0-.028-2.061l-1.734-9.266Z" transform="translate(-521.887 -183.774)" fill="#01a0e4"/>
          <path id="Trazado_699389" data-name="Trazado 699389" d="M526.7,188.208c-.168.295-.488.756-.523.886a8.824,8.824,0,0,0-.163,2.489l1.524,6.261a13.488,13.488,0,0,0,1.286,2.277,7.484,7.484,0,0,0-.345-3.1c-.338-1.061-1.07-3-2.111-5.443A24.152,24.152,0,0,1,526.7,188.208Z" transform="translate(-519.342 -181.727)" fill="#01a0e4"/>
          <path id="Trazado_699390" data-name="Trazado 699390" d="M526.5,194.482a5.531,5.531,0,0,0-3.445,2.2,4.832,4.832,0,0,0,4.23,1.861c2.169-.317,3.09-.771,3.492-2.559A5.17,5.17,0,0,0,526.5,194.482Z" transform="translate(-521.292 -177.585)" fill="#e6e7e8"/>
          <path id="Trazado_699391" data-name="Trazado 699391" d="M522.389,189.5c0,.333.132.6.293.6s.295-.27.295-.6-.132-.6-.295-.6S522.389,189.171,522.389,189.5Zm.335,1.233c.163,0,.295.27.295.6s-.132.6-.295.6-.293-.27-.293-.6S522.562,190.737,522.724,190.737Zm.1,1.792c.163,0,.295.27.295.6s-.132.6-.295.6-.293-.272-.293-.6S522.661,192.529,522.822,192.529Zm.3,1.761c.163,0,.295.27.295.6s-.132.6-.295.6-.293-.27-.293-.6S522.962,194.29,523.124,194.29Zm.581,2.011c.161,0,.295.27.295.6s-.133.6-.295.6-.295-.27-.295-.6S523.542,196.3,523.705,196.3Zm6.7.293c.155-.055.347.158.426.476s.02.623-.135.68-.348-.157-.428-.476S530.249,196.651,530.4,196.594Zm-.5-1.9c.153-.038.382.217.428.476.033.19-.017.463-.168.506s-.323-.142-.395-.3C529.644,195.108,529.737,194.735,529.9,194.7Zm-.578-1.629c.145-.052.328.163.408.483s.028.62-.117.671-.327-.163-.406-.483S529.178,193.117,529.321,193.066Zm-.651-1.826c.092-.033.23.2.311.518s.07.6-.022.636-.23-.2-.31-.518S528.578,191.273,528.67,191.24Zm-.052-1.854c.1-.007.172.228.167.523s-.088.541-.185.548-.172-.228-.167-.523S528.521,189.392,528.618,189.386Z" transform="translate(-521.736 -181.265)" fill="#0f0f0f"/>
          <path id="Trazado_699392" data-name="Trazado 699392" d="M522.8,189.065a.361.361,0,0,0-.323.418.354.354,0,0,0,.376.262,5.38,5.38,0,0,1,3.91.83c.545.145,1.056.285,1.6.431a6.964,6.964,0,0,0-2.777-1.708,6.6,6.6,0,0,0-1.576-.285A6.342,6.342,0,0,0,522.8,189.065Z" transform="translate(-521.681 -181.196)" fill="#dadada"/>
          <path id="Trazado_699393" data-name="Trazado 699393" d="M528.059,189.292a.166.166,0,0,1,.052.023c.2.125.117.53.07.671a.2.2,0,0,1-.1.133.153.153,0,0,1-.09,0,7.1,7.1,0,0,0-.89-.158,7.232,7.232,0,0,0-2.7.215q-.63.057-1.256.117l-.031-.2a3.089,3.089,0,0,1,.953-.655,4.325,4.325,0,0,1,1.834-.287c.595-.008,1.026,0,1.214.013A8.941,8.941,0,0,1,528.059,189.292Z" transform="translate(-521.25 -181.096)" fill="#dadada"/>
          <path id="Trazado_699394" data-name="Trazado 699394" d="M522.764,190.315a.439.439,0,0,0-.118.553.313.313,0,0,0,.217.1c.025-.02.065-.052.115-.087a2.771,2.771,0,0,1,1.9-.363,6.334,6.334,0,0,1,3.687,1.684c.06.055.108.1.142.135q-.073-.307-.15-.615l-.042-.167a5.793,5.793,0,0,0-3.175-1.781,3.5,3.5,0,0,0-2.041.22A2.962,2.962,0,0,0,522.764,190.315Z" transform="translate(-521.603 -180.723)" fill="#dadada"/>
          <path id="Trazado_699395" data-name="Trazado 699395" d="M528.053,190.548a.729.729,0,0,1,.125.145c.155.235.172.568.078.611-.03.013-.083.005-.188-.093a2.393,2.393,0,0,0-.756-.47,2.441,2.441,0,0,0-1.041-.153,3.217,3.217,0,0,0-1.979.87,4.237,4.237,0,0,0-.463,0,4.315,4.315,0,0,0-.46.047l-.078-.433c.092-.06.21-.135.355-.218,0,0,.09-.053.182-.1.323-.177.585-.3.686-.34a4.3,4.3,0,0,1,1.653-.448,2.754,2.754,0,0,1,1.751.478C527.974,190.48,528.021,190.52,528.053,190.548Z" transform="translate(-521.136 -180.563)" fill="#dadada"/>
          <path id="Trazado_699396" data-name="Trazado 699396" d="M522.858,191.426a.634.634,0,0,0-.252.463.264.264,0,0,0,.078.22.252.252,0,0,0,.263,0,2.691,2.691,0,0,1,.29-.168,3.479,3.479,0,0,1,2.219-.218,8.728,8.728,0,0,1,3.315,1.469c.093.025.23.053.323.078-.013-.067-.04-.152-.068-.275a2.845,2.845,0,0,0-1.441-1.331c-1.279-.641-3.232-1.373-4.446-.486A1.96,1.96,0,0,0,522.858,191.426Z" transform="translate(-521.591 -180.022)" fill="#dadada"/>
          <path id="Trazado_699397" data-name="Trazado 699397" d="M528.536,191.716a1.476,1.476,0,0,1,.162.352.619.619,0,0,1,.012.413.111.111,0,0,1-.05.047c-.068.027-.148-.045-.158-.053a1.457,1.457,0,0,0-.386-.5c-.761-.616-2.2-.373-3.622.555-.336.062-.58.113-.916.175-.015-.083-.03-.168-.047-.252l-.02-.108a4.315,4.315,0,0,1,3.623-1.278A3.461,3.461,0,0,1,528.536,191.716Z" transform="translate(-520.99 -179.864)" fill="#dadada"/>
          <path id="Trazado_699398" data-name="Trazado 699398" d="M523.056,192.508a.443.443,0,0,0-.22.267.376.376,0,0,0,.087.328.34.34,0,0,0,.161.09,4.783,4.783,0,0,1,2.5-.46,4.835,4.835,0,0,1,2.85,1.3,6.081,6.081,0,0,1,.658.24c.115.048.223.1.327.152l-.1-.393a7.508,7.508,0,0,0-1.281-1.1,5.056,5.056,0,0,0-2.4-.993A4.439,4.439,0,0,0,523.056,192.508Z" transform="translate(-521.444 -179.257)" fill="#dadada"/>
          <path id="Trazado_699399" data-name="Trazado 699399" d="M528.907,192.557c.062.163.191.545.067.631a.164.164,0,0,1-.137,0,7.5,7.5,0,0,0-.73-.2,4.531,4.531,0,0,0-2.964.615l-1.348.313c.278-.293,1.979-2.026,4.085-1.7A3.539,3.539,0,0,1,528.907,192.557Z" transform="translate(-520.799 -179.077)" fill="#dadada"/>
          <path id="Trazado_699400" data-name="Trazado 699400" d="M529.871,194.813a6.664,6.664,0,0,0-6.426-.258.428.428,0,0,1-.28-.213.521.521,0,0,1,.243-.583,7.147,7.147,0,0,1,1.354-.526,6.6,6.6,0,0,1,1.9-.26,5.747,5.747,0,0,1,3.11,1.088.6.6,0,0,1,.217.506A.512.512,0,0,1,529.871,194.813Z" transform="translate(-521.237 -178.556)" fill="#dadada"/>
          <path id="Trazado_699401" data-name="Trazado 699401" d="M524.377,194.723a.24.24,0,0,0,.1-.022.288.288,0,0,0,.135-.365,4.692,4.692,0,0,1-.162-2.9,4.362,4.362,0,0,1,.875-1.668,3.56,3.56,0,0,1,.526,1.991,3.481,3.481,0,0,1-.465,1.6.29.29,0,0,0,.08.383.244.244,0,0,0,.353-.087,4.082,4.082,0,0,0,.543-1.868,4.184,4.184,0,0,0-.81-2.619.245.245,0,0,0-.18-.1.241.241,0,0,0-.193.073,4.892,4.892,0,0,0-1.219,2.141,5.289,5.289,0,0,0,.18,3.27A.257.257,0,0,0,524.377,194.723Z" transform="translate(-520.809 -181.154)" fill="#d1d3d4"/>
          <path id="Trazado_699402" data-name="Trazado 699402" d="M523.392,189.372c.408-.595,1.248-.57,2.377-.172.991-.428,2.97-.713,3.27.565,0,0,.2.916-.555,1.081s-2.625-1.16-2.625-1.16a8.029,8.029,0,0,1-1.991.976c-.526.135-.783.01-.855-.295A2.164,2.164,0,0,1,523.392,189.372Zm4.644.97c.61.208.7-.325.3-.706a2.508,2.508,0,0,0-1.921-.222Zm-4.485-.187c.118.185.976-.283,1.688-.636a2.338,2.338,0,0,0-1.234.015A.526.526,0,0,0,523.552,190.155Z" transform="translate(-521.32 -181.306)" fill="#d1d3d4"/>
        </g>
      </g>
    </g>
    <g id="Grupo_950350" data-name="Grupo 950350" transform="translate(68.649 72.886)">
      <g id="Grupo_950349" data-name="Grupo 950349" transform="translate(0.613 0.509)">
        <path id="Trazado_699403" data-name="Trazado 699403" d="M534.31,127.039v0a8.59,8.59,0,0,0-.82,3.925c.175,2.386,1.736,4.27,1.238,6.37-.23.94,1.519.238,1.853-.866s-.555-2.406-.085-3.144c.548-.858,1.118-.708,2.122.045.6.455,1.318.926,2.369,1.664.743-.162,1.113-2.449.437-3.942-.55-1.213-1.3-1.859-3.307-3.708C536.854,126.22,534.344,125.582,534.31,127.039Z" transform="translate(-522.379 -70.217)" fill="#f8c2a8"/>
        <path id="Trazado_699404" data-name="Trazado 699404" d="M532.566,113.183a3.706,3.706,0,0,0-1.138,1.051c-1.851,2.722,5.391,20.956,3.9,23.953,1.653.09,3.465-.087,5.118,0-.833-3.265-1.155-8.245-1.578-11.851-.515-4.395-1.133-8.593-1.823-12.586v0h0C536.715,111.782,534.5,111.387,532.566,113.183Z" transform="translate(-523.946 -79.649)" fill="#f8c2a8"/>
        <path id="Trazado_699405" data-name="Trazado 699405" d="M531.217,92.6c-.36.1-.03,1.942-1.4,3.8a6.2,6.2,0,0,1-1.761,1.586c-3.845,2.7,2.194,20.093,4.92,27.821.12.342,1.793,3.9,3.428,3.768.11-.01.187-.032,2.247-.42.886-.168.888-.167.9-.172C541.76,128.123,532.826,92.141,531.217,92.6Z" transform="translate(-526.815 -92.593)" fill="#f8c2a8"/>
      </g>
      <path id="Trazado_699406" data-name="Trazado 699406" d="M537,109.947c-2.281-9.352-4.74-17.89-5.574-17.654-.392.11-.223,1.859-1.708,3.877a6.692,6.692,0,0,1-1.914,1.723c-2.3,1.618-1.343,8.08.476,14.962Z" transform="translate(-526.447 -92.288)" fill="#cfd25f"/>
      <path id="Trazado_699407" data-name="Trazado 699407" d="M536.794,104.891l-8.36,2.607c-.466.145-1.466-1.588-1.043-1.766l9.346-2.935C537.209,102.68,537.281,104.728,536.794,104.891Z" transform="translate(-525.886 -85.293)" fill="#bab452"/>
    </g>
    <g id="Grupo_950352" data-name="Grupo 950352" transform="translate(37.437 62.643)">
      <g id="Grupo_950351" data-name="Grupo 950351" clip-path="url(#clip-path)">
        <path id="Trazado_699408" data-name="Trazado 699408" d="M543.217,147.4q-.322-.795-.693-1.683c-2.212-5.293-3.861-6.932-4.7-10.7a22.958,22.958,0,0,1-.42-2.94,25.4,25.4,0,0,1-.123-2.685,20.311,20.311,0,0,1,.706-4.615,55.4,55.4,0,0,1,1.791-5.981,9.62,9.62,0,0,0,2.119-3.588,10.893,10.893,0,0,0,.327-5.458c.127-.34.283-.79.438-1.328.01-.032.118-.375.2-.758a32.934,32.934,0,0,0,.8-8.015c-.007-.8-.04-1.671-.09-2.594a5.34,5.34,0,0,0-1.06-1.371,5.118,5.118,0,0,0-3.157-1.243c-1.9-.2-4.256-.548-7.152-.99a3.428,3.428,0,0,1-.383-.195c-2.547-1.8-.88-6.672-.721-7.118h-9.379c.18.818,1.106,5.359-1.606,7.147a4.058,4.058,0,0,1-.433.228c-2.706.411-4.945.74-6.749.928a5.118,5.118,0,0,0-3.157,1.243,5.3,5.3,0,0,0-1.06,1.371c-.05.923-.083,1.8-.09,2.594a32.922,32.922,0,0,0,.8,8.015c.087.388.295,1.06.476,1.719a11.726,11.726,0,0,0,.327,5.089,10.562,10.562,0,0,0,2.187,4.012c.67,1.919,1.321,4.057,1.9,6.4.391,1.591.708,3.117.966,4.563a22.4,22.4,0,0,1-.708,6.549c-.97,3.638-2.477,5.281-5.373,11.553-.666,1.444-1.178,2.637-1.491,3.383h36.868C544.263,150.071,543.808,148.847,543.217,147.4Z" transform="translate(-507.711 -86.14)" fill="#f8c2a8"/>
        <path id="Trazado_699409" data-name="Trazado 699409" d="M525.391,88.9a10.959,10.959,0,0,1-9.359,0V85.752h9.359Z" transform="translate(-502.17 -86.398)" fill="#de8d7b"/>
      </g>
    </g>
    <g id="Grupo_950371" data-name="Grupo 950371" transform="translate(31.247 3.708)">
      <g id="Grupo_950355" data-name="Grupo 950355" transform="translate(0 32.044)">
        <g id="Grupo_950353" data-name="Grupo 950353" transform="translate(41.95)">
          <path id="Trazado_699411" data-name="Trazado 699411" d="M535.973,74.8c-.84,2.882-2.109,2.884-3.693,6.186-.4.846-.618,1.464-1.06,1.524-.718.1-1.478-1.368-1.777-2.376-1.133-3.8,1.566-10.1,4.136-10.132a3.081,3.081,0,0,1,2.667,2.466A4.562,4.562,0,0,1,535.973,74.8Z" transform="translate(-529.177 -69.998)" fill="#f8c2a8"/>
          <path id="Trazado_699412" data-name="Trazado 699412" d="M535.021,71.3c-4.58-.776-5.911,7.861-4.964,9.119a19.142,19.142,0,0,1,1.208-4.27,1.09,1.09,0,0,1,.743.78,3.419,3.419,0,0,1-.05,2.162,3.7,3.7,0,0,0,.572-2.524c-.1-.653-.438-1.268-.846-1.326.123-.247.255-.493.4-.736A8.672,8.672,0,0,1,535.021,71.3Z" transform="translate(-528.781 -69.167)" fill="#de8d7b"/>
        </g>
        <g id="Grupo_950354" data-name="Grupo 950354">
          <path id="Trazado_699413" data-name="Trazado 699413" d="M504.333,74.8c.84,2.882,2.109,2.884,3.693,6.186.4.846.618,1.464,1.059,1.524.718.1,1.478-1.368,1.778-2.376C512,76.33,509.3,70.03,506.727,70a3.079,3.079,0,0,0-2.667,2.466A4.546,4.546,0,0,0,504.333,74.8Z" transform="translate(-503.995 -69.998)" fill="#f8c2a8"/>
          <path id="Trazado_699414" data-name="Trazado 699414" d="M504.532,71.3c4.58-.776,5.911,7.861,4.964,9.119a19.147,19.147,0,0,0-1.208-4.27,1.092,1.092,0,0,0-.745.78,3.432,3.432,0,0,0,.052,2.162,3.7,3.7,0,0,1-.571-2.524c.1-.653.438-1.268.846-1.326-.125-.247-.255-.493-.4-.736A8.673,8.673,0,0,0,504.532,71.3Z" transform="translate(-503.638 -69.167)" fill="#de8d7b"/>
        </g>
      </g>
      <path id="Trazado_699415" data-name="Trazado 699415" d="M545.885,93.544c.042-.195.215-1.121.438-2.291.215-1.129.5-2.812.828-5.577a56.891,56.891,0,0,1,1.681-8.466c-.383-1.119-6.422-17.935-20.892-19.418-6.387-.655-11.555,2.081-15.373,5.454a35.584,35.584,0,0,0-6.75,9.466c.445,2.132,1.035,5.326,1.444,9.184.45,4.233.825,6.47,1.108,7.89.208,1.041.4,1.959.486,2.346,1.781,7.682,10.139,12.534,10.635,12.821,2.139,1.231,4.252,2.449,7.3,2.576,3.405.143,5.859-1.166,8.45-2.551C540.452,102.194,545.032,97.587,545.885,93.544Z" transform="translate(-502.783 -46.147)" fill="#f8c2a8"/>
      <path id="Trazado_699416" data-name="Trazado 699416" d="M522.008,79.254a.474.474,0,0,1,.29.423c-.052.49-1.329.9-2.417.9s-2.386-.415-2.414-.915a.462.462,0,0,1,.265-.41c.571-.267,1.161,1.161,2.149,1.156S521.414,79,522.008,79.254Z" transform="translate(-495.025 -31.815)" fill="#de8d7b"/>
      <g id="Grupo_950356" data-name="Grupo 950356" transform="translate(2.136)">
        <path id="Trazado_699417" data-name="Trazado 699417" d="M506.644,82.05c-1.176-4.7-1.656-8.255-1.193-11.748a19.3,19.3,0,0,1,1.806-6.224,19.6,19.6,0,0,1,7.925-8.181c7.673-4.406,18.795-3.2,26.327,2.864,1.939,1.561,8.015,6.964,8.769,15.993a23.072,23.072,0,0,1-3.6,14.187,32.461,32.461,0,0,0-4.928-19.02,49.325,49.325,0,0,1-14.119,6.95c-8.085,2.434-14.78.708-17.974,5.592-1.043,1.6-1.363,4.6-1.463,5.586C507.772,85.7,506.963,83.321,506.644,82.05Z" transform="translate(-505.277 -49.103)" fill="#573218"/>
        <path id="Trazado_699418" data-name="Trazado 699418" d="M548.83,76.413c-.087-5.076-1.073-7.477-2.009-9.069a14.375,14.375,0,0,0-2.787-3.4,11.053,11.053,0,0,1,3.873,3.07c2.287,2.907,2.334,6.212,2.336,9.178a31.078,31.078,0,0,1-3.409,13.875A43.7,43.7,0,0,0,548.83,76.413ZM508.112,64.97c-4.395,6.882-2.162,14.668-1.9,16.671-.085-5.224.318-10.72,3.3-15.558a26.574,26.574,0,0,1,9.776-9.291C517.276,57.738,511.447,59.749,508.112,64.97Zm21.1-14.085a6.618,6.618,0,0,0-2.96,1.493,19.009,19.009,0,0,1,3.915.421,21.63,21.63,0,0,1,11.845,7.488C538.573,53.788,533.419,50.023,529.207,50.885Zm6.384,12.663a31.147,31.147,0,0,1-4.065,5.609,33.2,33.2,0,0,1-15.5,9.407,21.29,21.29,0,0,0,13.387-5.208A20.962,20.962,0,0,0,535.591,63.547Z" transform="translate(-505.187 -50.763)" fill="#573218" style="mix-blend-mode: screen;isolation: isolate"/>
      </g>
      <g id="Grupo_950358" data-name="Grupo 950358" transform="translate(17.522 50.767)">
        <g id="Grupo_950357" data-name="Grupo 950357" clip-path="url(#clip-path-2)">
          <path id="Trazado_699419" data-name="Trazado 699419" d="M521.932,81.887a34.063,34.063,0,0,1-7.685-.71,8.018,8.018,0,0,0,7.723,5.043,8.5,8.5,0,0,0,7.935-5.071A38.951,38.951,0,0,1,521.932,81.887Z" transform="translate(-514.69 -81.296)" fill="#37121a"/>
          <path id="Trazado_699420" data-name="Trazado 699420" d="M528.292,81.283a43.321,43.321,0,0,1-6.687.571,44.005,44.005,0,0,1-6.7-.546c.441.84,1.887,1.9,6.38,1.9v0h.058l.543,0h.058v0C526.437,83.194,527.865,82.126,528.292,81.283Z" transform="translate(-514.251 -81.206)" fill="#fff"/>
          <path id="Trazado_699421" data-name="Trazado 699421" d="M520.371,83.233c-1.078,0-3.217.008-3.62.885a8.842,8.842,0,0,0,3.552.718,9.011,9.011,0,0,0,3.835-.84C523.723,83.115,521.449,83.232,520.371,83.233Z" transform="translate(-513.023 -79.912)" fill="#860718"/>
        </g>
      </g>
      <g id="Grupo_950369" data-name="Grupo 950369" transform="translate(7.065 28.746)">
        <g id="Grupo_950363" data-name="Grupo 950363" transform="translate(21.639)">
          <path id="Trazado_699423" data-name="Trazado 699423" d="M521.971,70.4c-.763.986-.921,1.808-.565,2.487,2.219-1.268,9.757-2.544,11.01-1.809a8.977,8.977,0,0,1,2.124,1.688c-.072-.976-2.342-4.211-5.6-4.75C528.367,67.926,521.971,70.4,521.971,70.4Z" transform="translate(-521.225 -68.018)" fill="#573218"/>
          <g id="Grupo_950361" data-name="Grupo 950361" transform="translate(0.596 6.622)">
            <g id="Grupo_950360" data-name="Grupo 950360" clip-path="url(#clip-path-3)">
              <path id="Trazado_699424" data-name="Trazado 699424" d="M530.989,74.94a3.445,3.445,0,0,1-2.917,2.3q-2.369.015-4.741.032a2.006,2.006,0,0,1-.8-.262,2.162,2.162,0,0,1-.948-1.329,3.854,3.854,0,0,1,.235-.8A5.048,5.048,0,0,1,526.138,72,5.235,5.235,0,0,1,530.989,74.94Z" transform="translate(-521.583 -71.994)" fill="#fff"/>
              <g id="Grupo_950359" data-name="Grupo 950359" transform="translate(1.733 0.061)">
                <path id="Trazado_699425" data-name="Trazado 699425" d="M528.144,74.79a2.76,2.76,0,1,1-2.76-2.76A2.761,2.761,0,0,1,528.144,74.79Z" transform="translate(-522.623 -72.03)" fill="#3c2415"/>
                <ellipse id="Elipse_5566" data-name="Elipse 5566" cx="1.486" cy="1.485" rx="1.486" ry="1.485" transform="translate(1.275 1.275)"/>
                <path id="Trazado_699426" data-name="Trazado 699426" d="M526.4,73.345a.795.795,0,1,1-.795-.795A.793.793,0,0,1,526.4,73.345Z" transform="translate(-521.169 -71.684)" fill="#fff"/>
              </g>
            </g>
          </g>
          <g id="Grupo_950362" data-name="Grupo 950362" transform="translate(0.598 5.983)">
            <path id="Trazado_699428" data-name="Trazado 699428" d="M527.321,73.977l.012.005c-.085-.132-.18-.27-.288-.413C527.141,73.709,527.239,73.849,527.321,73.977Z" transform="translate(-517.948 -70.305)" fill="#2d150b"/>
            <path id="Trazado_699429" data-name="Trazado 699429" d="M532.133,74.232a2.746,2.746,0,0,1-1.211-.387,2.435,2.435,0,0,0,.826-.052,2.643,2.643,0,0,0,1.011-.495,3.533,3.533,0,0,1-1.156.235,3.361,3.361,0,0,1-1.414-.272,1.954,1.954,0,0,0,1.011-.177,2.072,2.072,0,0,0,.776-.633,3.229,3.229,0,0,1-1.215.45,3.274,3.274,0,0,1-.979,0,5.056,5.056,0,0,0-.556-.428,5.308,5.308,0,0,0-2.647-.858,5.762,5.762,0,0,0-3.228.831,5.8,5.8,0,0,0-1.766,3.49,6.193,6.193,0,0,1,2.094-2.835,6.255,6.255,0,0,1,5.2.215,5.7,5.7,0,0,1,1.8,1.558c.108.143.2.282.288.413a1.784,1.784,0,0,0,.262.08,1.542,1.542,0,0,0,.326.045,1.8,1.8,0,0,0,.92-.22,1.959,1.959,0,0,0,.9-1.144A2.864,2.864,0,0,1,532.133,74.232Z" transform="translate(-521.584 -71.61)" fill="#573218"/>
          </g>
        </g>
        <g id="Grupo_950368" data-name="Grupo 950368" transform="translate(0 0.032)">
          <path id="Trazado_699430" data-name="Trazado 699430" d="M520.805,70.424c.763.986.921,1.808.565,2.487-2.219-1.268-9.757-2.544-11.01-1.809a8.968,8.968,0,0,0-2.124,1.689c.072-.978,2.342-4.213,5.6-4.751C514.41,67.945,520.805,70.424,520.805,70.424Z" transform="translate(-508.236 -68.037)" fill="#573218"/>
          <g id="Grupo_950366" data-name="Grupo 950366" transform="translate(3.314 6.623)">
            <g id="Grupo_950365" data-name="Grupo 950365" clip-path="url(#clip-path-4)">
              <path id="Trazado_699431" data-name="Trazado 699431" d="M510.225,74.959a3.444,3.444,0,0,0,2.917,2.3q2.369.015,4.741.032a1.993,1.993,0,0,0,.8-.262,2.143,2.143,0,0,0,.948-1.329,3.859,3.859,0,0,0-.233-.8,5.048,5.048,0,0,0-4.321-2.882A5.234,5.234,0,0,0,510.225,74.959Z" transform="translate(-510.225 -72.013)" fill="#fff"/>
              <g id="Grupo_950364" data-name="Grupo 950364" transform="translate(2.152 0.06)">
                <path id="Trazado_699432" data-name="Trazado 699432" d="M511.517,74.809a2.76,2.76,0,1,0,2.76-2.76A2.761,2.761,0,0,0,511.517,74.809Z" transform="translate(-511.517 -72.049)" fill="#3c2415"/>
                <path id="Trazado_699433" data-name="Trazado 699433" d="M512.282,74.3a1.486,1.486,0,1,0,1.486-1.484A1.485,1.485,0,0,0,512.282,74.3Z" transform="translate(-511.008 -71.539)"/>
                <path id="Trazado_699434" data-name="Trazado 699434" d="M513.7,73.364a.8.8,0,1,0,.8-.795A.8.8,0,0,0,513.7,73.364Z" transform="translate(-510.065 -71.703)" fill="#fff"/>
              </g>
            </g>
          </g>
          <g id="Grupo_950367" data-name="Grupo 950367" transform="translate(0.925 5.983)">
            <path id="Trazado_699436" data-name="Trazado 699436" d="M510.249,74l-.012,0c.083-.132.178-.268.288-.413C510.429,73.728,510.33,73.868,510.249,74Z" transform="translate(-507.828 -70.324)" fill="#2d150b"/>
            <path id="Trazado_699437" data-name="Trazado 699437" d="M510.035,74.251a2.743,2.743,0,0,0,1.21-.385,2.491,2.491,0,0,1-.826-.053,2.621,2.621,0,0,1-1.01-.495,3.49,3.49,0,0,0,1.156.235,3.361,3.361,0,0,0,1.414-.272,1.927,1.927,0,0,1-1.013-.177,2.093,2.093,0,0,1-.775-.631,3.217,3.217,0,0,0,2.192.446,5.085,5.085,0,0,1,.558-.428,5.3,5.3,0,0,1,2.647-.858,5.762,5.762,0,0,1,3.229.831,5.82,5.82,0,0,1,1.766,3.49,6.193,6.193,0,0,0-2.094-2.835,6.255,6.255,0,0,0-5.2.215,5.7,5.7,0,0,0-1.8,1.558c-.11.145-.2.282-.288.413a1.753,1.753,0,0,1-.262.082,1.683,1.683,0,0,1-.326.043,1.8,1.8,0,0,1-.921-.22,1.96,1.96,0,0,1-.9-1.144A2.863,2.863,0,0,0,510.035,74.251Z" transform="translate(-508.791 -71.629)" fill="#573218"/>
          </g>
        </g>
      </g>
      <g id="Grupo_950370" data-name="Grupo 950370" transform="translate(2.402 33.376)">
        <path id="Trazado_699438" data-name="Trazado 699438" d="M538.5,70.8c-4.233.062-8.991,1.106-10.872,1.218-1.881-.112-6.639-1.156-10.873-1.218a56.334,56.334,0,0,0-11.315,1l.348,3.05c2.022.11,1.336,3.2,2.734,6.842,2.166,5.642,8.7,5.179,12.406,3.462,2.494-1.254,3.572-3.683,4.883-7.728a2.473,2.473,0,0,1,1.8-2.007l.01,0a.082.082,0,0,0,.022,0,2.474,2.474,0,0,1,1.8,2.007c1.311,4.045,2.389,6.474,4.883,7.728,3.705,1.718,10.24,2.181,12.406-3.462,1.4-3.642.711-6.732,2.734-6.842l.346-3.05A56.309,56.309,0,0,0,538.5,70.8Zm-14.83,10.249c-1.364,2.336-3.344,4.4-7.765,4.326-3.59-.06-5.569-1.446-6.605-4.548a16.986,16.986,0,0,1-.565-5.444,3.431,3.431,0,0,1,2.466-3.177,23.762,23.762,0,0,1,11.082.095c1.541.44,2.521,1.258,2.5,2.727A15.411,15.411,0,0,1,523.667,81.052Zm22.285-.222c-1.035,3.1-3.014,4.488-6.606,4.548-4.421.07-6.4-1.991-7.763-4.326a15.444,15.444,0,0,1-1.115-6.021c-.018-1.469.961-2.287,2.5-2.727a23.763,23.763,0,0,1,11.082-.095,3.433,3.433,0,0,1,2.466,3.177A17,17,0,0,1,545.952,80.83Z" transform="translate(-505.437 -70.798)" fill="#ea77c9"/>
        <path id="Trazado_699439" data-name="Trazado 699439" d="M531.664,71.982a23.763,23.763,0,0,1,11.082-.095,3.433,3.433,0,0,1,2.466,3.177,17,17,0,0,1-.566,5.444c-1.035,3.1-3.014,4.488-6.606,4.548-4.421.07-6.4-1.991-7.763-4.326a15.444,15.444,0,0,1-1.115-6.021C529.144,73.24,530.123,72.422,531.664,71.982Zm-10.692,0a23.763,23.763,0,0,0-11.082-.095,3.431,3.431,0,0,0-2.466,3.177,16.99,16.99,0,0,0,.565,5.444c1.036,3.1,3.015,4.488,6.605,4.548,4.421.07,6.4-1.991,7.765-4.326a15.411,15.411,0,0,0,1.113-6.021C523.493,73.24,522.513,72.422,520.972,71.982Z" transform="translate(-504.13 -70.475)" fill="#004845" opacity="0.42"/>
      </g>
    </g>
    <g id="Grupo_950372" data-name="Grupo 950372" transform="translate(0 0)">
      <path id="Trazado_699440" data-name="Trazado 699440" d="M551,63.049a26.567,26.567,0,0,0-3.129-6.134,17.258,17.258,0,0,0-6.059-5.662c-6.021-3.4-12.06-2.837-15.995-2.342a33.77,33.77,0,0,0-3.525.641c-3.264.748-12.711,3.4-16.519,9.469a14.312,14.312,0,0,0-1.916,4.753,17.552,17.552,0,0,0-.293,3.4,38.258,38.258,0,0,0,.34,5.2c.155,1.363.392,3.17.76,5.3a48.449,48.449,0,0,1,16.894-10.052,45.511,45.511,0,0,1,30.686.808A24.649,24.649,0,0,0,551,63.049Z" transform="translate(-473.038 -48.537)" fill="#f4a52e"/>
      <path id="Trazado_699441" data-name="Trazado 699441" d="M560.967,60.591a60.258,60.258,0,0,0-19.153-.167,56.808,56.808,0,0,0-10.872,2.867h0q-2.389,1.052-4.821,2.206s-2.479,1.176-4.9,2.417c-3.455,1.768-17.489,10.712-35.977,24.229,15.43-6.785,26.555-9.179,34.016-10.074a54.427,54.427,0,0,0,13.856-2.9c7.46-2.709,9.539-5.544,16.236-7.891a42.9,42.9,0,0,1,15.8-2.2c8.541.08,21.566-.743,40.659-4.964C584.267,63.2,570.343,61.992,560.967,60.591Z" transform="translate(-485.239 -41.083)" fill="#f4a52e"/>
      <path id="Trazado_699442" data-name="Trazado 699442" d="M503.79,66.876a79.555,79.555,0,0,1,19.721-7.56,76.221,76.221,0,0,1,27.581-1.358c.245.791.481,1.674.683,2.64.158.75.278,1.463.368,2.129a73.884,73.884,0,0,0-47.864,9.551Z" transform="translate(-472.886 -42.71)" fill="#754c29"/>
    </g>
    <g id="Grupo_950374" data-name="Grupo 950374" transform="translate(37.38 69.685)">
      <g id="Grupo_950373" data-name="Grupo 950373" clip-path="url(#clip-path-5)">
        <path id="Trazado_699443" data-name="Trazado 699443" d="M538.507,134.682a33.179,33.179,0,0,1-.535-3.655,25.628,25.628,0,0,1-.132-2.825,21.43,21.43,0,0,1,.745-4.859,58.344,58.344,0,0,1,1.884-6.3,10.141,10.141,0,0,0,2.231-3.777,11.473,11.473,0,0,0,.345-5.746c.133-.358.3-.831.461-1.4.01-.033.123-.395.213-.8a34.754,34.754,0,0,0,.844-8.436c-.008-.838-.043-1.759-.095-2.73a5.574,5.574,0,0,0-1.116-1.443,5.387,5.387,0,0,0-3.323-1.309c-2-.208-4.481-.576-7.53-1.041a6.591,6.591,0,0,1-13.182.065c-2.847.431-5.206.778-7.105.976a5.388,5.388,0,0,0-3.322,1.309,5.572,5.572,0,0,0-1.116,1.443c-.052.971-.087,1.892-.095,2.73a34.749,34.749,0,0,0,.845,8.436c.092.41.31,1.118.5,1.811a12.353,12.353,0,0,0,.343,5.358,11.122,11.122,0,0,0,2.3,4.223c.89,2.76,1.546,5.069,2,6.74a26.151,26.151,0,0,1,1.016,4.8,18.027,18.027,0,0,1-.593,6.364Z" transform="translate(-507.677 -90.367)" fill="#cfd25f"/>
        <path id="Trazado_699444" data-name="Trazado 699444" d="M542.555,100.771a10.5,10.5,0,0,1-2.362,9.409c-1.09,1.256-3.418,1.781-6.847,1.518a30.293,30.293,0,0,1-7.258-2.026,41.425,41.425,0,0,1-7.7,1.628,14.453,14.453,0,0,1-5.694-.413,36.338,36.338,0,0,1,.755,4.63,36.716,36.716,0,0,1-.695,11.4l-1.378,0c-.068-3.089,2.139-6.607,1.294-10.605a57.9,57.9,0,0,0-1.764-6.47,10.939,10.939,0,0,1-1.848-3.373,12.977,12.977,0,0,1-.5-6.034c-.033.918-.138,6.012,3.383,8.549a8.475,8.475,0,0,0,3.254,1.3,18.177,18.177,0,0,0,10.905-1.311,14.663,14.663,0,0,0,8.1,2.092,9.054,9.054,0,0,0,4.989-1.346C543.02,107.067,542.6,101.3,542.555,100.771Z" transform="translate(-507.202 -83.667)" fill="#bab452" style="mix-blend-mode: multiply;isolation: isolate"/>
      </g>
    </g>
    <g id="Grupo_950376" data-name="Grupo 950376" transform="translate(35.221 112.286)">
      <path id="Trazado_699446" data-name="Trazado 699446" d="M539.253,116.361c-3.583.017-8.311.035-12.091.053-3.778-.018-8.506-.037-12.09-.053-2.116,8.025-12.746,7.692-7.013,42.662,7.815,1.942,9.9,1.211,17.021-.776l2.082-8.5,2.082,8.5c7.124,1.987,9.208,2.719,17.023.776C552,124.053,541.369,124.386,539.253,116.361Z" transform="translate(-506.381 -115.658)" fill="#d0875a"/>
      <path id="Trazado_699447" data-name="Trazado 699447" d="M507.249,145.122a30.763,30.763,0,0,0,9.328,1.388,27.01,27.01,0,0,0,8.363-1.223c1.089-.4.928-4.431.058-4.061a27.479,27.479,0,0,1-8.576,1.234,28.138,28.138,0,0,1-8.726-1.239C506.647,140.862,506.323,144.814,507.249,145.122Z" transform="translate(-506.166 -99.119)" fill="#b06143"/>
      <path id="Trazado_699448" data-name="Trazado 699448" d="M507.777,135.6a34.355,34.355,0,0,0,4.738-3.882,30.517,30.517,0,0,0,3.61-4.14c.406-.6-.715-1.606-1.026-1.111a30.775,30.775,0,0,1-3.707,4.24,31.591,31.591,0,0,1-4.416,3.648C506.39,134.734,507.263,135.938,507.777,135.6Z" transform="translate(-506.115 -109.019)" fill="#b06143"/>
      <path id="Trazado_699449" data-name="Trazado 699449" d="M538.155,145.122a31.08,31.08,0,0,1-9.378,1.388,27.3,27.3,0,0,1-8.408-1.223c-1.094-.4-.931-4.431-.058-4.061a27.77,27.77,0,0,0,8.621,1.234,28.411,28.411,0,0,0,8.773-1.239C538.76,140.862,539.086,144.814,538.155,145.122Z" transform="translate(-497.577 -99.119)" fill="#b06143"/>
      <path id="Trazado_699450" data-name="Trazado 699450" d="M533.7,135.547a34.365,34.365,0,0,1-4.738-3.882,30.367,30.367,0,0,1-3.608-4.14c-.406-.6.713-1.606,1.026-1.111a30.824,30.824,0,0,0,3.705,4.24,31.494,31.494,0,0,0,4.418,3.648C535.091,134.684,534.218,135.888,533.7,135.547Z" transform="translate(-493.803 -109.052)" fill="#b06143"/>
      <path id="Trazado_699451" data-name="Trazado 699451" d="M517.965,135.957h-.276v-19.48h3.262V130.7C520.951,133.844,519.406,135.957,517.965,135.957Zm.277-18.26v17.011c1.069-.238,2.156-1.817,2.156-4.008v-13Z" transform="translate(-498.851 -115.581)" fill="#b06143"/>
      <g id="Grupo_950375" data-name="Grupo 950375" transform="translate(6.656)">
        <path id="Trazado_699452" data-name="Trazado 699452" d="M536.48,117.583H511.155l.352-1.645h24.619Z" transform="translate(-509.858 -115.939)" fill="#d0875a"/>
        <path id="Trazado_699453" data-name="Trazado 699453" d="M538.638,120.328l-28.254-.055a6.767,6.767,0,0,1,1.036-3.935l26.072.05a12.3,12.3,0,0,1,1.146,3.94Z" transform="translate(-510.376 -115.673)" fill="#a97c50"/>
        <rect id="Rectángulo_338035" data-name="Rectángulo 338035" width="1.284" height="4.226" transform="translate(8.964 0.61)" fill="#d0875a"/>
        <rect id="Rectángulo_338036" data-name="Rectángulo 338036" width="1.284" height="4.226" transform="translate(2.701 0.61)" fill="#d0875a"/>
        <rect id="Rectángulo_338037" data-name="Rectángulo 338037" width="1.284" height="4.226" transform="translate(23.686 0.61)" fill="#d0875a"/>
        <rect id="Rectángulo_338038" data-name="Rectángulo 338038" width="1.284" height="4.226" transform="translate(17.231 0.542)" fill="#d0875a"/>
        <path id="Trazado_699454" data-name="Trazado 699454" d="M520.859,116.131h-2.426a1.556,1.556,0,0,0-1.416,1.664v1.343a1.558,1.558,0,0,0,1.416,1.664h2.426a1.559,1.559,0,0,0,1.418-1.664V117.8A1.558,1.558,0,0,0,520.859,116.131Zm0,4h-2.426a.934.934,0,0,1-.85-1V117.8a.933.933,0,0,1,.85-1h2.426a.932.932,0,0,1,.85,1v.313h-1.9a.338.338,0,0,0,0,.666h1.9v.363A.933.933,0,0,1,520.859,120.136Z" transform="translate(-505.954 -115.811)" fill="#f1f2f2"/>
      </g>
    </g>
    <g id="Grupo_950382" data-name="Grupo 950382" transform="translate(6.039 55.415)">
      <g id="Grupo_950377" data-name="Grupo 950377" transform="translate(0 4.147)">
        <rect id="Rectángulo_338039" data-name="Rectángulo 338039" width="10.727" height="18.548" rx="0.316" transform="translate(12.019 0) rotate(40.39)" fill="#bcbec0"/>
        <rect id="Rectángulo_338040" data-name="Rectángulo 338040" width="31.027" height="18.548" rx="0.475" transform="matrix(0.762, 0.648, -0.648, 0.762, 20.189, 6.951)" fill="#bcbec0"/>
        <path id="Trazado_699455" data-name="Trazado 699455" d="M527.722,110.747l-22.428-19.08a.791.791,0,0,0-1.114.09l.172-.2a.528.528,0,0,0-.06-.743l-7.368-6.269a.528.528,0,0,0-.743.06l-.766.9,31.8,27.056.595-.7A.791.791,0,0,0,527.722,110.747Z" transform="translate(-484.503 -84.204)" fill="#126d6e"/>
        <path id="Rectángulo_338041" data-name="Rectángulo 338041" d="M.451,0H9.44a.452.452,0,0,1,.452.452v1.6a.451.451,0,0,1-.451.451H.451A.451.451,0,0,1,0,2.056V.451A.451.451,0,0,1,.451,0Z" transform="matrix(0.762, 0.648, -0.648, 0.762, 2.227, 12.206)" fill="#126d6e"/>
        <rect id="Rectángulo_338042" data-name="Rectángulo 338042" width="9.891" height="13.234" rx="0.673" transform="matrix(0.762, 0.648, -0.648, 0.762, 11.033, 1.855)" fill="#f1f2f2"/>
        <rect id="Rectángulo_338043" data-name="Rectángulo 338043" width="30.001" height="13.234" rx="0.775" transform="matrix(0.762, 0.648, -0.648, 0.762, 19.201, 8.804)" fill="#f1f2f2"/>
        <rect id="Rectángulo_338044" data-name="Rectángulo 338044" width="30.063" height="2.507" rx="0.412" transform="translate(10.364 19.129) rotate(40.39)" fill="#126d6e"/>
        <path id="Trazado_699456" data-name="Trazado 699456" d="M494.139,101.8l-.092-.078.152-.18.093.08Zm.765-.9-.093-.078-.3.36.092.078Zm.61-.718-.092-.078-.3.36.092.078Zm.611-.718-.092-.078-.307.36.093.078Zm.611-.718-.093-.078-.3.36.092.078Zm.611-.718-.093-.078-.3.36.092.078Zm.61-.718-.092-.078-.307.36.093.078Zm.611-.718-.092-.078-.307.36.093.078Zm.611-.718-.093-.078-.3.358.092.08Zm.61-.718-.092-.078-.3.358.092.08Zm.611-.718-.092-.078-.307.358.093.08Zm.611-.718-.093-.078-.3.358.092.08Zm.61-.718-.092-.078-.3.358.092.078Zm.611-.718-.092-.078-.307.358.093.078Zm.611-.718-.092-.078-.307.358.093.078Zm.611-.718-.093-.078-.3.358.092.078Zm.61-.718-.092-.078-.3.358.092.078Zm.611-.718-.092-.078-.307.358.093.078Zm.458-.538-.093-.078-.151.178.092.078Z" transform="translate(-485.413 -81.287)" fill="#d1d3d4" style="mix-blend-mode: multiply;isolation: isolate"/>
        <path id="Trazado_699457" data-name="Trazado 699457" d="M515.119,101.055l-.513-.247-5.942-.523.656,4.531,2.289,1.088.178.56-2.517.072a.37.37,0,0,1-.7.218l-2.152,1.118-.13-.52,1.371-2.069-1.588-4.258-4.976,3.22-.228.46-.263-.686L505.33,98.1c-.08-.57-1.109-4.616.037-4.938,1.5-.418,2.312,3.78,2.524,4.3l6.957,2.86C514.939,100.573,515.029,100.815,515.119,101.055Z" transform="translate(-481.049 -78.399)" fill="#126d6e"/>
        <path id="Trazado_699458" data-name="Trazado 699458" d="M496.97,99.881l-5.729-4.874.025-.028L497,99.853Zm.48-.563-5.729-4.874-.123.147,5.729,4.873Zm.406-.476-5.729-4.874-.125.147,5.729,4.873Zm.466-.55-5.729-4.874-.248.292,5.729,4.874Zm.312-.367-5.727-4.874-.063.073L498.573,98Zm.5-.586-5.729-4.874-.248.293,5.729,4.873Zm.343-.4-5.729-4.874-.125.147,5.729,4.873Zm.466-.55-5.729-4.874-.248.293,5.729,4.873Zm.343-.4-5.729-4.874-.123.147,5.729,4.874Zm.4-.476-5.728-4.874-.125.147,5.729,4.874Zm.356-.418-5.729-4.874-.025.03,5.729,4.874Zm.516-.608-5.729-4.873-.248.292,5.729,4.873Zm.313-.366-5.729-4.874-.063.073,5.729,4.874Zm.386-.455-5.729-4.873-.025.028,5.729,4.874Zm.455-.535-5.729-4.873-.125.145,5.729,4.874Zm.355-.418-5.729-4.873-.023.028,5.727,4.874Zm.518-.608-5.729-4.873-.248.292,5.729,4.874Zm.343-.4-5.729-4.873-.125.145,5.729,4.874Zm.373-.44-5.729-4.873-.062.072,5.729,4.874Z" transform="translate(-487.281 -82.898)"/>
      </g>
      <g id="Grupo_950378" data-name="Grupo 950378" transform="translate(8.948 0)">
        <rect id="Rectángulo_338045" data-name="Rectángulo 338045" width="10.727" height="18.548" rx="0.316" transform="translate(15.681 0) rotate(57.721)" fill="#bcbec0"/>
        <rect id="Rectángulo_338046" data-name="Rectángulo 338046" width="31.027" height="18.548" rx="0.475" transform="matrix(0.534, 0.845, -0.845, 0.534, 21.41, 9.069)" fill="#bcbec0"/>
        <path id="Trazado_699459" data-name="Trazado 699459" d="M526.1,116.354,510.378,91.46a.791.791,0,0,0-1.091-.247l.223-.142a.527.527,0,0,0,.163-.726l-5.166-8.178a.526.526,0,0,0-.726-.165l-1,.631,22.3,35.3.776-.49A.791.791,0,0,0,526.1,116.354Z" transform="translate(-488.545 -81.721)" fill="#126d6e"/>
        <path id="Rectángulo_338047" data-name="Rectángulo 338047" d="M.452,0H9.44a.452.452,0,0,1,.452.452v1.6a.451.451,0,0,1-.451.451H.451A.451.451,0,0,1,0,2.056V.452A.452.452,0,0,1,.452,0Z" transform="matrix(0.534, 0.845, -0.845, 0.534, 2.698, 8.735)" fill="#126d6e"/>
        <rect id="Rectángulo_338048" data-name="Rectángulo 338048" width="9.891" height="13.234" rx="0.673" transform="matrix(0.534, 0.845, -0.845, 0.534, 14.188, 1.477)" fill="#f1f2f2"/>
        <rect id="Rectángulo_338049" data-name="Rectángulo 338049" width="30.001" height="13.234" rx="0.775" transform="translate(19.915 10.544) rotate(57.721)" fill="#f1f2f2"/>
        <rect id="Rectángulo_338050" data-name="Rectángulo 338050" width="30.063" height="2.507" rx="0.412" transform="matrix(0.534, 0.845, -0.845, 0.534, 8.404, 17.768)" fill="#126d6e"/>
        <path id="Trazado_699460" data-name="Trazado 699460" d="M498.118,96.632l-.063-.1.2-.127.065.1Zm1-.628-.065-.1-.4.252.065.1Zm.8-.5-.065-.1-.4.252.063.1Zm.8-.5-.065-.1-.4.252.065.1Zm.8-.5-.065-.1-.4.253.065.1Zm.8-.5-.065-.1-.4.252.065.1Zm.8-.5-.065-.1-.4.252.065.1Zm.8-.5-.065-.1-.4.252.065.1Zm.8-.5-.065-.1-.4.253.065.1Zm.8-.5-.065-.1-.4.252.065.1Zm.8-.5-.063-.1-.4.252.065.1Zm.8-.5-.065-.1-.4.252.065.1Zm.8-.5-.063-.1-.4.252.065.1Zm.8-.5-.065-.1-.4.252.065.1Zm.8-.5-.063-.1-.4.252.065.1Zm.8-.5-.065-.1-.4.252.065.1Zm.8-.5-.065-.1-.4.252.065.1Zm.8-.5-.065-.1-.4.252.065.1Zm.6-.378-.065-.1-.2.125.065.1Z" transform="translate(-491.692 -78.028)" fill="#d1d3d4" style="mix-blend-mode: multiply;isolation: isolate"/>
        <path id="Trazado_699461" data-name="Trazado 699461" d="M518.126,102.9l-.417-.388-5.517-2.271-.723,4.521,1.861,1.721,0,.588-2.424-.683a.37.37,0,0,1-.738,0l-2.387.425.03-.535,1.926-1.568-.246-4.536-5.711,1.591-.355.371-.045-.733,6.277-4.236c.093-.57.316-4.738,1.506-4.7,1.556.047,1.081,4.3,1.126,4.859l5.789,4.8Z" transform="translate(-488.144 -74.702)" fill="#126d6e"/>
        <path id="Trazado_699462" data-name="Trazado 699462" d="M500.883,96.077l-4.017-6.36.032-.02,4.017,6.359Zm.625-.4-4.016-6.359-.162.1,4.017,6.359Zm.53-.333-4.017-6.359-.163.1,4.018,6.359Zm.61-.385L498.63,88.6l-.325.2,4.017,6.36Zm.406-.258-4.017-6.359-.08.052,4.017,6.359Zm.651-.41-4.017-6.36-.325.2,4.017,6.36Zm.448-.283-4.018-6.359-.162.1,4.017,6.359Zm.61-.385-4.018-6.36-.323.2,4.017,6.36Zm.447-.283-4.017-6.359-.162.1,4.017,6.359Zm.53-.335-4.016-6.359-.163.1,4.018,6.359Zm.463-.293-4.017-6.359-.032.02,4.016,6.36Zm.675-.425-4.017-6.36-.323.2,4.017,6.36Zm.408-.258-4.017-6.359-.082.052,4.017,6.359Zm.5-.318-4.018-6.359-.032.02,4.017,6.359Zm.593-.375-4.017-6.359-.163.1,4.018,6.359Zm.463-.293-4.017-6.359-.032.02,4.017,6.359Zm.675-.426L505.5,84.26l-.323.2,4.017,6.359Zm.448-.283-4.016-6.359-.162.1,4.017,6.359Zm.488-.308-4.017-6.359-.082.052,4.018,6.359Z" transform="translate(-492.484 -80.558)"/>
      </g>
      <g id="Grupo_950381" data-name="Grupo 950381" transform="translate(9.077 19.12)">
        <path id="Rectángulo_338051" data-name="Rectángulo 338051" d="M0,0H17.838a1.1,1.1,0,0,1,1.1,1.1V29.577a1.1,1.1,0,0,1-1.1,1.1H0a0,0,0,0,1,0,0V0A0,0,0,0,1,0,0Z" transform="translate(0 9.233) rotate(-29.178)" fill="#9f0000"/>
        <g id="Grupo_950379" data-name="Grupo 950379" transform="translate(14.275 18.636)">
          <path id="Trazado_699463" data-name="Trazado 699463" d="M504.194,105.266l-.07-.093s-.193.1-.172.122a.043.043,0,0,1,.008.048l.155.118.042.137-.062.115s.1-.075.135-.032.148.06.148.06l.025-.13.067-.072s-.2-.085-.178-.1.092-.123.083-.153S504.194,105.266,504.194,105.266Z" transform="translate(-502.17 -103.994)" fill="#fef3b3"/>
          <path id="Trazado_699464" data-name="Trazado 699464" d="M507.49,107.337c-.033.037-.122.167-.122.167l-.153-.1-.287.107-.17.015-.162.028-.022.057s-.17-.19-.182-.165a.4.4,0,0,1-.06.068l-.133-.095-.3-.028-.125.08a1.109,1.109,0,0,1-.207-.037,3.159,3.159,0,0,0-.346-.063l-.053.11-.095-.027-.157.087-.047-.037-.118.075-.032-.027s.077-.193.023-.163a.945.945,0,0,0-.165.215l-.1.11,0,.187.145.595s.595.54.7.615a2.214,2.214,0,0,0,.576.123l.315.58.227.423a3.268,3.268,0,0,0,.512-.312c.035-.063.37-.8.37-.8s-.127-.1-.077-.153a3.26,3.26,0,0,1,.3-.33.513.513,0,0,0,.06-.353c-.03-.055-.147-.23-.122-.28a1.319,1.319,0,0,0,.133-.448C507.592,107.5,507.524,107.3,507.49,107.337Z" transform="translate(-501.818 -102.556)" fill="#fef3b3"/>
          <path id="Trazado_699465" data-name="Trazado 699465" d="M504.879,104.989a.188.188,0,0,0-.025.13c0,.027.045-.017.088.013a.19.19,0,0,0,.137.022c.03-.008.038,0,.038-.075s.067-.215.018-.188S504.879,104.989,504.879,104.989Z" transform="translate(-501.57 -104.185)" fill="#fef3b3"/>
          <path id="Trazado_699466" data-name="Trazado 699466" d="M504.459,105.28c.025.03.092.1.092.1s.088-.032.1,0-.01.175,0,.195a1.54,1.54,0,0,0,.17.145c.028.02.118.005.15.015a.607.607,0,0,1,.123.108l-.043-.188-.038-.228.068-.18.113-.18a.769.769,0,0,1-.2-.073c-.015-.027-.005-.058-.04-.12s-.34,0-.34,0l-.248.128s-.393.38-.2.275A1,1,0,0,1,504.459,105.28Z" transform="translate(-502.061 -104.216)" fill="#fef3b3"/>
          <path id="Trazado_699467" data-name="Trazado 699467" d="M504.994,104.988a4.122,4.122,0,1,0,5.609,1.589A4.124,4.124,0,0,0,504.994,104.988Zm3.975,7.118a4.03,4.03,0,0,1-5.406-5.616c-.045.218-.143.715-.135.73s.063.1.063.1l-.137.361-.027.112-.042.148.037.415.095.09.023.36.178.353.165-.073.078.125,0,.167.447.257s.073-.138.113-.115.272.168.272.168l.145-.028.128.07.048.072.348.1-.238-.2-.107-.268-.067-.07-.2.075-.023-.315-.062-.047s-.12.04-.118.075a1.609,1.609,0,0,1-.04.2l-.117.03-.087,0s-.143-.115-.15-.157-.007-.315-.007-.315l-.053-.113s.15-.27.158-.24a.442.442,0,0,0,.085.1l.2-.11-.035-.1s.115-.047.145-.01.012.118.012.118l.17.065.1.165.03-.168-.178-.273.263-.386a2.166,2.166,0,0,1,0-.416,1.3,1.3,0,0,0,.11-.088l-.045-.18.133-.11.118.068.378-.451.087-.022s.008-.192-.048-.15a.756.756,0,0,1-.123.067l-.05-.122.025-.13s-.255.035-.275,0-.15-.253-.15-.253l-.048.168-.148.083.017-.143-.163-.007a.054.054,0,0,0-.045,0c-.02.01.03.133,0,.148s-.055.075-.043.1a.587.587,0,0,0,.068.077l-.092.122,0,.17-.067.01-.045-.08-.007-.06-.115.047-.123-.092-.073,0-.048-.15.31-.288.185-.21-.073-.085-.128.01-.2,0,.1-.182-.108-.082-.137.2-.165.04.087-.218a4.017,4.017,0,0,1,2.291-1.145.74.74,0,0,0,.217.03s-.22.113-.182.137.092.083.14.108a2.1,2.1,0,0,0,.237.072s-.048.01.027.065a.145.145,0,0,0,.151.015l.232.065a1.657,1.657,0,0,1,.207.037c.025.012-.025.067-.025.067s.12.1.07.093.075.022.083.053a.244.244,0,0,1-.01.093l-.073.058.425.11s-.273.162-.238.178.182.12.182.12l.043.108.073,0,.038.068.088-.112s.082.1.093.055-.033-.107.008-.128.1-.03.075-.088-.133-.032-.152-.065a2.253,2.253,0,0,1-.067-.23l-.055-.067s.113.06.117.033-.125-.162-.018-.16a2.25,2.25,0,0,0,.323.007c.028-.015.167.138.167.138l.005-.2.16.017s-.24-.1-.245-.138.007-.083-.017-.107a.161.161,0,0,0-.1-.033.77.77,0,0,1-.162-.115l-.117-.033.015-.07.215.067-.062-.073q.087.03.175.065c-.037.015-.077.038-.035.053a.45.45,0,0,1,.137.1l.013.055s.268.178.26.148-.072-.192-.038-.165.337.158.353.2a.164.164,0,0,1,0,.087s-.28.085-.23.11.22.127.193.142-.107.032-.127.043-.068-.042-.095-.01-.1.127-.107.1-.112-.09-.123-.11-.108-.02-.108-.02-.12.087-.1.11-.093.167-.093.167.078.045.048.072a.408.408,0,0,1-.085.055.289.289,0,0,1-.1.023l.04.12s-.038.073-.005.118.14.153.14.153l-.025.147.022.183a.882.882,0,0,0,.048.195c.027.048.037.193.057.182s.13.043.13.043a1.8,1.8,0,0,0,.1.158c.03.037.022.183.1.253a.388.388,0,0,0,.243.068c.035,0,.162.132.162.132s.077-.07.127-.043a.323.323,0,0,0,.218-.007,1.132,1.132,0,0,0,.1-.165l.143-.045.047-.187s.107-.112.118-.092a.58.58,0,0,0,.065.07s-.008-.112.057-.122a.132.132,0,0,1,.145.053c.038.05.047.338.157.358a.247.247,0,0,1,.182.12,2.631,2.631,0,0,1,.128.23c.012.02.033.471.033.471s.143.195.135.243a.317.317,0,0,0,.023.423c.018.023.033.043.047.063A4.032,4.032,0,0,1,508.969,112.106Z" transform="translate(-502.882 -104.466)" fill="#fef3b3"/>
        </g>
        <g id="Grupo_950380" data-name="Grupo 950380" transform="translate(4.91 6.048)">
          <path id="Trazado_699468" data-name="Trazado 699468" d="M498.459,102.11l-.325.182.277.495a.258.258,0,0,1,.04.188.19.19,0,0,1-.095.125.2.2,0,0,1-.16.018.264.264,0,0,1-.137-.132l-.753-1.348a.245.245,0,0,1-.038-.2.273.273,0,0,1,.142-.145l.455-.253a1.3,1.3,0,0,1,.327-.142.509.509,0,0,1,.24,0,.5.5,0,0,1,.213.1.671.671,0,0,1,.167.2.568.568,0,0,1,.062.5A.86.86,0,0,1,498.459,102.11Zm-.533-.753-.238.133.3.533.238-.132a.845.845,0,0,0,.195-.143.277.277,0,0,0,.08-.158.29.29,0,0,0-.043-.18.3.3,0,0,0-.173-.15A.515.515,0,0,0,497.926,101.357Z" transform="translate(-497.26 -94.261)" fill="#fef3b3"/>
          <path id="Trazado_699469" data-name="Trazado 699469" d="M499.841,101.838l-.2-.173-.711.4.042.27a.853.853,0,0,1,.015.225.147.147,0,0,1-.087.108.19.19,0,0,1-.145.017.168.168,0,0,1-.113-.082.285.285,0,0,1-.03-.08c-.007-.03-.013-.073-.02-.128l-.187-1.384-.02-.143a.728.728,0,0,1-.005-.145.254.254,0,0,1,.038-.118.29.29,0,0,1,.107-.1.294.294,0,0,1,.138-.04.264.264,0,0,1,.12.027.588.588,0,0,1,.1.067c.033.025.075.062.128.1l1.086.873a.683.683,0,0,1,.158.157.183.183,0,0,1,.012.14.191.191,0,0,1-.095.12.186.186,0,0,1-.078.025.18.18,0,0,1-.073-.013.5.5,0,0,1-.088-.055Zm-.971-.095.521-.292-.665-.573Z" transform="translate(-496.519 -94.542)" fill="#fef3b3"/>
          <path id="Trazado_699470" data-name="Trazado 699470" d="M501.063,100.83a.583.583,0,0,1,.078.33.629.629,0,0,1-.128.332,1.025,1.025,0,0,1-.333.28.953.953,0,0,1-.482.14.642.642,0,0,1-.3-.078.506.506,0,0,1-.2-.187.185.185,0,0,1-.017-.137.178.178,0,0,1,.088-.108.158.158,0,0,1,.115-.018.318.318,0,0,1,.125.07.83.83,0,0,0,.15.1.338.338,0,0,0,.162.03.452.452,0,0,0,.2-.067.477.477,0,0,0,.215-.215.251.251,0,0,0,0-.238.216.216,0,0,0-.132-.112.4.4,0,0,0-.183-.007,2.424,2.424,0,0,0-.258.065,1.972,1.972,0,0,1-.373.073.6.6,0,0,1-.292-.048.5.5,0,0,1-.215-.212.51.51,0,0,1-.065-.3.575.575,0,0,1,.132-.3,1.06,1.06,0,0,1,.316-.257.99.99,0,0,1,.3-.115.684.684,0,0,1,.253,0,.513.513,0,0,1,.192.077.378.378,0,0,1,.115.122.189.189,0,0,1,.018.138.166.166,0,0,1-.083.113.153.153,0,0,1-.11.022.555.555,0,0,1-.123-.062.5.5,0,0,0-.2-.09.375.375,0,0,0-.247.063.431.431,0,0,0-.187.183.2.2,0,0,0,0,.192.17.17,0,0,0,.078.075.281.281,0,0,0,.117.022.611.611,0,0,0,.125-.013c.04-.008.105-.025.193-.05a3.026,3.026,0,0,1,.312-.072.879.879,0,0,1,.26-.013.473.473,0,0,1,.215.078A.545.545,0,0,1,501.063,100.83Z" transform="translate(-495.959 -94.958)" fill="#fef3b3"/>
          <path id="Trazado_699471" data-name="Trazado 699471" d="M502.04,100.284a.593.593,0,0,1,.078.332.635.635,0,0,1-.128.332,1.041,1.041,0,0,1-.333.278.973.973,0,0,1-.481.142.67.67,0,0,1-.3-.08.48.48,0,0,1-.2-.187.175.175,0,0,1-.018-.135.185.185,0,0,1,.088-.11.157.157,0,0,1,.115-.017.328.328,0,0,1,.127.068.835.835,0,0,0,.15.1.332.332,0,0,0,.16.032.473.473,0,0,0,.2-.067.479.479,0,0,0,.215-.217.255.255,0,0,0,0-.238.223.223,0,0,0-.133-.112.374.374,0,0,0-.183,0c-.067.012-.152.033-.258.063a1.849,1.849,0,0,1-.373.073.574.574,0,0,1-.29-.048.473.473,0,0,1-.217-.212.508.508,0,0,1-.065-.3.58.58,0,0,1,.132-.3,1.082,1.082,0,0,1,.317-.255,1.043,1.043,0,0,1,.3-.117.682.682,0,0,1,.253,0,.512.512,0,0,1,.192.075.4.4,0,0,1,.115.122.188.188,0,0,1,.018.138.158.158,0,0,1-.083.113.142.142,0,0,1-.108.022.424.424,0,0,1-.125-.062.5.5,0,0,0-.2-.09.392.392,0,0,0-.247.065.421.421,0,0,0-.187.183.2.2,0,0,0,0,.192.178.178,0,0,0,.078.075.317.317,0,0,0,.117.022.613.613,0,0,0,.125-.015c.04-.008.1-.025.195-.048a3.021,3.021,0,0,1,.31-.073.939.939,0,0,1,.26-.013.492.492,0,0,1,.215.078A.545.545,0,0,1,502.04,100.284Z" transform="translate(-495.308 -95.321)" fill="#fef3b3"/>
          <path id="Trazado_699472" data-name="Trazado 699472" d="M502.315,99.957l-.323.18.276.495a.269.269,0,0,1,.038.19.2.2,0,0,1-.253.142.255.255,0,0,1-.138-.132l-.751-1.346a.248.248,0,0,1-.04-.2.28.28,0,0,1,.142-.145l.455-.253a1.375,1.375,0,0,1,.326-.143.516.516,0,0,1,.242,0,.5.5,0,0,1,.212.1.678.678,0,0,1,.167.2.569.569,0,0,1,.062.5A.852.852,0,0,1,502.315,99.957Zm-.533-.753-.238.133.3.533.238-.133a.8.8,0,0,0,.195-.143.269.269,0,0,0,.08-.157.285.285,0,0,0-.043-.182.3.3,0,0,0-.172-.15A.523.523,0,0,0,501.782,99.2Z" transform="translate(-494.692 -95.695)" fill="#fef3b3"/>
          <path id="Trazado_699473" data-name="Trazado 699473" d="M502.7,98.294a1.08,1.08,0,0,1,.528-.152.82.82,0,0,1,.47.15,1.207,1.207,0,0,1,.367.421,1.31,1.31,0,0,1,.152.4.938.938,0,0,1,0,.38.813.813,0,0,1-.167.335,1.08,1.08,0,0,1-.33.27,1.138,1.138,0,0,1-.4.138.826.826,0,0,1-.375-.035.93.93,0,0,1-.327-.2,1.385,1.385,0,0,1-.26-.335,1.325,1.325,0,0,1-.148-.4.908.908,0,0,1,.008-.38.837.837,0,0,1,.167-.33A1.084,1.084,0,0,1,502.7,98.294Zm1,.616a.923.923,0,0,0-.247-.3.524.524,0,0,0-.3-.115.558.558,0,0,0-.3.075.552.552,0,0,0-.175.15.5.5,0,0,0-.09.2.647.647,0,0,0,.007.252,1.059,1.059,0,0,0,.112.288,1.046,1.046,0,0,0,.188.248.638.638,0,0,0,.217.14.521.521,0,0,0,.223.03.549.549,0,0,0,.217-.068.557.557,0,0,0,.213-.208.536.536,0,0,0,.063-.31A.926.926,0,0,0,503.709,98.91Z" transform="translate(-493.976 -96.088)" fill="#fef3b3"/>
          <path id="Trazado_699474" data-name="Trazado 699474" d="M504.215,98.831l-.125.07.313.561a.263.263,0,0,1,.043.19.19.19,0,0,1-.1.123.183.183,0,0,1-.162.018.272.272,0,0,1-.137-.135l-.751-1.344a.215.215,0,0,1,.1-.338l.575-.322c.08-.043.15-.078.21-.1a.582.582,0,0,1,.177-.043.51.51,0,0,1,.2.017.5.5,0,0,1,.18.1.572.572,0,0,1,.133.162.5.5,0,0,1,.063.375.717.717,0,0,1-.241.352.742.742,0,0,1,.263.048,1.691,1.691,0,0,1,.268.122,1.751,1.751,0,0,1,.217.14.46.46,0,0,1,.1.1.144.144,0,0,1,.017.082.168.168,0,0,1-.03.087.2.2,0,0,1-.077.068.193.193,0,0,1-.117.028.289.289,0,0,1-.108-.032c-.037-.018-.087-.045-.15-.082l-.273-.157a1.379,1.379,0,0,0-.248-.122.374.374,0,0,0-.173-.025A.471.471,0,0,0,504.215,98.831Zm-.208-.846-.327.182.268.48.318-.177a1,1,0,0,0,.2-.142.29.29,0,0,0,.092-.15.251.251,0,0,0-.037-.172.257.257,0,0,0-.108-.107.263.263,0,0,0-.148-.027A.874.874,0,0,0,504.006,97.985Z" transform="translate(-493.27 -96.512)" fill="#fef3b3"/>
          <path id="Trazado_699475" data-name="Trazado 699475" d="M505.532,97.241l-.386.215.708,1.269a.271.271,0,0,1,.043.19.188.188,0,0,1-.1.123.192.192,0,0,1-.158.018.265.265,0,0,1-.14-.135l-.71-1.269-.386.217a.225.225,0,0,1-.157.035.156.156,0,0,1-.1-.082.149.149,0,0,1-.013-.132.228.228,0,0,1,.112-.113l1.124-.63a.23.23,0,0,1,.158-.035.168.168,0,0,1,.118.212A.235.235,0,0,1,505.532,97.241Z" transform="translate(-492.69 -96.909)" fill="#fef3b3"/>
        </g>
      </g>
      <path id="Trazado_699476" data-name="Trazado 699476" d="M496.8,109.742l-1.5-5.149a1.4,1.4,0,0,1,.965-1.8l6.514-2.451a1.575,1.575,0,0,1,.8.928,1.529,1.529,0,0,1-.163,1.053c-.685,1.446-4.688,3.024-4.923,3.115q.395.97.791,1.937l2-1.738a2.4,2.4,0,0,1,1.553-.586l5.294-.042a1.651,1.651,0,0,1,1.288,1.218c.155.935-.931,1.6-1.065,1.673-.546.323-.97.26-2.137.328-.548.033-1.341.1-2.312.25l-.217.1-2.824,2.62,2.441-1.779a2.425,2.425,0,0,1,1.488-.456c2.226.058,3.808.058,4.744-.025a2.1,2.1,0,0,1,1.283.237,1.32,1.32,0,0,1-.277,2.5l-5.371.2-2.527,2.154,2.5-1.314a2.4,2.4,0,0,1,1.366-.26l3.783.4a1.028,1.028,0,0,1,.43.671c.072.606-.6,1.353-1.753,1.634l-2.55.258q-.94.787-1.878,1.576.525,1.052,1.048,2.1c-.985-.275-2.209-.418-3.192-.693a2.57,2.57,0,0,1-1.456-.571c-.533-.475-.3-.936-.846-1.588-.693-.828-1.461-.558-1.858-1.326-.288-.558.072-.793-.227-1.349-.411-.77-1.259-.625-1.631-1.3a1.821,1.821,0,0,1,.09-1.619Z" transform="translate(-484.624 -69.454)" fill="#f8c2a8"/>
    </g>
  </g>
</svg>
