<svg xmlns="http://www.w3.org/2000/svg" width="165" height="165" viewBox="0 0 165 165">
  <g id="Grupo_953280" data-name="Grupo 953280" transform="translate(-714 -2288)">
    <circle id="Elipse_5412" data-name="Elipse 5412" cx="82.5" cy="82.5" r="82.5" transform="translate(714 2288)" fill="#ccd3ca"/>
    <g id="machu-picchu" transform="translate(722 2304)">
      <ellipse id="Elipse_5573" data-name="Elipse 5573" cx="63.22" cy="63.747" rx="63.22" ry="63.747" transform="translate(11 5.268)" fill="#2dadfc"/>
      <ellipse id="Elipse_5574" data-name="Elipse 5574" cx="63.22" cy="63.747" rx="63.22" ry="63.747" transform="translate(11 5.268)" fill="#2dadfc"/>
      <path id="Trazado_699793" data-name="Trazado 699793" d="M142.709,22a63.14,63.14,0,0,0-39.562,13.857l42.474,1.931,21.335-10.983A63.213,63.213,0,0,0,142.709,22Z" transform="translate(-68.297 -16.306)" fill="#2dadfc"/>
      <path id="Trazado_699794" data-name="Trazado 699794" d="M70.91,74.565c.2.4.41.832.617,1.3C74.241,82.017,78,87.759,82.354,82.854c4.7-5.293,5.306,2.644,8.584-1.152,2.093-2.424,6.377,2.953,13.624-12.047,1.043-2.16,1.986-3.946,2.845-5.438-.928-.053-1.853-.119-2.775-.211-3.36-.334-6.766-.918-10.111-.342A56.735,56.735,0,0,0,88.473,65.4a30.522,30.522,0,0,1-9.219,1.158A63.814,63.814,0,0,0,70.91,74.565Z" transform="translate(-44.404 -47.006)" fill="#4c2810"/>
      <path id="Trazado_699795" data-name="Trazado 699795" d="M131,72.094c-2.192,3.477-4.2,5.938-4.625,8.88,2.273-.124,3.231,3.557,5.673.729,2.093-2.424,6.377,2.953,13.624-12.047,1.043-2.16,1.986-3.946,2.845-5.438-.928-.053-1.853-.119-2.775-.211-3.36-.334-6.766-.918-10.112-.342a56.738,56.738,0,0,0-6.048,1.734s5.17.742,1.417,6.7Z" transform="translate(-85.512 -47.007)" fill="#3a1e0b"/>
      <path id="Trazado_699796" data-name="Trazado 699796" d="M352.84,64.538a63.637,63.637,0,0,0-28.875-23.972c-.572.052-1.143.123-1.712.223a39.029,39.029,0,0,0-7.268,2.289c3.015,4.234,3.927,2.435,7.8,8.1,5.047,7.377,14.192,1.984,25.408,10.094C349.938,62.53,351.479,63.611,352.84,64.538Z" transform="translate(-225.306 -30.066)" fill="#4c2810"/>
      <path id="Trazado_699797" data-name="Trazado 699797" d="M121.95,31.465c-9.468-12.168-11.6-21.072-12.086-24.584l-.14-.267C104.094-4.191,99.19.4,96.257,5.234s-5.349,1.9-12.6,16.9-11.53,9.623-13.624,12.047c-3.279,3.8-3.882-4.141-8.584,1.152-4.357,4.9-8.113-.837-10.827-6.989-.151-.342-.3-.662-.451-.968a63.6,63.6,0,0,0-7.465,10.52,5.356,5.356,0,0,1,4.222,4.2.889.889,0,0,0,.917.709,5.334,5.334,0,0,1,4.228,1.819.875.875,0,0,0,1.3.046,5.37,5.37,0,0,1,8.6,1.6.881.881,0,0,0,1.155.443,5.322,5.322,0,0,1,4.637.124.885.885,0,0,0,1.225-.437,5.346,5.346,0,0,1,9.534-.585,4.213,4.213,0,0,0,4.093,2.027A8.825,8.825,0,0,1,89.1,49.658c4.918,3.718,10.267,4.753,16.737,4.063s6.9,5.09,11.561,6.3c2.538.658,4.884,3.491,8.232,6.131-1.677-10.721,5.737-22.576-3.684-34.685Z" transform="translate(-23.503 0)" fill="#7c4e2e"/>
      <path id="Trazado_699798" data-name="Trazado 699798" d="M341.978,52.5A40.169,40.169,0,0,1,338.3,50.15c-11.216-8.11-20.361-2.718-25.408-10.094-5.018-7.334-5.066-2.152-11.152-13.774l-.1-.02c.049,1.419.794,11,11.8,25.149,9.189,11.81,1.792,23.37,3.608,33.8a21.716,21.716,0,0,0,11.694,5.224c10.482,1.176,10.979,12.653,22.674,13.26a63.514,63.514,0,0,0-9.439-51.2Z" transform="translate(-215.414 -19.465)" fill="#966240"/>
      <path id="Trazado_699799" data-name="Trazado 699799" d="M103.614,17.8C99.114,5.2,105.122.785,105.122.785c-3.66-2.338-6.766,1-8.865,4.452-2.933,4.831-5.349,1.9-12.6,16.9s-11.53,9.623-13.624,12.047c-3.279,3.8-3.882-4.141-8.584,1.152-4.357,4.9-8.113-.837-10.827-6.989-.151-.342-.3-.662-.451-.968A63.6,63.6,0,0,0,42.71,37.9a5.356,5.356,0,0,1,4.222,4.2.889.889,0,0,0,.917.709,5.334,5.334,0,0,1,4.228,1.819.875.875,0,0,0,1.3.046,5.37,5.37,0,0,1,8.6,1.6.881.881,0,0,0,1.155.443,5.322,5.322,0,0,1,4.637.124.885.885,0,0,0,1.225-.437,5.346,5.346,0,0,1,9.534-.585,4.213,4.213,0,0,0,4.093,2.027A8.825,8.825,0,0,1,89.1,49.662a21.027,21.027,0,0,0,4.4,2.578c-2.941-14.413,13.83-24.023,10.109-34.439Z" transform="translate(-23.503 -0.003)" fill="#643b1f"/>
      <path id="Trazado_699800" data-name="Trazado 699800" d="M136.772,190.021c-11.877-.493-12.324-12.086-22.861-13.268C103.145,175.545,99.14,167,94.482,165.8s-5.09-6.988-11.561-6.3-11.82-.345-16.737-4.062a8.825,8.825,0,0,0-6.484-1.823,4.213,4.213,0,0,1-4.093-2.027,5.346,5.346,0,0,0-9.534.585.885.885,0,0,1-1.225.437,5.324,5.324,0,0,0-4.637-.124.881.881,0,0,1-1.155-.443,5.37,5.37,0,0,0-8.6-1.6.875.875,0,0,1-1.3-.046,5.333,5.333,0,0,0-4.228-1.819.889.889,0,0,1-.917-.709,5.359,5.359,0,0,0-3.831-4.1,63.018,63.018,0,0,0-8.4,26.812H37.611a2.915,2.915,0,0,1,2.915,2.915v6.4H70.741a2.915,2.915,0,0,1,2.915,2.915v6.4H103.87a2.915,2.915,0,0,1,2.915,2.915v3.535c9.4-.249,18.009,2.1,26.491,5.029a62.921,62.921,0,0,0,3.5-10.658Z" transform="translate(-0.582 -106.553)" fill="#87c121"/>
      <path id="Trazado_699801" data-name="Trazado 699801" d="M64.237,179a5.34,5.34,0,0,1-4.611-3.808.88.88,0,0,0-.891-.63,5.357,5.357,0,0,1-3.33-9.743.889.889,0,0,0,.284-1.123,5.334,5.334,0,0,1-.019-4.6.875.875,0,0,0-.476-1.21,5.37,5.37,0,0,1-2-8.479,5.268,5.268,0,0,0-1.446-.424,5.357,5.357,0,0,0-5.674,3.187.885.885,0,0,1-1.225.437,5.324,5.324,0,0,0-4.637-.124.881.881,0,0,1-1.155-.443,5.37,5.37,0,0,0-8.6-1.6.875.875,0,0,1-1.3-.046,5.333,5.333,0,0,0-4.228-1.819.889.889,0,0,1-.917-.709,5.359,5.359,0,0,0-3.831-4.1,63.018,63.018,0,0,0-8.4,26.812H37.611a2.915,2.915,0,0,1,2.915,2.915v6.4H65.053c0-.033-.011-.064-.014-.1a.886.886,0,0,0-.8-.787Z" transform="translate(-0.582 -106.552)" fill="#7daa1a"/>
      <path id="Trazado_699802" data-name="Trazado 699802" d="M63.092,202.642a2.915,2.915,0,0,1,2.915,2.915v6.4H80.159c-.468-.844-.948-1.77-1.443-2.795-7.247-15-9.663-12.067-12.6-16.9s-7.837-9.426-13.466,1.38c-3.414,6.552-4.951,7.887-6.489,9H63.092Z" transform="translate(-26.063 -138.62)" fill="#cce541"/>
      <path id="Trazado_699803" data-name="Trazado 699803" d="M60.882,194.3c.313-2.262.921-4.585,2.124-5.891-2.806-2.348-6.4-2.353-10.354,5.234-3.414,6.552-4.951,7.887-6.489,9H57.776C58.939,198.176,60.388,197.864,60.882,194.3Z" transform="translate(-26.063 -138.621)" fill="#aad331"/>
      <path id="Trazado_699804" data-name="Trazado 699804" d="M280.561,317.314H249.828v5.615l8.317,1.767a15.614,15.614,0,0,1,4.834,1.931,26.92,26.92,0,0,0,12.247,3.646,2.148,2.148,0,0,1,2.005,2.147V334.5a2.153,2.153,0,0,0,2.153,2.153h4.091V320.229A2.915,2.915,0,0,0,280.561,317.314Z" transform="translate(-177.013 -235.185)" fill="#fc8b33"/>
      <path id="Trazado_699805" data-name="Trazado 699805" d="M376.828,344.186V357.06h.745a15.146,15.146,0,0,1,3.147.33l12.907,2.743a15.131,15.131,0,0,1,3.357,1.146,63.31,63.31,0,0,0,6.852-12.078C395.2,346.213,386.428,343.836,376.828,344.186Z" transform="translate(-271.143 -255.077)" fill="#cce541"/>
      <path id="Trazado_699806" data-name="Trazado 699806" d="M279.561,319.314H248.828v5.615l8.317,1.768a15.613,15.613,0,0,1,4.834,1.931,26.92,26.92,0,0,0,12.247,3.646,2.148,2.148,0,0,1,2.005,2.147V336.5a2.153,2.153,0,0,0,2.153,2.153h4.091V322.229a2.915,2.915,0,0,0-2.915-2.915Z" transform="translate(-176.272 -236.667)" fill="#fc8b33"/>
      <path id="Trazado_699807" data-name="Trazado 699807" d="M261.831,320.228a2.915,2.915,0,0,1,2.915-2.915H249.827v5.615l8.317,1.768a15.39,15.39,0,0,1,3.686,1.3Z" transform="translate(-177.013 -235.184)" fill="#f96b2d"/>
      <path id="Trazado_699808" data-name="Trazado 699808" d="M339.513,337.817h-2.329a1.941,1.941,0,1,1,0-3.882h2.329a1.941,1.941,0,0,1,0,3.882Z" transform="translate(-240.32 -247.504)" fill="#ffaa39"/>
      <path id="Trazado_699809" data-name="Trazado 699809" d="M152.561,281.334H121.828v8.405h10.829a1.653,1.653,0,0,1,1.653,1.653v1.918a1.653,1.653,0,0,0,1.653,1.653h11.29a15.142,15.142,0,0,1,3.146.331l5.076,1.079V284.249a2.915,2.915,0,0,0-2.915-2.915Z" transform="translate(-82.143 -208.518)" fill="#fc8b33"/>
      <path id="Trazado_699810" data-name="Trazado 699810" d="M133.832,284.249a2.915,2.915,0,0,1,2.915-2.915H121.828v8.405h10.829a1.647,1.647,0,0,1,1.174.49v-5.981Z" transform="translate(-82.143 -208.518)" fill="#f96b2d"/>
      <path id="Trazado_699811" data-name="Trazado 699811" d="M204.193,301.144h-2.329a1.941,1.941,0,1,1,0-3.882h2.329a1.941,1.941,0,1,1,0,3.882Z" transform="translate(-140.024 -220.323)" fill="#ffaa39"/>
      <path id="Trazado_699812" data-name="Trazado 699812" d="M37.288,245.355H11.249c-.162,1.846-.249,3.714-.249,5.6,0,1.464.054,2.916.152,4.355a8.449,8.449,0,0,1,4.066,1.667l5.678,4.349a8.455,8.455,0,0,0,5.142,1.743H40.2v-14.8a2.915,2.915,0,0,0-2.915-2.915Z" transform="translate(0 -181.851)" fill="#fc8b33"/>
      <path id="Trazado_699813" data-name="Trazado 699813" d="M21.8,248.27a2.915,2.915,0,0,1,2.915-2.915H11.249c-.162,1.846-.249,3.714-.249,5.6,0,1.464.054,2.916.152,4.355a8.449,8.449,0,0,1,4.066,1.667l5.678,4.349a8.479,8.479,0,0,0,.908.6V248.27Z" transform="translate(0 -181.851)" fill="#f96b2d"/>
      <path id="Trazado_699814" data-name="Trazado 699814" d="M77.013,264.79H74.683a1.941,1.941,0,1,1,0-3.882h2.329a1.941,1.941,0,1,1,0,3.882Z" transform="translate(-45.762 -193.378)" fill="#ffaa39"/>
      <path id="Trazado_699815" data-name="Trazado 699815" d="M45.013,269.311H42.683a1.941,1.941,0,0,1,0-3.882h2.329a1.941,1.941,0,0,1,0,3.882Z" transform="translate(-22.044 -196.729)" fill="#ffaa39"/>
      <path id="Trazado_699816" data-name="Trazado 699816" d="M82.013,286.333H79.683a1.941,1.941,0,1,1,0-3.882h2.329a1.941,1.941,0,1,1,0,3.882Z" transform="translate(-49.468 -209.346)" fill="#ffaa39"/>
      <path id="Trazado_699817" data-name="Trazado 699817" d="M110.176,310.151a15.128,15.128,0,0,0-3.147-.331h-4.319a2.153,2.153,0,0,1-2.153-2.153V305.59a2.148,2.148,0,0,0-2.005-2.147A26.915,26.915,0,0,1,86.306,299.8a15.6,15.6,0,0,0-4.834-1.931L68.6,295.131a15.125,15.125,0,0,0-3.147-.331H54.159a1.653,1.653,0,0,1-1.653-1.653v-1.918a1.653,1.653,0,0,0-1.653-1.653H26.378a8.458,8.458,0,0,1-5.142-1.743l-5.678-4.349a8.454,8.454,0,0,0-4.1-1.671,63.127,63.127,0,0,0,3.754,18.035c2.642,1.591,5.246,3.244,8.731,3.177,8.136-.156,18.548,11.927,36.629,8.988,11.6-1.885,18.175,5.486,26.838,9.494l19.207,11.3a63.732,63.732,0,0,0,20.177-18.6,15.175,15.175,0,0,0-3.711-1.317Z" transform="translate(-0.34 -208.873)" fill="#ffbb38"/>
      <g id="Grupo_950484" data-name="Grupo 950484" transform="translate(46.202 90.81)">
        <path id="Trazado_699818" data-name="Trazado 699818" d="M285.513,379.572h-2.329a1.941,1.941,0,0,1,0-3.882h2.329a1.941,1.941,0,1,1,0,3.882Z" transform="translate(-246.499 -369.262)" fill="#fed772"/>
        <path id="Trazado_699819" data-name="Trazado 699819" d="M183.279,354.736h-2.329a1.941,1.941,0,0,1,0-3.882h2.329a1.941,1.941,0,0,1,0,3.882Z" transform="translate(-170.726 -350.854)" fill="#fed772"/>
        <path id="Trazado_699820" data-name="Trazado 699820" d="M151.279,359.258h-2.329a1.941,1.941,0,1,1,0-3.882h2.329a1.941,1.941,0,1,1,0,3.882Z" transform="translate(-147.008 -354.206)" fill="#fed772"/>
        <path id="Trazado_699821" data-name="Trazado 699821" d="M213.193,372.594h-2.329a1.941,1.941,0,0,1,0-3.882h2.329a1.941,1.941,0,0,1,0,3.882Z" transform="translate(-192.897 -364.09)" fill="#fed772"/>
      </g>
      <path id="Trazado_699822" data-name="Trazado 699822" d="M21.236,287.834l-5.678-4.349a8.454,8.454,0,0,0-4.1-1.671,63.126,63.126,0,0,0,3.754,18.035c2.642,1.591,5.246,3.244,8.731,3.177,5.042-.1,10.96,4.507,19.035,7.323V292.682a3.115,3.115,0,0,1,3.106-3.106H26.378a8.458,8.458,0,0,1-5.142-1.743Z" transform="translate(-0.34 -208.873)" fill="#ffaa39"/>
      <path id="Trazado_699823" data-name="Trazado 699823" d="M39,369.168a.875.875,0,0,0,1.3.046,5.37,5.37,0,0,1,8.6,1.6.881.881,0,0,0,1.155.443,5.322,5.322,0,0,1,4.637.124.885.885,0,0,0,1.225-.437,5.346,5.346,0,0,1,9.534-.585,4.213,4.213,0,0,0,4.093,2.027,8.825,8.825,0,0,1,6.484,1.823c4.918,3.718,10.267,4.753,16.737,4.063s6.9,5.09,11.561,6.3a10,10,0,0,1,3.68,2.215,63.231,63.231,0,0,0,12.251-6.44,64.92,64.92,0,0,1-19.858-7.924,42.512,42.512,0,0,0-3.743-2.074c-8.256-4.077-14.778-10.916-26-9.092-18.081,2.939-28.493-9.144-36.629-8.988-3.588.069-6.242-1.684-8.965-3.317a63.314,63.314,0,0,0,10.268,18.41A5.331,5.331,0,0,1,39,369.168Z" transform="translate(-10.422 -258.633)" fill="#aad331"/>
      <path id="Trazado_699824" data-name="Trazado 699824" d="M38.995,369.169a.875.875,0,0,0,1.3.046,5.37,5.37,0,0,1,8.6,1.6.88.88,0,0,0,.473.451h.023c.787-2.483.9-4.994-.774-6.663-3.735-3.735,1.949-4.935,3.856-5.223-7.776-2.828-13.528-7.208-18.447-7.114-3.588.069-6.242-1.684-8.965-3.317a63.3,63.3,0,0,0,10.267,18.41A5.33,5.33,0,0,1,38.995,369.169Z" transform="translate(-10.421 -258.634)" fill="#87c121"/>
      <path id="Trazado_699825" data-name="Trazado 699825" d="M132.5,435.251c-4.659-1.208-5.09-6.988-11.561-6.3s-11.82-.345-16.737-4.063a8.825,8.825,0,0,0-6.484-1.823,4.213,4.213,0,0,1-4.093-2.027,5.346,5.346,0,0,0-9.534.585.885.885,0,0,1-1.225.437,5.324,5.324,0,0,0-4.637-.124.881.881,0,0,1-1.155-.443,5.37,5.37,0,0,0-8.6-1.6.875.875,0,0,1-1.3-.046,5.331,5.331,0,0,0-4.095-1.821,63.469,63.469,0,0,0,73.514,19.789,11.018,11.018,0,0,0-4.094-2.566Z" transform="translate(-38.6 -309.832)" fill="#cce541"/>
    </g>
  </g>
</svg>
