<svg xmlns="http://www.w3.org/2000/svg" width="165" height="165" viewBox="0 0 165 165">
  <g id="Grupo_953279" data-name="Grupo 953279" transform="translate(-1069 -2288)">
    <circle id="Elipse_5413" data-name="Elipse 5413" cx="82.5" cy="82.5" r="82.5" transform="translate(1069 2288)" fill="#ccd3ca"/>
    <g id="investigacion-de-mercado" transform="translate(1087 2305)">
      <g id="Grupo_950486" data-name="Grupo 950486" transform="translate(1 1)">
        <g id="Grupo_950485" data-name="Grupo 950485">
          <path id="Trazado_699826" data-name="Trazado 699826" d="M129,65A64,64,0,1,1,65,1,64,64,0,0,1,129,65Z" transform="translate(-1 -1)" fill="#f6bb53"/>
        </g>
      </g>
      <g id="Grupo_950488" data-name="Grupo 950488" transform="translate(92.7 4.3)">
        <g id="Grupo_950487" data-name="Grupo 950487">
          <circle id="Elipse_5575" data-name="Elipse 5575" cx="4.6" cy="4.6" r="4.6" fill="#f37c5a"/>
        </g>
      </g>
      <g id="Grupo_950490" data-name="Grupo 950490" transform="translate(4.7 47.4)">
        <g id="Grupo_950489" data-name="Grupo 950489">
          <circle id="Elipse_5576" data-name="Elipse 5576" cx="3.5" cy="3.5" r="3.5" fill="#fff"/>
        </g>
      </g>
      <g id="Grupo_950492" data-name="Grupo 950492" transform="translate(109.8 90.4)">
        <g id="Grupo_950491" data-name="Grupo 950491">
          <circle id="Elipse_5577" data-name="Elipse 5577" cx="3.7" cy="3.7" r="3.7" fill="#f3f3f3"/>
        </g>
      </g>
      <g id="Grupo_950494" data-name="Grupo 950494" transform="translate(8.3 97.2)">
        <g id="Grupo_950493" data-name="Grupo 950493">
          <circle id="Elipse_5578" data-name="Elipse 5578" cx="4.7" cy="4.7" r="4.7" fill="#7dcedc"/>
        </g>
      </g>
      <g id="Grupo_950496" data-name="Grupo 950496" transform="translate(102.8 12.6)">
        <g id="Grupo_950495" data-name="Grupo 950495">
          <circle id="Elipse_5579" data-name="Elipse 5579" cx="10.7" cy="10.7" r="10.7" fill="#474f59"/>
        </g>
      </g>
      <g id="Grupo_950498" data-name="Grupo 950498" transform="translate(65 13.5)">
        <g id="Grupo_950497" data-name="Grupo 950497">
          <path id="Trazado_699827" data-name="Trazado 699827" d="M104.6,63.9V65h10.8V63.9A50.445,50.445,0,0,0,65,13.5V24.3a39.562,39.562,0,0,1,39.6,39.6Z" transform="translate(-65 -13.5)" fill="#fff"/>
        </g>
      </g>
      <g id="Grupo_950500" data-name="Grupo 950500" transform="translate(29.9 65)">
        <g id="Grupo_950499" data-name="Grupo 950499">
          <path id="Trazado_699828" data-name="Trazado 699828" d="M104.6,65A39.614,39.614,0,0,1,37.5,92.5l-7.6,7.6A50.432,50.432,0,0,0,115.4,65Z" transform="translate(-29.9 -65)" fill="#7dcedc"/>
        </g>
      </g>
      <g id="Grupo_950502" data-name="Grupo 950502" transform="translate(14.6 28.8)">
        <g id="Grupo_950501" data-name="Grupo 950501">
          <path id="Trazado_699829" data-name="Trazado 699829" d="M25.4,63.9A39.286,39.286,0,0,1,36.5,36.4l-7.6-7.6a50.353,50.353,0,0,0,1,71.3l7.6-7.6A39.547,39.547,0,0,1,25.4,63.9Z" transform="translate(-14.6 -28.8)" fill="#dad9d8"/>
        </g>
      </g>
      <g id="Grupo_950504" data-name="Grupo 950504" transform="translate(28.8 13.5)">
        <g id="Grupo_950503" data-name="Grupo 950503">
          <path id="Trazado_699830" data-name="Trazado 699830" d="M65,24.3V13.5A50.521,50.521,0,0,0,28.8,28.8l7.6,7.6A39.718,39.718,0,0,1,65,24.3Z" transform="translate(-28.8 -13.5)" fill="#f3f3f3"/>
        </g>
      </g>
      <g id="Grupo_950506" data-name="Grupo 950506" transform="translate(41.7 79)">
        <g id="Grupo_950505" data-name="Grupo 950505">
          <path id="Trazado_699831" data-name="Trazado 699831" d="M42.3,79l-.6,35.4L66.1,92.7Z" transform="translate(-41.7 -79)" fill="#fff"/>
        </g>
      </g>
      <g id="Grupo_950508" data-name="Grupo 950508" transform="translate(33.9 32.8)">
        <g id="Grupo_950507" data-name="Grupo 950507">
          <circle id="Elipse_5580" data-name="Elipse 5580" cx="31.1" cy="31.1" r="31.1" fill="#fff"/>
        </g>
      </g>
      <g id="Grupo_950510" data-name="Grupo 950510" transform="translate(42.1 41)">
        <g id="Grupo_950509" data-name="Grupo 950509">
          <circle id="Elipse_5581" data-name="Elipse 5581" cx="22.9" cy="22.9" r="22.9" fill="#55c5ca"/>
        </g>
      </g>
      <g id="Grupo_950512" data-name="Grupo 950512" transform="translate(48.5 47.4)">
        <g id="Grupo_950511" data-name="Grupo 950511">
          <circle id="Elipse_5582" data-name="Elipse 5582" cx="16.5" cy="16.5" r="16.5" fill="#7dcedc"/>
        </g>
      </g>
      <g id="Grupo_950514" data-name="Grupo 950514" transform="translate(53.9 52.8)">
        <g id="Grupo_950513" data-name="Grupo 950513">
          <circle id="Elipse_5583" data-name="Elipse 5583" cx="11.1" cy="11.1" r="11.1" fill="#25313b"/>
        </g>
      </g>
      <g id="Grupo_950516" data-name="Grupo 950516" transform="translate(52.1 54.5)">
        <g id="Grupo_950515" data-name="Grupo 950515">
          <circle id="Elipse_5584" data-name="Elipse 5584" cx="3.5" cy="3.5" r="3.5" fill="#fff"/>
        </g>
      </g>
      <g id="Grupo_950518" data-name="Grupo 950518" transform="translate(84.2 94)">
        <g id="Grupo_950517" data-name="Grupo 950517">
          <path id="Trazado_699832" data-name="Trazado 699832" d="M109.4,109,95.5,94l-11.3,8.2,10,17.8a9.443,9.443,0,1,0,15.2-11Z" transform="translate(-84.2 -94)" fill="#f37c5a"/>
        </g>
      </g>
      <g id="Grupo_950520" data-name="Grupo 950520" transform="translate(77.6 85)">
        <g id="Grupo_950519" data-name="Grupo 950519">
          <path id="Trazado_699833" data-name="Trazado 699833" d="M98.5,91.1A2.009,2.009,0,0,1,98,94L83.3,104.7a2.081,2.081,0,1,1-2.4-3.4l1.7-1.2-5-6.9L88.9,85l5,6.9,1.7-1.2a2.074,2.074,0,0,1,2.9.4Z" transform="translate(-77.6 -85)" fill="#25313b"/>
        </g>
      </g>
      <g id="Grupo_950522" data-name="Grupo 950522" transform="translate(28.581 27.559)">
        <g id="Grupo_950521" data-name="Grupo 950521">
          <path id="Trazado_699834" data-name="Trazado 699834" d="M43.6,34.5a36.4,36.4,0,1,0,50.9,8.1,36.238,36.238,0,0,0-50.9-8.1ZM81.3,86.4a27.773,27.773,0,1,1,6.1-38.8A27.794,27.794,0,0,1,81.3,86.4Z" transform="translate(-28.581 -27.559)" fill="#474f59"/>
        </g>
      </g>
    </g>
  </g>
</svg>
