<svg xmlns="http://www.w3.org/2000/svg" width="165" height="165" viewBox="0 0 165 165">
  <g id="Grupo_953287" data-name="Grupo 953287" transform="translate(-367 -2690)">
    <circle id="Elipse_5407" data-name="Elipse 5407" cx="82.5" cy="82.5" r="82.5" transform="translate(367 2690)" fill="#ccd3ca"/>
    <g id="guia-turistico" transform="translate(386 2706)">
      <path id="Trazado_699835" data-name="Trazado 699835" d="M120.061,114.538A63.532,63.532,0,1,0,8.206,116.775Zm0,0" transform="translate(0 -16.296)" fill="#3c2b8e"/>
      <path id="Trazado_699836" data-name="Trazado 699836" d="M425.385,270.16a93.662,93.662,0,0,1-13.354,5.116v40.535a63.734,63.734,0,0,0,13.354-17.724Zm0,0" transform="translate(-305.191 -200.108)" fill="#f9b50b"/>
      <path id="Trazado_699837" data-name="Trazado 699837" d="M439.935,388.083c-2.625.758-4.436-1.575-4.436-1.575l-.975,9.265A63.684,63.684,0,0,0,439.935,388.083Zm0,0" transform="translate(-321.851 -286.286)" fill="#f79d0d"/>
      <path id="Trazado_699838" data-name="Trazado 699838" d="M410.189,86.872V27.32A5.335,5.335,0,0,0,404.87,22H391.516a5.335,5.335,0,0,1,5.32,5.32V91.988A93.659,93.659,0,0,0,410.189,86.872Zm0,0" transform="translate(-289.995 -16.296)" fill="#2299f2"/>
      <path id="Trazado_699839" data-name="Trazado 699839" d="M417.064,47.645h-5.033v103.35a63.858,63.858,0,0,0,6.808-7.432V49.42A1.775,1.775,0,0,0,417.064,47.645Zm0,0" transform="translate(-305.191 -35.291)" fill="#abe4fe"/>
      <path id="Trazado_699840" data-name="Trazado 699840" d="M412.031,386.586v15.4a63.855,63.855,0,0,0,6.808-7.432v-8.05a3.4,3.4,0,0,1-6.808.078Zm0,0" transform="translate(-305.191 -286.286)" fill="#82c6f9"/>
      <path id="Trazado_699841" data-name="Trazado 699841" d="M129.874,178.892c-24.5,7.138-43.139-.889-63.807-21.691C54.71,145.77,42.348,141.184,31.1,140.039V203.95a63.531,63.531,0,0,0,99.038,15.237v-40.37c-.087.025-.175.055-.261.079Zm0,0" transform="translate(-23.034 -103.727)" fill="#fbc840"/>
      <path id="Trazado_699842" data-name="Trazado 699842" d="M134.367,397.859H53.134a9.077,9.077,0,0,1-4.3-1.081,63.521,63.521,0,0,0,94.439,8.17V390.832A9.193,9.193,0,0,1,134.367,397.859Zm0,0" transform="translate(-36.17 -289.489)" fill="#f9b50b"/>
      <path id="Trazado_699843" data-name="Trazado 699843" d="M130.135,27.32a5.335,5.335,0,0,0-5.32-5.32H34.24A3.151,3.151,0,0,0,31.1,25.142V53.131c11.25,1.145,23.613,5.731,34.969,17.161,20.742,20.876,39.443,28.888,64.069,21.616Zm0,0" transform="translate(-23.034 -16.296)" fill="#52b0f5"/>
      <path id="Trazado_699844" data-name="Trazado 699844" d="M31.1,203.947a63.807,63.807,0,0,0,13.416,16.627V143.1A55.264,55.264,0,0,0,31.1,140.035Zm0,0" transform="translate(-23.034 -103.724)" fill="#f9b50b"/>
      <path id="Trazado_699845" data-name="Trazado 699845" d="M53.145,414.852a9.074,9.074,0,0,1-4.3-1.079,63.93,63.93,0,0,0,8.813,9.558v-8.479Zm0,0" transform="translate(-36.181 -306.482)" fill="#f79d0d"/>
      <path id="Trazado_699846" data-name="Trazado 699846" d="M41.371,22H34.24A3.151,3.151,0,0,0,31.1,25.142V53.131A55.211,55.211,0,0,1,44.513,56.2V25.142A3.151,3.151,0,0,0,41.371,22Zm0,0" transform="translate(-23.034 -16.296)" fill="#2299f2"/>
      <g id="Grupo_950523" data-name="Grupo 950523" transform="translate(29.107 88.047)">
        <path id="Trazado_699847" data-name="Trazado 699847" d="M183.963,339.555A1.964,1.964,0,0,0,182,341.519v11.554a2.909,2.909,0,1,1-5.817,0V341.519a1.964,1.964,0,1,0-3.928,0v11.554a6.837,6.837,0,1,0,13.673,0V341.519A1.964,1.964,0,0,0,183.963,339.555Zm0,0" transform="translate(-156.695 -339.555)" fill="#554cbf"/>
        <path id="Trazado_699848" data-name="Trazado 699848" d="M268.85,339.555h-3.609a1.964,1.964,0,0,0-1.964,1.964v16.427a1.964,1.964,0,0,0,1.964,1.964h3.609a8.109,8.109,0,0,0,8.1-8.1v-4.155A8.109,8.109,0,0,0,268.85,339.555Zm4.172,12.255a4.177,4.177,0,0,1-4.172,4.172h-1.645v-12.5h1.645a4.177,4.177,0,0,1,4.172,4.172Zm0,0" transform="translate(-224.116 -339.555)" fill="#554cbf"/>
        <path id="Trazado_699849" data-name="Trazado 699849" d="M237.984,339.555a1.964,1.964,0,0,0-1.964,1.964v16.427a1.964,1.964,0,0,0,3.928,0V341.519A1.964,1.964,0,0,0,237.984,339.555Zm0,0" transform="translate(-203.926 -339.555)" fill="#554cbf"/>
        <path id="Trazado_699850" data-name="Trazado 699850" d="M336.067,351.941a1.964,1.964,0,0,0,0-3.928h-7.78v-4.531h7.78a1.964,1.964,0,0,0,0-3.928h-9.744a1.964,1.964,0,0,0-1.964,1.964v16.427a1.964,1.964,0,0,0,1.964,1.964h9.744a1.964,1.964,0,0,0,0-3.928h-7.78v-4.04Zm0,0" transform="translate(-269.359 -339.555)" fill="#554cbf"/>
        <path id="Trazado_699851" data-name="Trazado 699851" d="M123.958,348.292h-3.3a1.964,1.964,0,1,0,0,3.928H122v.853a2.909,2.909,0,1,1-5.817,0v-6.682a2.909,2.909,0,0,1,5.635-1.016,1.964,1.964,0,0,0,3.68-1.373,6.837,6.837,0,0,0-13.243,2.389v6.682a6.837,6.837,0,1,0,13.673,0v-2.817A1.965,1.965,0,0,0,123.958,348.292Zm0,0" transform="translate(-112.25 -339.555)" fill="#554cbf"/>
      </g>
      <path id="Trazado_699852" data-name="Trazado 699852" d="M260.8,228.287h-.065a1.963,1.963,0,0,1-1.9-2.026l.29-8.968a1.964,1.964,0,1,1,3.926.127l-.29,8.968A1.964,1.964,0,0,1,260.8,228.287Zm0,0" transform="translate(-191.716 -159.54)" fill="#d9f5ff"/>
      <path id="Trazado_699853" data-name="Trazado 699853" d="M223.173,228.29a1.964,1.964,0,0,1-1.962-1.9l-.289-8.968a1.964,1.964,0,0,1,3.925-.127l.29,8.968a1.965,1.965,0,0,1-1.9,2.027Zm0,0" transform="translate(-163.636 -159.543)" fill="#d9f5ff"/>
      <path id="Trazado_699854" data-name="Trazado 699854" d="M233.061,253.484H222.442a1.787,1.787,0,0,0-1.782,1.782v7.352a1.787,1.787,0,0,0,1.782,1.782h10.619a1.788,1.788,0,0,0,1.783-1.782v-7.352A1.788,1.788,0,0,0,233.061,253.484Zm0,0" transform="translate(-163.443 -187.756)" fill="#f7577a"/>
      <path id="Trazado_699855" data-name="Trazado 699855" d="M227.684,262.618v-7.352a1.787,1.787,0,0,1,1.782-1.782h-7.023a1.787,1.787,0,0,0-1.782,1.782v7.352a1.788,1.788,0,0,0,1.782,1.782h7.024A1.788,1.788,0,0,1,227.684,262.618Zm0,0" transform="translate(-163.443 -187.756)" fill="#d93a59"/>
      <path id="Trazado_699856" data-name="Trazado 699856" d="M152.638,230.289a5.143,5.143,0,0,0-1.3.072,1.7,1.7,0,0,1-1.746-.675,6.966,6.966,0,0,0-12.273,1.345,1.732,1.732,0,0,1-2,1.075,4.269,4.269,0,1,0-.927,8.436h17.874a5.134,5.134,0,0,0,.374-10.254Zm0,0" transform="translate(-96.381 -167.844)" fill="#abe4fe"/>
      <path id="Trazado_699857" data-name="Trazado 699857" d="M141.037,239.276a4.3,4.3,0,0,1,.89-.529,1.731,1.731,0,0,0,.974-2.048,6.962,6.962,0,0,1,5.221-8.6,6.963,6.963,0,0,0-10.8,2.929,1.733,1.733,0,0,1-2,1.075,4.269,4.269,0,1,0-.926,8.437h5.554A4.177,4.177,0,0,1,141.037,239.276Zm0,0" transform="translate(-96.384 -167.844)" fill="#82c6f9"/>
      <path id="Trazado_699858" data-name="Trazado 699858" d="M196.5,70.376a17.9,17.9,0,0,0-9.394,32.943,5.855,5.855,0,0,1,2.658,4.93v.814a1.73,1.73,0,0,0,1.73,1.73H202.08a1.73,1.73,0,0,0,1.73-1.73v-.814a5.863,5.863,0,0,1,2.664-4.934A17.9,17.9,0,0,0,196.5,70.376Zm0,0" transform="translate(-132.505 -52.126)" fill="#fbc840"/>
      <path id="Trazado_699859" data-name="Trazado 699859" d="M211.3,157.473a5.6,5.6,0,0,1-3.155-.969,1.432,1.432,0,0,0-1.842.152,11.28,11.28,0,0,1-16.238.008,1.433,1.433,0,0,0-1.838-.152,5.633,5.633,0,0,1-7.453-1.039,17.923,17.923,0,0,0,7.725,10.879,5.854,5.854,0,0,1,2.657,4.93v.814a1.73,1.73,0,0,0,1.73,1.73h10.587a1.73,1.73,0,0,0,1.73-1.73v-.814a5.864,5.864,0,0,1,2.664-4.933,17.916,17.916,0,0,0,7.707-10.836A5.63,5.63,0,0,1,211.3,157.473Zm0,0" transform="translate(-133.902 -115.159)" fill="#f9b50b"/>
      <path id="Trazado_699860" data-name="Trazado 699860" d="M221.315,70.376c-4.9.149-8.934,7.8-9.1,17.265-.117,6.575,1.6,12.389,4.243,15.679a8.248,8.248,0,0,1,1.375,4.93v.814c0,.955.4,1.73.894,1.73H224.2c.494,0,.894-.775.894-1.73v-.814a8.254,8.254,0,0,1,1.379-4.934c2.554-3.185,4.245-8.733,4.245-15.047C230.72,78.29,226.5,70.218,221.315,70.376Zm0,0" transform="translate(-157.183 -52.126)" fill="#f9b50b"/>
      <path id="Trazado_699861" data-name="Trazado 699861" d="M230.631,158.913a11.281,11.281,0,0,1-16.238.008,1.349,1.349,0,0,0-.776-.393,21.476,21.476,0,0,0,3.883,10.081,8.248,8.248,0,0,1,1.374,4.93v.814c0,.955.4,1.73.894,1.73h5.476c.494,0,.894-.775.894-1.73v-.814a8.254,8.254,0,0,1,1.379-4.934,21.493,21.493,0,0,0,3.88-10.085A1.34,1.34,0,0,0,230.631,158.913Zm0,0" transform="translate(-158.226 -117.416)" fill="#f79d0d"/>
      <path id="Trazado_699862" data-name="Trazado 699862" d="M309.836,16.8,282.062.762a5.743,5.743,0,0,0-7.822,2.1l-17.668,30.6a5.742,5.742,0,0,0,2.1,7.821l27.775,16.036a5.744,5.744,0,0,0,7.822-2.1l17.668-30.6A5.741,5.741,0,0,0,309.836,16.8Zm0,0" transform="translate(-189.478 0)" fill="#abe4fe"/>
      <path id="Trazado_699863" data-name="Trazado 699863" d="M292.994,7.074,282.062.762a5.743,5.743,0,0,0-7.822,2.1l-17.668,30.6a5.742,5.742,0,0,0,2.1,7.821l10.6,6.123L289.761,11.94a1.5,1.5,0,0,0,.166-1.094C289.065,7.244,292.993,7.074,292.994,7.074Zm0,0" transform="translate(-189.478 0)" fill="#82c6f9"/>
      <path id="Trazado_699864" data-name="Trazado 699864" d="M327.544,36.025,299.561,19.869a.419.419,0,0,0-.573.153L283.132,47.484a.419.419,0,0,0,.154.573l27.982,16.156a.419.419,0,0,0,.573-.153L327.7,36.6A.419.419,0,0,0,327.544,36.025Zm0,0" transform="translate(-209.674 -14.675)" fill="#52b0f5"/>
      <path id="Trazado_699865" data-name="Trazado 699865" d="M299.561,19.869a.419.419,0,0,0-.573.153L283.133,47.484a.42.42,0,0,0,.154.573L294,54.241l15.959-27.626a1.523,1.523,0,0,0,.194-.632Zm0,0" transform="translate(-209.675 -14.675)" fill="#2299f2"/>
      <path id="Trazado_699866" data-name="Trazado 699866" d="M306.237,100.33a4.536,4.536,0,0,1-5.557-3.208l-.6-2.237a4.537,4.537,0,0,0-5.557-3.208l-7.382,1.978-4.009,6.943a.42.42,0,0,0,.154.573l27.983,16.156a.418.418,0,0,0,.572-.153l12.53-21.7Zm0,0" transform="translate(-209.675 -67.79)" fill="#2299f2"/>
      <path id="Trazado_699867" data-name="Trazado 699867" d="M300.081,94.884a4.537,4.537,0,0,0-5.557-3.208l-7.382,1.978-4.009,6.943a.42.42,0,0,0,.154.573L294,107.355l6.439-11.145Zm0,0" transform="translate(-209.675 -67.79)" fill="#1588e8"/>
      <path id="Trazado_699868" data-name="Trazado 699868" d="M324.649,73.194,296.874,57.158a5.744,5.744,0,0,0-7.822,2.1l-17.668,30.6a5.744,5.744,0,0,0,2.1,7.822l27.776,16.035a5.741,5.741,0,0,0,7.821-2.1l17.668-30.6A5.742,5.742,0,0,0,324.649,73.194Zm0,0" transform="translate(-200.45 -41.773)" fill="#d9f5ff"/>
      <path id="Trazado_699869" data-name="Trazado 699869" d="M342.357,92.421,314.374,76.265a.418.418,0,0,0-.572.154l-15.856,27.462a.419.419,0,0,0,.154.572l27.983,16.157a.419.419,0,0,0,.572-.154l15.856-27.462A.42.42,0,0,0,342.357,92.421Zm0,0" transform="translate(-220.646 -56.448)" fill="#52b0f5"/>
      <path id="Trazado_699870" data-name="Trazado 699870" d="M117.739,357.856a2.053,2.053,0,0,1,1.229-1.88,2.909,2.909,0,0,1-2.79-2.9v-6.682a2.909,2.909,0,0,1,2.79-2.9,2.053,2.053,0,0,1,.569-3.917c-.15-.01-.3-.017-.451-.017a6.844,6.844,0,0,0-6.836,6.836v6.682a6.844,6.844,0,0,0,6.836,6.837c.153,0,.3-.007.456-.017A2.052,2.052,0,0,1,117.739,357.856Zm0,0" transform="translate(-83.143 -251.508)" fill="#483ba8"/>
      <path id="Trazado_699871" data-name="Trazado 699871" d="M178.134,357.856a2.054,2.054,0,0,1,1.247-1.889,2.7,2.7,0,0,1-.287.015,2.912,2.912,0,0,1-2.909-2.909V341.519a1.963,1.963,0,1,0-3.927,0v11.554a6.832,6.832,0,0,0,7.547,6.8A2.053,2.053,0,0,1,178.134,357.856Zm0,0" transform="translate(-127.591 -251.508)" fill="#483ba8"/>
      <path id="Trazado_699872" data-name="Trazado 699872" d="M237.984,373.238a2.055,2.055,0,0,1-1.964-1.453v10.034a1.964,1.964,0,0,0,3.928,0V371.785A2.055,2.055,0,0,1,237.984,373.238Zm0,0" transform="translate(-174.819 -275.381)" fill="#483ba8"/>
      <path id="Trazado_699873" data-name="Trazado 699873" d="M329.753,357.916a2.052,2.052,0,0,1,1.37-1.935h-2.837v-4.04h2.907a2.054,2.054,0,0,1,.025-3.928h-2.931v-4.531h2.825a2.051,2.051,0,0,1,.222-3.928h-5.011a1.964,1.964,0,0,0-1.964,1.964v16.427a1.964,1.964,0,0,0,1.964,1.964h5A2.053,2.053,0,0,1,329.753,357.916Zm0,0" transform="translate(-240.253 -251.508)" fill="#483ba8"/>
      <path id="Trazado_699874" data-name="Trazado 699874" d="M268.06,357.856a2.053,2.053,0,0,1,1.3-1.908,4.2,4.2,0,0,1-.507.034h-1.645v-12.5h1.645a4.2,4.2,0,0,1,.507.033,2.053,2.053,0,0,1,.334-3.918,7.983,7.983,0,0,0-.842-.044h-3.609a1.964,1.964,0,0,0-1.964,1.964v16.426a1.964,1.964,0,0,0,1.964,1.964h3.609a8.262,8.262,0,0,0,.842-.044A2.054,2.054,0,0,1,268.06,357.856Zm0,0" transform="translate(-195.009 -251.508)" fill="#483ba8"/>
      <path id="Trazado_699875" data-name="Trazado 699875" d="M307.806,63.471l-10.932-6.312a5.744,5.744,0,0,0-7.822,2.1l-17.668,30.6a5.744,5.744,0,0,0,2.1,7.822l10.6,6.122,20.488-35.463a1.5,1.5,0,0,0,.166-1.095C303.877,63.641,307.805,63.471,307.806,63.471Zm0,0" transform="translate(-200.45 -41.773)" fill="#abe4fe"/>
      <path id="Trazado_699876" data-name="Trazado 699876" d="M314.374,76.265a.418.418,0,0,0-.572.154l-15.856,27.462a.419.419,0,0,0,.154.572l10.71,6.184,15.96-27.626a1.522,1.522,0,0,0,.193-.632Zm0,0" transform="translate(-220.646 -56.448)" fill="#2299f2"/>
      <path id="Trazado_699877" data-name="Trazado 699877" d="M321.05,156.725a4.537,4.537,0,0,1-5.557-3.209l-.6-2.236a4.537,4.537,0,0,0-5.557-3.209l-7.382,1.978-4.009,6.944a.419.419,0,0,0,.154.572l27.983,16.157a.419.419,0,0,0,.572-.154l12.53-21.7Zm0,0" transform="translate(-220.646 -109.561)" fill="#83d912"/>
      <path id="Trazado_699878" data-name="Trazado 699878" d="M379.344,118.369a3.664,3.664,0,1,0,1.341,5.006A3.665,3.665,0,0,0,379.344,118.369Zm0,0" transform="translate(-276.908 -87.312)" fill="#fbc840"/>
      <path id="Trazado_699879" data-name="Trazado 699879" d="M378.213,122.6a2.529,2.529,0,0,1,.381-4.56,3.66,3.66,0,1,0,2.494,4.318A2.528,2.528,0,0,1,378.213,122.6Zm0,0" transform="translate(-276.91 -87.311)" fill="#f9b50b"/>
      <path id="Trazado_699880" data-name="Trazado 699880" d="M315.249,152.608l-.355-1.326a4.536,4.536,0,0,0-5.557-3.208l-7.382,1.977L297.946,157a.421.421,0,0,0,.154.573l10.71,6.184C307.861,154.542,315.249,152.608,315.249,152.608Zm0,0" transform="translate(-220.646 -109.563)" fill="#5bbf02"/>
    </g>
  </g>
</svg>
