<svg xmlns="http://www.w3.org/2000/svg" width="91.382" height="91.527" viewBox="0 0 91.382 91.527">
  <g id="Grupo_955650" data-name="Grupo 955650" transform="translate(-21.255 -19.856)">
    <g id="Grupo_955542" data-name="Grupo 955542" transform="translate(35.851 83.899)">
      <g id="Grupo_955530" data-name="Grupo 955530" transform="translate(10.492 8.572)" style="mix-blend-mode: multiply;isolation: isolate">
        <path id="Trazado_719125" data-name="Trazado 719125" d="M139.709,348.716a.583.583,0,0,0-1.093-.406l-.2.482c-.06-.012-.121-.026-.183-.042l.2-.6.029-.079a.682.682,0,0,0-1.278-.477l-.294.788c-.043-.007-.086-.011-.129-.017l.1-.36c0-.011.007-.025.009-.036s0-.012,0-.018l.09-.277.01-.032a.744.744,0,0,0-1.435-.393l-.072.261a.759.759,0,0,0-.05.152l-.031.145-.035.127-.295.116-.56-3.849a.683.683,0,0,0-1.356.156l.364,4.308a.686.686,0,0,0-.36.767l.044.192.105.453a10.191,10.191,0,0,0,.313,2.309,3.147,3.147,0,0,0,.633,1.322v.254H134v2.729h4.938v-2.729h-.227v-.252a2.95,2.95,0,0,0,.333-1.308l.421-2.982.207-.523A.58.58,0,0,0,139.709,348.716Z" transform="translate(-133.114 -343.617)" fill="#7f7f7f"/>
      </g>
      <g id="Grupo_955537" data-name="Grupo 955537" transform="translate(10.486 8.559)">
        <path id="Trazado_719126" data-name="Trazado 719126" d="M134.5,344.144l.63,4.329a.816.816,0,0,1-1.615.235c0-.015,0-.033-.006-.049l-.368-4.359a.684.684,0,0,1,1.358-.156Z" transform="translate(-133.123 -343.558)" fill="#fdc00f"/>
        <path id="Trazado_719127" data-name="Trazado 719127" d="M136.992,364.544c-1.137,0-2.284-.331-3.09.864a8.156,8.156,0,0,0,.232,3.182c.252.765.456,1.579,1.318,1.579h3.125c.863,0,.868-.537,1.017-1.563l.546-3.871C139.278,365.508,138.22,364.544,136.992,364.544Z" transform="translate(-133.653 -359.805)" fill="#fdc00f"/>
        <path id="Trazado_719128" data-name="Trazado 719128" d="M142.947,359.936l-.631,2.379a.684.684,0,0,1-1.33-.317l.511-2.408a.745.745,0,1,1,1.458.31C142.953,359.911,142.95,359.924,142.947,359.936Z" transform="translate(-139.202 -355.536)" fill="#ad830b"/>
        <path id="Trazado_719129" data-name="Trazado 719129" d="M142.719,358.319l-.837,2.587a.684.684,0,0,1-1.31-.391l.719-2.622a.745.745,0,1,1,1.437.394Z" transform="translate(-138.874 -354.252)" fill="#fdc00f"/>
        <path id="Trazado_719130" data-name="Trazado 719130" d="M141.417,371.4s-.236.4.024.625a.489.489,0,0,0,.626.063,1.05,1.05,0,0,0,.265-.446Z" transform="translate(-139.472 -365.154)" fill="#fff"/>
        <rect id="Rect치ngulo_339005" data-name="Rect치ngulo 339005" width="4.492" height="3.272" transform="translate(1.116 9.827)" fill="#fdc00f"/>
        <path id="Trazado_719131" data-name="Trazado 719131" d="M137.107,363.822a.554.554,0,0,0-.494-.986l-2.251.871a.7.7,0,0,0-.423.83l.018.068.4,1.505a1.088,1.088,0,0,1,.71-1.075C135.186,364.984,137.107,363.822,137.107,363.822Z" transform="translate(-133.729 -358.483)" fill="#ad830b"/>
        <path id="Trazado_719132" data-name="Trazado 719132" d="M134.925,363.758a11.383,11.383,0,0,1,1.347-.836.565.565,0,0,0-.5-1.005l-2.247.881a.689.689,0,0,0-.42.8l.045.192.522,2.246a1.191,1.191,0,0,0,.131.326,1.148,1.148,0,0,0,1.573.4,1.16,1.16,0,0,0,.2-.152C134.926,366.369,134.609,363.915,134.925,363.758Z" transform="translate(-133.084 -357.769)" fill="#fdc00f"/>
        <g id="Grupo_955531" data-name="Grupo 955531" transform="translate(3.135 3.631)">
          <path id="Trazado_719133" data-name="Trazado 719133" d="M147.744,363.715a.684.684,0,0,1-.649-.9l.862-2.6a.684.684,0,1,1,1.3.43l-.862,2.6A.684.684,0,0,1,147.744,363.715Z" transform="translate(-147.06 -359.749)" fill="#ad830b"/>
        </g>
        <g id="Grupo_955532" data-name="Grupo 955532" transform="translate(4.71 4.487)">
          <path id="Trazado_719134" data-name="Trazado 719134" d="M154.671,366.578a.586.586,0,0,1-.545-.8l.73-1.841a.586.586,0,1,1,1.089.432l-.73,1.84A.587.587,0,0,1,154.671,366.578Z" transform="translate(-154.085 -363.565)" fill="#ad830b"/>
        </g>
        <g id="Grupo_955534" data-name="Grupo 955534" transform="translate(3.099 3.543)">
          <g id="Grupo_955533" data-name="Grupo 955533">
            <path id="Trazado_719135" data-name="Trazado 719135" d="M147.584,363.214a.685.685,0,0,1-.64-.923l.931-2.492a.684.684,0,0,1,1.281.478l-.931,2.492A.684.684,0,0,1,147.584,363.214Z" transform="translate(-146.901 -359.354)" fill="#fdc00f"/>
          </g>
        </g>
        <g id="Grupo_955536" data-name="Grupo 955536" transform="translate(4.71 4.345)">
          <g id="Grupo_955535" data-name="Grupo 955535">
            <path id="Trazado_719136" data-name="Trazado 719136" d="M154.671,365.89a.587.587,0,0,1-.539-.815l.757-1.788a.586.586,0,0,1,1.079.457l-.757,1.787A.586.586,0,0,1,154.671,365.89Z" transform="translate(-154.085 -362.931)" fill="#fdc00f"/>
          </g>
        </g>
        <rect id="Rect치ngulo_339006" data-name="Rect치ngulo 339006" width="4.948" height="2.734" transform="translate(0.888 10.364)" fill="#517c9e"/>
        <path id="Trazado_719137" data-name="Trazado 719137" d="M143.231,362.316l.061.183a5.88,5.88,0,0,1,.747-.28c.071.012.024-.135-.148-.159A1.933,1.933,0,0,0,143.231,362.316Z" transform="translate(-140.955 -357.909)" fill="#fff"/>
        <path id="Trazado_719138" data-name="Trazado 719138" d="M147.885,372.736s-.225.384.023.6a.467.467,0,0,0,.6.061,1,1,0,0,0,.253-.426Z" transform="translate(-144.492 -366.192)" fill="#fff"/>
        <path id="Trazado_719139" data-name="Trazado 719139" d="M154.97,372.842s-.189.321.019.5a.391.391,0,0,0,.5.051.841.841,0,0,0,.212-.357Z" transform="translate(-150 -366.274)" fill="#fff"/>
      </g>
      <g id="Grupo_955538" data-name="Grupo 955538" transform="translate(10.261 8.335)">
        <path id="Trazado_719140" data-name="Trazado 719140" d="M138.144,356.106H133.2a.224.224,0,0,1-.224-.224v-2.734a.224.224,0,0,1,.178-.22,3.486,3.486,0,0,1-.528-1.148l-.046-.141a10.392,10.392,0,0,1-.324-2.354l-.145-.625a.908.908,0,0,1,.344-.936l-.353-4.18a.908.908,0,0,1,.829-.981.915.915,0,0,1,.975.774l.495,3.4a1,1,0,0,1,.045-.126l.067-.245a.969.969,0,0,1,1.871,0,.924.924,0,0,1,.959-.208.909.909,0,0,1,.59.869.824.824,0,0,1,.747-.061.8.8,0,0,1,.461.966.775.775,0,0,1-.051.221l-.2.5-.447,3.173a3.053,3.053,0,0,1-.273,1.1.224.224,0,0,1,.2.223v2.734A.224.224,0,0,1,138.144,356.106Zm-4.723-.449h4.5l0-2.286a.224.224,0,0,1-.224-.224V352.9a.224.224,0,0,1,.05-.141,2.288,2.288,0,0,0,.255-.988l.451-3.2a.242.242,0,0,1,.014-.051l.208-.524a.356.356,0,0,0,.022-.112.228.228,0,0,1,.01-.055.358.358,0,0,0-.2-.443.369.369,0,0,0-.474.192l-.2.483a.223.223,0,0,1-.25.133c-.064-.013-.129-.028-.2-.044a.224.224,0,0,1-.157-.288l.231-.686a.459.459,0,0,0-.27-.591.466.466,0,0,0-.591.269l-.3.79a.223.223,0,0,1-.246.143l-.092-.012-.028,0a.224.224,0,0,1-.19-.28l.1-.378c0-.007,0-.014,0-.018a.214.214,0,0,1,.008-.031l.1-.3a.522.522,0,0,0-.365-.64.529.529,0,0,0-.64.365l-.072.261a.2.2,0,0,1-.012.033.522.522,0,0,0-.036.106l-.069.285a.224.224,0,0,1-.135.149l-.3.116a.224.224,0,0,1-.3-.176l-.561-3.856a.463.463,0,0,0-.493-.392.459.459,0,0,0-.419.5l.365,4.316a.224.224,0,0,1-.122.219.462.462,0,0,0-.244.517l.15.646a.214.214,0,0,1,.006.045,9.989,9.989,0,0,0,.3,2.249l.047.143a2.6,2.6,0,0,0,.528,1.087.226.226,0,0,1,.072.165v.255a.224.224,0,0,1-.224.224h0Z" transform="translate(-132.084 -342.558)" fill="#3d4655"/>
      </g>
      <g id="Grupo_955541" data-name="Grupo 955541" transform="translate(0 0)">
        <g id="Grupo_955539" data-name="Grupo 955539">
          <path id="Trazado_719141" data-name="Trazado 719141" d="M86.333,317.393l.651,6.277,3.168-.041a10.8,10.8,0,0,0,.736,1.359l-1.765,2.633,4.9,3.978,2.211-2.269a10.741,10.741,0,0,0,1.479.441l.617,3.11,6.278-.652-.037-3.168a10.873,10.873,0,0,0,1.352-.733l2.636,1.763,3.978-4.9-2.268-2.214a10.861,10.861,0,0,0,.44-1.475l3.11-.617-.652-6.277-3.169.038a10.782,10.782,0,0,0-.733-1.353l1.763-2.635-4.9-3.978-2.214,2.268a10.81,10.81,0,0,0-1.478-.441l-.614-3.109-6.278.652.041,3.167a10.83,10.83,0,0,0-1.359.735l-2.633-1.764-3.978,4.9,2.268,2.211a10.853,10.853,0,0,0-.442,1.481Zm12.96-5.787a7.574,7.574,0,1,1-6.751,8.315A7.574,7.574,0,0,1,99.293,311.606Z" transform="translate(-86.333 -305.397)" fill="#4d793f"/>
        </g>
        <g id="Grupo_955540" data-name="Grupo 955540" transform="translate(4.336 4.338)">
          <path id="Trazado_719142" data-name="Trazado 719142" d="M115.379,324.743a9.4,9.4,0,1,1-9.707,9.093A9.414,9.414,0,0,1,115.379,324.743Zm-.606,18.564a9.17,9.17,0,1,0-8.866-9.464A9.18,9.18,0,0,0,114.774,343.308Z" transform="translate(-105.667 -324.738)" fill="#fff"/>
        </g>
      </g>
    </g>
    <g id="Grupo_955550" data-name="Grupo 955550" transform="translate(53.455 19.856)">
      <g id="Grupo_955543" data-name="Grupo 955543" transform="translate(6.877 9.426)" style="mix-blend-mode: multiply;isolation: isolate">
        <path id="Trazado_719143" data-name="Trazado 719143" d="M197.14,67.14a7.559,7.559,0,0,0,9.929,0,6.274,6.274,0,0,1-9.929,0Zm11.487-1.319c-.119-.161-2.948-3.939-6.522-3.939s-6.4,3.778-6.522,3.939l-.1.133.1.133c.119.161,2.948,3.939,6.522,3.939s6.4-3.778,6.522-3.939l.1-.133Zm-1.557-1.053a7.56,7.56,0,0,0-9.93,0,6.275,6.275,0,0,1,9.93,0Z" transform="translate(-195.484 -61.882)" fill="#7f7f7f"/>
      </g>
      <g id="Grupo_955546" data-name="Grupo 955546" transform="translate(6.864 9.418)">
        <g id="Grupo_955544" data-name="Grupo 955544">
          <path id="Trazado_719144" data-name="Trazado 719144" d="M202.059,70.006c-3.582,0-6.416-3.786-6.536-3.947l-.1-.133.1-.133c.119-.161,2.954-3.947,6.536-3.947s6.416,3.786,6.536,3.947l.1.133-.1.133C208.475,66.22,205.641,70.006,202.059,70.006Zm-6.071-4.08c.537.67,3.081,3.631,6.071,3.631s5.534-2.962,6.07-3.631c-.537-.67-3.081-3.631-6.07-3.631S196.525,65.256,195.988,65.926Z" transform="translate(-195.425 -61.846)" fill="#3d4655"/>
        </g>
        <path id="Trazado_719145" data-name="Trazado 719145" d="M209.378,69.483s-2.845,3.052-6.355,3.052-6.355-3.052-6.355-3.052,2.845-3.051,6.355-3.051S209.378,69.483,209.378,69.483Z" transform="translate(-196.389 -65.403)" fill="#fdc00f"/>
        <g id="Grupo_955545" data-name="Grupo 955545" transform="translate(4.322 1.769)">
          <path id="Trazado_719146" data-name="Trazado 719146" d="M217.008,74.354a2.311,2.311,0,1,1,2.311-2.312A2.314,2.314,0,0,1,217.008,74.354Zm0-4.4a2.087,2.087,0,1,0,2.087,2.087A2.089,2.089,0,0,0,217.008,69.955Z" transform="translate(-214.697 -69.731)" fill="#3d4655"/>
        </g>
        <path id="Trazado_719147" data-name="Trazado 719147" d="M220.687,73.967a1.755,1.755,0,1,1-1.755-1.755A1.755,1.755,0,0,1,220.687,73.967Z" transform="translate(-212.298 -69.887)" fill="#3d4655"/>
        <path id="Trazado_719148" data-name="Trazado 719148" d="M222.969,77.178a.827.827,0,1,1-.827-.826A.827.827,0,0,1,222.969,77.178Z" transform="translate(-215.509 -73.098)" fill="#c1d649"/>
      </g>
      <g id="Grupo_955549" data-name="Grupo 955549" transform="translate(0 0)">
        <g id="Grupo_955547" data-name="Grupo 955547">
          <path id="Trazado_719149" data-name="Trazado 719149" d="M185.589,45.145l4.476-4.449-2.021-2.439a10.763,10.763,0,0,0,.6-1.427l3.158-.279.019-6.311-3.154-.3a10.82,10.82,0,0,0-.585-1.428l2.033-2.433-4.449-4.476-2.442,2.019a10.84,10.84,0,0,0-1.42-.592l-.283-3.158-6.311-.019-.3,3.155a10.82,10.82,0,0,0-1.424.584l-2.433-2.032-4.475,4.449,2.019,2.442a10.763,10.763,0,0,0-.593,1.42l-3.158.283-.019,6.311,3.155.3a10.836,10.836,0,0,0,.585,1.427l-2.033,2.43,4.449,4.476,2.439-2.021a10.762,10.762,0,0,0,1.426.6l.28,3.157,6.312.019.3-3.154a10.893,10.893,0,0,0,1.43-.586Zm-12.642-6.452a7.574,7.574,0,1,1,10.71.032A7.575,7.575,0,0,1,172.947,38.693Z" transform="translate(-164.821 -19.856)" fill="#4d793f"/>
        </g>
        <g id="Grupo_955548" data-name="Grupo 955548" transform="translate(4.096 4.097)">
          <path id="Trazado_719150" data-name="Trazado 719150" d="M184.979,53.187a9.4,9.4,0,1,1,13.172,1.844A9.414,9.414,0,0,1,184.979,53.187ZM199.807,42a9.17,9.17,0,1,0-1.8,12.843A9.18,9.18,0,0,0,199.807,42Z" transform="translate(-183.085 -38.121)" fill="#fff"/>
        </g>
      </g>
    </g>
    <g id="Grupo_955559" data-name="Grupo 955559" transform="translate(21.255 41.016)">
      <g id="Grupo_955551" data-name="Grupo 955551" transform="translate(10.039 7.286)" style="mix-blend-mode: multiply;isolation: isolate">
        <path id="Trazado_719151" data-name="Trazado 719151" d="M73.652,150.963a5.3,5.3,0,0,0-2.224-3.563,4.459,4.459,0,0,0-2.239-.713,3.5,3.5,0,0,0-2.016.721c-1.013.693-1.378,2.051-1.028,3.816a14.947,14.947,0,0,0,.389,1.7,5.022,5.022,0,0,1,.267,1.433,5.359,5.359,0,0,1-.325,1.506,2.9,2.9,0,0,0-.135,1.988,1.683,1.683,0,0,0,1.766,1.244,4.5,4.5,0,0,0,.508-.033c1.205-.136,2.171-1.57,3.194-3.088.392-.582.8-1.184,1.209-1.691A4.1,4.1,0,0,0,73.652,150.963Z" transform="translate(-66.017 -146.687)" fill="#7f7f7f"/>
      </g>
      <g id="Grupo_955554" data-name="Grupo 955554" transform="translate(0 0)">
        <g id="Grupo_955552" data-name="Grupo 955552">
          <path id="Trazado_719152" data-name="Trazado 719152" d="M24.409,131.116A10.887,10.887,0,0,0,25,132.544l-2.034,2.429,4.452,4.474,2.441-2.021a10.779,10.779,0,0,0,1.427.6l.278,3.155,6.311.016.3-3.155a10.82,10.82,0,0,0,1.426-.588l2.431,2.033,4.473-4.451-2.019-2.444a10.792,10.792,0,0,0,.593-1.42l3.156-.282.016-6.311-3.156-.3a10.792,10.792,0,0,0-.587-1.423l2.033-2.431-4.452-4.474-2.445,2.019a10.874,10.874,0,0,0-1.42-.593l-.282-3.156-6.311-.015-.3,3.156a10.779,10.779,0,0,0-1.427.588l-2.429-2.034L23,120.361l2.022,2.441a10.771,10.771,0,0,0-.6,1.427l-3.156.279-.015,6.311Zm2.769-3.438a7.573,7.573,0,1,1,7.554,7.592A7.573,7.573,0,0,1,27.178,127.678Z" transform="translate(-21.255 -114.2)" fill="#4d793f"/>
        </g>
        <g id="Grupo_955553" data-name="Grupo 955553" transform="translate(4.09 4.091)">
          <path id="Trazado_719153" data-name="Trazado 719153" d="M39.575,143.1a9.405,9.405,0,1,1,10.574,8.069A9.416,9.416,0,0,1,39.575,143.1Zm.233-.031a9.17,9.17,0,1,0,7.867-10.309A9.181,9.181,0,0,0,39.808,143.065Z" transform="translate(-39.49 -132.438)" fill="#fff"/>
        </g>
      </g>
      <g id="Grupo_955558" data-name="Grupo 955558" transform="translate(10.032 7.274)">
        <g id="Grupo_955556" data-name="Grupo 955556">
          <path id="Trazado_719154" data-name="Trazado 719154" d="M68.047,148.315c.931-.637,2.059-1.149,4.023,0s2.969,4.789,1.533,6.561-2.7,4.53-4.263,4.706a1.646,1.646,0,0,1-2.039-1.059c-.4-1.263.393-1.881.471-3.421a28.025,28.025,0,0,0-.659-3.185C66.777,150.227,67.115,148.952,68.047,148.315Z" transform="translate(-66.76 -147.407)" fill="#fdc00f"/>
          <g id="Grupo_955555" data-name="Grupo 955555">
            <path id="Trazado_719155" data-name="Trazado 719155" d="M68.078,159.063a1.686,1.686,0,0,1-1.77-1.247,2.908,2.908,0,0,1,.136-1.991,5.363,5.363,0,0,0,.325-1.509,5.025,5.025,0,0,0-.268-1.435,15.014,15.014,0,0,1-.389-1.7c-.351-1.768.015-3.129,1.03-3.823a3.507,3.507,0,0,1,2.02-.722,4.469,4.469,0,0,1,2.243.714,5.307,5.307,0,0,1,2.228,3.57A4.113,4.113,0,0,1,73,154.241c-.412.508-.818,1.111-1.211,1.694-1.025,1.521-1.993,2.957-3.2,3.094A4.523,4.523,0,0,1,68.078,159.063Zm1.084-11.983a3.053,3.053,0,0,0-1.767.644c-.857.587-1.156,1.785-.841,3.375a14.669,14.669,0,0,0,.381,1.663,5.365,5.365,0,0,1,.283,1.577,5.809,5.809,0,0,1-.347,1.626,2.483,2.483,0,0,0-.134,1.715,1.248,1.248,0,0,0,1.342.935,4.033,4.033,0,0,0,.458-.031c1-.113,1.956-1.529,2.879-2.9.4-.591.81-1.2,1.235-1.726A3.674,3.674,0,0,0,73.192,151a4.846,4.846,0,0,0-2.014-3.263A4.041,4.041,0,0,0,69.162,147.08Z" transform="translate(-65.982 -146.631)" fill="#3d4655"/>
          </g>
        </g>
        <g id="Grupo_955557" data-name="Grupo 955557" transform="translate(1.506 1.605)">
          <path id="Trazado_719156" data-name="Trazado 719156" d="M74.359,153.9s4.423,1.082,2.56,5.141c-1.692,3.687-3.065,3.962-3.515,3.691-.588-.355-.406-1.012-.238-1.647.445-1.689,2.68-3.15.981-3.925C72.279,156.443,72.632,153.424,74.359,153.9Z" transform="translate(-72.852 -153.836)" fill="#fdde84"/>
          <path id="Trazado_719157" data-name="Trazado 719157" d="M74.206,153.842s.089.022.252.076a5.563,5.563,0,0,1,.687.284,4.973,4.973,0,0,1,.971.624,3.232,3.232,0,0,1,.912,1.183,3.086,3.086,0,0,1,.18,1.758,6.563,6.563,0,0,1-.681,1.864,12.224,12.224,0,0,1-1.083,1.827,5.626,5.626,0,0,1-.73.825,2.143,2.143,0,0,1-.985.552.748.748,0,0,1-.59-.111.946.946,0,0,1-.223-.207.875.875,0,0,1-.135-.277,2.2,2.2,0,0,1,.093-1.125,5.958,5.958,0,0,1,.984-1.9,7.01,7.01,0,0,0,.52-.844.8.8,0,0,0,.04-.817.963.963,0,0,0-.316-.273c-.124-.076-.26-.118-.4-.2a1.888,1.888,0,0,1-.648-.606,2.188,2.188,0,0,1-.345-1.466,1.5,1.5,0,0,1,.522-1.021,1,1,0,0,1,.712-.193A1.668,1.668,0,0,1,74.206,153.842Zm-.006.022a1.618,1.618,0,0,0-.257-.042.963.963,0,0,0-.683.2,1.383,1.383,0,0,0-.468.994,2.069,2.069,0,0,0,.385,1.373,1.764,1.764,0,0,0,.613.527,1.856,1.856,0,0,1,.794.523.769.769,0,0,1,.135.519,1.528,1.528,0,0,1-.146.5,6.7,6.7,0,0,1-.528.88,5.757,5.757,0,0,0-.953,1.83,4.771,4.771,0,0,0-.113.517,1.268,1.268,0,0,0,0,.5.65.65,0,0,0,.266.386.552.552,0,0,0,.454.089,1.982,1.982,0,0,0,.906-.5,5.444,5.444,0,0,0,.718-.793,12.078,12.078,0,0,0,1.091-1.793,6.748,6.748,0,0,0,.7-1.824,3.008,3.008,0,0,0-.139-1.719,3.147,3.147,0,0,0-.878-1.182,4.466,4.466,0,0,0-.961-.627,5.606,5.606,0,0,0-.685-.283C74.289,153.885,74.2,153.864,74.2,153.864Z" transform="translate(-72.696 -153.788)" fill="#3d4655"/>
        </g>
      </g>
    </g>
    <g id="Grupo_955566" data-name="Grupo 955566" transform="translate(70.569 83.899)">
      <g id="Grupo_955560" data-name="Grupo 955560" transform="translate(9.435 8.25)" style="mix-blend-mode: multiply;isolation: isolate">
        <path id="Trazado_719158" data-name="Trazado 719158" d="M290.956,349.141a2.714,2.714,0,0,1-.828-1.3c-.333-1.745-1.231-5.664-2.578-5.664l-.043,0H287.5l-.05,0c-1.347,0-2.245,3.919-2.578,5.664a2.713,2.713,0,0,1-.828,1.3,2.3,2.3,0,0,0-.851,1.7c0,1.436,1.485,1.436,1.832,1.436a3.393,3.393,0,0,1,1.252.4,1.787,1.787,0,0,0,2.447,0,3.03,3.03,0,0,1,.43-.2,2.964,2.964,0,0,1,.822-.2c.346,0,1.832,0,1.832-1.436A2.3,2.3,0,0,0,290.956,349.141Z" transform="translate(-283.192 -342.182)" fill="#7f7f7f"/>
      </g>
      <g id="Grupo_955561" data-name="Grupo 955561" transform="translate(9.426 8.239)">
        <path id="Trazado_719159" data-name="Trazado 719159" d="M287.476,342.136h-.007c-.017,0-.033,0-.05,0-1.35,0-2.25,3.927-2.584,5.675a2.717,2.717,0,0,1-.83,1.3,2.3,2.3,0,0,0-.853,1.708c0,1.439,1.488,1.439,1.836,1.439a3.4,3.4,0,0,1,1.254.4,1.79,1.79,0,0,0,2.452,0,3.029,3.029,0,0,1,.431-.2,30.727,30.727,0,0,1-1.447-3.7C287.535,348.132,287.489,344.144,287.476,342.136Z" transform="translate(-283.153 -342.133)" fill="#fdc00f"/>
        <path id="Trazado_719160" data-name="Trazado 719160" d="M305.883,349.106a2.718,2.718,0,0,1-.83-1.3c-.334-1.749-1.234-5.675-2.584-5.675l-.043,0c.014,2.009.059,6,.2,6.621a30.723,30.723,0,0,0,1.447,3.7,2.969,2.969,0,0,1,.823-.2c.347,0,1.836,0,1.836-1.439A2.3,2.3,0,0,0,305.883,349.106Z" transform="translate(-298.103 -342.133)" fill="#fdde84"/>
      </g>
      <g id="Grupo_955564" data-name="Grupo 955564" transform="translate(0 0)">
        <g id="Grupo_955562" data-name="Grupo 955562">
          <path id="Trazado_719161" data-name="Trazado 719161" d="M265.5,316.78a10.873,10.873,0,0,0-.442-1.481l2.268-2.211-3.978-4.9-2.633,1.764a10.81,10.81,0,0,0-1.359-.735l.041-3.167-6.278-.652-.614,3.108a10.81,10.81,0,0,0-1.478.441l-2.214-2.268-4.9,3.978,1.763,2.635a10.772,10.772,0,0,0-.733,1.353l-3.168-.038-.652,6.277,3.11.617a10.833,10.833,0,0,0,.44,1.475l-2.268,2.214,3.978,4.9,2.636-1.763a10.867,10.867,0,0,0,1.352.733l-.037,3.168,6.278.652.617-3.11a10.747,10.747,0,0,0,1.479-.441l2.211,2.269,4.9-3.978-1.765-2.633a10.831,10.831,0,0,0,.736-1.359l3.168.041.651-6.277Zm-3.1,3.141a7.573,7.573,0,1,1-6.75-8.315A7.573,7.573,0,0,1,262.4,319.921Z" transform="translate(-241.125 -305.397)" fill="#4d793f"/>
        </g>
        <g id="Grupo_955563" data-name="Grupo 955563" transform="translate(4.338 4.338)">
          <path id="Trazado_719162" data-name="Trazado 719162" d="M279.271,333.836a9.405,9.405,0,1,1-9.707-9.093A9.416,9.416,0,0,1,279.271,333.836Zm-.235.008a9.17,9.17,0,1,0-8.866,9.464A9.18,9.18,0,0,0,279.035,333.843Z" transform="translate(-260.465 -324.737)" fill="#fff"/>
        </g>
      </g>
      <g id="Grupo_955565" data-name="Grupo 955565" transform="translate(9.202 8.015)">
        <path id="Trazado_719163" data-name="Trazado 719163" d="M286.749,352.587h0l-.055,0a2.636,2.636,0,0,1-1.347-.521,3.244,3.244,0,0,0-1.134-.364c-1.792,0-2.06-1.042-2.06-1.663a2.533,2.533,0,0,1,.928-1.875,2.5,2.5,0,0,0,.758-1.172c.51-2.672,1.411-5.858,2.8-5.858l.05,0,.05,0c1.393,0,2.294,3.185,2.8,5.858a2.5,2.5,0,0,0,.759,1.172,2.533,2.533,0,0,1,.928,1.875c0,.621-.268,1.663-2.06,1.663a3.252,3.252,0,0,0-1.134.364A2.746,2.746,0,0,1,286.749,352.587Zm-.056-.451h.018a2.2,2.2,0,0,0,1.077-.444l.02-.013a3.618,3.618,0,0,1,1.365-.428c1.069,0,1.611-.408,1.611-1.214a2.1,2.1,0,0,0-.777-1.54,2.95,2.95,0,0,1-.9-1.424c-.647-3.388-1.552-5.493-2.363-5.493h-.1c-.811,0-1.716,2.1-2.363,5.493a2.95,2.95,0,0,1-.9,1.424,2.1,2.1,0,0,0-.777,1.54c0,.806.542,1.214,1.611,1.214a3.614,3.614,0,0,1,1.365.428l.02.013a2.139,2.139,0,0,0,1.077.444Z" transform="translate(-282.153 -341.133)" fill="#3d4655"/>
      </g>
    </g>
    <g id="Grupo_955587" data-name="Grupo 955587" transform="translate(40.117 42.311)">
      <g id="Grupo_955570" data-name="Grupo 955570" transform="translate(6.615 0.202)">
        <g id="Grupo_955567" data-name="Grupo 955567" transform="translate(0.67)">
          <path id="Trazado_719164" data-name="Trazado 719164" d="M138.061,126.755l-.226-.223a26.776,26.776,0,0,1,8.146-5.656l.13.29A26.461,26.461,0,0,0,138.061,126.755Z" transform="translate(-137.835 -120.876)" fill="#3d4655"/>
        </g>
        <g id="Grupo_955569" data-name="Grupo 955569" transform="translate(0 5.057)">
          <g id="Grupo_955568" data-name="Grupo 955568">
            <path id="Trazado_719165" data-name="Trazado 719165" d="M136.367,144.515l-1.52.445.374-1.539Z" transform="translate(-134.848 -143.421)" fill="#3d4655"/>
          </g>
        </g>
      </g>
      <g id="Grupo_955574" data-name="Grupo 955574" transform="translate(0 24.258)">
        <g id="Grupo_955571" data-name="Grupo 955571">
          <path id="Trazado_719166" data-name="Trazado 719166" d="M109.936,243.127a27.7,27.7,0,0,1-4.544-13.787c-.025-.484-.038-.737-.038-1.211h.318c0,.467.011.7.037,1.195A27.384,27.384,0,0,0,110.2,242.95Z" transform="translate(-105.354 -228.129)" fill="#3d4655"/>
        </g>
        <g id="Grupo_955573" data-name="Grupo 955573" transform="translate(3.943 14.262)">
          <g id="Grupo_955572" data-name="Grupo 955572">
            <path id="Trazado_719167" data-name="Trazado 719167" d="M124.244,291.719l.118,1.579-1.427-.687Z" transform="translate(-122.935 -291.719)" fill="#3d4655"/>
          </g>
        </g>
      </g>
      <g id="Grupo_955578" data-name="Grupo 955578" transform="translate(24.708 49.895)">
        <g id="Grupo_955575" data-name="Grupo 955575" transform="translate(0 0.574)">
          <path id="Trazado_719168" data-name="Trazado 719168" d="M217.644,345.392c-.709,0-1.425-.028-2.127-.083l.025-.317a27.025,27.025,0,0,0,3.489.046l.016.317C218.583,345.38,218.111,345.392,217.644,345.392Z" transform="translate(-215.517 -344.992)" fill="#3d4655"/>
        </g>
        <g id="Grupo_955577" data-name="Grupo 955577" transform="translate(3.236)">
          <g id="Grupo_955576" data-name="Grupo 955576">
            <path id="Trazado_719169" data-name="Trazado 719169" d="M229.945,342.435l1.423.7-1.314.884Z" transform="translate(-229.945 -342.435)" fill="#3d4655"/>
          </g>
        </g>
      </g>
      <g id="Grupo_955582" data-name="Grupo 955582" transform="translate(47.715 24.258)">
        <g id="Grupo_955579" data-name="Grupo 955579" transform="translate(0 1.124)">
          <path id="Trazado_719170" data-name="Trazado 719170" d="M318.349,248.267l-.253-.193a27.219,27.219,0,0,0,5.6-14.871c0-.022,0-.042,0-.062h.318c0,.026,0,.052,0,.079A27.542,27.542,0,0,1,318.349,248.267Z" transform="translate(-318.096 -233.141)" fill="#3d4655"/>
        </g>
        <g id="Grupo_955581" data-name="Grupo 955581" transform="translate(4.975)">
          <g id="Grupo_955580" data-name="Grupo 955580">
            <path id="Trazado_719171" data-name="Trazado 719171" d="M340.276,229.6l.6-1.467.972,1.25Z" transform="translate(-340.276 -228.129)" fill="#3d4655"/>
          </g>
        </g>
      </g>
      <g id="Grupo_955586" data-name="Grupo 955586" transform="translate(38.174)">
        <g id="Grupo_955583" data-name="Grupo 955583" transform="translate(0.959 0.469)">
          <path id="Trazado_719172" data-name="Trazado 719172" d="M287.141,127.746a26.515,26.515,0,0,0-7.31-5.4l.142-.284a26.832,26.832,0,0,1,7.4,5.461Z" transform="translate(-279.831 -122.065)" fill="#3d4655"/>
        </g>
        <g id="Grupo_955585" data-name="Grupo 955585">
          <g id="Grupo_955584" data-name="Grupo 955584">
            <path id="Trazado_719173" data-name="Trazado 719173" d="M276.452,121.4l-.9-1.306,1.579-.123Z" transform="translate(-275.556 -119.974)" fill="#3d4655"/>
          </g>
        </g>
      </g>
    </g>
    <g id="Grupo_955597" data-name="Grupo 955597" transform="translate(85.644 40.931)">
      <g id="Grupo_955588" data-name="Grupo 955588" transform="translate(6.851 10.252)" style="mix-blend-mode: multiply;isolation: isolate">
        <path id="Trazado_719174" data-name="Trazado 719174" d="M352.139,162.58l-.006-.013.016,0-.176-.275,0-.006-.1-.161-.005,0a6.649,6.649,0,0,0-4.261-2.573,1.058,1.058,0,0,0-.209-.019,5.81,5.81,0,0,0-1.872.56,8.036,8.036,0,0,0-2.157-.5,1.407,1.407,0,0,0-.326.033,6.118,6.118,0,0,0-3.858,2.489l-.006,0-.1.168,0,0-.16.276.016,0-.011.028-.031.079.023.082c.026.094.693,2.313,4.23,3.039a2.186,2.186,0,0,0,.432.036,11.484,11.484,0,0,0,1.964-.255,12.884,12.884,0,0,0,1.957.209,2.594,2.594,0,0,0,.613-.058c3.121-.774,4.058-2.843,4.058-3.041v-.055Z" transform="translate(-338.885 -159.53)" fill="#7f7f7f"/>
      </g>
      <g id="Grupo_955591" data-name="Grupo 955591" transform="translate(0 0)">
        <g id="Grupo_955589" data-name="Grupo 955589">
          <path id="Trazado_719175" data-name="Trazado 719175" d="M335.332,130.439l-.015-6.311-3.156-.279a10.764,10.764,0,0,0-.6-1.427l2.022-2.441-4.474-4.451-2.429,2.034a10.773,10.773,0,0,0-1.427-.588l-.3-3.156-6.311.016-.282,3.156a10.881,10.881,0,0,0-1.42.593l-2.445-2.019-4.452,4.473,2.033,2.432a10.853,10.853,0,0,0-.587,1.423l-3.156.3.016,6.311,3.156.282a10.8,10.8,0,0,0,.593,1.42l-2.019,2.445,4.473,4.451,2.432-2.033a10.817,10.817,0,0,0,1.426.588l.3,3.154,6.311-.016.278-3.155a10.787,10.787,0,0,0,1.426-.595l2.442,2.021,4.451-4.474-2.034-2.429a10.877,10.877,0,0,0,.589-1.429Zm-13.477,4.451a7.574,7.574,0,1,1,7.554-7.592A7.574,7.574,0,0,1,321.854,134.89Z" transform="translate(-308.339 -113.82)" fill="#4d793f"/>
        </g>
        <g id="Grupo_955590" data-name="Grupo 955590" transform="translate(4.091 4.091)">
          <path id="Trazado_719176" data-name="Trazado 719176" d="M334.734,150.785a9.4,9.4,0,1,1,10.574-8.068A9.414,9.414,0,0,1,334.734,150.785Zm2.473-18.409a9.17,9.17,0,1,0,7.867,10.309A9.18,9.18,0,0,0,337.207,132.376Z" transform="translate(-326.58 -132.058)" fill="#fff"/>
        </g>
      </g>
      <g id="Grupo_955596" data-name="Grupo 955596" transform="translate(6.838 10.246)">
        <g id="Grupo_955593" data-name="Grupo 955593" transform="translate(0 2.588)">
          <path id="Trazado_719177" data-name="Trazado 719177" d="M346.406,172.6a16.228,16.228,0,0,1-3.774.328,18.262,18.262,0,0,1-2.479-.552,2.238,2.238,0,0,0-.139.274s.612,2.162,4.047,2.867a8.818,8.818,0,0,0,2.346-.229,9.181,9.181,0,0,0,2.517.164,5.39,5.39,0,0,0,3.875-2.8,2.522,2.522,0,0,0-.154-.269,19.146,19.146,0,0,1-3.152.642A12.278,12.278,0,0,1,346.406,172.6Z" transform="translate(-339.748 -172.077)" fill="#fdc00f"/>
          <g id="Grupo_955592" data-name="Grupo 955592">
            <path id="Trazado_719178" data-name="Trazado 719178" d="M343.521,174.764a2.171,2.171,0,0,1-.433-.036c-3.544-.727-4.212-2.951-4.239-3.045l-.023-.082.031-.079a2.415,2.415,0,0,1,.155-.308l.1-.174.192.058a18,18,0,0,0,2.445.545,3.891,3.891,0,0,0,.573.036,20.727,20.727,0,0,0,3.114-.362l.056-.011.055.014a14.473,14.473,0,0,0,2.7.432,2.437,2.437,0,0,0,.29-.015,18.86,18.86,0,0,0,3.11-.634l.183-.055.1.161a2.74,2.74,0,0,1,.17.3l.023.05v.055c0,.2-.939,2.271-4.067,3.047a2.615,2.615,0,0,1-.614.058,12.924,12.924,0,0,1-1.96-.21A11.522,11.522,0,0,1,343.521,174.764Zm-4.15-3.12c.165.418.969,2,3.819,2.589a1.715,1.715,0,0,0,.331.026,11.572,11.572,0,0,0,1.91-.254l.05-.011.051.01a12.966,12.966,0,0,0,1.917.21,2.169,2.169,0,0,0,.492-.043,5.416,5.416,0,0,0,3.638-2.52,19.724,19.724,0,0,1-2.977.588,2.9,2.9,0,0,1-.351.019,14.242,14.242,0,0,1-2.774-.434,20.376,20.376,0,0,1-3.155.36,4.334,4.334,0,0,1-.65-.042A18.836,18.836,0,0,1,339.371,171.643Z" transform="translate(-338.826 -171.039)" fill="#3d4655"/>
          </g>
        </g>
        <g id="Grupo_955595" data-name="Grupo 955595" transform="translate(0.027)">
          <path id="Trazado_719179" data-name="Trazado 719179" d="M348.911,160.643a5.161,5.161,0,0,0-2.024.567,6.7,6.7,0,0,0-2.441-.493,5.748,5.748,0,0,0-3.812,2.546,18.263,18.263,0,0,0,2.479.552,16.229,16.229,0,0,0,3.774-.328,12.279,12.279,0,0,0,3.087.423,19.147,19.147,0,0,0,3.152-.642A6.314,6.314,0,0,0,348.911,160.643Z" transform="translate(-340.255 -160.376)" fill="#fdde84"/>
          <g id="Grupo_955594" data-name="Grupo 955594">
            <path id="Trazado_719180" data-name="Trazado 719180" d="M348.343,163.307h0a14.246,14.246,0,0,1-2.774-.434,20.376,20.376,0,0,1-3.155.36,4.332,4.332,0,0,1-.65-.042,18.51,18.51,0,0,1-2.514-.56l-.306-.093.16-.276a6.015,6.015,0,0,1,3.973-2.665,1.4,1.4,0,0,1,.326-.034,8.044,8.044,0,0,1,2.161.5,5.817,5.817,0,0,1,1.876-.561,1.064,1.064,0,0,1,.209.019,6.569,6.569,0,0,1,4.378,2.737l.18.282-.321.1a19.386,19.386,0,0,1-3.194.651A2.9,2.9,0,0,1,348.343,163.307Zm-2.759-.952.055.014a14.476,14.476,0,0,0,2.7.432h0a2.438,2.438,0,0,0,.29-.015,19.387,19.387,0,0,0,2.772-.536,6.25,6.25,0,0,0-3.855-2.233.565.565,0,0,0-.109-.009,5.693,5.693,0,0,0-1.755.556l-.1.047-.1-.038a8.255,8.255,0,0,0-2.084-.5.921.921,0,0,0-.209.02,5.724,5.724,0,0,0-3.475,2.152,18.546,18.546,0,0,0,2.122.451,3.894,3.894,0,0,0,.573.036,20.726,20.726,0,0,0,3.114-.362Z" transform="translate(-338.945 -159.502)" fill="#3d4655"/>
          </g>
        </g>
      </g>
    </g>
    <g id="Grupo_955643" data-name="Grupo 955643" transform="translate(47.139 47.848)">
      <g id="Grupo_955598" data-name="Grupo 955598" transform="translate(11.091 10.635)" style="mix-blend-mode: multiply;isolation: isolate">
        <path id="Trazado_719181" data-name="Trazado 719181" d="M203.556,201.312a9.36,9.36,0,0,0-7.255-9.207,1.258,1.258,0,0,0-1.468,1.3,1.258,1.258,0,0,0-1.467-1.3,9.36,9.36,0,0,0-7.255,9.207c0,.019,0,.037,0,.056s0,.035,0,.053a8.9,8.9,0,0,0,.186,1.8,9.068,9.068,0,0,0,7.068,7.185,1.258,1.258,0,0,0,1.467-1.305,1.259,1.259,0,0,0,1.468,1.305,9.068,9.068,0,0,0,7.068-7.185,8.89,8.89,0,0,0,.186-1.8c0-.018,0-.035,0-.053S203.556,201.331,203.556,201.312Z" transform="translate(-186.111 -192.08)" fill="#7f7f7f"/>
      </g>
      <g id="Grupo_955615" data-name="Grupo 955615">
        <g id="Grupo_955613" data-name="Grupo 955613">
          <g id="Grupo_955612" data-name="Grupo 955612">
            <g id="Grupo_955611" data-name="Grupo 955611">
              <g id="Grupo_955599" data-name="Grupo 955599" transform="translate(30.641 19.813)">
                <path id="Trazado_719182" data-name="Trazado 719182" d="M273.277,239.247l.141-.243c.084-.158.2-.385.336-.66a12.319,12.319,0,0,0,.772-2.105,12.476,12.476,0,0,0,.379-2.213c.01-.153.025-.293.031-.419s.005-.234.007-.324c.005-.18.008-.283.008-.283s.463.094,1.159.268,1.633.435,2.54.747,1.825.67,2.5.963,1.112.509,1.112.509l-.03.233c-.018.148-.045.36-.093.612-.082.506-.222,1.175-.4,1.836s-.393,1.309-.569,1.79l-.314.795s-.495-.035-1.226-.117-1.686-.218-2.643-.412-1.876-.421-2.57-.623S273.277,239.247,273.277,239.247Z" transform="translate(-273.277 -233)" fill="#4d793f"/>
              </g>
              <g id="Grupo_955600" data-name="Grupo 955600" transform="translate(26.06 26.06)">
                <path id="Trazado_719183" data-name="Trazado 719183" d="M252.853,265.434l.244-.14c.148-.1.371-.228.62-.407a12.37,12.37,0,0,0,3.17-3.17c.179-.25.306-.472.407-.62l.14-.244s.357.315.878.817,1.181,1.185,1.821,1.918,1.236,1.49,1.675,2.085.711,1,.711,1l-.528.669-.572.66c-.217.235-.454.48-.69.726s-.492.473-.726.689l-.66.572-.669.528s-.407-.272-1-.711-1.356-1.034-2.085-1.675-1.42-1.306-1.918-1.821S252.853,265.434,252.853,265.434Z" transform="translate(-252.853 -260.853)" fill="#4d793f"/>
              </g>
              <g id="Grupo_955601" data-name="Grupo 955601" transform="translate(19.813 30.641)">
                <path id="Trazado_719184" data-name="Trazado 719184" d="M225,282.952l.283-.008.324-.007c.125-.005.265-.02.419-.031a12.493,12.493,0,0,0,2.213-.379,12.312,12.312,0,0,0,2.105-.772c.275-.134.5-.252.66-.336l.243-.141s.153.451.353,1.144.433,1.616.623,2.57.328,1.909.412,2.643.117,1.226.117,1.226l-.795.314c-.482.176-1.13.394-1.791.569s-1.33.315-1.836.4c-.252.048-.463.075-.612.093l-.233.03s-.217-.443-.509-1.112-.654-1.586-.963-2.5-.574-1.848-.747-2.54S225,282.952,225,282.952Z" transform="translate(-225 -281.277)" fill="#4d793f"/>
              </g>
              <g id="Grupo_955602" data-name="Grupo 955602" transform="translate(12.061 30.641)">
                <path id="Trazado_719185" data-name="Trazado 719185" d="M191.939,281.277l.244.141c.158.084.385.2.66.336a12.316,12.316,0,0,0,2.105.772,12.5,12.5,0,0,0,2.213.379c.153.01.293.025.419.031l.324.007.283.008s-.094.464-.268,1.159-.436,1.633-.747,2.54-.67,1.825-.964,2.5-.509,1.112-.509,1.112l-.233-.03c-.148-.018-.36-.045-.612-.093-.505-.082-1.175-.222-1.836-.4s-1.309-.394-1.791-.569l-.795-.314s.035-.5.117-1.226.218-1.686.412-2.643.421-1.876.623-2.57S191.939,281.277,191.939,281.277Z" transform="translate(-190.434 -281.277)" fill="#4d793f"/>
              </g>
              <g id="Grupo_955603" data-name="Grupo 955603" transform="translate(3.901 26.06)">
                <path id="Trazado_719186" data-name="Trazado 719186" d="M159.137,260.853l.14.244c.1.148.228.371.407.62a12.375,12.375,0,0,0,3.17,3.17c.25.179.472.306.62.407l.244.14s-.315.357-.816.878-1.185,1.181-1.918,1.821-1.491,1.236-2.085,1.675-1,.711-1,.711l-.669-.528-.661-.572c-.235-.217-.48-.454-.726-.689s-.473-.492-.69-.726l-.572-.66-.528-.669s.271-.407.711-1,1.034-1.356,1.674-2.085,1.306-1.42,1.821-1.918S159.137,260.853,159.137,260.853Z" transform="translate(-154.053 -260.853)" fill="#4d793f"/>
              </g>
              <g id="Grupo_955604" data-name="Grupo 955604" transform="translate(0 19.813)">
                <path id="Trazado_719187" data-name="Trazado 719187" d="M143.971,233s0,.1.008.283c0,.09,0,.2.007.324s.021.265.031.419a12.476,12.476,0,0,0,.379,2.213,12.319,12.319,0,0,0,.772,2.105c.134.275.252.5.336.66l.141.243s-.451.153-1.144.353-1.616.433-2.571.623-1.908.328-2.642.412-1.225.117-1.225.117l-.314-.795c-.176-.481-.394-1.13-.57-1.79s-.315-1.33-.4-1.836c-.048-.252-.075-.463-.093-.612l-.03-.233s.443-.217,1.112-.509,1.586-.654,2.5-.963,1.849-.574,2.54-.747S143.971,233,143.971,233Z" transform="translate(-136.661 -233)" fill="#4d793f"/>
              </g>
              <g id="Grupo_955605" data-name="Grupo 955605" transform="translate(0 12.061)">
                <path id="Trazado_719188" data-name="Trazado 719188" d="M145.646,199.939l-.141.244c-.084.158-.2.385-.336.66a12.318,12.318,0,0,0-.772,2.105,12.472,12.472,0,0,0-.379,2.213c-.01.153-.025.293-.031.419s-.005.234-.007.324c-.005.18-.008.283-.008.283s-.464-.094-1.16-.268-1.633-.435-2.54-.747-1.824-.67-2.5-.964-1.112-.509-1.112-.509l.03-.233c.018-.148.045-.36.093-.612.082-.505.222-1.175.4-1.836s.394-1.309.57-1.791l.314-.795s.495.035,1.225.117,1.686.218,2.642.412,1.876.421,2.571.623S145.646,199.939,145.646,199.939Z" transform="translate(-136.661 -198.434)" fill="#4d793f"/>
              </g>
              <g id="Grupo_955606" data-name="Grupo 955606" transform="translate(3.901 3.901)">
                <path id="Trazado_719189" data-name="Trazado 719189" d="M163.718,167.138l-.244.14c-.148.1-.37.228-.62.407a12.38,12.38,0,0,0-3.17,3.17c-.179.25-.306.472-.407.62l-.14.244s-.357-.315-.877-.816-1.181-1.185-1.821-1.918-1.235-1.491-1.674-2.085-.711-1-.711-1l.528-.669.572-.661c.217-.235.454-.48.69-.726s.491-.473.726-.69l.661-.572.669-.528s.408.271,1,.711,1.356,1.034,2.085,1.675,1.42,1.306,1.918,1.821S163.718,167.137,163.718,167.138Z" transform="translate(-154.053 -162.053)" fill="#4d793f"/>
              </g>
              <g id="Grupo_955607" data-name="Grupo 955607" transform="translate(12.061)">
                <path id="Trazado_719190" data-name="Trazado 719190" d="M198.187,151.971l-.283.008-.324.007c-.125.006-.265.021-.419.031a12.472,12.472,0,0,0-2.213.379,12.318,12.318,0,0,0-2.105.772c-.275.134-.5.252-.66.336l-.244.141s-.152-.451-.353-1.144-.433-1.616-.623-2.571-.328-1.908-.412-2.642-.117-1.225-.117-1.225l.795-.314c.482-.176,1.13-.394,1.791-.569s1.33-.315,1.836-.4c.252-.048.464-.075.612-.093l.233-.03s.217.443.509,1.112.654,1.586.964,2.5.574,1.849.747,2.54S198.187,151.971,198.187,151.971Z" transform="translate(-190.434 -144.661)" fill="#4d793f"/>
              </g>
              <g id="Grupo_955608" data-name="Grupo 955608" transform="translate(19.813)">
                <path id="Trazado_719191" data-name="Trazado 719191" d="M231.247,153.646l-.243-.141c-.158-.084-.385-.2-.66-.336a12.314,12.314,0,0,0-2.105-.772,12.471,12.471,0,0,0-2.213-.379c-.153-.01-.294-.025-.419-.031l-.324-.007-.283-.008s.094-.463.268-1.16.435-1.633.747-2.54.67-1.824.963-2.5.509-1.112.509-1.112l.233.03c.148.018.36.045.612.093.506.082,1.175.222,1.836.4s1.309.394,1.791.569l.795.314s-.035.495-.117,1.225-.218,1.686-.412,2.642-.421,1.876-.623,2.571S231.247,153.646,231.247,153.646Z" transform="translate(-225 -144.661)" fill="#4d793f"/>
              </g>
              <g id="Grupo_955609" data-name="Grupo 955609" transform="translate(26.06 3.901)">
                <path id="Trazado_719192" data-name="Trazado 719192" d="M257.434,171.718l-.14-.244c-.1-.148-.228-.37-.407-.62a12.376,12.376,0,0,0-3.17-3.17c-.25-.179-.472-.306-.62-.407l-.244-.14s.315-.358.817-.878,1.185-1.181,1.918-1.821,1.49-1.236,2.085-1.675,1-.711,1-.711l.669.528.66.572c.235.217.48.454.726.69s.473.491.69.726l.572.661.528.669s-.272.408-.711,1-1.034,1.356-1.675,2.085-1.306,1.42-1.821,1.918S257.434,171.718,257.434,171.718Z" transform="translate(-252.853 -162.053)" fill="#4d793f"/>
              </g>
              <g id="Grupo_955610" data-name="Grupo 955610" transform="translate(30.641 12.061)">
                <path id="Trazado_719193" data-name="Trazado 719193" d="M274.952,206.187s0-.1-.008-.283c0-.09,0-.2-.007-.324s-.02-.265-.031-.419a12.472,12.472,0,0,0-.379-2.213,12.318,12.318,0,0,0-.772-2.105c-.134-.275-.252-.5-.336-.66l-.141-.244s.451-.152,1.144-.353,1.616-.433,2.57-.623,1.909-.328,2.643-.412,1.226-.117,1.226-.117l.314.795c.176.482.394,1.13.569,1.791s.316,1.33.4,1.836c.048.252.075.464.093.612l.03.233s-.443.217-1.112.509-1.586.654-2.5.964-1.848.574-2.54.747S274.952,206.187,274.952,206.187Z" transform="translate(-273.277 -198.434)" fill="#4d793f"/>
              </g>
            </g>
            <path id="Trazado_719194" data-name="Trazado 719194" d="M168.841,160.6a16.238,16.238,0,1,0,16.238,16.238A16.238,16.238,0,0,0,168.841,160.6Zm0,27.54a11.3,11.3,0,1,1,11.3-11.3A11.3,11.3,0,0,1,168.841,188.144Z" transform="translate(-149.027 -157.028)" fill="#4d793f"/>
          </g>
        </g>
        <g id="Grupo_955614" data-name="Grupo 955614" transform="translate(5.923 5.923)">
          <path id="Trazado_719195" data-name="Trazado 719195" d="M176.96,198.85a13.89,13.89,0,1,1,13.89-13.89A13.906,13.906,0,0,1,176.96,198.85Zm0-27.332A13.442,13.442,0,1,0,190.4,184.96,13.457,13.457,0,0,0,176.96,171.519Z" transform="translate(-163.07 -171.07)" fill="#fff"/>
        </g>
      </g>
      <g id="Grupo_955642" data-name="Grupo 955642" transform="translate(11.074 10.617)">
        <path id="Trazado_719196" data-name="Trazado 719196" d="M203.512,201.305c0-.019,0-.038,0-.057a9.379,9.379,0,0,0-7.269-9.225,1.261,1.261,0,0,0-1.471,1.307,1.261,1.261,0,0,0-1.47-1.307,9.379,9.379,0,0,0-7.269,9.225c0,.019,0,.038,0,.057s0,.035,0,.053a8.92,8.92,0,0,0,.187,1.807,9.086,9.086,0,0,0,7.083,7.2,1.261,1.261,0,0,0,1.47-1.308,1.261,1.261,0,0,0,1.471,1.308,9.086,9.086,0,0,0,7.083-7.2,8.9,8.9,0,0,0,.187-1.807C203.513,201.34,203.512,201.323,203.512,201.305Z" transform="translate(-186.033 -191.997)" fill="#e6e6e6"/>
        <g id="Grupo_955616" data-name="Grupo 955616" transform="translate(9.123 1.594)">
          <path id="Trazado_719197" data-name="Trazado 719197" d="M230.736,212.427a2.409,2.409,0,0,0,2.481-3.489,1.738,1.738,0,0,0,.885-1.507,1.618,1.618,0,0,0-.506-1.174,2.013,2.013,0,0,0-.44-2.1,2.561,2.561,0,0,0-.463-2.466,2.382,2.382,0,0,0-2.025-.835,1.815,1.815,0,0,0-3.448-.726l0,.016a1.8,1.8,0,0,0,.048,1.488.928.928,0,0,0,.359,1.668,1.521,1.521,0,0,0-.47,2.479,1.52,1.52,0,0,0,.257,2.307,2.658,2.658,0,0,0-.538,1.658,5.077,5.077,0,0,0,.468,1.679,1.833,1.833,0,1,0,3.352,1.025Z" transform="translate(-226.709 -199.105)" fill="#6caec6"/>
        </g>
        <g id="Grupo_955617" data-name="Grupo 955617" transform="translate(1.077 1.594)">
          <path id="Trazado_719198" data-name="Trazado 719198" d="M194.2,212.427a2.409,2.409,0,0,1-2.481-3.489,1.738,1.738,0,0,1-.885-1.507,1.618,1.618,0,0,1,.506-1.174,2.013,2.013,0,0,1,.44-2.1,2.561,2.561,0,0,1,.463-2.466,2.383,2.383,0,0,1,2.025-.835,1.815,1.815,0,0,1,3.448-.726l0,.016a1.8,1.8,0,0,1-.048,1.488.928.928,0,0,1-.359,1.668,1.521,1.521,0,0,1,.47,2.479,1.519,1.519,0,0,1-.257,2.307,2.658,2.658,0,0,1,.538,1.658,5.079,5.079,0,0,1-.468,1.679,1.833,1.833,0,1,1-3.353,1.025Z" transform="translate(-190.836 -199.105)" fill="#f89919"/>
        </g>
        <g id="Grupo_955629" data-name="Grupo 955629" transform="translate(8.933 1.403)">
          <g id="Grupo_955618" data-name="Grupo 955618">
            <path id="Trazado_719199" data-name="Trazado 719199" d="M228.21,213.813a2.022,2.022,0,0,1-1.735-3.062,4.894,4.894,0,0,1-.443-1.664,2.942,2.942,0,0,1,.464-1.619,1.709,1.709,0,0,1-.247-2.34,1.712,1.712,0,0,1,.3-2.455,1.117,1.117,0,0,1-.164-1.751,1.988,1.988,0,0,1-.006-1.469.177.177,0,0,1,.016-.064,2,2,0,0,1,3.794.621,2.488,2.488,0,0,1,2,.906,2.767,2.767,0,0,1,.532,2.539,2.206,2.206,0,0,1,.437,2.1,1.742,1.742,0,0,1,.481,1.216,1.861,1.861,0,0,1-.835,1.57,2.6,2.6,0,0,1-2.575,3.633A2.025,2.025,0,0,1,228.21,213.813Zm-1.457-14.3a.17.17,0,0,1-.011.045,1.606,1.606,0,0,0-.124.618,1.588,1.588,0,0,0,.166.712.19.19,0,0,1-.06.239.738.738,0,0,0,.285,1.327.19.19,0,0,1,.039.361,1.331,1.331,0,0,0-.412,2.17.19.19,0,0,1,0,.266,1.33,1.33,0,0,0,.226,2.018.19.19,0,0,1,.042.277,2.483,2.483,0,0,0-.5,1.538,4.919,4.919,0,0,0,.45,1.6.191.191,0,0,1-.014.188,1.643,1.643,0,1,0,3,.918.243.243,0,0,1,.252-.211,2.219,2.219,0,0,0,2.286-3.213.19.19,0,0,1,.062-.245,1.543,1.543,0,0,0,.8-1.35,1.436,1.436,0,0,0-.458-1.048.191.191,0,0,1-.036-.193,1.824,1.824,0,0,0-.4-1.9.19.19,0,0,1-.04-.2,2.386,2.386,0,0,0-.437-2.279,2.144,2.144,0,0,0-1.866-.761h-.009a.19.19,0,0,1-.19-.183,1.625,1.625,0,0,0-3.067-.689Z" transform="translate(-225.862 -198.254)" fill="#3d4655"/>
          </g>
          <g id="Grupo_955619" data-name="Grupo 955619" transform="translate(3.178 11.836)">
            <path id="Trazado_719200" data-name="Trazado 719200" d="M240.729,253.913a.19.19,0,0,1-.16-.293,1.643,1.643,0,0,0-.457-2.246.19.19,0,0,1,.214-.314,2.023,2.023,0,0,1,.563,2.766A.19.19,0,0,1,240.729,253.913Z" transform="translate(-240.029 -251.027)" fill="#3d4655"/>
          </g>
          <g id="Grupo_955620" data-name="Grupo 955620" transform="translate(5.166 6.39)">
            <path id="Trazado_719201" data-name="Trazado 719201" d="M249.083,228.982a.19.19,0,0,1,0-.38,1.669,1.669,0,0,0,1.668-1.667.19.19,0,1,1,.38,0A2.05,2.05,0,0,1,249.083,228.982Z" transform="translate(-248.893 -226.744)" fill="#3d4655"/>
          </g>
          <g id="Grupo_955621" data-name="Grupo 955621" transform="translate(2.402 1.756)">
            <path id="Trazado_719202" data-name="Trazado 719202" d="M236.762,207.166a.19.19,0,0,1-.131-.328,2.728,2.728,0,0,1,1.89-.755.19.19,0,0,1,0,.38,2.348,2.348,0,0,0-1.627.651A.19.19,0,0,1,236.762,207.166Z" transform="translate(-236.572 -206.083)" fill="#3d4655"/>
          </g>
          <g id="Grupo_955622" data-name="Grupo 955622" transform="translate(1.466 2.03)">
            <path id="Trazado_719203" data-name="Trazado 719203" d="M234.251,210.132a1.864,1.864,0,0,1-1.356-.69,1.515,1.515,0,0,1-.141-2.091.19.19,0,0,1,.248.288c-.367.316-.286,1.014.181,1.555s1.145.724,1.512.408a.19.19,0,0,1,.248.288A1.039,1.039,0,0,1,234.251,210.132Z" transform="translate(-232.398 -207.305)" fill="#3d4655"/>
          </g>
          <g id="Grupo_955623" data-name="Grupo 955623" transform="translate(4.276 4.401)">
            <path id="Trazado_719204" data-name="Trazado 719204" d="M245.805,220.332a.188.188,0,0,1-.068-.013,1.265,1.265,0,1,1,.909-2.36.19.19,0,1,1-.137.355.885.885,0,1,0-.636,1.651.19.19,0,0,1-.068.368Z" transform="translate(-244.927 -217.875)" fill="#3d4655"/>
          </g>
          <g id="Grupo_955624" data-name="Grupo 955624" transform="translate(1.527 10.797)">
            <path id="Trazado_719205" data-name="Trazado 719205" d="M233.546,248.852a.193.193,0,0,1-.068-.013,1.265,1.265,0,0,1,.909-2.361.19.19,0,0,1-.137.355.885.885,0,0,0-.636,1.651.19.19,0,0,1-.068.367Z" transform="translate(-232.668 -246.393)" fill="#3d4655"/>
          </g>
          <g id="Grupo_955625" data-name="Grupo 955625" transform="translate(2.366 8.596)">
            <path id="Trazado_719206" data-name="Trazado 719206" d="M237.418,237.776a1.007,1.007,0,0,1-1.006-1.006.19.19,0,1,1,.38,0,.626.626,0,1,0,1.252,0,.19.19,0,1,1,.38,0A1.007,1.007,0,0,1,237.418,237.776Z" transform="translate(-236.412 -236.58)" fill="#3d4655"/>
          </g>
          <g id="Grupo_955626" data-name="Grupo 955626" transform="translate(4.712 9.274)">
            <path id="Trazado_719207" data-name="Trazado 719207" d="M247.82,241.612h-.014a1.006,1.006,0,0,1,.145-2.007.19.19,0,0,1-.027.38.626.626,0,1,0-.09,1.248.19.19,0,0,1-.013.38Z" transform="translate(-246.872 -239.602)" fill="#3d4655"/>
          </g>
          <g id="Grupo_955627" data-name="Grupo 955627" transform="translate(1.845 4.48)">
            <path id="Trazado_719208" data-name="Trazado 719208" d="M235.034,220.237h-.014a1.006,1.006,0,0,1,.144-2.007.19.19,0,1,1-.027.379.626.626,0,0,0-.09,1.249.19.19,0,0,1-.013.38Z" transform="translate(-234.087 -218.226)" fill="#3d4655"/>
          </g>
          <g id="Grupo_955628" data-name="Grupo 955628" transform="translate(1.238 7.207)">
            <path id="Trazado_719209" data-name="Trazado 719209" d="M231.573,231.45a.19.19,0,0,1-.137-.322,2.691,2.691,0,0,1,3.269-.333.19.19,0,1,1-.188.33,2.3,2.3,0,0,0-2.806.266A.19.19,0,0,1,231.573,231.45Z" transform="translate(-231.383 -230.387)" fill="#3d4655"/>
          </g>
        </g>
        <g id="Grupo_955641" data-name="Grupo 955641" transform="translate(0.833 1.404)">
          <g id="Grupo_955630" data-name="Grupo 955630">
            <path id="Trazado_719210" data-name="Trazado 719210" d="M195.169,213.814a2.026,2.026,0,0,1-2.015-1.839,2.6,2.6,0,0,1-2.575-3.633,1.861,1.861,0,0,1-.835-1.57,1.741,1.741,0,0,1,.481-1.216,2.2,2.2,0,0,1,.437-2.1,2.767,2.767,0,0,1,.532-2.539,2.488,2.488,0,0,1,2-.906,2,2,0,0,1,3.794-.621.19.19,0,0,1,.019.072,1.988,1.988,0,0,1-.01,1.46,1.118,1.118,0,0,1-.164,1.752,1.712,1.712,0,0,1,.3,2.455,1.708,1.708,0,0,1-.247,2.34,2.943,2.943,0,0,1,.464,1.619,4.9,4.9,0,0,1-.442,1.664,2.023,2.023,0,0,1-1.735,3.063Zm-1.748-2.192a.19.19,0,0,1,.1.17,1.643,1.643,0,1,0,3-.918.19.19,0,0,1-.014-.187,4.921,4.921,0,0,0,.449-1.6,2.483,2.483,0,0,0-.5-1.538.189.189,0,0,1-.04-.148.191.191,0,0,1,.082-.129,1.329,1.329,0,0,0,.225-2.018.19.19,0,0,1,0-.266,1.331,1.331,0,0,0-.412-2.17.19.19,0,0,1,.039-.361.738.738,0,0,0,.285-1.327.19.19,0,0,1-.06-.239,1.607,1.607,0,0,0,.043-1.331.189.189,0,0,1-.013-.05,1.625,1.625,0,0,0-3.064.694.19.19,0,0,1-.19.183s-.006,0-.009,0a2.145,2.145,0,0,0-1.866.761,2.388,2.388,0,0,0-.437,2.279.19.19,0,0,1-.04.2,1.821,1.821,0,0,0-.4,1.9.191.191,0,0,1-.036.193,1.434,1.434,0,0,0-.458,1.048,1.543,1.543,0,0,0,.8,1.35.19.19,0,0,1,.062.245,2.219,2.219,0,0,0,2.285,3.213A.189.189,0,0,1,193.422,211.621Z" transform="translate(-189.745 -198.255)" fill="#d83f15"/>
          </g>
          <g id="Grupo_955631" data-name="Grupo 955631" transform="translate(3.414 11.836)">
            <path id="Trazado_719211" data-name="Trazado 719211" d="M205.449,253.912a.189.189,0,0,1-.16-.087,2.024,2.024,0,0,1,.563-2.766.19.19,0,0,1,.214.314,1.647,1.647,0,0,0-.717,1.322,1.63,1.63,0,0,0,.26.924.19.19,0,0,1-.16.293Z" transform="translate(-204.968 -251.026)" fill="#d83f15"/>
          </g>
          <g id="Grupo_955632" data-name="Grupo 955632" transform="translate(0.369 6.39)">
            <path id="Trazado_719212" data-name="Trazado 719212" d="M193.439,228.982a2.05,2.05,0,0,1-2.048-2.048.19.19,0,1,1,.38,0,1.669,1.669,0,0,0,1.668,1.667.19.19,0,0,1,0,.38Z" transform="translate(-191.391 -226.744)" fill="#d83f15"/>
          </g>
          <g id="Grupo_955633" data-name="Grupo 955633" transform="translate(3.232 1.756)">
            <path id="Trazado_719213" data-name="Trazado 719213" d="M206.1,207.166a.19.19,0,0,1-.131-.052,2.349,2.349,0,0,0-1.627-.651.19.19,0,0,1,0-.38,2.729,2.729,0,0,1,1.889.755.19.19,0,0,1-.131.328Z" transform="translate(-204.155 -206.083)" fill="#d83f15"/>
          </g>
          <g id="Grupo_955634" data-name="Grupo 955634" transform="translate(3.696 2.03)">
            <path id="Trazado_719214" data-name="Trazado 719214" d="M206.982,210.132a1.041,1.041,0,0,1-.691-.242.19.19,0,0,1,.248-.288c.367.316,1.045.133,1.511-.408a1.621,1.621,0,0,0,.4-.893.757.757,0,0,0-.223-.662.19.19,0,1,1,.248-.288,1.124,1.124,0,0,1,.353.984,2,2,0,0,1-.495,1.108A1.864,1.864,0,0,1,206.982,210.132Z" transform="translate(-206.225 -207.305)" fill="#d83f15"/>
          </g>
          <g id="Grupo_955635" data-name="Grupo 955635" transform="translate(1.655 4.4)">
            <path id="Trazado_719215" data-name="Trazado 719215" d="M198.088,220.33a.19.19,0,0,1-.068-.368.884.884,0,1,0-.636-1.651.19.19,0,1,1-.137-.355,1.265,1.265,0,1,1,.909,2.36A.189.189,0,0,1,198.088,220.33Z" transform="translate(-197.125 -217.871)" fill="#d83f15"/>
          </g>
          <g id="Grupo_955636" data-name="Grupo 955636" transform="translate(4.405 10.797)">
            <path id="Trazado_719216" data-name="Trazado 719216" d="M210.347,248.854a.19.19,0,0,1-.068-.367.885.885,0,1,0-.636-1.651.19.19,0,1,1-.137-.355,1.265,1.265,0,1,1,.909,2.361A.192.192,0,0,1,210.347,248.854Z" transform="translate(-209.384 -246.396)" fill="#d83f15"/>
          </g>
          <g id="Grupo_955637" data-name="Grupo 955637" transform="translate(3.394 8.596)">
            <path id="Trazado_719217" data-name="Trazado 719217" d="M205.885,237.776a1.007,1.007,0,0,1-1.006-1.006.19.19,0,1,1,.38,0,.626.626,0,0,0,1.252,0,.19.19,0,1,1,.38,0A1.007,1.007,0,0,1,205.885,237.776Z" transform="translate(-204.879 -236.58)" fill="#d83f15"/>
          </g>
          <g id="Grupo_955638" data-name="Grupo 955638" transform="translate(1.806 9.273)">
            <path id="Trazado_719218" data-name="Trazado 719218" d="M198.1,241.612a.19.19,0,0,1-.013-.38.626.626,0,1,0-.09-1.248.188.188,0,0,1-.2-.176.19.19,0,0,1,.176-.2,1.006,1.006,0,0,1,.145,2.007Z" transform="translate(-197.796 -239.601)" fill="#d83f15"/>
          </g>
          <g id="Grupo_955639" data-name="Grupo 955639" transform="translate(4.673 4.479)">
            <path id="Trazado_719219" data-name="Trazado 719219" d="M210.888,220.237a.19.19,0,0,1-.013-.38.626.626,0,1,0-.09-1.249.19.19,0,1,1-.027-.379,1.006,1.006,0,1,1,.144,2.007Z" transform="translate(-210.581 -218.227)" fill="#d83f15"/>
          </g>
          <g id="Grupo_955640" data-name="Grupo 955640" transform="translate(3.117 7.206)">
            <path id="Trazado_719220" data-name="Trazado 719220" d="M206.868,231.449a.189.189,0,0,1-.137-.059h0a2.278,2.278,0,0,0-2.806-.266.19.19,0,1,1-.189-.33,2.69,2.69,0,0,1,3.269.333.19.19,0,0,1-.137.322Z" transform="translate(-203.641 -230.386)" fill="#d83f15"/>
          </g>
        </g>
      </g>
    </g>
  </g>
</svg>
