<svg xmlns="http://www.w3.org/2000/svg" width="91.382" height="91.363" viewBox="0 0 91.382 91.363">
  <g id="pregunta" transform="translate(0 -0.02)">
    <circle id="Elipse_5677" data-name="Elipse 5677" cx="45.545" cy="45.545" r="45.545" transform="translate(0.292 0.292)" fill="#5c5e70"/>
    <path id="Trazado_719224" data-name="Trazado 719224" d="M24.476.106A25.024,25.024,0,0,0,6.082,41.476a7.57,7.57,0,0,1,1.373,7.495L5.809,53.58a1.607,1.607,0,0,0,2.476,1.827l5.838-4.367a7.654,7.654,0,0,1,6.072-1.363A25.024,25.024,0,1,0,24.476.106Z" transform="translate(0 -0.081)" fill="#ff525d"/>
    <path id="Trazado_719225" data-name="Trazado 719225" d="M233.334,154.909a9.372,9.372,0,0,0-1.674,9.133l.791,2.217q-1.5,1.737-3.166,3.319l-4.917-3.672a9.275,9.275,0,0,0-7.242-1.687,29.173,29.173,0,0,1-4.812.578,27.283,27.283,0,1,1,21.019-9.887Z" transform="translate(-151.902 -90.491)" fill="#ffd15c"/>
    <g id="Grupo_955651" data-name="Grupo 955651" transform="translate(15.557 7.996)">
      <path id="Trazado_719226" data-name="Trazado 719226" d="M323.607,194.531a3.936,3.936,0,0,1-3.827,3.877,3.877,3.877,0,1,1,3.827-3.877Zm-.957-9.567c0,1.561-1.712,2.216-2.921,2.216-1.611,0-2.971-.655-2.971-2.216,0-5.992-.7-14.6-.7-20.595,0-1.964,1.611-3.072,3.676-3.072,1.964,0,3.625,1.108,3.625,3.072C323.355,170.362,322.65,178.972,322.65,184.964Z" transform="translate(-274.899 -140.414)" fill="#f9eed7"/>
      <path id="Trazado_719227" data-name="Trazado 719227" d="M100.649,60.726c-2.54,1.986-2.586,3.371-2.586,5.773,0,.878-.462,1.893-2.725,1.893-1.893,0-2.54-.693-2.54-3.094a8.454,8.454,0,0,1,3.094-7.019c1.524-1.293,4.11-2.725,4.11-5.218,0-2.124-1.847-3.14-4.156-3.14-4.71,0-3.695,3.556-6.188,3.556a2.648,2.648,0,0,1-2.771-2.633c0-2.494,2.863-6.188,9.1-6.188,5.911,0,9.836,3.279,9.836,7.62S101.9,59.756,100.649,60.726ZM98.94,75.135a3.588,3.588,0,0,1-3.556,3.556,3.556,3.556,0,0,1,0-7.112A3.588,3.588,0,0,1,98.94,75.135Z" transform="translate(-86.887 -44.655)" fill="#f9eed7"/>
    </g>
  </g>
</svg>
