<svg xmlns="http://www.w3.org/2000/svg" width="165" height="165" viewBox="0 0 165 165">
  <g id="Grupo_953269" data-name="Grupo 953269" transform="translate(-928 -1029)">
    <circle id="Elipse_5412" data-name="Elipse 5412" cx="82.5" cy="82.5" r="82.5" transform="translate(928 1029)" fill="#b7ceac"/>
    <g id="take-a-photo" transform="translate(936 1045)">
      <path id="Trazado_690711" data-name="Trazado 690711" d="M137.282,83.2l.882-.259a63.525,63.525,0,0,0-126.944,0l.882.259Z" transform="translate(-0.163 -16.296)" fill="#fee45a"/>
      <path id="Trazado_690712" data-name="Trazado 690712" d="M320.049,161.4l-.324-.043L316.8,164.28a.518.518,0,0,1-.733,0l-2.79-2.789a1.037,1.037,0,0,0-1.467,0l-4.445,4.445a.518.518,0,0,1-.742-.009l-4.787-5.011-.322.039L287,186.091h47.308Z" transform="translate(-204.433 -119.191)" fill="#c4e2ff"/>
      <g id="Grupo_947403" data-name="Grupo 947403" transform="translate(82.567 41.765)">
        <path id="Trazado_690713" data-name="Trazado 690713" d="M301.512,161.067,287,186.2h6.627l12.015-20.811Z" transform="translate(-287 -161.067)" fill="#b3dafe"/>
      </g>
      <g id="Grupo_947404" data-name="Grupo 947404" transform="translate(97.079 28.523)">
        <path id="Trazado_690714" data-name="Trazado 690714" d="M353.444,123.96a.778.778,0,0,1,1.1,0l2.789,2.789a.778.778,0,0,0,1.1,0l3.069-3.069-7.15-12.384a2.593,2.593,0,0,0-4.491,0l-6.9,11.945,4.922,5.151a.778.778,0,0,0,1.112.013Z" transform="translate(-342.965 -110)" fill="#eaf6ff"/>
      </g>
      <path id="Trazado_690715" data-name="Trazado 690715" d="M97.008,79.937l-.324-.043-5.5,5.5L80.767,74.978a1.037,1.037,0,0,0-1.467,0l-4.086,4.086a.519.519,0,0,1-.733,0l-5.989-5.989-.337.029L40.487,121.026h63.921l8.161-14.136Z" transform="translate(-21.841 -54.127)" fill="#c4e2ff"/>
      <g id="Grupo_947405" data-name="Grupo 947405" transform="translate(18.646 18.978)">
        <path id="Trazado_690716" data-name="Trazado 690716" d="M68.155,73.188,40.487,121.11h8.787L73.725,78.759Z" transform="translate(-40.487 -73.188)" fill="#b3dafe"/>
      </g>
      <g id="Grupo_947406" data-name="Grupo 947406" transform="translate(14.722 56.527)">
        <path id="Trazado_690717" data-name="Trazado 690717" d="M25.354,228.372a9.332,9.332,0,0,1,14.727-6.256,9.336,9.336,0,0,1,17.075,5.219,9.447,9.447,0,0,1-.059,1.037Z" transform="translate(-25.354 -218)" fill="#8bc727"/>
      </g>
      <g id="Grupo_947407" data-name="Grupo 947407" transform="translate(14.722 58.861)">
        <path id="Trazado_690718" data-name="Trazado 690718" d="M36.8,227.263a9.338,9.338,0,0,0-11.448,7.775h4.408A9.342,9.342,0,0,1,36.8,227.263Z" transform="translate(-25.354 -227)" fill="#81b823"/>
      </g>
      <g id="Grupo_947408" data-name="Grupo 947408" transform="translate(90.58 54.972)">
        <path id="Trazado_690719" data-name="Trazado 690719" d="M352.507,215.89a9.287,9.287,0,0,0-5.034,1.476,9.336,9.336,0,0,0-16.9.013,9.325,9.325,0,0,0-12.665,6.549H361.75A9.335,9.335,0,0,0,352.507,215.89Z" transform="translate(-317.903 -212)" fill="#8bc727"/>
      </g>
      <path id="Trazado_690720" data-name="Trazado 690720" d="M138,257H11.057c-.034.86-.057,1.724-.057,2.593a63.4,63.4,0,0,0,3.837,21.781l.933.259H133.292l.933-.259a63.393,63.393,0,0,0,3.833-21.781C138.057,258.724,138.035,257.86,138,257Z" transform="translate(0 -190.36)" fill="#60b7ff"/>
      <g id="Grupo_947409" data-name="Grupo 947409" transform="translate(46.314 0)">
        <path id="Trazado_690721" data-name="Trazado 690721" d="M154.432,25.121l4.086-4.086a.778.778,0,0,1,1.1,0l10.6,10.6,5.824-5.824L161.888,1.3a2.593,2.593,0,0,0-4.491,0L147.189,18.978l6.143,6.143A.778.778,0,0,0,154.432,25.121Z" transform="translate(-147.189 0)" fill="#eaf6ff"/>
      </g>
      <path id="Trazado_690722" data-name="Trazado 690722" d="M161.888,1.3a2.593,2.593,0,0,0-4.491,0L147.189,18.978l5.571,5.571L164.036,5.016Z" transform="translate(-100.875 0)" fill="#d8ecfe"/>
      <path id="Trazado_690723" data-name="Trazado 690723" d="M347.1,127.565l8.325-14.419-1.068-1.85a2.593,2.593,0,0,0-4.491,0l-6.9,11.945Z" transform="translate(-245.886 -81.477)" fill="#d8ecfe"/>
      <g id="Grupo_947410" data-name="Grupo 947410" transform="translate(93.829 71.178)">
        <path id="Trazado_690724" data-name="Trazado 690724" d="M365.854,284.007h-11.77a2.377,2.377,0,1,1,0-4.754h4.639a2.377,2.377,0,0,0,0-4.754H331.855a2.363,2.363,0,0,0-1.424.477,10.7,10.7,0,0,1,6.263,4.277h3.876a2.377,2.377,0,0,1,0,4.754h-2.041a10.725,10.725,0,0,1,.088,1.346v.912l.1.078a8.659,8.659,0,0,1,2.1,2.418h25.039a2.377,2.377,0,1,0,0-4.754Z" transform="translate(-330.431 -274.499)" fill="#26a6fe"/>
      </g>
      <path id="Trazado_690725" data-name="Trazado 690725" d="M55.56,278.715a1.269,1.269,0,0,1,1.224-.939,1.293,1.293,0,0,1,.246.024l.31.061v-1.515a2.6,2.6,0,0,1,2.6-2.6H63V272H37.377a2.377,2.377,0,0,0,0,4.754h8.715a2.377,2.377,0,0,1,0,4.754h-5.7a2.377,2.377,0,1,0,0,4.754h13.15Z" transform="translate(-17.777 -201.47)" fill="#26a6fe"/>
      <g id="Grupo_947412" data-name="Grupo 947412" transform="translate(85.53 71.1)">
        <g id="Grupo_947411" data-name="Grupo 947411">
          <path id="Trazado_690726" data-name="Trazado 690726" d="M299.083,278.345l-.658.47H300a1.038,1.038,0,0,1,1.037,1.037v1.408l.389-.226a1.02,1.02,0,0,1,.518-.145h5.222a3.62,3.62,0,0,1,3.609,3.245l.021.2.2.031a8.607,8.607,0,0,1,4.175,1.866v-1.1A10.931,10.931,0,0,0,304.238,274.2h-1.863A9.667,9.667,0,0,1,299.083,278.345Z" transform="translate(-298.425 -274.2)" fill="#8d9ca8"/>
        </g>
      </g>
      <g id="Grupo_947413" data-name="Grupo 947413" transform="translate(14.837 91.014)">
        <path id="Trazado_690727" data-name="Trazado 690727" d="M56.571,362.518l2.685-10.02.133-1.5H25.8a63.743,63.743,0,0,0,30.516,34.663h.259V362.518Z" transform="translate(-25.796 -351)" fill="#ea9b58"/>
        <path id="Trazado_690728" data-name="Trazado 690728" d="M375,351v33.613h.259A63.735,63.735,0,0,0,403.839,351Z" transform="translate(-284.451 -351)" fill="#ea9b58"/>
      </g>
      <g id="Grupo_947414" data-name="Grupo 947414" transform="translate(97.872 80.973)">
        <path id="Trazado_690729" data-name="Trazado 690729" d="M346.022,312.273a3.643,3.643,0,0,1,.031.448v46.9a63.277,63.277,0,0,0,7.743-3.691V321.079A8.877,8.877,0,0,0,346.022,312.273Z" transform="translate(-346.022 -312.273)" fill="#81b823"/>
      </g>
      <g id="Grupo_947436" data-name="Grupo 947436" transform="translate(27.595 24.115)">
        <g id="Grupo_947427" data-name="Grupo 947427">
          <path id="Trazado_690730" data-name="Trazado 690730" d="M185.235,336.553h-9.076a1.038,1.038,0,0,1-1.037-1.037V333.6l-.286.03a2.359,2.359,0,0,1-.244.013H148.28l-.038.214a2.6,2.6,0,0,1-.906,1.548l-.064.053-3.789,14.14v23.179a63.7,63.7,0,0,0,42.659,5.645v-42.41a1.034,1.034,0,0,1-.908.546Z" transform="translate(-125.725 -271.209)" fill="#8bc727"/>
          <g id="Grupo_947416" data-name="Grupo 947416" transform="translate(23.301 53.416)">
            <g id="Grupo_947415" data-name="Grupo 947415" transform="translate(36.857)">
              <path id="Trazado_690731" data-name="Trazado 690731" d="M313.519,299H308.3a1.3,1.3,0,0,0-1.3,1.3v52.552a63.024,63.024,0,0,0,10.408-3.162v-46.8A3.89,3.89,0,0,0,313.519,299Z" transform="translate(-307 -299)" fill="#596c76"/>
            </g>
            <path id="Trazado_690732" data-name="Trazado 690732" d="M311.408,300.3a1.3,1.3,0,0,1,1.3-1.3H308.3a1.3,1.3,0,0,0-1.3,1.3v52.552q2.235-.473,4.408-1.1Z" transform="translate(-270.143 -299)" fill="#465a61"/>
            <path id="Trazado_690733" data-name="Trazado 690733" d="M164.86,333.76v41.673a63.052,63.052,0,0,0,10.408,3.162V333.76Z" transform="translate(-164.86 -324.747)" fill="#596c76"/>
            <path id="Trazado_690734" data-name="Trazado 690734" d="M164.86,333.76v41.673q2.165.868,4.408,1.577V333.76Z" transform="translate(-164.86 -324.747)" fill="#465a61"/>
          </g>
          <g id="Grupo_947417" data-name="Grupo 947417" transform="translate(0 51.929)">
            <path id="Trazado_690735" data-name="Trazado 690735" d="M94.962,306.123h-5.4a2.6,2.6,0,0,1-2.6-2.6V293.362l-.158-.043a1.528,1.528,0,0,0-1.872,1.081l-9.691,36.168a7.183,7.183,0,0,0,13.877,3.718l7.782-29.045A2.589,2.589,0,0,1,94.962,306.123Z" transform="translate(-75 -293.267)" fill="#81b823"/>
          </g>
          <path id="Trazado_690736" data-name="Trazado 690736" d="M80.692,330.568l6.821-25.457a2.582,2.582,0,0,1-.545-1.586V293.362l-.158-.043a1.528,1.528,0,0,0-1.872,1.081l-9.691,36.168a7.182,7.182,0,0,0,9.662,8.505A7.183,7.183,0,0,1,80.692,330.568Z" transform="translate(-75 -241.337)" fill="#78a91f"/>
          <path id="Trazado_690737" data-name="Trazado 690737" d="M247.649,336.495a1.038,1.038,0,0,1-1.037-1.037v-1.94a2.323,2.323,0,0,1-.53.063h-4.4v1.877a1.038,1.038,0,0,1-1.037,1.037H240v43.165c1.372.088,2.755.138,4.149.138s2.777-.05,4.149-.138V336.495Z" transform="translate(-197.215 -271.151)" fill="#fff"/>
          <g id="Grupo_947418" data-name="Grupo 947418" transform="translate(42.785 62.429)">
            <path id="Trazado_690738" data-name="Trazado 690738" d="M243.241,336.675a1.037,1.037,0,0,0,1.037-1.037V333.76h-2.593v1.877a1.037,1.037,0,0,1-1.037,1.037H240v43.165q1.29.083,2.593.116V337.323A.648.648,0,0,1,243.241,336.675Z" transform="translate(-240 -333.76)" fill="#eaf6ff"/>
          </g>
          <g id="Grupo_947419" data-name="Grupo 947419" transform="translate(33.061 51.342)">
            <path id="Trazado_690739" data-name="Trazado 690739" d="M202.5,333.76v1.877a1.3,1.3,0,0,0,1.3,1.3h9.076a1.3,1.3,0,0,0,1.3-1.3V333.76Z" transform="translate(-202.5 -322.672)" fill="#81b823"/>
            <path id="Trazado_690740" data-name="Trazado 690740" d="M206.778,335.637V333.76H202.5v1.877a1.3,1.3,0,0,0,1.3,1.3h4.278A1.3,1.3,0,0,1,206.778,335.637Z" transform="translate(-202.5 -322.672)" fill="#78a91f"/>
            <path id="Trazado_690741" data-name="Trazado 690741" d="M274.872,291h-8.309v8.754a2.336,2.336,0,0,1-2.063,2.317v1.894a1.3,1.3,0,0,0,1.3,1.3h9.076a1.3,1.3,0,0,0,1.3-1.3V292.3a1.3,1.3,0,0,0-1.3-1.3Z" transform="translate(-248.423 -291)" fill="#81b823"/>
            <path id="Trazado_690742" data-name="Trazado 690742" d="M268.778,303.965V292.3a1.3,1.3,0,0,1,1.3-1.3h-3.512v8.754a2.336,2.336,0,0,1-2.063,2.317v1.894a1.3,1.3,0,0,0,1.3,1.3h4.278A1.3,1.3,0,0,1,268.778,303.965Z" transform="translate(-248.423 -291)" fill="#78a91f"/>
          </g>
          <g id="Grupo_947425" data-name="Grupo 947425" transform="translate(17.373)">
            <g id="Grupo_947420" data-name="Grupo 947420" transform="translate(4.109 28.264)">
              <path id="Trazado_690743" data-name="Trazado 690743" d="M167.6,214.187V202H162.39a6.513,6.513,0,0,0-4.542,6.207v1.522a6.486,6.486,0,0,0,1.768,4.458Z" transform="translate(-157.848 -202)" fill="#f6a96c"/>
              <path id="Trazado_690744" data-name="Trazado 690744" d="M321.746,202h-5.212v14.24h3.244a6.51,6.51,0,0,0,6.51-6.511v-1.522A6.513,6.513,0,0,0,321.746,202Z" transform="translate(-275.386 -202)" fill="#ffbd86"/>
            </g>
            <path id="Trazado_690745" data-name="Trazado 690745" d="M194.467,202v12.187h19.185a1.038,1.038,0,0,1,1.037,1.037v11.7h1.794a9.9,9.9,0,0,0,9.895-9.895V202Z" transform="translate(-180.862 -173.736)" fill="#fed2a4"/>
            <path id="Trazado_690746" data-name="Trazado 690746" d="M194.467,202h6.6v12.187h-6.6Z" transform="translate(-180.862 -173.736)" fill="#ffbd86"/>
            <g id="Grupo_947421" data-name="Grupo 947421" transform="translate(9.076 0)">
              <path id="Trazado_690747" data-name="Trazado 690747" d="M217.97,112.448v-2.531A16.917,16.917,0,0,0,201.053,93h-7.136A16.917,16.917,0,0,0,177,109.917v2.531Z" transform="translate(-177 -93)" fill="#8d9ca8"/>
            </g>
            <path id="Trazado_690748" data-name="Trazado 690748" d="M201.634,93.015c-.193-.006-.386-.015-.581-.015h-7.136A16.917,16.917,0,0,0,177,109.917v2.531h8.3v-2.531a16.914,16.914,0,0,1,16.336-16.9Z" transform="translate(-167.924 -93)" fill="#7a8c98"/>
            <g id="Grupo_947424" data-name="Grupo 947424" transform="translate(0 30.878)">
              <g id="Grupo_947422" data-name="Grupo 947422" transform="translate(33.827 11.443)">
                <path id="Trazado_690749" data-name="Trazado 690749" d="M274.361,256.916a1.944,1.944,0,0,0-1.906-.661v4.488a9.259,9.259,0,0,0,1.648-1.089A1.945,1.945,0,0,0,274.361,256.916Z" transform="translate(-272.455 -256.212)" fill="#d88a55"/>
              </g>
              <path id="Trazado_690750" data-name="Trazado 690750" d="M174.79,248H143.3a1.3,1.3,0,0,0-1.3,1.3V254l.907.259h32.065l1.114-.259v-4.7a1.3,1.3,0,0,0-1.3-1.3Z" transform="translate(-142 -238.686)" fill="#fff"/>
              <g id="Grupo_947423" data-name="Grupo 947423" transform="translate(24.577)">
                <path id="Trazado_690751" data-name="Trazado 690751" d="M241.762,221.134a1.936,1.936,0,0,1-1.023-.292l-3.039-1.885a1.945,1.945,0,0,1-.4-2.975l3.039-3.277a1.945,1.945,0,1,1,2.852,2.645l-1.434,1.546,1.033.641a1.945,1.945,0,0,1-1.027,3.6Z" transform="translate(-236.78 -212.082)" fill="#d88a55"/>
              </g>
            </g>
          </g>
          <g id="Grupo_947426" data-name="Grupo 947426" transform="translate(35.871 28.264)">
            <path id="Trazado_690752" data-name="Trazado 690752" d="M213.566,202a1.934,1.934,0,0,0-.228.912v3.343a1.945,1.945,0,1,0,3.89,0v-3.343A1.935,1.935,0,0,0,217,202Z" transform="translate(-213.338 -202)" fill="#d88a55"/>
            <path id="Trazado_690753" data-name="Trazado 690753" d="M283.889,202a1.934,1.934,0,0,0-.228.912v3.343a1.945,1.945,0,1,0,3.889,0v-3.343a1.935,1.935,0,0,0-.228-.912Z" transform="translate(-265.426 -202)" fill="#d88a55"/>
          </g>
        </g>
        <g id="Grupo_947431" data-name="Grupo 947431" transform="translate(17.373 40.192)">
          <path id="Trazado_690754" data-name="Trazado 690754" d="M142,271.136v1.973h2.589a2.59,2.59,0,0,1,1.928,4.329l-.156.173.156.173a2.572,2.572,0,0,1,0,3.462l-.156.173.156.173a2.572,2.572,0,0,1,0,3.462l-.156.173.156.173a2.569,2.569,0,0,1,.62,2.232h26.357a2.593,2.593,0,0,0,2.593-2.593v-13.9H142Z" transform="translate(-142 -265.137)" fill="#8d9ca8"/>
          <path id="Trazado_690755" data-name="Trazado 690755" d="M149.92,248H143.3a1.3,1.3,0,0,0-1.3,1.3V254h6.624v-4.7a1.3,1.3,0,0,1,1.3-1.3Z" transform="translate(-142 -248)" fill="#eaf6ff"/>
          <path id="Trazado_690756" data-name="Trazado 690756" d="M142,271.136v1.973h2.589a2.59,2.59,0,0,1,1.928,4.329l-.156.173.156.173a2.572,2.572,0,0,1,0,3.462l-.156.173.156.173a2.572,2.572,0,0,1,0,3.462l-.156.173.156.173a2.569,2.569,0,0,1,.62,2.232h1.487v-16.5H142Z" transform="translate(-142 -265.137)" fill="#7a8c98"/>
          <path id="Trazado_690757" data-name="Trazado 690757" d="M236.623,280.2a3.227,3.227,0,0,0-.835.113,7.907,7.907,0,0,1,0,6.256,3.24,3.24,0,1,0,.835-6.369Z" transform="translate(-211.469 -271.847)" fill="#d9e7ec"/>
          <g id="Grupo_947428" data-name="Grupo 947428" transform="translate(8.862 3.409)">
            <circle id="Elipse_5495" data-name="Elipse 5495" cx="8.181" cy="8.181" r="8.181" fill="#b6c4cf"/>
          </g>
          <g id="Grupo_947429" data-name="Grupo 947429" transform="translate(12.271 6.817)">
            <circle id="Elipse_5496" data-name="Elipse 5496" cx="4.772" cy="4.772" r="4.772" fill="#596c76"/>
          </g>
          <path id="Trazado_690758" data-name="Trazado 690758" d="M193.7,279.063a4.774,4.774,0,0,1,2.585-4.237,4.772,4.772,0,1,0,0,8.473A4.774,4.774,0,0,1,193.7,279.063Z" transform="translate(-177.052 -267.474)" fill="#465a61"/>
          <g id="Grupo_947430" data-name="Grupo 947430" transform="translate(26.178 1.363)">
            <path id="Trazado_690759" data-name="Trazado 690759" d="M248.178,256.53h-4.443a.778.778,0,0,1-.778-.778v-1.717a.778.778,0,0,1,.778-.778h4.443a.778.778,0,0,1,.778.778v1.717A.778.778,0,0,1,248.178,256.53Z" transform="translate(-242.957 -253.258)" fill="#c4e2ff"/>
          </g>
          <path id="Trazado_690760" data-name="Trazado 690760" d="M245.82,255.752v-1.717a.778.778,0,0,1,.778-.778h-2.863a.778.778,0,0,0-.778.778v1.717a.778.778,0,0,0,.778.778H246.6A.778.778,0,0,1,245.82,255.752Z" transform="translate(-216.779 -251.895)" fill="#b3dafe"/>
        </g>
        <g id="Grupo_947432" data-name="Grupo 947432" transform="translate(24.634 19.188)">
          <path id="Trazado_690761" data-name="Trazado 690761" d="M213.3,176.335H171.3a1.3,1.3,0,0,1-1.3-1.3V168.3a1.3,1.3,0,0,1,1.3-1.3H213.3a1.3,1.3,0,0,1,1.3,1.3v6.742A1.3,1.3,0,0,1,213.3,176.335Z" transform="translate(-170 -167)" fill="#596c76"/>
        </g>
        <g id="Grupo_947433" data-name="Grupo 947433" transform="translate(24.634 19.188)">
          <path id="Trazado_690762" data-name="Trazado 690762" d="M179.594,172.186a1.3,1.3,0,0,1-1.3-1.3V167h-7a1.3,1.3,0,0,0-1.3,1.3v6.742a1.3,1.3,0,0,0,1.3,1.3H213.3a1.3,1.3,0,0,0,1.3-1.3v-2.852Z" transform="translate(-170 -167)" fill="#465a61"/>
        </g>
        <g id="Grupo_947434" data-name="Grupo 947434" transform="translate(39.745 7.123)">
          <ellipse id="Elipse_5497" data-name="Elipse 5497" cx="7.188" cy="4.792" rx="7.188" ry="4.792" transform="translate(0 0)" fill="#eaf6ff"/>
        </g>
        <path id="Trazado_690763" data-name="Trazado 690763" d="M231.149,125.667c0-2.131,2.3-3.927,5.445-4.486A11.862,11.862,0,0,0,234.52,121c-4.153,0-7.52,2.09-7.52,4.667s3.367,4.667,7.52,4.667a11.861,11.861,0,0,0,2.074-.181C233.45,129.595,231.149,127.8,231.149,125.667Z" transform="translate(-187.586 -113.74)" fill="#d8ecfe"/>
        <g id="Grupo_947435" data-name="Grupo 947435" transform="translate(11.709 47.904)">
          <path id="Trazado_690764" data-name="Trazado 690764" d="M130.529,282.5a2.85,2.85,0,0,0-2.12-4.761h-5.4a2.865,2.865,0,0,0-2.857,2.857v11.427a2.865,2.865,0,0,0,2.857,2.857h5.4a2.85,2.85,0,0,0,2.12-4.761,2.831,2.831,0,0,0,0-3.809,2.831,2.831,0,0,0,0-3.809Z" transform="translate(-120.156 -277.743)" fill="#fed2a4"/>
        </g>
        <path id="Trazado_690765" data-name="Trazado 690765" d="M124.564,292.027V280.6a2.865,2.865,0,0,1,2.857-2.857h-4.408a2.865,2.865,0,0,0-2.857,2.857v11.427a2.865,2.865,0,0,0,2.857,2.857h4.408A2.865,2.865,0,0,1,124.564,292.027Z" transform="translate(-108.447 -229.839)" fill="#ffbd86"/>
      </g>
    </g>
  </g>
</svg>
