<svg xmlns="http://www.w3.org/2000/svg" width="70.439" height="77.834" viewBox="0 0 70.439 77.834">
  <g id="guia-turistico" transform="translate(-23.611)">
    <path id="Trazado_700771" data-name="Trazado 700771" d="M217.069,264.232H202.962v12.617a4.585,4.585,0,0,0,4.655,4.185h4.8a4.585,4.585,0,0,0,4.655-4.185V264.232Z" transform="translate(-151.263 -222.851)" fill="#ffdfcf"/>
    <path id="Trazado_700772" data-name="Trazado 700772" d="M246.358,264.232v12.617a4.585,4.585,0,0,1-4.655,4.185h3.384a4.585,4.585,0,0,0,4.655-4.185V264.232Z" transform="translate(-183.937 -222.851)" fill="#ffcebf"/>
    <path id="Trazado_700773" data-name="Trazado 700773" d="M134.574,168.628a4.937,4.937,0,1,1-4.936-4.938A4.936,4.936,0,0,1,134.574,168.628Z" transform="translate(-85.258 -138.055)" fill="#ffdfcf"/>
    <path id="Trazado_700774" data-name="Trazado 700774" d="M146.247,168.628a4.938,4.938,0,0,1-7.707,4.087V164.54a4.937,4.937,0,0,1,7.707,4.087Z" transform="translate(-96.93 -138.055)" fill="#ffcebf"/>
    <circle id="Elipse_5600" data-name="Elipse 5600" cx="4.937" cy="4.937" r="4.937" transform="translate(68.188 25.636)" fill="#ffdfcf"/>
    <path id="Trazado_700775" data-name="Trazado 700775" d="M332.319,163.693a4.934,4.934,0,0,0-1.385.2,4.937,4.937,0,0,1,0,9.478,4.937,4.937,0,1,0,1.385-9.676Z" transform="translate(-259.194 -138.057)" fill="#ffcebf"/>
    <path id="Trazado_700776" data-name="Trazado 700776" d="M184.974,108.195v9.321a9.119,9.119,0,0,1-9.119,9.119H165.349a9.119,9.119,0,0,1-9.119-9.119V97.89h10.093l15.188,8.391Z" transform="translate(-111.85 -82.56)" fill="#ffdfcf"/>
    <path id="Trazado_700777" data-name="Trazado 700777" d="M272.012,153.384v9.321a9.119,9.119,0,0,1-9.119,9.119H259.43a9.119,9.119,0,0,0,9.119-9.119V151.47Z" transform="translate(-198.888 -127.749)" fill="#ffcebf"/>
    <path id="Trazado_700778" data-name="Trazado 700778" d="M220.68,97.893v2a7.185,7.185,0,0,0,6.505,7.153l12.146,1.154v-10.3Z" transform="translate(-166.206 -82.562)" fill="#7a6d79"/>
    <path id="Trazado_700779" data-name="Trazado 700779" d="M317.664,97.893v9.976l3.463.329v-10.3Z" transform="translate(-248.002 -82.562)" fill="#685e68"/>
    <path id="Trazado_700780" data-name="Trazado 700780" d="M203.6,315.319l-10.087,3.02-10.087-3.02v-3.29A2.031,2.031,0,0,1,185.453,310l2.315-.009a3.985,3.985,0,0,1,3.424,1.921l2.35,3.409,2.061-3.268a3.986,3.986,0,0,1,3.506-2.061l2.473.007a2.031,2.031,0,0,1,2.023,2.031Z" transform="translate(-134.79 -261.443)" fill="#fccd7f"/>
    <path id="Trazado_700781" data-name="Trazado 700781" d="M196.225,311.909l2.349,3.409,1.681.9,1.782-.9-2.349-3.409a3.985,3.985,0,0,0-3.424-1.921l-2.315.009a2.03,2.03,0,0,0-.446.052A3.984,3.984,0,0,1,196.225,311.909Z" transform="translate(-143.286 -261.442)" fill="#f0b95f"/>
    <path id="Trazado_700782" data-name="Trazado 700782" d="M282.741,310,280.269,310a4.013,4.013,0,0,0-.609.046,2.031,2.031,0,0,1,1.641,1.992v3.29l1.3.647,2.161-.647v-3.29A2.031,2.031,0,0,0,282.741,310Z" transform="translate(-215.95 -261.448)" fill="#f0b95f"/>
    <path id="Trazado_700783" data-name="Trazado 700783" d="M154.975,63.628H116.62a1.654,1.654,0,0,1-1.212-2.78l6.016-6.473L135.876,53.2l14.294,1.175,6.016,6.473A1.654,1.654,0,0,1,154.975,63.628Z" transform="translate(-77.045 -44.868)" fill="#f6a96c"/>
    <path id="Trazado_700784" data-name="Trazado 700784" d="M327.143,65.914l-6.016-6.473-2.849-.234-.614.234,6.016,6.473a1.654,1.654,0,0,1-1.212,2.78h3.463A1.654,1.654,0,0,0,327.143,65.914Z" transform="translate(-248.002 -49.934)" fill="#ea9b58"/>
    <path id="Trazado_700785" data-name="Trazado 700785" d="M184.974,2.233V7.157l-3.463.565L170.6,8.332,156.23,7.188V2.233A2.233,2.233,0,0,1,158.463,0h24.277a2.233,2.233,0,0,1,2.233,2.233Z" transform="translate(-111.85)" fill="#f6a96c"/>
    <path id="Trazado_700786" data-name="Trazado 700786" d="M309.1,2.233V7.157l-3.463.565V2.233A2.233,2.233,0,0,0,303.4,0h3.463A2.233,2.233,0,0,1,309.1,2.233Z" transform="translate(-235.972)" fill="#ea9b58"/>
    <g id="Grupo_951860" data-name="Grupo 951860" transform="translate(44.38 7.157)">
      <path id="Trazado_700787" data-name="Trazado 700787" d="M184.974,45.7v2.349H156.23V45.731Z" transform="translate(-156.23 -45.7)" fill="#7a6d79"/>
      <path id="Trazado_700788" data-name="Trazado 700788" d="M317.66,45.7h3.463v2.349H317.66Z" transform="translate(-292.379 -45.7)" fill="#685e68"/>
    </g>
    <g id="Grupo_951861" data-name="Grupo 951861" transform="translate(57.577 27.629)">
      <path id="Trazado_700789" data-name="Trazado 700789" d="M241.675,181.3a1.174,1.174,0,0,1-1.175-1.175V177.6a1.175,1.175,0,0,1,2.349,0v2.527A1.174,1.174,0,0,1,241.675,181.3Z" transform="translate(-240.5 -176.424)" fill="#ffcebf"/>
    </g>
    <g id="Grupo_951862" data-name="Grupo 951862" transform="translate(53.31 34.173)">
      <path id="Trazado_700790" data-name="Trazado 700790" d="M219,221.715a10.49,10.49,0,0,1-5.2-1.339,1.175,1.175,0,0,1,1.239-2,8.457,8.457,0,0,0,8.03-.044,1.174,1.174,0,0,1,1.08,2.086A11.1,11.1,0,0,1,219,221.715Z" transform="translate(-213.247 -218.205)" fill="#ffcebf"/>
    </g>
    <path id="Trazado_700791" data-name="Trazado 700791" d="M103.286,361.446l-3.351,1.705-9.479,4.827H77.537l-7.442-1.8-7.442,1.8H49.891l-3.463-1.763-9.368-4.769.6-9.172a8.829,8.829,0,0,1,8.811-8.253H54.91l1.527.9,1.029-.9H83.078l1.315.9,1.272-.9h8.213a8.828,8.828,0,0,1,8.8,8.1l-1.087,1.175,1.242,1.175Z" transform="translate(-11.343 -290.144)" fill="#f6a96c"/>
    <g id="Grupo_951863" data-name="Grupo 951863" transform="translate(35.085 53.876)">
      <path id="Trazado_700792" data-name="Trazado 700792" d="M355.9,344.02h3.463v23.958H355.9Z" transform="translate(-315.335 -344.02)" fill="#ea9b58"/>
      <path id="Trazado_700793" data-name="Trazado 700793" d="M100.343,344.02v23.958l-3.463-1.763V344.022l.041,0Z" transform="translate(-96.88 -344.02)" fill="#ea9b58"/>
      <path id="Trazado_700794" data-name="Trazado 700794" d="M390.841,361.446l-3.351,1.705-.111-1.705-.6-9.172a8.827,8.827,0,0,0-8.77-8.252v0h3.422a8.828,8.828,0,0,1,8.8,8.1l-1.087,1.175,1.242,1.175Z" transform="translate(-333.983 -344.02)" fill="#ea9b58"/>
    </g>
    <path id="Trazado_700795" data-name="Trazado 700795" d="M378.01,455.131h13.907a1.03,1.03,0,0,1,1.03,1.03v4.5a1.03,1.03,0,0,1-1.03,1.03H378.01Z" transform="translate(-298.897 -383.854)" fill="#fccd7f"/>
    <path id="Trazado_700796" data-name="Trazado 700796" d="M448.165,455.131H444.7a1.03,1.03,0,0,1,1.03,1.03v4.5a1.03,1.03,0,0,1-1.03,1.03h3.463a1.03,1.03,0,0,0,1.03-1.03v-4.5A1.03,1.03,0,0,0,448.165,455.131Z" transform="translate(-355.145 -383.854)" fill="#f0b95f"/>
    <path id="Trazado_700797" data-name="Trazado 700797" d="M24.641,455.131H38.548v6.557H24.641a1.03,1.03,0,0,1-1.03-1.03v-4.5A1.03,1.03,0,0,1,24.641,455.131Z" transform="translate(0 -383.854)" fill="#fccd7f"/>
    <path id="Trazado_700798" data-name="Trazado 700798" d="M96.879,455.131h3.463v6.557H96.879Z" transform="translate(-61.794 -383.854)" fill="#f0b95f"/>
    <path id="Trazado_700799" data-name="Trazado 700799" d="M248,344.02h0Z" transform="translate(-189.247 -290.144)" fill="#fccd7f"/>
    <g id="Grupo_951864" data-name="Grupo 951864" transform="translate(85.35 61.976)">
      <path id="Trazado_700800" data-name="Trazado 700800" d="M423.977,398.089h-4.963a1.175,1.175,0,1,1,0-2.349h4.808c0,.05.009.1.013.153Z" transform="translate(-417.84 -395.74)" fill="#fe646f"/>
      <path id="Trazado_700801" data-name="Trazado 700801" d="M437.548,398.089h-3.463l-.142-2.2c0-.052-.008-.1-.013-.153h3.463c0,.05.009.1.013.153Z" transform="translate(-431.41 -395.74)" fill="#fd4755"/>
    </g>
    <path id="Trazado_700802" data-name="Trazado 700802" d="M181.795,344.02l-3.035,6.551a16.369,16.369,0,0,1-6.352,7.491l-5.477,3.464c-.009.006-.019.009-.028.016q-.045.026-.089.047c-.019.009-.038.019-.058.027s-.056.022-.085.031l-.066.02c-.028.008-.058.013-.086.019s-.044.009-.064.011a.93.93,0,0,1-.132.009l-.019,0h0l-.019,0a.93.93,0,0,1-.132-.009c-.022,0-.042-.008-.064-.011s-.058-.011-.086-.019l-.066-.02c-.028-.009-.056-.019-.085-.031l-.058-.027q-.045-.021-.089-.047c-.009-.006-.019-.009-.028-.016l-5.477-3.464a16.369,16.369,0,0,1-6.352-7.491l-2.806-6.551H153.6l2.415,5.636a14.014,14.014,0,0,0,5.444,6.419l4.849,3.066,4.849-3.066a14.014,14.014,0,0,0,5.444-6.419l2.612-5.636Z" transform="translate(-107.473 -290.144)" fill="#efedf0"/>
    <g id="Grupo_951865" data-name="Grupo 951865" transform="translate(57.577 53.876)">
      <path id="Trazado_700803" data-name="Trazado 700803" d="M242.895,354.771a1.176,1.176,0,0,1-1.17,1.179h0a1.175,1.175,0,0,1-1.175-1.17l-.045-10.756v0h2.349Z" transform="translate(-240.5 -344.02)" fill="#ea9b58"/>
    </g>
    <path id="Trazado_700804" data-name="Trazado 700804" d="M215.364,451.238v5.667H200.48v-5.667a1.778,1.778,0,0,1,1.778-1.778h11.327A1.778,1.778,0,0,1,215.364,451.238Z" transform="translate(-149.17 -379.071)" fill="#fe646f"/>
    <path id="Trazado_700805" data-name="Trazado 700805" d="M265.516,449.46h-3.463a1.778,1.778,0,0,1,1.778,1.778v5.667h3.463v-5.667A1.778,1.778,0,0,0,265.516,449.46Z" transform="translate(-201.1 -379.071)" fill="#fd4755"/>
  </g>
</svg>
