<svg xmlns="http://www.w3.org/2000/svg" width="127" height="127" viewBox="0 0 127 127">
  <g id="Grupo_953264" data-name="Grupo 953264" transform="translate(-423 -4498)">
    <circle id="Elipse_5412" data-name="Elipse 5412" cx="63.5" cy="63.5" r="63.5" transform="translate(423 4498)" fill="#ccd3ca"/>
    <g id="mujer" transform="translate(437 4512)">
      <g id="XMLID_524_" transform="translate(0 0)">
        <g id="XMLID_525_">
          <g id="XMLID_526_">
            <g id="XMLID_527_">
              <g id="XMLID_528_">
                <g id="XMLID_529_">
                  <g id="XMLID_530_">
                    <g id="XMLID_531_">
                      <g id="XMLID_532_">
                        <g id="XMLID_533_">
                          <g id="XMLID_534_">
                            <g id="XMLID_535_">
                              <g id="XMLID_536_">
                                <g id="XMLID_537_">
                                  <path id="Trazado_701717" data-name="Trazado 701717" d="M98.163,49.082a48.856,48.856,0,0,1-9.454,28.962.006.006,0,0,1,0,0,49.087,49.087,0,0,1-79.252,0,.006.006,0,0,1,0,0A49.082,49.082,0,1,1,98.163,49.082Z" transform="translate(0 0)" fill="#23db83"/>
                                </g>
                              </g>
                            </g>
                          </g>
                        </g>
                      </g>
                    </g>
                  </g>
                </g>
              </g>
            </g>
          </g>
        </g>
      </g>
      <path id="Trazado_701718" data-name="Trazado 701718" d="M88.938,130.05a49.01,49.01,0,0,0,39.626-20.116.006.006,0,0,0,0,0,49.163,49.163,0,0,0,7.671-42.1L116.005,47.595l-4.832,1.041-9.217-9.185L64.892,58.585l4.322,4.306L78.2,75.152,65.02,95.715,49.31,109.93a.006.006,0,0,0,0,0A49.01,49.01,0,0,0,88.938,130.05Z" transform="translate(-39.856 -31.886)" fill="#0fba7d"/>
      <g id="Grupo_952297" data-name="Grupo 952297" transform="translate(9.454 3.643)">
        <path id="Trazado_701719" data-name="Trazado 701719" d="M199.97,260.488h21.485v22.785H199.97Z" transform="translate(-171.085 -214.189)" fill="#e58645"/>
        <path id="Trazado_701720" data-name="Trazado 701720" d="M256,260.491h10.742v22.785H256Z" transform="translate(-216.372 -214.191)" fill="#d37535"/>
        <path id="Trazado_701721" data-name="Trazado 701721" d="M99.68,332.29H70.8s-21.316,8.642-21.491,14.335a49.085,49.085,0,0,0,79.255,0C128.322,338.665,99.68,332.29,99.68,332.29Z" transform="translate(-49.31 -272.224)" fill="#ef9d60"/>
        <path id="Trazado_701722" data-name="Trazado 701722" d="M295.628,346.625A49.012,49.012,0,0,1,256,366.745V332.29h17.958S295.628,338.945,295.628,346.625Z" transform="translate(-216.372 -272.224)" fill="#e58645"/>
        <path id="Trazado_701723" data-name="Trazado 701723" d="M128.565,343.011a.006.006,0,0,1,0,0,49.087,49.087,0,0,1-79.252,0,.006.006,0,0,1,0,0l.035-.362A16.392,16.392,0,0,1,69.05,328.177l2.356.5,13.25,10.681a6.82,6.82,0,0,0,8.562,0l13.25-10.681,2.356-.5a16.392,16.392,0,0,1,19.706,14.471Z" transform="translate(-49.31 -268.61)" fill="#feee5a"/>
        <path id="Trazado_701724" data-name="Trazado 701724" d="M295.628,343.011a.006.006,0,0,1,0,0A49.01,49.01,0,0,1,256,363.13V340.867a6.806,6.806,0,0,0,4.281-1.511l13.25-10.681,2.356-.5a16.392,16.392,0,0,1,19.706,14.471Z" transform="translate(-216.372 -268.61)" fill="#ffc943"/>
        <g id="Grupo_952293" data-name="Grupo 952293" transform="translate(6.807 34.832)">
          <g id="Grupo_952290" data-name="Grupo 952290">
            <ellipse id="Elipse_5605" data-name="Elipse 5605" cx="8.052" cy="4.346" rx="8.052" ry="4.346" transform="translate(0 44.107) rotate(-69.88)" fill="#7c5149"/>
            <path id="Trazado_701725" data-name="Trazado 701725" d="M137.979,203.055c-.831-.787-2.276-.708-3.7.065-.592-1.513-1.645-2.506-2.788-2.441-1.655.094-2.872,2.368-2.718,5.079a7.778,7.778,0,0,0,.258,1.6c-1.645.11-2.852,2.376-2.7,5.077a7.778,7.778,0,0,0,.258,1.6c-1.645.11-2.852,2.376-2.7,5.077a7.778,7.778,0,0,0,.258,1.6c-1.645.11-2.852,2.376-2.7,5.077.139,2.459,1.358,4.433,2.818,4.709,1.294.731,3.5.01,5.192-1.779,1.86-1.964,2.4-4.474,1.214-5.62a7.772,7.772,0,0,0,1.227-1.053c1.86-1.964,2.4-4.474,1.214-5.62a7.78,7.78,0,0,0,1.227-1.053c1.86-1.964,2.4-4.474,1.214-5.62a7.78,7.78,0,0,0,1.227-1.053c1.867-1.972,2.4-4.494,1.2-5.633Z" transform="translate(-114.41 -200.676)" fill="#7c5149"/>
            <g id="Grupo_952289" data-name="Grupo 952289" transform="translate(4.655 26.991)">
              <path id="Trazado_701726" data-name="Trazado 701726" d="M112.362,341.576l5.145,1.882a1.964,1.964,0,0,1,1.169,2.519l-.627,1.713a1.964,1.964,0,0,1-2.519,1.169l-5.145-1.882a1.964,1.964,0,0,1-1.169-2.519l.627-1.713A1.964,1.964,0,0,1,112.362,341.576Z" transform="translate(-109.096 -341.455)" fill="#f4f4f4"/>
            </g>
          </g>
          <g id="Grupo_952292" data-name="Grupo 952292" transform="translate(41.43)">
            <ellipse id="Elipse_5606" data-name="Elipse 5606" cx="4.346" cy="8.052" rx="4.346" ry="8.052" transform="translate(10.53 31.907) rotate(-20.12)" fill="#59403d"/>
            <path id="Trazado_701727" data-name="Trazado 701727" d="M301.549,203.055c.831-.787,2.276-.708,3.7.065.592-1.513,1.645-2.506,2.788-2.441,1.655.094,2.872,2.368,2.718,5.079a7.778,7.778,0,0,1-.258,1.6c1.645.11,2.852,2.376,2.7,5.077a7.778,7.778,0,0,1-.258,1.6c1.645.11,2.852,2.376,2.7,5.077a7.778,7.778,0,0,1-.258,1.6c1.645.11,2.852,2.376,2.7,5.077-.139,2.459-1.358,4.433-2.818,4.709-1.294.731-3.5.01-5.192-1.779-1.86-1.964-2.4-4.474-1.214-5.62a7.773,7.773,0,0,1-1.227-1.053c-1.86-1.964-2.4-4.474-1.214-5.62a7.78,7.78,0,0,1-1.227-1.053c-1.86-1.964-2.4-4.474-1.214-5.62a7.78,7.78,0,0,1-1.227-1.053c-1.867-1.972-2.4-4.494-1.2-5.633Z" transform="translate(-300.907 -200.676)" fill="#59403d"/>
            <g id="Grupo_952291" data-name="Grupo 952291" transform="translate(9.855 26.991)">
              <path id="Trazado_701728" data-name="Trazado 701728" d="M358.744,341.576l-5.145,1.882a1.964,1.964,0,0,0-1.169,2.519l.627,1.713a1.964,1.964,0,0,0,2.519,1.169l5.145-1.882a1.964,1.964,0,0,0,1.169-2.519l-.627-1.713A1.964,1.964,0,0,0,358.744,341.576Z" transform="translate(-352.31 -341.455)" fill="#dddbdb"/>
            </g>
          </g>
        </g>
        <g id="Grupo_952294" data-name="Grupo 952294" transform="translate(19.042)">
          <path id="Trazado_701729" data-name="Trazado 701729" d="M169.216,48.333c-9.01,0-25.772,6.114-19.024,27h38.048C194.988,54.447,178.225,48.333,169.216,48.333Z" transform="translate(-148.63 -42.709)" fill="#7c5149"/>
          <path id="Trazado_701730" data-name="Trazado 701730" d="M275.024,75.338H256v-27C265.01,48.336,281.772,54.449,275.024,75.338Z" transform="translate(-235.414 -42.712)" fill="#59403d"/>
          <path id="Trazado_701731" data-name="Trazado 701731" d="M191.812,105.1c-.68-10.327-9.034-14.143-16.1-14.143s-15.422,3.816-16.1,14.143c-1.828.354-3.126,2.751-2.922,4.689L157,114.2a3.649,3.649,0,0,0,3.976,3.3l.34-.037c4.039,10.846,10.374,11.977,14.395,12.612,4.021-.635,10.355-1.766,14.395-12.612l.34.037a3.649,3.649,0,0,0,3.976-3.3l.313-4.411C194.939,107.854,193.64,105.457,191.812,105.1Z" transform="translate(-155.125 -77.163)" fill="#ef9d60"/>
          <path id="Trazado_701732" data-name="Trazado 701732" d="M275.024,109.792l-.313,4.411a3.649,3.649,0,0,1-3.976,3.3l-.34-.037a23.088,23.088,0,0,1-4.758,8.079c-3.337,3.481-6.988,4.115-9.637,4.534V90.959c7.068,0,15.422,3.816,16.1,14.143C273.93,105.456,275.228,107.853,275.024,109.792Z" transform="translate(-235.414 -77.163)" fill="#e58645"/>
          <path id="Trazado_701733" data-name="Trazado 701733" d="M188.163,79.941C181.4,73.8,172.8,76.019,172.8,76.019s-8.6-2.217-15.365,3.922S153.775,97.4,153.775,97.4c14.244-3,19.024-10.88,19.024-10.88s4.78,7.882,19.024,10.88C191.823,97.4,194.929,86.08,188.163,79.941Z" transform="translate(-152.213 -64.772)" fill="#7c5149"/>
          <path id="Trazado_701734" data-name="Trazado 701734" d="M275.025,97.394c-9.567-2.014-14.866-6.231-17.313-8.784a13.758,13.758,0,0,1-1.711-2.1v-10.5a18.409,18.409,0,0,1,11.532,1.326,16.175,16.175,0,0,1,3.833,2.6c6.764,6.139,3.659,17.457,3.659,17.457Z" transform="translate(-235.415 -64.767)" fill="#59403d"/>
          <path id="Trazado_701735" data-name="Trazado 701735" d="M178.388,19h-9.171a11.034,11.034,0,0,0-10.005,6.382L154.3,35.936H193.3l-4.907-10.554A11.034,11.034,0,0,0,178.388,19Z" transform="translate(-153.217 -19)" fill="#feee5a"/>
          <path id="Trazado_701736" data-name="Trazado 701736" d="M275.5,35.935H256V19h4.586a11.03,11.03,0,0,1,10,6.383l2.642,5.683Z" transform="translate(-235.414 -19)" fill="#ffc943"/>
        </g>
        <path id="Trazado_701737" data-name="Trazado 701737" d="M146.43,90.959l25.99,4.241-.337,1.873a6.094,6.094,0,0,1-6,5.014H126.775a6.094,6.094,0,0,1-6-5.014L120.44,95.2Z" transform="translate(-106.803 -77.163)" fill="#fc445e"/>
        <path id="Trazado_701738" data-name="Trazado 701738" d="M281.99,95.2l-.337,1.873a6.094,6.094,0,0,1-6,5.014H256V90.96L275.234,94.1Z" transform="translate(-216.372 -77.163)" fill="#d31157"/>
        <g id="Grupo_952295" data-name="Grupo 952295" transform="translate(12.56 12.065)">
          <path id="Trazado_701739" data-name="Trazado 701739" d="M168.956,81.93,167.878,87.9H115.9L114.82,81.93Z" transform="translate(-114.82 -81.93)" fill="#24b1ff"/>
        </g>
        <g id="Grupo_952296" data-name="Grupo 952296" transform="translate(39.628 12.065)">
          <path id="Trazado_701740" data-name="Trazado 701740" d="M283.068,81.93,281.99,87.9H256V81.93Z" transform="translate(-256 -81.93)" fill="#068ec4"/>
        </g>
      </g>
    </g>
  </g>
</svg>
