<svg xmlns="http://www.w3.org/2000/svg" width="127" height="127" viewBox="0 0 127 127">
  <g id="Grupo_953263" data-name="Grupo 953263" transform="translate(-739 -4498)">
    <circle id="Elipse_5554" data-name="Elipse 5554" cx="63.5" cy="63.5" r="63.5" transform="translate(739 4498)" fill="#ccd3ca"/>
    <g id="boudhanath" transform="translate(742 4510)">
      <g id="Grupo_952281" data-name="Grupo 952281" transform="translate(11 4.435)">
        <path id="Trazado_701686" data-name="Trazado 701686" d="M60.394,22A49.4,49.4,0,0,0,19.366,98.9l1.011.2H100.41l1.011-.2A49.4,49.4,0,0,0,60.394,22Z" transform="translate(-11 -22)" fill="#26a6fe"/>
      </g>
      <g id="Grupo_952288" data-name="Grupo 952288" transform="translate(17.25)">
        <g id="Grupo_952282" data-name="Grupo 952282" transform="translate(0 21.774)">
          <path id="Trazado_701687" data-name="Trazado 701687" d="M66.861,168.466H61.388a2.116,2.116,0,1,1,0-4.233h1.229a2.116,2.116,0,1,0,0-4.233H48.076a2.116,2.116,0,1,0,0,4.233h3.687a2.116,2.116,0,1,1,0,4.233H44.116a2.116,2.116,0,1,0,0,4.233H66.347Z" transform="translate(-42 -149.517)" fill="#60b7ff"/>
          <path id="Trazado_701688" data-name="Trazado 701688" d="M361.462,203.091h-9.489a2.116,2.116,0,0,1,0-4.233H353.2a2.116,2.116,0,1,0,0-4.233H345.8l1.539,12.7h14.127a2.116,2.116,0,0,0,0-4.233Z" transform="translate(-284.549 -177.162)" fill="#60b7ff"/>
          <path id="Trazado_701689" data-name="Trazado 701689" d="M138.116,112.233h5.066a2.116,2.116,0,0,0,0-4.233h-5.066a2.116,2.116,0,0,0,0,4.233Z" transform="translate(-117.049 -108)" fill="#60b7ff"/>
          <path id="Trazado_701690" data-name="Trazado 701690" d="M405.116,163.239h5.066a2.116,2.116,0,1,0,0-4.233h-5.066a2.116,2.116,0,1,0,0,4.233Z" transform="translate(-330.22 -148.723)" fill="#60b7ff"/>
        </g>
        <g id="Grupo_952283" data-name="Grupo 952283" transform="translate(2.116 0)">
          <path id="Trazado_701691" data-name="Trazado 701691" d="M236.652,23.171H226.277a1.008,1.008,0,0,1-.993-1.179L228.927.837A1.008,1.008,0,0,1,229.92,0h3.089A1.008,1.008,0,0,1,234,.837l3.643,21.155A1.008,1.008,0,0,1,236.652,23.171Z" transform="translate(-190.437 0)" fill="#cbc4e4"/>
          <path id="Trazado_701692" data-name="Trazado 701692" d="M229.526,21.28,233.047.837a1,1,0,0,1,.751-.8A1,1,0,0,0,233.555,0h-3.089a1.008,1.008,0,0,0-.993.837l-3.52,20.443h3.574Z" transform="translate(-190.982 0)" fill="#b5adcf"/>
          <path id="Trazado_701693" data-name="Trazado 701693" d="M225.9,111.7H205.571v-3.123a3.024,3.024,0,0,1,3.024-3.024h14.286a3.024,3.024,0,0,1,3.024,3.024V111.7Z" transform="translate(-174.71 -84.27)" fill="#b5adcf"/>
          <path id="Trazado_701694" data-name="Trazado 701694" d="M211.907,110.278v-1.7a3.024,3.024,0,0,1,3.024-3.024H208.6a3.024,3.024,0,0,0-3.024,3.024v1.7Z" transform="translate(-174.71 -84.27)" fill="#a79bc9"/>
          <path id="Trazado_701695" data-name="Trazado 701695" d="M216.806,135.152H190.325v-4.131A2.016,2.016,0,0,1,192.341,129H214.79a2.016,2.016,0,0,1,2.016,2.016v4.131Z" transform="translate(-162.538 -102.997)" fill="#cbc4e4"/>
          <path id="Trazado_701696" data-name="Trazado 701696" d="M196.639,134.246v-3.225a2.016,2.016,0,0,1,2.016-2.016H192.34a2.016,2.016,0,0,0-2.016,2.016v3.225Z" transform="translate(-162.537 -102.997)" fill="#b5adcf"/>
          <path id="Trazado_701697" data-name="Trazado 701697" d="M174.24,192.654l-6.831-9.182-3.021-24.925a4.032,4.032,0,0,0-4-3.547h-27.53a4.032,4.032,0,0,0-4,3.547l-3.021,24.925L119,192.654Z" transform="translate(-105.592 -123.751)" fill="#b5adcf"/>
          <path id="Trazado_701698" data-name="Trazado 701698" d="M132.664,191.136l5.7-7.664,3.021-24.925a4.032,4.032,0,0,1,4-3.547h-8.064a4.032,4.032,0,0,0-4,3.547L130.3,183.472l-5.7,7.664Z" transform="translate(-110.063 -123.751)" fill="#a79bc9"/>
          <path id="Trazado_701699" data-name="Trazado 701699" d="M159.414,343.226H94.157v-6.969a2.016,2.016,0,0,1,2.016-2.016H157.4a2.016,2.016,0,0,1,2.016,2.016Z" transform="translate(-85.758 -266.856)" fill="#cbc4e4"/>
          <path id="Trazado_701700" data-name="Trazado 701700" d="M104.672,341.249v-4.992a2.016,2.016,0,0,1,2.016-2.016H96.173a2.016,2.016,0,0,0-2.016,2.016v4.992Z" transform="translate(-85.758 -266.856)" fill="#b5adcf"/>
          <path id="Trazado_701701" data-name="Trazado 701701" d="M141.217,377.985H63.665v-5.961A3.024,3.024,0,0,1,66.689,369h71.5a3.024,3.024,0,0,1,3.024,3.024Z" transform="translate(-61.413 -294.607)" fill="#b5adcf"/>
          <path id="Trazado_701702" data-name="Trazado 701702" d="M76.5,375.942v-3.918A3.024,3.024,0,0,1,79.524,369H66.689a3.024,3.024,0,0,0-3.024,3.024v3.918Z" transform="translate(-61.413 -294.607)" fill="#a79bc9"/>
          <path id="Trazado_701703" data-name="Trazado 701703" d="M52.495,403.435a49.659,49.659,0,0,0,4.891,6.162l.723.2h70.828l.723-.2a49.639,49.639,0,0,0,4.891-6.162Z" transform="translate(-52.495 -322.1)" fill="#cbc4e4"/>
        </g>
        <g id="Grupo_952284" data-name="Grupo 952284" transform="translate(7.007 87.497)">
          <path id="Trazado_701704" data-name="Trazado 701704" d="M76.757,434a49.383,49.383,0,0,0,72.273,0Z" transform="translate(-76.757 -434)" fill="#9182b1"/>
        </g>
        <g id="Grupo_952285" data-name="Grupo 952285" transform="translate(26.452 55.148)">
          <path id="Trazado_701705" data-name="Trazado 701705" d="M180.028,277.473l-2.9,2.9a.6.6,0,0,1-.855,0l-2.9-2.9a.6.6,0,0,1,0-.855l2.9-2.9a.6.6,0,0,1,.855,0l2.9,2.9A.605.605,0,0,1,180.028,277.473Z" transform="translate(-173.204 -273.545)" fill="#9182b1"/>
          <path id="Trazado_701706" data-name="Trazado 701706" d="M223.65,277.472l-2.9,2.9a.6.6,0,0,1-.855,0l-2.9-2.9a.6.6,0,0,1,0-.855l2.9-2.9a.6.6,0,0,1,.855,0l2.9,2.9A.605.605,0,0,1,223.65,277.472Z" transform="translate(-208.031 -273.544)" fill="#9182b1"/>
          <path id="Trazado_701707" data-name="Trazado 701707" d="M267.272,277.473l-2.9,2.9a.6.6,0,0,1-.855,0l-2.9-2.9a.6.6,0,0,1,0-.855l2.9-2.9a.6.6,0,0,1,.855,0l2.9,2.9A.6.6,0,0,1,267.272,277.473Z" transform="translate(-242.859 -273.545)" fill="#9182b1"/>
          <path id="Trazado_701708" data-name="Trazado 701708" d="M310.894,277.473l-2.9,2.9a.6.6,0,0,1-.855,0l-2.9-2.9a.6.6,0,0,1,0-.855l2.9-2.9a.6.6,0,0,1,.855,0l2.9,2.9A.6.6,0,0,1,310.894,277.473Z" transform="translate(-277.687 -273.545)" fill="#9182b1"/>
        </g>
        <g id="Grupo_952286" data-name="Grupo 952286" transform="translate(30.849 45.888)">
          <path id="Trazado_701709" data-name="Trazado 701709" d="M201.839,231.538l-2.9,2.9a.6.6,0,0,1-.855,0l-2.9-2.9a.6.6,0,0,1,0-.855l2.9-2.9a.6.6,0,0,1,.855,0l2.9,2.9A.605.605,0,0,1,201.839,231.538Z" transform="translate(-195.015 -227.61)" fill="#9182b1"/>
          <path id="Trazado_701710" data-name="Trazado 701710" d="M245.461,231.538l-2.9,2.9a.6.6,0,0,1-.855,0l-2.9-2.9a.6.6,0,0,1,0-.855l2.9-2.9a.6.6,0,0,1,.855,0l2.9,2.9A.6.6,0,0,1,245.461,231.538Z" transform="translate(-229.843 -227.61)" fill="#9182b1"/>
          <path id="Trazado_701711" data-name="Trazado 701711" d="M289.083,231.538l-2.9,2.9a.6.6,0,0,1-.855,0l-2.9-2.9a.6.6,0,0,1,0-.855l2.9-2.9a.6.6,0,0,1,.855,0l2.9,2.9A.6.6,0,0,1,289.083,231.538Z" transform="translate(-264.67 -227.61)" fill="#9182b1"/>
        </g>
        <g id="Grupo_952287" data-name="Grupo 952287" transform="translate(26.452 36.627)">
          <path id="Trazado_701712" data-name="Trazado 701712" d="M180.028,185.6l-2.9,2.9a.6.6,0,0,1-.855,0l-2.9-2.9a.6.6,0,0,1,0-.855l2.9-2.9a.6.6,0,0,1,.855,0l2.9,2.9A.605.605,0,0,1,180.028,185.6Z" transform="translate(-173.204 -181.675)" fill="#9182b1"/>
          <path id="Trazado_701713" data-name="Trazado 701713" d="M223.65,185.6l-2.9,2.9a.6.6,0,0,1-.855,0l-2.9-2.9a.6.6,0,0,1,0-.855l2.9-2.9a.6.6,0,0,1,.855,0l2.9,2.9A.605.605,0,0,1,223.65,185.6Z" transform="translate(-208.031 -181.675)" fill="#9182b1"/>
          <path id="Trazado_701714" data-name="Trazado 701714" d="M267.272,185.6l-2.9,2.9a.6.6,0,0,1-.855,0l-2.9-2.9a.6.6,0,0,1,0-.855l2.9-2.9a.6.6,0,0,1,.855,0l2.9,2.9A.6.6,0,0,1,267.272,185.6Z" transform="translate(-242.859 -181.675)" fill="#9182b1"/>
          <path id="Trazado_701715" data-name="Trazado 701715" d="M310.894,185.6l-2.9,2.9a.6.6,0,0,1-.855,0l-2.9-2.9a.6.6,0,0,1,0-.855l2.9-2.9a.6.6,0,0,1,.855,0l2.9,2.9A.6.6,0,0,1,310.894,185.6Z" transform="translate(-277.687 -181.675)" fill="#9182b1"/>
        </g>
        <circle id="Elipse_5604" data-name="Elipse 5604" cx="14.5" cy="14.5" r="14.5" transform="translate(55.75)" fill="#fed402"/>
        <path id="Trazado_701716" data-name="Trazado 701716" d="M328.59,14.314A14.319,14.319,0,0,1,338.609.657a14.314,14.314,0,1,0,0,27.315A14.32,14.32,0,0,1,328.59,14.314Z" transform="translate(-263.953 0)" fill="#fac600"/>
      </g>
    </g>
  </g>
</svg>
