<svg xmlns="http://www.w3.org/2000/svg" width="127" height="127" viewBox="0 0 127 127">
  <g id="Grupo_953265" data-name="Grupo 953265" transform="translate(-1052 -4498)">
    <circle id="Elipse_5603" data-name="Elipse 5603" cx="63.5" cy="63.5" r="63.5" transform="translate(1052 4498)" fill="#ccd3ca"/>
    <g id="bebe" transform="translate(1066 4509.928)">
      <path id="Trazado_701741" data-name="Trazado 701741" d="M81.642,42.6v2.422c-1.525.538-3.024,1.089-4.511,1.666A247.323,247.323,0,0,0,6.036,89.2l-.769.884-.141-.218A48.28,48.28,0,0,1,0,68.085,48.786,48.786,0,0,1,15.788,32.2c.423-.41.871-.794,1.282-1.179,16.659-8.458,34.7-3.947,47.414,1.743h.077a94.462,94.462,0,0,1,10.88,5.754l1.025.641.231.141A43.742,43.742,0,0,1,81.642,42.6Z" transform="translate(0 -16.92)" fill="#e56353"/>
      <path id="Trazado_701742" data-name="Trazado 701742" d="M94.779,95.391c0,13.276-2.64,48.554-28.641,64.662-.423,0-.859.077-1.282.1-1.1.077-2.2.115-3.319.115A49.836,49.836,0,0,1,17.032,133.13l-.115-.244.884-.641c.859-.974,25.629-28.743,70.928-42.8,1.538-.487,3.088-.948,4.677-1.384l1.2,2.166s0,.9.115,2.486C94.766,93.443,94.779,94.353,94.779,95.391Z" transform="translate(-11.791 -59.937)" fill="#fcd462"/>
      <path id="Trazado_701743" data-name="Trazado 701743" d="M219.907,130.539a49.631,49.631,0,0,1-43.48,36.265c-.423,0-.859.077-1.282.1,10.469-7.317,27.538-25.206,29.768-64.842,0-.859.09-1.743.128-2.563v-.794l3.973-.961a28.009,28.009,0,0,1,2.307,2.768,44.449,44.449,0,0,1,5.549,9.97A43.809,43.809,0,0,1,219.907,130.539Z" transform="translate(-122.081 -66.688)" fill="#44c4a1"/>
      <path id="Trazado_701744" data-name="Trazado 701744" d="M117.993,21.563l-4.818.794-.167-.141L112,21.563A78.734,78.734,0,0,0,101.1,15.823h-.077c-22.618-9.636-41.083-4-48.875-.538.423-.41.871-.794,1.282-1.179A50.233,50.233,0,0,1,112.662,9.7c.32.192.641.4.948.615a20.247,20.247,0,0,1,4.152,9.457,12.053,12.053,0,0,1,.154,1.64.238.238,0,0,1,.076.154Z" transform="translate(-36.351 0)" fill="#27a2db"/>
      <path id="Trazado_701745" data-name="Trazado 701745" d="M296.264,116.771c.167-3.7.346-12.4-2.986-20.042a54.915,54.915,0,0,0-5.613-9.79c-.7-.974-1.448-1.948-2.243-2.947l-.73-4.831.41-.115,1.192-.282c1.089-.256,2.563-.564,4.049-.769a48.427,48.427,0,0,1,7.612,26.09,74.042,74.042,0,0,1-1.691,12.687Z" transform="translate(-198.437 -52.92)" fill="#e56353"/>
      <path id="Trazado_701746" data-name="Trazado 701746" d="M267.626,42.415l-4.049.769-1.217.231-3.114.59s-.756-2.281-1.9-5.305l-.692-1.845a68.327,68.327,0,0,0-4.575-9.867c.32.192.641.4.948.615a49.5,49.5,0,0,1,14.557,14.762Z" transform="translate(-175.707 -17.366)" fill="#fcd462"/>
      <path id="Trazado_701747" data-name="Trazado 701747" d="M250.478,58.774c-2.832,1.282-2.87,6.036-.09,10.559s7.317,7.1,10.149,5.792,2.883-6.049.1-10.559S253.31,57.467,250.478,58.774Z" transform="translate(-173.091 -39.287)" fill="#ebf0f3"/>
    </g>
  </g>
</svg>
