<svg xmlns="http://www.w3.org/2000/svg" width="113" height="113" viewBox="0 0 113 113">
  <g id="Grupo_953270" data-name="Grupo 953270" transform="translate(-180 -858)">
    <circle id="Elipse_5223" data-name="Elipse 5223" cx="56.5" cy="56.5" r="56.5" transform="translate(180 858)" fill="#b7ceac"/>
    <g id="_2-great_wall_of_china" data-name="2-great wall of china" transform="translate(197 875)">
      <path id="Trazado_692807" data-name="Trazado 692807" d="M52.654,19.149s-11.069-1.23-19.678-1.23A25.731,25.731,0,0,1,18.218,13H1A32.58,32.58,0,0,0,25.6,24.069a125.447,125.447,0,0,1,29.517,3.69Z" transform="translate(0 2.758)" fill="#d46120"/>
      <path id="Trazado_692808" data-name="Trazado 692808" d="M15.758,1h-3.69V4.69H7.149V1H3.46L1,15.758H18.218Z" transform="translate(0 0)" fill="#fe8845"/>
      <path id="Trazado_692809" data-name="Trazado 692809" d="M8.46,7A2.46,2.46,0,0,0,6,9.46v4.919h4.919V9.46A2.46,2.46,0,0,0,8.46,7Z" transform="translate(1.149 1.379)" fill="#753511"/>
      <path id="Trazado_692810" data-name="Trazado 692810" d="M62.586,33s-2.46,18.448-36.9,34.436L22,58.827C52.747,41.609,55.206,33,55.206,33Z" transform="translate(4.827 7.356)" fill="#d46120"/>
      <path id="Trazado_692811" data-name="Trazado 692811" d="M61.9,33S59.436,51.448,25,67.436V69.9H49.6c15.988-7.379,22.138-28.287,22.138-28.287V33Z" transform="translate(5.517 7.356)" fill="#ad4d19"/>
      <path id="Trazado_692812" data-name="Trazado 692812" d="M55.114,27.758A125.447,125.447,0,0,0,25.6,24.069,32.58,32.58,0,0,1,1,13V24.069s9.839,6.149,17.218,7.379,25.827,1.23,31.977,6.149Z" transform="translate(0 2.758)" fill="#ad4d19"/>
      <path id="Trazado_692813" data-name="Trazado 692813" d="M68.057,37.6H41L42.23,13h24.6Z" transform="translate(9.195 2.758)" fill="#fe8845"/>
      <path id="Trazado_692814" data-name="Trazado 692814" d="M52.69,25C50.23,25,49,26.524,49,29.919v4.919h7.379V29.919C56.379,26.524,55.149,25,52.69,25Z" transform="translate(11.034 5.517)" fill="#753511"/>
      <path id="Trazado_692815" data-name="Trazado 692815" d="M47.46,17A2.46,2.46,0,0,0,45,19.46v3.69h4.919V19.46A2.46,2.46,0,0,0,47.46,17Z" transform="translate(10.114 3.678)" fill="#753511"/>
      <path id="Trazado_692816" data-name="Trazado 692816" d="M57.46,17A2.46,2.46,0,0,0,55,19.46v3.69h4.919V19.46A2.46,2.46,0,0,0,57.46,17Z" transform="translate(12.413 3.678)" fill="#753511"/>
      <path id="Trazado_692817" data-name="Trazado 692817" d="M66.6,14.379V7H61.678V9.46H56.758V7H51.839V9.46H46.919V7H42v7.379Z" transform="translate(9.425 1.379)" fill="#d46120"/>
      <path id="Trazado_692818" data-name="Trazado 692818" d="M18,50.218C41.982,39.764,46.287,33,46.287,33h9.839s-2.46,8.609-33.206,25.827Z" transform="translate(3.908 7.356)" fill="#ad4d19"/>
      <path id="Trazado_692819" data-name="Trazado 692819" d="M32.977,68.057H1L3.46,41H30.517Z" transform="translate(0 9.195)" fill="#fe8845"/>
      <path id="Trazado_692820" data-name="Trazado 692820" d="M14.919,53C11.23,53,10,55.754,10,59.149V65.3h9.839V59.149C19.839,55.754,18.609,53,14.919,53Z" transform="translate(2.069 11.953)" fill="#753511"/>
      <path id="Trazado_692821" data-name="Trazado 692821" d="M8.46,45A2.46,2.46,0,0,0,6,47.46v4.919h4.919V47.46A2.46,2.46,0,0,0,8.46,45Z" transform="translate(1.149 10.114)" fill="#753511"/>
      <path id="Trazado_692822" data-name="Trazado 692822" d="M20.46,45A2.46,2.46,0,0,0,18,47.46v4.919h4.919V47.46A2.46,2.46,0,0,0,20.46,45Z" transform="translate(3.908 10.114)" fill="#753511"/>
      <path id="Trazado_692823" data-name="Trazado 692823" d="M30.057,42.379V35H25.138v2.46H18.988V35H14.069v2.46H7.919V35H3v7.379Z" transform="translate(0.46 7.815)" fill="#d46120"/>
      <path id="Trazado_692824" data-name="Trazado 692824" d="M43,28h4.919v2.46H43Z" transform="translate(9.654 6.206)" fill="#ad4d19"/>
      <path id="Trazado_692825" data-name="Trazado 692825" d="M57,28h4.919v2.46H57Z" transform="translate(12.873 6.206)" fill="#ad4d19"/>
      <path id="Trazado_692826" data-name="Trazado 692826" d="M51,19h2.46v2.46H51Z" transform="translate(11.493 4.138)" fill="#ad4d19"/>
      <path id="Trazado_692827" data-name="Trazado 692827" d="M12,45h4.919v2.46H12Z" transform="translate(2.529 10.114)" fill="#ad4d19"/>
      <path id="Trazado_692828" data-name="Trazado 692828" d="M4,57H8.919v2.46H4Z" transform="translate(0.69 12.873)" fill="#ad4d19"/>
      <path id="Trazado_692829" data-name="Trazado 692829" d="M20,57h4.919v2.46H20Z" transform="translate(4.367 12.873)" fill="#ad4d19"/>
      <path id="Trazado_692830" data-name="Trazado 692830" d="M12,49h4.919v2.46H12Z" transform="translate(2.529 11.034)" fill="#ad4d19"/>
      <g id="Grupo_950029" data-name="Grupo 950029" transform="translate(5.919 24.367)">
        <path id="Trazado_692831" data-name="Trazado 692831" d="M29,25h2.46v2.46H29Z" transform="translate(0.517 -18.851)" fill="#fe8845"/>
        <path id="Trazado_692832" data-name="Trazado 692832" d="M23,24h2.46v2.46H23Z" transform="translate(-0.862 -19.081)" fill="#fe8845"/>
        <path id="Trazado_692833" data-name="Trazado 692833" d="M17,24h2.46v2.46H17Z" transform="translate(-2.242 -19.081)" fill="#fe8845"/>
        <path id="Trazado_692834" data-name="Trazado 692834" d="M5,20H7.46v2.46H5Z" transform="translate(-5 -20)" fill="#fe8845"/>
        <path id="Trazado_692835" data-name="Trazado 692835" d="M11,23h2.46v2.46H11Z" transform="translate(-3.621 -19.31)" fill="#fe8845"/>
        <path id="Trazado_692836" data-name="Trazado 692836" d="M35,26h2.46v2.46H35Z" transform="translate(1.896 -18.621)" fill="#fe8845"/>
        <path id="Trazado_692837" data-name="Trazado 692837" d="M58,37h2.46v2.46H58Z" transform="translate(7.183 -16.092)" fill="#fe8845"/>
        <path id="Trazado_692838" data-name="Trazado 692838" d="M34,59h2.46v2.46H34Z" transform="translate(1.666 -11.035)" fill="#fe8845"/>
        <path id="Trazado_692839" data-name="Trazado 692839" d="M39,57h4.919v2.46H39Z" transform="translate(2.815 -11.495)" fill="#fe8845"/>
        <path id="Trazado_692840" data-name="Trazado 692840" d="M45,57h2.46v2.46H45Z" transform="translate(4.195 -11.495)" fill="#fe8845"/>
        <path id="Trazado_692841" data-name="Trazado 692841" d="M54,42h4.919v2.46H54Z" transform="translate(6.263 -14.943)" fill="#fe8845"/>
        <path id="Trazado_692842" data-name="Trazado 692842" d="M50,47h2.46v2.46H50Z" transform="translate(5.344 -13.794)" fill="#fe8845"/>
        <path id="Trazado_692843" data-name="Trazado 692843" d="M54,47h2.46v2.46H54Z" transform="translate(6.263 -13.794)" fill="#fe8845"/>
        <path id="Trazado_692844" data-name="Trazado 692844" d="M49,52h4.919v2.46H49Z" transform="translate(5.114 -12.644)" fill="#fe8845"/>
        <path id="Trazado_692845" data-name="Trazado 692845" d="M45,52h2.46v2.46H45Z" transform="translate(4.195 -12.644)" fill="#fe8845"/>
      </g>
    </g>
  </g>
</svg>
