<svg xmlns="http://www.w3.org/2000/svg" width="113" height="113" viewBox="0 0 113 113">
  <g id="Grupo_953272" data-name="Grupo 953272" transform="translate(-180 -1175)">
    <circle id="Elipse_5538" data-name="Elipse 5538" cx="56.5" cy="56.5" r="56.5" transform="translate(180 1175)" fill="#b7ceac"/>
    <g id="Grupo_950040" data-name="Grupo 950040" transform="translate(0.748 2.992)">
      <text id="MCITC" transform="translate(206.252 1246.007)" fill="#12263f" font-size="18" font-family="Roboto-Black, Roboto" font-weight="800"><tspan x="-28.09" y="19">MCITC</tspan></text>
      <g id="_x39_4_x2C__Colombia_x2C__country_x2C__national_x2C__flag_x2C__world_flag" transform="translate(135.63 1170.27)">
        <g id="XMLID_1_" transform="translate(80.303 16.738)">
          <ellipse id="XMLID_215_" cx="10.787" cy="2.184" rx="10.787" ry="2.184" transform="translate(9.406 50.63)" fill="#e0e0e0"/>
          <path id="XMLID_1292_" d="M100.5,16.738A20.216,20.216,0,0,0,80.3,36.931c0,14.9,18.631,32.6,19.424,33.351a1.123,1.123,0,0,0,1.538,0c.793-.747,19.424-18.453,19.424-33.351A20.216,20.216,0,0,0,100.5,16.738Zm0,34.182a13.989,13.989,0,1,1,13.989-13.989A14.005,14.005,0,0,1,100.5,50.92Z" transform="translate(-80.303 -16.738)" fill="#d80027"/>
          <path id="XMLID_212_" d="M147.685,64.709A16.1,16.1,0,0,0,132.09,52.6H131.2l-.017.026a16.075,16.075,0,1,0,16.505,12.087Z" transform="translate(-111.897 -48.475)" fill="#fff"/>
        </g>
        <g id="XMLID_1290_" transform="translate(86.404 22.584)">
          <path id="XMLID_211_" d="M133.384,81.97h28.6a14.3,14.3,0,1,0-28.6,0Z" transform="translate(-133.384 -67.605)" fill="#ffda45"/>
          <path id="XMLID_210_" d="M174.8,255.093H150.031a14.268,14.268,0,0,0,24.769,0Z" transform="translate(-148.118 -233.545)" fill="#d80027"/>
          <path id="XMLID_209_" d="M135.3,199.78h24.769a14.352,14.352,0,0,0,1.913-7.183h-28.6A14.352,14.352,0,0,0,135.3,199.78Z" transform="translate(-133.384 -178.232)" fill="#0053b5"/>
        </g>
      </g>
    </g>
  </g>
</svg>
