<svg xmlns="http://www.w3.org/2000/svg" width="113" height="113" viewBox="0 0 113 113">
  <g id="Grupo_953272" data-name="Grupo 953272" transform="translate(-180 -1175)">
    <circle id="Elipse_5538" data-name="Elipse 5538" cx="56.5" cy="56.5" r="56.5" transform="translate(180 1175)" fill="#b7ceac"/>
    <g id="Grupo_950040" data-name="Grupo 950040" transform="translate(0.748 2.992)">
      <path id="Trazado_720148" data-name="Trazado 720148" d="M6.929,6.2l2.856,8.9,2.848-8.9h4.061V19H13.6V16.012l.3-6.117L10.8,19H8.766l-3.1-9.114.3,6.126V19H2.877V6.2Zm22.078,8.464a4.673,4.673,0,0,1-.721,2.36,4.35,4.35,0,0,1-1.85,1.586,6.3,6.3,0,0,1-2.72.563,5.025,5.025,0,0,1-3.973-1.644,6.786,6.786,0,0,1-1.45-4.641v-.633a7.746,7.746,0,0,1,.655-3.292,4.961,4.961,0,0,1,1.885-2.18,5.26,5.26,0,0,1,2.848-.769,5.516,5.516,0,0,1,3.744,1.226,4.844,4.844,0,0,1,1.608,3.379H25.957a2.292,2.292,0,0,0-.589-1.679,2.422,2.422,0,0,0-1.687-.51,1.843,1.843,0,0,0-1.687.861,5.536,5.536,0,0,0-.562,2.751v.905a6.126,6.126,0,0,0,.514,2.927,1.882,1.882,0,0,0,1.771.879,2.369,2.369,0,0,0,1.626-.5,2.126,2.126,0,0,0,.6-1.591ZM33.753,19H30.677V6.2h3.076ZM45.943,8.585H42.1V19H39.018V8.585H35.247V6.2h10.7ZM57.6,14.667a4.673,4.673,0,0,1-.721,2.36,4.35,4.35,0,0,1-1.85,1.586,6.3,6.3,0,0,1-2.72.563,5.025,5.025,0,0,1-3.973-1.644,6.786,6.786,0,0,1-1.45-4.641v-.633a7.746,7.746,0,0,1,.655-3.292,4.961,4.961,0,0,1,1.885-2.18,5.26,5.26,0,0,1,2.848-.769,5.516,5.516,0,0,1,3.744,1.226,4.844,4.844,0,0,1,1.608,3.379H54.548a2.292,2.292,0,0,0-.589-1.679,2.422,2.422,0,0,0-1.687-.51,1.843,1.843,0,0,0-1.687.861,5.536,5.536,0,0,0-.562,2.751v.905a6.126,6.126,0,0,0,.514,2.927,1.882,1.882,0,0,0,1.771.879,2.369,2.369,0,0,0,1.626-.5,2.126,2.126,0,0,0,.6-1.591Z" transform="translate(206.252 1246.007)" fill="#12263f"/>
      <g id="_x39_4_x2C__Colombia_x2C__country_x2C__national_x2C__flag_x2C__world_flag" transform="translate(135.63 1170.27)">
        <g id="XMLID_1_" transform="translate(80.303 16.738)">
          <ellipse id="XMLID_215_" cx="10.787" cy="2.184" rx="10.787" ry="2.184" transform="translate(9.406 50.63)" fill="#e0e0e0"/>
          <path id="XMLID_1292_" d="M100.5,16.738A20.216,20.216,0,0,0,80.3,36.931c0,14.9,18.631,32.6,19.424,33.351a1.123,1.123,0,0,0,1.538,0c.793-.747,19.424-18.453,19.424-33.351A20.216,20.216,0,0,0,100.5,16.738Zm0,34.182a13.989,13.989,0,1,1,13.989-13.989A14.005,14.005,0,0,1,100.5,50.92Z" transform="translate(-80.303 -16.738)" fill="#d80027"/>
          <path id="XMLID_212_" d="M147.685,64.709A16.1,16.1,0,0,0,132.09,52.6H131.2l-.017.026a16.075,16.075,0,1,0,16.505,12.087Z" transform="translate(-111.897 -48.475)" fill="#fff"/>
        </g>
        <g id="XMLID_1290_" transform="translate(86.404 22.584)">
          <path id="XMLID_211_" d="M133.384,81.97h28.6a14.3,14.3,0,1,0-28.6,0Z" transform="translate(-133.384 -67.605)" fill="#ffda45"/>
          <path id="XMLID_210_" d="M174.8,255.093H150.031a14.268,14.268,0,0,0,24.769,0Z" transform="translate(-148.118 -233.545)" fill="#d80027"/>
          <path id="XMLID_209_" d="M135.3,199.78h24.769a14.352,14.352,0,0,0,1.913-7.183h-28.6A14.352,14.352,0,0,0,135.3,199.78Z" transform="translate(-133.384 -178.232)" fill="#0053b5"/>
        </g>
      </g>
    </g>
  </g>
</svg>
