<svg xmlns="http://www.w3.org/2000/svg" width="610" height="378.396" viewBox="0 0 610 378.396">
  <g id="Grupo_950189" data-name="Grupo 950189" transform="translate(-285 -5296.997)">
    <path id="Trazado_693292" data-name="Trazado 693292" d="M183.025,207.219c-6.505-2.6-13.01-1.3-20.166-.65C150.5,209.17,17.381,245.854,0,251.241V397.13H487.877V213.024c-47.236,13.266-86.989,23.671-130.759,33.995a146.448,146.448,0,0,1-86.611-5.933C240.966,229.621,209.4,218.208,183.025,207.219Z" transform="translate(304.34 5225.118)" fill="#dbbe8f"/>
    <path id="Trazado_693293" data-name="Trazado 693293" d="M455.8,250.975q-6.752,1.592-13.59,2.54c-52.664,18.754-105.519,35.713-159.852,48.73,46.836-11.059,91.721-22.117,139.208-34.477,15.612-3.9,31.224-5.2,46.186-10.408,5.2-1.3,9.758-3.9,14.962-4.554a413.939,413.939,0,0,1-38.38,18.214c41.632-13.01,83.264-20.816,127.5-27.972,4.972-.844,9.871-1.689,14.727-2.533V216.98C539.325,230.246,499.572,240.65,455.8,250.975Z" transform="translate(205.656 5221.163)" fill="#f5d4a0"/>
    <path id="Trazado_693294" data-name="Trazado 693294" d="M36.012,260.879a1057.427,1057.427,0,0,1,129.947-54.3c-1.021.109-2.052.218-3.1.313C150.5,209.489,17.381,246.173,0,251.56v7.583c26.663-7.839,53.779-14.832,80.9-22.333C65.935,244.616,50.323,251.121,36.012,260.879Z" transform="translate(304.34 5224.8)" fill="#f5d4a0"/>
    <rect id="Rect치ngulo_337873" data-name="Rect치ngulo 337873" width="487.877" height="325.251" transform="translate(304.34 5296.997)" fill="none"/>
    <g id="Grupo_950132" data-name="Grupo 950132" transform="translate(285 5445.479)">
      <g id="Grupo_950129" data-name="Grupo 950129" transform="translate(14.23)">
        <path id="Trazado_693295" data-name="Trazado 693295" d="M50.428,228.258A111.97,111.97,0,0,0,1.9,280.988a115.366,115.366,0,0,0-6.854,72.083C26.117,319.6,48.064,274.354,50.428,228.258Z" transform="translate(7.854 -228.258)" fill="#3b53db"/>
        <path id="Trazado_693296" data-name="Trazado 693296" d="M49.809,229.894c-2.854,4.58-5.32,9.424-7.809,14.21s-4.928,9.629-7.35,14.465c-4.589,9.162-9.173,18.329-13.58,27.58-4.344,9.12-8.513,18.328-12.308,27.691A290.764,290.764,0,0,0-1.256,342.474c-1.732,6.01-3.25,12.1-4.457,18.25l1.509-.914Q-2.817,353-.986,346.3a278.962,278.962,0,0,1,9.562-28.482c3.712-9.463,7.837-18.758,12.162-27.955,4.293-9.13,8.788-18.162,13.28-27.195q7.19-14.458,14.6-28.8c.618-1.193,1.235-2.382,1.822-3.591A.37.37,0,0,0,49.809,229.894Z" transform="translate(7.106 -228.767)" fill="#282b38"/>
        <path id="Trazado_693297" data-name="Trazado 693297" d="M58.5,275.735a64.072,64.072,0,0,0-14.063,11.623c-.665.719-1.311,1.456-1.946,2.2a44.882,44.882,0,0,0,.383-17.27,27.757,27.757,0,0,0-1.384-5.461.394.394,0,0,0-.762.2c.418,2.037.967,4.029,1.267,6.092a45.933,45.933,0,0,1,.484,6.159,44.833,44.833,0,0,1-1.571,12.259c-.129.474.537.973.889.531a69.784,69.784,0,0,1,7.942-8.425A81.963,81.963,0,0,1,59,276.615C59.535,276.257,59.068,275.4,58.5,275.735Z" transform="translate(-9.121 -241.642)" fill="#282b38"/>
        <path id="Trazado_693298" data-name="Trazado 693298" d="M38.373,317.755A48.652,48.652,0,0,0,22.978,330.1c-.664.793-1.3,1.608-1.916,2.438a54.083,54.083,0,0,0-.128-19.5,40.16,40.16,0,0,0-1.641-6.165.384.384,0,0,0-.743.2,69.745,69.745,0,0,1,2.009,10.759,56.211,56.211,0,0,1-.059,10.786,52.879,52.879,0,0,1-.987,6.153.547.547,0,0,0,.989.431A50.326,50.326,0,0,1,34.11,321.457c1.522-1.034,3.1-2.03,4.7-2.931A.443.443,0,0,0,38.373,317.755Z" transform="translate(-1.369 -255.641)" fill="#282b38"/>
        <path id="Trazado_693299" data-name="Trazado 693299" d="M21.792,355.469a103.422,103.422,0,0,0-8.408,8.267c-2.292,2.46-4.487,5.007-6.62,7.606A30.823,30.823,0,0,0,4.449,355.7a25.014,25.014,0,0,0-2.524-4.492c-.245-.348-.812-.048-.587.334a31.275,31.275,0,0,1,4.2,21.335c-.077.436.489.951.847.507q3.708-4.586,7.745-8.891c2.693-2.871,5.54-5.573,8.323-8.355C22.881,355.71,22.249,355.079,21.792,355.469Z" transform="translate(4.66 -271.176)" fill="#282b38"/>
      </g>
      <g id="Grupo_950130" data-name="Grupo 950130" transform="translate(0 7.593)">
        <path id="Trazado_693300" data-name="Trazado 693300" d="M2.189,239.93A111.974,111.974,0,0,0-28.9,304.5a115.366,115.366,0,0,0,14.416,70.958C5.508,334.393,13.34,284.72,2.189,239.93Z" transform="translate(29.73 -239.93)" fill="#fbcc34"/>
        <path id="Trazado_693301" data-name="Trazado 693301" d="M-5.676,334.31A290.713,290.713,0,0,0-6.93,364.62a208.42,208.42,0,0,0,1.589,23.416l1.324.22c-.219-1.723-.423-3.447-.6-5.175q-.741-7.422-.945-14.883A278.911,278.911,0,0,1-4.7,338.167c.8-10.134,2.04-20.227,3.5-30.285C.254,297.9,1.927,287.949,3.6,278q2.672-15.924,5.592-31.8c.244-1.322.489-2.639.7-3.966a.371.371,0,0,0-.719-.181c-1.4,5.212-2.348,10.565-3.336,15.868S3.919,268.566,3.008,273.9C1.284,284-.435,294.1-1.958,304.235-3.461,314.225-4.77,324.247-5.676,334.31Z" transform="translate(21.771 -240.577)" fill="#282b38"/>
        <path id="Trazado_693302" data-name="Trazado 693302" d="M10.966,292.047A64.062,64.062,0,0,0,.893,307.259c-.428.882-.831,1.775-1.221,2.674A44.877,44.877,0,0,0-4.986,293.3,27.774,27.774,0,0,0-7.9,288.477a.394.394,0,0,0-.671.413c.993,1.827,2.1,3.573,2.985,5.459A46.043,46.043,0,0,1-3.33,300.1a44.829,44.829,0,0,1,2.064,12.186c.014.491.8.774,1,.25a69.731,69.731,0,0,1,5.147-10.372,81.921,81.921,0,0,1,6.815-9.421C12.108,292.245,11.411,291.559,10.966,292.047Z" transform="translate(22.355 -256.838)" fill="#282b38"/>
        <path id="Trazado_693303" data-name="Trazado 693303" d="M3.934,338.105A48.657,48.657,0,0,0-7.2,354.4c-.4.951-.775,1.916-1.123,2.89a54.085,54.085,0,0,0-5.8-18.617,40.148,40.148,0,0,0-3.364-5.421c-.291-.388-.915-.028-.654.4a69.743,69.743,0,0,1,5.053,9.709A56.143,56.143,0,0,1-10,353.7a52.757,52.757,0,0,1,.847,6.173A.546.546,0,0,0-8.085,360,50.321,50.321,0,0,1,.933,342.888c1.155-1.432,2.374-2.843,3.644-4.172C4.974,338.3,4.346,337.714,3.934,338.105Z" transform="translate(25.701 -272.487)" fill="#282b38"/>
        <path id="Trazado_693304" data-name="Trazado 693304" d="M-.959,378.02A103.463,103.463,0,0,0-6.6,388.376c-1.477,3.02-2.836,6.1-4.12,9.2a30.82,30.82,0,0,0-6.765-14.287,25.018,25.018,0,0,0-3.722-3.563c-.336-.261-.792.191-.464.49a31.274,31.274,0,0,1,10.223,19.19c.053.439.744.768.958.239q2.213-5.466,4.822-10.759c1.742-3.53,3.679-6.945,5.531-10.415A.47.47,0,0,0-.959,378.02Z" transform="translate(26.953 -288.112)" fill="#282b38"/>
      </g>
      <g id="Grupo_950131" data-name="Grupo 950131" transform="translate(8.054 31.286)">
        <path id="Trazado_693305" data-name="Trazado 693305" d="M75.007,276.353a111.972,111.972,0,0,0-58.869,40.87A115.371,115.371,0,0,0-6.28,386.073C31.351,360.188,62.642,320.823,75.007,276.353Z" transform="translate(13.481 -276.353)" fill="#e82048"/>
        <path id="Trazado_693306" data-name="Trazado 693306" d="M-16.087,403.688c.411-1.074.811-2.153,1.233-3.224q1.4-3.535,2.932-7.012,3.012-6.823,6.511-13.417a279.007,279.007,0,0,1,15.546-25.708C15.824,345.9,21.878,337.73,28.1,329.7c6.181-7.973,12.539-15.807,18.894-23.641q10.171-12.54,20.535-24.917c.864-1.03,1.725-2.056,2.562-3.107.293-.368-.2-.857-.537-.511-3.784,3.848-7.248,8.037-10.721,12.164s-6.91,8.322-10.329,12.512c-6.478,7.94-12.952,15.885-19.271,23.953-6.229,7.952-12.307,16.028-18.053,24.338A290.6,290.6,0,0,0-4.841,376.246a197.441,197.441,0,0,0-12.508,27.233Z" transform="translate(17.349 -276.72)" fill="#282b38"/>
        <path id="Trazado_693307" data-name="Trazado 693307" d="M82.783,317.654a64.064,64.064,0,0,0-16.261,8.274c-.807.556-1.6,1.134-2.38,1.725a44.882,44.882,0,0,0,4.142-16.771,27.8,27.8,0,0,0-.159-5.631.394.394,0,0,0-.787.029c-.036,2.079.064,4.142-.092,6.221a45.92,45.92,0,0,1-.872,6.116,44.84,44.84,0,0,1-4.208,11.621c-.23.435.312,1.066.751.712a69.742,69.742,0,0,1,9.59-6.489,81.979,81.979,0,0,1,10.572-4.841C83.679,318.389,83.41,317.449,82.783,317.654Z" transform="translate(-10.422 -286.326)" fill="#282b38"/>
        <path id="Trazado_693308" data-name="Trazado 693308" d="M54.011,354.269a48.664,48.664,0,0,0-17.718,8.69c-.821.629-1.619,1.286-2.4,1.961a54.076,54.076,0,0,0,4.13-19.056,40.121,40.121,0,0,0-.256-6.374.384.384,0,0,0-.767.028,69.812,69.812,0,0,1-.387,10.938A56.186,56.186,0,0,1,34.2,360.97a52.747,52.747,0,0,1-2.305,5.789.547.547,0,0,0,.871.637,50.333,50.333,0,0,1,16.277-10.444c1.711-.676,3.467-1.3,5.227-1.834A.444.444,0,0,0,54.011,354.269Z" transform="translate(0.159 -298.295)" fill="#282b38"/>
        <path id="Trazado_693309" data-name="Trazado 693309" d="M32.069,387.454a103.557,103.557,0,0,0-10.01,6.233c-2.773,1.9-5.471,3.907-8.12,5.977A30.815,30.815,0,0,0,15.091,383.9a24.967,24.967,0,0,0-1.482-4.935c-.163-.393-.783-.224-.645.2A31.272,31.272,0,0,1,12.4,400.9c-.17.408.269,1.034.717.68q4.618-3.666,9.5-6.986c3.255-2.214,6.623-4.231,9.945-6.338A.47.47,0,0,0,32.069,387.454Z" transform="translate(6.964 -312.138)" fill="#282b38"/>
      </g>
    </g>
    <g id="Grupo_950136" data-name="Grupo 950136" transform="translate(699.705 5478.425)">
      <g id="Grupo_950133" data-name="Grupo 950133" transform="translate(21.071)">
        <path id="Trazado_693310" data-name="Trazado 693310" d="M642.287,278.9a132.678,132.678,0,0,0,12.553,83.983,136.7,136.7,0,0,0,61.4,59.926C708.47,369.257,683.052,315.364,642.287,278.9Z" transform="translate(-640.176 -278.905)" fill="#3b53db"/>
        <path id="Trazado_693311" data-name="Trazado 693311" d="M643.439,281.825c2.1,6.039,4.738,11.916,7.3,17.771,2.571,5.87,5.218,11.705,7.878,17.536,5.039,11.048,10.086,22.092,15.344,33.037,5.183,10.789,10.576,21.483,16.392,31.946a344.322,344.322,0,0,0,18.965,30.537c4.256,6.067,8.747,12,13.521,17.683l.28-2.073q-5.25-6.34-10.073-13.017a330.69,330.69,0,0,1-19.163-30c-5.968-10.462-11.476-21.18-16.745-32.009-5.229-10.749-10.219-21.612-15.211-32.474q-7.991-17.384-15.706-34.886c-.641-1.458-1.279-2.911-1.958-4.352A.439.439,0,0,0,643.439,281.825Z" transform="translate(-641.306 -279.726)" fill="#282b38"/>
        <path id="Trazado_693312" data-name="Trazado 693312" d="M670.03,330.243a75.925,75.925,0,0,0,.264,21.616c.168,1.149.368,2.293.585,3.433a53.163,53.163,0,0,0-15.647-13.2,32.87,32.87,0,0,0-6.067-2.783.467.467,0,0,0-.382.851c2.19,1.129,4.435,2.1,6.562,3.361a54.426,54.426,0,0,1,6.041,4.134,53.119,53.119,0,0,1,10.141,10.565c.341.472,1.3.228,1.151-.423a82.664,82.664,0,0,1-1.866-13.592,97.141,97.141,0,0,1,.4-13.772C671.281,329.677,670.141,329.469,670.03,330.243Z" transform="translate(-643.09 -296.677)" fill="#282b38"/>
        <path id="Trazado_693313" data-name="Trazado 693313" d="M693.823,379.862a57.659,57.659,0,0,0-.058,23.383c.238,1.2.517,2.394.824,3.58a64.079,64.079,0,0,0-18.082-14.381,47.5,47.5,0,0,0-6.907-3.071c-.543-.186-.915.582-.372.83a82.669,82.669,0,0,1,11.419,6.147,66.568,66.568,0,0,1,9.907,8.075,62.689,62.689,0,0,1,4.943,5.486.648.648,0,0,0,1.133-.591,59.634,59.634,0,0,1-2.56-22.772c.178-2.173.431-4.367.791-6.516A.526.526,0,0,0,693.823,379.862Z" transform="translate(-650.237 -314.042)" fill="#282b38"/>
        <path id="Trazado_693314" data-name="Trazado 693314" d="M716.278,420.087a122.793,122.793,0,0,0,1.373,13.9c.565,3.943,1.283,7.862,2.093,11.762a36.52,36.52,0,0,0-16.147-9.492,29.616,29.616,0,0,0-6.021-1.012c-.5-.033-.649.714-.129.789a37.058,37.058,0,0,1,22.8,11.995c.345.395,1.24.257,1.1-.4q-1.472-6.83-2.443-13.756c-.645-4.619-1.022-9.255-1.518-13.891A.557.557,0,0,0,716.278,420.087Z" transform="translate(-660.078 -328.041)" fill="#282b38"/>
      </g>
      <g id="Grupo_950134" data-name="Grupo 950134" transform="translate(0 43.093)">
        <path id="Trazado_693315" data-name="Trazado 693315" d="M607.784,345.151a132.675,132.675,0,0,0,36.446,76.7,136.7,136.7,0,0,0,76.178,39.469C697.393,412.336,657.395,368.171,607.784,345.151Z" transform="translate(-607.784 -345.151)" fill="#fbcc34"/>
        <path id="Trazado_693316" data-name="Trazado 693316" d="M682.772,430.16a344.235,344.235,0,0,0,27.03,23.7A246.671,246.671,0,0,0,732.584,469.8l1.187-1.058c-1.752-1.079-3.494-2.173-5.216-3.3q-7.4-4.836-14.432-10.2a330.475,330.475,0,0,1-27.063-23.127c-8.754-8.272-17.142-16.924-25.334-25.751-8.131-8.762-16.065-17.7-24-26.643q-12.7-14.306-25.177-28.806c-1.038-1.209-2.071-2.413-3.139-3.594a.439.439,0,0,0-.7.529c3.77,5.165,8,10.022,12.157,14.877s8.4,9.681,12.639,14.485c8.036,9.1,16.078,18.2,24.293,27.143C665.892,413.18,674.164,421.841,682.772,430.16Z" transform="translate(-608.074 -345.858)" fill="#282b38"/>
        <path id="Trazado_693317" data-name="Trazado 693317" d="M649.733,383.061a75.916,75.916,0,0,0,6.543,20.6c.5,1.051,1.019,2.086,1.559,3.115a53.166,53.166,0,0,0-18.809-8.073,32.936,32.936,0,0,0-6.614-.9.467.467,0,0,0-.118.926c2.424.442,4.856.723,7.256,1.306a54.428,54.428,0,0,1,6.983,2.2,53.1,53.1,0,0,1,12.777,7.158c.464.352,1.306-.159.978-.741a82.568,82.568,0,0,1-5.74-12.461,97.168,97.168,0,0,1-3.624-13.292C650.766,382.155,649.615,382.288,649.733,383.061Z" transform="translate(-616.212 -358.171)" fill="#282b38"/>
        <path id="Trazado_693318" data-name="Trazado 693318" d="M686.993,423.092a57.644,57.644,0,0,0,6.748,22.388c.577,1.08,1.191,2.14,1.83,3.186a64.077,64.077,0,0,0-21.484-8.5,47.563,47.563,0,0,0-7.5-.928.455.455,0,0,0-.114.9,82.646,82.646,0,0,1,12.713,2.558,66.525,66.525,0,0,1,11.827,4.843,62.592,62.592,0,0,1,6.324,3.811.648.648,0,0,0,.913-.9,59.625,59.625,0,0,1-9.076-21.04c-.462-2.131-.858-4.3-1.139-6.465A.525.525,0,0,0,686.993,423.092Z" transform="translate(-628.161 -372.189)" fill="#282b38"/>
        <path id="Trazado_693319" data-name="Trazado 693319" d="M721.089,455.926a122.884,122.884,0,0,0,5.359,12.9c1.688,3.608,3.515,7.148,5.425,10.644a36.517,36.517,0,0,0-18.21-4.383,29.632,29.632,0,0,0-6.056.783c-.491.115-.412.872.107.793a37.053,37.053,0,0,1,25.3,4.84c.445.278,1.262-.115.933-.706q-3.4-6.106-6.339-12.449c-1.961-4.232-3.671-8.558-5.494-12.848A.557.557,0,0,0,721.089,455.926Z" transform="translate(-642.557 -383.601)" fill="#282b38"/>
      </g>
      <g id="Grupo_950135" data-name="Grupo 950135" transform="translate(59.584 1.098)">
        <path id="Trazado_693320" data-name="Trazado 693320" d="M709.71,280.593a132.68,132.68,0,0,0-6.076,84.7,136.7,136.7,0,0,0,46.842,71.879C754.583,383.209,741.537,325.069,709.71,280.593Z" transform="translate(-699.381 -280.593)" fill="#e82048"/>
        <path id="Trazado_693321" data-name="Trazado 693321" d="M767.283,456.323c-.685-1.178-1.383-2.349-2.056-3.535q-2.225-3.916-4.289-7.919-4.054-7.852-7.535-15.983a330.549,330.549,0,0,1-12.155-33.459c-3.542-11.513-6.578-23.173-9.357-34.891-2.758-11.632-5.257-23.322-7.758-35.011q-4-18.708-7.715-37.472c-.308-1.562-.613-3.12-.961-4.674a.44.44,0,0,0-.871.115c.736,6.352,2.024,12.663,3.249,18.936,1.228,6.289,2.538,12.562,3.861,18.832,2.507,11.88,5.023,23.76,7.765,35.589,2.7,11.66,5.634,23.272,9.026,34.753a344.362,344.362,0,0,0,11.845,33.939,233.919,233.919,0,0,0,15.82,31.789Z" transform="translate(-704.694 -281.439)" fill="#282b38"/>
        <path id="Trazado_693322" data-name="Trazado 693322" d="M728.846,339.078a75.91,75.91,0,0,0-4.459,21.153c-.086,1.159-.141,2.318-.178,3.478a53.171,53.171,0,0,0-12.39-16.292,32.873,32.873,0,0,0-5.313-4.041.467.467,0,0,0-.558.747c1.891,1.579,3.869,3.021,5.67,4.712a54.561,54.561,0,0,1,4.994,5.352,53.132,53.132,0,0,1,7.591,12.524c.23.535,1.215.505,1.216-.163a82.656,82.656,0,0,1,1.145-13.672,97.128,97.128,0,0,1,3.4-13.352C730.191,338.8,729.123,338.347,728.846,339.078Z" transform="translate(-701.611 -300.903)" fill="#282b38"/>
        <path id="Trazado_693323" data-name="Trazado 693323" d="M741.2,393.083a57.668,57.668,0,0,0-5.159,22.807c-.03,1.225-.018,2.45.023,3.673a64.083,64.083,0,0,0-14.508-17.98,47.453,47.453,0,0,0-6.071-4.5c-.49-.3-1.019.368-.544.729a82.617,82.617,0,0,1,9.8,8.491,66.559,66.559,0,0,1,7.906,10.042,62.56,62.56,0,0,1,3.627,6.432.648.648,0,0,0,1.235-.33,59.623,59.623,0,0,1,2.47-22.781c.648-2.082,1.374-4.168,2.194-6.186A.526.526,0,0,0,741.2,393.083Z" transform="translate(-704.752 -319.799)" fill="#282b38"/>
        <path id="Trazado_693324" data-name="Trazado 693324" d="M753.651,436.576a122.9,122.9,0,0,0-1.694,13.869c-.309,3.971-.464,7.952-.524,11.935a36.516,36.516,0,0,0-13.687-12.787,29.591,29.591,0,0,0-5.655-2.3c-.483-.142-.788.555-.3.742a37.058,37.058,0,0,1,19.635,16.681c.25.46,1.155.521,1.16-.155q.053-6.987.618-13.957c.378-4.648,1.022-9.255,1.549-13.887A.557.557,0,0,0,753.651,436.576Z" transform="translate(-710.622 -334.946)" fill="#282b38"/>
      </g>
    </g>
    <g id="Grupo_950140" data-name="Grupo 950140" transform="translate(561.459 5515.706)">
      <g id="Grupo_950137" data-name="Grupo 950137" transform="translate(17.475)">
        <path id="Trazado_693325" data-name="Trazado 693325" d="M433.057,336.216a103.883,103.883,0,0,0-9.1,65.863,107.032,107.032,0,0,0,32.906,58.565C462.846,418.694,455.639,372.6,433.057,336.216Z" transform="translate(-422.126 -336.216)" fill="#3b53db"/>
        <path id="Trazado_693326" data-name="Trazado 693326" d="M438.243,338.458c.248,5,.931,10,1.565,14.962s1.338,9.945,2.05,14.912c1.349,9.411,2.7,18.822,4.239,28.2,1.513,9.249,3.206,18.472,5.267,27.616a269.7,269.7,0,0,0,7.511,27.125c1.859,5.5,3.925,10.943,6.257,16.267l.667-1.5q-2.544-5.922-4.7-12a258.778,258.778,0,0,1-7.778-26.766c-2.176-9.177-3.949-18.443-5.519-27.741-1.557-9.229-2.909-18.491-4.263-27.752q-2.168-14.823-4.1-29.673c-.16-1.237-.319-2.469-.511-3.7A.344.344,0,0,0,438.243,338.458Z" transform="translate(-427.759 -336.876)" fill="#282b38"/>
        <path id="Trazado_693327" data-name="Trazado 693327" d="M446.4,383.258a59.425,59.425,0,0,0-4.57,16.3c-.128.9-.23,1.8-.318,2.708A41.642,41.642,0,0,0,432.67,388.9a25.792,25.792,0,0,0-3.944-3.43.366.366,0,0,0-.475.556c1.4,1.331,2.868,2.559,4.189,3.973a42.645,42.645,0,0,1,3.627,4.438,41.582,41.582,0,0,1,5.288,10.175c.152.43.923.457.958-.065a64.789,64.789,0,0,1,1.6-10.623,76.126,76.126,0,0,1,3.34-10.258C447.466,383.109,446.655,382.7,446.4,383.258Z" transform="translate(-424.222 -352.564)" fill="#282b38"/>
        <path id="Trazado_693328" data-name="Trazado 693328" d="M453.286,426.179a45.138,45.138,0,0,0-5.2,17.554c-.087.956-.139,1.912-.17,2.871A50.186,50.186,0,0,0,437.5,431.81a37.248,37.248,0,0,0-4.511-3.83c-.368-.26-.816.235-.463.541a64.664,64.664,0,0,1,7.222,7.138,52.085,52.085,0,0,1,5.661,8.251,49.082,49.082,0,0,1,2.5,5.212.507.507,0,0,0,.982-.195,46.7,46.7,0,0,1,3.1-17.672c.613-1.593,1.288-3.186,2.032-4.721A.412.412,0,0,0,453.286,426.179Z" transform="translate(-425.717 -367.581)" fill="#282b38"/>
        <path id="Trazado_693329" data-name="Trazado 693329" d="M460.594,460.682a95.95,95.95,0,0,0-2.035,10.749c-.446,3.087-.771,6.19-1.023,9.3A28.584,28.584,0,0,0,447.5,470.036a23.161,23.161,0,0,0-4.3-2.089c-.37-.135-.645.394-.271.565a29.013,29.013,0,0,1,14.484,14.041c.172.373.876.466.914-.062q.4-5.456,1.2-10.873c.534-3.613,1.274-7.179,1.923-10.771A.436.436,0,0,0,460.594,460.682Z" transform="translate(-429.334 -379.599)" fill="#282b38"/>
      </g>
      <g id="Grupo_950138" data-name="Grupo 950138" transform="translate(0 27.261)">
        <path id="Trazado_693330" data-name="Trazado 693330" d="M396.745,378.123a103.881,103.881,0,0,0,10.461,65.66,107.027,107.027,0,0,0,48.523,46.456C449.245,448.364,428.938,406.361,396.745,378.123Z" transform="translate(-395.263 -378.123)" fill="#fbcc34"/>
        <path id="Trazado_693331" data-name="Trazado 693331" d="M435.068,458.576a269.64,269.64,0,0,0,15.079,23.765,193.235,193.235,0,0,0,13.6,17.007l1.125-.533q-1.618-1.8-3.191-3.629-4.49-5.264-8.593-10.843A258.687,258.687,0,0,1,437.855,461c-4.752-8.146-9.145-16.5-13.352-24.934-4.176-8.377-8.164-16.845-12.154-25.31q-6.387-13.551-12.56-27.2c-.513-1.137-1.024-2.27-1.566-3.393a.344.344,0,0,0-.643.243c1.693,4.712,3.8,9.294,5.851,13.859s4.174,9.125,6.3,13.67c4.029,8.611,8.064,17.221,12.263,25.751C426.132,442.1,430.436,450.427,435.068,458.576Z" transform="translate(-396.064 -378.764)" fill="#282b38"/>
        <path id="Trazado_693332" data-name="Trazado 693332" d="M418.8,418.027a59.421,59.421,0,0,0,.37,16.923c.141.9.305,1.792.484,2.683a41.628,41.628,0,0,0-12.35-10.214,25.816,25.816,0,0,0-4.771-2.134.366.366,0,0,0-.293.67c1.723.866,3.489,1.613,5.164,2.581a42.825,42.825,0,0,1,4.761,3.191,41.585,41.585,0,0,1,8.019,8.2c.271.367,1.016.169.9-.341a64.69,64.69,0,0,1-1.563-10.628,76.139,76.139,0,0,1,.209-10.785C419.779,417.575,418.884,417.421,418.8,418.027Z" transform="translate(-397.628 -391.934)" fill="#282b38"/>
        <path id="Trazado_693333" data-name="Trazado 693333" d="M437.808,456.684a45.154,45.154,0,0,0,.131,18.308c.2.939.423,1.87.673,2.8a50.172,50.172,0,0,0-14.266-11.124,37.223,37.223,0,0,0-5.43-2.352.356.356,0,0,0-.286.652,64.706,64.706,0,0,1,8.987,4.727,52.084,52.084,0,0,1,7.817,6.247,49.136,49.136,0,0,1,3.911,4.258.507.507,0,0,0,.883-.472,46.7,46.7,0,0,1-2.177-17.81c.123-1.7.305-3.422.57-5.108A.412.412,0,0,0,437.808,456.684Z" transform="translate(-403.356 -405.463)" fill="#282b38"/>
        <path id="Trazado_693334" data-name="Trazado 693334" d="M455.716,488.032a96.01,96.01,0,0,0,1.18,10.876c.472,3.083,1.063,6.146,1.727,9.194a28.578,28.578,0,0,0-12.713-7.31,23.159,23.159,0,0,0-4.722-.747c-.394-.022-.5.564-.1.619a29.017,29.017,0,0,1,17.943,9.219c.273.307.973.192.857-.325q-1.205-5.336-2.016-10.751c-.54-3.612-.87-7.239-1.294-10.864A.436.436,0,0,0,455.716,488.032Z" transform="translate(-411.19 -416.372)" fill="#282b38"/>
      </g>
      <g id="Grupo_950139" data-name="Grupo 950139" transform="translate(39.972 11.134)">
        <path id="Trazado_693335" data-name="Trazado 693335" d="M480.009,353.332a103.882,103.882,0,0,0-23.249,62.291,107.03,107.03,0,0,0,19.334,64.334C491.083,440.322,494.108,393.767,480.009,353.332Z" transform="translate(-456.711 -353.332)" fill="#e82048"/>
        <path id="Trazado_693336" data-name="Trazado 693336" d="M489.621,496.871c-.254-1.036-.52-2.07-.765-3.109q-.806-3.433-1.475-6.9-1.313-6.793-2.135-13.67a259.016,259.016,0,0,1-1.75-27.818c-.121-9.43.17-18.861.668-28.277.493-9.346,1.195-18.681,1.894-28.013q1.119-14.939,2.471-29.854c.114-1.242.228-2.479.309-3.723a.344.344,0,0,0-.679-.105c-.849,4.934-1.273,9.959-1.737,14.942s-.865,10-1.254,15c-.737,9.478-1.468,18.958-2.017,28.45-.541,9.356-.9,18.727-.886,28.1a269.727,269.727,0,0,0,1.412,28.11,183.208,183.208,0,0,0,4.872,27.373Z" transform="translate(-465.642 -353.958)" fill="#282b38"/>
        <path id="Trazado_693337" data-name="Trazado 693337" d="M489.225,402.171a59.443,59.443,0,0,0-8.016,14.908c-.321.851-.617,1.71-.9,2.574a41.621,41.621,0,0,0-5.714-14.973,25.71,25.71,0,0,0-3.1-4.208.365.365,0,0,0-.584.438c1.072,1.6,2.24,3.123,3.221,4.791a42.679,42.679,0,0,1,2.571,5.123,41.576,41.576,0,0,1,2.94,11.083c.055.453.8.648.949.146a64.671,64.671,0,0,1,3.876-10.018,76,76,0,0,1,5.5-9.282C490.3,402.258,489.6,401.683,489.225,402.171Z" transform="translate(-461.648 -369.762)" fill="#282b38"/>
        <path id="Trazado_693338" data-name="Trazado 693338" d="M486.632,445.32a45.147,45.147,0,0,0-8.907,16c-.293.913-.554,1.836-.793,2.765A50.179,50.179,0,0,0,470,447.372a37.222,37.222,0,0,0-3.567-4.723c-.3-.334-.848.051-.57.427a64.654,64.654,0,0,1,5.491,8.541,52.045,52.045,0,0,1,3.724,9.288,48.99,48.99,0,0,1,1.306,5.632.507.507,0,0,0,1,.025,46.7,46.7,0,0,1,6.882-16.57c.946-1.421,1.952-2.828,3.013-4.163C487.61,445.412,486.98,444.924,486.632,445.32Z" transform="translate(-459.883 -384.504)" fill="#282b38"/>
        <path id="Trazado_693339" data-name="Trazado 693339" d="M485.578,481.663a96.2,96.2,0,0,0-4.332,10.046c-1.108,2.916-2.1,5.872-3.026,8.851a28.585,28.585,0,0,0-7.461-12.626,23.2,23.2,0,0,0-3.741-2.977c-.332-.213-.715.243-.388.492A29.012,29.012,0,0,1,477.7,502.312c.086.4.753.647.905.139q1.582-5.237,3.543-10.349c1.309-3.409,2.81-6.728,4.227-10.091A.436.436,0,0,0,485.578,481.663Z" transform="translate(-460.134 -398.097)" fill="#282b38"/>
      </g>
    </g>
    <rect id="Rect치ngulo_337874" data-name="Rect치ngulo 337874" width="487.877" height="325.251" transform="translate(304.34 5296.997)" fill="none"/>
    <g id="Grupo_950162" data-name="Grupo 950162" transform="translate(480.807 5325.367)">
      <path id="Trazado_693340" data-name="Trazado 693340" d="M484.271,395.151,477.5,420.046,413.023,474.86h83.486l31.862-14.712a53.353,53.353,0,0,0,30.81-44.107l1.612-19.792Z" transform="translate(-320.817 -166.474)" fill="#0b0c0f"/>
      <path id="Trazado_693341" data-name="Trazado 693341" d="M521.494,400.923c.844,11.18,8.095,21.966,19.38,28.83-7.5,11.778-14.774,21.965-22.269,33.743h62.038c6.881-11.591,12.953-14.593,17.052-26.372s5.645-24.512,2.508-42.168C578.845,393.8,542.528,397.8,521.494,400.923Z" transform="translate(-357.718 -166.335)" fill="#282b38"/>
      <g id="Grupo_950161" data-name="Grupo 950161">
        <g id="Grupo_950145" data-name="Grupo 950145" transform="translate(0 126.759)">
          <path id="Trazado_693342" data-name="Trazado 693342" d="M361.165,252.234l-33.537-.64-.106-.018v11.561l24.364,5.892Z" transform="translate(-290.935 -243.054)" fill="#db9d67"/>
          <path id="Trazado_693343" data-name="Trazado 693343" d="M320.28,247.539a16.384,16.384,0,0,0-15.5-6.236,31.027,31.027,0,0,1-7.426-2.708,1.138,1.138,0,0,0-1.582,1.347,5.928,5.928,0,0,0,2.391,3.454c1.823,1.186,6.56,2.118,8.684,2.586,2.084,3.683,3.35,5.789,7.552,6.29a7.212,7.212,0,0,0,4.23-.58C319.906,251.016,320.418,248.978,320.28,247.539Z" transform="translate(-279.824 -238.476)" fill="#db9d67"/>
          <path id="Trazado_693344" data-name="Trazado 693344" d="M320.608,262.364a7.961,7.961,0,0,0-3.289-8.65c-2.957-2.265-5.885-4.287-9.238-2.664-3.291,1.591-7.219,2.59-10.25,4.162A75.6,75.6,0,0,0,300.537,267,44.944,44.944,0,0,0,320.608,262.364Z" transform="translate(-280.558 -242.665)" fill="#db9d67"/>
          <path id="Trazado_693345" data-name="Trazado 693345" d="M323.347,255.76a4.911,4.911,0,0,1-4.051-.346,11.235,11.235,0,0,1-7.057-8.6.326.326,0,0,0-.636.139,13.3,13.3,0,0,0,2.724,5.721,12.443,12.443,0,0,0,5.616,3.684,4.842,4.842,0,0,0,3.7-.02C324.023,256.155,323.723,255.577,323.347,255.76Z" transform="translate(-285.369 -241.304)" fill="#bd7231"/>
          <g id="Grupo_950144" data-name="Grupo 950144" transform="translate(0 11.085)">
            <path id="Trazado_693346" data-name="Trazado 693346" d="M296,269.759a24.848,24.848,0,0,1-6.015,3.368c-2.56.865-5.35.628-7.995.36a1.626,1.626,0,0,0-.133,3.25c2.91.294,6,.5,8.823-.433A23.32,23.32,0,0,0,296,273.639Z" transform="translate(-274.429 -260.494)" fill="#db9d67"/>
            <path id="Trazado_693347" data-name="Trazado 693347" d="M293.1,264.753a30.61,30.61,0,0,1-7.749,3.154,14.015,14.015,0,0,1-5.279.141c-2.017-.252-4.032-.516-6.047-.774a1.68,1.68,0,0,0-1.975,1.18,1.638,1.638,0,0,0,1.181,1.975c2.119.271,4.236.551,6.356.813a17.738,17.738,0,0,0,6.327-.124,35.108,35.108,0,0,0,5.613-2.011c.531-.225,1.055-.465,1.574-.714Z" transform="translate(-271.533 -258.744)" fill="#db9d67"/>
            <path id="Trazado_693348" data-name="Trazado 693348" d="M292.845,259.732a30.492,30.492,0,0,1-8.194,2.917,14.012,14.012,0,0,1-5.279-.126c-2-.354-4-.719-6-1.079a1.678,1.678,0,0,0-2.032,1.079,1.637,1.637,0,0,0,1.079,2.032c2.1.378,4.2.766,6.307,1.133a17.724,17.724,0,0,0,6.326.2,35.07,35.07,0,0,0,5.707-1.724c.706-.258,1.4-.543,2.087-.844Z" transform="translate(-271.278 -256.99)" fill="#db9d67"/>
            <path id="Trazado_693349" data-name="Trazado 693349" d="M294.064,255.516a31.1,31.1,0,0,1-5.925,1.837,14.011,14.011,0,0,1-5.279-.126c-2-.355-4-.719-6-1.079a1.679,1.679,0,0,0-2.031,1.079,1.637,1.637,0,0,0,1.079,2.032c2.1.378,4.2.765,6.307,1.133a17.739,17.739,0,0,0,6.326.2,33.992,33.992,0,0,0,5.524-1.659Z" transform="translate(-272.497 -255.516)" fill="#db9d67"/>
          </g>
        </g>
        <g id="Grupo_950154" data-name="Grupo 950154" transform="translate(168.96)">
          <g id="Grupo_950153" data-name="Grupo 950153">
            <path id="Trazado_693350" data-name="Trazado 693350" d="M660.147,159.961l-12.97-19.408c-7.328-6.966-15.667-10.621-22.569-11.57-1.365,2.923-4.079,6.33-3.063,9.531a17.037,17.037,0,0,0,5.684,7.935,17.669,17.669,0,0,0,11.792,3.709c2.38,4.949,4.959,10.007,7.338,14.956A18.979,18.979,0,0,0,660.147,159.961Z" transform="translate(-562.577 -73.449)" fill="#db9d67"/>
            <g id="Grupo_950152" data-name="Grupo 950152">
              <g id="Grupo_950151" data-name="Grupo 950151">
                <g id="Grupo_950146" data-name="Grupo 950146" transform="translate(33.821 18.476)">
                  <path id="Trazado_693351" data-name="Trazado 693351" d="M616.542,94.4a19.687,19.687,0,0,1-.579,2.036c-.137.384-.28.761-.429,1.138a28.649,28.649,0,0,1-1.431,2.992c-.293.54-.6,1.073-.917,1.607-.677,1.132-1.4,2.244-2.121,3.344-.1.163-.208.319-.312.475-.228.345-.468.7-.722,1.047-1.347,1.9-3.012,3.682-5.263,3.844-1.965.143-3.766-1.028-5.315-2.244a48.683,48.683,0,0,1-11.969-13.726c-2.127-3.63-7.247-11.143-2.563-14.285,1.789-1.2,3.682-2.29,5.588-3.35.4-.221.807-.449,1.21-.67.885-.488,1.769-.969,2.647-1.464.4-.221.807-.449,1.2-.677l.234-.137c.748-.429,1.509-.865,2.3-1.242.442-.208.891-.4,1.347-.566a7.882,7.882,0,0,1,2.875-.507c3.766.091,6.6,3.331,8.912,6.3s4.71,6.089,5.477,9.777A14.862,14.862,0,0,1,616.542,94.4Z" transform="translate(-583.007 -72.016)" fill="#fafafa"/>
                  <path id="Trazado_693352" data-name="Trazado 693352" d="M624.652,94.675a19.686,19.686,0,0,1-.579,2.036c-.143-.39-.293-.781-.449-1.164-3.584-8.9-10.109-16.126-17.414-22.182.442-.208.891-.4,1.347-.566,1.535,1.288,3.038,2.622,4.475,4.02A53.975,53.975,0,0,1,624.652,94.675Z" transform="translate(-591.117 -72.289)" fill="#231f20"/>
                  <path id="Trazado_693353" data-name="Trazado 693353" d="M620.206,101.887c-.293.54-.6,1.073-.917,1.607a36.625,36.625,0,0,0-1.613-5.015c-3.545-8.814-9.985-15.983-17.206-22.013.4-.221.807-.449,1.2-.677,1.516,1.268,2.992,2.582,4.417,3.962C612.433,85.891,617.773,93.366,620.206,101.887Z" transform="translate(-589.11 -73.334)" fill="#231f20"/>
                  <path id="Trazado_693354" data-name="Trazado 693354" d="M615.1,107.987c-.1.163-.208.319-.312.475-.228.345-.468.7-.722,1.047a37.214,37.214,0,0,0-2.153-7.611c-3.578-8.879-10.083-16.1-17.368-22.15.4-.221.807-.449,1.21-.67,1.568,1.308,3.1,2.667,4.567,4.092C607.322,89.942,613.1,98.353,615.1,107.987Z" transform="translate(-587.038 -74.484)" fill="#231f20"/>
                </g>
                <path id="Trazado_693355" data-name="Trazado 693355" d="M559.869,49.487c-4.848-4.725-12.283-7.457-18.546-4.886-4.273,1.754-7.373,5.722-8.893,10.084a32.815,32.815,0,0,0-1.209,13.7c2.18,24.525,19.526,47.059,42.678,55.44a33,33,0,0,0,12.828,2.344,16.734,16.734,0,0,0,11.7-5.165c4.235-4.786,4.44-12.131,2.176-18.107s-6.586-10.906-10.82-15.693c-5.35-6.048-10.9-11.937-15.82-18.353C569.287,62.753,566.1,54.163,559.869,49.487Z" transform="translate(-531.015 -43.613)" fill="#fafafa"/>
                <path id="Trazado_693356" data-name="Trazado 693356" d="M561.21,55.794c-4.6-4.479-11.643-7.068-17.58-4.632-4.05,1.663-6.989,5.425-8.429,9.559a31.1,31.1,0,0,0-1.146,12.984c2.066,23.247,18.509,44.608,40.454,52.552a31.278,31.278,0,0,0,12.16,2.221,15.86,15.86,0,0,0,11.086-4.9c4.015-4.537,4.209-11.5,2.063-17.164s-6.243-10.338-10.257-14.875c-5.071-5.733-10.336-11.316-15-17.4C570.136,68.369,567.12,60.227,561.21,55.794Z" transform="translate(-532.009 -45.924)" fill="#e2c675" opacity="0.46" style="mix-blend-mode: multiply;isolation: isolate"/>
                <g id="Grupo_950147" data-name="Grupo 950147" transform="translate(1.199 3.651)">
                  <path id="Trazado_693357" data-name="Trazado 693357" d="M585.188,128.809a32.961,32.961,0,0,1-11.25-2.29,62.144,62.144,0,0,1-27.976-20.752,62.144,62.144,0,0,1-12.905-32.354c-.477-5.365-.1-9.578,1.179-13.256a16.258,16.258,0,0,1,8.8-9.946c6.493-2.664,13.837.455,18.251,4.738,3.893,2.933,6.543,7.4,9.106,11.724a68.559,68.559,0,0,0,4.341,6.729c3.538,4.617,7.5,9.025,11.327,13.289q1.826,2.032,3.639,4.072c3.826,4.325,8.163,9.227,10.378,15.076,2.475,6.534,1.618,13.53-2.184,17.826a16.488,16.488,0,0,1-11.539,5.114C585.968,128.8,585.579,128.809,585.188,128.809ZM548.153,50.521a12.091,12.091,0,0,0-4.626.894,14.96,14.96,0,0,0-8.062,9.171c-1.219,3.5-1.572,7.537-1.112,12.713,2.028,22.818,18.488,44.2,40.028,52a30.2,30.2,0,0,0,11.9,2.184,15.188,15.188,0,0,0,10.633-4.677c3.485-3.938,4.247-10.416,1.941-16.5-2.13-5.626-6.2-10.226-10.135-14.675q-1.805-2.04-3.633-4.065c-3.846-4.282-7.824-8.71-11.392-13.367a70.558,70.558,0,0,1-4.428-6.857c-2.506-4.225-5.1-8.594-8.8-11.372l-.064-.055C557.338,52.92,552.76,50.521,548.153,50.521Z" transform="translate(-532.858 -49.225)" fill="#231f20"/>
                </g>
                <g id="Grupo_950148" data-name="Grupo 950148" transform="translate(5.127 9.776)">
                  <path id="Trazado_693358" data-name="Trazado 693358" d="M583.11,127.532a27.328,27.328,0,0,1-9.523-1.984c-18.872-7-32.746-25.454-34.523-45.926a27.611,27.611,0,0,1,1-11.476,14.018,14.018,0,0,1,7.469-8.643c5.521-2.322,11.755.387,15.5,4.108,3.293,2.545,5.531,6.409,7.7,10.147a59.212,59.212,0,0,0,3.653,5.8c2.98,3.983,6.317,7.788,9.544,11.468q1.539,1.754,3.068,3.516c3.23,3.74,6.892,7.98,8.764,13.043,2.1,5.667,1.367,11.739-1.857,15.47a13.862,13.862,0,0,1-9.8,4.451Q583.608,127.532,583.11,127.532ZM551.893,59.94a9.88,9.88,0,0,0-3.856.762,12.729,12.729,0,0,0-6.742,7.863,26.414,26.414,0,0,0-.934,10.945c1.707,19.669,15.556,38.1,33.679,44.819a24.745,24.745,0,0,0,9.989,1.879,12.561,12.561,0,0,0,8.886-4c2.92-3.378,3.555-8.939,1.622-14.169-1.791-4.842-5.216-8.808-8.529-12.643q-1.521-1.762-3.062-3.509c-3.243-3.7-6.6-7.523-9.607-11.546a61.039,61.039,0,0,1-3.737-5.927c-2.108-3.641-4.287-7.405-7.4-9.793l-.062-.055A15.253,15.253,0,0,0,551.893,59.94Z" transform="translate(-538.897 -58.641)" fill="#231f20"/>
                </g>
                <g id="Grupo_950149" data-name="Grupo 950149" transform="translate(9.628 16.528)">
                  <path id="Trazado_693359" data-name="Trazado 693359" d="M582.455,125.8a22.811,22.811,0,0,1-7.906-1.635c-15.631-5.759-27.122-20.947-28.594-37.8a22.641,22.641,0,0,1,.831-9.468,11.644,11.644,0,0,1,6.234-7.164c4.606-1.924,9.8.314,12.921,3.391,2.735,2.1,4.589,5.281,6.38,8.357a48.686,48.686,0,0,0,3.01,4.749c2.46,3.266,5.214,6.388,7.879,9.406q1.271,1.441,2.535,2.887c2.675,3.078,5.707,6.566,7.262,10.741,1.746,4.692,1.135,9.723-1.555,12.818a11.6,11.6,0,0,1-8.177,3.692Q582.868,125.8,582.455,125.8ZM556.666,70.319a8.092,8.092,0,0,0-3.144.617,10.352,10.352,0,0,0-5.505,6.384,21.409,21.409,0,0,0-.766,8.934c1.406,16.1,12.817,31.187,27.748,36.688a20.517,20.517,0,0,0,8.209,1.536,10.293,10.293,0,0,0,7.263-3.247c2.383-2.739,2.9-7.258,1.317-11.509-1.471-3.954-4.294-7.2-7.024-10.342q-1.256-1.445-2.528-2.879c-2.681-3.038-5.453-6.178-7.943-9.485a50.3,50.3,0,0,1-3.1-4.877c-1.736-2.978-3.53-6.058-6.079-8l-.063-.055A12.525,12.525,0,0,0,556.666,70.319Z" transform="translate(-545.816 -69.021)" fill="#231f20"/>
                </g>
                <g id="Grupo_950150" data-name="Grupo 950150" transform="translate(14.302 24.146)">
                  <path id="Trazado_693360" data-name="Trazado 693360" d="M581.265,124.36a17.719,17.719,0,0,1-6.115-1.257,34.52,34.52,0,0,1-22.042-28.969,17.33,17.33,0,0,1,.645-7.289,9.054,9.054,0,0,1,4.87-5.557c3.592-1.492,7.639.232,10.07,2.612,2.119,1.622,3.547,4.059,4.928,6.416a36.845,36.845,0,0,0,2.3,3.608c1.882,2.485,3.991,4.862,6.033,7.161q.979,1.1,1.952,2.211c2.061,2.357,4.4,5.028,5.6,8.243,1.36,3.632.881,7.533-1.222,9.936a9.068,9.068,0,0,1-6.38,2.869Q581.587,124.36,581.265,124.36ZM561.481,82.029a6.117,6.117,0,0,0-2.358.46,7.765,7.765,0,0,0-4.139,4.78,16.1,16.1,0,0,0-.58,6.752c1.074,12.227,9.789,23.683,21.193,27.861a15.682,15.682,0,0,0,6.24,1.163,7.767,7.767,0,0,0,5.468-2.426c1.792-2.048,2.177-5.434.983-8.624-1.12-2.992-3.276-5.458-5.361-7.843q-.967-1.107-1.946-2.2c-2.057-2.317-4.185-4.714-6.1-7.239a38.05,38.05,0,0,1-2.385-3.735c-1.325-2.26-2.694-4.6-4.626-6.063l-.063-.055A9.477,9.477,0,0,0,561.481,82.029Z" transform="translate(-553.001 -80.731)" fill="#231f20"/>
                </g>
                <path id="Trazado_693361" data-name="Trazado 693361" d="M570.958,91.477c-2.006-1.956-5.084-3.087-7.676-2.022a6.874,6.874,0,0,0-3.681,4.174,13.584,13.584,0,0,0-.5,5.67,27.573,27.573,0,0,0,17.665,22.947,13.662,13.662,0,0,0,5.309.971,6.926,6.926,0,0,0,4.841-2.138c1.753-1.981,1.838-5.021.9-7.5a22,22,0,0,0-4.479-6.5c-2.214-2.5-4.513-4.941-6.548-7.6C574.857,96.967,573.54,93.412,570.958,91.477Z" transform="translate(-540.801 -59.491)" fill="#231f20"/>
              </g>
              <path id="Trazado_693362" data-name="Trazado 693362" d="M642.461,157.554a11.535,11.535,0,0,1-13.3,1.665c-3.374.114-7,.254-10.37.369a5.493,5.493,0,0,1,4.276-3.608,13.445,13.445,0,0,1,6.13.783,7.556,7.556,0,0,1,6.5-4C638.37,152.679,641.12,155.232,642.461,157.554Z" transform="translate(-561.691 -81.761)" fill="#db9d67"/>
            </g>
          </g>
          <path id="Trazado_693363" data-name="Trazado 693363" d="M647.265,153.811a9.422,9.422,0,0,0-13.387,2.341c-.237.345.315.69.552.344a8.774,8.774,0,0,1,12.49-2.133C647.259,154.609,647.6,154.056,647.265,153.811Z" transform="translate(-566.945 -81.492)" fill="#bd7231"/>
        </g>
        <path id="Trazado_693364" data-name="Trazado 693364" d="M602.878,222.333c-7.306-23.049-22.541-43.546-36.291-63.8-9.125,3.764-10.952,6.1-20.076,9.866l16.577,31.8L529.73,187.379c.007.047.014.1.021.144a109.565,109.565,0,0,0-49.644,2.249c-.736-1.006-1.517-1.988-2.349-2.935L420.1,220.009c-16.9-1.581-35.346-3.4-52.248-4.984-4.578,8.582-8.513,18.524-8.438,28.25,20.875,3.432,47.312,8,68.125,8,9.322-3.273,17.116-6.331,24.5-9.421a166.675,166.675,0,0,1,8.952,58.7c-.246,8.915-.043,11.074-1.749,19.855,30.354,11.3,65.671,21.914,89.3-.239.57-7.125,1.309-19.741,1.15-27.084-.137-6.3-.537-18.465-1.15-24.84a305.989,305.989,0,0,0-5.1-33.085c16.5,1.6,31.723,2.521,47.875,2.722A11.958,11.958,0,0,0,602.878,222.333Z" transform="translate(-302.081 -83.777)" fill="#fafafa"/>
        <path id="Trazado_693365" data-name="Trazado 693365" d="M453.645,275.311c-28.377,19.124-62.286,10-93.728,2.366a39.7,39.7,0,0,0-.5,6.412c20.875,3.432,47.312,8,68.125,8,9.322-3.273,17.116-6.331,24.5-9.421q1.79,5.221,3.232,10.551C454.5,286.643,453.877,281.348,453.645,275.311Z" transform="translate(-302.081 -124.591)" fill="#be9f46" opacity="0.3" style="mix-blend-mode: multiply;isolation: isolate"/>
        <path id="Trazado_693366" data-name="Trazado 693366" d="M657.1,248.333a121.944,121.944,0,0,0-6.134-15.41c1.138,8.911-.1,17.706-10.991,19.6a127.526,127.526,0,0,1-52.04-3.253c2.6,15.612,9.758,33.826-.651,47.487A105.22,105.22,0,0,1,547.6,328.633c14.311-1.952,27.321-7.806,39.681-14.962-8.457,15.612-24.069,24.719-40.982,28.622a158.739,158.739,0,0,1-31.754,4.522c30.107,11.144,64.867,21.248,88.213-.642.57-7.125,1.309-19.741,1.15-27.084-.137-6.3-.537-18.465-1.15-24.84a306.017,306.017,0,0,0-5.1-33.085c16.5,1.6,31.723,2.521,47.875,2.722A11.958,11.958,0,0,0,657.1,248.333Z" transform="translate(-356.299 -109.776)" fill="#be9f46" opacity="0.3" style="mix-blend-mode: multiply;isolation: isolate"/>
        <g id="Grupo_950160" data-name="Grupo 950160" transform="translate(160.82 47.192)">
          <g id="Grupo_950155" data-name="Grupo 950155" transform="translate(2.271 50.027)">
            <path id="Trazado_693367" data-name="Trazado 693367" d="M565.084,218.875a18.931,18.931,0,0,0,1.239-9.258,15.124,15.124,0,0,0-8.455-11.464c-4.467-2.054-9.723-2.636-13.823.1a17.08,17.08,0,0,0-15.957,7.134,17.715,17.715,0,0,0-1.173,17.677c2.53,4.974,7.247,8.352,11.145,12.334a25.431,25.431,0,0,0-8.895,9.833,26,26,0,0,0-1.425,19.684,31.812,31.812,0,0,0,14.73-18.266c2.07,8.28,7.389,15.367,15.054,20.408a26,26,0,0,0-1.073-19.707,25.445,25.445,0,0,0-8.423-9.795C555.232,232.677,562.053,226.852,565.084,218.875Z" transform="translate(-523.076 -194.23)" fill="#be9f46" opacity="0.3" style="mix-blend-mode: multiply;isolation: isolate"/>
            <path id="Trazado_693368" data-name="Trazado 693368" d="M561.982,215.179a18.362,18.362,0,0,0,1.239-9.11,14.91,14.91,0,0,0-8.455-11.282c-4.468-2.021-9.724-2.594-13.824.1A16.827,16.827,0,0,0,523.813,219.3c2.53,4.894,7.247,8.218,11.144,12.136a24.822,24.822,0,0,0-10.32,29.045A31.4,31.4,0,0,0,539.368,242.5c2.071,8.148,7.388,15.122,15.054,20.082a24.813,24.813,0,0,0-9.5-29.029C552.13,228.76,558.951,223.028,561.982,215.179Z" transform="translate(-521.992 -193.064)" fill="#e82048"/>
            <path id="Trazado_693369" data-name="Trazado 693369" d="M553.42,245.335c.65,2.6-1.3,4.554-1.952,6.505,1.155-5.2.765-11.922-2.517-16.555a25.655,25.655,0,0,0-2.246-1.729c2.086-1.388,4.135-2.858,6.072-4.432q-2.232,1.039-4.562,1.9c5.2-6.505,12.36-11.709,13.01-20.166-2.6,3.253-5.2,7.156-9.107,9.107,8.315-4.678,9.568-15.166,6.751-23.84a14.11,14.11,0,0,0-2.324-1.338c-4.468-2.021-9.724-2.594-13.824.1a16.172,16.172,0,0,0-4.353.036,23.971,23.971,0,0,0-3.815,4.881,21.229,21.229,0,0,0-1.951,18.865c-1.3-3.9-5.2-7.156-4.554-11.709a23.012,23.012,0,0,0,3.331,19.473c1.774,1.676,3.644,3.282,5.357,5a25.655,25.655,0,0,0-3.227,2.443c-3.681,5.42-4.159,12.015-4.159,18.614,0-5.2,3.253-9.107,4.553-13.661,0,7.212-2.225,15.407-6.819,21.249A31.344,31.344,0,0,0,541.149,242.5a33.471,33.471,0,0,0,13,18.651C555.175,255.858,554.5,250,553.42,245.335Z" transform="translate(-523.772 -193.064)" fill="#e2c675" opacity="0.71" style="mix-blend-mode: multiply;isolation: isolate"/>
          </g>
          <g id="Grupo_950159" data-name="Grupo 950159">
            <g id="Grupo_950156" data-name="Grupo 950156" transform="translate(1.768)">
              <path id="Trazado_693370" data-name="Trazado 693370" d="M525.81,119.928a14.88,14.88,0,0,1,16.653-2.14,3.776,3.776,0,0,0-3.571.88,10.646,10.646,0,0,1,12.55,11.172c2.558.957,4.072,3.8,4.073,6.534a12.988,12.988,0,0,1-2.881,7.522c-1.621,2.2-3.611,4.1-5.362,6.192a15.98,15.98,0,0,0-3.785,7.163l-8.094-12.042a28.414,28.414,0,0,0-5.289-6.409,10.251,10.251,0,0,0-6.29-2.467c-1.389-.008-1.5.128-1.944-1.278a14.065,14.065,0,0,1-.616-3.264A14.9,14.9,0,0,1,525.81,119.928Z" transform="translate(-521.219 -116.159)" fill="#231f20"/>
              <path id="Trazado_693371" data-name="Trazado 693371" d="M552.1,129.841a10.646,10.646,0,0,0-12.55-11.172,3.776,3.776,0,0,1,3.571-.88,14.88,14.88,0,0,0-16.653,2.14,14.057,14.057,0,0,0-3.358,4.861c2.844-4.358,8.722-6.089,13.307-5.662,4.062.723,16.917,6.543,10.275,12.477,8.343-.182,7.287,6.333,7.023,11.686a12.469,12.469,0,0,0,2.457-6.915C556.177,133.643,554.662,130.8,552.1,129.841Z" transform="translate(-521.882 -116.159)" fill="#6c301e"/>
            </g>
            <g id="Grupo_950157" data-name="Grupo 950157" transform="translate(0 11.923)">
              <path id="Trazado_693372" data-name="Trazado 693372" d="M523.815,170.005a10.8,10.8,0,0,0,2.482,0c.519-.044,1.043-.118,1.561-.2.275-.04.552-.086.829-.131.238-.039.472-.081.706-.118.5-.084.98-.163,1.433-.229.282,2,.485,4.13.635,6.314.309,4.4.4,9,.487,13.158,0,0,3.029,6.339,5.469,5.665,4.067-1.123,10.164-9.361,12.164-12.877a135.771,135.771,0,0,1-6.509-22.76c2.02-.1,4.6-1.237,5.477-3.061a4.276,4.276,0,0,0-1.389-5.358,3.4,3.4,0,0,0-4.9,1.816,43.608,43.608,0,0,1-1.758-6.9s.52-4.783,1.345-6.5c-4.55-2.228-12.616-4.741-17.169-4.286-1.12,1.44-3.58,6.2-3.89,8-1.19,6.889-1.9,9.046-2.265,16.027C518.165,165.6,521.694,169.719,523.815,170.005Z" transform="translate(-518.501 -134.489)" fill="#db9d67"/>
              <path id="Trazado_693373" data-name="Trazado 693373" d="M528.159,186.1a13.081,13.081,0,0,0,1.514-.061c.518-.048,1.042-.122,1.561-.2.274-.04.552-.086.829-.131.238-.039.472-.081.706-.118.5-.084.98-.163,1.433-.229.282,2,.485,4.13.635,6.314a64.59,64.59,0,0,0,6.717-11.32A26.664,26.664,0,0,1,528.159,186.1Z" transform="translate(-521.877 -150.519)" fill="#bd7231"/>
              <path id="Trazado_693374" data-name="Trazado 693374" d="M557.106,163.179a.221.221,0,0,1-.209-.226,2.137,2.137,0,0,1,1.294-1.929,2.016,2.016,0,0,1,2.249.52,2.07,2.07,0,0,1,.559,1.27c.021.279-.414.259-.436-.018a1.611,1.611,0,0,0-3.212-.038,1.074,1.074,0,0,1,.492,1.927c-.222.167-.52-.151-.3-.321a.677.677,0,0,0,.247-.791A.685.685,0,0,0,557.106,163.179Z" transform="translate(-531.92 -143.71)" fill="#bd7231"/>
              <path id="Trazado_693375" data-name="Trazado 693375" d="M539.808,158.215q.14-.927.278-1.853a.974.974,0,0,1,.28-.606.893.893,0,0,1,.626-.23.878.878,0,0,1,.606.28.848.848,0,0,1,.23.626q-.14.927-.278,1.854a.967.967,0,0,1-.28.606.872.872,0,0,1-1.232-.049A.851.851,0,0,1,539.808,158.215Z" transform="translate(-525.946 -141.84)" fill="#231f20"/>
              <path id="Trazado_693376" data-name="Trazado 693376" d="M522.162,155.689q.14-.926.278-1.853a.97.97,0,0,1,.28-.606.887.887,0,0,1,.626-.23.874.874,0,0,1,.606.28.847.847,0,0,1,.231.626q-.139.926-.278,1.853a.97.97,0,0,1-.28.606.888.888,0,0,1-.626.23.874.874,0,0,1-.606-.28A.848.848,0,0,1,522.162,155.689Z" transform="translate(-519.779 -140.958)" fill="#231f20"/>
              <path id="Trazado_693377" data-name="Trazado 693377" d="M538,148.566a4.827,4.827,0,0,1,6.1,1.775c.152.235-.237.435-.387.2a4.38,4.38,0,0,0-5.508-1.587C537.949,149.071,537.748,148.685,538,148.566Z" transform="translate(-525.276 -139.252)" fill="#231f20"/>
              <path id="Trazado_693378" data-name="Trazado 693378" d="M522.378,146.308a3.169,3.169,0,0,1,4.075.563c.181.213-.139.51-.321.3a2.739,2.739,0,0,0-3.554-.471.219.219,0,0,1-.293-.094A.223.223,0,0,1,522.378,146.308Z" transform="translate(-519.815 -138.444)" fill="#231f20"/>
            </g>
            <path id="Trazado_693379" data-name="Trazado 693379" d="M533.442,172.915a21.119,21.119,0,0,1-8.307,2.429,3.358,3.358,0,0,0,2.517,2.436,4.38,4.38,0,0,0,3.43-1.408A12.912,12.912,0,0,0,533.442,172.915Z" transform="translate(-520.82 -135.995)" fill="#212121"/>
            <g id="Grupo_950158" data-name="Grupo 950158" transform="translate(2.271 27.291)">
              <path id="Trazado_693380" data-name="Trazado 693380" d="M525.308,167.548a.237.237,0,0,1-.1.007,4.041,4.041,0,0,1-2.651-1.308,2.319,2.319,0,0,1-.071-2.931,3.448,3.448,0,0,1,1.51-.842,6.626,6.626,0,0,0,.732-.29c1.395-.684,2.091-2.306,2.685-3.908a.247.247,0,0,1,.319-.147.249.249,0,0,1,.147.319c-.629,1.7-1.372,3.417-2.933,4.183a7.12,7.12,0,0,1-.785.312,3.042,3.042,0,0,0-1.306.705,1.84,1.84,0,0,0,.087,2.286,3.567,3.567,0,0,0,2.33,1.128.249.249,0,0,1,.038.485Z" transform="translate(-521.992 -158.114)" fill="#bd7231"/>
            </g>
          </g>
        </g>
      </g>
    </g>
    <g id="Grupo_950184" data-name="Grupo 950184" transform="translate(294.444 5344.383)">
      <g id="Grupo_950164" data-name="Grupo 950164" transform="translate(143.3 104.945)">
        <g id="Grupo_950163" data-name="Grupo 950163">
          <path id="Trazado_693381" data-name="Trazado 693381" d="M249.358,234.92l-44.28,22.926,8.565,19.787,36.695-31.367c2.533,1.754,5.615,3.175,8.295,2.6l8.883-2.13,4.321-8.164-17.894-4.222A6.648,6.648,0,0,0,249.358,234.92Z" transform="translate(-205.078 -234.175)" fill="#bc691f"/>
        </g>
        <path id="Trazado_693382" data-name="Trazado 693382" d="M279.821,254.667a37.648,37.648,0,0,1,12.2,8.538,1.221,1.221,0,0,0,2.1-1.026,7.556,7.556,0,0,0-.48-1.7,12.435,12.435,0,0,0-12.136-7.5" transform="translate(-231.2 -240.736)" fill="#bc691f"/>
        <path id="Trazado_693383" data-name="Trazado 693383" d="M306.992,255.7c-1.565-3.332-3.54-6.781-7.4-7.666-2.12-.485-4.394.033-6.5.342l-1.663.243,2.232,3.369a18.439,18.439,0,0,1,4.542-.451c2.9.243,4.276,3.174,5.372,5.508a1.838,1.838,0,0,0,3.421-1.345Z" transform="translate(-235.256 -238.95)" fill="#bc691f"/>
        <path id="Trazado_693384" data-name="Trazado 693384" d="M314.766,251.5c-1.564-3.332-3.54-6.782-7.4-7.666-2.119-.485-4.394.033-6.5.342l-1.663.243,2.232,3.369a18.468,18.468,0,0,1,4.542-.451c2.9.243,4.276,3.174,5.372,5.508a1.838,1.838,0,0,0,3.421-1.345Z" transform="translate(-237.973 -237.48)" fill="#bc691f"/>
        <path id="Trazado_693385" data-name="Trazado 693385" d="M313.058,247.533c-1.564-3.332-3.539-6.782-7.4-7.666-2.119-.486-4.394.033-6.5.341l-1.663.243,2.231,3.37a18.414,18.414,0,0,1,4.543-.451c2.9.242,4.276,3.174,5.372,5.508a1.838,1.838,0,0,0,3.42-1.345Z" transform="translate(-237.376 -236.095)" fill="#bc691f"/>
      </g>
      <g id="Grupo_950183" data-name="Grupo 950183">
        <g id="Grupo_950166" data-name="Grupo 950166" transform="translate(5.797 193.518)">
          <g id="Grupo_950165" data-name="Grupo 950165">
            <path id="Trazado_693386" data-name="Trazado 693386" d="M79.345,465.777c47.487,9.758,94.323,31.224,139.858,5.855,15.612-9.107,27.321-22.768,31.224-40.331a51.886,51.886,0,0,0,.146-12.249,115.882,115.882,0,0,0-7.73-21.278c-3.255-6.807-11.078-24.843-18.952-27.108-10.38-2.985-9,15.088-10.939,20.752a49.765,49.765,0,0,1-18.993,24.744C177.5,427.28,156.4,429.151,136.629,427.211s-39.072-7.306-58.83-9.334-40.85-.354-57.456,10.543A59.893,59.893,0,0,0-4.7,464.34a62.252,62.252,0,0,0,2.681,36.65c.017-.029.033-.058.05-.086C15.6,473.583,46.169,459.272,79.345,465.777Z" transform="translate(6.301 -370.335)" fill="#fbcc34"/>
            <path id="Trazado_693387" data-name="Trazado 693387" d="M255.327,457.7a112.361,112.361,0,0,0-2.453-12.477,51.886,51.886,0,0,1-.146,12.249c-3.9,17.564-15.612,31.224-31.224,40.331-45.535,25.37-92.371,3.9-139.858-5.855C48.47,485.446,17.9,499.757.333,527.078c-.018.029-.033.058-.05.087A61.286,61.286,0,0,0,3.418,534c18.38-15.145,43.326-20.166,67.133-19.518s47.132,6.391,70.6,10.459,47.845,6.432,70.886.407c13.164-3.442,26.044-9.959,34.173-20.871C255.942,491.406,257.55,473.847,255.327,457.7Z" transform="translate(4 -396.509)" fill="#3b53db"/>
          </g>
          <path id="Trazado_693388" data-name="Trazado 693388" d="M219.853,474.884c-7.156-3.253-9.758-13.01-3.9-18.865C232.478,440.1,239.787,419,242.761,397.6c-3.3-6.93-11.06-24.687-18.87-26.934-10.38-2.985-9,15.088-10.939,20.752a49.765,49.765,0,0,1-18.993,24.744C177.5,427.28,156.4,429.151,136.629,427.211s-39.072-7.306-58.83-9.334-40.85-.354-57.456,10.543A59.893,59.893,0,0,0-4.7,464.34a62.252,62.252,0,0,0,2.681,36.65,61.283,61.283,0,0,0,3.135,6.836c18.38-15.145,43.326-20.166,67.133-19.518s47.132,6.391,70.6,10.459,47.845,6.432,70.886.407c13.164-3.442,26.044-9.959,34.173-20.871.518-.7,1.01-1.408,1.482-2.129-2.176.754-4.4,1.419-6.67,1.963C232.213,480.088,225.708,477.486,219.853,474.884Z" transform="translate(6.301 -370.335)" fill="#be9f46" opacity="0.71" style="mix-blend-mode: multiply;isolation: isolate"/>
        </g>
        <path id="Trazado_693389" data-name="Trazado 693389" d="M209.31,360.738c-10.363,7.253-23.952,8.313-36.461,6.46s-24.472-6.329-36.773-9.27a155.413,155.413,0,0,0-124.3,24c-10.161,7.195-24.758,18.26-23.418,30.639a81.776,81.776,0,0,1,51.93-101.576c.1-.039.2-.072.3-.1a8.5,8.5,0,0,1-1.34-1.008c-3.129-2.817-4.163-7.7-3.194-11.891,1.1-4.749,4.248-8.749,7.617-12.262,13.108-13.68,29.871-19.814,47.031-26.762-.319-7.455-5.145-15.3-9.933-21.018s-10.076-11.4-12.2-18.552a23.831,23.831,0,0,1,29.591-29.65c6.616,1.958,15.475,2.472,22.208,3.949,12.548,2.745,15.645,22.637,13.2,35.244,7.221,19.431,14.24,38,21.46,57.426,4.378-2.927,9.6,1.093,13.1,5.028s8.281,8.509,13.205,6.661c7.129-2.667,4.567-14.6,10.473-19.4,2.973-2.42,7.455-2.238,10.863-.481s5.965,4.8,8.242,7.891c8.261,11.176,14.376,24.381,14.929,38.269S220.7,352.77,209.31,360.738Z" transform="translate(15.213 -113.378)" fill="#fafafa"/>
        <path id="Trazado_693390" data-name="Trazado 693390" d="M213.539,295.618c-2.882-2.96-5.527-6.66-8.829-8.942-3.091.614-5.795,2.4-6.459,5.726-6.147-13.83-12.281-28.067-16.2-43.023-10.893-8.742-19.01-21.182-25.693-33.16,3.777-7.091,3.493-16.129.975-23.911a102.493,102.493,0,0,1-13.915-2.56,24.338,24.338,0,0,0-23.62,6.02,23.609,23.609,0,0,0-5.5,8.885c1.454,14.436,10,28.742,20.21,40.914,3.4,3.97,4.333,9.917,5.378,15.687-3.19,1.381-6.214,3.092-9.551,4.178,3.091,20.451,20,38.954,41.251,40.632-3.253-5.855-4.554-12.36-8.457-18.214C176.475,300.173,197.115,302.753,213.539,295.618Z" transform="translate(-30.049 -113.378)" fill="#be9f46" opacity="0.3" style="mix-blend-mode: multiply;isolation: isolate"/>
        <g id="Grupo_950170" data-name="Grupo 950170" transform="translate(3.535 160.027)">
          <g id="Grupo_950167" data-name="Grupo 950167" transform="translate(111.749)">
            <path id="Trazado_693391" data-name="Trazado 693391" d="M307.334,343.943A37.269,37.269,0,0,0,291.7,326.895c1.053,25.016-9.3,49.445-31.483,64.418-21.357,14.812-45.633,20.137-69.833,19.069a143.063,143.063,0,0,0,68.062,1.4c15.832-3.577,31.674-10.359,41.905-22.96C310.394,376.455,313.78,358.509,307.334,343.943Z" transform="translate(-171.928 -321.662)" fill="#e82048"/>
            <path id="Trazado_693392" data-name="Trazado 693392" d="M250.3,388.5c22.182-14.973,32.536-39.4,31.483-64.418a37.045,37.045,0,0,0-6.813-3.031c-3.253-1.063-11.915-3.542-15.056-1.279-3.453,2.487-3.99,13.915-4.93,18.107-2.517,11.226-5.112,22.655-10.915,32.59-7.842,13.426-21.217,23.177-35.963,28.112s-30.772,5.289-46.1,2.669a139.868,139.868,0,0,0,18.459,6.321C204.669,408.639,228.945,403.314,250.3,388.5Z" transform="translate(-162.01 -318.851)" fill="#fbcc34"/>
          </g>
          <path id="Trazado_693393" data-name="Trazado 693393" d="M308.126,341.132a37.762,37.762,0,0,0-22.444-20.079c-3.253-1.063-11.915-3.542-15.056-1.279a5.585,5.585,0,0,0-1.614,2.151c.628,1.581,1.22,3.171,1.757,4.78,8.457,22.768,6.505,52.691-15.612,67,3.9-6.505,7.806-13.661,6.505-21.467-7.806,18.214-25.37,30.574-44.885,33.826a109.369,109.369,0,0,1-24.126,1.875,143.034,143.034,0,0,0,66.589,1.029c15.832-3.577,31.674-10.359,41.905-22.96C311.186,373.643,314.571,355.7,308.126,341.132Z" transform="translate(-60.97 -318.851)" fill="#be9f46" opacity="0.71" style="mix-blend-mode: multiply;isolation: isolate"/>
          <g id="Grupo_950169" data-name="Grupo 950169" transform="translate(0 25.092)">
            <g id="Grupo_950168" data-name="Grupo 950168">
              <path id="Trazado_693394" data-name="Trazado 693394" d="M163.5,472.111c-24.719-6.505-46.186-17.564-70.9-19.515-31.875-3.253-63.1,6.505-85.866,29.923A55.244,55.244,0,0,0-6.326,508.243a65.708,65.708,0,0,0,2.293,7.089c6.058-19.976,23.17-33.258,43.293-38.808s41.494-3.826,62.168-.937,41.4,6.906,62.241,5.808a108.353,108.353,0,0,0,30.449-5.938A114.322,114.322,0,0,1,163.5,472.111Z" transform="translate(8.572 -390.474)" fill="#e82048"/>
              <path id="Trazado_693395" data-name="Trazado 693395" d="M225.036,421.918c15.808-17,24.02-43.754,13.6-64.494,2.492,19.6-11.208,38.745-29.027,47.29s-38.712,8.189-58.094,4.326-37.961-10.995-57.184-15.585-39.808-6.534-58.478-.051A67.973,67.973,0,0,0-7.533,475.193,55.244,55.244,0,0,1,5.519,449.469c22.768-23.418,53.992-33.176,85.866-29.923,24.719,1.951,46.186,13.01,70.9,19.515a114.316,114.316,0,0,0,30.62,3.346C205.083,438.08,216.259,431.356,225.036,421.918Z" transform="translate(9.779 -357.424)" fill="#3b53db"/>
            </g>
            <path id="Trazado_693396" data-name="Trazado 693396" d="M234.535,405.35c-17.564,22.768-46.836,28.622-74.157,31.875-26.671,2.6-52.691-7.806-78.06-14.311,13.01,0,26.671-.651,39.681.65-37.079-9.758-81.313-11.059-110.585,16.913-8.391,7.972-17.856,19.462-21.081,31.5a68.555,68.555,0,0,0,2.174,14.386A65.71,65.71,0,0,0-5.2,493.456c6.058-19.976,23.17-33.258,43.293-38.808s41.494-3.826,62.168-.937,41.4,6.906,62.241,5.808a108.353,108.353,0,0,0,30.449-5.938c12.172-4.327,23.348-11.051,32.124-20.489,10.852-11.668,18.122-27.935,18.244-43.7A64.567,64.567,0,0,1,234.535,405.35Z" transform="translate(9.74 -368.597)" fill="#be9f46" opacity="0.71" style="mix-blend-mode: multiply;isolation: isolate"/>
          </g>
        </g>
        <g id="Grupo_950176" data-name="Grupo 950176" transform="translate(76.09)">
          <path id="Trazado_693397" data-name="Trazado 693397" d="M115.5,101.588c-2.068-1.334-4.038-3.191-4.449-5.616a5.482,5.482,0,0,1,7.416-6.015c-2.458-3.359-3.556-7.935-1.97-11.783s6.279-6.409,10.149-4.879c3.85,1.523,5.462,6,6.634,9.968a17.892,17.892,0,0,1,2.839-6.439c1.483-1.838,3.963-3.079,6.23-2.417a6.164,6.164,0,0,1,3.908,4.63,18.17,18.17,0,0,1,0,6.314c1-1.76,3.664-2.072,5.31-.894a5.629,5.629,0,0,1,1.976,5.418,11.5,11.5,0,0,1-2.7,5.357A25.29,25.29,0,0,1,133.71,104.2c-2.66.244-5.5.84-8.156.865C122.078,105.1,118.36,103.436,115.5,101.588Z" transform="translate(-104.98 -72.845)" fill="#e82048"/>
          <path id="Trazado_693398" data-name="Trazado 693398" d="M123.348,107.365a6.517,6.517,0,0,1-3.213-4.056,3.959,3.959,0,0,1,5.356-4.343,8.992,8.992,0,0,1-1.423-8.509c1.145-2.779,4.534-4.628,7.329-3.522s3.944,4.33,4.79,7.2a12.925,12.925,0,0,1,2.049-4.65,3.961,3.961,0,0,1,7.321,1.6,13.125,13.125,0,0,1,0,4.56,2.73,2.73,0,0,1,3.835-.646,4.064,4.064,0,0,1,1.427,3.913,8.3,8.3,0,0,1-1.95,3.868A18.263,18.263,0,0,1,136.5,109.25c-1.92.176-3.969.606-5.89.624A14.058,14.058,0,0,1,123.348,107.365Z" transform="translate(-108.163 -77.656)" fill="#9e8439" opacity="0.71" style="mix-blend-mode: multiply;isolation: isolate"/>
          <g id="Grupo_950175" data-name="Grupo 950175" transform="translate(0 15.31)">
            <ellipse id="Elipse_5553" data-name="Elipse 5553" cx="13.03" cy="13.03" rx="13.03" ry="13.03" transform="translate(0 31.467) rotate(-81.841)" fill="#282b38"/>
            <path id="Trazado_693399" data-name="Trazado 693399" d="M127.986,124.147a20.506,20.506,0,1,0,11.924-26.434A20.505,20.505,0,0,0,127.986,124.147Z" transform="translate(-110.46 -96.381)" fill="#282b38"/>
            <g id="Grupo_950174" data-name="Grupo 950174" transform="translate(29.113 8.025)">
              <g id="Grupo_950172" data-name="Grupo 950172">
                <g id="Grupo_950171" data-name="Grupo 950171">
                  <path id="Trazado_693400" data-name="Trazado 693400" d="M173.371,142.559a10.515,10.515,0,0,1-2.379.417c-.5.044-1.019.061-1.528.071-.27.007-.544.01-.817.012-.235,0-.466,0-.7.005-.491,0-.966.008-1.411.021.063,1.963.224,4.039.445,6.156.438,4.265,1.121,8.694,1.73,12.693,12.416,13.716-5.819,16.088-14.441-1.361.6-8.255-.077-21.115-1.226-25.508-1.953.239-4.614-.418-5.761-2.02a4.159,4.159,0,0,1,.437-5.367,3.31,3.31,0,0,1,5,.923,42.43,42.43,0,0,0,.533-6.906s-1.3-4.5-2.374-6.005c3.99-2.894,11.3-6.65,15.74-6.973,1.313,1.193,4.467,5.345,5.064,7.015,2.291,6.4,2.922,8.46,4.847,14.982C177.5,134.017,175.356,141.931,173.371,142.559Z" transform="translate(-146.513 -108.717)" fill="#bc691f"/>
                  <path id="Trazado_693401" data-name="Trazado 693401" d="M178.978,159.328a12.857,12.857,0,0,1-1.461.194c-.5.04-1.019.057-1.528.071-.27.007-.544.01-.817.012-.235,0-.466,0-.7.005-.491,0-.966.008-1.411.021.063,1.963.224,4.039.445,6.156a62.839,62.839,0,0,1-8.328-9.728A25.941,25.941,0,0,0,178.978,159.328Z" transform="translate(-153.037 -125.263)" fill="#a24d00"/>
                  <path id="Trazado_693402" data-name="Trazado 693402" d="M152.361,141.162a.213.213,0,0,0,.162-.252,2.08,2.08,0,0,0-1.562-1.633,1.962,1.962,0,0,0-2.069.875,2.015,2.015,0,0,0-.323,1.31c.026.271.44.179.414-.09a1.568,1.568,0,0,1,3.072-.573,1.045,1.045,0,0,0-.15,1.929c.241.124.473-.232.23-.356a.63.63,0,0,1,.228-1.21Z" transform="translate(-147.228 -119.381)" fill="#872c11"/>
                  <path id="Trazado_693403" data-name="Trazado 693403" d="M170.08,135.831l-.576-1.73a.945.945,0,0,0-.369-.533.862.862,0,0,0-.639-.116.853.853,0,0,0-.533.369.821.821,0,0,0-.116.639l.576,1.73a.635.635,0,0,0,.134.3.643.643,0,0,0,.235.239.848.848,0,0,0,1.172-.253A.825.825,0,0,0,170.08,135.831Z" transform="translate(-153.96 -117.354)" fill="#231f20"/>
                  <path id="Trazado_693404" data-name="Trazado 693404" d="M186.57,130.464l-.576-1.73a.936.936,0,0,0-.37-.533.848.848,0,0,0-1.172.253.827.827,0,0,0-.116.639l.576,1.73a.63.63,0,0,0,.135.3.636.636,0,0,0,.235.239.848.848,0,0,0,1.173-.253A.824.824,0,0,0,186.57,130.464Z" transform="translate(-159.723 -115.479)" fill="#231f20"/>
                  <path id="Trazado_693405" data-name="Trazado 693405" d="M168.165,126.34a4.7,4.7,0,0,0-5.546,2.719c-.105.251.3.377.4.127a4.262,4.262,0,0,1,5.014-2.441C168.3,126.816,168.43,126.411,168.165,126.34Z" transform="translate(-152.136 -114.82)" fill="#231f20"/>
                  <path id="Trazado_693406" data-name="Trazado 693406" d="M183.692,121.549a3.083,3.083,0,0,0-3.811,1.22c-.137.235.218.466.357.23a2.665,2.665,0,0,1,3.328-1.045.214.214,0,0,0,.266-.139A.217.217,0,0,0,183.692,121.549Z" transform="translate(-158.164 -113.116)" fill="#231f20"/>
                </g>
              </g>
              <path id="Trazado_693407" data-name="Trazado 693407" d="M179.792,148.147a8.669,8.669,0,0,0,.141-1.337l-9.354-.114a3.824,3.824,0,0,0,.064.533A20.469,20.469,0,0,0,179.792,148.147Z" transform="translate(-154.924 -121.99)" fill="#fafafa"/>
              <path id="Trazado_693408" data-name="Trazado 693408" d="M170.679,147.515c.593,3.513,5.818,3.681,8.867,3.071a14.965,14.965,0,0,1,.281-2.152A20.469,20.469,0,0,1,170.679,147.515Z" transform="translate(-154.959 -122.277)" fill="#231f20"/>
              <g id="Grupo_950173" data-name="Grupo 950173" transform="translate(23.151 16.241)">
                <path id="Trazado_693409" data-name="Trazado 693409" d="M184.054,141.224a.19.19,0,0,0,.1-.018,4.968,4.968,0,0,0,2.719-4.183.185.185,0,0,0-.154-.191,6.141,6.141,0,0,1-4.273-3.052.185.185,0,1,0-.325.177,6.526,6.526,0,0,0,4.371,3.21,4.661,4.661,0,0,1-2.5,3.706.186.186,0,0,0,.061.351Z" transform="translate(-182.103 -133.683)" fill="#872c11"/>
              </g>
            </g>
            <path id="Trazado_693410" data-name="Trazado 693410" d="M157.22,143.1c.887-2.577,4.434-5.4,1.932-8.1a16.781,16.781,0,0,1-2.642-2.744,3.334,3.334,0,0,1,.159-3.414c.716-1.29,1.5-2.3.938-3.842s-1.882-2.631-2.961-3.813a6.155,6.155,0,0,1-1.936-4.162,3.384,3.384,0,0,1,1.94-3.187c.739-.311,1.257.824.515,1.136a2.435,2.435,0,0,0-1.12,2.914c.327,1.4,1.522,2.471,2.478,3.464,1.7,1.769,3.343,4.142,2.087,6.633-.476.945-1.5,1.975-1.237,3.117.253,1.1,1.434,1.855,2.21,2.581a4.778,4.778,0,0,1,1.693,2.793,6.026,6.026,0,0,1-.974,3.7c-.734,1.286-1.841,2.492-2.082,4-.174,1.088.49,2.779,1.832,2.591.795-.111,1.007,1.118.21,1.229a2.76,2.76,0,0,1-2.753-1.409A3.993,3.993,0,0,1,157.22,143.1Z" transform="translate(-119.566 -102.462)" fill="#282b38"/>
            <path id="Trazado_693411" data-name="Trazado 693411" d="M173.821,103.437a10.4,10.4,0,0,1,12.008,8.051,18.864,18.864,0,0,1,.13,4.215,3.476,3.476,0,0,0,1.631,3.4c1.853,1.058,4.213,1.089,5.7,2.784,2.305,2.625.585,6.2-.871,8.748-.4.7-1.414-.029-1.018-.721,1.2-2.1,2.97-5.487.647-7.512-1.458-1.272-3.627-1.339-5.258-2.328-2.186-1.323-2.1-3.687-2.01-5.953a9.033,9.033,0,0,0-10.751-9.451A.624.624,0,0,1,173.821,103.437Z" transform="translate(-126.77 -98.789)" fill="#282b38"/>
          </g>
        </g>
        <path id="Trazado_693412" data-name="Trazado 693412" d="M148.258,398.25q-10.041-5.464-20.523-10.076-9.279-4.069-18.852-7.435A116.935,116.935,0,0,0,89.3,375.345a54.944,54.944,0,0,0-19.756.078c.1-.039.2-.072.3-.1a8.5,8.5,0,0,1-1.34-1.008c1.138-.26,2.283-.468,3.435-.637,13.4-1.932,26.716,1.991,39.212,6.486a272.352,272.352,0,0,1,37.8,16.985C149.683,397.547,148.987,398.646,148.258,398.25Z" transform="translate(-14.044 -177.808)" fill="#be9f46" opacity="0.4" style="mix-blend-mode: multiply;isolation: isolate"/>
        <path id="Trazado_693413" data-name="Trazado 693413" d="M274.857,327.867c-2.169,10.065-4.6,20.279-9.493,29.422-4.534,8.481-11.365,15.784-20.328,19.589a28.237,28.237,0,0,1-15.258,2.075c-.827-.126-.873,1.175-.053,1.3,9.529,1.445,18.98-2.5,26.112-8.665,7.817-6.763,12.6-16.181,15.768-25.872a173.159,173.159,0,0,0,4.5-17.468C276.276,327.435,275.034,327.046,274.857,327.867Z" transform="translate(-70.185 -161.816)" fill="#be9f46" opacity="0.4" style="mix-blend-mode: multiply;isolation: isolate"/>
        <g id="Grupo_950182" data-name="Grupo 950182" transform="translate(75.623 63.546)">
          <g id="Grupo_950181" data-name="Grupo 950181">
            <g id="Grupo_950180" data-name="Grupo 950180" transform="translate(49.815 72.2)">
              <g id="Grupo_950177" data-name="Grupo 950177">
                <path id="Trazado_693414" data-name="Trazado 693414" d="M194.957,304.073l49.192,10.837,3.917-7.3-44.919-24.044c-3.029-1.377-9.882-2.415-15.994-1.924-3.526.283-7,.742-8.695,3.847h0c-2.133,3.913.088,7.825,3.446,10.755C186.221,300.017,192.456,303.348,194.957,304.073Z" transform="translate(-177.62 -281.523)" fill="#bc691f"/>
              </g>
              <g id="Grupo_950179" data-name="Grupo 950179" transform="translate(65.644 19.313)">
                <g id="Grupo_950178" data-name="Grupo 950178">
                  <path id="Trazado_693415" data-name="Trazado 693415" d="M278.533,315.9c4.6-.719,20.648-4.422,20.648-4.422l-2.97,10.017s-8.656,8.695-16.794,3.883Z" transform="translate(-278.533 -311.306)" fill="#bc691f"/>
                  <path id="Trazado_693416" data-name="Trazado 693416" d="M307.025,328.811c-.577-2.141-1.38-4.386-3.414-5.547a17.4,17.4,0,0,0-3.686-1.326l1.045,3c.36.122.727.231,1.071.384,1.69.746,2.172,2.789,2.626,4.473a1.284,1.284,0,0,0,1.669.689A1.319,1.319,0,0,0,307.025,328.811Z" transform="translate(-286.009 -314.961)" fill="#bc691f"/>
                  <path id="Trazado_693417" data-name="Trazado 693417" d="M308.788,325.6c-1.195-2.966-2.741-6.054-6.048-7.009-1.815-.524-3.813-.185-5.656-.02l-1.455.13,1.772,3.031a16,16,0,0,1,3.962-.17c2.5.351,3.554,2.96,4.392,5.038a1.6,1.6,0,1,0,3.032-1Z" transform="translate(-284.508 -313.692)" fill="#bc691f"/>
                  <path id="Trazado_693418" data-name="Trazado 693418" d="M310.287,321.538c-1.534-2.806-3.431-5.691-6.827-6.253-1.864-.308-3.809.263-5.62.643l-5.428,1.138,2.125,2.815,3.261-.684a21.236,21.236,0,0,1,4.643-.8c2.529.055,3.877,2.524,4.952,4.49a1.6,1.6,0,1,0,2.895-1.348Z" transform="translate(-283.384 -312.606)" fill="#bc691f"/>
                  <path id="Trazado_693419" data-name="Trazado 693419" d="M297.337,313.857l1.051,3.014,2.871-1.019a21.253,21.253,0,0,1,4.494-1.416c2.513-.284,4.18,1.981,5.508,3.786a1.6,1.6,0,1,0,2.688-1.724c-1.9-2.575-4.163-5.18-7.6-5.281-1.888-.055-3.738.771-5.482,1.389Z" transform="translate(-285.105 -311.213)" fill="#bc691f"/>
                </g>
              </g>
            </g>
            <path id="Trazado_693420" data-name="Trazado 693420" d="M177.084,246.714a3.819,3.819,0,1,1-1.854,7.409,6.11,6.11,0,0,1-6.967,9.257,6.127,6.127,0,0,1-9.315,7.084,8.375,8.375,0,0,1-6.583,10.486c-3.682-9.777-8.229-18.182-11.911-27.952-5.861-15.547-12.529-31.745-26.209-36.714-15.267-5.549-14.669-19.229-11.1-28.108s11.748-15.976,21.213-17.388a25.02,25.02,0,0,1,24.1,39.225c0,.007.007.007.007.013l.7,1.112c4.365,6.928,8.391,14.155,12.789,21.05,7.617,3.727,15.319,6.6,22.937,10.323C183.4,245.348,180.271,246.409,177.084,246.714Z" transform="translate(-101.041 -170.532)" fill="#fafafa"/>
          </g>
          <path id="Trazado_693421" data-name="Trazado 693421" d="M154.534,230.1c-.306.208-.618.41-.937.592a27.82,27.82,0,0,1-9.582,3.025,37.76,37.76,0,0,1-10.727.247,27.971,27.971,0,0,1-16.7-8.1c-.579-.6.377-1.49.956-.885a24.642,24.642,0,0,0,8.086,5.581,33.1,33.1,0,0,0,18.871,1.756,24.952,24.952,0,0,0,9.335-3.331Z" transform="translate(-106.41 -189.489)" fill="#be9f46" opacity="0.4" style="mix-blend-mode: multiply;isolation: isolate"/>
        </g>
      </g>
    </g>
    <rect id="Rect치ngulo_337875" data-name="Rect치ngulo 337875" width="487.877" height="325.251" transform="translate(304.34 5296.997)" fill="none"/>
    <g id="Grupo_950188" data-name="Grupo 950188" transform="translate(561.164 5516.286)">
      <g id="Grupo_950187" data-name="Grupo 950187">
        <path id="Trazado_693422" data-name="Trazado 693422" d="M395.812,496.532c12.5-28.566,46.135-42.316,77.369-34.551,16.423,3.935,33.745-5.777,44.183-17.834,18.409-21.02,28.242-58.73,62.419-54.587C592.8,391.6,603.466,400.516,613,408.8c29.815,28.733,71.533,52.5,109.933,35.264q.486-.031.975-.07c-30.248,18.323-72.955,13.958-98.324-10.932-11.311-11.1-20.65-26.35-36.162-29.584C572.74,400,556.89,412.4,546.562,425.947s-18.5,29.545-32.868,38.7c-11.917,7.588-26.559,9.4-40.676,9.948s-28.473.051-42.112,3.733-26.851,12.5-31.417,25.872A17.2,17.2,0,0,1,395.812,496.532Z" transform="translate(-395.159 -355.33)" fill="#e82048"/>
        <path id="Trazado_693423" data-name="Trazado 693423" d="M621.627,374.6c-20.2-17.207-48.435-24-69.3-6.581-16.063,14.135-22.278,35.99-38.342,50.126-7.906,7.51-18.271,11.416-29.645,11.783-30.077,1.864-60.528-.948-81.656,22.28q-1.793,1.867-3.377,3.885c2.9-8.369,7.648-16.1,12.864-20.336,12.1-9.818,28.48-12.186,44.016-13.4s31.7-1.784,45.53-8.963c16.138-8.377,26.58-24.393,37.043-39.264s22.816-30.073,40.259-35.2c18.931-5.57,39.515,2.3,55.232,14.233s28.057,27.687,42.5,41.131,33.734,27.816,53.466,28.1c-.794.58-1.6,1.137-2.417,1.681q-1.819.948-3.648,1.767-1.161.074-2.307.106C681.091,425.592,651.359,400.1,621.627,374.6Z" transform="translate(-396.38 -337.108)" fill="#fbcc34"/>
        <path id="Trazado_693424" data-name="Trazado 693424" d="M401.11,463.361c21.128-23.229,51.579-20.417,81.656-22.28,11.373-.367,21.739-4.273,29.645-11.783,16.064-14.136,22.278-35.991,38.342-50.126,20.869-17.417,49.1-10.626,69.3,6.581,29.732,25.494,59.464,50.988,100.216,51.347q1.145-.03,2.307-.106c-38.4,17.24-80.119-6.53-109.933-35.264-9.532-8.287-20.2-17.206-33.213-19.243-34.177-4.143-44.01,33.567-62.419,54.587-10.438,12.056-27.76,21.768-44.183,17.834-31.235-7.765-64.866,5.985-77.369,34.551-1.465-6.5-.358-14.617,2.272-22.211Q399.32,465.235,401.11,463.361Z" transform="translate(-394.809 -348.256)" fill="#3b53db"/>
      </g>
      <path id="Trazado_693425" data-name="Trazado 693425" d="M395.461,485.29c-1.465-6.5-.358-14.617,2.272-22.211,2.9-8.369,7.648-16.1,12.864-20.336,12.1-9.818,28.48-12.187,44.016-13.4,5.879-.459,11.849-.827,17.748-1.5,11.468,4.527,23.482,5.795,35.813.878-11.445,8.518-24.717,12.294-38.745,13.417,12.884,4.942,27.415,5.589,38.8-1.475,24.192-15.855,41.449-42.775,38.161-71.76a101.058,101.058,0,0,1,9.756-10.392c.587-.131,1.177-.259,1.768-.375,35.58-7.734,56.392,28.429,69.442,55.8-1.763-6.194-4.726-11.568-4.151-17.949,12.805,19.79,30.6,38.637,55.874,40.054,14.265.821,27.558-3.141,40.827-7.686a45.262,45.262,0,0,0,8.743,1.015c-.794.58-1.6,1.137-2.417,1.681q-1.819.947-3.648,1.767.486-.031.975-.07c-30.248,18.323-72.954,13.958-98.324-10.932-11.311-11.1-20.65-26.35-36.162-29.584-16.679-3.477-32.529,8.916-42.857,22.466s-18.5,29.545-32.868,38.7c-11.917,7.588-26.559,9.4-40.676,9.948s-28.473.051-42.112,3.733-26.851,12.5-31.417,25.872A17.2,17.2,0,0,1,395.461,485.29Z" transform="translate(-394.809 -344.088)" fill="#e2c675" opacity="0.71" style="mix-blend-mode: multiply;isolation: isolate"/>
    </g>
    <rect id="Rect치ngulo_337876" data-name="Rect치ngulo 337876" width="487.877" height="325.251" transform="translate(304.34 5296.997)" fill="none"/>
    <path id="Trazado_693426" data-name="Trazado 693426" d="M427.072,31.451l.008-.009-.02.018a39.74,39.74,0,0,0-4.489,4.1c-.153.149-.3.3-.44.452l-.213.2c.034-.029.069-.054.1-.082a6.2,6.2,0,0,0-1.9,4.61c.089,2.136,1.146,4.239,1.008,6.218-.381.4-.7.758-.837.881-.363.334-2.143,2.515-2.607,2.45a2.914,2.914,0,0,0,2.132-.53l-.019.021.031-.029a17.737,17.737,0,0,0,1.836-1.632,30.375,30.375,0,0,0,3.8-3.581c1.5-1.969.916-3.887.4-6.1a10.341,10.341,0,0,1-.339-3.718,6.511,6.511,0,0,1,3.568.965c.645.377,4.705-5.175,5.262-4.849C431.586,29.218,429.206,29.942,427.072,31.451Z" transform="translate(158.36 5286.54)" fill="#fbcc34"/>
    <path id="Trazado_693427" data-name="Trazado 693427" d="M442.726,228.092c.053.278-2.373,2.139-2.655,2.4-.325.3-2.688,2.021-2.607,2.451.034.182.058.353.074.518-3.262.485-6.793-.25-9.665,1.881.023-.024.044-.048.067-.072l-.125.115c-.124.094-.246.191-.367.3-2.307,2-7.747,5.547-5.8,9.14-.254-.468,5.566-4.289,5.262-4.849a3.648,3.648,0,0,1-.449-1.416c3.336-.484,7,.4,9.959-2.015C438.761,234.635,443.377,231.532,442.726,228.092Z" transform="translate(157.119 5217.279)" fill="#e82048"/>
    <path id="Trazado_693428" data-name="Trazado 693428" d="M516.785,28.049c-.183.159-.371.319-.562.481-.076-.48-3.671,2.754-3.705,3.269a11.616,11.616,0,0,0-3.063,4.645c.217-.705,2.095-1.882,2.655-2.4.631-.582,2.346-1.605,2.607-2.451a7.139,7.139,0,0,1,.332-.856,8.525,8.525,0,0,1,5.524-.03c.315.1,2.366-2.132,2.655-2.4s2.309-2.549,2.607-2.451C522.522,24.765,519.342,25.828,516.785,28.049Z" transform="translate(126.287 5288.111)" fill="#e82048"/>
    <path id="Trazado_693429" data-name="Trazado 693429" d="M621.15,65.054c-.466.429-2.565,1.794-2.607,2.45a9.265,9.265,0,0,1-.515,2.6,8.4,8.4,0,0,1-5.432-.185c-.29-.107-2.378,2.143-2.655,2.4s-2.337,2.55-2.607,2.451c4.116,1.518,7.221-.2,10.2-2.927,2.9-2.648,6-4.963,6.268-9.184C623.773,63.145,621.549,64.687,621.15,65.054Z" transform="translate(92.078 5275.099)" fill="#3b53db"/>
    <path id="Trazado_693430" data-name="Trazado 693430" d="M716.767,23.841c.055-.062.1-.126.157-.187l-.409.39q-.776.644-1.543,1.354c-.614.565-1.206,1.127-1.773,1.691l-.834.76c.109-.086.219-.165.329-.248-2.781,2.877-4.773,5.943-4.743,10.471,0-.425,2.295-2.066,2.655-2.4.421-.388,2.61-1.858,2.607-2.451a13.479,13.479,0,0,1,1.865-7.075,13.393,13.393,0,0,1,8.064-1.108c.445.072,2.3-2.07,2.655-2.4s2.164-2.523,2.607-2.451C723.657,19.43,720.119,21.114,716.767,23.841Z" transform="translate(56.913 5290.003)" fill="#e82048"/>
    <path id="Trazado_693431" data-name="Trazado 693431" d="M683.715,125.764c-.2-.18-5.142,4.957-5.262,4.849,6.235,5.642,14.184-4.04,21.1-.872.882.4,4.47-5.212,5.262-4.85C697.9,121.723,689.951,131.407,683.715,125.764Z" transform="translate(67.222 5253.576)" fill="#fbcc34"/>
    <path id="Trazado_693432" data-name="Trazado 693432" d="M489.008,310.5c-5.643,3.364-12.174-3.713-17.526.583-1.674,1.344-3.746,3.634-5.061,4.69,4.563-3.662,10.232,1.443,15.28.414,1.741-.355,2.774-1.437,4.034-2.588a32.265,32.265,0,0,0,4.416-4.317A8.173,8.173,0,0,1,489.008,310.5Z" transform="translate(141.327 5188.902)" fill="#fbcc34"/>
    <path id="Trazado_693433" data-name="Trazado 693433" d="M601.114,346.49c-.138.069-.28.133-.425.19a9.77,9.77,0,0,1-4.479.643,10.576,10.576,0,0,1-7.336-4.151c.075.094-5.4,4.672-5.262,4.849a10.273,10.273,0,0,0,13.842,2.46,31.08,31.08,0,0,0,8.377-8.142C604.743,344.022,602.5,344.977,601.114,346.49Z" transform="translate(100.37 5177.35)" fill="#e82048"/>
    <path id="Trazado_693434" data-name="Trazado 693434" d="M411.978,329.527c-2.574,2.442-4.214,5.379-3.874,9.028-.033-.353,2.336-2.1,2.655-2.4.372-.343,2.655-1.937,2.607-2.451a9.84,9.84,0,0,1,1.01-5.382,8.165,8.165,0,0,1,1.741-.612c.781-.163,2.067-1.857,2.655-2.4s1.816-2.286,2.607-2.451C417.5,323.671,414.734,326.91,411.978,329.527Z" transform="translate(161.724 5184.157)" fill="#3b53db"/>
    <path id="Trazado_693435" data-name="Trazado 693435" d="M719.608,251.435c0,.034-.889.783-.788.691q-.94.847-1.868,1.707t-1.853,1.722c-.111.105-.771.607-.753.729a7.352,7.352,0,0,0,6.32,6.236,5.27,5.27,0,0,0,.788-.691q.939-.848,1.867-1.707t1.853-1.722c.108-.1.653-.742.753-.729A7.352,7.352,0,0,1,719.608,251.435Z" transform="translate(54.678 5209.121)" fill="#e82048"/>
    <path id="Trazado_693436" data-name="Trazado 693436" d="M634.77,213.811c-3.066,2.788-6.244,5.342-7.651,9.373.257-.736,2.066-1.855,2.655-2.4.658-.606,2.3-1.582,2.607-2.45a14.2,14.2,0,0,1,1.36-2.895,13.819,13.819,0,0,1,5.821-1.544c.634-.03,2.18-1.961,2.655-2.4s1.962-2.421,2.607-2.451C640.756,209.24,637.7,211.149,634.77,213.811Z" transform="translate(85.163 5223.935)" fill="#3b53db"/>
    <path id="Trazado_693437" data-name="Trazado 693437" d="M459.507,185.441c-.608-.369-4.743,5.164-5.262,4.849a15.949,15.949,0,0,0,17.038-.188c1.986-1.267,3.292-3.593,5.262-4.849A15.949,15.949,0,0,1,459.507,185.441Z" transform="translate(145.582 5232.251)" fill="#fbcc34"/>
    <path id="Trazado_693438" data-name="Trazado 693438" d="M204.428,58.252l-.007-.009.019.018a39.674,39.674,0,0,1,4.489,4.1c.153.149.3.3.44.452l.213.2c-.034-.029-.069-.054-.1-.083a6.2,6.2,0,0,1,1.9,4.61c-.088,2.137-1.146,4.24-1.008,6.219.381.4.7.758.837.88.363.334,2.143,2.515,2.607,2.451a2.917,2.917,0,0,1-2.132-.53l.019.021-.031-.029a17.673,17.673,0,0,1-1.836-1.633,30.371,30.371,0,0,1-3.8-3.58c-1.5-1.969-.916-3.887-.4-6.1a10.327,10.327,0,0,0,.339-3.718,6.506,6.506,0,0,0-3.568.965c-.645.377-4.705-5.175-5.262-4.849C199.915,56.019,202.294,56.743,204.428,58.252Z" transform="translate(235.437 5277.173)" fill="#fbcc34"/>
    <path id="Trazado_693439" data-name="Trazado 693439" d="M41.777,21.956c3.958,1.217,8.449-1.485,12.1,1.2,2.313,1.7,7.123,5.174,6.562,8.419.05-.29-2.367-2.134-2.655-2.4-.312-.288-2.409-1.808-2.594-2.358-3.3-.062-6.8,1.323-9.815-.808-2.188-1.546-5.459-4.137-6.493-6.642C39.322,20.441,40.582,21.182,41.777,21.956Z" transform="translate(290.751 5290.227)" fill="#3b53db"/>
    <path id="Trazado_693440" data-name="Trazado 693440" d="M222.221,161.05c-.053.278,2.373,2.138,2.655,2.4.325.3,2.688,2.021,2.607,2.451-.035.181-.058.353-.074.518,3.262.485,6.793-.25,9.665,1.881-.023-.023-.044-.048-.066-.072l.125.115c.124.094.246.191.367.3,2.307,2,7.748,5.547,5.8,9.141.254-.469-5.566-4.289-5.262-4.85a3.648,3.648,0,0,0,.449-1.415c-3.336-.485-7,.4-9.959-2.015C226.185,167.592,221.569,164.49,222.221,161.05Z" transform="translate(226.696 5240.71)" fill="#e82048"/>
    <path id="Trazado_693441" data-name="Trazado 693441" d="M302.466,39.754c.183.159.371.319.561.481.076-.479,3.671,2.754,3.705,3.269a11.625,11.625,0,0,1,3.063,4.645c-.217-.705-2.095-1.882-2.655-2.4-.632-.582-2.346-1.605-2.607-2.451a7.25,7.25,0,0,0-.332-.856,8.527,8.527,0,0,0-5.523-.03c-.316.1-2.367-2.132-2.655-2.4s-2.309-2.549-2.607-2.451C296.729,36.47,299.909,37.533,302.466,39.754Z" transform="translate(201.791 5284.02)" fill="#e82048"/>
    <path id="Trazado_693442" data-name="Trazado 693442" d="M137.917,2.4c.465.429,2.564,1.794,2.607,2.451a9.264,9.264,0,0,0,.515,2.6,8.394,8.394,0,0,0,5.432-.185c.291-.107,2.378,2.143,2.655,2.4s2.337,2.551,2.607,2.451c-4.116,1.519-7.221-.2-10.2-2.927-2.9-2.648-6-4.963-6.268-9.184C135.293.489,137.519,2.031,137.917,2.4Z" transform="translate(257.066 5296.997)" fill="#3b53db"/>
    <path id="Trazado_693443" data-name="Trazado 693443" d="M75.556,160.04c-.055-.062-.1-.126-.157-.187l.409.39q.776.644,1.543,1.354c.614.565,1.205,1.127,1.773,1.691l.834.76c-.108-.086-.219-.165-.328-.248,2.781,2.877,4.773,5.943,4.743,10.471,0-.425-2.3-2.066-2.655-2.4-.422-.388-2.61-1.858-2.607-2.451a13.489,13.489,0,0,0-1.865-7.075,13.393,13.393,0,0,0-8.064-1.108c-.445.072-2.3-2.071-2.655-2.4s-2.164-2.522-2.607-2.45C68.665,155.629,72.2,157.313,75.556,160.04Z" transform="translate(282 5242.402)" fill="#e82048"/>
    <path id="Trazado_693444" data-name="Trazado 693444" d="M43.734,273.779c.2-.18,5.142,4.957,5.262,4.849-6.236,5.642-14.184-4.041-21.1-.873-.881.4-4.47-5.212-5.262-4.849C29.549,269.739,37.5,279.423,43.734,273.779Z" transform="translate(296.429 5201.845)" fill="#fbcc34"/>
    <path id="Trazado_693445" data-name="Trazado 693445" d="M295.451,193.33c5.642,3.364,12.174-3.714,17.526.582,1.674,1.344,3.746,3.634,5.061,4.69-4.563-3.662-10.232,1.442-15.28.414-1.74-.355-2.774-1.438-4.034-2.588a32.338,32.338,0,0,1-4.416-4.317A8.175,8.175,0,0,0,295.451,193.33Z" transform="translate(201.48 5229.854)" fill="#fbcc34"/>
    <path id="Trazado_693446" data-name="Trazado 693446" d="M152.17,363.378c.9.341,1.948,1.746,2.655,2.4s1.7,2.11,2.607,2.45L147,364.292c-.9-.341-1.948-1.747-2.655-2.4s-1.7-2.11-2.607-2.451Z" transform="translate(254.801 5171.373)" fill="#fbcc34"/>
    <path id="Trazado_693447" data-name="Trazado 693447" d="M256.065,375.779c.139.069.28.133.425.19a9.759,9.759,0,0,0,4.479.643,10.577,10.577,0,0,0,7.336-4.15c-.075.094,5.4,4.671,5.262,4.849a10.273,10.273,0,0,1-13.841,2.46,31.073,31.073,0,0,1-8.377-8.143C252.437,373.311,254.676,374.266,256.065,375.779Z" transform="translate(216.494 5167.114)" fill="#e82048"/>
    <path id="Trazado_693448" data-name="Trazado 693448" d="M354.406,360.8c2.573,2.442,4.213,5.379,3.874,9.028.033-.352-2.336-2.1-2.655-2.4-.372-.344-2.654-1.937-2.607-2.451a9.839,9.839,0,0,0-1.009-5.382,8.162,8.162,0,0,0-1.741-.612c-.782-.163-2.068-1.857-2.655-2.4s-1.816-2.286-2.607-2.45C348.884,354.941,351.648,358.18,354.406,360.8Z" transform="translate(183.761 5173.228)" fill="#3b53db"/>
    <path id="Trazado_693449" data-name="Trazado 693449" d="M118.819,232.43c-.005.034.889.783.788.691.626.565,1.247,1.136,1.867,1.707s1.24,1.144,1.853,1.722c.112.105.771.607.754.729a7.352,7.352,0,0,1-6.32,6.235,5.2,5.2,0,0,1-.788-.691q-.94-.847-1.868-1.706t-1.853-1.723c-.108-.1-.652-.742-.753-.729A7.353,7.353,0,0,0,118.819,232.43Z" transform="translate(265.022 5215.763)" fill="#e82048"/>
    <path id="Trazado_693450" data-name="Trazado 693450" d="M21.189,199.928c3.066,2.787,6.244,5.342,7.651,9.373-.257-.736-2.066-1.855-2.655-2.4-.658-.606-2.3-1.582-2.607-2.451a14.21,14.21,0,0,0-1.36-2.894,13.82,13.82,0,0,0-5.821-1.544c-.634-.031-2.18-1.961-2.655-2.4s-1.962-2.421-2.607-2.451C15.2,195.357,18.263,197.266,21.189,199.928Z" transform="translate(300.448 5228.787)" fill="#3b53db"/>
  </g>
</svg>
