<svg xmlns="http://www.w3.org/2000/svg" xmlns:xlink="http://www.w3.org/1999/xlink" width="103.061" height="84.9" viewBox="0 0 103.061 84.9">
  <defs>
    <clipPath id="clip-path">
      <rect id="Rectángulo_33985" data-name="Rectángulo 33985" width="103.061" height="84.9" fill="none"/>
    </clipPath>
    <clipPath id="clip-path-3">
      <rect id="Rectángulo_33983" data-name="Rectángulo 33983" width="19.481" height="21.665" fill="none"/>
    </clipPath>
  </defs>
  <g id="Grupo_80764" data-name="Grupo 80764" clip-path="url(#clip-path)">
    <g id="Grupo_80763" data-name="Grupo 80763" transform="translate(0 0)">
      <g id="Grupo_80762" data-name="Grupo 80762" clip-path="url(#clip-path)">
        <path id="Trazado_114780" data-name="Trazado 114780" d="M98.932,53.8,26.113,84.879A6.794,6.794,0,0,1,17.2,81.3L.547,42.281a6.794,6.794,0,0,1,3.582-8.915L76.948,2.288A6.793,6.793,0,0,1,85.862,5.87l16.652,39.016A6.794,6.794,0,0,1,98.932,53.8" transform="translate(0 -0.526)" fill="#008c7c"/>
        <rect id="Rectángulo_33981" data-name="Rectángulo 33981" width="92.76" height="14.35" transform="translate(6.637 56.025) rotate(-23.112)" fill="#2a435f"/>
        <rect id="Rectángulo_33982" data-name="Rectángulo 33982" width="92.76" height="2.139" transform="matrix(0.92, -0.393, 0.393, 0.92, 4.388, 50.755)" fill="#2a435f"/>
        <path id="Trazado_114781" data-name="Trazado 114781" d="M86.709,1.877A6.726,6.726,0,0,1,89,4.706l16.652,39.016a6.792,6.792,0,0,1-3.582,8.915L29.254,83.715a6.877,6.877,0,0,1-1.333.413,6.769,6.769,0,0,0,6.621.752L107.36,53.8a6.793,6.793,0,0,0,3.582-8.915L94.289,5.87a6.792,6.792,0,0,0-7.581-3.993" transform="translate(-8.428 -0.526)" fill="#007366"/>
        <path id="Trazado_114782" data-name="Trazado 114782" d="M70.934,23.226,36.459,37.94A3.02,3.02,0,0,1,32.5,36.348L25.61,20.214A3.02,3.02,0,0,1,27.2,16.251L61.678,1.538A3.019,3.019,0,0,1,65.64,3.13l6.886,16.134a3.019,3.019,0,0,1-1.592,3.962" transform="translate(-7.657 -0.391)" fill="#008c7c"/>
        <path id="Trazado_114783" data-name="Trazado 114783" d="M84.511,43.556a21.962,21.962,0,1,1-28.82-11.578,21.962,21.962,0,0,1,28.82,11.578" transform="translate(-12.782 -9.118)" fill="#2a435f"/>
        <path id="Trazado_114784" data-name="Trazado 114784" d="M82.38,47.164A17.588,17.588,0,1,1,59.3,37.892a17.588,17.588,0,0,1,23.08,9.272" transform="translate(-14.673 -11.01)" fill="#ffeabe"/>
        <g id="Grupo_80761" data-name="Grupo 80761" transform="translate(36.734 27.333)" opacity="0.65">
          <g id="Grupo_80760" data-name="Grupo 80760">
            <g id="Grupo_80759" data-name="Grupo 80759" clip-path="url(#clip-path-3)">
              <path id="Trazado_114785" data-name="Trazado 114785" d="M69.483,54.882c-3.667,5.335-9.83,7.465-13.767,4.76s-4.155-9.224-.488-14.559,9.83-7.465,13.766-4.759,4.155,9.223.489,14.558" transform="translate(-52.615 -39.151)" fill="#fff9f8"/>
            </g>
          </g>
        </g>
        <path id="Trazado_114786" data-name="Trazado 114786" d="M65.8,74.894a1.763,1.763,0,1,1-2.314-.929,1.763,1.763,0,0,1,2.314.929" transform="translate(-18.841 -22.283)" fill="#fff9f8"/>
        <path id="Trazado_114787" data-name="Trazado 114787" d="M60.949,15.008,41.3,23.394a2.284,2.284,0,0,1-3-1.2l-.714-1.674a2.284,2.284,0,0,1,1.2-3L58.441,9.133a2.284,2.284,0,0,1,3,1.2l.714,1.675a2.283,2.283,0,0,1-1.2,3" transform="translate(-11.291 -2.701)" fill="#2a435f"/>
        <path id="Trazado_114788" data-name="Trazado 114788" d="M60.534,14.958,42.3,22.74a1.51,1.51,0,0,1-1.982-.8l-.556-1.3a1.511,1.511,0,0,1,.8-1.983l18.234-7.782a1.511,1.511,0,0,1,1.982.8l.556,1.3a1.51,1.51,0,0,1-.8,1.982" transform="translate(-11.965 -3.246)" fill="#ffeabe"/>
        <path id="Trazado_114789" data-name="Trazado 114789" d="M12.951,50.951,6.59,53.666a1.215,1.215,0,0,1-.954-2.235L12,48.717a1.215,1.215,0,0,1,.954,2.235" transform="translate(-1.478 -14.675)" fill="#2a435f"/>
        <path id="Trazado_114790" data-name="Trazado 114790" d="M12.8,50.793,7.075,53.236a.491.491,0,1,1-.385-.9l5.724-2.443a.491.491,0,1,1,.385.9" transform="translate(-1.929 -15.047)" fill="#ffeabe"/>
        <path id="Trazado_114791" data-name="Trazado 114791" d="M100.153,11.842l-6.361,2.715a1.215,1.215,0,0,1-.954-2.235L99.2,9.607a1.215,1.215,0,0,1,.954,2.235" transform="translate(-27.8 -2.87)" fill="#2a435f"/>
        <path id="Trazado_114792" data-name="Trazado 114792" d="M100,11.684l-5.724,2.443a.491.491,0,0,1-.386-.9l5.724-2.444a.492.492,0,0,1,.386.9" transform="translate(-28.251 -3.242)" fill="#ffeabe"/>
        <path id="Trazado_114793" data-name="Trazado 114793" d="M21.68,47.281a.887.887,0,1,1-1.164-.468.887.887,0,0,1,1.164.468" transform="translate(-6.03 -14.109)" fill="#f14d24"/>
        <path id="Trazado_114794" data-name="Trazado 114794" d="M26.484,45.23a.887.887,0,1,1-1.165-.468.888.888,0,0,1,1.165.468" transform="translate(-7.48 -13.49)" fill="#2a435f"/>
        <path id="Trazado_114795" data-name="Trazado 114795" d="M109.815,8.284a.887.887,0,1,1-1.165-.468.887.887,0,0,1,1.165.468" transform="translate(-32.633 -2.338)" fill="#2a435f"/>
        <path id="Trazado_114796" data-name="Trazado 114796" d="M21.416,47.727a.346.346,0,1,1-.454-.182.347.347,0,0,1,.454.182" transform="translate(-6.264 -14.343)" fill="#ffeabe"/>
        <path id="Trazado_114797" data-name="Trazado 114797" d="M45.623,101.728l-15.89,6.782a1.227,1.227,0,0,1-.963-2.258L44.66,99.471a1.227,1.227,0,1,1,.963,2.257" transform="translate(-8.459 -29.995)" fill="#2a435f"/>
        <path id="Trazado_114798" data-name="Trazado 114798" d="M102.947,2.323,91.276,7.3l-.7-1.648A1.11,1.11,0,0,1,91.158,4.2l9.629-4.11a1.11,1.11,0,0,1,1.456.585Z" transform="translate(-27.312 0)" fill="#2a435f"/>
      </g>
    </g>
  </g>
</svg>
