<svg xmlns="http://www.w3.org/2000/svg" width="165" height="165" viewBox="0 0 165 165">
  <g id="Grupo_953284" data-name="Grupo 953284" transform="translate(-1069 -3281)">
    <circle id="Elipse_5413" data-name="Elipse 5413" cx="82.5" cy="82.5" r="82.5" transform="translate(1069 3281)" fill="#ccd3ca"/>
    <g id="portapapeles" transform="translate(1088 3299.193)">
      <path id="Trazado_700086" data-name="Trazado 700086" d="M0,73.649A62.408,62.408,0,1,1,108.222,116.02a6.778,6.778,0,0,1-8.968.88,62.409,62.409,0,0,0-73.7.008,6.747,6.747,0,0,1-8.924-.854A62.172,62.172,0,0,1,0,73.649Zm0,0" transform="translate(0 -8.44)" fill="#b0dde9"/>
      <path id="Trazado_700087" data-name="Trazado 700087" d="M158.127,75.357v85.89a62.752,62.752,0,0,1-11.208,9.582c-9.911,6.629-59.376,6.628-69.286,0a62.753,62.753,0,0,1-11.208-9.581V75.357a3.821,3.821,0,0,1,3.822-3.822h84.059A3.821,3.821,0,0,1,158.127,75.357Zm0,0" transform="translate(-49.869 -53.705)" fill="#458fa4"/>
      <path id="Trazado_700088" data-name="Trazado 700088" d="M181.145,75.357v85.89a62.752,62.752,0,0,1-11.208,9.582c-9.911,6.629-59.376,6.628-69.286,0q-1.83-1.222-3.565-2.569v-92.9a3.821,3.821,0,0,1,3.821-3.822h76.418A3.821,3.821,0,0,1,181.145,75.357Zm0,0" transform="translate(-72.887 -53.705)" fill="#649eb0"/>
      <path id="Trazado_700089" data-name="Trazado 700089" d="M180.68,113.688v87.83a62.428,62.428,0,0,1-69.285,0v-87.83a1.273,1.273,0,0,1,1.274-1.274h66.737A1.274,1.274,0,0,1,180.68,113.688Zm0,0" transform="translate(-83.629 -84.395)" fill="#fdf7bd"/>
      <path id="Trazado_700090" data-name="Trazado 700090" d="M187.158,169.868v2.475a.509.509,0,0,1-.509.509H152.72a.509.509,0,0,1-.509-.509v-2.475a.51.51,0,0,1,.509-.509h33.929A.51.51,0,0,1,187.158,169.868Zm-34.439,9.389h24.614a.509.509,0,0,0,.509-.509v-2.475a.509.509,0,0,0-.509-.509H152.72a.509.509,0,0,0-.509.509v2.475A.509.509,0,0,0,152.72,179.257Zm-9.429-11.232a5.519,5.519,0,0,1,.8,6.788l-3.618,5.9a1.274,1.274,0,0,1-2.171,0l-3.619-5.9a5.519,5.519,0,0,1,8.607-6.788Zm-.909,3.9a2.993,2.993,0,1,0-2.993,2.993A2.993,2.993,0,0,0,142.381,171.927Zm44.268,17.087H152.72a.51.51,0,0,0-.509.51V192a.509.509,0,0,0,.509.509h33.929a.509.509,0,0,0,.509-.509v-2.474A.51.51,0,0,0,186.649,189.015Zm-33.929,9.9h24.614a.509.509,0,0,0,.509-.509V195.93a.509.509,0,0,0-.509-.51H152.72a.509.509,0,0,0-.509.51V198.4A.509.509,0,0,0,152.72,198.913Zm-9.429-11.232a5.52,5.52,0,0,1,.8,6.789l-3.618,5.9a1.274,1.274,0,0,1-2.171,0l-3.619-5.9a5.519,5.519,0,0,1,8.607-6.789Zm-.909,3.9a2.993,2.993,0,1,0-2.993,2.993A2.994,2.994,0,0,0,142.381,191.583ZM177.333,215.8H152.72a.509.509,0,0,0-.509.509v2.475a.509.509,0,0,0,.509.509h24.614a.509.509,0,0,0,.509-.509v-2.475A.509.509,0,0,0,177.333,215.8Zm9.316-6.4H152.72a.509.509,0,0,0-.509.509v2.475a.51.51,0,0,0,.509.509h33.929a.51.51,0,0,0,.509-.509V209.9A.509.509,0,0,0,186.649,209.393Zm-43.358-1.334a5.519,5.519,0,0,1,.8,6.788l-3.618,5.9a1.274,1.274,0,0,1-2.171,0l-3.619-5.9a5.519,5.519,0,0,1,8.607-6.788Zm-.909,3.9a2.993,2.993,0,1,0-2.993,2.993A2.993,2.993,0,0,0,142.381,211.962Zm-8,22.5a2.547,2.547,0,1,0,2.547,2.547A2.547,2.547,0,0,0,134.379,234.462Zm7.642,0a2.547,2.547,0,1,0,2.547,2.547A2.547,2.547,0,0,0,142.021,234.462Zm8.215,0a2.547,2.547,0,1,0,2.547,2.547A2.547,2.547,0,0,0,150.236,234.462Zm0,0" transform="translate(-98.973 -124.931)" fill="#f9d19a"/>
      <path id="Trazado_700091" data-name="Trazado 700091" d="M187.752,76.648H138.844a4.463,4.463,0,0,0-4.457,4.457V86.2a7.012,7.012,0,0,0,7.005,7.005H185.2a7.012,7.012,0,0,0,7.005-7.005V81.106A4.463,4.463,0,0,0,187.752,76.648Zm.637,9.551a3.188,3.188,0,0,1-3.185,3.185H141.392a3.188,3.188,0,0,1-3.185-3.185V81.106a.638.638,0,0,1,.637-.637h48.908a.638.638,0,0,1,.637.637Zm0,0" transform="translate(-100.891 -57.544)" fill="#235967"/>
      <path id="Trazado_700092" data-name="Trazado 700092" d="M216.553,15.283V25.472a2.547,2.547,0,0,1-2.547,2.547h-28.53a2.547,2.547,0,0,1-2.547-2.547V15.283a2.547,2.547,0,0,1,2.547-2.547h7.642V6.623a6.623,6.623,0,1,1,13.245,0v6.113h7.642A2.547,2.547,0,0,1,216.553,15.283Zm0,0" transform="translate(-137.334)" fill="#f4aa39"/>
      <path id="Trazado_700093" data-name="Trazado 700093" d="M231.9,16.814V27a2.547,2.547,0,0,1-2.547,2.547H205.918A2.547,2.547,0,0,1,203.371,27V21.192a3.1,3.1,0,0,1,3.1-3.1h10.269a1.911,1.911,0,0,0,1.909-1.969,1.963,1.963,0,0,0-1.99-1.852,3.1,3.1,0,0,1-3.1-3.1V8.154a6.625,6.625,0,0,1,4.076-6.114,6.625,6.625,0,0,1,4.076,6.114v6.113h7.642A2.547,2.547,0,0,1,231.9,16.814Zm0,0" transform="translate(-152.68 -1.531)" fill="#f5b65d"/>
      <path id="Trazado_700094" data-name="Trazado 700094" d="M242.692,14.04a3.821,3.821,0,1,1-3.821-3.822A3.821,3.821,0,0,1,242.692,14.04Zm0,0" transform="translate(-176.464 -7.672)" fill="#d98800"/>
      <path id="Trazado_700095" data-name="Trazado 700095" d="M222.893,394.85l3.23,6.926a2.547,2.547,0,0,1-1.233,3.385L216.649,409a3.815,3.815,0,0,1-2.081.329l-9.624-1.182a.765.765,0,0,1-.548-1.175l5.281-8.133a3.808,3.808,0,0,1,1.59-1.382l8.241-3.843A2.547,2.547,0,0,1,222.893,394.85Zm0,0" transform="translate(-153.356 -295.329)" fill="#f5b65d"/>
      <path id="Trazado_700096" data-name="Trazado 700096" d="M204.4,438.8l1.968-3.031a3.8,3.8,0,0,1,2.167,4.646l-3.587-.44A.765.765,0,0,1,204.4,438.8Zm0,0" transform="translate(-153.356 -327.153)" fill="#c98001"/>
      <path id="Trazado_700097" data-name="Trazado 700097" d="M454.653,306.04l-5.079,2.368a6.368,6.368,0,0,1-5.382-11.543l5.079-2.369a6.368,6.368,0,0,1,5.382,11.544Zm0,0" transform="translate(-330.715 -220.643)" fill="#faab90"/>
      <path id="Trazado_700098" data-name="Trazado 700098" d="M447.688,321.18a6.9,6.9,0,0,1,3.976-5.265l5.427-2.53a6.9,6.9,0,0,1,6.59.338,6.371,6.371,0,0,1-3.641,6.439l-5.079,2.368A6.368,6.368,0,0,1,447.688,321.18Zm0,0" transform="translate(-336.1 -234.765)" fill="#fbc0ad"/>
      <path id="Trazado_700099" data-name="Trazado 700099" d="M293.019,303.641l5.382,11.543L243,341.02l-5.382-11.543Zm0,0" transform="translate(-178.388 -227.957)" fill="#fd4343"/>
      <path id="Trazado_700100" data-name="Trazado 700100" d="M302.09,323.09l3.121,6.695-55.406,25.837-3.121-6.695Zm0,0" transform="translate(-185.197 -242.559)" fill="#fd5757"/>
    </g>
  </g>
</svg>
