<svg xmlns="http://www.w3.org/2000/svg" width="95.061" height="77.833" viewBox="0 0 95.061 77.833">
  <g id="marimonda" transform="translate(0 -45.035)">
    <path id="Trazado_692336" data-name="Trazado 692336" d="M24.217,74.995A12.026,12.026,0,0,0,17.8,76.84C16.634,78.7,15,80.9,15,83.256V100.47c0,8.907,4.571,13.043,14,13.043,1.632-20.014,2.371-30.9,3.914-34.823a12.049,12.049,0,0,0-8.7-3.7Z" transform="translate(-12.131 -24.23)" fill="#80b6fc"/>
    <path id="Trazado_692337" data-name="Trazado 692337" d="M3.825,108.271V91.057A12.026,12.026,0,0,1,5.67,84.641,12.076,12.076,0,0,0,0,94.882V112.1a12.086,12.086,0,0,0,12.086,12.086c2.5,0,6.379-.761,8.21-2.064,3.052-2.172,3.876-23.867,3.876-27.236a12.032,12.032,0,0,0-3.39-8.391c-1.543,3.923-3.238,13.852-4.87,33.866-6.675,0-12.086-3.179-12.086-12.086Z" transform="translate(0 -32.031)" fill="#5a86cc"/>
    <path id="Trazado_692338" data-name="Trazado 692338" d="M402.88,87.081a12.087,12.087,0,0,0-18.5-10.242c-.381.607-2.623,3.162-2.893,3.836a12.054,12.054,0,0,0-.863,4.494c0,3.369.824,25.064,3.876,27.236,1.831,1.3,5.707,2.064,8.21,2.064,2.358,0,6.469-2.59,8.329-3.758a12.025,12.025,0,0,0,1.845-6.416Z" transform="translate(-307.819 -24.23)" fill="#80b6fc"/>
    <path id="Trazado_692339" data-name="Trazado 692339" d="M378.322,118.288c-.639-.455-.76-2.695-.91-5.687a203.51,203.51,0,0,0-2.43-21.558,7.565,7.565,0,0,1,.327-4.486,12.048,12.048,0,0,1,.98-1.923,12.064,12.064,0,0,0-5.669,10.242c0,3.369.824,25.064,3.876,27.236,1.831,1.3,5.707,2.064,8.21,2.064a12.076,12.076,0,0,0,10.241-5.67,12.026,12.026,0,0,1-6.416,1.845c-2.5,0-6.379-.761-8.21-2.064Z" transform="translate(-299.732 -32.026)" fill="#5a86cc"/>
    <path id="Trazado_692340" data-name="Trazado 692340" d="M134.68,45.035c-8.168,0-14.862,2-18.722,4.1-3.91,10.881-8.2,65.7-8.2,65.7a72.352,72.352,0,0,0,28.832,6.121c10.812,0,22.308-2.347,26.814-6.418-.537-10.893-3.1-58.529-6.974-63.161C154.241,48.758,145.831,45.035,134.68,45.035Z" transform="translate(-87.15)" fill="#f8e883"/>
    <path id="Trazado_692341" data-name="Trazado 692341" d="M221.369,140.995a2.869,2.869,0,0,1,2.869,2.869v44.948a2.869,2.869,0,0,1-5.738,0V143.864A2.869,2.869,0,0,1,221.369,140.995Z" transform="translate(-176.708 -77.606)" fill="#eec06b"/>
    <path id="Trazado_692342" data-name="Trazado 692342" d="M103.841,131.057a2.865,2.865,0,0,1-1.777-2.794c.476-9.7,2.733-52.192,6.191-61.815a10.712,10.712,0,0,0-3.03,2.245c-3.905,4.667-6.474,52.971-6.986,63.4a2.865,2.865,0,0,0,1.777,2.794,71.19,71.19,0,0,0,53.921,0,2.865,2.865,0,0,0,1.777-2.794c0-.076-.008-.154-.011-.234a71.128,71.128,0,0,1-51.861-.8Z" transform="translate(-79.446 -17.317)" fill="#eec06b"/>
    <path id="Trazado_692343" data-name="Trazado 692343" d="M155.326,154.568a20.311,20.311,0,0,0,8.623-2.1h5.738a16.433,16.433,0,0,0,8.049,2.1,10.684,10.684,0,0,0,9.049-5.425,9.343,9.343,0,0,0,.116-1.461c0-4.754-3.487-8.607-9.165-8.607a13.473,13.473,0,0,0-8.049,2.869h-5.738l-2.239-1.424a12.968,12.968,0,0,0-5.81-1.445,9.03,9.03,0,0,0-7.551,3.493,21.493,21.493,0,0,0-.849,3.392C147.5,150.714,149.647,154.568,155.326,154.568Z" transform="translate(-119.287 -76.053)" fill="#d97b7b"/>
    <path id="Trazado_692344" data-name="Trazado 692344" d="M174.5,159.531a13.473,13.473,0,0,1-8.049-2.869h-2.869v-8.24a2.906,2.906,0,0,0-.026-.367h-2.843a12.189,12.189,0,0,0-2.239-1.424,2.855,2.855,0,0,0-.63,1.791v9.963a12.758,12.758,0,0,1-5.18,1.146c-5.678,0-7.826-3.853-7.826-8.607a9.17,9.17,0,0,1,.275-2.245,8.583,8.583,0,0,0-1.614,5.114c0,4.754,3.487,8.607,9.165,8.607a13.473,13.473,0,0,0,8.049-2.869h5.738A13.473,13.473,0,0,0,174.5,162.4c5.083,0,8.408-3.089,9.05-7.146A11.193,11.193,0,0,1,174.5,159.531Z" transform="translate(-116.053 -82.164)" fill="#d16161"/>
    <path id="Trazado_692345" data-name="Trazado 692345" d="M275.016,171.944a3.186,3.186,0,0,1-3.427,2.869c-3.421,0-8.04-2.869-8.04-2.869s4.618-2.869,8.04-2.869A3.186,3.186,0,0,1,275.016,171.944Z" transform="translate(-213.14 -100.315)" fill="#8c5e5e"/>
    <path id="Trazado_692346" data-name="Trazado 692346" d="M182.107,170.455a13.778,13.778,0,0,0-5.18-1.38,2.914,2.914,0,1,0,0,5.738,13.777,13.777,0,0,0,5.18-1.38l.956-1.489Z" transform="translate(-140.315 -100.315)" fill="#8c5e5e"/>
    <path id="Trazado_692347" data-name="Trazado 692347" d="M218.5,176.289v2.978a26.593,26.593,0,0,0,2.859-1.489A26.6,26.6,0,0,0,218.5,176.289Z" transform="translate(-176.708 -106.149)" fill="#655e67"/>
    <path id="Trazado_692348" data-name="Trazado 692348" d="M189.324,274.745c5.292,0,10.482-5.315,13.3-8.814a7.441,7.441,0,0,0,1.008-3.19,6.652,6.652,0,0,0-3.8-5.932c-.967-.519-4.865-2.057-11.848-2.057l-5.738.385a20.162,20.162,0,0,0-6.11,1.672,8.233,8.233,0,0,0-1.566,1.08,29.486,29.486,0,0,0-.9,3.9c0,3.664,6.9,12.96,15.651,12.96Z" transform="translate(-140.455 -169.606)" fill="#d97b7b"/>
    <path id="Trazado_692349" data-name="Trazado 692349" d="M184.236,272.833a12.608,12.608,0,0,1-1.913-.148V254.753a40.555,40.555,0,0,0-5.738.386v15.335c-4.8-3.005-8-8.107-8-10.6a6.436,6.436,0,0,1,.324-1.983,6.464,6.464,0,0,0-2.237,4.852c0,3.664,6.9,12.96,15.651,12.96,6.763,0,12.423-5.556,14.643-9.77C194.145,269.431,189.528,272.833,184.236,272.833Z" transform="translate(-134.793 -169.606)" fill="#d16161"/>
    <path id="Trazado_692350" data-name="Trazado 692350" d="M206.585,284.752H206.5l-1.913,2.483-3.744-2.067c-2.526.408-4.175,1.077-4.175,1.835,0,.781,1.537,3.434,4.175,5.3l3.744-2.067,1.913,3.991.082,0c6.025,0,9.913-5.979,9.913-7.222S212.06,284.752,206.585,284.752Z" transform="translate(-159.055 -193.867)" fill="#8c5e5e"/>
    <path id="Trazado_692351" data-name="Trazado 692351" d="M218.5,285.17V292.3a9.941,9.941,0,0,0,5.656,1.923v-9.47A36.75,36.75,0,0,0,218.5,285.17Z" transform="translate(-176.708 -193.869)" fill="#655e67"/>
    <path id="Trazado_692352" data-name="Trazado 692352" d="M243.282,133.864a2.869,2.869,0,0,0-2.869-2.869c0,8.839-1.913,47.094-1.913,47.817,0,1.529,3.11.863,4.618.948a2.857,2.857,0,0,0,.164-.948Z" transform="translate(-192.882 -69.519)" fill="#80b6fc"/>
    <path id="Trazado_692353" data-name="Trazado 692353" d="M236.369,176.9v-45.9a2.869,2.869,0,0,0-2.869,2.869v44.948a2.868,2.868,0,0,0,5.574.948A2.867,2.867,0,0,1,236.369,176.9Z" transform="translate(-188.839 -69.519)" fill="#5a86cc"/>
  </g>
</svg>
