<svg xmlns="http://www.w3.org/2000/svg" width="113" height="113" viewBox="0 0 113 113">
  <g id="Grupo_953271" data-name="Grupo 953271" transform="translate(-180 -1014)">
    <circle id="Elipse_5327" data-name="Elipse 5327" cx="56.5" cy="56.5" r="56.5" transform="translate(180 1014)" fill="#b7ceac"/>
    <g id="mapa" transform="translate(197.994 1032)">
      <g id="Grupo_949959" data-name="Grupo 949959" transform="translate(0.006 0.002)">
        <path id="Trazado_692753" data-name="Trazado 692753" d="M66.838,61.682C57.367,72.757,38.584,80.358,21.917,73.875,9.97,69.227-1.047,57.208.086,44.011.8,35.647,6.455,26.181,14.926,22.03c6.667-3.267,12.407-1.932,16.062-6.791,3.212-4.269.584-7.7,3.311-11.1,4.312-5.38,17.687-5.3,25.857-.926,16.18,8.657,23.142,39.221,6.682,58.469Z" transform="translate(-0.006 -0.012)" fill="#eefffe"/>
      </g>
      <g id="Grupo_950028" data-name="Grupo 950028" transform="translate(0.808 0)">
        <g id="Grupo_949994" data-name="Grupo 949994" transform="translate(6.495 1.445)">
          <g id="Grupo_949960" data-name="Grupo 949960">
            <path id="Trazado_692754" data-name="Trazado 692754" d="M96.253,79.706l-16.6,2.979-16.6-3.169L45.18,82.724V12.152L63.061,8.944l16.6,2.979,16.6-2.787,17.873,3.207V82.915Z" transform="translate(-45.18 -8.944)" fill="#efefef"/>
          </g>
          <g id="Grupo_949961" data-name="Grupo 949961" transform="translate(1.284 1.307)">
            <path id="Trazado_692755" data-name="Trazado 692755" d="M102.919,17.228l-16.6,2.787-16.6-2.978-16.6,2.978V87.971l16.6-2.978,16.6,3.168,16.6-2.978,16.6,2.978V20.205Z" transform="translate(-53.13 -17.037)" fill="#1edef7"/>
          </g>
          <g id="Grupo_949962" data-name="Grupo 949962" transform="translate(50.197 1.543)">
            <path id="Trazado_692756" data-name="Trazado 692756" d="M355.9,18.493V86.45l3.605.647V19.14Z" transform="translate(-355.899 -18.493)" fill="#fff"/>
          </g>
          <g id="Grupo_949966" data-name="Grupo 949966" transform="translate(1.284 1.307)">
            <g id="Grupo_949963" data-name="Grupo 949963">
              <path id="Trazado_692757" data-name="Trazado 692757" d="M53.13,20.015V87.971l16.6-2.978V17.037Z" transform="translate(-53.13 -17.037)" fill="#1edef7"/>
            </g>
            <g id="Grupo_949964" data-name="Grupo 949964" transform="translate(16.596 0)">
              <path id="Trazado_692758" data-name="Trazado 692758" d="M189.054,17.228l-16.6,2.787-16.6-2.978V84.994l16.6,3.168,16.6-2.978Z" transform="translate(-155.861 -17.037)" fill="#64db7b"/>
            </g>
            <g id="Grupo_949965" data-name="Grupo 949965" transform="translate(16.596 0)">
              <path id="Trazado_692759" data-name="Trazado 692759" d="M159.714,17.728l-3.853-.691V84.994l3.853.736Z" transform="translate(-155.861 -17.037)" fill="#fff"/>
            </g>
          </g>
          <g id="Grupo_949967" data-name="Grupo 949967" transform="translate(1.284 2.921)">
            <path id="Trazado_692760" data-name="Trazado 692760" d="M104.508,44.341h15.007V34.991H100.008a4.829,4.829,0,0,0-4.821,4.836v7.659H86.323v-19.1l-7.6-1.364V47.486H53.13V55.4H95.188V72.019H53.13V82.978H86v13.5l.321.061,7.384-1.325V81.369h5.981a4.829,4.829,0,0,0,4.821-4.836V72.384h15.007v-7.6H104.508Z" transform="translate(-53.13 -27.024)" fill="#999"/>
          </g>
          <g id="Grupo_949993" data-name="Grupo 949993" transform="translate(4.5 7.524)">
            <g id="Grupo_949968" data-name="Grupo 949968" transform="translate(56.099 7.557)">
              <path id="Trazado_692761" data-name="Trazado 692761" d="M420.287,102.29h1.929v1.616h-1.929Z" transform="translate(-420.287 -102.29)" fill="#fff"/>
            </g>
            <g id="Grupo_949969" data-name="Grupo 949969" transform="translate(50.751 7.557)">
              <path id="Trazado_692762" data-name="Trazado 692762" d="M387.186,102.29h1.491v1.616h-1.491Z" transform="translate(-387.186 -102.29)" fill="#fff"/>
            </g>
            <g id="Grupo_949970" data-name="Grupo 949970" transform="translate(44.712 7.557)">
              <path id="Trazado_692763" data-name="Trazado 692763" d="M349.8,102.29h1.862v1.616H349.8Z" transform="translate(-349.8 -102.29)" fill="#fff"/>
            </g>
            <g id="Grupo_949971" data-name="Grupo 949971" transform="translate(42.618 24.206)">
              <path id="Trazado_692764" data-name="Trazado 692764" d="M336.842,205.351h1.616v1.989h-1.616Z" transform="translate(-336.842 -205.351)" fill="#fff"/>
            </g>
            <g id="Grupo_949972" data-name="Grupo 949972" transform="translate(42.618 13.093)">
              <path id="Trazado_692765" data-name="Trazado 692765" d="M336.842,136.559h1.616v8.584h-1.616Z" transform="translate(-336.842 -136.559)" fill="#fff"/>
            </g>
            <g id="Grupo_949973" data-name="Grupo 949973" transform="translate(42.618 28.616)">
              <path id="Trazado_692766" data-name="Trazado 692766" d="M336.842,232.648h1.616v2.012h-1.616Z" transform="translate(-336.842 -232.648)" fill="#fff"/>
            </g>
            <g id="Grupo_949974" data-name="Grupo 949974" transform="translate(35.594 44.492)">
              <path id="Trazado_692767" data-name="Trazado 692767" d="M293.361,330.919h6.064v1.615h-6.064Z" transform="translate(-293.361 -330.919)" fill="#fff"/>
            </g>
            <g id="Grupo_949975" data-name="Grupo 949975" transform="translate(31.088 44.492)">
              <path id="Trazado_692768" data-name="Trazado 692768" d="M265.47,330.919h2.092v1.615H265.47Z" transform="translate(-265.47 -330.919)" fill="#fff"/>
            </g>
            <g id="Grupo_949976" data-name="Grupo 949976" transform="translate(57.671 36.269)">
              <path id="Trazado_692769" data-name="Trazado 692769" d="M430.018,280.024h2.092v1.615h-2.092Z" transform="translate(-430.018 -280.024)" fill="#fff"/>
            </g>
            <g id="Grupo_949977" data-name="Grupo 949977" transform="translate(49.48 36.269)">
              <path id="Trazado_692770" data-name="Trazado 692770" d="M379.314,280.024h5.938v1.615h-5.938Z" transform="translate(-379.314 -280.024)" fill="#fff"/>
            </g>
            <g id="Grupo_949978" data-name="Grupo 949978" transform="translate(0 44.492)">
              <path id="Trazado_692771" data-name="Trazado 692771" d="M73.033,330.919h5.223v1.615H73.033Z" transform="translate(-73.033 -330.919)" fill="#fff"/>
            </g>
            <g id="Grupo_949979" data-name="Grupo 949979" transform="translate(29.423 19.243)">
              <path id="Trazado_692772" data-name="Trazado 692772" d="M255.161,174.631H265.49v1.615H255.161Z" transform="translate(-255.161 -174.631)" fill="#fff"/>
            </g>
            <g id="Grupo_949980" data-name="Grupo 949980" transform="translate(22.995 19.243)">
              <path id="Trazado_692773" data-name="Trazado 692773" d="M215.374,174.631h2.3v1.615h-2.3Z" transform="translate(-215.374 -174.631)" fill="#fff"/>
            </g>
            <g id="Grupo_949981" data-name="Grupo 949981" transform="translate(25.264 13.087)">
              <path id="Trazado_692774" data-name="Trazado 692774" d="M229.417,136.524h1.616v1.989h-1.616Z" transform="translate(-229.417 -136.524)" fill="#fff"/>
            </g>
            <g id="Grupo_949982" data-name="Grupo 949982" transform="translate(25.264 2.134)">
              <path id="Trazado_692775" data-name="Trazado 692775" d="M229.417,68.726h1.616v8.423h-1.616Z" transform="translate(-229.417 -68.726)" fill="#fff"/>
            </g>
            <g id="Grupo_949983" data-name="Grupo 949983" transform="translate(18.173 19.243)">
              <path id="Trazado_692776" data-name="Trazado 692776" d="M185.523,174.631h2.3v1.615h-2.3Z" transform="translate(-185.523 -174.631)" fill="#fff"/>
            </g>
            <g id="Grupo_949984" data-name="Grupo 949984" transform="translate(0.515 19.243)">
              <path id="Trazado_692777" data-name="Trazado 692777" d="M76.218,174.631h2.3v1.615h-2.3Z" transform="translate(-76.218 -174.631)" fill="#fff"/>
            </g>
            <g id="Grupo_949985" data-name="Grupo 949985" transform="translate(5.318 19.244)">
              <path id="Trazado_692778" data-name="Trazado 692778" d="M105.949,174.635h10.336v1.615H105.949Z" transform="translate(-105.949 -174.635)" fill="#fff"/>
            </g>
            <g id="Grupo_949986" data-name="Grupo 949986" transform="translate(42.618 33.371)">
              <path id="Trazado_692779" data-name="Trazado 692779" d="M336.842,262.081h1.616v8.378h-1.616Z" transform="translate(-336.842 -262.081)" fill="#fff"/>
            </g>
            <g id="Grupo_949987" data-name="Grupo 949987" transform="translate(57.227 45.042)">
              <path id="Trazado_692780" data-name="Trazado 692780" d="M427.268,334.329h1.615v1.641h-1.615Z" transform="translate(-427.268 -334.329)" fill="#fff"/>
            </g>
            <g id="Grupo_949988" data-name="Grupo 949988" transform="translate(57.227 48.682)">
              <path id="Trazado_692781" data-name="Trazado 692781" d="M427.268,356.857h1.615v1.66h-1.615Z" transform="translate(-427.268 -356.857)" fill="#fff"/>
            </g>
            <g id="Grupo_949989" data-name="Grupo 949989" transform="translate(57.227 52.606)">
              <path id="Trazado_692782" data-name="Trazado 692782" d="M427.268,381.147h1.615v6.914h-1.615Z" transform="translate(-427.268 -381.147)" fill="#fff"/>
            </g>
            <g id="Grupo_949990" data-name="Grupo 949990" transform="translate(0.72)">
              <path id="Trazado_692783" data-name="Trazado 692783" d="M77.491,55.515h1.616v1.641H77.491Z" transform="translate(-77.491 -55.515)" fill="#fff"/>
            </g>
            <g id="Grupo_949991" data-name="Grupo 949991" transform="translate(0.72 3.64)">
              <path id="Trazado_692784" data-name="Trazado 692784" d="M77.491,78.044h1.616V79.7H77.491Z" transform="translate(-77.491 -78.044)" fill="#fff"/>
            </g>
            <g id="Grupo_949992" data-name="Grupo 949992" transform="translate(0.72 7.564)">
              <path id="Trazado_692785" data-name="Trazado 692785" d="M77.491,102.334h1.616v6.914H77.491Z" transform="translate(-77.491 -102.334)" fill="#fff"/>
            </g>
          </g>
        </g>
        <g id="Grupo_949999" data-name="Grupo 949999" transform="translate(44.95 0)">
          <g id="Grupo_949995" data-name="Grupo 949995" transform="translate(0)">
            <path id="Trazado_692786" data-name="Trazado 692786" d="M302.157,9.125c0,8.326-9.471,14.827-9.471,14.827s-9.471-6.843-9.471-14.827a9.478,9.478,0,0,1,18.942,0Z" transform="translate(-283.215 0)" fill="#ef438a"/>
          </g>
          <g id="Grupo_949996" data-name="Grupo 949996" transform="translate(0 7.435)">
            <path id="Trazado_692787" data-name="Trazado 692787" d="M292.685,59s-8.048-5.815-9.307-12.978a8.844,8.844,0,0,0-.165,1.69c0,7.984,9.471,14.827,9.471,14.827s9.471-6.5,9.471-14.827A8.845,8.845,0,0,0,302,46.054C300.76,53.458,292.685,59,292.685,59Z" transform="translate(-283.214 -46.023)" fill="#dd3c76"/>
          </g>
          <g id="Grupo_949997" data-name="Grupo 949997" transform="translate(4.816 4.8)">
            <ellipse id="Elipse_5540" data-name="Elipse 5540" cx="4.655" cy="4.665" rx="4.655" ry="4.665" fill="#fff"/>
          </g>
          <g id="Grupo_949998" data-name="Grupo 949998" transform="translate(4.816 5.932)">
            <path id="Trazado_692788" data-name="Trazado 692788" d="M319.286,41.7a4.66,4.66,0,0,1-4.655-4.665c0-.106,0-.211.012-.316a4.66,4.66,0,1,0,7.682,3.848A4.629,4.629,0,0,1,319.286,41.7Z" transform="translate(-313.025 -36.721)" fill="#f7f7f7"/>
          </g>
        </g>
        <g id="Grupo_950004" data-name="Grupo 950004" transform="translate(31.903 31.627)">
          <g id="Grupo_950000" data-name="Grupo 950000" transform="translate(0)">
            <path id="Trazado_692789" data-name="Trazado 692789" d="M216.262,202.448c0,6.091-6.9,10.847-6.9,10.847s-6.9-5.006-6.9-10.847a6.907,6.907,0,0,1,13.805,0Z" transform="translate(-202.457 -195.773)" fill="#ef438a"/>
          </g>
          <g id="Grupo_950001" data-name="Grupo 950001" transform="translate(0 5.063)">
            <path id="Trazado_692790" data-name="Trazado 692790" d="M209.359,236.194s-5.558-4.032-6.7-9.081a6.478,6.478,0,0,0-.2,1.612c0,5.841,6.9,10.847,6.9,10.847s6.9-4.756,6.9-10.847a6.47,6.47,0,0,0-.2-1.583c-1.124,5.2-6.706,9.051-6.706,9.051Z" transform="translate(-202.456 -227.113)" fill="#dd3c76"/>
          </g>
          <g id="Grupo_950002" data-name="Grupo 950002" transform="translate(3.853 3.868)">
            <ellipse id="Elipse_5541" data-name="Elipse 5541" cx="3.05" cy="3.056" rx="3.05" ry="3.056" fill="#fff"/>
          </g>
          <g id="Grupo_950003" data-name="Grupo 950003" transform="translate(3.853 4.178)">
            <path id="Trazado_692791" data-name="Trazado 692791" d="M230.959,225.508a3.049,3.049,0,0,1-2.937-3.873,3.053,3.053,0,1,0,4.268,3.563A3.029,3.029,0,0,1,230.959,225.508Z" transform="translate(-226.304 -221.635)" fill="#f7f7f7"/>
          </g>
        </g>
        <g id="Grupo_950015" data-name="Grupo 950015" transform="translate(0 20.756)">
          <g id="Grupo_950005" data-name="Grupo 950005" transform="translate(0.939 5.339)">
            <path id="Trazado_692792" data-name="Trazado 692792" d="M13.069,168.366c1.719-3.381,5.61-6.931,10.278-6.835,4.181.086,8.685,4.386,10.1,8.214.075.2,3.98,10.226-.483,15.178-3.568,3.959-10.184,4.136-11.1,4.047-1.062-.1-7.744-.682-10.057-5.1C9.7,179.854,11.227,171.989,13.069,168.366Z" transform="translate(-10.786 -161.529)" fill="#666"/>
          </g>
          <g id="Grupo_950006" data-name="Grupo 950006" transform="translate(0 30.441)">
            <path id="Trazado_692793" data-name="Trazado 692793" d="M31.164,341.166H4.974v-10.94a14.2,14.2,0,0,1,9.281-13.313h7.629a14.2,14.2,0,0,1,9.281,13.313Z" transform="translate(-4.974 -316.913)" fill="#1edef7"/>
          </g>
          <g id="Grupo_950007" data-name="Grupo 950007" transform="translate(0 30.441)">
            <path id="Trazado_692794" data-name="Trazado 692794" d="M8.184,331.192a14.2,14.2,0,0,1,9.281-13.313H23.96a14.243,14.243,0,0,0-2.077-.965H14.255a14.2,14.2,0,0,0-9.281,13.313v10.94H8.185v-9.975Z" transform="translate(-4.974 -316.913)" fill="#18c5e8"/>
          </g>
          <g id="Grupo_950008" data-name="Grupo 950008" transform="translate(4.733 44.845)">
            <path id="Trazado_692795" data-name="Trazado 692795" d="M34.273,406.075h1.616v1.73H34.273Z" transform="translate(-34.273 -406.075)" fill="#fff"/>
          </g>
          <g id="Grupo_950009" data-name="Grupo 950009" transform="translate(4.733 48.183)">
            <path id="Trazado_692796" data-name="Trazado 692796" d="M34.273,426.739h1.616v6.511H34.273Z" transform="translate(-34.273 -426.739)" fill="#fff"/>
          </g>
          <g id="Grupo_950010" data-name="Grupo 950010" transform="translate(9.28 20.436)">
            <path id="Trazado_692797" data-name="Trazado 692797" d="M66.235,268.507a3.815,3.815,0,0,1-3.815-3.815v-9.71h7.629v9.71A3.814,3.814,0,0,1,66.235,268.507Z" transform="translate(-62.42 -254.983)" fill="#ffc5b7"/>
          </g>
          <g id="Grupo_950011" data-name="Grupo 950011" transform="translate(5.813 9.21)">
            <path id="Trazado_692798" data-name="Trazado 692798" d="M48.236,203.96a7.282,7.282,0,0,1-7.282-7.282v-7.333a3.853,3.853,0,0,1,3.853-3.853h6.859a3.853,3.853,0,0,1,3.853,3.853v7.333A7.282,7.282,0,0,1,48.236,203.96Z" transform="translate(-40.954 -185.492)" fill="#fed9c9"/>
          </g>
          <g id="Grupo_950012" data-name="Grupo 950012" transform="translate(1.812 5.339)">
            <path id="Trazado_692799" data-name="Trazado 692799" d="M37.978,169.745c-1.414-3.828-5.918-8.127-10.1-8.214-4.668-.1-8.559,3.453-10.278,6.835a20.046,20.046,0,0,0-1.41,3.9H19.6a5.931,5.931,0,0,0,5.936-5.926h.04a8.458,8.458,0,0,0,8.074,5.926h5.12a25.976,25.976,0,0,0-.8-2.52Z" transform="translate(-16.192 -161.529)" fill="#666"/>
          </g>
          <g id="Grupo_950013" data-name="Grupo 950013" transform="translate(0.135 8.996)">
            <ellipse id="Elipse_5542" data-name="Elipse 5542" cx="12.96" cy="4.511" rx="12.96" ry="4.511" fill="#ffdb57"/>
          </g>
          <g id="Grupo_950014" data-name="Grupo 950014" transform="translate(3.57)">
            <path id="Trazado_692800" data-name="Trazado 692800" d="M38.928,129.084a4.883,4.883,0,0,1-4.641,0l-.018-.01a4.874,4.874,0,0,0-7.194,4.279v5.578c0,1.388,4.264,2.514,9.525,2.514s9.525-1.126,9.525-2.514v-5.572a4.875,4.875,0,0,0-7.2-4.278Z" transform="translate(-27.075 -128.483)" fill="#ffc84d"/>
          </g>
        </g>
        <g id="Grupo_950027" data-name="Grupo 950027" transform="translate(17.658 52.707)">
          <g id="Grupo_950016" data-name="Grupo 950016" transform="translate(0 0)">
            <path id="Trazado_692801" data-name="Trazado 692801" d="M134.855,330.425l-1.461-3.224a1.605,1.605,0,0,0-1.462-.943h-4.59a1.605,1.605,0,0,0-1.462.943l-1.461,3.224h-7.9a2.25,2.25,0,0,0-2.247,2.252V346.75A2.25,2.25,0,0,0,116.524,349h21.19a2.25,2.25,0,0,0,2.247-2.252V332.677a2.25,2.25,0,0,0-2.247-2.252Z" transform="translate(-114.277 -326.258)" fill="#ffecc2"/>
          </g>
          <g id="Grupo_950021" data-name="Grupo 950021" transform="translate(7.251 9.803)">
            <g id="Grupo_950017" data-name="Grupo 950017">
              <ellipse id="Elipse_5543" data-name="Elipse 5543" cx="5.592" cy="5.63" rx="5.592" ry="5.63" fill="#5b5b5b"/>
            </g>
            <g id="Grupo_950018" data-name="Grupo 950018" transform="translate(1.579 1.609)">
              <ellipse id="Elipse_5544" data-name="Elipse 5544" cx="4.013" cy="4.022" rx="4.013" ry="4.022" fill="#6d6d6d"/>
            </g>
            <g id="Grupo_950019" data-name="Grupo 950019" transform="translate(3.345 3.458)">
              <path id="Trazado_692802" data-name="Trazado 692802" d="M182.109,412.686a2.173,2.173,0,1,1,2.247-2.172A2.213,2.213,0,0,1,182.109,412.686Z" transform="translate(-179.862 -408.343)" fill="#999"/>
            </g>
            <g id="Grupo_950020" data-name="Grupo 950020" transform="translate(4.629 4.665)">
              <ellipse id="Elipse_5545" data-name="Elipse 5545" cx="0.963" cy="0.965" rx="0.963" ry="0.965" fill="#fff"/>
            </g>
          </g>
          <g id="Grupo_950023" data-name="Grupo 950023">
            <g id="Grupo_950022" data-name="Grupo 950022">
              <path id="Trazado_692803" data-name="Trazado 692803" d="M139.961,332.677a2.25,2.25,0,0,0-2.247-2.252h-2.859l-1.461-3.224a1.605,1.605,0,0,0-1.462-.943h-4.59a1.605,1.605,0,0,0-1.462.943l-1.461,3.224h-7.9a2.25,2.25,0,0,0-2.247,2.252v1.763h25.685v-1.763Z" transform="translate(-114.276 -326.257)" fill="#f9d9af"/>
            </g>
          </g>
          <g id="Grupo_950024" data-name="Grupo 950024" transform="translate(3.68 0.567)">
            <path id="Trazado_692804" data-name="Trazado 692804" d="M141.379,333.366h-4.321V330.73a.964.964,0,0,1,.963-.965h2.395a.964.964,0,0,1,.963.965Z" transform="translate(-137.058 -329.765)" fill="#666"/>
          </g>
          <g id="Grupo_950025" data-name="Grupo 950025" transform="translate(2.825 10.504)">
            <path id="Trazado_692805" data-name="Trazado 692805" d="M131.76,391.277h1.66v1.616h-1.66Z" transform="translate(-131.76 -391.277)" fill="#fff"/>
          </g>
          <g id="Grupo_950026" data-name="Grupo 950026" transform="translate(21.465 10.504)">
            <path id="Trazado_692806" data-name="Trazado 692806" d="M247.148,391.277h1.66v1.616h-1.66Z" transform="translate(-247.148 -391.277)" fill="#fff"/>
          </g>
        </g>
      </g>
    </g>
  </g>
</svg>
