<svg xmlns="http://www.w3.org/2000/svg" width="127" height="127" viewBox="0 0 127 127">
  <g id="Grupo_953292" data-name="Grupo 953292" transform="translate(-423 -4703)">
    <circle id="Elipse_5412" data-name="Elipse 5412" cx="63.5" cy="63.5" r="63.5" transform="translate(423 4703)" fill="#ccd3ca"/>
    <g id="objetivo" transform="translate(438.813 4711.499)">
      <path id="Trazado_704955" data-name="Trazado 704955" d="M164.661,9.214a46.157,46.157,0,0,0-23.244,6.238l69.615,40.132a46.37,46.37,0,0,0-46.37-46.37Z" transform="translate(-114.828 0)" fill="#fec502"/>
      <path id="Trazado_704956" data-name="Trazado 704956" d="M67.329,124.213a46.327,46.327,0,0,0,43.8-47.915,24.3,24.3,0,0,0-7.591-12.844,8.653,8.653,0,0,1-2.891-6.477,15.82,15.82,0,0,0-15.82-15.82H62.832a18.826,18.826,0,0,1-9.519-2.541,13.872,13.872,0,0,0-6.984-1.9h-.049a13.956,13.956,0,0,0-3.744.51A46.46,46.46,0,0,0,19.809,66.608V77.913H18.418a46.622,46.622,0,0,0,1.391,11.305,46.378,46.378,0,0,0,47.521,35Z" transform="translate(-14.955 -22.329)" fill="#ffa50a"/>
      <g id="Grupo_953291" data-name="Grupo 953291" transform="translate(0 14.384)">
        <path id="Trazado_704957" data-name="Trazado 704957" d="M13.564,70.119H89.3v54.55H13.564Z" transform="translate(-11.014 -63.838)" fill="#b6fff6"/>
        <path id="Trazado_704958" data-name="Trazado 704958" d="M142.353,70.119H169.66v54.55H142.353Z" transform="translate(-115.588 -63.838)" fill="#97f4ec"/>
        <path id="Trazado_704959" data-name="Trazado 704959" d="M76.954,64.232V114.69H3.883V64.232Zm3.883-3.883H0v58.224H80.837Z" transform="translate(0 -55.904)" fill="#fff"/>
        <path id="Trazado_704960" data-name="Trazado 704960" d="M16.592,114.69H3.883V64.232H16.592V60.349H0v58.224H16.592Z" transform="translate(0 -55.904)" fill="#f5f0f0"/>
        <path id="Trazado_704961" data-name="Trazado 704961" d="M274.5,180.73l-4.851-4.851a1.613,1.613,0,0,1,1.141-2.754h7.879q.121-1.207.122-2.447a24.307,24.307,0,1,0-2.266,10.262A1.614,1.614,0,0,1,274.5,180.73Z" transform="translate(-186.875 -125.742)" fill="#5c2481"/>
        <circle id="Elipse_5670" data-name="Elipse 5670" cx="18.617" cy="18.617" r="18.617" transform="translate(48.975 26.319)" fill="#8757f3"/>
        <path id="Trazado_704962" data-name="Trazado 704962" d="M269.729,195.31a3.5,3.5,0,0,1,2.812-3.433,3.572,3.572,0,0,1,3.646,1.555l.306.457a1.424,1.424,0,0,0,2.607-.792s.034-5.747.016-9.867a5.336,5.336,0,0,1,1.438-3.445,1.863,1.863,0,0,0-1.387-3.09h-.195a18.617,18.617,0,0,0,.129,37.233h.048a1.138,1.138,0,0,0,.507-2.15,18.614,18.614,0,0,1-9.925-16.467Zm6.523-12.289v2.757a.8.8,0,0,1-1.466.445s-.543-.808-.945-1.405a1.041,1.041,0,0,1,.052-1.238q.465-.573.973-1.107A.8.8,0,0,1,276.252,183.021Z" transform="translate(-211.507 -150.374)" fill="#6a2bc2"/>
        <path id="Trazado_704963" data-name="Trazado 704963" d="M331.034,207.686l5.352,7.991v-13.9" transform="translate(-268.794 -170.741)" fill="none" stroke="#fff" stroke-linecap="round" stroke-linejoin="round" stroke-miterlimit="10" stroke-width="3.14"/>
        <g id="Grupo_953290" data-name="Grupo 953290" transform="translate(24.128 48.907)">
          <path id="Trazado_704964" data-name="Trazado 704964" d="M171.387,334.384l-13.873-9.926v19.911a3.868,3.868,0,0,0,3.868,3.868h24.254a5.111,5.111,0,0,0,5.111-5.111V320.531Z" transform="translate(-152.026 -316.074)" fill="#fff"/>
          <g id="Grupo_953289" data-name="Grupo 953289" transform="translate(0 4.457)">
            <path id="Trazado_704965" data-name="Trazado 704965" d="M144.026,333.714a1.118,1.118,0,0,0-1.623-.179l-3.131,2.686a2.645,2.645,0,0,1-4.367-2.008v-8.976l-6.578-4.706v22.594a5.111,5.111,0,0,0,5.111,5.111h6.578a3,3,0,0,1-1.724-.629,4.7,4.7,0,0,1-.267-7.371l5.8-4.979A1.144,1.144,0,0,0,144.026,333.714Z" transform="translate(-128.327 -320.531)" fill="#f5f0f0"/>
            <path id="Trazado_704966" data-name="Trazado 704966" d="M264.862,320.531l-16.072,11.5,1.828,1.308a1.115,1.115,0,0,0-.494.371,1.144,1.144,0,0,0,.194,1.549l9.894,8.487a1.118,1.118,0,0,0,1.6-.145,1.144,1.144,0,0,0-.171-1.578l-5.27-4.52a4.063,4.063,0,0,1,.281-6.388l8.212-5.876Z" transform="translate(-226.141 -320.531)" fill="#f5f0f0"/>
          </g>
          <path id="Trazado_704967" data-name="Trazado 704967" d="M162.47,296.893l-29.416-.066a4.607,4.607,0,0,0-3.075,8.06q.08.069.164.135l2.943,2.315L144.4,315.6a5.716,5.716,0,0,0,6.709.026l11.293-8.121,3.02-2.47q.085-.07.167-.142A4.607,4.607,0,0,0,162.47,296.893Z" transform="translate(-128.383 -296.827)" fill="#00b7f0"/>
          <path id="Trazado_704968" data-name="Trazado 704968" d="M137.176,304.739a3.6,3.6,0,0,1,2.52-6.181h26.317a4.529,4.529,0,0,0-3.546-1.665l-29.416-.066h0a4.541,4.541,0,0,0-3.619,1.731h0a4.523,4.523,0,0,0,.708,6.464l2.943,2.315,11.312,8.266a5.715,5.715,0,0,0,6.709.026l.349-.251C148.767,313.385,138.718,306.18,137.176,304.739Z" transform="translate(-128.38 -296.827)" fill="#0091c8"/>
        </g>
        <path id="Trazado_704969" data-name="Trazado 704969" d="M443.022,280.169l-4.851-4.851a1.613,1.613,0,0,1,1.141-2.754h9.7a1.613,1.613,0,0,1,1.141,2.754l-4.851,4.851A1.614,1.614,0,0,1,443.022,280.169Z" transform="translate(-355.401 -228.219)" fill="#5c2481"/>
        <path id="Trazado_704970" data-name="Trazado 704970" d="M94.513,81.637c0,5.88-8.129,18.605-11.974,24.3a2.381,2.381,0,0,1-3.944,0c-3.846-5.691-11.974-18.417-11.974-24.3a13.946,13.946,0,1,1,27.893,0Z" transform="translate(-54.094 -61.865)" fill="#97f4ec"/>
        <path id="Trazado_704971" data-name="Trazado 704971" d="M94.513,50.658c0,5.88-8.129,18.605-11.974,24.3a2.381,2.381,0,0,1-3.944,0c-3.846-5.691-11.974-18.417-11.974-24.3a13.946,13.946,0,1,1,27.893,0Z" transform="translate(-54.094 -36.711)" fill="#fb3d80"/>
        <path id="Trazado_704972" data-name="Trazado 704972" d="M87.435,55.712a6.961,6.961,0,0,0-6.545-7.671l-.15-.005a4.335,4.335,0,0,1-2.869-7.486,13.987,13.987,0,0,1,3.119-2.242.849.849,0,0,0-.388-1.6h-.036A13.947,13.947,0,0,0,66.62,50.657c0,5.88,8.129,18.605,11.974,24.3a2.381,2.381,0,0,0,3.945,0c.443-.656.944-1.407,1.483-2.229-1.239-1.892-2.679-4.168-4.088-6.566a2.986,2.986,0,0,1,1.971-4.44,6.9,6.9,0,0,0,5.53-6.007Z" transform="translate(-54.094 -36.71)" fill="#e21e69"/>
        <circle id="Elipse_5671" data-name="Elipse 5671" cx="6.909" cy="6.909" r="6.909" transform="translate(19.563 7.037)" fill="#fff"/>
        <path id="Trazado_704973" data-name="Trazado 704973" d="M108.625,80.913a6.89,6.89,0,0,1,2.444-5.271.812.812,0,0,0-.562-1.434l-.071,0a6.91,6.91,0,0,0,.519,13.8h.112a.811.811,0,0,0,.465-1.466,6.9,6.9,0,0,1-2.908-5.633Z" transform="translate(-84.484 -67.156)" fill="#f5f0f0"/>
      </g>
    </g>
  </g>
</svg>
