<svg xmlns="http://www.w3.org/2000/svg" xmlns:xlink="http://www.w3.org/1999/xlink" width="189.266" height="249.743" viewBox="0 0 189.266 249.743">
  <defs>
    <clipPath id="clip-path">
      <path id="Trazado_699508" data-name="Trazado 699508" d="M355.815,101.016c.088-.075.193-.14.316-.23a7.526,7.526,0,0,1,5.471-1.1,5.019,5.019,0,0,0,3.951-1.038,3.541,3.541,0,0,0,.387-.438,2.553,2.553,0,0,0,.316-.487,3.6,3.6,0,0,0,.205-1.007c.053-.358.079-.537.081-.554.137-1.1.277-3.163.277-3.163.06-.936.007-2.083.118-3.416.046-.738.258-1.078.6-1.2.743-.256,2.1.535,3.709.631,2.352.142,4.351-1.256,4.21,1.075a1.47,1.47,0,0,1-.023.193,22.786,22.786,0,0,0-.354,7.372,2.131,2.131,0,0,0,.551,1.313,3,3,0,0,0,1.226.749c2.385.675,4.337.48,5.717,1.238,1.031.566,1.536,1.847,2.55,4.409a30.383,30.383,0,0,1,1.613,5.6l-8.838,9.59c-1.662-.514-3.912-1.27-6.385-2.3-1.284-.533-2.629-1.143-3.984-1.829a39.24,39.24,0,0,1-8.358-5.527c-.288-.216-4.942-3.784-4.135-7.958A5.472,5.472,0,0,1,355.815,101.016Z" transform="translate(-354.941 -88.332)" fill="none"/>
    </clipPath>
    <clipPath id="clip-path-2">
      <path id="Trazado_699528" data-name="Trazado 699528" d="M360.863,80.119a3.919,3.919,0,0,1-1.107,1.743,3.4,3.4,0,0,1-1.645.849c-1.4.214-2.508.305-3.965.48a3.252,3.252,0,0,1-1.033-.321,2.269,2.269,0,0,1-1.036-1.135,4.815,4.815,0,0,1,.2-.858,5.338,5.338,0,0,1,3.919-3.46A4.529,4.529,0,0,1,360.863,80.119Z" transform="translate(-352.077 -77.366)" fill="none"/>
    </clipPath>
    <clipPath id="clip-path-3">
      <path id="Trazado_699534" data-name="Trazado 699534" d="M361.256,81.785a3.608,3.608,0,0,0,3.167,2.255l4.956-.209a2.039,2.039,0,0,0,.822-.314,2.254,2.254,0,0,0,.924-1.438,4.107,4.107,0,0,0-.286-.824,5.281,5.281,0,0,0-4.663-2.79A5.476,5.476,0,0,0,361.256,81.785Z" transform="translate(-361.256 -78.465)" fill="none"/>
    </clipPath>
    <clipPath id="clip-path-4">
      <path id="Trazado_699542" data-name="Trazado 699542" d="M368.523,86.42c.189-.07.337-.128.395-.153-1.01,1.771-1.617,2.969-1.9,3.563a2.517,2.517,0,0,1-1.214,1.327,5.164,5.164,0,0,1-2.015.4,8.1,8.1,0,0,1-8.1-4.284l.631.03C364.42,87.679,367.013,86.982,368.523,86.42Z" transform="translate(-355.69 -86.267)" fill="none"/>
    </clipPath>
    <clipPath id="clip-path-5">
      <path id="Trazado_699591" data-name="Trazado 699591" d="M382.761,166.579l-6.346-9.564c-3.579,1.98-6.206,4.011-9.785,5.989a26.1,26.1,0,0,1-10.369-1.455,18.353,18.353,0,0,1-7.006-4.907c.551-1.277,1.347-3.242,2.138-5.7,1.178-3.663,1.008-4.223,1.885-7.295,1.589-5.571,4.572-11.847,6.669-14.157a9.473,9.473,0,0,0,1.569-2.271,9.65,9.65,0,0,0,.926-3.22l28.568-.71q4.651,18.486,9.3,36.973c-1.122,1.366-5.252,6.053-11.9,6.739A16.241,16.241,0,0,1,382.761,166.579Z" transform="translate(-349.255 -123.29)" fill="none"/>
    </clipPath>
  </defs>
  <g id="Grupo_950431" data-name="Grupo 950431" transform="translate(0 0)">
    <path id="Trazado_699477" data-name="Trazado 699477" d="M456.332,72.232a241.73,241.73,0,0,1-60.931,22,236.866,236.866,0,0,1-66.581,4.735c2.993-1.41,7.735-3.593,13.617-6.09,22.6-9.592,47.249-20.054,77.543-22.2A163.206,163.206,0,0,1,456.332,72.232Z" transform="translate(-305.181 -44.978)" fill="#ea9b24"/>
    <path id="Trazado_699478" data-name="Trazado 699478" d="M367.236,65.775a20.146,20.146,0,0,1,8.907-5.7c9.589-2.871,20.647,2.455,25.11,9.875,4.486,7.456-.838,11.8-.873,29.329-.032,16.636,4.724,32.661,5.65,35.7,0,0,5.441,17.241,3.47,26.392a19.538,19.538,0,0,1-3.263,7.647,15.629,15.629,0,0,1-9.429,6.073l4.037-8.5c-1.029,1.831-3.407,5.6-7.116,7.709a10.026,10.026,0,0,1-7.27,1.243q.86-2.607,1.719-5.217c-3.139,2.143-9.585,5.762-17.559,4.537-9.185-1.412-12.2-8.58-14.8-11.8,1.445,3.125,2.779,6.174,2.594,6.451a.089.089,0,0,1-.044.019c-.47.065-8.121-3.328-11.269-11.214-2.153-5.391-.551-8.747,2.567-26.5,2.816-16.04,2.246-25.078,2.5-31.111.365-8.6-.316-13.908,1.822-22.813,1.806-7.525,5.438-10.688,8.728-12.028A6.685,6.685,0,0,1,367.236,65.775Z" transform="translate(-289.095 -53.269)" fill="#573218"/>
    <path id="Trazado_699479" data-name="Trazado 699479" d="M355.264,119.233c-.17-3.009-.288-6.122-.354-9.313l-.019.5c.009.756-.768.41-1.22.167-.9-.507-1.066-2.864-1.064-3.434.037-6.513-.642-8.74,2.129-11.227a6.468,6.468,0,0,1,2.048-1.289c3.323-1.74,25.759-1.541,31.53-1.089,1.224.1,4.188-.419,6.2,1.25,1.189.989,1.529,3.007,1.71,3.868-8.786,7.558-17.478,14.427-26.262,21.983l-.384,22.016s-7.758.551-10.655-.665C353.179,139.594,351.535,118.291,355.264,119.233Z" transform="translate(-286.698 -27.683)" fill="#f4787a"/>
    <g id="Grupo_950390" data-name="Grupo 950390" transform="translate(103.296 55.658)">
      <path id="Trazado_699480" data-name="Trazado 699480" d="M332.033,96.028c-.086.386,1.242-.915,2.281,1.275a19.618,19.618,0,0,1,.994,4.153c.589,4.912,25.95,7.775,34.462,8.247.382.021.74-.331,1.01-.554.089-.072-2.36-1.613-1.694-3.716a2.549,2.549,0,0,1,1.264-1.331C370.656,101.634,332.411,94.311,332.033,96.028Z" transform="translate(-328.554 -81.431)" fill="#f8c2a8"/>
      <path id="Trazado_699481" data-name="Trazado 699481" d="M348.2,102.393c-.025-.586-2.117-7.472-2.376-7.462a14.533,14.533,0,0,0,1.382-1.04c.616-.565.5-1.575.06-1.427s-.691.289-1.834.814a37.125,37.125,0,0,0-3.812,2.12,5.768,5.768,0,0,0-1.831,1.838,5.078,5.078,0,0,1-2.187,1.836c-1.21.659-17.331,5.026-22.532,6.85-.426.149-.78,1.226-1.054,1.925-.74,1.9-.5,4.742,1.247,4.314,10.616-2.594,22.311-8.34,24.992-8.81l4.044.561c1.21-.26,1.661-.2,2.867-.472C347.542,103.352,348.214,102.723,348.2,102.393Z" transform="translate(-273.69 -83.933)" fill="#f8c2a8"/>
      <path id="Trazado_699482" data-name="Trazado 699482" d="M365.462,98.108c-9.808-2.546-16.379-2.7-17.289-2.629-1.792.142-5.771,2.72-4.051,5.445.733,1.161,8.6,12.293,8.526,11.9-.745-3.8-1.1-7.109,11.163-5.185Q364.637,102.874,365.462,98.108Z" transform="translate(-343.7 -81.66)" fill="#cfd25f"/>
      <path id="Trazado_699483" data-name="Trazado 699483" d="M344.919,106.853l2.068-8.984c.114-.5-1.783-1.41-1.938-.952l-2.334,10.045C342.63,107.465,344.784,107.377,344.919,106.853Z" transform="translate(-323.498 -80.661)" fill="#bab452"/>
      <g id="Grupo_950389" data-name="Grupo 950389" transform="translate(65.951 0)">
        <g id="Grupo_950384" data-name="Grupo 950384" transform="translate(4.563 0)">
          <rect id="Rectángulo_338052" data-name="Rectángulo 338052" width="4.931" height="8.526" rx="0.138" transform="translate(10.641 0.964) rotate(96.49)" fill="#bcbec0"/>
          <rect id="Rectángulo_338053" data-name="Rectángulo 338053" width="14.263" height="8.526" rx="0.207" transform="translate(10.084 5.863) rotate(96.49)" fill="#bcbec0"/>
          <path id="Trazado_699484" data-name="Trazado 699484" d="M310.666,106.891,312.2,93.442a.365.365,0,0,0-.321-.4l.121.014a.242.242,0,0,0,.268-.212l.5-4.419a.244.244,0,0,0-.214-.268l-.54-.061-2.169,19.072.419.047A.363.363,0,0,0,310.666,106.891Z" transform="translate(-302.154 -87.217)" fill="#126d6e"/>
          <rect id="Rectángulo_338054" data-name="Rectángulo 338054" width="4.547" height="1.152" rx="0.197" transform="translate(3.473 0.357) rotate(96.49)" fill="#126d6e"/>
          <rect id="Rectángulo_338055" data-name="Rectángulo 338055" width="4.547" height="6.084" rx="0.294" transform="translate(9.681 1.063) rotate(96.491)" fill="#f1f2f2"/>
          <rect id="Rectángulo_338056" data-name="Rectángulo 338056" width="13.792" height="6.084" rx="0.338" transform="translate(9.124 5.962) rotate(96.49)" fill="#f1f2f2"/>
          <rect id="Rectángulo_338057" data-name="Rectángulo 338057" width="13.82" height="1.153" rx="0.18" transform="translate(2.918 5.237) rotate(96.49)" fill="#126d6e"/>
          <path id="Trazado_699485" data-name="Trazado 699485" d="M310.353,90.449l.005-.054.107.012-.005.054Zm.537.061.007-.054-.216-.025-.005.054Zm.431.049.007-.054-.216-.025-.007.054Zm.431.049.005-.054-.216-.025-.005.054Zm.43.049.007-.054-.216-.025-.007.054Zm.431.049.005-.056-.214-.023-.007.054Zm.43.049.007-.056-.216-.025-.005.056Zm.431.049.007-.056-.216-.025-.007.056Zm.43.049.007-.056-.216-.025-.005.056Zm.431.049.007-.056-.216-.025-.007.056Zm.431.049.005-.056-.216-.025-.005.056Zm.43.049.007-.056-.216-.025-.007.056Zm.431.049.005-.056-.214-.025-.007.056Zm.43.049.007-.056-.216-.025-.005.056Zm.431.047.007-.054-.216-.025-.007.054Zm.43.049.007-.054-.216-.025-.005.054Zm.431.049.007-.054-.216-.025-.007.054Zm.431.049.005-.054-.216-.025-.005.054Zm.323.037.005-.054L318,91.265l-.007.054Z" transform="translate(-308.383 -85.482)" fill="#d1d3d4" style="mix-blend-mode: multiply;isolation: isolate"/>
          <path id="Trazado_699486" data-name="Trazado 699486" d="M316.223,98.747l-.039-.26-1.324-2.4L313.3,97.5l.172,1.152-.168.21-.672-.942a.17.17,0,0,1-.265-.212l-.979-.535.167-.184,1.14-.007,1.219-1.7-2.506-1.075-.233.032.195-.277,3.469.289c.2-.177,1.476-1.606,1.894-1.252.544.465-.849,1.852-.994,2.066l.691,3.39Z" transform="translate(-308.572 -83.56)" fill="#126d6e"/>
          <path id="Trazado_699487" data-name="Trazado 699487" d="M310.694,91.6l.391-3.435.018,0-.391,3.435Zm.338.039.391-3.435-.088-.01-.391,3.435Zm.286.033.391-3.435-.088-.011-.391,3.435Zm.33.037.391-3.435-.175-.019-.391,3.435Zm.219.025.391-3.435-.044-.005-.391,3.435Zm.352.04.391-3.435-.175-.019-.391,3.435Zm.242.028.389-3.435-.086-.011-.391,3.435Zm.328.037.391-3.435-.174-.019-.391,3.435Zm.242.028.391-3.435-.088-.011-.391,3.435Zm.286.032.391-3.435-.088-.009-.391,3.435Zm.251.03.391-3.435-.018,0-.391,3.437Zm.365.04.391-3.435-.175-.019-.391,3.435Zm.221.026.389-3.437-.044,0-.389,3.435Zm.272.03.391-3.435-.018,0-.391,3.435Zm.321.037.391-3.435-.088-.011-.391,3.435Zm.251.028.391-3.435-.018,0-.391,3.435Zm.365.042.391-3.435-.175-.021-.391,3.437Zm.242.028L316,88.719l-.088-.011-.391,3.435Zm.263.03.391-3.435-.044-.005-.391,3.435Z" transform="translate(-307.13 -87.166)"/>
        </g>
        <g id="Grupo_950385" data-name="Grupo 950385" transform="translate(4.467 1.269)">
          <rect id="Rectángulo_338058" data-name="Rectángulo 338058" width="4.931" height="8.526" rx="0.138" transform="matrix(-0.404, 0.915, -0.915, -0.404, 15.552, 3.444)" fill="#bcbec0"/>
          <rect id="Rectángulo_338059" data-name="Rectángulo 338059" width="14.263" height="8.527" rx="0.207" transform="matrix(-0.404, 0.915, -0.915, -0.404, 13.561, 7.955)" fill="#bcbec0"/>
          <path id="Trazado_699488" data-name="Trazado 699488" d="M308,107.643l5.468-12.382a.365.365,0,0,0-.186-.48l.111.049a.242.242,0,0,0,.319-.123l1.8-4.068a.241.241,0,0,0-.123-.319l-.5-.219-7.753,17.559.387.17A.363.363,0,0,0,308,107.643Z" transform="translate(-300.049 -86.973)" fill="#126d6e"/>
          <rect id="Rectángulo_338060" data-name="Rectángulo 338060" width="4.547" height="1.153" rx="0.197" transform="translate(8.891 0.729) rotate(113.819)" fill="#126d6e"/>
          <rect id="Rectángulo_338061" data-name="Rectángulo 338061" width="4.547" height="6.084" rx="0.294" transform="translate(14.606 3.253) rotate(113.82)" fill="#f1f2f2"/>
          <rect id="Rectángulo_338062" data-name="Rectángulo 338062" width="13.792" height="6.084" rx="0.338" transform="translate(12.615 7.763) rotate(113.821)" fill="#f1f2f2"/>
          <rect id="Rectángulo_338063" data-name="Rectángulo 338063" width="13.82" height="1.153" rx="0.18" transform="matrix(-0.404, 0.915, -0.915, -0.404, 6.907, 5.223)" fill="#126d6e"/>
          <path id="Trazado_699489" data-name="Trazado 699489" d="M308.4,91.009l.023-.051.1.044-.023.051Zm.5.219.021-.051-.2-.088-.023.051Zm.4.175.021-.051-.2-.088-.021.051Zm.4.175.023-.053-.2-.086-.021.051Zm.4.174.023-.051-.2-.088-.023.051Zm.4.175.023-.051-.2-.088-.023.051Zm.4.175.023-.051-.2-.088-.023.051Zm.4.175.023-.051-.2-.088-.023.051Zm.4.175.023-.051-.2-.088-.023.051Zm.4.175.023-.053-.2-.086-.023.051Zm.4.174.023-.051-.2-.088-.023.051Zm.4.175.021-.051-.2-.088-.023.051Zm.4.175.021-.051-.2-.088-.021.051Zm.4.175.023-.051-.2-.088-.023.051Zm.4.175.023-.051-.2-.088-.023.051Zm.4.174.023-.051-.2-.088-.023.053Zm.4.175.023-.051-.2-.088-.023.051Zm.4.175.023-.051-.2-.088-.023.051Zm.3.132.021-.051-.1-.044-.023.051Z" transform="translate(-302.323 -86.326)" fill="#d1d3d4" style="mix-blend-mode: multiply;isolation: isolate"/>
          <path id="Trazado_699490" data-name="Trazado 699490" d="M313.991,100.1l.04-.258-.547-2.688-1.911.884-.179,1.15-.223.153-.361-1.1a.17.17,0,0,1-.189-.282l-.775-.8.212-.126,1.093.333,1.668-1.257-2.071-1.771-.233-.04.268-.205,3.225,1.31c.242-.11,1.889-1.094,2.181-.631.381.605-1.363,1.513-1.566,1.676l-.349,3.441Z" transform="translate(-305.53 -83.968)" fill="#126d6e"/>
          <path id="Trazado_699491" data-name="Trazado 699491" d="M308.014,92.324l1.4-3.163.016.007-1.4,3.163Zm.31.137,1.4-3.162-.081-.037-1.4,3.164Zm.263.117,1.4-3.164-.081-.037-1.4,3.163Zm.3.133,1.4-3.163-.161-.07-1.4,3.162Zm.2.089,1.4-3.164-.04-.018-1.4,3.164Zm.323.142,1.4-3.162-.161-.072-1.4,3.163Zm.223.1,1.4-3.162-.081-.037-1.4,3.163Zm.3.135,1.4-3.163-.161-.072-1.4,3.163Zm.223.1,1.4-3.164-.081-.035-1.4,3.164Zm.263.116,1.4-3.164-.081-.035-1.4,3.163Zm.231.1,1.4-3.163-.016-.007-1.4,3.163Zm.335.149,1.4-3.163-.161-.072-1.4,3.163Zm.2.089,1.4-3.164-.04-.018-1.4,3.164Zm.251.11,1.4-3.163-.016-.007-1.4,3.163Zm.295.13,1.4-3.163-.081-.035-1.4,3.163Zm.231.1,1.4-3.164-.016-.007-1.4,3.164Zm.335.149,1.4-3.163-.161-.072-1.4,3.163Zm.223.1,1.4-3.163-.081-.035-1.4,3.164Zm.244.107,1.4-3.163-.04-.018-1.4,3.163Z" transform="translate(-300.25 -87.681)"/>
        </g>
        <g id="Grupo_950388" data-name="Grupo 950388" transform="translate(0.266 7.296)">
          <path id="Rectángulo_338064" data-name="Rectángulo 338064" d="M0,0H8.225a.481.481,0,0,1,.481.481V13.622a.481.481,0,0,1-.481.481H0a0,0,0,0,1,0,0V0A0,0,0,0,1,0,0Z" transform="translate(4.199 0) rotate(17.321)" fill="#9f0000"/>
          <g id="Grupo_950386" data-name="Grupo 950386" transform="translate(3.616 8.519)">
            <path id="Trazado_699492" data-name="Trazado 699492" d="M315.2,96.812l.009-.053s-.095-.033-.095-.019a.021.021,0,0,1-.014.018l.01.089-.033.058-.058.016s.058.011.053.035.028.068.028.068l.051-.033h.046s-.035-.093-.024-.091a.134.134,0,0,0,.077-.019C315.251,96.867,315.2,96.812,315.2,96.812Z" transform="translate(-313.013 -96.518)" fill="#fef3b3"/>
            <path id="Trazado_699493" data-name="Trazado 699493" d="M316.346,98.495c-.023,0-.095.012-.095.012l-.014-.084-.126-.061-.06-.053-.06-.044-.026.011s.01-.117,0-.114a.188.188,0,0,1-.042,0l-.011-.074-.086-.109-.065-.018a.512.512,0,0,1-.054-.079,1.326,1.326,0,0,0-.088-.137l-.054.018-.021-.04-.079-.025,0-.026-.063-.016,0-.019s.091-.037.063-.044a.445.445,0,0,0-.125.012l-.067,0-.063.06-.153.235s.009.37.016.428a1.06,1.06,0,0,0,.142.231l-.095.288-.068.21a1.454,1.454,0,0,0,.265.072c.033-.009.384-.132.384-.132s-.007-.072.028-.074a1.613,1.613,0,0,1,.205,0c.028.009.13-.065.137-.093s.031-.121.056-.128.182-.07.191-.1S316.369,98.495,316.346,98.495Z" transform="translate(-314.18 -95.873)" fill="#fef3b3"/>
            <path id="Trazado_699494" data-name="Trazado 699494" d="M314.708,96.94a.081.081,0,0,0-.053.032c-.007.011.019.011.025.033a.081.081,0,0,0,.035.053c.012.007.01.014.037-.011s.093-.046.07-.053S314.708,96.94,314.708,96.94Z" transform="translate(-311.963 -96.365)" fill="#fef3b3"/>
            <path id="Trazado_699495" data-name="Trazado 699495" d="M314.872,96.866l-.005.063s.039.019.035.033-.061.051-.065.061a.71.71,0,0,0,.005.1c0,.014.035.04.044.054a.278.278,0,0,1,0,.075l.049-.075L315,97.1l.082-.035.1-.018a.371.371,0,0,1-.04-.091.353.353,0,0,0,.028-.051c.009-.032-.107-.116-.107-.116l-.121-.042s-.251-.011-.156.019C314.782,96.764,314.874,96.848,314.872,96.866Z" transform="translate(-312.502 -96.513)" fill="#fef3b3"/>
            <path id="Trazado_699496" data-name="Trazado 699496" d="M316.585,96.7a1.9,1.9,0,1,0,1.245,2.374A1.9,1.9,0,0,0,316.585,96.7Zm-1.115,3.579a1.853,1.853,0,0,1,.161-3.581c-.086.054-.284.179-.286.186l-.012.053L315.17,97l-.046.028-.063.032-.128.144v.06l-.112.123-.061.172.077.03-.018.067-.054.054.056.23s.07-.019.074,0,.03.144.03.144l.056.04.016.065-.007.039.077.147-.007-.144.056-.121,0-.044-.088-.042.1-.109-.005-.035s-.051-.026-.061-.016a.79.79,0,0,1-.079.051l-.047-.03-.028-.028s-.009-.084,0-.1.1-.1.1-.1l.021-.053s.137-.035.13-.023a.223.223,0,0,0-.007.061l.1.03.021-.042s.051.025.049.046-.035.042-.035.042l.032.077-.023.086.065-.044.035-.146.212-.035s.125-.137.139-.132.065.009.065.009l.044-.072.079.009.016.061.27-.018.035.023s.067-.058.035-.065a.236.236,0,0,1-.061-.019l.025-.054.051-.033s-.093-.074-.088-.091l.037-.13-.072.037-.074-.023.053-.04-.049-.056a.025.025,0,0,0-.014-.016c-.01,0-.035.053-.049.049a.045.045,0,0,0-.046.016.269.269,0,0,0,0,.047l-.07.007-.058.054-.024-.019.014-.04.017-.021-.053-.025-.009-.068-.021-.026.035-.063.195.011.128,0,0-.051-.042-.04-.061-.067.093-.025-.007-.061-.111.018-.065-.042.1-.04a1.819,1.819,0,0,1,.505.082,1.869,1.869,0,0,1,.6.319.316.316,0,0,0,.058.081s-.107-.037-.1-.016a.717.717,0,0,0,.007.081.883.883,0,0,0,.051.1s-.017-.014-.012.03a.067.067,0,0,0,.042.054l.053.1a.828.828,0,0,1,.053.081c0,.012-.03.012-.03.012s0,.072-.009.053.016.032.009.044a.116.116,0,0,1-.035.028l-.044-.007.1.177s-.14-.04-.133-.025.017.1.017.1l-.023.049.021.025-.01.035.065-.007s-.005.058.012.049.025-.044.046-.039.04.025.053,0-.032-.054-.026-.072a.9.9,0,0,1,.056-.095l.005-.039s.016.056.025.049.014-.093.047-.056a1.184,1.184,0,0,0,.1.109c.014.005.007.1.007.1l.068-.061.044.058s-.044-.11-.032-.125.03-.025.032-.04a.08.08,0,0,0-.021-.042.428.428,0,0,1-.012-.091l-.026-.049.028-.018.046.093.005-.044.033.079c-.016-.007-.037-.012-.028.005a.218.218,0,0,1,.009.079l-.014.021s.026.146.033.133.042-.084.042-.065a1.165,1.165,0,0,1,.046.182.073.073,0,0,1-.028.028s-.118-.067-.111-.042.028.114.014.109-.044-.025-.054-.028-.007-.035-.026-.033-.074.007-.065-.005-.007-.067,0-.077-.028-.042-.028-.042-.067-.012-.067,0-.086.023-.086.023.009.04-.009.039a.425.425,0,0,1-.046-.011.162.162,0,0,1-.04-.028l-.026.051s-.037.011-.04.037-.009.095-.009.095l-.056.039-.054.065a.425.425,0,0,0-.049.077c-.009.025-.054.074-.044.077s.028.056.028.056-.019.061-.023.084-.054.065-.051.114a.182.182,0,0,0,.054.1.309.309,0,0,1,.007.095s.047,0,.054.028a.15.15,0,0,0,.072.072.507.507,0,0,0,.088-.018l.061.033.075-.044s.072,0,.068.011a.2.2,0,0,0,0,.044s.033-.037.058-.019a.06.06,0,0,1,.028.065c-.005.028-.1.123-.07.165a.118.118,0,0,1,.018.1c-.005.028-.033.105-.035.116s-.147.16-.147.16-.019.11-.039.123-.116,0-.133.14l-.007.037A1.857,1.857,0,0,1,315.47,100.277Z" transform="translate(-314.126 -96.612)" fill="#fef3b3"/>
          </g>
          <g id="Grupo_950387" data-name="Grupo 950387" transform="translate(4.373 2.899)">
            <path id="Trazado_699497" data-name="Trazado 699497" d="M312.4,95.033l.163.049-.075.249a.113.113,0,0,0,0,.089.086.086,0,0,0,.054.047.09.09,0,0,0,.074-.009.12.12,0,0,0,.049-.072l.209-.677a.12.12,0,0,0,0-.093.144.144,0,0,0-.079-.051l-.228-.07a.6.6,0,0,0-.161-.033.228.228,0,0,0-.109.021.243.243,0,0,0-.086.067.324.324,0,0,0-.054.107.264.264,0,0,0,.019.23A.4.4,0,0,0,312.4,95.033Zm.168-.391.119.039-.082.268-.119-.037a.468.468,0,0,1-.1-.046.125.125,0,0,1-.051-.063.132.132,0,0,1,0-.086.143.143,0,0,1,.063-.084A.241.241,0,0,1,312.573,94.642Z" transform="translate(-306.379 -92.612)" fill="#fef3b3"/>
            <path id="Trazado_699498" data-name="Trazado 699498" d="M312.843,95.078l.075-.1.358.11.007.126a.6.6,0,0,0,.014.1.069.069,0,0,0,.051.04.088.088,0,0,0,.067-.005.085.085,0,0,0,.044-.049.129.129,0,0,0,.005-.039l0-.06-.049-.64-.005-.067a.315.315,0,0,0-.011-.065.124.124,0,0,0-.028-.049.118.118,0,0,0-.058-.033.112.112,0,0,0-.067-.005.106.106,0,0,0-.051.025.208.208,0,0,0-.04.039l-.047.06-.405.5a.3.3,0,0,0-.056.086.086.086,0,0,0,.007.065.091.091,0,0,0,.054.044.1.1,0,0,0,.039,0,.078.078,0,0,0,.031-.012.194.194,0,0,0,.033-.033Zm.428-.135-.263-.081.246-.323Z" transform="translate(-307.823 -92.702)" fill="#fef3b3"/>
            <path id="Trazado_699499" data-name="Trazado 699499" d="M313.078,94.728a.279.279,0,0,0,0,.156.31.31,0,0,0,.089.137.459.459,0,0,0,.177.093.425.425,0,0,0,.23.018.287.287,0,0,0,.126-.063.237.237,0,0,0,.074-.1.079.079,0,0,0-.005-.063.085.085,0,0,0-.051-.04.068.068,0,0,0-.053,0,.12.12,0,0,0-.049.042.642.642,0,0,1-.058.06.171.171,0,0,1-.07.03.2.2,0,0,1-.1-.011.214.214,0,0,1-.118-.077.12.12,0,0,1-.021-.107.1.1,0,0,1,.049-.063.172.172,0,0,1,.081-.019,1.057,1.057,0,0,1,.123,0,.806.806,0,0,0,.175,0,.252.252,0,0,0,.126-.049.222.222,0,0,0,.077-.116.237.237,0,0,0,0-.14.258.258,0,0,0-.088-.123.5.5,0,0,0-.168-.084.46.46,0,0,0-.145-.025.321.321,0,0,0-.114.025.246.246,0,0,0-.079.051.181.181,0,0,0-.04.067.094.094,0,0,0,.005.065.08.08,0,0,0,.047.042.067.067,0,0,0,.053,0,.237.237,0,0,0,.049-.039.229.229,0,0,1,.082-.06.167.167,0,0,1,.116.005.187.187,0,0,1,.1.065.09.09,0,0,1,.019.086.068.068,0,0,1-.028.04.113.113,0,0,1-.049.021.323.323,0,0,1-.058.005l-.093,0a1.363,1.363,0,0,0-.146,0,.362.362,0,0,0-.119.019.2.2,0,0,0-.088.054A.255.255,0,0,0,313.078,94.728Z" transform="translate(-308.997 -92.823)" fill="#fef3b3"/>
            <path id="Trazado_699500" data-name="Trazado 699500" d="M313.545,94.584a.278.278,0,0,0,0,.156.31.31,0,0,0,.089.137.46.46,0,0,0,.177.093.425.425,0,0,0,.23.018.29.29,0,0,0,.126-.065.227.227,0,0,0,.074-.1.075.075,0,0,0-.005-.061.079.079,0,0,0-.051-.04.061.061,0,0,0-.053,0,.119.119,0,0,0-.049.042.643.643,0,0,1-.058.06.17.17,0,0,1-.07.03.254.254,0,0,1-.1-.011.223.223,0,0,1-.117-.077.121.121,0,0,1-.021-.107.1.1,0,0,1,.049-.063.2.2,0,0,1,.081-.021c.032,0,.072,0,.123.005a.937.937,0,0,0,.175,0,.27.27,0,0,0,.126-.049.223.223,0,0,0,.077-.116.245.245,0,0,0,0-.142.262.262,0,0,0-.088-.121.481.481,0,0,0-.167-.086.53.53,0,0,0-.147-.023.322.322,0,0,0-.114.023.222.222,0,0,0-.079.053.166.166,0,0,0-.04.067.088.088,0,0,0,.005.063.077.077,0,0,0,.047.044.075.075,0,0,0,.053,0,.238.238,0,0,0,.049-.039.229.229,0,0,1,.082-.06.167.167,0,0,1,.116.005.187.187,0,0,1,.1.065.086.086,0,0,1,.019.084.072.072,0,0,1-.028.042.138.138,0,0,1-.049.021.324.324,0,0,1-.058.005l-.093,0a1.4,1.4,0,0,0-.146,0,.483.483,0,0,0-.119.019.221.221,0,0,0-.088.056A.254.254,0,0,0,313.545,94.584Z" transform="translate(-310.283 -92.931)" fill="#fef3b3"/>
            <path id="Trazado_699501" data-name="Trazado 699501" d="M314.247,94.462l.163.051-.075.249a.113.113,0,0,0,0,.089.08.08,0,0,0,.054.046.084.084,0,0,0,.074-.007.12.12,0,0,0,.049-.072l.209-.677a.12.12,0,0,0,0-.093.135.135,0,0,0-.079-.051l-.228-.072a.655.655,0,0,0-.161-.032.228.228,0,0,0-.109.021.225.225,0,0,0-.086.067.325.325,0,0,0-.054.107.265.265,0,0,0,.019.23A.389.389,0,0,0,314.247,94.462Zm.168-.389.119.037-.082.27-.119-.039a.345.345,0,0,1-.1-.046.124.124,0,0,1-.051-.063.127.127,0,0,1,0-.084.143.143,0,0,1,.063-.084A.231.231,0,0,1,314.416,94.073Z" transform="translate(-311.453 -93.041)" fill="#fef3b3"/>
            <path id="Trazado_699502" data-name="Trazado 699502" d="M315.08,93.764a.487.487,0,0,0-.253-.018.377.377,0,0,0-.2.112.536.536,0,0,0-.125.224.593.593,0,0,0-.03.193.416.416,0,0,0,.037.17.363.363,0,0,0,.107.135.508.508,0,0,0,.174.089.525.525,0,0,0,.2.025.38.38,0,0,0,.165-.053.388.388,0,0,0,.126-.119.629.629,0,0,0,.086-.175.6.6,0,0,0,.028-.195.412.412,0,0,0-.04-.17.4.4,0,0,0-.105-.133A.5.5,0,0,0,315.08,93.764Zm-.393.374a.421.421,0,0,1,.082-.158.243.243,0,0,1,.121-.079.274.274,0,0,1,.146,0,.271.271,0,0,1,.091.051.211.211,0,0,1,.06.082.319.319,0,0,1,.023.114.51.51,0,0,1-.084.27.274.274,0,0,1-.084.084.229.229,0,0,1-.1.035.265.265,0,0,1-.1-.011.253.253,0,0,1-.116-.074.265.265,0,0,1-.058-.133A.423.423,0,0,1,314.688,94.137Z" transform="translate(-312.979 -93.159)" fill="#fef3b3"/>
            <path id="Trazado_699503" data-name="Trazado 699503" d="M315.6,94.153l.061.019-.086.282a.121.121,0,0,0,0,.089.1.1,0,0,0,.132.039.129.129,0,0,0,.047-.074l.209-.677a.116.116,0,0,0,0-.091.122.122,0,0,0-.075-.051L315.6,93.6a.9.9,0,0,0-.1-.026.276.276,0,0,0-.084,0,.244.244,0,0,0-.16.088.25.25,0,0,0-.044.086.226.226,0,0,0,.007.174.322.322,0,0,0,.142.135.329.329,0,0,0-.114.047.83.83,0,0,0-.109.081.942.942,0,0,0-.084.084.206.206,0,0,0-.037.056.065.065,0,0,0,0,.037.078.078,0,0,0,.021.037.109.109,0,0,0,.042.023.083.083,0,0,0,.054,0,.144.144,0,0,0,.046-.025l.06-.051.109-.1a.531.531,0,0,1,.1-.079.182.182,0,0,1,.075-.028A.214.214,0,0,1,315.6,94.153Zm.012-.4.163.051-.074.242-.16-.049a.617.617,0,0,1-.105-.044.145.145,0,0,1-.054-.06.106.106,0,0,1,0-.081.119.119,0,0,1,.1-.084A.393.393,0,0,1,315.612,93.751Z" transform="translate(-314.484 -93.286)" fill="#fef3b3"/>
            <path id="Trazado_699504" data-name="Trazado 699504" d="M315.5,93.563l.195.06-.2.638a.13.13,0,0,0,0,.089.094.094,0,0,0,.128.039.119.119,0,0,0,.049-.074l.2-.638.195.06a.1.1,0,0,0,.074,0,.071.071,0,0,0,.039-.047.064.064,0,0,0-.007-.06.1.1,0,0,0-.061-.042l-.565-.174a.1.1,0,0,0-.075,0,.08.08,0,0,0-.033.107A.126.126,0,0,0,315.5,93.563Z" transform="translate(-315.425 -93.407)" fill="#fef3b3"/>
          </g>
        </g>
        <path id="Trazado_699505" data-name="Trazado 699505" d="M314.194,96.9c.195-.279.5-.78.847-1.317.509-.836,1.478-2.173,2.387-2.122.666.039.738.074,1.285.068a4.953,4.953,0,0,0,1.4-.154l1.017-.253c.067,0,.456.021.58.282s-.107.582-.23.754a3.236,3.236,0,0,1-2.6.993c-.509.032-.894-.016-1.11.23-.27.23-.424,1.443-1.147,2.2-.845.882-.947.514-1.28.568Z" transform="translate(-314.194 -83.424)" fill="#f8c2a8"/>
      </g>
    </g>
    <g id="Grupo_950392" data-name="Grupo 950392" transform="translate(73.551 56.953)">
      <g id="Grupo_950391" data-name="Grupo 950391" transform="translate(0)" clip-path="url(#clip-path)">
        <path id="Trazado_699506" data-name="Trazado 699506" d="M355.815,101.016c.088-.075.193-.14.316-.23a7.526,7.526,0,0,1,5.471-1.1,5.019,5.019,0,0,0,3.951-1.038,3.541,3.541,0,0,0,.387-.438,2.553,2.553,0,0,0,.316-.487,3.6,3.6,0,0,0,.205-1.007c.053-.358.079-.537.081-.554.137-1.1.277-3.163.277-3.163.06-.936.007-2.083.118-3.416.046-.738.258-1.078.6-1.2.743-.256,2.1.535,3.709.631,2.352.142,4.351-1.256,4.21,1.075a1.47,1.47,0,0,1-.023.193,22.786,22.786,0,0,0-.354,7.372,2.131,2.131,0,0,0,.551,1.313,3,3,0,0,0,1.226.749c2.385.675,4.337.48,5.717,1.238,1.031.566,1.536,1.847,2.55,4.409a30.383,30.383,0,0,1,1.613,5.6l-8.838,9.59c-1.662-.514-3.912-1.27-6.385-2.3-1.284-.533-2.629-1.143-3.984-1.829a39.24,39.24,0,0,1-8.358-5.527c-.288-.216-4.942-3.784-4.135-7.958A5.472,5.472,0,0,1,355.815,101.016Z" transform="translate(-354.941 -88.332)" fill="#f8c2a8"/>
        <path id="Trazado_699507" data-name="Trazado 699507" d="M370.707,98c-5.285-.556-9.28-2.3-9.589-4.268a11.009,11.009,0,0,1,.021-2.315,11.551,11.551,0,0,1,.677-2.82c.261-.694.356-1.112.6-1.194.742-.256,2.1.535,3.707.631,2.352.14,4.351-1.257,4.21,1.075a1.628,1.628,0,0,1-.021.193c-.053.251-.095.431-.1.459a15.025,15.025,0,0,0,.109,6.925C370.393,96.991,370.516,97.449,370.707,98Z" transform="translate(-349.657 -89.071)" fill="#de8d7b"/>
      </g>
    </g>
    <g id="Grupo_950398" data-name="Grupo 950398" transform="translate(68.232 67.053)">
      <path id="Trazado_699509" data-name="Trazado 699509" d="M358.759,145.266c1.341-2.7-1.278-17.689-1.95-20.054-2.732-9.61-4.649-12.133-6.2-19.009a29.939,29.939,0,0,1-.94-7.384,6.867,6.867,0,0,1,1.666-2.267,8.077,8.077,0,0,1,4.1-1.894,22.807,22.807,0,0,1,2.858-.095c.272.009,1.829.1,3.391.084a23.532,23.532,0,0,0,2.807-.165,9.283,9.283,0,0,0,1.257,3.944,9.734,9.734,0,0,0,6.474,4.4c1.292.217,3.57.6,5.413-.847a6.452,6.452,0,0,0,1.9-6.58l.5.039c1.354.105,2.383.168,3.186.2a11.543,11.543,0,0,1,2.2.27,6.264,6.264,0,0,1,.882.246,6.185,6.185,0,0,1,1.9,1.308,10.041,10.041,0,0,1,2.25,3.79c1.527,3.607,1.948,5.676,3.739,10.627.142.393.175.491.224.624.033.091.582,1.7.584,1.708a8.908,8.908,0,0,1,.978,4.936,6.822,6.822,0,0,1-2.737,4.4q-1.818,5.5-3.637,11c-.929,4.487-.893,10.871-.984,13.1C388.451,151.776,357.548,147.239,358.759,145.266Z" transform="translate(-349.669 -93.797)" fill="#cfd25f"/>
      <path id="Trazado_699510" data-name="Trazado 699510" d="M349.8,109.83c.105.007.451,3.19,2.687,5.015,2.816,2.3,7.5,1.084,8.933,1a63.284,63.284,0,0,1,7.384-1.389,10.733,10.733,0,0,1,3.851.386,11.085,11.085,0,0,0,3.637.559,13.387,13.387,0,0,0,3.917-.717,7.135,7.135,0,0,0,2.28-1.312c2.109-1.894,2.162-4.987,1.734-7.64,1.008,2.232,1.95,5.45-.723,8.407a6,6,0,0,1-1.036.907c-.242.7-.6,1.755-1.022,3.053-.438,1.349-.649,2.06-1.014,3.214-.328,1.033-.807,2.515-1.431,4.328a47.791,47.791,0,0,1,.9-5.017,48.526,48.526,0,0,1,1.6-5.378,16.374,16.374,0,0,1-5.18.572,15.439,15.439,0,0,1-3.807-.5,8.688,8.688,0,0,0-3.635-.321,13.972,13.972,0,0,0-3.071.458c-2.346.57-4.089,1.114-5.468,1.52a8.809,8.809,0,0,1-3.058.673,4.481,4.481,0,0,1-.6-.014,7.418,7.418,0,0,1-1.915-.289,7.561,7.561,0,0,1-4.8-4.722A4.644,4.644,0,0,1,349.8,109.83Z" transform="translate(-338.89 -85.318)" fill="#bab452" style="mix-blend-mode: multiply;isolation: isolate"/>
      <g id="Grupo_950394" data-name="Grupo 950394" transform="translate(3.786)">
        <path id="Trazado_699511" data-name="Trazado 699511" d="M379.007,102.705c-5.063,2.222-6.469,4.281-6.771,5.8-.06.3-.082.649-.252,1.4-.4,1.766-2.182,6.471-4.768,7.29l2.378,6.553c1.957-1.389,3.549-2.786,6.1-7.37A26.719,26.719,0,0,0,379.007,102.705Z" transform="translate(-367.216 -87.6)" fill="#a46846"/>
        <path id="Trazado_699512" data-name="Trazado 699512" d="M375.057,109.2c-.04-5.852-.219-10.622-1.361-14.4-.384-.91-6.785-1.061-6.464.24.051.48.226,2.067.314,2.993,1.056,11.046,1.541,13.7.488,18.364-.4,1.766,4.989,12.849,6.644-.244A52.354,52.354,0,0,0,375.057,109.2Z" transform="translate(-363.266 -94.091)" fill="#b87c5a"/>
        <g id="Grupo_950393" data-name="Grupo 950393" transform="translate(4.205 11.517)">
          <path id="Trazado_699513" data-name="Trazado 699513" d="M366.919,101.885a36.227,36.227,0,0,1-.168,8.731.579.579,0,0,0,.607.623c2.348-.117,4.936-.224,6.637-.359a.906.906,0,0,0,.745-.7,29.611,29.611,0,0,0,.186-8.826c-.047-.407-.251-.714-.631-.687-2.767.195-3.216.253-6.553.444C367.284,101.131,366.874,101.48,366.919,101.885Z" transform="translate(-366.749 -100.659)" fill="#414042"/>
          <path id="Trazado_699514" data-name="Trazado 699514" d="M367.429,102.173a29.709,29.709,0,0,1-.221,7.165.473.473,0,0,0,.495.507c1.917-.1,4.026-.182,5.415-.293a.74.74,0,0,0,.608-.575,24.2,24.2,0,0,0,.151-7.2c-.039-.331-.205-.582-.514-.561-2.259.16-2.541.165-5.264.321C367.725,101.558,367.392,101.843,367.429,102.173Z" transform="translate(-366.457 -100.241)" fill="#b87c5a"/>
        </g>
      </g>
      <g id="Grupo_950397" data-name="Grupo 950397" transform="translate(33.39 1.283)">
        <path id="Trazado_699515" data-name="Trazado 699515" d="M355.649,118.164c-.561.049-1.249-2.767-1.885-5.377-.984-4.03-1.068-6.222-2.585-9.65-.251-.568-.477-1.022-.624-1.312l4.438-.724c.566,2.45.9,4.533,1.1,6.083a36.688,36.688,0,0,1,.41,5.326C356.489,114.349,356.289,118.107,355.649,118.164Z" transform="translate(-345.087 -90.092)" fill="#a46846"/>
        <path id="Trazado_699516" data-name="Trazado 699516" d="M359.065,117.153c-1.117-4-1.394-7.086-3.042-10.615-2.031-4.352-3.309-7.6-5.4-11.142-.775-1.014,4.949-.675,6.294.95.95,1.147,2.355,4.128,3.541,9.485a60.088,60.088,0,0,1,1.1,6.083,49.483,49.483,0,0,1,.41,5.326C361.967,118.737,359.56,118.919,359.065,117.153Z" transform="translate(-350.555 -94.823)" fill="#b87c5a"/>
        <g id="Grupo_950396" data-name="Grupo 950396" transform="translate(5.853 11.977)">
          <g id="Grupo_950395" data-name="Grupo 950395">
            <path id="Trazado_699517" data-name="Trazado 699517" d="M350.379,103.627c.828,3.035,1.238,4.726,2.092,7.432.1.31.3.519.48.47,1.3-.354,2.2-.565,3.148-.833.13-.035.2-.331.16-.666a59.69,59.69,0,0,0-1.01-7.844c-.067-.354-.3-.586-.507-.523-1.527.465-2.217.686-4.068,1.206A.592.592,0,0,0,350.379,103.627Z" transform="translate(-350.349 -101.653)" fill="#414042"/>
            <path id="Trazado_699518" data-name="Trazado 699518" d="M355.133,109.566c-.879.228-1.3.354-2.436.67-.228.063-.479-.172-.573-.528-.57-2.16-.922-3.349-1.485-5.711-.093-.391.044-.765.3-.835,1.259-.349,1.78-.517,2.992-.9.242-.075.484.184.533.582a53.294,53.294,0,0,0,.844,5.971C355.385,109.189,355.31,109.52,355.133,109.566Z" transform="translate(-349.87 -101.203)" fill="#b87c5a"/>
          </g>
        </g>
      </g>
      <path id="Trazado_699519" data-name="Trazado 699519" d="M359.772,123.056l-.11.335q-.834-.907-1.629-1.9c-6.72-8.463-8.31-18.581-8.381-26.35a193.1,193.1,0,0,1,11.467,17.422c.314.577,1.817,3.409,1.391,6.1a7.137,7.137,0,0,1-.431,1.527A6.915,6.915,0,0,1,359.772,123.056Z" transform="translate(-316.197 -93.304)" fill="#cfd25f"/>
      <path id="Trazado_699520" data-name="Trazado 699520" d="M349.648,114.236a6.17,6.17,0,0,0,1.194-.829c2.11-1.894,2.238-5.061,1.81-7.716,1.008,2.232,1.875,5.526-.8,8.482a6,6,0,0,1-1.036.907c-.028.082-.088.261-.119.352C350.341,115.053,350,114.65,349.648,114.236Z" transform="translate(-307.239 -85.35)" fill="#bab452" style="mix-blend-mode: multiply;isolation: isolate"/>
    </g>
    <g id="Grupo_950413" data-name="Grupo 950413" transform="translate(66.688 9.05)">
      <g id="Grupo_950400" data-name="Grupo 950400" transform="translate(0 10.74)">
        <path id="Trazado_699521" data-name="Trazado 699521" d="M355.973,100.477c-2.092-2.238-7.062-16.186-5.506-20.626,2.434-6.3,4.833-9.908,18.348-12.38A20.659,20.659,0,0,1,383.7,70.539a29.12,29.12,0,0,1,7.072,7.076,66.892,66.892,0,0,0-.665,7.57,51.7,51.7,0,0,1-.447,6.49c-.959,5.634-3.914,10.527-9.215,16.088-2.322,2.437-3.079,2.778-5.687,3.021C366.181,111.589,356.662,101.215,355.973,100.477Z" transform="translate(-343.752 -67.139)" fill="#f8c2a8"/>
        <g id="Grupo_950399" data-name="Grupo 950399" transform="translate(0 17.009)">
          <path id="Trazado_699522" data-name="Trazado 699522" d="M371.734,82.91c1.869,2.872,3.52,2.467,6.469,5.557.754.791,1.2,1.4,1.789,1.32.959-.124,1.548-1.968,1.666-3.162.445-4.508-4.761-10.509-8.11-9.717a3.94,3.94,0,0,0-2.8,3.546A4.372,4.372,0,0,0,371.734,82.91Z" transform="translate(-370.75 -76.838)" fill="#f8c2a8"/>
          <path id="Trazado_699523" data-name="Trazado 699523" d="M371.271,78.7c5.738-2.318,9.8,6.672,8.912,8.345a16.586,16.586,0,0,0-2.415-4.842,2.965,2.965,0,0,0-1.063,1.666,3.249,3.249,0,0,0,.651,2.341,3.627,3.627,0,0,1-1.426-2.567,3,3,0,0,1,1.049-2.294q-.339-.345-.712-.677A8.9,8.9,0,0,0,371.271,78.7Z" transform="translate(-370.283 -75.72)" fill="#de8d7b"/>
        </g>
      </g>
      <g id="Grupo_950409" data-name="Grupo 950409" transform="translate(13.978 21.261)">
        <g id="Grupo_950404" data-name="Grupo 950404" transform="translate(20.915 6.83)">
          <g id="Grupo_950403" data-name="Grupo 950403" transform="translate(0 0.582)">
            <g id="Grupo_950402" data-name="Grupo 950402" clip-path="url(#clip-path-2)">
              <path id="Trazado_699524" data-name="Trazado 699524" d="M360.863,80.119a3.919,3.919,0,0,1-1.107,1.743,3.4,3.4,0,0,1-1.645.849c-1.4.214-2.916.347-4.374.523a1.563,1.563,0,0,1-.745-.195,2.074,2.074,0,0,1-.915-1.3,4.815,4.815,0,0,1,.2-.858,5.338,5.338,0,0,1,3.919-3.46A4.529,4.529,0,0,1,360.863,80.119Z" transform="translate(-352.077 -77.366)" fill="#fff"/>
              <g id="Grupo_950401" data-name="Grupo 950401" transform="translate(3.165 0.11)">
                <path id="Trazado_699525" data-name="Trazado 699525" d="M351.985,80.258a3.042,3.042,0,0,0,2.953,2.948,2.746,2.746,0,0,0,2.829-2.829,3.042,3.042,0,0,0-2.953-2.948A2.746,2.746,0,0,0,351.985,80.258Z" transform="translate(-351.985 -77.429)" fill="#3c2415"/>
                <path id="Trazado_699526" data-name="Trazado 699526" d="M352.746,79.712a1.635,1.635,0,0,0,1.589,1.585,1.478,1.478,0,0,0,1.522-1.522,1.638,1.638,0,0,0-1.591-1.585A1.476,1.476,0,0,0,352.746,79.712Z" transform="translate(-351.409 -76.855)"/>
                <path id="Trazado_699527" data-name="Trazado 699527" d="M354.171,78.74a.875.875,0,0,0,.851.849.794.794,0,0,0,.815-.815.876.876,0,0,0-.852-.849A.791.791,0,0,0,354.171,78.74Z" transform="translate(-353.888 -77.055)" fill="#fff"/>
              </g>
            </g>
          </g>
          <path id="Trazado_699529" data-name="Trazado 699529" d="M360.68,79.452a2.438,2.438,0,0,1-1.156-.328,2.09,2.09,0,0,0,.77-.1,2.37,2.37,0,0,0,.915-.559,3.051,3.051,0,0,1-1.068.3,2.9,2.9,0,0,1-1.338-.2,1.682,1.682,0,0,0,.935-.235,2.014,2.014,0,0,0,.689-.689,2.864,2.864,0,0,1-1.112.524,2.756,2.756,0,0,1-.914.053,6.548,6.548,0,0,0-.624-.47,4.819,4.819,0,0,0-2.546-.717,5.241,5.241,0,0,0-2.927,1.119,6.959,6.959,0,0,0-.926,1.554,6.21,6.21,0,0,0-.587,2.283,6.515,6.515,0,0,1,.812-1.8,7.327,7.327,0,0,1,1.075-1.392,5.026,5.026,0,0,1,4.754-.17,7.181,7.181,0,0,1,1.925,1.555c.086.107.151.2.195.261a1.25,1.25,0,0,0,.658.238,1.321,1.321,0,0,0,.849-.275,1.993,1.993,0,0,0,.773-1.217A2.489,2.489,0,0,1,360.68,79.452Z" transform="translate(-350.791 -77.034)" fill="#573218"/>
        </g>
        <g id="Grupo_950408" data-name="Grupo 950408" transform="translate(1.236 8.649)">
          <g id="Grupo_950407" data-name="Grupo 950407" transform="translate(2.499 0.69)">
            <g id="Grupo_950406" data-name="Grupo 950406" clip-path="url(#clip-path-3)">
              <path id="Trazado_699530" data-name="Trazado 699530" d="M361.256,81.785a3.608,3.608,0,0,0,3.167,2.255l4.956-.209a2.039,2.039,0,0,0,.822-.314,2.254,2.254,0,0,0,.924-1.438,4.107,4.107,0,0,0-.286-.824,5.281,5.281,0,0,0-4.663-2.79A5.476,5.476,0,0,0,361.256,81.785Z" transform="translate(-361.256 -78.465)" fill="#fff"/>
              <g id="Grupo_950405" data-name="Grupo 950405" transform="translate(4.259 0.067)">
                <path id="Trazado_699531" data-name="Trazado 699531" d="M361.165,81.533a2.888,2.888,0,1,0,2.744-3.027A2.887,2.887,0,0,0,361.165,81.533Z" transform="translate(-361.161 -78.503)" fill="#3c2415"/>
                <path id="Trazado_699532" data-name="Trazado 699532" d="M361.924,80.895a1.555,1.555,0,1,0,1.478-1.629A1.555,1.555,0,0,0,361.924,80.895Z" transform="translate(-360.589 -77.93)"/>
                <path id="Trazado_699533" data-name="Trazado 699533" d="M363.363,79.942a.832.832,0,1,0,.791-.872A.832.832,0,0,0,363.363,79.942Z" transform="translate(-363.111 -78.076)" fill="#fff"/>
              </g>
            </g>
          </g>
          <path id="Trazado_699535" data-name="Trazado 699535" d="M362.529,81.161a2.835,2.835,0,0,0,1.212-.465,2.524,2.524,0,0,1-.847-.005,2.662,2.662,0,0,1-1.061-.445,3.574,3.574,0,0,0,1.2.172,3.443,3.443,0,0,0,1.426-.361,2,2,0,0,1-1.043-.119,2.155,2.155,0,0,1-.829-.6,3.319,3.319,0,0,0,1.268.384,3.278,3.278,0,0,0,1-.06,6.775,6.775,0,0,1,.619-.542,5.562,5.562,0,0,1,2.672-1.024,6.41,6.41,0,0,1,3.472.745,6.985,6.985,0,0,1,1.163,1.431,6.039,6.039,0,0,1,.857,2.153,6.456,6.456,0,0,0-1.024-1.643,7.439,7.439,0,0,0-1.291-1.254,6.372,6.372,0,0,0-5.368.423,6.812,6.812,0,0,0-1.9,1.778c-.1.154-.191.3-.27.438a1.6,1.6,0,0,1-.261.1,1.658,1.658,0,0,1-.331.065,1.832,1.832,0,0,1-.952-.17,2,2,0,0,1-.987-1.114A2.943,2.943,0,0,0,362.529,81.161Z" transform="translate(-361.247 -78.071)" fill="#573218"/>
        </g>
        <path id="Trazado_699536" data-name="Trazado 699536" d="M374.509,76.874c.8,1,.97,1.834.616,2.534-2.288-1.264-10.015-2.459-11.285-1.689-.836.342-3.167,1.78-3.167,1.78.061-1,3.355-4.363,6.674-4.961C367.935,74.433,374.509,76.874,374.509,76.874Z" transform="translate(-360.673 -72.087)" fill="#573218"/>
        <path id="Trazado_699537" data-name="Trazado 699537" d="M351.255,77.36a2.5,2.5,0,0,0,.217,2.587c1.6-1.82,8.4-4.773,9.652-4.21a8.538,8.538,0,0,1,2.2,1.4,7.362,7.362,0,0,0-5.846-4C356.938,73.125,351.255,77.36,351.255,77.36Z" transform="translate(-331.762 -73.139)" fill="#573218"/>
      </g>
      <path id="Trazado_699538" data-name="Trazado 699538" d="M361.219,87.079c-.091-.317-.151-.472-.209-.652-.621-1.994-1.485-3.783-2.11-5.543.524,2.276,1.052,3.925,1.766,6.148a1.03,1.03,0,0,1-.507,1.136c-.977.524-2.157-.3-3,.175-.088.051-.321.182-.33.377a.391.391,0,0,0,.237.344c.244.107.44-.14.9-.309a3.56,3.56,0,0,1,1.606-.023,2.028,2.028,0,0,0,.861-.014,1.418,1.418,0,0,0,.61-.337,1.053,1.053,0,0,0,.291-.451C361.381,87.774,361.375,87.616,361.219,87.079Z" transform="translate(-326.016 -46.042)" fill="#de8d7b"/>
      <g id="Grupo_950411" data-name="Grupo 950411" transform="translate(24.116 44.282)">
        <g id="Grupo_950410" data-name="Grupo 950410" clip-path="url(#clip-path-4)">
          <path id="Trazado_699539" data-name="Trazado 699539" d="M369.789,86.118c-.081.246-.2.591-.354,1a14.961,14.961,0,0,1-1.082,2.359,5.916,5.916,0,0,1-1.168,1.6,5.292,5.292,0,0,1-3.358,1.073,8.618,8.618,0,0,1-3.637-.631,9.916,9.916,0,0,1-4.835-4.438Q362.573,86.6,369.789,86.118Z" transform="translate(-355.974 -86.379)" fill="#37121a"/>
          <path id="Trazado_699540" data-name="Trazado 699540" d="M356.261,87.1a63.22,63.22,0,0,0,7.456-.068,25.38,25.38,0,0,0,4.791-.582c-.324.761.053,1.668-4.459,2h0l-.058.005-.584.04-.063.005v0C358.425,88.841,356.785,87.8,356.261,87.1Z" transform="translate(-356.282 -86.126)" fill="#fff"/>
          <path id="Trazado_699541" data-name="Trazado 699541" d="M361.272,88.438a4.051,4.051,0,0,1,1.764.074,3.246,3.246,0,0,1,1.51,1.124,9.239,9.239,0,0,1-1.513.314A9.715,9.715,0,0,1,361.48,90a28.321,28.321,0,0,1-4.005-.48C357.824,88.62,360.186,88.531,361.272,88.438Z" transform="translate(-354.448 -84.676)" fill="#860718"/>
        </g>
      </g>
      <g id="Grupo_950412" data-name="Grupo 950412" transform="translate(3.967)">
        <path id="Trazado_699543" data-name="Trazado 699543" d="M393.438,85.487a23.057,23.057,0,0,0-.645-9.943c-.246-1.073-.012-3.83-1.406-6.09a17.609,17.609,0,0,0-7.775-6.66c-7.235-3.3-24.142-2.117-29.787,4.487a19.392,19.392,0,0,0-4.188,14.8c.656,6.387,4.891,12.07,6.194,13.455a29.212,29.212,0,0,1,1.194-17.618c5.7,2.574,14.057,4.049,17.2,4.684,7.439,1.5,13.287-.6,16.552,3.5,1.068,1.341,1.6,4.005,1.775,4.877C392.731,88.843,393.259,86.651,393.438,85.487Z" transform="translate(-349.511 -61.015)" fill="#573218"/>
        <path id="Trazado_699544" data-name="Trazado 699544" d="M351.368,83.071c-.766-4.5-.295-6.783.27-8.345a12.977,12.977,0,0,1,1.9-3.462,9.914,9.914,0,0,0-2.909,3.355c-1.54,2.948-1.031,5.875-.54,8.494A27.93,27.93,0,0,0,355.4,94.8,39.324,39.324,0,0,1,351.368,83.071Zm38.983-14.534c2.974,4.68,3.16,12.947,3.092,14.762-.361-4.684-1.18-9.569-4.256-13.648a23.891,23.891,0,0,0-9.524-7.5C381.544,62.829,387.365,63.836,390.351,68.537ZM371.4,61.453a5.949,5.949,0,0,1,2.774,1.089,16.2,16.2,0,0,0-3.642.205c-5.394,1.694-13.51,6.557-14.707,8.707C357.776,65.142,367.557,61.034,371.4,61.453Zm-5.759,8.107a28.031,28.031,0,0,0,4.105,4.679,29.836,29.836,0,0,0,14.662,7.125,19.136,19.136,0,0,1-12.417-3.542A18.832,18.832,0,0,1,365.639,69.56Z" transform="translate(-349.385 -60.707)" fill="#573218" style="mix-blend-mode: screen;isolation: isolate"/>
      </g>
    </g>
    <g id="Grupo_950418" data-name="Grupo 950418" transform="translate(0 122.694)">
      <g id="Grupo_950415" data-name="Grupo 950415" transform="translate(0)">
        <path id="Trazado_699545" data-name="Trazado 699545" d="M405.25,150.473c5.331-6.993,17.12-22.267,25.489-23.66,1.648-.274,3.277-.658,4.926-.935,3.116-.524,8.016,2.641,7.46,5.664q-.75,4.09-1.6,7.918c-3.67,3.448-8.812,9.766-12.482,13.213,0,0-16.647,12.456-28.557,23.29-3.09,2.813-5.743,4.992-8.645,7.374-.309.263-.814.679-1.4,1.156l-.005,0c-6.853,4.8-10.423,2.58-14.72-3.264-5.231-7.113-9.952-16.671-13.755-23.965-3.158-6.059-4.665-8.722-6.157-10.771l.012,0c-.295-.4-.591-.787-.9-1.168-1.4-.873,1.364-7.085,3.086-4.032a11.231,11.231,0,0,1,2.124,3.048c.105.167.272.426.479.744,1.352,2.087,6.709,9.669,15.8,20.575a68.325,68.325,0,0,1,4.984,7.206c1.315,1.964,2.406,3.646,3.218,4.914.226-.293.537-.7.9-1.177,0,0,1.07-1.4,2.115-2.818,1.74-2.355,2.518-3.6,5.3-7.544C396.13,161.7,403.181,153.189,405.25,150.473Z" transform="translate(-337.112 -125.821)" fill="#f8c2a8"/>
        <g id="Grupo_950414" data-name="Grupo 950414" transform="translate(0 9.534)">
          <path id="Trazado_699546" data-name="Trazado 699546" d="M423.527,133c.274-.23-.663-1.035-1.252-1.654a.328.328,0,0,0-.133-.077.762.762,0,0,0-.5.1c-2.723,1.492-5.783,2.485-8.6,3.751a22.953,22.953,0,0,0-8.521,6.222,3.422,3.422,0,0,0-.866,2.008c-.028.742,1.226,1.7,1.555,1.838a1.012,1.012,0,0,0,.53.063Z" transform="translate(-403.653 -131.258)" fill="#dadada"/>
          <path id="Trazado_699547" data-name="Trazado 699547" d="M420.083,144.006c.91.275,1.773-1.143,4.163-3.083a.613.613,0,0,0,.195-.212c.414-.854-2.022-2.43-4.075-4.963a18.34,18.34,0,0,1-2.222-3.5c-5.848,2.225-8.561,3.155-10.6,4.254a19.057,19.057,0,0,0-2.432,1.545c-2.946,2.2-5.518,5.419-4.97,6.159.219.3,1.043.333,3.8-.952.93-.242,1.92-.465,2.964-.654a38.564,38.564,0,0,1,6.864-.628c.4-2.466.943-3.1,1.4-3.163,1.114-.16,3.262,2.9,4.156,4.375C419.556,143.585,419.724,143.9,420.083,144.006Z" transform="translate(-398.27 -130.509)" fill="#01a0e4"/>
          <path id="Trazado_699548" data-name="Trazado 699548" d="M415.869,136.084c-.724-.326-1.219-.214-3.5.144-2.145.337-4.295.624-6.439.952-.8.121-1.448.219-1.862.279l-.828-.908c-.854,2.308-.316,3.444-.058,3.63.068.047,10.218-1.043,10.218-1.043a5.015,5.015,0,0,1,2.134,2.01c.859,1.6.231,2.948.814,3.227a2.528,2.528,0,0,0,2.979-2.658,10.547,10.547,0,0,0-1.557-3.563C416.972,136.968,416.518,136.379,415.869,136.084Z" transform="translate(-397.892 -127.767)" fill="#015ba4"/>
          <path id="Trazado_699549" data-name="Trazado 699549" d="M404.693,135.769a.5.5,0,0,1,.035-.708.52.52,0,0,1,.724.011.5.5,0,0,1-.037.708A.518.518,0,0,1,404.693,135.769Z" transform="translate(-387.253 -128.499)" fill="#110f10"/>
          <path id="Trazado_699550" data-name="Trazado 699550" d="M405.9,135.682a.493.493,0,0,1,.037-.707.518.518,0,0,1,.723.011.491.491,0,0,1-.035.707A.52.52,0,0,1,405.9,135.682Z" transform="translate(-390.575 -128.564)" fill="#110f10"/>
          <path id="Trazado_699551" data-name="Trazado 699551" d="M407.221,135.953a.5.5,0,0,1,.035-.708.52.52,0,0,1,.724.012.493.493,0,0,1-.037.707A.518.518,0,0,1,407.221,135.953Z" transform="translate(-394.214 -128.36)" fill="#110f10"/>
          <path id="Trazado_699552" data-name="Trazado 699552" d="M408.542,136.263a.5.5,0,0,1,.035-.708.52.52,0,0,1,.724.011.5.5,0,0,1-.037.708A.518.518,0,0,1,408.542,136.263Z" transform="translate(-397.852 -128.127)" fill="#110f10"/>
          <path id="Trazado_699553" data-name="Trazado 699553" d="M409.831,136.731a.494.494,0,0,1,.035-.708.52.52,0,0,1,.724.011.5.5,0,0,1-.037.708A.518.518,0,0,1,409.831,136.731Z" transform="translate(-401.399 -127.774)" fill="#110f10"/>
          <path id="Trazado_699554" data-name="Trazado 699554" d="M410.789,136.583a.369.369,0,0,1,.156-.358c.105-.039.284.068.328.312a3.157,3.157,0,0,1,.1.617,3.456,3.456,0,0,1-.021.665,4.211,4.211,0,0,1-.7,1.787l-.023.03a.777.777,0,0,1-.407.335l-.032.005c-.058.005-.13-.028-.414-.147a3.4,3.4,0,0,0,.461-.579,3.956,3.956,0,0,0,.545-1.887A5.518,5.518,0,0,0,410.789,136.583Z" transform="translate(-402.187 -127.521)" fill="#dadada"/>
          <path id="Trazado_699555" data-name="Trazado 699555" d="M410.647,139.3a4.89,4.89,0,0,1-.407-1.506,5.329,5.329,0,0,1,.023-1.315l-.416.077q-.189,1.22-.381,2.438a.956.956,0,0,0,.877.426A.852.852,0,0,0,410.647,139.3Z" transform="translate(-400.919 -127.322)" fill="#dadada"/>
          <path id="Trazado_699556" data-name="Trazado 699556" d="M410.692,136.026a.237.237,0,0,0-.216-.209.335.335,0,0,0-.324.223q-.8,1.221-1.6,2.443l.112.794a7.67,7.67,0,0,0,1.21-1.466A7.131,7.131,0,0,0,410.692,136.026Z" transform="translate(-399.363 -127.823)" fill="#dadada"/>
          <path id="Trazado_699557" data-name="Trazado 699557" d="M408.887,136.278l-.659.091q.026,1.5.056,3.006a.573.573,0,0,0,.356.147.865.865,0,0,0,.633-.291Q409.081,137.755,408.887,136.278Z" transform="translate(-397.373 -127.475)" fill="#dadada"/>
          <path id="Trazado_699558" data-name="Trazado 699558" d="M410.245,135.656a.366.366,0,0,1,.34-.147.266.266,0,0,1,.23.223,5.407,5.407,0,0,1-.935,2.583,6.049,6.049,0,0,1-1.71,1.662.889.889,0,0,1-.626.158.624.624,0,0,1-.282-.128,7.122,7.122,0,0,0,1.757-1.634A6.5,6.5,0,0,0,410.245,135.656Z" transform="translate(-397.22 -128.058)" fill="#dadada"/>
          <path id="Trazado_699559" data-name="Trazado 699559" d="M408.059,139.115a.668.668,0,0,1-.391.174.517.517,0,0,1-.34-.095q-.205-1.491-.412-2.979c.27-.037.542-.074.812-.112Q407.893,137.609,408.059,139.115Z" transform="translate(-393.858 -127.608)" fill="#dadada"/>
          <path id="Trazado_699560" data-name="Trazado 699560" d="M409.24,135.483a.268.268,0,0,0-.195-.228.384.384,0,0,0-.321.074,9.908,9.908,0,0,1-.965,2.324,10.685,10.685,0,0,1-1.776,2.294.609.609,0,0,0,.405.082.771.771,0,0,0,.375-.167,8.443,8.443,0,0,0,1.815-2.445A11.372,11.372,0,0,0,409.24,135.483Z" transform="translate(-393.405 -128.255)" fill="#dadada"/>
          <path id="Trazado_699561" data-name="Trazado 699561" d="M406.719,136l-.865.067a8.756,8.756,0,0,1,.067,1.708,9.144,9.144,0,0,1-.184,1.375l.333-.075A4.472,4.472,0,0,0,406.6,138,3.873,3.873,0,0,0,406.719,136Z" transform="translate(-390.527 -127.682)" fill="#dadada"/>
          <path id="Trazado_699562" data-name="Trazado 699562" d="M408.481,135.573a.291.291,0,0,0-.126-.263.379.379,0,0,0-.453.154,11.087,11.087,0,0,1-1.085,1.985,11.757,11.757,0,0,1-2.059,2.281.6.6,0,0,0,.284.16.909.909,0,0,0,.7-.21,10.907,10.907,0,0,0,1.322-1.484A10.39,10.39,0,0,0,408.481,135.573Z" transform="translate(-390.495 -128.226)" fill="#dadada"/>
          <path id="Trazado_699563" data-name="Trazado 699563" d="M414.854,136.249a2.387,2.387,0,0,1,1.235,2.1,3.026,3.026,0,0,1-.849,1.9c-.437.261-3.141,1.854-3.828,1.147a.577.577,0,0,1-.142-.293C411.006,139.765,414.308,136.744,414.854,136.249Z" transform="translate(-409.496 -127.497)" fill="#fefefe"/>
          <path id="Trazado_699564" data-name="Trazado 699564" d="M405.595,136.5a.245.245,0,0,0-.011.1.256.256,0,0,0,.316.2,4.708,4.708,0,0,1,2.9.377,3.665,3.665,0,0,1,1.361,1.175,3.88,3.88,0,0,1-2.129.151,3.072,3.072,0,0,1-1.422-.756.309.309,0,0,0-.4.007.244.244,0,0,0-.028.367,3.594,3.594,0,0,0,1.664.884,4.616,4.616,0,0,0,2.839-.316.309.309,0,0,0,.16-.16.233.233,0,0,0-.012-.205,4.127,4.127,0,0,0-1.715-1.6,5.3,5.3,0,0,0-3.279-.426A.31.31,0,0,0,405.595,136.5Z" transform="translate(-394.324 -127.524)" fill="#d1d3d4"/>
          <path id="Trazado_699565" data-name="Trazado 699565" d="M408.191,136.356c.454.514.16,1.34-.594,2.383.105,1.059-.251,3.071-1.606,3.13,0,0-.966.032-.886-.749s1.985-2.383,1.985-2.383a7.338,7.338,0,0,1-.323-2.148c.037-.547.242-.777.565-.791A1.888,1.888,0,0,1,408.191,136.356Zm-2.445,4.414c-.4.565.095.754.6.431a2.836,2.836,0,0,0,.835-1.859Zm1.624-4.4c-.221.084-.037,1.021.084,1.789a2.517,2.517,0,0,0,.381-1.224A.46.46,0,0,0,407.371,136.368Z" transform="translate(-391.021 -127.837)" fill="#d1d3d4"/>
        </g>
      </g>
      <g id="Grupo_950417" data-name="Grupo 950417" transform="translate(87.731 0.44)">
        <path id="Trazado_699566" data-name="Trazado 699566" d="M355.306,168.7c-4.51-7.546-14.309-24.166-12.493-32.454.358-1.633.608-3.288.963-4.921.672-3.088,5.431-6.46,8.032-4.821q3.517,2.215,6.757,4.424c1.838,4.687,5.792,11.81,7.628,16.5,0,0,5.378,20.084,11.011,35.167,1.463,3.914,2.5,7.186,3.633,10.765.128.386.326,1.008.552,1.731l0,.005a19.684,19.684,0,0,1,.431,5.675c-.959,8.777-2.539,19.249-4.082,27.328-1.28,6.711-1.752,9.736-1.852,12.266l-.012,0c-.019.5-.026.984-.018,1.475.556,1.555-5.466,4.71-4.922,1.249a11.177,11.177,0,0,1,.226-3.709c.019-.2.051-.5.086-.88.233-2.476.737-11.746.375-25.937a67.34,67.34,0,0,1,.561-8.742c.268-2.466.579-4.479.8-5.8-.188-.317-.445-.756-.756-1.275,0,0-.9-1.515-1.829-3.013-1.541-2.49-2.4-3.674-5.033-7.725C362.34,181.337,357.06,171.629,355.306,168.7Z" transform="translate(-342.591 -126.072)" fill="#f8c2a8"/>
        <g id="Grupo_950416" data-name="Grupo 950416" transform="translate(26.349 109.289)">
          <path id="Trazado_699567" data-name="Trazado 699567" d="M337.359,195.033c-.356.011-.121,1.224-.044,2.075a.3.3,0,0,0,.058.142.755.755,0,0,0,.454.23c3.062.519,6.078,1.638,9.073,2.4a22.991,22.991,0,0,0,10.543.407,3.427,3.427,0,0,0,1.926-1.038c.482-.565.093-2.092-.079-2.4a1.013,1.013,0,0,0-.377-.381Z" transform="translate(-337.167 -183.392)" fill="#dadada"/>
          <path id="Trazado_699568" data-name="Trazado 699568" d="M343.388,189.265c-.542-.78-2.1-.2-5.178-.165a.61.61,0,0,0-.284.046c-.852.414.079,3.16.117,6.42a18.265,18.265,0,0,1-.426,4.121c5.966,1.883,8.672,2.837,10.956,3.244a19.166,19.166,0,0,0,2.865.3c3.672.105,7.69-.828,7.719-1.748.012-.37-.612-.908-3.57-1.61-.88-.388-1.794-.826-2.73-1.326a38.6,38.6,0,0,1-5.773-3.767c-1.843,1.685-2.662,1.847-3.058,1.617-.971-.566-.756-4.3-.544-6.011A1.515,1.515,0,0,0,343.388,189.265Z" transform="translate(-337.425 -188.045)" fill="#01a0e4"/>
          <path id="Trazado_699569" data-name="Trazado 699569" d="M339.823,196.057c.363.707.822.926,2.832,2.059,1.89,1.066,3.754,2.174,5.64,3.248.7.4,1.273.728,1.634.936q.042.613.086,1.227c2.1-1.282,2.385-2.506,2.3-2.811-.023-.081-8.661-5.522-8.661-5.522a5,5,0,0,1-.426-2.9c.319-1.789,1.647-2.455,1.362-3.036a2.528,2.528,0,0,0-3.984.237,10.527,10.527,0,0,0-.991,3.762A5.234,5.234,0,0,0,339.823,196.057Z" transform="translate(-334.064 -188.395)" fill="#015ba4"/>
          <path id="Trazado_699570" data-name="Trazado 699570" d="M347.836,193.62a.494.494,0,0,1-.466.533.52.52,0,0,1-.561-.458.493.493,0,0,1,.466-.533A.52.52,0,0,1,347.836,193.62Z" transform="translate(-342.306 -184.803)" fill="#110f10"/>
          <path id="Trazado_699571" data-name="Trazado 699571" d="M346.943,194.436a.493.493,0,0,1-.466.533.52.52,0,0,1-.561-.458.5.5,0,0,1,.468-.533A.517.517,0,0,1,346.943,194.436Z" transform="translate(-339.85 -184.188)" fill="#110f10"/>
          <path id="Trazado_699572" data-name="Trazado 699572" d="M345.739,195.044a.5.5,0,0,1-.468.533.52.52,0,0,1-.559-.458.493.493,0,0,1,.466-.533A.52.52,0,0,1,345.739,195.044Z" transform="translate(-336.532 -183.73)" fill="#110f10"/>
          <path id="Trazado_699573" data-name="Trazado 699573" d="M344.511,195.62a.494.494,0,0,1-.466.533.52.52,0,0,1-.561-.456.493.493,0,0,1,.466-.533A.52.52,0,0,1,344.511,195.62Z" transform="translate(-333.15 -183.295)" fill="#110f10"/>
          <path id="Trazado_699574" data-name="Trazado 699574" d="M343.21,196.053a.5.5,0,0,1-.468.533.519.519,0,0,1-.559-.458.493.493,0,0,1,.466-.533A.52.52,0,0,1,343.21,196.053Z" transform="translate(-329.568 -182.969)" fill="#110f10"/>
          <path id="Trazado_699575" data-name="Trazado 699575" d="M341.084,196.756a.368.368,0,0,1-.344.184c-.107-.035-.181-.231-.065-.449a3.178,3.178,0,0,1,.305-.545,3.526,3.526,0,0,1,.428-.509,4.222,4.222,0,0,1,1.661-.964l.037-.009a.781.781,0,0,1,.528-.011l.028.014c.049.033.084.1.233.374a3.455,3.455,0,0,0-.721.168,3.921,3.921,0,0,0-1.6,1.142A5.47,5.47,0,0,0,341.084,196.756Z" transform="translate(-327.511 -183.861)" fill="#dadada"/>
          <path id="Trazado_699576" data-name="Trazado 699576" d="M342.721,194.044a4.947,4.947,0,0,1-.615,1.434,5.313,5.313,0,0,1-.835,1.017l.374.2,1.811-1.673a.957.957,0,0,0-.424-.879A.875.875,0,0,0,342.721,194.044Z" transform="translate(-328.22 -184.137)" fill="#dadada"/>
          <path id="Trazado_699577" data-name="Trazado 699577" d="M341.723,195.722a.237.237,0,0,0,.04.3.333.333,0,0,0,.391.026l2.771-.924.4-.693a7.6,7.6,0,0,0-1.857.4A7.194,7.194,0,0,0,341.723,195.722Z" transform="translate(-330.823 -183.847)" fill="#dadada"/>
          <path id="Trazado_699578" data-name="Trazado 699578" d="M342.249,195.938l.575.337,1.82-2.392a.58.58,0,0,0-.188-.337.869.869,0,0,0-.677-.165Z" transform="translate(-331.122 -184.646)" fill="#dadada"/>
          <path id="Trazado_699579" data-name="Trazado 699579" d="M342.277,195.753a.365.365,0,0,1-.358-.095.266.266,0,0,1-.042-.317,5.376,5.376,0,0,1,2.334-1.445,6.011,6.011,0,0,1,2.373-.244.888.888,0,0,1,.589.263.627.627,0,0,1,.142.277,7.105,7.105,0,0,0-2.392.191A6.5,6.5,0,0,0,342.277,195.753Z" transform="translate(-333.081 -184.454)" fill="#dadada"/>
          <path id="Trazado_699580" data-name="Trazado 699580" d="M345.115,192.675a.66.66,0,0,1,.414.107.516.516,0,0,1,.207.284l-1.524,2.592-.707-.416Z" transform="translate(-334.416 -185.171)" fill="#dadada"/>
          <path id="Trazado_699581" data-name="Trazado 699581" d="M343.11,194.825a.267.267,0,0,0,.011.3.381.381,0,0,0,.3.14,9.888,9.888,0,0,1,2.2-1.222,10.738,10.738,0,0,1,2.816-.7.612.612,0,0,0-.268-.316.787.787,0,0,0-.4-.1,8.472,8.472,0,0,0-2.941.793A11.531,11.531,0,0,0,343.11,194.825Z" transform="translate(-336.348 -184.98)" fill="#dadada"/>
          <path id="Trazado_699582" data-name="Trazado 699582" d="M344.324,194.258l.721.482a8.7,8.7,0,0,1,1-1.38,9.5,9.5,0,0,1,1-.964l-.307-.146a4.427,4.427,0,0,0-1.086.519A3.888,3.888,0,0,0,344.324,194.258Z" transform="translate(-337.164 -185.489)" fill="#dadada"/>
          <path id="Trazado_699583" data-name="Trazado 699583" d="M343.972,193.849a.293.293,0,0,0-.067.284.382.382,0,0,0,.452.161,10.925,10.925,0,0,1,2.083-.884,11.688,11.688,0,0,1,3.028-.512.566.566,0,0,0-.125-.3.9.9,0,0,0-.679-.27,10.888,10.888,0,0,0-1.957.342A10.449,10.449,0,0,0,343.972,193.849Z" transform="translate(-338.821 -185.431)" fill="#dadada"/>
          <path id="Trazado_699584" data-name="Trazado 699584" d="M337.706,198.484a2.381,2.381,0,0,1,.335-2.411,3.031,3.031,0,0,1,1.843-.963c.5.065,3.612.494,3.714,1.477a.563.563,0,0,1-.072.317C342.906,198.116,338.441,198.435,337.706,198.484Z" transform="translate(-321.781 -183.334)" fill="#fefefe"/>
          <path id="Trazado_699585" data-name="Trazado 699585" d="M346.144,196.942a.234.234,0,0,0,.07-.074.257.257,0,0,0-.121-.356,4.694,4.694,0,0,1-2.045-2.1,3.687,3.687,0,0,1-.339-1.766,3.853,3.853,0,0,1,1.764,1.2,3.078,3.078,0,0,1,.647,1.475.3.3,0,0,0,.321.244.242.242,0,0,0,.249-.268,3.611,3.611,0,0,0-.758-1.727,4.617,4.617,0,0,0-2.422-1.513.308.308,0,0,0-.224.028.225.225,0,0,0-.117.167,4.121,4.121,0,0,0,.351,2.322,5.309,5.309,0,0,0,2.306,2.369A.315.315,0,0,0,346.144,196.942Z" transform="translate(-334.716 -185.637)" fill="#d1d3d4"/>
          <path id="Trazado_699586" data-name="Trazado 699586" d="M343.069,194.333c-.039-.684.7-1.149,1.945-1.5.575-.9,2.1-2.252,3.2-1.459,0,0,.779.575.23,1.138s-3.034.637-3.034.637a7.282,7.282,0,0,1-1.082,1.885c-.367.407-.67.459-.931.27A1.878,1.878,0,0,1,343.069,194.333Zm4.656-1.943c.665-.195.393-.651-.2-.71a2.834,2.834,0,0,0-1.808.94Zm-4.005,2.443c.224.072.661-.777,1.043-1.454a2.523,2.523,0,0,0-1.057.722A.46.46,0,0,0,343.719,194.833Z" transform="translate(-336.552 -186.329)" fill="#d1d3d4"/>
        </g>
      </g>
    </g>
    <g id="Grupo_950422" data-name="Grupo 950422" transform="translate(61.802 117.777)">
      <g id="Grupo_950420" data-name="Grupo 950420" transform="translate(2.456 0.479)">
        <g id="Grupo_950419" data-name="Grupo 950419" clip-path="url(#clip-path-5)">
          <path id="Trazado_699587" data-name="Trazado 699587" d="M382.761,166.579l-6.346-9.564c-3.579,1.98-6.206,4.011-9.785,5.989a26.1,26.1,0,0,1-10.369-1.455,18.353,18.353,0,0,1-7.006-4.907c.551-1.277,1.347-3.242,2.138-5.7,1.178-3.663,1.008-4.223,1.885-7.295,1.589-5.571,4.572-11.847,6.669-14.157a9.473,9.473,0,0,0,1.569-2.271,9.65,9.65,0,0,0,.926-3.22l28.568-.71q4.651,18.486,9.3,36.973c-1.122,1.366-5.252,6.053-11.9,6.739A16.241,16.241,0,0,1,382.761,166.579Z" transform="translate(-349.255 -123.29)" fill="#d0875a"/>
          <path id="Trazado_699588" data-name="Trazado 699588" d="M356.268,142.939a36.3,36.3,0,0,1-5-4.072,31.839,31.839,0,0,1-3.812-4.345c-.431-.635.745-1.694,1.075-1.173a32.524,32.524,0,0,0,3.916,4.451,33.131,33.131,0,0,0,4.661,3.826C357.725,142.026,356.812,143.3,356.268,142.939Z" transform="translate(-302.937 -115.815)" fill="#b06143"/>
          <path id="Trazado_699589" data-name="Trazado 699589" d="M366.917,143.031a36.45,36.45,0,0,0,4.975-4.1,31.945,31.945,0,0,0,3.784-4.37c.428-.638-.756-1.689-1.084-1.166a32.328,32.328,0,0,1-3.886,4.475,33.385,33.385,0,0,1-4.638,3.854C365.454,142.127,366.375,143.391,366.917,143.031Z" transform="translate(-353.836 -115.782)" fill="#b06143"/>
          <path id="Trazado_699590" data-name="Trazado 699590" d="M361.487,143.93l.291,0-.063-20.5-3.435.011.047,14.97C358.336,141.715,359.969,143.935,361.487,143.93Zm-.351-19.221.056,17.906c-1.128-.245-2.276-1.906-2.285-4.212l-.042-13.687Z" transform="translate(-326.547 -123.19)" fill="#b06143"/>
        </g>
      </g>
      <path id="Trazado_699592" data-name="Trazado 699592" d="M368.445,145.539a32.661,32.661,0,0,0,8.745,4.8,28.8,28.8,0,0,0,8.745,1.873c1.228,0,3.22-3.537,2.222-3.491a29.288,29.288,0,0,1-8.961-1.938,29.989,29.989,0,0,1-8.2-4.437C370.085,141.611,367.639,144.9,368.445,145.539Z" transform="translate(-368.285 -108.528)" fill="#b06143"/>
      <path id="Trazado_699593" data-name="Trazado 699593" d="M349.7,154.332a32.754,32.754,0,0,0,9.811-1.811,28.812,28.812,0,0,0,7.958-4.082c.954-.775-.58-4.731-1.326-4.065a29.335,29.335,0,0,1-8.165,4.167,29.988,29.988,0,0,1-9.161,1.752C347.649,150.3,348.67,154.343,349.7,154.332Z" transform="translate(-312.583 -106.98)" fill="#b06143"/>
      <g id="Grupo_950421" data-name="Grupo 950421" transform="translate(14.221 0)">
        <path id="Trazado_699594" data-name="Trazado 699594" d="M353.76,124.842l30.486-.747c.035-.359.068-.719.1-1.078l-30.162.093Z" transform="translate(-352.957 -123.017)" fill="#d0875a"/>
        <path id="Trazado_699595" data-name="Trazado 699595" d="M353.616,127.683q15.638-.058,31.274-.119a7.007,7.007,0,0,0,.116-4.13l-30.52.116a10.22,10.22,0,0,0-.87,4.133Z" transform="translate(-353.616 -122.703)" fill="#a97c50"/>
        <rect id="Rectángulo_338065" data-name="Rectángulo 338065" width="1.352" height="4.448" transform="translate(6.599 5.168) rotate(179.822)" fill="#d0875a"/>
        <rect id="Rectángulo_338066" data-name="Rectángulo 338066" width="1.352" height="4.448" transform="translate(30.361 5.094) rotate(179.822)" fill="#d0875a"/>
        <rect id="Rectángulo_338067" data-name="Rectángulo 338067" width="1.352" height="4.448" transform="translate(12.485 5.15) rotate(179.822)" fill="#d0875a"/>
        <rect id="Rectángulo_338068" data-name="Rectángulo 338068" width="1.352" height="4.449" transform="translate(18.651 5.042) rotate(179.822)" fill="#d0875a"/>
        <path id="Trazado_699596" data-name="Trazado 699596" d="M357.888,123.227l2.553-.007a1.639,1.639,0,0,1,1.5,1.747l0,1.413a1.637,1.637,0,0,1-1.485,1.755l-2.553.009a1.641,1.641,0,0,1-1.5-1.747l0-1.413A1.639,1.639,0,0,1,357.888,123.227Zm.012,4.216,2.555-.007a.983.983,0,0,0,.891-1.054l-.005-1.413a.98.98,0,0,0-.9-1.047l-2.555.007a.983.983,0,0,0-.891,1.054l0,.33,2-.005a.356.356,0,0,1,0,.7l-2,.005,0,.382A.982.982,0,0,0,357.9,127.443Z" transform="translate(-335.184 -122.864)" fill="#f1f2f2"/>
      </g>
    </g>
    <g id="Grupo_950427" data-name="Grupo 950427" transform="translate(36.755 78.407)">
      <path id="Trazado_699597" data-name="Trazado 699597" d="M344.083,126.605l12,38.39a7.9,7.9,0,0,0,9.783,5.571l51.617-15.642a8.052,8.052,0,0,0,5.361-10.046l-11.737-38.6a8.053,8.053,0,0,0-10.048-5.362l-51.617,15.642A8.051,8.051,0,0,0,344.083,126.605Z" transform="translate(-334.951 -100.566)" fill="#7c8e9c"/>
      <path id="Trazado_699598" data-name="Trazado 699598" d="M350.171,130.435,345.21,114.12a4.5,4.5,0,0,1,3-5.619l2.592-.789a1.748,1.748,0,0,1,.814,1.1,1.722,1.722,0,0,1-.14,1.107l-3.1.942a1.754,1.754,0,0,0-1.17,2.188l5.243,17.238a1.752,1.752,0,0,0,2.189,1.168l3.1-.942a1.613,1.613,0,0,1,.723.8,1.642,1.642,0,0,1-.075,1.327l-2.594.789A4.5,4.5,0,0,1,350.171,130.435Z" transform="translate(-272.571 -95.181)" fill="#27aae2"/>
      <path id="Trazado_699599" data-name="Trazado 699599" d="M353,130.509a1.752,1.752,0,0,1-2.189-1.168L345.564,112.1a1.755,1.755,0,0,1,1.17-2.188l3.1-.942,6.262,20.594Z" transform="translate(-270.926 -94.231)" fill="#817f80"/>
      <g id="Grupo_950424" data-name="Grupo 950424" transform="translate(74.563 10.169)">
        <rect id="Rectángulo_338069" data-name="Rectángulo 338069" width="14.9" height="4.992" transform="matrix(-0.291, -0.957, 0.957, -0.291, 4.858, 23.431)" fill="#817f80"/>
        <path id="Trazado_699600" data-name="Trazado 699600" d="M353.524,110l-4.642,1.412a1.753,1.753,0,0,1,1.234-1.492l3.1-.942Z" transform="translate(-348.872 -104.4)" fill="#817f80"/>
        <path id="Trazado_699601" data-name="Trazado 699601" d="M350.466,121.174l-3.1.942a1.752,1.752,0,0,1-1.882-.589l4.656-1.415Z" transform="translate(-339.863 -96.006)" fill="#817f80"/>
        <g id="Grupo_950423" data-name="Grupo 950423">
          <path id="Trazado_699602" data-name="Trazado 699602" d="M340.431,123.431l-4.656,1.415a1.713,1.713,0,0,1-.307-.579l-.459-1.512,4.775-1.452,18.7-5.6.647,2.127Z" transform="translate(-330.15 -99.326)" fill="#cfd3d6"/>
          <path id="Trazado_699603" data-name="Trazado 699603" d="M361.843,108.492l-18.688,5.6-4.777,1.452-.447-1.471a1.753,1.753,0,0,1-.065-.7l4.642-1.412,18.688-5.6Z" transform="translate(-337.856 -106.365)" fill="#cfd3d6"/>
        </g>
      </g>
      <rect id="Rectángulo_338070" data-name="Rectángulo 338070" width="2.508" height="0.556" transform="translate(103.388 28.822) rotate(-106.913)" fill="#27aae2"/>
      <rect id="Rectángulo_338071" data-name="Rectángulo 338071" width="2.508" height="0.556" transform="translate(98.396 12.443) rotate(-106.917)" fill="#27aae2"/>
      <path id="Trazado_699604" data-name="Trazado 699604" d="M338.5,124.888l1.426-.473a2.778,2.778,0,0,0,2.057-3.153L337.9,107.625a3.085,3.085,0,0,0-3.316-1.519l-1.668.547.628,1.929,1.064-.384c.405-.095.721-.025.854.393a47.448,47.448,0,0,0,3.953,13.268.784.784,0,0,1-.5.843l-1.038.337Z" transform="translate(-234.851 -96.45)" fill="#27aae2"/>
      <path id="Trazado_699605" data-name="Trazado 699605" d="M382.439,104.358l-.272-.865c-7.13.465-9.613,1.04-15.337,4.573l.275.922,4.454-1.3-.17-.559c3.186-1.377,2.7-1.157,6.5-1.945l.144.537Z" transform="translate(-334.698 -98.36)" fill="#27aae2"/>
      <path id="Trazado_699606" data-name="Trazado 699606" d="M350.682,134h0a2.574,2.574,0,0,0,3.211,1.713l.477-.146a2.573,2.573,0,0,0,1.713-3.211h0Z" transform="translate(-280.137 -76.608)" fill="#27aae2"/>
      <path id="Trazado_699607" data-name="Trazado 699607" d="M371.563,140.318h0a2.573,2.573,0,0,0,3.211,1.713l.477-.144a2.574,2.574,0,0,0,1.713-3.211h0Z" transform="translate(-337.635 -71.846)" fill="#27aae2"/>
      <path id="Trazado_699608" data-name="Trazado 699608" d="M360.136,160.032a.663.663,0,0,0,.828.442l51.73-15.675a.663.663,0,0,0-.386-1.27L360.578,159.2A.665.665,0,0,0,360.136,160.032ZM359.6,156l51.728-15.675a.663.663,0,0,1,.386,1.27l-51.728,15.675A.663.663,0,1,1,359.6,156Zm-.977-3.207,51.73-15.675a.663.663,0,1,1,.386,1.268l-51.73,15.675a.663.663,0,0,1-.386-1.268Zm-.975-3.209L409.379,133.9a.663.663,0,1,1,.386,1.268l-51.728,15.675a.663.663,0,1,1-.386-1.268Zm19.444-9.408,31.309-9.476a.663.663,0,1,1,.386,1.268l-51.728,15.675a.663.663,0,0,1-.387-1.268l20.421-6.2m-21.4,2.99,51.728-15.675a.664.664,0,0,1,.387,1.27l-51.73,15.675a.663.663,0,1,1-.386-1.27Zm-.975-3.209,51.728-15.675a.663.663,0,1,1,.386,1.27L355.11,141.221a.663.663,0,0,1-.386-1.27Zm-.977-3.209,51.73-15.675a.663.663,0,0,1,.386,1.27l-51.73,15.675a.663.663,0,1,1-.386-1.27Zm-.975-3.207L404.5,117.86a.663.663,0,1,1,.386,1.268L353.159,134.8a.663.663,0,1,1-.386-1.268Zm-.977-3.209,51.73-15.675a.663.663,0,1,1,.386,1.268l-51.73,15.675a.663.663,0,0,1-.386-1.268Zm-.975-3.209,51.728-15.675a.663.663,0,1,1,.386,1.27l-51.728,15.675a.663.663,0,0,1-.386-1.27Zm-.977-3.209,51.73-15.675a.663.663,0,0,1,.386,1.27l-51.73,15.675a.663.663,0,0,1-.386-1.27Zm-.975-3.209L400.6,105.023a.663.663,0,0,1,.386,1.27l-51.728,15.675a.663.663,0,0,1-.386-1.27Z" transform="translate(-333.1 -97.229)" fill="#7c8e9c" style="mix-blend-mode: multiply;isolation: isolate"/>
      <path id="Trazado_699609" data-name="Trazado 699609" d="M359.393,105.8a6.068,6.068,0,0,0-2.5-3.493,6.234,6.234,0,0,0-5.2-.614q.7,2.2,1.4,4.4a1.531,1.531,0,0,0,.761.884,1.554,1.554,0,0,0,1.224.042Z" transform="translate(-285.112 -99.953)" fill="#27aae2"/>
      <path id="Trazado_699610" data-name="Trazado 699610" d="M350.1,126.431a6.061,6.061,0,0,1-.128,4.289,6.24,6.24,0,0,1-3.979,3.407q-.642-2.217-1.285-4.433a1.492,1.492,0,0,1,1.135-1.873Q347.971,127.125,350.1,126.431Z" transform="translate(-263.805 -81.074)" fill="#27aae2"/>
      <g id="Grupo_950425" data-name="Grupo 950425" transform="translate(0 19.142)">
        <path id="Trazado_699611" data-name="Trazado 699611" d="M388.8,122.465l1.529-.917a1.891,1.891,0,0,0,.738-2.032q-1.231-4.017-2.46-8.033a9.151,9.151,0,0,0-1.34,1.911,3.691,3.691,0,0,0-.4,1.275c-.309,1.14.68,3.718.715,3.833C387.98,119.836,388.4,121.13,388.8,122.465Z" transform="translate(-378.413 -111.482)" fill="#27aae2"/>
        <path id="Trazado_699612" data-name="Trazado 699612" d="M387.928,117.247h0a1.816,1.816,0,0,1,1.191-2.273l7.016-2.19.542,1.731Z" transform="translate(-385.787 -110.501)" fill="#27aae2"/>
        <path id="Trazado_699613" data-name="Trazado 699613" d="M386.942,118.407h0a1.813,1.813,0,0,0,2.273,1.191l7.016-2.19-.54-1.731Z" transform="translate(-383.758 -108.321)" fill="#27aae2"/>
        <path id="Trazado_699614" data-name="Trazado 699614" d="M389.054,118.437h0a1.75,1.75,0,0,0,2.192,1.147l5.408-1.689a1.749,1.749,0,0,0,1.149-2.19h0a1.751,1.751,0,0,0-2.192-1.149l-5.408,1.689A1.75,1.75,0,0,0,389.054,118.437Z" transform="translate(-388.974 -109.225)" fill="#030300"/>
      </g>
      <g id="Grupo_950426" data-name="Grupo 950426" transform="translate(12.389 60.581)">
        <path id="Trazado_699615" data-name="Trazado 699615" d="M379.215,135.222l1.752-.109a1.9,1.9,0,0,1,1.764,1.25q1.273,4,2.548,8.005a9.156,9.156,0,0,1-2.19-.808,3.709,3.709,0,0,1-1.052-.822c-.9-.761-1.557-3.444-1.592-3.558C380.013,137.854,379.646,136.547,379.215,135.222Z" transform="translate(-371.646 -135.113)" fill="#27aae2"/>
        <path id="Trazado_699616" data-name="Trazado 699616" d="M379.881,141.015h0a1.811,1.811,0,0,0,2.271,1.189l7.018-2.19-.542-1.731Z" transform="translate(-376.704 -132.724)" fill="#27aae2"/>
        <path id="Trazado_699617" data-name="Trazado 699617" d="M380.869,139.853h0a1.813,1.813,0,0,1,1.191-2.273l7.016-2.19.54,1.731Z" transform="translate(-378.735 -134.904)" fill="#27aae2"/>
        <path id="Trazado_699618" data-name="Trazado 699618" d="M381.99,141.055h0a1.749,1.749,0,0,1,1.149-2.19l5.406-1.689a1.749,1.749,0,0,1,2.192,1.147h0a1.75,1.75,0,0,1-1.149,2.192l-5.408,1.689A1.748,1.748,0,0,1,381.99,141.055Z" transform="translate(-381.91 -133.619)" fill="#030300"/>
      </g>
    </g>
    <g id="Grupo_950429" data-name="Grupo 950429" transform="translate(58.71 70.964)">
      <g id="Grupo_950428" data-name="Grupo 950428" transform="translate(0 0.534)">
        <path id="Trazado_699619" data-name="Trazado 699619" d="M383.621,96.631c.379.112-.089,2.043,1.228,4.079a6.485,6.485,0,0,0,1.75,1.775c3.87,3.083-3.178,21.71-5.985,30.705-.114.365-3.071,2.2-4.78,1.961-.114-.016,1.427.6-.754.936a1.2,1.2,0,0,1-1.231-.452C370.746,132.066,382.009,96.152,383.621,96.631Z" transform="translate(-373.31 -96.626)" fill="#f8c2a8"/>
      </g>
      <path id="Trazado_699620" data-name="Trazado 699620" d="M372.97,114.528c2.986-9.683,6.11-18.5,6.971-18.2.405.142.117,1.969,1.55,4.182a7.1,7.1,0,0,0,1.9,1.931c2.317,1.845.9,8.573-1.443,15.689Z" transform="translate(-369.557 -96.322)" fill="#cfd25f"/>
      <path id="Trazado_699621" data-name="Trazado 699621" d="M374.505,108.8l8.619,3.267c.48.181,1.64-1.577,1.208-1.792L374.7,106.6C374.209,106.451,374,108.6,374.505,108.8Z" transform="translate(-371.591 -88.579)" fill="#bab452"/>
      <path id="Trazado_699622" data-name="Trazado 699622" d="M392.764,128.576c.17.24-.212.754-.256.817a3.329,3.329,0,0,1-2.632,1.17c-.509.054-.893.019-1.115.293a.816.816,0,0,0-.021.845,5.827,5.827,0,0,0,1.775,1.631c.638.34,3.3,1.447,5.41,2.309.484.3.621.459.7.772.079.426-.195.777-.458.772a6,6,0,0,1-1.959-.551c-.614-.219-1.25-.374-1.88-.545-.836-.219-2.378-1.131-2.452-.789-.06.286,1.873,1.364,2.324,1.7l3.241,2.288a.718.718,0,0,1,.047.994.587.587,0,0,1-.885.17c-.851-.526-1.831-1.168-2.194-1.356-1.264-.647-3.653-2.322-3.784-2.145-.116.163,1.452,1.342,2.138,1.854l2.476,2.078a.687.687,0,0,1,.123,1.054.758.758,0,0,1-.91.079c-1.98-1.387-5.208-3.956-5.415-3.67-.147.205.488.852.861,1.361l1.226,1.5c.773.686.823,1.2.5,1.615-.228.265-.731.068-1.064-.267q-1.489-1.484-2.664-2.872l-3.078-2.644a13.539,13.539,0,0,1-1.8-3.179c-18.048-11.57-20.536-12.892-19.605-15.055.242-.559,4.791-1.766,4.966-1.857,2.853-1.464,6.893,4.973,10.476,7.839,2.7,2.157,6.427,4.852,6.5,4.894.538.137,1.345-.437,2.325-.607a13.086,13.086,0,0,1,2.818-.272c.665.012.735.049,1.278.019a6.11,6.11,0,0,0,.889-.089c.233-.046.331-.082.512-.132S392.529,128.248,392.764,128.576Z" transform="translate(-361.04 -80.932)" fill="#f8c2a8"/>
    </g>
    <g id="Grupo_950430" data-name="Grupo 950430" transform="translate(23.618 0)">
      <path id="Trazado_699623" data-name="Trazado 699623" d="M357.654,62.665c5.05-4.163,13.747-6.027,14.129-6.106a37.963,37.963,0,0,1,4.693-.64,33.07,33.07,0,0,1,7.4.356c7.388,1.5,12.854,8.771,15.188,14.693a25.6,25.6,0,0,1,1.475,5.441,56.582,56.582,0,0,0-20.656-1.441,57.776,57.776,0,0,0-29.194,12.314C350.563,86.46,348.364,70.321,357.654,62.665Z" transform="translate(-310.798 -55.854)" fill="#f4a52e"/>
      <path id="Trazado_699624" data-name="Trazado 699624" d="M370.067,77.987a63.346,63.346,0,0,1,18.213-8.649,59.761,59.761,0,0,1,11.651-2.082h0q2.749-.055,5.582-.033s2.888.026,5.752.135c4.082.158,21.445,2.476,45.089,7.188a162.6,162.6,0,0,1-20.8,0c-6.743-.44-9.626-1.068-15.372-.6a70.749,70.749,0,0,0-15.062,3.123,112.486,112.486,0,0,0-18.8,7.569c-8.205,4.237-24.109,9.9-57.5,16.6C348.978,90.8,361.735,83.479,370.067,77.987Z" transform="translate(-328.82 -47.291)" fill="#f4a52e"/>
      <path id="Trazado_699625" data-name="Trazado 699625" d="M399.046,64.818a83.674,83.674,0,0,0-22.215.9A81.649,81.649,0,0,0,366.1,68.393a82.9,82.9,0,0,0-15.947,7.053,27.074,27.074,0,0,0,.072,2.788,26.591,26.591,0,0,0,.347,2.7,77.784,77.784,0,0,1,50.251-10.7,19.212,19.212,0,0,0-.491-2.166A18.8,18.8,0,0,0,399.046,64.818Z" transform="translate(-310.682 -49.368)" fill="#754c29"/>
    </g>
  </g>
</svg>
