<svg xmlns="http://www.w3.org/2000/svg" width="165" height="165" viewBox="0 0 165 165">
  <g id="Grupo_953282" data-name="Grupo 953282" transform="translate(-367 -3281)">
    <circle id="Elipse_5407" data-name="Elipse 5407" cx="82.5" cy="82.5" r="82.5" transform="translate(367 3281)" fill="#ccd3ca"/>
    <g id="turista" transform="translate(383.5 3301.001)">
      <path id="Trazado_700030" data-name="Trazado 700030" d="M5.5,71.926A60.926,60.926,0,1,1,106,118.249a1.759,1.759,0,0,1-2.223.051,60.939,60.939,0,0,0-74.706,0,1.759,1.759,0,0,1-2.222-.05A60.79,60.79,0,0,1,5.5,71.926Z" transform="translate(0 -8.265)" fill="#0ed1b2"/>
      <path id="Trazado_700031" data-name="Trazado 700031" d="M127.352,186.359A60.791,60.791,0,0,1,106,232.726a1.759,1.759,0,0,1-2.223.051,60.626,60.626,0,0,0-30.346-12.391,46.965,46.965,0,0,1-3.525-4.495,14.055,14.055,0,0,1,5.1-5.72c4.156-2.528,6.773-.661,10.693-2.735,4.67-2.471,3.335-6.38,8.082-10.32,4.8-3.981,8.009-1.525,12.931-4.476,8.548-5.126,5.084-16.269,11.066-19.4,2.04-1.067,4.927-1.07,8.117-.2A61.6,61.6,0,0,1,127.352,186.359ZM30.119,198.09c-2.952-4.922-.495-8.134-4.476-12.931-3.94-4.747-7.849-3.412-10.32-8.082-2.074-3.92-.207-6.538-2.735-10.693a12.638,12.638,0,0,0-2.582-3.017,60.992,60.992,0,0,0,16.846,69.36,1.759,1.759,0,0,0,2.222.051,60.776,60.776,0,0,1,18.3-9.751c2.86-5.309,3.829-10.647,2.144-13.87C46.388,203.174,35.245,206.637,30.119,198.09Z" transform="translate(0 -122.741)" fill="#0ab59e"/>
      <path id="Trazado_700032" data-name="Trazado 700032" d="M98.085,362.841a29.206,29.206,0,0,1-3.042-1.541q-2.356-1.674-4.542-3.561V347.407A17.407,17.407,0,0,1,107.907,330h8.009a2.6,2.6,0,0,1,2.6,2.6v19a13.2,13.2,0,0,1-20.433,11.244Z" transform="translate(-63.862 -247.937)" fill="#002c5d"/>
      <path id="Trazado_700033" data-name="Trazado 700033" d="M192.617,347.407v10.331a61.188,61.188,0,0,1-4.912,3.821c-.284.2-57.835,6.878-67.205,1V347.407A17.407,17.407,0,0,1,137.907,330h37.3A17.407,17.407,0,0,1,192.617,347.407Z" transform="translate(-86.402 -247.937)" fill="#003c79"/>
      <path id="Trazado_700034" data-name="Trazado 700034" d="M119.23,87.3v4.974a6.207,6.207,0,0,0,2.486,4.974,6.217,6.217,0,0,1-6.216-6.217V88.545a6.217,6.217,0,0,1,6.216-6.217A6.207,6.207,0,0,0,119.23,87.3Zm57.2-4.974V77.355a27.355,27.355,0,1,0-54.709,0V87.3a27.366,27.366,0,0,0,19.894,26.325v8.49a7.46,7.46,0,1,0,14.921,0v-8.49a27.421,27.421,0,0,0,18.127-16.632,6.222,6.222,0,0,0,7.984-5.962V88.545a6.217,6.217,0,0,0-6.217-6.217Z" transform="translate(-82.645 -37.567)" fill="#e1a595"/>
      <path id="Trazado_700035" data-name="Trazado 700035" d="M217.749,78.117v9.947a27.366,27.366,0,0,1-20.2,26.408,13.137,13.137,0,0,1-6.856,0,27.366,27.366,0,0,1-20.2-26.408V78.117a27.36,27.36,0,0,1,23.624-27.1A27.36,27.36,0,0,1,217.749,78.117Z" transform="translate(-123.968 -38.329)" fill="#eac0b5"/>
      <path id="Trazado_700036" data-name="Trazado 700036" d="M195.46,156.23a3.73,3.73,0,1,1-3.73-3.73A3.73,3.73,0,0,1,195.46,156.23Zm19.894-3.73a3.73,3.73,0,1,0,3.73,3.73A3.73,3.73,0,0,0,215.355,152.5Z" transform="translate(-137.116 -114.577)" fill="#533022"/>
      <path id="Trazado_700037" data-name="Trazado 700037" d="M209.23,154.365a1.865,1.865,0,1,1-1.865-1.865A1.865,1.865,0,0,1,209.23,154.365ZM230.99,152.5a1.865,1.865,0,1,0,1.865,1.865A1.865,1.865,0,0,0,230.99,152.5Z" transform="translate(-150.264 -114.577)" fill="#fff5f5"/>
      <path id="Trazado_700038" data-name="Trazado 700038" d="M157.708,30h-3.75A29.458,29.458,0,0,0,124.5,59.458V80.464a19.9,19.9,0,0,0,10.233,17.391l19.893,11.052a2.487,2.487,0,0,0,2.415,0l19.893-11.052a19.894,19.894,0,0,0,10.233-17.391V59.458A29.458,29.458,0,0,0,157.708,30Zm24.168,39.788a22.379,22.379,0,0,1-12.117,19.894v-7.46a4.973,4.973,0,0,0-4.974-4.974h-17.9a4.973,4.973,0,0,0-4.974,4.974v7.46A22.379,22.379,0,0,1,129.79,69.788V59.841A22.381,22.381,0,0,1,152.171,37.46H159.5a22.381,22.381,0,0,1,22.381,22.381Z" transform="translate(-89.407 -22.54)" fill="#c92222"/>
      <path id="Trazado_700039" data-name="Trazado 700039" d="M221.73,50a27.449,27.449,0,0,1,5.856.628,29.419,29.419,0,0,1,12.173,23.856V95.49a19.9,19.9,0,0,1-10.233,17.391l-2.143,1.19a27.48,27.48,0,0,1-5.654.585h-5.844a27.3,27.3,0,0,1-21.386-10.3v-7.11a4.973,4.973,0,0,1,4.974-4.974h17.9a4.973,4.973,0,0,1,4.974,4.974v7.46a22.379,22.379,0,0,0,12.117-19.894V74.868a22.381,22.381,0,0,0-22.381-22.381h-7.325l-.293,0A27.252,27.252,0,0,1,215.886,50Z" transform="translate(-142 -37.567)" fill="#e12929"/>
      <path id="Trazado_700040" data-name="Trazado 700040" d="M222.476,197.112a1.865,1.865,0,0,1,2.637-2.638,1.367,1.367,0,0,0,1.936,0,1.865,1.865,0,0,1,2.637,2.638,5.1,5.1,0,0,1-7.211,0Zm11.142,6.864a1.865,1.865,0,0,0-2.637,0,6.935,6.935,0,0,1-9.8,0,1.865,1.865,0,0,0-2.637,2.638,10.67,10.67,0,0,0,15.071,0A1.865,1.865,0,0,0,233.618,203.976Z" transform="translate(-159.656 -145.703)" fill="#dd9683"/>
      <path id="Trazado_700041" data-name="Trazado 700041" d="M252.372,360h24.353a1.243,1.243,0,0,1,1.219,1.487l-3.9,19.493a14.471,14.471,0,0,1-9.538,10.866,60.731,60.731,0,0,1-17.121,3.168h-.025a4.14,4.14,0,0,1-4.29-4.138V369.3a9.3,9.3,0,0,1,9.3-9.3Z" transform="translate(-178.492 -270.477)" fill="#fff5f5"/>
      <path id="Trazado_700042" data-name="Trazado 700042" d="M282.411,408.73H264.5V405h19.154Z" transform="translate(-194.592 -304.286)" fill="#fddfa6"/>
      <path id="Trazado_700043" data-name="Trazado 700043" d="M236.541,369.592H217.357l5.465-9.109a1,1,0,0,1,.853-.483h9.668Z" transform="translate(-159.173 -270.477)" fill="#fdbf43"/>
      <path id="Trazado_700044" data-name="Trazado 700044" d="M116.639,363.216a1.243,1.243,0,0,1,1.456-1.557l42.737,9.158-8.474,25.423q-1.228.049-2.468.049a60.837,60.837,0,0,1-19.925-3.333c-3.319-1.148-7.5-9.35-7.5-9.35Z" transform="translate(-83.465 -271.702)" fill="#fddfa6"/>
      <path id="Trazado_700045" data-name="Trazado 700045" d="M122.464,383.606l-5.826-20.39a1.243,1.243,0,0,1,1.456-1.557l3.68.789,7.994,27.981Z" transform="translate(-83.464 -271.702)" fill="#fdd78d"/>
      <path id="Trazado_700046" data-name="Trazado 700046" d="M222.411,441.23H204.5V437.5h19.154Z" transform="translate(-149.513 -328.704)" fill="#fdbf43"/>
      <path id="Trazado_700047" data-name="Trazado 700047" d="M189.443,424.625l-4.091-6.364a5.361,5.361,0,1,1,9.02,0l-4.091,6.364a.5.5,0,0,1-.837,0Z" transform="translate(-134.487 -308.043)" fill="#e12929"/>
      <path id="Trazado_700048" data-name="Trazado 700048" d="M201.153,423.913a2.487,2.487,0,1,1-2.487-2.487A2.487,2.487,0,0,1,201.153,423.913Z" transform="translate(-143.261 -316.627)" fill="#c92222"/>
      <path id="Trazado_700049" data-name="Trazado 700049" d="M319.443,384.625l-4.091-6.364a5.361,5.361,0,1,1,9.02,0l-4.091,6.364A.5.5,0,0,1,319.443,384.625Z" transform="translate(-232.158 -277.99)" fill="#fd4343"/>
      <path id="Trazado_700050" data-name="Trazado 700050" d="M331.032,383.2a2.487,2.487,0,1,1-2.487-2.487A2.487,2.487,0,0,1,331.032,383.2Z" transform="translate(-240.842 -286.039)" fill="#e12929"/>
      <path id="Trazado_700051" data-name="Trazado 700051" d="M187.167,27.3H167.8a29.4,29.4,0,0,1-10.094,1.775h-3.749A29.4,29.4,0,0,1,143.865,27.3H124.5A19.894,19.894,0,0,1,144.394,7.46h3.152A4.975,4.975,0,0,1,151.855,0h7.958a4.975,4.975,0,0,1,4.308,7.46h3.152A19.894,19.894,0,0,1,187.167,27.3Z" transform="translate(-89.407 -0.001)" fill="#c92222"/>
      <path id="Trazado_700052" data-name="Trazado 700052" d="M223.12,27.3H203.755a29.4,29.4,0,0,1-10.094,1.775h-3.749A29.4,29.4,0,0,1,179.818,27.3h-7.465A27.382,27.382,0,0,1,185.226,8.834a9.717,9.717,0,0,1,4.988-1.375A4.975,4.975,0,0,1,194.522,0h1.243a4.975,4.975,0,0,1,4.308,7.46h3.152A19.894,19.894,0,0,1,223.12,27.3Z" transform="translate(-125.36)" fill="#e12929"/>
      <path id="Trazado_700053" data-name="Trazado 700053" d="M125.027,110a31.725,31.725,0,0,1-5.734,4.664,31.583,31.583,0,0,1-13.024,11.163,1.243,1.243,0,0,1-1.381-2.024,31.734,31.734,0,0,0,4.168-4.926,31.327,31.327,0,0,1-3.178.521,1.243,1.243,0,0,1-.671-2.356,31.737,31.737,0,0,0,7.341-4.854q.408-1.078.737-2.189Z" transform="translate(-74.381 -82.646)" fill="#c92222"/>
      <path id="Trazado_700054" data-name="Trazado 700054" d="M311.161,119.937q-1.364-.159-2.7-.434a31.334,31.334,0,0,1,1.811,3.366,1.243,1.243,0,0,1-2.024,1.381,31.535,31.535,0,0,0-23.751-9.672L285.749,110h16.092a31.732,31.732,0,0,0,10,7.584,1.243,1.243,0,0,1-.682,2.353Z" transform="translate(-209.619 -82.646)" fill="#e12929"/>
      <path id="Trazado_700055" data-name="Trazado 700055" d="M180.156,97.434h-62.17a2.487,2.487,0,0,1-2.487-2.487v-7.46A2.487,2.487,0,0,1,117.987,85h62.17a2.487,2.487,0,0,1,2.487,2.487v7.46A2.487,2.487,0,0,1,180.156,97.434Z" transform="translate(-82.645 -63.863)" fill="#fddfa6"/>
      <path id="Trazado_700056" data-name="Trazado 700056" d="M216.971,97.434H166.987a2.487,2.487,0,0,1-2.487-2.487v-7.46A2.487,2.487,0,0,1,166.987,85h49.984a2.487,2.487,0,0,1,2.487,2.487v7.46A2.487,2.487,0,0,1,216.971,97.434Z" transform="translate(-119.46 -63.863)" fill="#fff5f5"/>
      <path id="Trazado_700057" data-name="Trazado 700057" d="M182.643,106.015H115.5v-3.73h67.143Z" transform="translate(-82.645 -76.85)" fill="#81ade2"/>
      <path id="Trazado_700058" data-name="Trazado 700058" d="M219.458,106.015H164.5v-3.73h54.958Z" transform="translate(-119.46 -76.85)" fill="#b1c9eb"/>
      <path id="Trazado_700059" data-name="Trazado 700059" d="M178.889,434.29a60.716,60.716,0,0,1-15.393,7.782,8.206,8.206,0,0,1,12.049-11.125Zm-65.3-5.084-4.824,4.824a60.735,60.735,0,0,0,15.32,7.891l1.109-1.109a8.206,8.206,0,0,0-11.605-11.606Z" transform="translate(-77.586 -320.666)" fill="#dd9683"/>
      <path id="Trazado_700060" data-name="Trazado 700060" d="M178.89,434.289a60.832,60.832,0,0,1-10.654,5.959l-2.915-2.915a8.175,8.175,0,0,1-2.38-5.178,8.213,8.213,0,0,1,12.605-1.21Zm-65.3-5.084-4.824,4.824a60.85,60.85,0,0,0,10.586,6.027l4.464-4.464a8.175,8.175,0,0,0,2.38-5.178,8.214,8.214,0,0,0-12.605-1.21Z" transform="translate(-77.587 -320.666)" fill="#e1a595"/>
    </g>
  </g>
</svg>
