<svg xmlns="http://www.w3.org/2000/svg" width="113" height="113" viewBox="0 0 113 113">
  <g id="Grupo_953273" data-name="Grupo 953273" transform="translate(-180 -1328)">
    <circle id="Elipse_5222" data-name="Elipse 5222" cx="56.5" cy="56.5" r="56.5" transform="translate(180 1328)" fill="#b7ceac"/>
    <g id="mapa-3" transform="translate(198 1335.777)">
      <g id="Grupo_950039" data-name="Grupo 950039" transform="translate(0 12.223)">
        <g id="Grupo_950036" data-name="Grupo 950036" transform="translate(0 0)">
          <path id="Trazado_692846" data-name="Trazado 692846" d="M50.862,12.223,25.4,17.613,0,12.223V79.334l25.39,5.39,25.472-5.39,25.39,5.39V17.613Z" transform="translate(0 -12.223)" fill="#ebf9ff"/>
          <path id="Trazado_692847" data-name="Trazado 692847" d="M30.442,101.9V44.336l20.732,4.4,25.458-5.389,20.721,4.4V94.528L77.772,92.1,51.163,106.3Z" transform="translate(-25.771 -38.57)" fill="#7191f0"/>
          <path id="Trazado_692848" data-name="Trazado 692848" d="M92.75,65.645v42.99l-19.581-2.423L46.56,120.4l-16.118-3.422v3.794l20.721,4.4,26.609-14.192,19.581,2.423V66.622Z" transform="translate(-25.771 -57.449)" fill="#6084f0"/>
          <path id="Trazado_692849" data-name="Trazado 692849" d="M165.577,48.734v48.76l25.458-5.39V43.345Z" transform="translate(-140.174 -38.57)" fill="#5177e8"/>
          <path id="Trazado_692850" data-name="Trazado 692850" d="M70.391,158.579c-2.144-.208-3.989,2.116-4.157,4.263-.149,1.9.867,3.725.86,5.632-.007,1.851-.9,3.99.33,5.375,1.176,1.325,3.44.768,4.746-.428,2.718-2.489,4.046-4.2,7.307-6.086,2.132-1.232,5.844-2.862,7.311-4.915,3.106-4.347-.019-6.889-3.218-6.738-2.344.11-4.042,3.075-6.349,2.64-.78-.147-1.44-.679-2.212-.868C73.686,157.13,72.753,158.809,70.391,158.579Z" transform="translate(-56.059 -133.666)" fill="#c4ffc9"/>
          <path id="Trazado_692851" data-name="Trazado 692851" d="M105.706,207.342s-1.1-9.21,4.41-10.168,8.024.6,9.221-2.575,1.981-12.579,11.736-12.037c6.467.359,8.109-.065,9.7-2.754,2.409-4.079,3.055-12.651,9.4-14.448s10.821,3.428,10.821,3.428v39.493l-20.718-4.4-25.472,5.39Z" transform="translate(-89.413 -141.547)" fill="#c4ffc9"/>
          <path id="Trazado_692852" data-name="Trazado 692852" d="M156.39,169.372v37.742l-16.116-3.421L114.816,209.1l-9.088-1.833a17.623,17.623,0,0,0-.023,3.79l9.1,1.931,25.472-5.39,20.718,4.4V172.5A12.5,12.5,0,0,0,156.39,169.372Z" transform="translate(-89.412 -145.262)" fill="#a7faae"/>
          <g id="Grupo_950031" data-name="Grupo 950031" transform="translate(57.298 42.016)">
            <path id="Trazado_692853" data-name="Trazado 692853" d="M382.537,290.618c0,2.506-4.537,10.89-4.537,10.89s-4.537-8.384-4.537-10.89a4.537,4.537,0,1,1,9.074,0Z" transform="translate(-373.463 -286.081)" fill="#f26e91"/>
            <path id="Trazado_692854" data-name="Trazado 692854" d="M390.336,286.081a4.515,4.515,0,0,0-2.3.628,4.534,4.534,0,0,1,2.236,3.91c0,1.241-1.112,3.923-2.236,6.315,1.145,2.438,2.3,4.575,2.3,4.575s4.537-8.384,4.537-10.89A4.537,4.537,0,0,0,390.336,286.081Z" transform="translate(-385.799 -286.081)" fill="#e05c7e"/>
            <g id="Grupo_950030" data-name="Grupo 950030" transform="translate(3.426 3.689)">
              <path id="Trazado_692855" data-name="Trazado 692855" d="M396.9,312.429a1.151,1.151,0,0,0,0-2.3A1.151,1.151,0,0,0,396.9,312.429Z" transform="translate(-395.791 -310.128)" fill="#fff"/>
            </g>
          </g>
          <g id="Grupo_950033" data-name="Grupo 950033" transform="translate(11.617 14.678)">
            <path id="Trazado_692856" data-name="Trazado 692856" d="M84.794,112.428c0,2.506-4.537,10.89-4.537,10.89s-4.537-8.384-4.537-10.89a4.537,4.537,0,1,1,9.074,0Z" transform="translate(-75.72 -107.89)" fill="#f5dc1d"/>
            <path id="Trazado_692857" data-name="Trazado 692857" d="M92.594,107.891a4.514,4.514,0,0,0-2.3.628,4.534,4.534,0,0,1,2.236,3.91c0,1.241-1.112,3.923-2.236,6.315,1.145,2.438,2.3,4.575,2.3,4.575s4.537-8.384,4.537-10.89A4.537,4.537,0,0,0,92.594,107.891Z" transform="translate(-88.057 -107.891)" fill="#f5dc1d"/>
            <g id="Grupo_950032" data-name="Grupo 950032" transform="translate(3.426 3.689)">
              <path id="Trazado_692858" data-name="Trazado 692858" d="M99.16,134.238a1.151,1.151,0,0,0,0-2.3A1.151,1.151,0,0,0,99.16,134.238Z" transform="translate(-98.048 -131.937)" fill="#fff"/>
            </g>
          </g>
          <path id="Trazado_692859" data-name="Trazado 692859" d="M191.035,266.537c-1.48,2.009-3.4,2.319-9.2,2-9.755-.542-10.539,8.863-11.736,12.037-.785,2.079-2.135,2.128-4.522,2.184v12.488l22.643-4.791,2.815-.6Z" transform="translate(-140.173 -227.519)" fill="#7ed085"/>
          <g id="Grupo_950035" data-name="Grupo 950035" transform="translate(32.868 36.251)">
            <path id="Trazado_692860" data-name="Trazado 692860" d="M223.305,253.038c0,2.506-4.537,10.89-4.537,10.89s-4.537-8.384-4.537-10.89a4.537,4.537,0,1,1,9.074,0Z" transform="translate(-214.231 -248.5)" fill="#ff9000"/>
            <path id="Trazado_692861" data-name="Trazado 692861" d="M231.105,248.5a4.514,4.514,0,0,0-2.3.628,4.534,4.534,0,0,1,2.236,3.91c0,1.241-1.112,3.923-2.236,6.315,1.145,2.438,2.3,4.575,2.3,4.575s4.537-8.384,4.537-10.89A4.537,4.537,0,0,0,231.105,248.5Z" transform="translate(-226.568 -248.5)" fill="#ed8600"/>
            <g id="Grupo_950034" data-name="Grupo 950034" transform="translate(3.426 3.689)">
              <path id="Trazado_692862" data-name="Trazado 692862" d="M237.671,274.847a1.151,1.151,0,0,0,0-2.3A1.151,1.151,0,0,0,237.671,274.847Z" transform="translate(-236.559 -272.546)" fill="#fff"/>
            </g>
          </g>
        </g>
        <path id="Trazado_692863" data-name="Trazado 692863" d="M165.577,22.387V17.613l25.458-5.39V17Z" transform="translate(-140.174 -12.223)" fill="#d7effa"/>
        <path id="Trazado_692864" data-name="Trazado 692864" d="M165.5,423.917v4.775l25.471-5.39v-4.775Z" transform="translate(-140.107 -356.19)" fill="#d7effa"/>
        <g id="Grupo_950037" data-name="Grupo 950037" transform="translate(25.403 62.933)">
          <path id="Trazado_692865" data-name="Trazado 692865" d="M165.577,427.2l22.643-4.794L165.577,427.2Z" transform="translate(-165.577 -422.411)" fill="none"/>
        </g>
        <g id="Grupo_950038" data-name="Grupo 950038" transform="translate(25.403 22.009)">
          <path id="Trazado_692866" data-name="Trazado 692866" d="M167.685,155.682a4.379,4.379,0,0,0-2.108.788v9.787c1.978-1.059,4.253-2.334,5.326-3.836C174.009,158.074,170.884,155.532,167.685,155.682Z" transform="translate(-165.577 -155.676)" fill="#7ed085"/>
        </g>
      </g>
      <path id="Trazado_692867" data-name="Trazado 692867" d="M165.577,398.476v3.888l25.458-5.39v-3.906Z" transform="translate(-140.174 -322.414)" fill="#67c96f"/>
    </g>
  </g>
</svg>
