<svg xmlns="http://www.w3.org/2000/svg" width="165" height="165" viewBox="0 0 165 165">
  <g id="Grupo_953285" data-name="Grupo 953285" transform="translate(-1069 -2690)">
    <circle id="Elipse_5413" data-name="Elipse 5413" cx="82.5" cy="82.5" r="82.5" transform="translate(1069 2690)" fill="#ccd3ca"/>
    <g id="narracion" transform="translate(1091.62 2701.642)">
      <g id="Grupo_950583" data-name="Grupo 950583" transform="translate(0 10.358)">
        <path id="Trazado_699942" data-name="Trazado 699942" d="M60.179,11.638A60.178,60.178,0,0,0,14.574,111.08l75.7,12.858a60.185,60.185,0,0,0-30.1-112.3Z" transform="translate(0 -11.324)" fill="#49b1f7"/>
        <path id="Trazado_699943" data-name="Trazado 699943" d="M179.016,10.358H132.378c-.781.749-2.75,2.9-2.736,5.526a6.084,6.084,0,0,0,2.47,4.627v2.928a5.612,5.612,0,0,0-2.189,3.89,4.812,4.812,0,0,0,1.972,3.7,7.533,7.533,0,0,0-2.555,4.388,7.546,7.546,0,0,0,1.588,5.59,8.942,8.942,0,0,0-4.02,5.157c-.506,2.129.08,4.392,1.744,6.727l1.738,4.885a4.767,4.767,0,0,0-1.71,3.352,4.133,4.133,0,0,0,1.789,3.122,7.119,7.119,0,0,0-2.045,4.345,7.515,7.515,0,0,0,2.089,5.428,12.911,12.911,0,0,0-4.212,7.915c-.3,3.061.771,6.119,3.2,9.1a4.811,4.811,0,0,0-1.719,3.307,3.938,3.938,0,0,0,1.5,2.933,8.793,8.793,0,0,0-1.664.867,4.766,4.766,0,0,0-2.361,3.988v20.994l1.669,1.131a60.237,60.237,0,0,0,57.843-1.287V16.1a5.762,5.762,0,0,0-5.745-5.745Z" transform="translate(-94.485 -10.358)" fill="#deeeff"/>
        <path id="Trazado_699944" data-name="Trazado 699944" d="M59.333,16.1v94.012a60.569,60.569,0,0,0,6.36,6.352l10.2,6.911V102.135c0-3.525,4.4-4.721,4.4-4.721-4.2-3.186,0-6.328,0-6.328-8.193-9.7,1.023-17.02,1.023-17.02-5.081-5.608,0-9.84,0-9.84C76.965,61.072,81.1,57.9,81.1,57.9l-1.841-5.174c-5.377-7.492,2.486-11.6,2.486-11.6-4.65-6.114,1.013-10.086,1.013-10.086-4.927-3.857,0-7.417,0-7.417V20.339c-5.807-4.751.444-9.98.444-9.98H65.078A5.761,5.761,0,0,0,59.333,16.1Z" transform="translate(-44.759 -10.359)" fill="#bec8f7"/>
        <g id="Grupo_950570" data-name="Grupo 950570" transform="translate(36.356 9.981)">
          <path id="Trazado_699945" data-name="Trazado 699945" d="M178.511,54.272H149.654a1.641,1.641,0,1,1,0-3.281h28.857a1.641,1.641,0,0,1,0,3.281Z" transform="translate(-148.013 -50.991)" fill="#3c58a0"/>
        </g>
        <g id="Grupo_950571" data-name="Grupo 950571" transform="translate(57.542 20.679)">
          <path id="Trazado_699946" data-name="Trazado 699946" d="M258.008,94.547h-23.74v26.86h23.74a2.666,2.666,0,0,0,2.666-2.666V97.213A2.666,2.666,0,0,0,258.008,94.547Z" transform="translate(-234.268 -94.547)" fill="#d3dcfb"/>
          <path id="Trazado_699947" data-name="Trazado 699947" d="M258.008,229.663h-23.74v26.86h23.74a2.666,2.666,0,0,0,2.666-2.666V232.329A2.666,2.666,0,0,0,258.008,229.663Z" transform="translate(-234.268 -196.475)" fill="#d3dcfb"/>
          <path id="Trazado_699948" data-name="Trazado 699948" d="M258.008,364.778h-23.74v26.86h23.74a2.666,2.666,0,0,0,2.666-2.666V367.444A2.666,2.666,0,0,0,258.008,364.778Z" transform="translate(-234.268 -298.402)" fill="#d3dcfb"/>
        </g>
        <g id="Grupo_950572" data-name="Grupo 950572" transform="translate(63.169 26.396)">
          <path id="Trazado_699949" data-name="Trazado 699949" d="M270.414,121.105h-11.6a1.641,1.641,0,1,1,0-3.281h11.6a1.641,1.641,0,1,1,0,3.281Z" transform="translate(-257.176 -117.824)" fill="#a9bbfc"/>
        </g>
        <g id="Grupo_950573" data-name="Grupo 950573" transform="translate(63.169 32.468)">
          <path id="Trazado_699950" data-name="Trazado 699950" d="M270.414,145.825h-11.6a1.641,1.641,0,1,1,0-3.281h11.6a1.641,1.641,0,1,1,0,3.281Z" transform="translate(-257.176 -142.544)" fill="#a9bbfc"/>
        </g>
        <g id="Grupo_950574" data-name="Grupo 950574" transform="translate(63.169 38.54)">
          <path id="Trazado_699951" data-name="Trazado 699951" d="M265.083,170.546h-6.268a1.641,1.641,0,1,1,0-3.281h6.268a1.641,1.641,0,1,1,0,3.281Z" transform="translate(-257.175 -167.265)" fill="#a9bbfc"/>
        </g>
        <g id="Grupo_950575" data-name="Grupo 950575" transform="translate(63.169 59.584)">
          <path id="Trazado_699952" data-name="Trazado 699952" d="M270.414,256.221h-11.6a1.641,1.641,0,1,1,0-3.281h11.6a1.641,1.641,0,1,1,0,3.281Z" transform="translate(-257.176 -252.94)" fill="#a9bbfc"/>
        </g>
        <g id="Grupo_950576" data-name="Grupo 950576" transform="translate(63.169 65.657)">
          <path id="Trazado_699953" data-name="Trazado 699953" d="M270.414,280.942h-11.6a1.641,1.641,0,1,1,0-3.281h11.6a1.641,1.641,0,1,1,0,3.281Z" transform="translate(-257.176 -277.661)" fill="#a9bbfc"/>
        </g>
        <g id="Grupo_950577" data-name="Grupo 950577" transform="translate(63.169 71.728)">
          <path id="Trazado_699954" data-name="Trazado 699954" d="M265.083,305.662h-6.268a1.641,1.641,0,1,1,0-3.281h6.268a1.641,1.641,0,1,1,0,3.281Z" transform="translate(-257.175 -302.381)" fill="#a9bbfc"/>
        </g>
        <g id="Grupo_950578" data-name="Grupo 950578" transform="translate(63.169 92.772)">
          <path id="Trazado_699955" data-name="Trazado 699955" d="M270.414,391.337h-11.6a1.641,1.641,0,1,1,0-3.281h11.6a1.641,1.641,0,1,1,0,3.281Z" transform="translate(-257.176 -388.056)" fill="#a9bbfc"/>
        </g>
        <path id="Trazado_699956" data-name="Trazado 699956" d="M321.781,363.979a7.536,7.536,0,0,0-.96-.464l-.84,3.214a3.755,3.755,0,0,0,1.222,3.763l3.628-3.194A7.5,7.5,0,0,0,321.781,363.979Z" transform="translate(-241.309 -276.771)" fill="#56415e"/>
        <path id="Trazado_699957" data-name="Trazado 699957" d="M307.933,365.153l.827-3.165a7.5,7.5,0,0,0-3.782-.666l-1.5,7.457a1.974,1.974,0,0,0,3.24,1.87l2.363-2.081A3.335,3.335,0,0,1,307.933,365.153Z" transform="translate(-228.906 -275.096)" fill="#47354f"/>
        <path id="Trazado_699958" data-name="Trazado 699958" d="M325.54,336.61a2.234,2.234,0,0,0,.111-.222c.008-.017.014-.035.02-.053.024-.061.047-.122.066-.183,0-.015.008-.03.013-.046.019-.068.035-.136.047-.2,0-.008,0-.017,0-.026a2.163,2.163,0,0,0,.027-.235c0-.056,0-.112,0-.168l-.835,1.348-.029.047-1.494,5.719a7.469,7.469,0,0,1,3.92,3.687l5.527-4.866.234-.406a2.2,2.2,0,0,0-3.3-2.79l-.02.016c-.053.045-.1.093-.153.143l-.033.034c-.044.047-.086.1-.126.149-.012.015-.024.029-.035.044a2.137,2.137,0,0,0-.137.208,2.2,2.2,0,0,0-3.8-2.2Z" transform="translate(-244.017 -255.617)" fill="#fcddd0"/>
        <path id="Trazado_699959" data-name="Trazado 699959" d="M314.8,330.383l.407-.659a2.216,2.216,0,0,0-.173.252,2.228,2.228,0,0,0,.111-.222c.008-.017.014-.035.02-.053.024-.061.047-.122.066-.183,0-.015.008-.03.013-.046.019-.068.035-.136.047-.2,0-.008,0-.017,0-.026a2.2,2.2,0,0,0-4.067-1.464l-.234.406-1.451,7.219a7.5,7.5,0,0,1,3.762.7Z" transform="translate(-233.514 -248.984)" fill="#ffc7ab"/>
        <path id="Trazado_699960" data-name="Trazado 699960" d="M314.8,330.383l.407-.659a2.216,2.216,0,0,0-.173.252,2.228,2.228,0,0,0,.111-.222c.008-.017.014-.035.02-.053.024-.061.047-.122.066-.183,0-.015.008-.03.013-.046.019-.068.035-.136.047-.2,0-.008,0-.017,0-.026a2.2,2.2,0,0,0-4.067-1.464l-.234.406-1.451,7.219a7.5,7.5,0,0,1,3.762.7Z" transform="translate(-233.514 -248.984)" fill="#ffc7ab"/>
        <path id="Trazado_699961" data-name="Trazado 699961" d="M458.3,109.276a2.141,2.141,0,0,0-2.132,1.052l-1.171,2.029a2.141,2.141,0,0,0,.4,2.64l6.54,3.776,3.2-5.548Z" transform="translate(-343.019 -84.966)" fill="#deeeff"/>
        <path id="Trazado_699962" data-name="Trazado 699962" d="M440.853,98.574l-3.2,5.548,5.369,3.1a2.07,2.07,0,0,1-.758-2.828l1.133-1.962a2.07,2.07,0,0,1,2.828-.758Z" transform="translate(-330.152 -76.906)" fill="#a9bbfc"/>
        <path id="Trazado_699963" data-name="Trazado 699963" d="M462.093,66.581a6.591,6.591,0,0,0-9,2.413l-2.876,4.982,11.416,6.591,2.876-4.982A6.591,6.591,0,0,0,462.093,66.581Z" transform="translate(-339.629 -52.104)" fill="#ff4155"/>
        <path id="Trazado_699964" data-name="Trazado 699964" d="M144.226,94.547a6.959,6.959,0,0,0-.962,9.974c-.071.044-.153.1-.239.154a12.979,12.979,0,0,1,1.885,1.165c8.678,6.438,13.22,6.4,19.687,3.662V94.547Z" transform="translate(-106.82 -73.868)" fill="#ffc839"/>
        <path id="Trazado_699965" data-name="Trazado 699965" d="M85.1,97.212v9.429c3.837-2.4,9.933-4.92,15.676-1.768.251-.159.406-.24.406-.24-4.65-6.114,1.013-10.086,1.013-10.086H87.762A2.666,2.666,0,0,0,85.1,97.212Z" transform="translate(-64.194 -73.867)" fill="#ffb332"/>
        <circle id="Elipse_5586" data-name="Elipse 5586" cx="5.469" cy="5.469" r="5.469" transform="translate(39.506 29.766) rotate(-23.259)" fill="#ffdd40"/>
        <path id="Trazado_699966" data-name="Trazado 699966" d="M137.128,135.093a12.983,12.983,0,0,0-1.849-1.147c.066.1.133.2.2.3a8.942,8.942,0,0,0-4.02,5.157c-.506,2.129.08,4.392,1.744,6.727l.014.04a4.172,4.172,0,0,1,1.993,3.108,4.217,4.217,0,0,1-.208,1.854h21.81V138.755C150.348,141.492,145.806,141.532,137.128,135.093Z" transform="translate(-99.039 -103.59)" fill="#3ece9a"/>
        <g id="Grupo_950579" data-name="Grupo 950579" transform="translate(20.902 29.058)">
          <path id="Trazado_699967" data-name="Trazado 699967" d="M96.578,141.589a4.167,4.167,0,0,1,2.321.964l-.208-.585c-5.363-7.473,2.447-11.579,2.486-11.6-5.859-3.5-12.154-.919-16.08,1.539v7.505a4.855,4.855,0,0,1,2.081-.725,4.946,4.946,0,0,1,5.142,3.157,1,1,0,0,0,.647.608.97.97,0,0,0,.849-.13A4.15,4.15,0,0,1,96.578,141.589Z" transform="translate(-85.096 -128.661)" fill="#2bbc85"/>
        </g>
        <path id="Trazado_699968" data-name="Trazado 699968" d="M100.533,176.772a4.541,4.541,0,0,0-3.923-5.9,4.517,4.517,0,0,0-2.995.8.645.645,0,0,1-.966-.314,5.281,5.281,0,0,0-5.507-3.383,5.194,5.194,0,0,0-2.045.665v5.472a2.666,2.666,0,0,0,2.666,2.666h12.769Z" transform="translate(-64.196 -129.233)" fill="#55deb0"/>
        <path id="Trazado_699969" data-name="Trazado 699969" d="M128.951,364.778a8.623,8.623,0,0,0-1.342.733,4.766,4.766,0,0,0-2.361,3.988v13.058l.046,0a6.9,6.9,0,0,1,6.889,6.889v2.193h3.281v-2.193a6.889,6.889,0,1,1,13.778,0v2.193h3.019v-26.86Z" transform="translate(-94.484 -277.723)" fill="#3c58a0"/>
        <path id="Trazado_699970" data-name="Trazado 699970" d="M85.1,367.445v16.366q1.743,1.5,3.6,2.87A6.9,6.9,0,0,1,95,382.557c.108,0,.216,0,.323.008V369.5c0-3.525,4.4-4.721,4.4-4.721H87.762A2.666,2.666,0,0,0,85.1,367.445Z" transform="translate(-64.194 -277.724)" fill="#2a428c"/>
        <path id="Trazado_699971" data-name="Trazado 699971" d="M140.141,229.662l.034.029a7.119,7.119,0,0,0-2.045,4.345,7.515,7.515,0,0,0,2.089,5.428l-.171.157a12.856,12.856,0,0,1,2.232,1.334c8.678,6.438,13.22,6.4,19.687,3.662V229.662H140.141Z" transform="translate(-104.191 -175.795)" fill="#55deb0"/>
        <path id="Trazado_699972" data-name="Trazado 699972" d="M100.747,229.663H87.763a2.666,2.666,0,0,0-2.666,2.666v9.429c3.756-2.352,9.678-4.815,15.313-1.961.21-.193.337-.294.337-.294-5.081-5.608,0-9.84,0-9.84Z" transform="translate(-64.195 -175.796)" fill="#3ece9a"/>
        <path id="Trazado_699973" data-name="Trazado 699973" d="M135.65,269.436a12.8,12.8,0,0,0-2.369-1.4c.1.126.2.251.308.377a12.911,12.911,0,0,0-4.212,7.915c-.3,3.061.771,6.119,3.2,9.1l-.05.046h3.388v-2.193a6.889,6.889,0,0,1,13.778,0v2.193h5.65V273.1C148.869,275.834,144.327,275.874,135.65,269.436Z" transform="translate(-97.56 -204.744)" fill="#3c58a0"/>
        <path id="Trazado_699974" data-name="Trazado 699974" d="M100.744,265.246c-5.734-3.127-11.817-.614-15.647,1.784V279.6a2.666,2.666,0,0,0,2.666,2.666H99.724c-8.141-9.637.905-16.926,1.02-17.018Z" transform="translate(-64.195 -201.538)" fill="#2a428c"/>
        <path id="Trazado_699975" data-name="Trazado 699975" d="M161.936,300.61a7.262,7.262,0,0,0-7.241,7.241v2.193h14.481v-2.193A7.262,7.262,0,0,0,161.936,300.61Z" transform="translate(-116.698 -229.317)" fill="#49b1f7"/>
        <path id="Trazado_699976" data-name="Trazado 699976" d="M174.79,267.494c0,2.5-2.028,5.077-4.53,5.077s-4.53-2.575-4.53-5.077a4.539,4.539,0,0,1,9.06,0Z" transform="translate(-125.022 -201.123)" fill="#ffc7ab"/>
        <path id="Trazado_699977" data-name="Trazado 699977" d="M172.648,435.725a7.262,7.262,0,0,0-7.241,7.241v2.193h14.481v-2.193A7.262,7.262,0,0,0,172.648,435.725Z" transform="translate(-124.779 -331.244)" fill="#49b1f7"/>
        <path id="Trazado_699978" data-name="Trazado 699978" d="M185.5,402.61c0,2.5-2.028,5.077-4.53,5.077s-4.53-2.575-4.53-5.077a4.539,4.539,0,0,1,9.06,0Z" transform="translate(-133.103 -303.051)" fill="#ffc7ab"/>
        <path id="Trazado_699979" data-name="Trazado 699979" d="M105.179,435.725a7.263,7.263,0,0,0-6.6,4.266,60.2,60.2,0,0,0,8.238,5.167h5.6v-2.193A7.262,7.262,0,0,0,105.179,435.725Z" transform="translate(-74.369 -331.244)" fill="#ffdd40"/>
        <path id="Trazado_699980" data-name="Trazado 699980" d="M116.051,402.61c0,2.5-2.028,5.077-4.53,5.077s-4.53-2.575-4.53-5.077a4.539,4.539,0,0,1,9.06,0Z" transform="translate(-80.711 -303.051)" fill="#ffc7ab"/>
        <circle id="Elipse_5587" data-name="Elipse 5587" cx="2.65" cy="2.65" r="2.65" transform="translate(117.581 19.262) rotate(-48.528)" fill="#ff7186"/>
        <g id="Grupo_950580" data-name="Grupo 950580" transform="translate(81.289 29.093)">
          <path id="Trazado_699981" data-name="Trazado 699981" d="M365.087,131.233l-4.211-2.431-29.64,51.338a2.185,2.185,0,0,1-.289.969,2.2,2.2,0,0,1,3.805,2.2,2.184,2.184,0,0,1,.695-.734Z" transform="translate(-330.948 -128.802)" fill="#ffb332"/>
        </g>
        <g id="Grupo_950581" data-name="Grupo 950581" transform="translate(77.484 27.013)">
          <path id="Trazado_699982" data-name="Trazado 699982" d="M318.456,171.719a2.2,2.2,0,0,1,.8,3l30.131-52.189-3.805-2.2-30.131,52.189A2.2,2.2,0,0,1,318.456,171.719Z" transform="translate(-315.455 -120.334)" fill="#ff8f33"/>
        </g>
        <g id="Grupo_950582" data-name="Grupo 950582" transform="translate(85.095 31.407)">
          <path id="Trazado_699983" data-name="Trazado 699983" d="M376.571,138.223,346.44,190.412a2.2,2.2,0,0,1,3.806,2.2l30.131-52.189Z" transform="translate(-346.44 -138.223)" fill="#ffdd40"/>
        </g>
        <circle id="Elipse_5588" data-name="Elipse 5588" cx="2.232" cy="2.232" r="2.232" transform="translate(45.85 29.057)" fill="#ffeb97"/>
        <path id="Trazado_699984" data-name="Trazado 699984" d="M413.5,236.256c-5.8,9.494-13.061,17.682-13.061,28.325,0,6.725,1.785,11.618,4.277,14.31a59.987,59.987,0,0,0,17.722-42.646,60.813,60.813,0,0,0-.366-6.64A15.612,15.612,0,0,0,413.5,236.256Z" transform="translate(-302.084 -175.752)" fill="#73c3f9"/>
      </g>
      <path id="Trazado_699985" data-name="Trazado 699985" d="M179.016,10.358H132.378c-.781.749-2.75,2.9-2.736,5.526a6.084,6.084,0,0,0,2.47,4.627v2.928a5.612,5.612,0,0,0-2.189,3.89,4.812,4.812,0,0,0,1.972,3.7,7.533,7.533,0,0,0-2.555,4.388,7.546,7.546,0,0,0,1.588,5.59,8.942,8.942,0,0,0-4.02,5.157c-.506,2.129.08,4.392,1.744,6.727l1.738,4.885a4.767,4.767,0,0,0-1.71,3.352,4.133,4.133,0,0,0,1.789,3.122,7.119,7.119,0,0,0-2.045,4.345,7.515,7.515,0,0,0,2.089,5.428,12.911,12.911,0,0,0-4.212,7.915c-.3,3.061.771,6.119,3.2,9.1a4.811,4.811,0,0,0-1.719,3.307,3.938,3.938,0,0,0,1.5,2.933,8.793,8.793,0,0,0-1.664.867,4.766,4.766,0,0,0-2.361,3.988v20.994l1.669,1.131a60.237,60.237,0,0,0,57.843-1.287V16.1a5.762,5.762,0,0,0-5.745-5.745Z" transform="translate(-94.485 0)" fill="#deeeff"/>
      <path id="Trazado_699986" data-name="Trazado 699986" d="M59.333,16.1v94.012a60.569,60.569,0,0,0,6.36,6.352l10.2,6.911V102.135c0-3.525,4.4-4.721,4.4-4.721-4.2-3.186,0-6.328,0-6.328-8.193-9.7,1.023-17.02,1.023-17.02-5.081-5.608,0-9.84,0-9.84C76.965,61.072,81.1,57.9,81.1,57.9l-1.841-5.174c-5.377-7.492,2.486-11.6,2.486-11.6-4.65-6.114,1.013-10.086,1.013-10.086-4.927-3.857,0-7.417,0-7.417V20.339c-5.807-4.751.444-9.98.444-9.98H65.078A5.761,5.761,0,0,0,59.333,16.1Z" transform="translate(-44.759 -0.001)" fill="#bec8f7"/>
      <g id="Grupo_950584" data-name="Grupo 950584" transform="translate(36.356 20.338)">
        <path id="Trazado_699987" data-name="Trazado 699987" d="M178.511,54.272H149.654a1.641,1.641,0,1,1,0-3.281h28.857a1.641,1.641,0,0,1,0,3.281Z" transform="translate(-148.013 -50.991)" fill="#3c58a0"/>
      </g>
      <g id="Grupo_950585" data-name="Grupo 950585" transform="translate(57.542 31.037)">
        <path id="Trazado_699988" data-name="Trazado 699988" d="M258.008,94.547h-23.74v26.86h23.74a2.666,2.666,0,0,0,2.666-2.666V97.213A2.666,2.666,0,0,0,258.008,94.547Z" transform="translate(-234.268 -94.547)" fill="#d3dcfb"/>
        <path id="Trazado_699989" data-name="Trazado 699989" d="M258.008,229.663h-23.74v26.86h23.74a2.666,2.666,0,0,0,2.666-2.666V232.329A2.666,2.666,0,0,0,258.008,229.663Z" transform="translate(-234.268 -196.475)" fill="#d3dcfb"/>
        <path id="Trazado_699990" data-name="Trazado 699990" d="M258.008,364.778h-23.74v26.86h23.74a2.666,2.666,0,0,0,2.666-2.666V367.444A2.666,2.666,0,0,0,258.008,364.778Z" transform="translate(-234.268 -298.402)" fill="#d3dcfb"/>
      </g>
      <g id="Grupo_950586" data-name="Grupo 950586" transform="translate(63.169 36.754)">
        <path id="Trazado_699991" data-name="Trazado 699991" d="M270.414,121.105h-11.6a1.641,1.641,0,1,1,0-3.281h11.6a1.641,1.641,0,1,1,0,3.281Z" transform="translate(-257.176 -117.824)" fill="#a9bbfc"/>
      </g>
      <g id="Grupo_950587" data-name="Grupo 950587" transform="translate(63.169 42.826)">
        <path id="Trazado_699992" data-name="Trazado 699992" d="M270.414,145.825h-11.6a1.641,1.641,0,1,1,0-3.281h11.6a1.641,1.641,0,1,1,0,3.281Z" transform="translate(-257.176 -142.544)" fill="#a9bbfc"/>
      </g>
      <g id="Grupo_950588" data-name="Grupo 950588" transform="translate(63.169 48.898)">
        <path id="Trazado_699993" data-name="Trazado 699993" d="M265.083,170.546h-6.268a1.641,1.641,0,1,1,0-3.281h6.268a1.641,1.641,0,1,1,0,3.281Z" transform="translate(-257.175 -167.265)" fill="#a9bbfc"/>
      </g>
      <g id="Grupo_950589" data-name="Grupo 950589" transform="translate(63.169 69.942)">
        <path id="Trazado_699994" data-name="Trazado 699994" d="M270.414,256.221h-11.6a1.641,1.641,0,1,1,0-3.281h11.6a1.641,1.641,0,1,1,0,3.281Z" transform="translate(-257.176 -252.94)" fill="#a9bbfc"/>
      </g>
      <g id="Grupo_950590" data-name="Grupo 950590" transform="translate(63.169 76.014)">
        <path id="Trazado_699995" data-name="Trazado 699995" d="M270.414,280.942h-11.6a1.641,1.641,0,1,1,0-3.281h11.6a1.641,1.641,0,1,1,0,3.281Z" transform="translate(-257.176 -277.661)" fill="#a9bbfc"/>
      </g>
      <g id="Grupo_950591" data-name="Grupo 950591" transform="translate(63.169 82.086)">
        <path id="Trazado_699996" data-name="Trazado 699996" d="M265.083,305.662h-6.268a1.641,1.641,0,1,1,0-3.281h6.268a1.641,1.641,0,1,1,0,3.281Z" transform="translate(-257.175 -302.381)" fill="#a9bbfc"/>
      </g>
      <g id="Grupo_950592" data-name="Grupo 950592" transform="translate(63.169 103.13)">
        <path id="Trazado_699997" data-name="Trazado 699997" d="M270.414,391.337h-11.6a1.641,1.641,0,1,1,0-3.281h11.6a1.641,1.641,0,1,1,0,3.281Z" transform="translate(-257.176 -388.056)" fill="#a9bbfc"/>
      </g>
      <path id="Trazado_699998" data-name="Trazado 699998" d="M321.781,363.979a7.536,7.536,0,0,0-.96-.464l-.84,3.214a3.755,3.755,0,0,0,1.222,3.763l3.628-3.194A7.5,7.5,0,0,0,321.781,363.979Z" transform="translate(-241.309 -266.413)" fill="#56415e"/>
      <path id="Trazado_699999" data-name="Trazado 699999" d="M307.933,365.153l.827-3.165a7.5,7.5,0,0,0-3.782-.666l-1.5,7.457a1.974,1.974,0,0,0,3.24,1.87l2.363-2.081A3.335,3.335,0,0,1,307.933,365.153Z" transform="translate(-228.906 -264.738)" fill="#47354f"/>
      <path id="Trazado_700000" data-name="Trazado 700000" d="M325.54,336.61a2.234,2.234,0,0,0,.111-.222c.008-.017.014-.035.02-.053.024-.061.047-.122.066-.183,0-.015.008-.03.013-.046.019-.068.035-.136.047-.2,0-.008,0-.017,0-.026a2.163,2.163,0,0,0,.027-.235c0-.056,0-.112,0-.168l-.835,1.348-.029.047-1.494,5.719a7.469,7.469,0,0,1,3.92,3.687l5.527-4.866.234-.406a2.2,2.2,0,0,0-3.3-2.79l-.02.016c-.053.045-.1.093-.153.143l-.033.034c-.044.047-.086.1-.126.149-.012.015-.024.029-.035.044a2.137,2.137,0,0,0-.137.208,2.2,2.2,0,0,0-3.8-2.2Z" transform="translate(-244.017 -245.259)" fill="#fcddd0"/>
      <path id="Trazado_700001" data-name="Trazado 700001" d="M314.8,330.383l.407-.659a2.216,2.216,0,0,0-.173.252,2.228,2.228,0,0,0,.111-.222c.008-.017.014-.035.02-.053.024-.061.047-.122.066-.183,0-.015.008-.03.013-.046.019-.068.035-.136.047-.2,0-.008,0-.017,0-.026a2.2,2.2,0,0,0-4.067-1.464l-.234.406-1.451,7.219a7.5,7.5,0,0,1,3.762.7Z" transform="translate(-233.514 -238.626)" fill="#ffc7ab"/>
      <path id="Trazado_700002" data-name="Trazado 700002" d="M314.8,330.383l.407-.659a2.216,2.216,0,0,0-.173.252,2.228,2.228,0,0,0,.111-.222c.008-.017.014-.035.02-.053.024-.061.047-.122.066-.183,0-.015.008-.03.013-.046.019-.068.035-.136.047-.2,0-.008,0-.017,0-.026a2.2,2.2,0,0,0-4.067-1.464l-.234.406-1.451,7.219a7.5,7.5,0,0,1,3.762.7Z" transform="translate(-233.514 -238.626)" fill="#ffc7ab"/>
      <path id="Trazado_700003" data-name="Trazado 700003" d="M458.3,109.276a2.141,2.141,0,0,0-2.132,1.052l-1.171,2.029a2.141,2.141,0,0,0,.4,2.64l6.54,3.776,3.2-5.548Z" transform="translate(-343.019 -74.608)" fill="#deeeff"/>
      <path id="Trazado_700004" data-name="Trazado 700004" d="M440.853,98.574l-3.2,5.548,5.369,3.1a2.07,2.07,0,0,1-.758-2.828l1.133-1.962a2.07,2.07,0,0,1,2.828-.758Z" transform="translate(-330.152 -66.548)" fill="#a9bbfc"/>
      <path id="Trazado_700005" data-name="Trazado 700005" d="M462.093,66.581a6.591,6.591,0,0,0-9,2.413l-2.876,4.982,11.416,6.591,2.876-4.982A6.591,6.591,0,0,0,462.093,66.581Z" transform="translate(-339.629 -41.746)" fill="#ff4155"/>
      <path id="Trazado_700006" data-name="Trazado 700006" d="M144.226,94.547a6.959,6.959,0,0,0-.962,9.974c-.071.044-.153.1-.239.154a12.979,12.979,0,0,1,1.885,1.165c8.678,6.438,13.22,6.4,19.687,3.662V94.547Z" transform="translate(-106.82 -63.51)" fill="#ffc839"/>
      <path id="Trazado_700007" data-name="Trazado 700007" d="M85.1,97.212v9.429c3.837-2.4,9.933-4.92,15.676-1.768.251-.159.406-.24.406-.24-4.65-6.114,1.013-10.086,1.013-10.086H87.762A2.666,2.666,0,0,0,85.1,97.212Z" transform="translate(-64.194 -63.509)" fill="#ffb332"/>
      <circle id="Elipse_5589" data-name="Elipse 5589" cx="5.469" cy="5.469" r="5.469" transform="translate(39.506 40.124) rotate(-23.259)" fill="#ffdd40"/>
      <path id="Trazado_700008" data-name="Trazado 700008" d="M137.128,135.093a12.983,12.983,0,0,0-1.849-1.147c.066.1.133.2.2.3a8.942,8.942,0,0,0-4.02,5.157c-.506,2.129.08,4.392,1.744,6.727l.014.04a4.172,4.172,0,0,1,1.993,3.108,4.217,4.217,0,0,1-.208,1.854h21.81V138.755C150.348,141.492,145.806,141.532,137.128,135.093Z" transform="translate(-99.039 -93.232)" fill="#3ece9a"/>
      <g id="Grupo_950593" data-name="Grupo 950593" transform="translate(20.902 39.416)">
        <path id="Trazado_700009" data-name="Trazado 700009" d="M96.578,141.589a4.167,4.167,0,0,1,2.321.964l-.208-.585c-5.363-7.473,2.447-11.579,2.486-11.6-5.859-3.5-12.154-.919-16.08,1.539v7.505a4.855,4.855,0,0,1,2.081-.725,4.946,4.946,0,0,1,5.142,3.157,1,1,0,0,0,.647.608.97.97,0,0,0,.849-.13A4.15,4.15,0,0,1,96.578,141.589Z" transform="translate(-85.096 -128.661)" fill="#2bbc85"/>
      </g>
      <path id="Trazado_700010" data-name="Trazado 700010" d="M100.533,176.772a4.541,4.541,0,0,0-3.923-5.9,4.517,4.517,0,0,0-2.995.8.645.645,0,0,1-.966-.314,5.281,5.281,0,0,0-5.507-3.383,5.194,5.194,0,0,0-2.045.665v5.472a2.666,2.666,0,0,0,2.666,2.666h12.769Z" transform="translate(-64.196 -118.876)" fill="#55deb0"/>
      <path id="Trazado_700011" data-name="Trazado 700011" d="M128.951,364.778a8.623,8.623,0,0,0-1.342.733,4.766,4.766,0,0,0-2.361,3.988v13.058l.046,0a6.9,6.9,0,0,1,6.889,6.889v2.193h3.281v-2.193a6.889,6.889,0,1,1,13.778,0v2.193h3.019v-26.86Z" transform="translate(-94.484 -267.365)" fill="#3c58a0"/>
      <path id="Trazado_700012" data-name="Trazado 700012" d="M85.1,367.445v16.366q1.743,1.5,3.6,2.87A6.9,6.9,0,0,1,95,382.557c.108,0,.216,0,.323.008V369.5c0-3.525,4.4-4.721,4.4-4.721H87.762A2.666,2.666,0,0,0,85.1,367.445Z" transform="translate(-64.194 -267.366)" fill="#2a428c"/>
      <path id="Trazado_700013" data-name="Trazado 700013" d="M140.141,229.662l.034.029a7.119,7.119,0,0,0-2.045,4.345,7.515,7.515,0,0,0,2.089,5.428l-.171.157a12.856,12.856,0,0,1,2.232,1.334c8.678,6.438,13.22,6.4,19.687,3.662V229.662H140.141Z" transform="translate(-104.191 -165.437)" fill="#55deb0"/>
      <path id="Trazado_700014" data-name="Trazado 700014" d="M100.747,229.663H87.763a2.666,2.666,0,0,0-2.666,2.666v9.429c3.756-2.352,9.678-4.815,15.313-1.961.21-.193.337-.294.337-.294-5.081-5.608,0-9.84,0-9.84Z" transform="translate(-64.195 -165.438)" fill="#3ece9a"/>
      <path id="Trazado_700015" data-name="Trazado 700015" d="M135.65,269.436a12.8,12.8,0,0,0-2.369-1.4c.1.126.2.251.308.377a12.911,12.911,0,0,0-4.212,7.915c-.3,3.061.771,6.119,3.2,9.1l-.05.046h3.388v-2.193a6.889,6.889,0,0,1,13.778,0v2.193h5.65V273.1C148.869,275.834,144.327,275.874,135.65,269.436Z" transform="translate(-97.56 -194.386)" fill="#3c58a0"/>
      <path id="Trazado_700016" data-name="Trazado 700016" d="M100.744,265.246c-5.734-3.127-11.817-.614-15.647,1.784V279.6a2.666,2.666,0,0,0,2.666,2.666H99.724c-8.141-9.637.905-16.926,1.02-17.018Z" transform="translate(-64.195 -191.18)" fill="#2a428c"/>
      <path id="Trazado_700017" data-name="Trazado 700017" d="M161.936,300.61a7.262,7.262,0,0,0-7.241,7.241v2.193h14.481v-2.193A7.262,7.262,0,0,0,161.936,300.61Z" transform="translate(-116.698 -218.959)" fill="#49b1f7"/>
      <path id="Trazado_700018" data-name="Trazado 700018" d="M174.79,267.494c0,2.5-2.028,5.077-4.53,5.077s-4.53-2.575-4.53-5.077a4.539,4.539,0,0,1,9.06,0Z" transform="translate(-125.022 -190.765)" fill="#ffc7ab"/>
      <path id="Trazado_700019" data-name="Trazado 700019" d="M172.648,435.725a7.262,7.262,0,0,0-7.241,7.241v2.193h14.481v-2.193A7.262,7.262,0,0,0,172.648,435.725Z" transform="translate(-124.779 -320.886)" fill="#49b1f7"/>
      <path id="Trazado_700020" data-name="Trazado 700020" d="M185.5,402.61c0,2.5-2.028,5.077-4.53,5.077s-4.53-2.575-4.53-5.077a4.539,4.539,0,0,1,9.06,0Z" transform="translate(-133.103 -292.693)" fill="#ffc7ab"/>
      <path id="Trazado_700021" data-name="Trazado 700021" d="M105.179,435.725a7.263,7.263,0,0,0-6.6,4.266,60.2,60.2,0,0,0,8.238,5.167h5.6v-2.193A7.262,7.262,0,0,0,105.179,435.725Z" transform="translate(-74.369 -320.886)" fill="#ffdd40"/>
      <path id="Trazado_700022" data-name="Trazado 700022" d="M116.051,402.61c0,2.5-2.028,5.077-4.53,5.077s-4.53-2.575-4.53-5.077a4.539,4.539,0,0,1,9.06,0Z" transform="translate(-80.711 -292.693)" fill="#ffc7ab"/>
      <circle id="Elipse_5590" data-name="Elipse 5590" cx="2.65" cy="2.65" r="2.65" transform="translate(117.581 29.62) rotate(-48.528)" fill="#ff7186"/>
      <g id="Grupo_950594" data-name="Grupo 950594" transform="translate(81.289 39.451)">
        <path id="Trazado_700023" data-name="Trazado 700023" d="M365.087,131.233l-4.211-2.431-29.64,51.338a2.185,2.185,0,0,1-.289.969,2.2,2.2,0,0,1,3.805,2.2,2.184,2.184,0,0,1,.695-.734Z" transform="translate(-330.948 -128.802)" fill="#ffb332"/>
      </g>
      <g id="Grupo_950595" data-name="Grupo 950595" transform="translate(77.484 37.371)">
        <path id="Trazado_700024" data-name="Trazado 700024" d="M318.456,171.719a2.2,2.2,0,0,1,.8,3l30.131-52.189-3.805-2.2-30.131,52.189A2.2,2.2,0,0,1,318.456,171.719Z" transform="translate(-315.455 -120.334)" fill="#ff8f33"/>
      </g>
      <g id="Grupo_950596" data-name="Grupo 950596" transform="translate(85.095 41.765)">
        <path id="Trazado_700025" data-name="Trazado 700025" d="M376.571,138.223,346.44,190.412a2.2,2.2,0,0,1,3.806,2.2l30.131-52.189Z" transform="translate(-346.44 -138.223)" fill="#ffdd40"/>
      </g>
      <circle id="Elipse_5591" data-name="Elipse 5591" cx="2.232" cy="2.232" r="2.232" transform="translate(45.85 39.415)" fill="#ffeb97"/>
      <path id="Trazado_700026" data-name="Trazado 700026" d="M413.5,236.256c-5.8,9.494-13.061,17.682-13.061,28.325,0,6.725,1.785,11.618,4.277,14.31a59.987,59.987,0,0,0,17.722-42.646,60.813,60.813,0,0,0-.366-6.64A15.612,15.612,0,0,0,413.5,236.256Z" transform="translate(-302.084 -165.394)" fill="#73c3f9"/>
      <path id="Trazado_700027" data-name="Trazado 700027" d="M5.853,216.368a17.784,17.784,0,0,0,1.567-6.66V178.7A14.14,14.14,0,0,0,3.978,168.9a60.321,60.321,0,0,0,1.875,47.463Z" transform="translate(0 -119.603)" fill="#73c3f9"/>
    </g>
  </g>
</svg>
