<svg xmlns="http://www.w3.org/2000/svg" width="127" height="127" viewBox="0 0 127 127">
  <g id="Grupo_953265" data-name="Grupo 953265" transform="translate(-1052 -4497.767)">
    <circle id="Elipse_5603" data-name="Elipse 5603" cx="63.5" cy="63.5" r="63.5" transform="translate(1052 4497.767)" fill="#ccd3ca"/>
    <g id="lista-de-verificacion" transform="translate(1066 4511.375)">
      <g id="Circle_Grid" data-name="Circle Grid" transform="translate(0 0.393)">
        <circle id="Elipse_5669" data-name="Elipse 5669" cx="49.5" cy="49.5" r="49.5" fill="#83a878"/>
      </g>
      <g id="icon" transform="translate(17.811 18.393)">
        <path id="Trazado_704919" data-name="Trazado 704919" d="M23,23.771H72.568V86.077H23Z" transform="translate(-23 -23.771)" fill="#eeefee"/>
        <path id="Trazado_704920" data-name="Trazado 704920" d="M30.118,36.763l-3.206-3.2,1.309-1.309,1.9,1.9,5.087-5.088,1.308,1.309Z" transform="translate(-23.883 -24.964)" fill="#ef5261"/>
        <path id="Trazado_704921" data-name="Trazado 704921" d="M42.633,35.942H63.869v1.423H42.633Z" transform="translate(-27.429 -26.517)" fill="#dbd8dd"/>
        <path id="Trazado_704922" data-name="Trazado 704922" d="M42.633,30.748H73.967v1.423H42.633Z" transform="translate(-27.429 -25.345)" fill="#dbd8dd"/>
        <path id="Trazado_704923" data-name="Trazado 704923" d="M30.118,51.746l-3.206-3.2,1.309-1.309,1.9,1.9,5.087-5.088,1.308,1.309Z" transform="translate(-23.883 -28.344)" fill="#575b6d"/>
        <path id="Trazado_704924" data-name="Trazado 704924" d="M42.633,50.925H63.869v1.423H42.633Z" transform="translate(-27.429 -29.897)" fill="#dbd8dd"/>
        <path id="Trazado_704925" data-name="Trazado 704925" d="M42.633,45.731H73.967v1.423H42.633Z" transform="translate(-27.429 -28.725)" fill="#dbd8dd"/>
        <path id="Trazado_704926" data-name="Trazado 704926" d="M30.118,66.73l-3.206-3.205,1.309-1.309,1.9,1.9,5.087-5.088,1.308,1.309Z" transform="translate(-23.883 -31.724)" fill="#575b6d"/>
        <path id="Trazado_704927" data-name="Trazado 704927" d="M42.633,65.909H63.869v1.423H42.633Z" transform="translate(-27.429 -33.277)" fill="#dbd8dd"/>
        <path id="Trazado_704928" data-name="Trazado 704928" d="M42.633,60.714H73.967v1.423H42.633Z" transform="translate(-27.429 -32.105)" fill="#dbd8dd"/>
        <path id="Trazado_704929" data-name="Trazado 704929" d="M30.118,81.713l-3.206-3.205L28.221,77.2l1.9,1.9,5.087-5.087,1.308,1.308Z" transform="translate(-23.883 -35.105)" fill="#ef5261"/>
        <path id="Trazado_704930" data-name="Trazado 704930" d="M42.633,80.892H54.142v1.423H42.633Z" transform="translate(-27.429 -36.658)" fill="#dbd8dd"/>
        <path id="Trazado_704931" data-name="Trazado 704931" d="M42.633,75.7H62.259V77.12H42.633Z" transform="translate(-27.429 -35.486)" fill="#dbd8dd"/>
        <path id="Trazado_704932" data-name="Trazado 704932" d="M30.118,96.7l-3.206-3.2,1.309-1.309,1.9,1.9,5.087-5.088L36.513,90.3Z" transform="translate(-23.883 -38.485)" fill="#575b6d"/>
        <path id="Trazado_704933" data-name="Trazado 704933" d="M42.633,95.875H71.612V97.3H42.633Z" transform="translate(-27.429 -40.038)" fill="#dbd8dd"/>
        <path id="Trazado_704934" data-name="Trazado 704934" d="M42.633,90.681H60.912V92.1H42.633Z" transform="translate(-27.429 -38.866)" fill="#dbd8dd"/>
        <path id="Trazado_704935" data-name="Trazado 704935" d="M102.142,45.993,99.62,49.781l-5.874-3.912,2.52-3.788a1.893,1.893,0,0,1,2.628-.527l2.726,1.815a1.892,1.892,0,0,1,.522,2.624Z" transform="translate(-38.961 -27.711)" fill="#575b6d"/>
        <path id="Trazado_704936" data-name="Trazado 704936" d="M75.343,87.375l-6.326,3.133.452-7.047A5.491,5.491,0,0,1,75.343,87.375Z" transform="translate(-33.382 -37.23)" fill="#f6b863"/>
        <path id="Trazado_704937" data-name="Trazado 704937" d="M94.173,51.13l-18.7,28.076a6.648,6.648,0,0,0-1.212-2.119A4.856,4.856,0,0,0,72.024,75.6a6.646,6.646,0,0,0-2.422-.3L88.3,47.218Z" transform="translate(-33.514 -29.061)" fill="#16a897"/>
        <path id="Trazado_704938" data-name="Trazado 704938" d="M0,0H7.06V2.985H0Z" transform="matrix(0.832, 0.554, -0.554, 0.832, 55.501, 17.03)" fill="#eeefee"/>
        <path id="Trazado_704939" data-name="Trazado 704939" d="M92.136,52.065,74.968,77.844a4.856,4.856,0,0,0-2.239-1.491L89.9,50.574Z" transform="translate(-34.219 -29.818)" fill="#2cbfae"/>
        <path id="Trazado_704940" data-name="Trazado 704940" d="M72.33,89.854a2.865,2.865,0,0,0-3.077-2.034l-.232,3.675,3.233-1.654" transform="translate(-33.382 -38.216)" fill="#575b6d"/>
      </g>
    </g>
  </g>
</svg>
