<svg xmlns="http://www.w3.org/2000/svg" width="505" height="471.816" viewBox="0 0 505 471.816">
  <g id="Grupo_948139" data-name="Grupo 948139" transform="translate(-39.388 -16.193)">
    <path id="Rectángulo_337775" data-name="Rectángulo 337775" d="M5.174,0h22.4a0,0,0,0,1,0,0V280.778a0,0,0,0,1,0,0H5.174A5.174,5.174,0,0,1,0,275.6V5.174A5.174,5.174,0,0,1,5.174,0Z" transform="translate(76.084 158.534)" fill="#47b"/>
    <path id="Rectángulo_337776" data-name="Rectángulo 337776" d="M5.174,0h22.4a0,0,0,0,1,0,0V280.778a0,0,0,0,1,0,0H5.174A5.174,5.174,0,0,1,0,275.6V5.174A5.174,5.174,0,0,1,5.174,0Z" transform="translate(83.252 158.534)" fill="#3e65ae"/>
    <path id="Trazado_692082" data-name="Trazado 692082" d="M292.283,148.26s-33.438-8.925-93.26-14.937-97.691-5.316-97.691-5.316v301.45s123.558,3.549,190.951-21.38Z" transform="translate(11.145 19.905)" fill="#fff"/>
    <g id="Grupo_948103" data-name="Grupo 948103" transform="translate(129.096 163.613)">
      <g id="Grupo_948086" data-name="Grupo 948086">
        <path id="Trazado_692083" data-name="Trazado 692083" d="M270.9,160.651c-66.251-13.4-154.6-13.56-155.482-13.56V141.31c.89,0,89.8.157,156.63,13.674Z" transform="translate(-115.417 -141.31)" fill="#d9e5ec"/>
      </g>
      <g id="Grupo_948087" data-name="Grupo 948087" transform="translate(0 16.446)">
        <path id="Trazado_692084" data-name="Trazado 692084" d="M270.964,173.013C204.75,161.167,116.3,161.03,115.417,161.03v-5.782c.891,0,89.853.138,156.565,12.073Z" transform="translate(-115.417 -155.248)" fill="#d9e5ec"/>
      </g>
      <g id="Grupo_948088" data-name="Grupo 948088" transform="translate(0 32.89)">
        <path id="Trazado_692085" data-name="Trazado 692085" d="M271.028,185.372c-66.151-10.284-154.725-10.4-155.611-10.4v-5.783c.891,0,89.9.12,156.5,10.475Z" transform="translate(-115.417 -169.185)" fill="#d9e5ec"/>
      </g>
      <g id="Grupo_948089" data-name="Grupo 948089" transform="translate(0 49.336)">
        <path id="Trazado_692086" data-name="Trazado 692086" d="M271.095,197.732c-66.11-8.726-154.79-8.827-155.678-8.827v-5.782c.892,0,89.952.1,156.434,8.877Z" transform="translate(-115.417 -183.123)" fill="#d9e5ec"/>
      </g>
      <g id="Grupo_948090" data-name="Grupo 948090" transform="translate(0 65.782)">
        <path id="Trazado_692087" data-name="Trazado 692087" d="M271.161,210.09c-66.051-7.163-154.854-7.247-155.744-7.247v-5.782c.892,0,90,.083,156.368,7.28Z" transform="translate(-115.417 -197.061)" fill="#d9e5ec"/>
      </g>
      <g id="Grupo_948091" data-name="Grupo 948091" transform="translate(0 82.227)">
        <path id="Trazado_692088" data-name="Trazado 692088" d="M271.229,222.445c-66-5.6-154.921-5.665-155.812-5.665V211c.893,0,90.05.065,156.3,5.685Z" transform="translate(-115.417 -210.999)" fill="#d9e5ec"/>
      </g>
      <g id="Grupo_948092" data-name="Grupo 948092" transform="translate(0 98.673)">
        <path id="Trazado_692089" data-name="Trazado 692089" d="M271.3,234.8c-65.954-4.034-154.987-4.081-155.879-4.081v-5.782c.893,0,90.1.047,156.232,4.092Z" transform="translate(-115.417 -224.937)" fill="#d9e5ec"/>
      </g>
      <g id="Grupo_948093" data-name="Grupo 948093" transform="translate(0 115.119)">
        <path id="Trazado_692090" data-name="Trazado 692090" d="M271.365,247.152c-65.907-2.467-155.054-2.5-155.948-2.5v-5.782c.894,0,90.148.028,156.164,2.5Z" transform="translate(-115.417 -238.875)" fill="#d9e5ec"/>
      </g>
      <g id="Grupo_948094" data-name="Grupo 948094" transform="translate(0 131.563)">
        <path id="Trazado_692091" data-name="Trazado 692091" d="M271.433,259.5c-65.858-.9-155.122-.91-156.016-.91v-5.782c.894,0,90.2.011,156.1.91Z" transform="translate(-115.417 -252.812)" fill="#d9e5ec"/>
      </g>
      <g id="Grupo_948095" data-name="Grupo 948095" transform="translate(0 147.331)">
        <path id="Trazado_692092" data-name="Trazado 692092" d="M115.417,272.635v-5.782c.894,0,90.246-.008,156.027-.678l.058,5.782C205.692,272.627,116.313,272.635,115.417,272.635Z" transform="translate(-115.417 -266.175)" fill="#d9e5ec"/>
      </g>
      <g id="Grupo_948096" data-name="Grupo 948096" transform="translate(0 162.188)">
        <path id="Trazado_692093" data-name="Trazado 692093" d="M115.417,286.815v-5.782c.9,0,90.3-.026,155.957-2.267l.2,5.78C205.811,286.789,116.313,286.815,115.417,286.815Z" transform="translate(-115.417 -278.767)" fill="#d9e5ec"/>
      </g>
      <g id="Grupo_948097" data-name="Grupo 948097" transform="translate(0 177.049)">
        <path id="Trazado_692094" data-name="Trazado 692094" d="M115.417,300.994v-5.78c.9,0,90.348-.045,155.889-3.851l.334,5.772C205.929,300.95,116.314,300.994,115.417,300.994Z" transform="translate(-115.417 -291.362)" fill="#d9e5ec"/>
      </g>
      <g id="Grupo_948098" data-name="Grupo 948098" transform="translate(0 191.913)">
        <path id="Trazado_692095" data-name="Trazado 692095" d="M115.417,315.174v-5.782c.9,0,90.4-.063,155.819-5.434l.472,5.76C206.049,315.112,116.315,315.174,115.417,315.174Z" transform="translate(-115.417 -303.959)" fill="#d9e5ec"/>
      </g>
      <g id="Grupo_948099" data-name="Grupo 948099" transform="translate(0 206.775)">
        <path id="Trazado_692096" data-name="Trazado 692096" d="M115.417,329.352v-5.782c.9,0,90.448-.081,155.751-7.016l.61,5.75C206.167,329.272,116.316,329.352,115.417,329.352Z" transform="translate(-115.417 -316.555)" fill="#d9e5ec"/>
      </g>
      <g id="Grupo_948100" data-name="Grupo 948100" transform="translate(0 221.64)">
        <path id="Trazado_692097" data-name="Trazado 692097" d="M115.417,343.532V337.75c.9,0,90.5-.1,155.682-8.6l.747,5.734C206.285,343.432,116.317,343.532,115.417,343.532Z" transform="translate(-115.417 -329.153)" fill="#d9e5ec"/>
      </g>
      <g id="Grupo_948101" data-name="Grupo 948101" transform="translate(0 236.508)">
        <path id="Trazado_692098" data-name="Trazado 692098" d="M115.417,357.709v-5.782c.9,0,90.547-.117,155.614-10.173l.884,5.713C206.4,357.592,116.318,357.709,115.417,357.709Z" transform="translate(-115.417 -341.754)" fill="#d9e5ec"/>
      </g>
      <g id="Grupo_948102" data-name="Grupo 948102" transform="translate(0 251.376)">
        <path id="Trazado_692099" data-name="Trazado 692099" d="M115.417,371.889v-5.782c.9,0,90.6-.137,155.547-11.752l1.018,5.691C206.522,371.753,116.32,371.889,115.417,371.889Z" transform="translate(-115.417 -354.355)" fill="#d9e5ec"/>
      </g>
    </g>
    <path id="Trazado_692100" data-name="Trazado 692100" d="M264.687,145.422V405.239l-9.975,2.835V143.76Z" transform="translate(38.741 22.744)" fill="#d9e5ec"/>
    <path id="Rectángulo_337777" data-name="Rectángulo 337777" d="M0,0H25.337a4.579,4.579,0,0,1,4.579,4.579V333.352a4.579,4.579,0,0,1-4.579,4.579H0a0,0,0,0,1,0,0V0A0,0,0,0,1,0,0Z" transform="translate(475.625 132.547)" fill="#47b"/>
    <path id="Rectángulo_337778" data-name="Rectángulo 337778" d="M0,0H25.337a4.579,4.579,0,0,1,4.579,4.579V333.352a4.579,4.579,0,0,1-4.579,4.579H0a0,0,0,0,1,0,0V0A0,0,0,0,1,0,0Z" transform="translate(470.014 132.547)" fill="#3e65ae"/>
    <path id="Trazado_692101" data-name="Trazado 692101" d="M263.166,150.122s109.486-34.487,178.71-32.4l11.31,4.911-.195,323.371-11.115,3.3L263.166,409.94Z" transform="translate(40.262 18.043)" fill="#cad9e0"/>
    <path id="Trazado_692102" data-name="Trazado 692102" d="M263.166,151.072S374.395,106.1,441.65,113.093V457.462s-42.812,10.649-178.484-46.573Z" transform="translate(40.262 17.093)" fill="#d9e5ec"/>
    <path id="Trazado_692103" data-name="Trazado 692103" d="M263.166,412.75S346.444,457.6,424.3,472.777V102.014s-122.407,12.2-161.13,50.918Z" transform="translate(40.262 15.233)" fill="#fff"/>
    <path id="Trazado_692104" data-name="Trazado 692104" d="M268.984,164.352s51.935-32.808,137.378-43.419V447.067s-69.247-15.636-137.378-53.611Z" transform="translate(41.309 18.637)" fill="#c1e5f6"/>
    <path id="Trazado_692105" data-name="Trazado 692105" d="M379.421,211.376a12.669,12.669,0,0,0-8.147-6.759c-1.6-.446-3.729-.211-5.2-.966-1.8-.924-2.875-3.06-4.585-4.217a11.774,11.774,0,0,0-18.368,10.075c-2.313-2.9-7.677-3.544-10.571-1.212a8.733,8.733,0,0,0-2.8,6.6c.011.425-14.063.106-9.72,8.7,1.514,3,6.333,4.2,9.415,4.575,3.723.457,8.145,0,10.174-3.159a16.822,16.822,0,0,0,25.105,2.281c3.317,4.28,10.708,3.583,14.115-.623S382.01,216.132,379.421,211.376Z" transform="translate(50.343 32.404)" fill="#fff"/>
    <g id="Grupo_948107" data-name="Grupo 948107" transform="translate(212.888 62.55)">
      <g id="Grupo_948106" data-name="Grupo 948106" transform="translate(0 0)">
        <path id="Trazado_692106" data-name="Trazado 692106" d="M243.06,105.566S218.372,96.073,208.332,88.3c-12.675-9.813-19.2-24.43-21.823-31.138a1.1,1.1,0,0,1,1.029-1.5c7.2.014,23.19.807,36.927,9.07,10.88,6.544,28.667,26.12,28.667,26.12Z" transform="translate(-186.432 -55.658)" fill="#f2f2f2"/>
        <circle id="Elipse_5533" data-name="Elipse 5533" cx="4.704" cy="4.704" r="4.704" transform="translate(21.988 13.91)" fill="#90c8ee"/>
        <path id="Trazado_692107" data-name="Trazado 692107" d="M217.7,81.551a3.412,3.412,0,1,1,4.743-.888A3.411,3.411,0,0,1,217.7,81.551Z" transform="translate(-181.073 -52.12)" fill="#90c8ee"/>
        <g id="Grupo_948104" data-name="Grupo 948104" transform="translate(21.175 13.097)">
          <path id="Trazado_692108" data-name="Trazado 692108" d="M209.887,77.791a5.484,5.484,0,0,1-3.108-.963h0a5.523,5.523,0,1,1,3.108.963ZM207.7,75.485a3.89,3.89,0,1,0-1.012-5.406,3.895,3.895,0,0,0,1.012,5.406Z" transform="translate(-204.378 -66.758)" fill="#e73555"/>
        </g>
        <g id="Grupo_948105" data-name="Grupo 948105" transform="translate(34.221 22.277)">
          <path id="Trazado_692109" data-name="Trazado 692109" d="M219.763,83.212a4.335,4.335,0,1,1,3.587-1.886A4.31,4.31,0,0,1,219.763,83.212Zm.013-6.823a2.488,2.488,0,1,0,1.4.435A2.468,2.468,0,0,0,219.776,76.388Z" transform="translate(-215.435 -74.538)" fill="#e73555"/>
        </g>
        <path id="Trazado_692110" data-name="Trazado 692110" d="M203.079,57.02a89.4,89.4,0,0,0-15.541-1.362,1.1,1.1,0,0,0-1.029,1.5,89.292,89.292,0,0,0,6.862,13.94A18.4,18.4,0,0,0,203.079,57.02Z" transform="translate(-186.432 -55.658)" fill="#e73555"/>
        <path id="Trazado_692111" data-name="Trazado 692111" d="M230.207,98.8c3.027,1.251,4.977,2,4.977,2l10.073-14.718s-1.405-1.547-3.667-3.915Z" transform="translate(-178.556 -50.889)" fill="#f28c00"/>
        <path id="Trazado_692112" data-name="Trazado 692112" d="M222.385,92.876c.533,5.1,1.452,12.968,2.918,15.6s16.808,6.833,16.808,6.833l2.839-4.147s-11.213-6.02-11.868-7.169-.442-6.707-.442-6.707Z" transform="translate(-179.964 -48.962)" fill="#e73555"/>
        <path id="Trazado_692113" data-name="Trazado 692113" d="M233.868,76.553c4.945-1.35,12.613-3.342,15.6-2.931s12.455,13.2,12.455,13.2l-2.839,4.147s-9.671-8.272-10.979-8.467-6.412,2.016-6.412,2.016Z" transform="translate(-177.898 -52.436)" fill="#e73555"/>
      </g>
      <path id="Trazado_692114" data-name="Trazado 692114" d="M241.239,88.94c12.245,6.342,58.738,20.6,68.776,71.124,10.913,54.929-35.274,89.794-35.274,89.794V170.108s4.41-25.456-7.507-43.419-30.253-31.53-30.253-31.53Z" transform="translate(-177.337 -49.67)" fill="#f49338"/>
      <path id="Trazado_692115" data-name="Trazado 692115" d="M238.187,92.776s21.926,12.9,34.207,29.218c14.273,18.967,23.384,56.853,2.131,80.814v31.938s22-19.247,26.774-47.935c5.36-32.194-10.3-69.317-61.652-96.168Z" transform="translate(-177.121 -49.364)" fill="#fecb2f"/>
    </g>
    <g id="Grupo_948111" data-name="Grupo 948111" transform="translate(197.739 128.288)">
      <path id="Trazado_692116" data-name="Trazado 692116" d="M330.828,184.2s-19.282,31.555-23.8,107.826" transform="translate(-149.585 -98.268)" fill="none" stroke="#7c4545" stroke-linecap="round" stroke-miterlimit="10" stroke-width="2.94"/>
      <path id="Trazado_692117" data-name="Trazado 692117" d="M280.752,117.709c-6.53,11.785-30.285,69.6-37.263,99.8a311.989,311.989,0,0,0-7.921,77.969" transform="translate(-162.469 -110.231)" fill="none" stroke="#7c4545" stroke-linecap="round" stroke-miterlimit="10" stroke-width="2.94"/>
      <line id="Línea_2772" data-name="Línea 2772" x1="4.063" y2="13.013" transform="translate(145.947 189.142)" fill="none" stroke="#7c4545" stroke-linecap="round" stroke-miterlimit="10" stroke-width="1.96"/>
      <line id="Línea_2773" data-name="Línea 2773" x1="4.063" y2="13.013" transform="translate(138.972 186.621)" fill="none" stroke="#7c4545" stroke-linecap="round" stroke-miterlimit="10" stroke-width="1.96"/>
      <line id="Línea_2774" data-name="Línea 2774" x1="4.063" y2="13.013" transform="translate(131.918 185.249)" fill="none" stroke="#7c4545" stroke-linecap="round" stroke-miterlimit="10" stroke-width="1.96"/>
      <line id="Línea_2775" data-name="Línea 2775" x1="3.083" y2="13.013" transform="translate(125.843 183.876)" fill="none" stroke="#7c4545" stroke-linecap="round" stroke-miterlimit="10" stroke-width="1.96"/>
      <line id="Línea_2776" data-name="Línea 2776" x1="3.28" y2="14.357" transform="translate(119.095 181.292)" fill="none" stroke="#7c4545" stroke-linecap="round" stroke-miterlimit="10" stroke-width="1.96"/>
      <line id="Línea_2777" data-name="Línea 2777" x1="2.792" y2="13.965" transform="translate(112.554 179.793)" fill="none" stroke="#7c4545" stroke-linecap="round" stroke-miterlimit="10" stroke-width="1.96"/>
      <path id="Trazado_692118" data-name="Trazado 692118" d="M262.652,261.7s31.517,4.339,53.671,15.758" transform="translate(-157.57 -84.325)" fill="none" stroke="#7c4545" stroke-linecap="round" stroke-miterlimit="10" stroke-width="2.94"/>
      <path id="Trazado_692119" data-name="Trazado 692119" d="M196.8,260.31c1.176,4.946,1.052,19.7,9.664,31.636,9.3,12.886,24.955,19.531,49.127,25.869s45.265,19.917,68.261,14.4S367.4,314.736,379.62,295c0,0-34.348-19.374-45.447-18.378s-8.69,7.333-15.932,9.054-33.769-5.793-37.571-12.041,4.074-15.752-25.621-18.286S208.028,248.935,196.8,260.31Z" transform="translate(-169.417 -85.961)" fill="#c48349"/>
      <path id="Trazado_692120" data-name="Trazado 692120" d="M317.44,321.315c-25.342-.3-73.569-22.928-84-38.266-6.1-8.966-10-7.83-10.436,0s-8.821,10.492-18.01,4.554c9.3,12.886,24.955,19.531,49.127,25.869s45.265,19.917,68.261,14.4a107.221,107.221,0,0,0,26.191-9.907C346.628,318.831,338.787,321.572,317.44,321.315Z" transform="translate(-167.944 -81.618)" fill="#bb7a44"/>
      <path id="Trazado_692121" data-name="Trazado 692121" d="M225.774,266.491c7.364-.235,27.188,1.108,34.049,3.6,0,0-21.193-1.588-33.663-1.373Z" transform="translate(-164.205 -83.467)" fill="#a2623c"/>
      <path id="Trazado_692122" data-name="Trazado 692122" d="M349.206,300.877c-10.867-7.127-33.365-16.015-33.365-16.015a128.531,128.531,0,0,1,35.051,14.166Z" transform="translate(-148 -80.157)" fill="#9b5c3e"/>
      <path id="Trazado_692123" data-name="Trazado 692123" d="M342.278,305.032a99.306,99.306,0,0,0-23.542-9.7s15.772,6.663,21.942,11.005Z" transform="translate(-147.479 -78.272)" fill="#9b5c3e"/>
      <path id="Trazado_692124" data-name="Trazado 692124" d="M218.366,276.8c-3.614.164-9.448,2.053-12.323,4.19a86.042,86.042,0,0,1,13.145-2.5Z" transform="translate(-167.755 -81.607)" fill="#9b5c3e"/>
      <path id="Trazado_692125" data-name="Trazado 692125" d="M217.132,267.305c-3.659.32-12.816,2.632-15.188,5.762,0,0,4.754-2.976,15.188-4Z" transform="translate(-168.492 -83.316)" fill="#9b5c3e"/>
      <path id="Trazado_692126" data-name="Trazado 692126" d="M227.559,276.184c6.219.2,15.919.4,20.285,1.184,0,0-15.115.912-20.277,1.24Z" transform="translate(-163.883 -81.718)" fill="#9b5c3e"/>
      <path id="Trazado_692127" data-name="Trazado 692127" d="M303.492,283.692c2.663-2.256,8.744-6.108,17.909-2.736,7.795,2.87,21.392,7.291,35.906,14.862l1.989-2.753s-4.149-7.711-20.044-12.543-23.017-8.149-27.015-7.2S303.492,283.692,303.492,283.692Z" transform="translate(-150.222 -82.262)" fill="#9b5c3e"/>
      <path id="Trazado_692128" data-name="Trazado 692128" d="M197.433,264.933c6.517-2.49,19.982-6.832,40.177-4.511s31.721,2.69,32.659,5.443a89.877,89.877,0,0,0,3.5,9.35c1.475,3.134,8.638,8.591,26.628,12.289l-2.116-3.169s-15.471-2.424-18.612-11.64.93-12.154-14.6-15.092-40.865-7.384-51.514-4.885a31.8,31.8,0,0,0-16.432,9.7Z" transform="translate(-169.359 -86.073)" fill="#9b5c3e"/>
      <g id="Grupo_948108" data-name="Grupo 948108" transform="translate(147.232 211.787)">
        <circle id="Elipse_5534" data-name="Elipse 5534" cx="6.443" cy="6.443" r="6.443" transform="translate(1.896 1.898)" fill="#542a33"/>
        <path id="Trazado_692129" data-name="Trazado 692129" d="M306.714,308.549a8.34,8.34,0,1,1,8.34-8.339A8.349,8.349,0,0,1,306.714,308.549Zm0-12.885a4.546,4.546,0,1,0,4.546,4.546A4.55,4.55,0,0,0,306.714,295.665Z" transform="translate(-298.374 -290.683)" fill="#9b5c3e"/>
        <path id="Trazado_692130" data-name="Trazado 692130" d="M306.714,307.545a8.34,8.34,0,1,1,8.34-8.34A8.35,8.35,0,0,1,306.714,307.545Zm0-12.886a4.546,4.546,0,1,0,4.546,4.546A4.55,4.55,0,0,0,306.714,294.659Z" transform="translate(-298.374 -290.864)" fill="#aa683a"/>
      </g>
      <g id="Grupo_948109" data-name="Grupo 948109" transform="translate(116.407 202.327)">
        <circle id="Elipse_5535" data-name="Elipse 5535" cx="6.443" cy="6.443" r="6.443" transform="translate(1.897 1.897)" fill="#542a33"/>
        <path id="Trazado_692131" data-name="Trazado 692131" d="M280.59,300.532a8.34,8.34,0,1,1,8.34-8.34A8.35,8.35,0,0,1,280.59,300.532Zm0-12.886a4.546,4.546,0,1,0,4.546,4.546A4.55,4.55,0,0,0,280.59,287.646Z" transform="translate(-272.25 -282.666)" fill="#9b5c3e"/>
        <path id="Trazado_692132" data-name="Trazado 692132" d="M280.59,299.528a8.34,8.34,0,1,1,8.34-8.34A8.35,8.35,0,0,1,280.59,299.528Zm0-12.886a4.546,4.546,0,1,0,4.546,4.546A4.55,4.55,0,0,0,280.59,286.642Z" transform="translate(-272.25 -282.847)" fill="#aa683a"/>
      </g>
      <g id="Grupo_948110" data-name="Grupo 948110" transform="translate(85.516 197.189)">
        <path id="Trazado_692133" data-name="Trazado 692133" d="M247.677,286.542a6.443,6.443,0,1,1,6.442,6.444A6.442,6.442,0,0,1,247.677,286.542Z" transform="translate(-245.78 -278.203)" fill="#542a33"/>
        <path id="Trazado_692134" data-name="Trazado 692134" d="M254.409,296.178a8.34,8.34,0,1,1,8.341-8.34A8.35,8.35,0,0,1,254.409,296.178Zm0-12.886a4.546,4.546,0,1,0,4.546,4.546A4.55,4.55,0,0,0,254.409,283.292Z" transform="translate(-246.069 -278.311)" fill="#9b5c3e"/>
        <path id="Trazado_692135" data-name="Trazado 692135" d="M254.409,295.171a8.34,8.34,0,1,1,8.341-8.338A8.349,8.349,0,0,1,254.409,295.171Zm0-12.885a4.546,4.546,0,1,0,4.546,4.546A4.55,4.55,0,0,0,254.409,282.287Z" transform="translate(-246.069 -278.492)" fill="#aa683a"/>
      </g>
      <path id="Trazado_692136" data-name="Trazado 692136" d="M218.524,249.934c-17.629.938-19.876,2.844-22.684,4.572s-.627,8.439.425,8.69c2.106.5,3.642-5.58,26.978-5.58s45.963,3.69,49.383,6.35c1.45,1.128,2.471,10.287,5.928,13.744s14.1,8.482,22.326,10.2c8.53,1.784,17.105,2.533,20.957.76,3.17-1.46,7.375-6.671,10.466-7.856,4.02-1.54,19.4,4.368,35.223,11.4,9.964,4.431,13.278,6.777,14.991,4.833s4.533-3.789-1.1-6.813a165.525,165.525,0,0,0-35.234-14.476c-18.15-5.186-19.23-3.025-22.687,2.376s-7.838,7.509-25.772,2.323-15.063-11.357-17.009-17.319-3.939-7.907-26.816-10.932S225.035,249.588,218.524,249.934Z" transform="translate(-169.838 -86.483)" fill="#aa683a"/>
      <path id="Trazado_692137" data-name="Trazado 692137" d="M176.382,234.4l-2.789,1.81.535,4.3s11.317,5.288,20.369,9.8c12,5.975,23.687,11.251,26.606,22.22,3.133,11.78,3.149,26.266,16.024,35.224l5.423.36s-9.5-15.835-11.327-31.7-3.1-18.964-16.41-25.163S176.382,234.4,176.382,234.4Z" transform="translate(-173.593 -89.236)" fill="#844b43"/>
      <path id="Trazado_692138" data-name="Trazado 692138" d="M256.071,312.049c-4.191-1.972-15.284-8.381-19.228-28.348s-3.344-23.827-6.8-28.51-11.311-6.946-27.469-12.656c-15.728-5.559-26.623-8.134-26.623-8.134l1.174,4.7s25.359,10.751,36.186,16.516c6.811,3.626,11.694,6.149,13.42,17.612s6.125,27.489,15.387,34.882Z" transform="translate(-173.168 -89.236)" fill="#935740"/>
      <path id="Trazado_692139" data-name="Trazado 692139" d="M225.028,180.313c8.258-5.718,43.237-10.445,81.045,15.822,0,0-10.305,6.008-16.846,25.873s-2.452,43.291-2.452,43.291-32.158-23.22-57.074-24.567-20.835,9.277-20.835,9.277-10.108-5.05-5.9-30.639S216.274,186.373,225.028,180.313Z" transform="translate(-168.492 -99.771)" fill="#263d47"/>
      <path id="Trazado_692140" data-name="Trazado 692140" d="M234.3,175.823s6.314-3.7,21.7-.742c21.873,4.206,33.178,12.775,33.178,12.775s-3.192-22.532,9.844-33.555c0,0-9.933-9.715-29.884-13.341s-25.792,3.107-30.5,8.177S229.565,167.692,234.3,175.823Z" transform="translate(-163.038 -106.233)" fill="#263d47"/>
      <path id="Trazado_692141" data-name="Trazado 692141" d="M272.145,123.281c6.813-.76,13.044,2.932,19.968,8.009s15,2.077,17.77,0a15.515,15.515,0,0,1-13.616,9.693c-10.616.808-17.1-6.953-31.051-1.862C273.882,132.547,277.776,126.944,272.145,123.281Z" transform="translate(-157.108 -109.246)" fill="#e73555"/>
      <circle id="Elipse_5536" data-name="Elipse 5536" cx="4.061" cy="4.061" r="4.061" transform="translate(115.841)" fill="#7c4545"/>
      <path id="Trazado_692142" data-name="Trazado 692142" d="M352.352,232.635c-6.59-6.336-23.542-20.782-49.152-17.233,0,0-9.518,3.795-14.029,16.473-6.261,17.591,2.991,29.905,2.991,29.905s2.917-3.887,10.009-3.5C320.678,259.3,348.043,278,348.043,278S338.16,250.123,352.352,232.635Z" transform="translate(-153.189 -92.754)" fill="#263d47"/>
      <path id="Trazado_692143" data-name="Trazado 692143" d="M337.734,222.746c-4.883-4.775-20.634-11.546-31.279-8.251a23.812,23.812,0,0,1,0-13.686,18.532,18.532,0,0,1,6.334-8.928c2.295-1.648,5.49-1.795,8.283-1.36,5.49.853,15.521,2.9,20.865,6.995A44.382,44.382,0,0,0,337.734,222.746Z" transform="translate(-149.871 -97.169)" fill="#263d47"/>
    </g>
    <g id="Grupo_948118" data-name="Grupo 948118" transform="translate(223.299 336.983)">
      <g id="Grupo_948112" data-name="Grupo 948112" transform="translate(0 9.335)">
        <path id="Trazado_692144" data-name="Trazado 692144" d="M235.22,296.252c-21.774-1.469-40.539,14.026-39.951,34.664a29.9,29.9,0,0,0,30.744,29.041,23.919,23.919,0,0,0,21.458-14.847q17.079,7.681,33.831,13.774C287.082,323.123,261.519,298.027,235.22,296.252Z" transform="translate(-195.256 -296.155)" fill="#68c7ea"/>
        <path id="Trazado_692145" data-name="Trazado 692145" d="M214.561,326.721a11.781,11.781,0,0,0,2.156,8.177c2.022,2.747,8.192,4.936,9.222-.034.386-1.861-.845-3.619-1.829-5.244a11.556,11.556,0,0,1-1.893-5.388,5.7,5.7,0,0,1,2.293-5.017c.526-.345,1.209-.715,1.189-1.343-.081-2.584-4.621-.309-5.612.294a11.748,11.748,0,0,0-4.914,5.913A11.178,11.178,0,0,0,214.561,326.721Z" transform="translate(-191.794 -292.465)" fill="#f2f2f2" opacity="0.6"/>
        <path id="Trazado_692146" data-name="Trazado 692146" d="M229.8,316.963a4.109,4.109,0,0,0-2.153-.995c-.779-.112-2.127-.142-2.326.867a.968.968,0,0,0,.368.946,1.461,1.461,0,0,0,.472.214c.806.232,1.674.15,2.487.357.491.126.953.355,1.452.442a.461.461,0,0,0,.4-.065.389.389,0,0,0,.1-.185,1.235,1.235,0,0,0-.326-1.11A5.27,5.27,0,0,0,229.8,316.963Z" transform="translate(-189.849 -292.6)" fill="#f2f2f2" opacity="0.6"/>
        <path id="Trazado_692147" data-name="Trazado 692147" d="M197.446,323.875a24.863,24.863,0,0,0,.789,11.345,7.128,7.128,0,0,0,1.2,2.55c.277.326,1.168,1.022,1.638.638.369-.3-.142-1.7-.234-2.139a36.237,36.237,0,0,1-.982-8.8c.014-.427.039-.854.071-1.28a32.176,32.176,0,0,1,2.155-9.376c.483-1.221,1.392-2.517,1.488-3.848a1.576,1.576,0,0,0-.427-1.271c-.553-.514-1.129-.244-1.463.3A32.583,32.583,0,0,0,197.446,323.875Z" transform="translate(-194.919 -293.409)" fill="#f2f2f2" opacity="0.6"/>
        <path id="Trazado_692148" data-name="Trazado 692148" d="M264.228,350.361c2.147,1.888,4.976-.068,5.06-2.5a72.018,72.018,0,0,0-.7-11.051,48.3,48.3,0,0,0-1.189-6.59,45.131,45.131,0,0,0-6.91-14.017c-.651-.935-4.176-5.954-5.531-4.483-.446.484-.2,1.258.1,1.845.7,1.39,1.543,2.7,2.314,4.057a46.121,46.121,0,0,1,5.785,27.23C262.958,346.793,262.764,349.075,264.228,350.361Z" transform="translate(-184.558 -293.403)" fill="#f2f2f2" opacity="0.6"/>
        <path id="Trazado_692149" data-name="Trazado 692149" d="M269.292,353.806s2.812-25-8.452-38.573-30.187-19.056-47.335-8.314-12.532,28.365-10.775,32.424,10.039,14.744,23.033,12.721,12.5-15.081,9.966-17.174c0,0-1.638,9.207-11.192,8.528s-14.479-12.35-8.137-20.946,18.378-8.638,25.735-1.5,7.393,15.335,4.333,23.226C246.469,344.194,261.451,351.049,269.292,353.806Z" transform="translate(-194.254 -295.24)" fill="#007cb6" opacity="0.1"/>
        <path id="Trazado_692150" data-name="Trazado 692150" d="M234.79,333.794s1.318,10.244-10.216,12.626-22.65-10.232-17.013-24.533,26.608-19.8,39.761-8.5c14.781,12.692,10.538,35.146,10.538,35.146l-12.33-5.432s5.79-12.644-3.246-22.127-21.908-7.392-26.822.406-3.265,15.721,4.466,19.917S234.626,338.623,234.79,333.794Z" transform="translate(-193.314 -294.143)" fill="#007cb6" opacity="0.25"/>
        <path id="Trazado_692151" data-name="Trazado 692151" d="M281.3,358.884c5.78-35.761-19.783-60.857-46.082-62.633-21.774-1.469-40.539,14.026-39.951,34.664a29.9,29.9,0,0,0,30.744,29.041,23.923,23.923,0,0,0,23.234-24.594,19.14,19.14,0,0,0-19.676-18.587,15.311,15.311,0,0,0-14.869,15.74,12.248,12.248,0,0,0,12.593,11.9,9.8,9.8,0,0,0,9.516-10.074" transform="translate(-195.256 -296.155)" fill="none" stroke="#007cb6" stroke-linecap="round" stroke-linejoin="round" stroke-width="0.819"/>
      </g>
      <g id="Grupo_948113" data-name="Grupo 948113" transform="translate(111.676 26.284)">
        <path id="Trazado_692152" data-name="Trazado 692152" d="M337.815,311.049c17.318,2.97,29.069,18.646,24.7,34.684a24.076,24.076,0,0,1-29.553,16.909,19.257,19.257,0,0,1-13.982-15.679q-14.819,2.779-29.08,4.377C292.146,322.263,316.9,307.462,337.815,311.049Z" transform="translate(-289.903 -310.52)" fill="#68c7ea"/>
        <path id="Trazado_692153" data-name="Trazado 692153" d="M338.03,337.87a9.487,9.487,0,0,1-3.235,5.992c-2.1,1.766-7.344,2.311-7.209-1.772.05-1.529,1.345-2.671,2.424-3.757a9.319,9.319,0,0,0,2.5-3.857,4.6,4.6,0,0,0-.846-4.361c-.346-.369-.811-.788-.676-1.275.553-2.007,3.674.632,4.336,1.292a9.446,9.446,0,0,1,2.726,5.556A9.011,9.011,0,0,1,338.03,337.87Z" transform="translate(-283.124 -307.357)" fill="#f2f2f2" opacity="0.6"/>
        <path id="Trazado_692154" data-name="Trazado 692154" d="M326.765,327.122a3.3,3.3,0,0,1,1.873-.372c.631.059,1.692.293,1.657,1.119a.781.781,0,0,1-.467.671,1.18,1.18,0,0,1-.411.078c-.675.028-1.338-.2-2.014-.191-.407.006-.813.1-1.22.072a.373.373,0,0,1-.3-.127.312.312,0,0,1-.041-.164.993.993,0,0,1,.465-.807A4.169,4.169,0,0,1,326.765,327.122Z" transform="translate(-283.438 -307.603)" fill="#f2f2f2" opacity="0.6"/>
        <path id="Trazado_692155" data-name="Trazado 692155" d="M351.328,338.749a20.035,20.035,0,0,1-2.765,8.728,5.767,5.767,0,0,1-1.423,1.769c-.278.2-1.108.578-1.4.189-.232-.307.433-1.306.588-1.628a29.259,29.259,0,0,0,2.433-6.7q.1-.506.188-1.016a25.9,25.9,0,0,0,.087-7.745,11.416,11.416,0,0,1-.435-3.292,1.271,1.271,0,0,1,.573-.913c.531-.3.931.022,1.089.512A26.242,26.242,0,0,1,351.328,338.749Z" transform="translate(-279.866 -307.371)" fill="#f2f2f2" opacity="0.6"/>
        <path id="Trazado_692156" data-name="Trazado 692156" d="M295.6,346.707c-2.038,1.071-3.881-1-3.487-2.912a58.08,58.08,0,0,1,2.641-8.515,38.828,38.828,0,0,1,2.178-4.931,36.332,36.332,0,0,1,8.059-9.661c.687-.609,4.4-3.87,5.177-2.461.256.463-.085,1.022-.427,1.424-.812.956-1.719,1.824-2.578,2.737a37.13,37.13,0,0,0-9.68,20.213C297.265,344.155,296.987,345.978,295.6,346.707Z" transform="translate(-289.516 -309.196)" fill="#f2f2f2" opacity="0.6"/>
        <path id="Trazado_692157" data-name="Trazado 692157" d="M297.871,349.447s2.529-20.092,13.912-28.586,27.228-9.2,38.614,2.451,4.44,24.568,2.3,27.412-10.645,9.639-20.432,5.6-6.93-14.166-4.549-15.325c0,0-.46,7.515,7.144,8.792s13.667-6.925,10.33-14.852-12.747-10.237-19.855-6.047-8.687,10.6-7.784,17.355C317.55,346.244,304.529,348.773,297.871,349.447Z" transform="translate(-288.469 -309.801)" fill="#007cb6" opacity="0.1"/>
        <path id="Trazado_692158" data-name="Trazado 692158" d="M326.341,340.089s-2.97,7.766,5.606,11.813,19.66-3.721,17.955-15.978S332.826,315.4,320.4,321.746c-13.968,7.136-14.9,25.51-14.9,25.51l10.677-1.919s-2.139-10.99,6.727-16.7,18.542-1.64,20.912,5.392-.42,12.92-7.264,14.741S325.556,343.9,326.341,340.089Z" transform="translate(-287.097 -308.895)" fill="#007cb6" opacity="0.25"/>
        <path id="Trazado_692159" data-name="Trazado 692159" d="M289.9,351.341c2.243-29.078,27-43.879,47.912-40.292,17.318,2.97,29.069,18.646,24.7,34.684a24.076,24.076,0,0,1-29.553,16.909A19.261,19.261,0,0,1,319.438,339a15.408,15.408,0,0,1,18.914-10.822,12.327,12.327,0,0,1,8.658,15.131,9.863,9.863,0,0,1-12.106,6.926,7.891,7.891,0,0,1-5.541-9.685" transform="translate(-289.903 -310.52)" fill="none" stroke="#007cb6" stroke-linecap="round" stroke-linejoin="round" stroke-width="0.98"/>
      </g>
      <g id="Grupo_948114" data-name="Grupo 948114" transform="translate(134.109 70.955)">
        <path id="Trazado_692160" data-name="Trazado 692160" d="M343.2,348.388a34.184,34.184,0,0,0-34.281,27.322l22.061,8.868a17.505,17.505,0,0,0,16.544,13.134,21.871,21.871,0,0,0,22.374-21.357A27.339,27.339,0,0,0,343.2,348.388Z" transform="translate(-308.915 -348.379)" fill="#68c7ea"/>
        <path id="Trazado_692161" data-name="Trazado 692161" d="M338.417,378.693a12.354,12.354,0,0,0,1.18,7.888c2.1,4.446,10.451,7.136,17.451,2.34s9.458-16.029,5.012-24.453-17.665-13.786-31.939-7.361a26.714,26.714,0,0,0-15.7,20.158l15.561,6.255a14.281,14.281,0,0,1,2.638-13.32c5.218-6.433,12.466-5.718,15-4.323s7.435,4.953,7.076,10.665-3.719,7-5.783,8.169S340.4,386.016,338.417,378.693Z" transform="translate(-307.924 -347.319)" fill="#007cb6" opacity="0.1"/>
        <path id="Trazado_692162" data-name="Trazado 692162" d="M337.076,377.853c-.107,3.325.945,7.069,5.859,8.94s14.282-1.989,14.745-11.582A15.733,15.733,0,0,0,338.606,359.3c-10.646,2.223-17.606,10.5-16.642,20.695l6.68,2.686s-3.074-9.423,4.615-15.289,14.62-2.484,17.472.855,4.267,10.217-.361,13.915S338.939,385.293,337.076,377.853Z" transform="translate(-306.583 -346.479)" fill="#007cb6" opacity="0.25"/>
        <path id="Trazado_692163" data-name="Trazado 692163" d="M309.044,375a34.186,34.186,0,0,1,34.129-26.61,27.338,27.338,0,0,1,26.7,27.968A21.871,21.871,0,0,1,347.5,397.713a17.5,17.5,0,0,1-17.085-17.9,14,14,0,0,1,14.318-13.668A11.2,11.2,0,0,1,355.665,377.6a8.959,8.959,0,0,1-9.164,8.748,7.167,7.167,0,0,1-7-7.332" transform="translate(-308.892 -348.379)" fill="none" stroke="#007cb6" stroke-linecap="round" stroke-linejoin="round" stroke-width="0.98"/>
        <path id="Trazado_692164" data-name="Trazado 692164" d="M344.791,371.55a5.538,5.538,0,0,1-1.516,2.924,13.551,13.551,0,0,1-2.674,1.558c-1.146.553-2.131,1.749-1.279,3.023,1,1.494,4,1.043,5.3.27a4.533,4.533,0,0,0,1.214-1.115,8.326,8.326,0,0,0,1.647-5.176c0-.923-.027-4.277-1.519-4C345.049,369.208,344.953,370.864,344.791,371.55Z" transform="translate(-303.502 -344.665)" fill="#f2f2f2" opacity="0.6"/>
        <path id="Trazado_692165" data-name="Trazado 692165" d="M342.6,365.827c-.354-.043-.819.051-.877.4-.04.249.159.466.343.64l1.452,1.365a1.27,1.27,0,0,0,.355.263.8.8,0,0,0,.945-.372C345.512,366.929,343.47,365.932,342.6,365.827Z" transform="translate(-303.014 -345.242)" fill="#f2f2f2" opacity="0.6"/>
        <path id="Trazado_692166" data-name="Trazado 692166" d="M352.92,354.1a4.386,4.386,0,0,1,.826.9.518.518,0,0,1,.118.467c-.072.169-.286.218-.468.229a6.15,6.15,0,0,1-2.255-.473,33,33,0,0,0-13.973-1.941c-1.384.132-4.407,1.011-5.621.006-1.14-.943.759-1.875,1.418-2.094a21.319,21.319,0,0,1,8.954-.976,22.979,22.979,0,0,1,6.976,1.821A17.341,17.341,0,0,1,352.92,354.1Z" transform="translate(-304.907 -348.07)" fill="#f2f2f2" opacity="0.6"/>
        <path id="Trazado_692167" data-name="Trazado 692167" d="M337.2,387.336a20.022,20.022,0,0,1-4.182-5.981c-.418-.91-1.653-6.527-3.412-4.357-.715.881-.244,3,.019,3.974a12.547,12.547,0,0,0,7.306,8.047,1.592,1.592,0,0,0,.756.14.618.618,0,0,0,.55-.471c.043-.291-.191-.543-.407-.743S337.407,387.54,337.2,387.336Z" transform="translate(-305.26 -343.319)" fill="#f2f2f2" opacity="0.6"/>
      </g>
      <g id="Grupo_948115" data-name="Grupo 948115" transform="translate(19.47 62.456)">
        <path id="Trazado_692168" data-name="Trazado 692168" d="M263.619,357.963a28.948,28.948,0,0,0-38.434-14.1,23.158,23.158,0,0,0-11.278,30.748,18.525,18.525,0,0,0,24.6,9.022,14.821,14.821,0,0,0,7.218-19.678,11.857,11.857,0,0,0-15.743-5.775,9.486,9.486,0,0,0-4.619,12.594,7.588,7.588,0,0,0,10.075,3.7,6.07,6.07,0,0,0,2.956-8.06" transform="translate(-211.757 -341.177)" fill="#68c7ea"/>
        <path id="Trazado_692169" data-name="Trazado 692169" d="M256.8,358.971s-4.534-10.141-18.055-11.98c-12.908-1.757-19.374,5.136-21.847,10.578s-2.155,14.466,3.627,19.375c7.667,6.512,23.338,2.766,17.422-10.994,0,0,1.211,6.294-4.147,7.861s-10.879-2.763-9.769-9.338a9.72,9.72,0,0,1,9.509-8.556c3.069.046,8.947,1,11.521,7.043Z" transform="translate(-211.095 -340.181)" fill="#007cb6" opacity="0.1"/>
        <path id="Trazado_692170" data-name="Trazado 692170" d="M263.619,357.963a28.948,28.948,0,0,0-38.434-14.1,23.158,23.158,0,0,0-11.278,30.748,18.525,18.525,0,0,0,24.6,9.022,14.821,14.821,0,0,0,7.218-19.678,11.857,11.857,0,0,0-15.743-5.775,9.486,9.486,0,0,0-4.619,12.594,7.588,7.588,0,0,0,10.075,3.7,6.07,6.07,0,0,0,2.956-8.06" transform="translate(-211.757 -341.177)" fill="none" stroke="#007cb6" stroke-linecap="round" stroke-linejoin="round" stroke-width="0.98"/>
        <path id="Trazado_692171" data-name="Trazado 692171" d="M237.473,365.608c1.567,2.78,1.9,6.9-3.792,9.622s-12.615-.824-14.511-8.573,4.8-14.847,13.6-15.418c8.9-.577,14.807,4.7,16.638,9.069l-4.964,1.847s-4.529-10.442-15.042-6.067c-9.922,4.129-6.274,17.383,1.143,17.274C230.549,373.361,238.133,373.381,237.473,365.608Z" transform="translate(-210.481 -339.374)" fill="#007cb6" opacity="0.25"/>
        <path id="Trazado_692172" data-name="Trazado 692172" d="M227.571,368.066a6.063,6.063,0,0,0,4.274.251c1.078-.32,3.587-2.379,2.291-3.7-.361-.369-.975-.157-1.462.015a8.658,8.658,0,0,1-3.854.306,3.863,3.863,0,0,1-2.131-1.257c-1.4-1.272-2.126.332-1.592,1.687a3.428,3.428,0,0,0,.345.611,6.521,6.521,0,0,0,1,1.331A4.61,4.61,0,0,0,227.571,368.066Z" transform="translate(-209.388 -337.211)" fill="#f2f2f2" opacity="0.6"/>
        <path id="Trazado_692173" data-name="Trazado 692173" d="M226.035,360.389a.368.368,0,0,0-.06-.258.306.306,0,0,0-.166-.083c-.907-.2-1.642,1.436-1.461,2.163.3,1.184,1.631.6,1.654-.394C226.012,361.341,226.024,360.866,226.035,360.389Z" transform="translate(-209.497 -337.784)" fill="#f2f2f2" opacity="0.6"/>
        <path id="Trazado_692174" data-name="Trazado 692174" d="M233.319,345.592c1.06-.173,2.819-.886,1.993-2.139-.481-.732-1.835-.761-2.586-.743a21.5,21.5,0,0,0-10.53,3.438,5.161,5.161,0,0,0-1.173.912c-.424.476-1.266,1.677-.368,2.055a2.311,2.311,0,0,0,1.993-.585,10.219,10.219,0,0,1,5.089-2.228C229.582,345.965,231.466,345.894,233.319,345.592Z" transform="translate(-210.228 -340.901)" fill="#f2f2f2" opacity="0.6"/>
      </g>
      <g id="Grupo_948116" data-name="Grupo 948116" transform="translate(47.539 27.836)">
        <path id="Trazado_692175" data-name="Trazado 692175" d="M284.5,312.069c-25.99-2.5-48.957,15.394-48.957,40.095a35.779,35.779,0,0,0,35.779,35.779,28.62,28.62,0,0,0,26.168-17.026q20.162,9.768,39.991,17.624C345.614,345.97,315.9,315.087,284.5,312.069Z" transform="translate(-235.546 -311.836)" fill="#68c7ea"/>
        <path id="Trazado_692176" data-name="Trazado 692176" d="M258.642,347.943a14.091,14.091,0,0,0,2.3,9.852c2.324,3.353,9.628,6.182,11.03.274.524-2.212-.887-4.357-2.009-6.334a13.821,13.821,0,0,1-2.08-6.506,6.823,6.823,0,0,1,2.914-5.923c.64-.394,1.469-.815,1.467-1.566-.009-3.094-5.516-.526-6.721.16a14.039,14.039,0,0,0-6.078,6.9A13.371,13.371,0,0,0,258.642,347.943Z" transform="translate(-231.414 -307.443)" fill="#f2f2f2" opacity="0.6"/>
        <path id="Trazado_692177" data-name="Trazado 692177" d="M277.148,336.834a4.911,4.911,0,0,0-2.539-1.262c-.929-.162-2.54-.242-2.813.958a1.162,1.162,0,0,0,.408,1.145,1.788,1.788,0,0,0,.558.271c.957.3,2,.235,2.963.512.583.166,1.128.458,1.721.579a.558.558,0,0,0,.483-.065.48.48,0,0,0,.125-.219,1.476,1.476,0,0,0-.353-1.338A6.313,6.313,0,0,0,277.148,336.834Z" transform="translate(-229.029 -307.581)" fill="#f2f2f2" opacity="0.6"/>
        <path id="Trazado_692178" data-name="Trazado 692178" d="M238.3,343.98a29.761,29.761,0,0,0,.558,13.594,8.539,8.539,0,0,0,1.35,3.091c.321.4,1.364,1.263,1.937.819.453-.349-.111-2.042-.206-2.565a43.468,43.468,0,0,1-.875-10.56q.05-.765.129-1.528a38.494,38.494,0,0,1,2.9-11.141c.618-1.443,1.75-2.96,1.909-4.55a1.885,1.885,0,0,0-.466-1.534c-.645-.635-1.343-.332-1.76.308A38.98,38.98,0,0,0,238.3,343.98Z" transform="translate(-235.146 -308.701)" fill="#f2f2f2" opacity="0.6"/>
        <path id="Trazado_692179" data-name="Trazado 692179" d="M317.18,377.952c2.5,2.33,5.955.086,6.137-2.817a86.174,86.174,0,0,0-.463-13.24,57.6,57.6,0,0,0-1.2-7.921,53.972,53.972,0,0,0-7.785-17c-.748-1.141-4.792-7.264-6.464-5.549-.549.563-.277,1.5.057,2.21.792,1.686,1.753,3.286,2.629,4.93a55.171,55.171,0,0,1,5.992,32.763C315.784,373.641,315.474,376.364,317.18,377.952Z" transform="translate(-222.673 -308.365)" fill="#f2f2f2" opacity="0.6"/>
        <path id="Trazado_692180" data-name="Trazado 692180" d="M323.263,382.087s4.212-29.8-8.8-46.418-35.454-23.817-56.327-11.555-15.954,33.5-13.989,38.411,11.5,17.975,27.112,16,15.466-17.609,12.5-20.2c0,0-2.273,10.957-13.675,9.819s-16.9-15.262-9.018-25.327,22.273-9.7,30.83-.923,8.318,18.591,4.39,27.923C296.294,369.814,313.977,378.523,323.263,382.087Z" transform="translate(-234.347 -310.734)" fill="#007cb6" opacity="0.1"/>
        <path id="Trazado_692181" data-name="Trazado 692181" d="M282.651,357.014s1.228,12.3-12.648,14.754-26.739-13.007-19.512-29.918,32.5-22.771,47.841-8.818c17.246,15.682,11.406,42.392,11.406,42.392l-14.56-6.918s7.354-14.925-3.129-26.572-25.949-9.587-32.091-.428-4.439,18.69,4.664,23.973S282.289,362.785,282.651,357.014Z" transform="translate(-233.231 -309.426)" fill="#007cb6" opacity="0.25"/>
        <path id="Trazado_692182" data-name="Trazado 692182" d="M337.484,388.54c8.13-42.57-21.589-73.452-52.981-76.472-25.99-2.5-48.957,15.394-48.957,40.095a35.779,35.779,0,0,0,35.779,35.779,28.622,28.622,0,0,0,28.624-28.622,22.9,22.9,0,0,0-22.9-22.9,18.319,18.319,0,0,0-18.319,18.318,14.656,14.656,0,0,0,14.656,14.656,11.724,11.724,0,0,0,11.724-11.724" transform="translate(-235.546 -311.836)" fill="none" stroke="#007cb6" stroke-linecap="round" stroke-linejoin="round" stroke-width="0.98"/>
      </g>
      <g id="Grupo_948117" data-name="Grupo 948117" transform="translate(70.11)">
        <path id="Trazado_692183" data-name="Trazado 692183" d="M293.224,296.352a22.756,22.756,0,0,0-32.062-2.767,18.2,18.2,0,0,0-2.214,25.649,14.557,14.557,0,0,0,17.661,3.637,12.216,12.216,0,0,0,6.3-6.79c6.174.389,13.686,3.281,16.35,4.57A27.342,27.342,0,0,0,293.224,296.352Z" transform="translate(-254.675 -288.244)" fill="#68c7ea"/>
        <path id="Trazado_692184" data-name="Trazado 692184" d="M293.9,318.771a20.642,20.642,0,0,0-1.326-15.74c-4.219-8.315-12.036-12.285-21.84-10.052s-13.714,14.176-5.8,18.442c0,0-3.009-6.157,2.7-9.508a9.574,9.574,0,0,1,12.991,3.049,12.172,12.172,0,0,1,1.045,10.8S289.294,316.858,293.9,318.771Z" transform="translate(-253.59 -287.503)" fill="#007cb6" opacity="0.15"/>
        <path id="Trazado_692185" data-name="Trazado 692185" d="M264.684,310.886c-2.6-1.3-5.343-9.805,3.044-14.109,7.24-3.714,17.471.046,20.075,7.961,2.42,7.358.277,11.829.277,11.829l-6.661-1.339s4.016-8.342-3.977-13.759a9.415,9.415,0,0,0-11.024.713C262.249,305.418,264.684,310.886,264.684,310.886Z" transform="translate(-253.342 -286.968)" fill="#007cb6" opacity="0.25"/>
        <path id="Trazado_692186" data-name="Trazado 692186" d="M299.137,321.217a28.407,28.407,0,0,0-5.913-24.864,22.756,22.756,0,0,0-32.062-2.767,18.2,18.2,0,0,0-2.214,25.649,14.562,14.562,0,0,0,20.519,1.771,11.65,11.65,0,0,0,1.417-16.415,9.459,9.459,0,0,0-13.133-1.134,6.516,6.516,0,0,0-.906,9.35" transform="translate(-254.675 -288.244)" fill="none" stroke="#007cb6" stroke-linecap="round" stroke-linejoin="round" stroke-width="0.98"/>
      </g>
    </g>
    <path id="Trazado_692187" data-name="Trazado 692187" d="M278.662,308.081c-.359-5.186-7-8.746-11.179-5.123a3.394,3.394,0,0,0-1.065,1.477,1.8,1.8,0,0,0,.3,1.737,2.9,2.9,0,0,0,1.9.7c2.828.317,5.821.7,8.054,2.463a1.8,1.8,0,0,0,.749.435,1.029,1.029,0,0,0,1.016-.517A1.973,1.973,0,0,0,278.662,308.081Z" transform="translate(40.83 51.121)" fill="#f2f2f2" opacity="0.6"/>
    <path id="Trazado_692188" data-name="Trazado 692188" d="M277.9,309.879c0-.549-.419-1.1-1.023-.728a2.706,2.706,0,0,0-.791,1.181,4.1,4.1,0,0,0-.266,1.2.889.889,0,0,0,.177.775.6.6,0,0,0,.671.028,1.541,1.541,0,0,0,.493-.509A3.529,3.529,0,0,0,277.9,309.879Z" transform="translate(42.536 52.479)" fill="#f2f2f2" opacity="0.6"/>
    <path id="Trazado_692189" data-name="Trazado 692189" d="M264.956,318.158a1.338,1.338,0,0,0,.084-1.537,4.55,4.55,0,0,0-1.128-1.188,19.632,19.632,0,0,1-6.792-13.25c-.788,0-1.036,1.064-.993,1.851a23.476,23.476,0,0,0,2.206,8.833C258.963,314.17,262.908,320.291,264.956,318.158Z" transform="translate(38.995 51.247)" fill="#f2f2f2" opacity="0.6"/>
    <path id="Trazado_692190" data-name="Trazado 692190" d="M306.073,195.608a116.012,116.012,0,0,0-35.242-16.832c15.081,4.995,24.047,14.328,21.073,19.282-2.982,4.971-10.394,7.2-15.306,23.715-3.693,12.425,4.039,29.26-6.17,21.833-5.856-4.259-12.409-15.383-28.982-18.785-14.847-3.048-21.912,6.992-29.07,7.787s-7.954-16.1-7.563-22.713c-.687,2.71-1.305,5.679-1.843,8.947-4.212,25.589,5.9,30.639,5.9,30.639s-4.08-10.623,20.835-9.277,57.074,24.567,57.074,24.567-4.09-23.426,2.452-43.291S306.073,195.608,306.073,195.608Z" transform="translate(29.247 29.044)" fill="#1e3640"/>
    <path id="Trazado_692191" data-name="Trazado 692191" d="M290.422,156.628c-5.607,3.87-8.244,13.037-7.613,18.741s-10-3.055-19.472-9.923-19.865.145-23.531,0-6.39-7.369-4.583-12.3c-2.936,6.3-4.441,15.292-.927,21.331,0,0,6.314-3.7,21.7-.742,21.873,4.206,33.178,12.775,33.178,12.775s-3.192-22.532,9.844-33.555a41.95,41.95,0,0,0-7.845-5.524C291.269,147.535,295.973,152.8,290.422,156.628Z" transform="translate(34.701 23.403)" fill="#1e3640"/>
    <g id="Grupo_948119" data-name="Grupo 948119" transform="translate(331.547 255.829)">
      <path id="Trazado_692192" data-name="Trazado 692192" d="M327.571,219.465l.048.021Z" transform="translate(-279.697 -219.465)" fill="#1e3640"/>
      <path id="Trazado_692193" data-name="Trazado 692193" d="M352.352,231.77a67.453,67.453,0,0,0-17.019-12.112c3.891,2.054,8.656,7.062,8.656,12.075,0,5.408-4.9,6.1-5.432,15.969s-1.6,14.211-4.74,12.284-12.944-10.34-21.078-13.043-15.051,3.248-18.652,2.251c-4.916-1.36-5.844-15.094-3.957-20.58-.337.762-.661,1.556-.958,2.4-6.259,17.591,2.991,29.905,2.991,29.905s2.917-3.887,10.01-3.5c18.506,1.014,45.871,19.72,45.871,19.72S338.16,249.258,352.352,231.77Z" transform="translate(-286.997 -219.43)" fill="#1e3640"/>
    </g>
    <path id="Trazado_692194" data-name="Trazado 692194" d="M336.015,193.711c3.795,1.358,1.633,6.435-1.4,9.8s-.169,10.643-3.017,10.474-5.937-5.405-10.473-6.892-9.148,1.824-11.175,1.9c-2.011.073-3.852-7.286-2.663-10.738a12.552,12.552,0,0,0-.834,1.943,23.812,23.812,0,0,0,0,13.686c10.644-3.294,26.4,3.476,31.279,8.251a44.382,44.382,0,0,1,4.2-25.231A25.176,25.176,0,0,0,336.015,193.711Z" transform="translate(47.868 31.731)" fill="#1e3640"/>
    <path id="Trazado_692195" data-name="Trazado 692195" d="M264.541,142.405c-7.307-1.3-21.315-1.094-26.187,11.289C238.354,153.695,245.66,143.3,264.541,142.405Z" transform="translate(35.798 22.405)" fill="#2e4450"/>
    <path id="Trazado_692196" data-name="Trazado 692196" d="M259.753,179.852c-9.9-2.12-27.282-1.414-34.848,3.3s-15.824,17.709-16.525,27.47c0,0,7.177-17.083,18.152-24.171S259.753,179.852,259.753,179.852Z" transform="translate(30.405 29.033)" fill="#2e4450"/>
    <path id="Trazado_692197" data-name="Trazado 692197" d="M324.1,192.361c-6.475-1.543-11.182-1.553-15.314,5.74C308.785,198.1,313.525,192.454,324.1,192.361Z" transform="translate(48.47 31.34)" fill="#2e4450"/>
    <path id="Trazado_692198" data-name="Trazado 692198" d="M327.252,219.435c-5.552-1.972-16.076-4.067-23.544-2.465-4.445.953-11.832,9-12.448,17.994,0,0,4.2-11.22,11.831-14.719S327.252,219.435,327.252,219.435Z" transform="translate(45.317 35.813)" fill="#2e4450"/>
    <path id="Trazado_692199" data-name="Trazado 692199" d="M261.364,197.144c-1.987-6.42-6.428-10.248-12.4-11.121-8.355-1.224-13.773,1.141-18.459,5.884s-7.936,12.377-4.3,13.925a15.275,15.275,0,0,0,6.282,1.385s-1.332,6.52-.616,6.976,3.156-.193,3.156-.193-.455,1.234,1.154,1.49,3.778-1.117,3.778-1.117.347,2.635,1.778,2.546,3.615-1.992,3.615-1.992.7,2.789,1.937,2.714,3.08-8.695,3.08-8.695,5.3,4.173,8.725,3.577S262.892,202.081,261.364,197.144Zm-29.316,5.4c-1.978-.776-1.876-3.476.4-6.053s6-2.853,7.759-1.069c.761.772,1.248,1.542-.217,4.967S234.024,203.323,232.047,202.545Zm11.807,7.346c-1.063.244-1.574-2.509-1.574-2.509s-2.127,1.581-2.678,1.1,2.809-4.534,3.915-4.088C243.517,204.4,244.918,209.647,243.855,209.891Zm10.314-3.779c-2.851.149-5.767-1.7-5.913-4.381-.105-1.94,1.3-5,3.095-5.324,2.116-.386,3.795.538,4.831,2.783S257.492,205.938,254.168,206.112Z" transform="translate(33.332 30.29)" fill="#f2f2f2"/>
    <path id="Trazado_692200" data-name="Trazado 692200" d="M296.266,140.968a15.515,15.515,0,0,0,13.616-9.693c-3.278,6.321-11.763,9.071-20.541,6.258-4.021-1.288-6.4-5.625-8.27-8.854-.76-1.313-4.2-5.247-8.926-5.413,5.234,3.32,2.578,8.691-6.93,15.84C279.166,134.015,285.65,141.777,296.266,140.968Z" transform="translate(40.631 19.056)" fill="#cd224e"/>
    <path id="Trazado_692201" data-name="Trazado 692201" d="M229.761,106.018c.939,2.324,13.91,7.017,13.91,7.017l1.279-1.869s-11.213-6.02-11.868-7.169-.442-6.707-.442-6.707l-10.255-4.414,6.085,5.139S228.821,103.694,229.761,106.018Z" transform="translate(32.925 13.588)" fill="#cd224e"/>
    <path id="Trazado_692202" data-name="Trazado 692202" d="M250.471,78.091c-1.291-.985-9.795,1.994-9.795,1.994L233.868,76.1l7.828,7.961s5.1-2.211,6.412-2.016,10.979,8.467,10.979,8.467l1.051-1.536S251.763,79.076,250.471,78.091Z" transform="translate(34.991 10.57)" fill="#cd224e"/>
    <path id="Trazado_692203" data-name="Trazado 692203" d="M206.447,80.948c-15.49-14.427-17.423-23.841-13.632-25.132-2.046-.117-3.842-.156-5.277-.158a1.1,1.1,0,0,0-1.029,1.5c2.619,6.708,9.148,21.325,21.823,31.138,10.039,7.771,34.722,17.263,34.727,17.266h0l4.1-5.994S217.024,90.8,206.447,80.948Z" transform="translate(26.456 6.892)" fill="#074959" opacity="0.2" style="mix-blend-mode: multiply;isolation: isolate"/>
    <g id="Grupo_948129" data-name="Grupo 948129" transform="translate(355.14 17.351)">
      <g id="Grupo_948120" data-name="Grupo 948120">
        <line id="Línea_2778" data-name="Línea 2778" x1="3.856" y1="18.73" transform="translate(21.396)" fill="none" stroke="#7c4545" stroke-linecap="round" stroke-miterlimit="10" stroke-width="1.96"/>
        <path id="Trazado_692204" data-name="Trazado 692204" d="M397.411,267.958c-24.9-17.862-69.84-67.22-78.675-169.779l49.358-8.835s7.282,71.487,29.316,101.636Z" transform="translate(-304.88 -4.398)" fill="#bac4ca"/>
        <path id="Trazado_692205" data-name="Trazado 692205" d="M318.736,98.179,368.1,89.344l.514,4.417-49.5,8.5Z" transform="translate(-304.88 -4.398)" fill="#a1aeb9"/>
        <path id="Trazado_692206" data-name="Trazado 692206" d="M361.216,125.01l-27.923,5.864-2.65-12.619a14.265,14.265,0,0,1,11.029-16.894h0a14.265,14.265,0,0,1,16.893,11.029Z" transform="translate(-302.793 -2.291)" fill="#394e5b"/>
        <path id="Trazado_692207" data-name="Trazado 692207" d="M375.719,111.145l.787,3.557a.945.945,0,0,1-.719,1.127l-5.988,1.325a.946.946,0,0,1-1.127-.719l-.787-3.557a.945.945,0,0,0-1.127-.719l-5.988,1.325a.944.944,0,0,0-.719,1.127l.787,3.557a.944.944,0,0,1-.719,1.127l-5.988,1.325a.944.944,0,0,1-1.127-.719l-.787-3.557a.946.946,0,0,0-1.128-.719l-5.987,1.325a.946.946,0,0,0-.72,1.127l.788,3.557a.945.945,0,0,1-.719,1.127l-5.988,1.325a.946.946,0,0,1-1.128-.719l-.787-3.557a.945.945,0,0,0-1.127-.719l-5.988,1.325a.946.946,0,0,0-.719,1.128l.787,3.556a.946.946,0,0,1-.719,1.128l-5.988,1.325a.946.946,0,0,1-1.127-.72l-.787-3.556a.945.945,0,0,0-1.127-.719l-5.988,1.324a.946.946,0,0,0-.719,1.128l.991,4.48,1.453,6.564a.946.946,0,0,0,1.127.719l68.657-15.193a.946.946,0,0,0,.719-1.128l-1.451-6.563-.992-4.48a.944.944,0,0,0-1.127-.719l-5.988,1.325A.945.945,0,0,0,375.719,111.145Z" transform="translate(-305.907 -0.921)" fill="#8797a7"/>
        <path id="Trazado_692208" data-name="Trazado 692208" d="M306.993,111.7c9.321-1.73,19.006-38.509,22.026-67.7,1.592-15.378,3.237-15.676,10.312-1.932,13.477,26.181,36.18,56.906,46.174,55.05Z" transform="translate(-306.993 -14.696)" fill="#e73555"/>
        <path id="Trazado_692209" data-name="Trazado 692209" d="M325.752,20.474a18.847,18.847,0,0,1,9.194,0c5.421,1.224,11.708,4.26,16.045,1.658,0,0,.186,3.522-6.288,5.2s-11.275-2.343-17.358.87C329.482,24.227,329.214,21.512,325.752,20.474Z" transform="translate(-303.618 -16.887)" fill="#e73555"/>
      </g>
      <path id="Trazado_692210" data-name="Trazado 692210" d="M323.569,132.509l49.725-11s1.163,5.541,1.847,8.433c-3.273-6.046-28.221.438-51.257,4.107Z" transform="translate(-304.011 1.389)" fill="#a9b5be"/>
      <g id="Grupo_948121" data-name="Grupo 948121" transform="translate(25.577 134.892)">
        <path id="Trazado_692211" data-name="Trazado 692211" d="M329.128,135.312l7.739-1.587a.573.573,0,0,1,.678.461l.46,2.578a.572.572,0,0,1-.434.66l-7.5,1.73a.573.573,0,0,1-.684-.415l-.7-2.722A.572.572,0,0,1,329.128,135.312Z" transform="translate(-328.67 -131.307)" fill="#a1aeb9"/>
        <path id="Trazado_692212" data-name="Trazado 692212" d="M338.808,133.355l7.379-1.664a.721.721,0,0,1,.86.537l.511,2.143a.723.723,0,0,1-.539.871l-7.377,1.7a.722.722,0,0,1-.865-.537l-.513-2.183A.721.721,0,0,1,338.808,133.355Z" transform="translate(-326.948 -131.674)" fill="#a1aeb9"/>
        <path id="Trazado_692213" data-name="Trazado 692213" d="M334.853,138.536l7.379-1.664a.722.722,0,0,1,.86.537l.511,2.143a.723.723,0,0,1-.539.871l-7.377,1.7a.722.722,0,0,1-.865-.537l-.513-2.182A.722.722,0,0,1,334.853,138.536Z" transform="translate(-327.659 -130.742)" fill="#a1aeb9"/>
      </g>
      <g id="Grupo_948122" data-name="Grupo 948122" transform="translate(48.826 91.808)">
        <path id="Trazado_692214" data-name="Trazado 692214" d="M366.745,137.032l-6.678,1.737a.8.8,0,0,0-.571.973l.517,1.982a.8.8,0,0,0,.963.573l6.669-1.641a.8.8,0,0,0,.585-.964l-.507-2.078A.8.8,0,0,0,366.745,137.032Z" transform="translate(-346.378 -87.63)" fill="#a1aeb9"/>
        <path id="Trazado_692215" data-name="Trazado 692215" d="M361.889,134.382l-6.68,1.737a.8.8,0,0,0-.571.973l.517,1.982a.8.8,0,0,0,.963.573l6.669-1.641a.8.8,0,0,0,.585-.964l-.507-2.078A.8.8,0,0,0,361.889,134.382Z" transform="translate(-347.252 -88.107)" fill="#a1aeb9"/>
        <path id="Trazado_692216" data-name="Trazado 692216" d="M363.025,128.03l-6.68,1.737a.8.8,0,0,0-.571.973l.517,1.982a.8.8,0,0,0,.963.573l6.67-1.641a.8.8,0,0,0,.584-.964L364,128.613A.8.8,0,0,0,363.025,128.03Z" transform="translate(-347.047 -89.25)" fill="#a1aeb9"/>
        <path id="Trazado_692217" data-name="Trazado 692217" d="M355.824,95.172l-6.793,1.218a.8.8,0,0,0-.644.926l.362,2.015a.8.8,0,0,0,.916.647l6.776-1.122a.8.8,0,0,0,.657-.916l-.346-2.111A.8.8,0,0,0,355.824,95.172Z" transform="translate(-348.374 -95.159)" fill="#a1aeb9"/>
        <path id="Trazado_692218" data-name="Trazado 692218" d="M358.908,139.111l-6.68,1.737a.8.8,0,0,0-.571.973l.517,1.982a.8.8,0,0,0,.963.573l6.669-1.641a.8.8,0,0,0,.585-.964l-.507-2.078A.8.8,0,0,0,358.908,139.111Z" transform="translate(-347.788 -87.256)" fill="#a1aeb9"/>
      </g>
      <g id="Grupo_948123" data-name="Grupo 948123" transform="translate(18.071 95.226)">
        <path id="Trazado_692219" data-name="Trazado 692219" d="M368.913,144.9l-6.678,1.737a.8.8,0,0,0-.571.973l.517,1.981a.8.8,0,0,0,.963.573l6.669-1.64a.8.8,0,0,0,.585-.964l-.507-2.078A.8.8,0,0,0,368.913,144.9Z" transform="translate(-315.232 -89.633)" fill="#a1aeb9"/>
        <path id="Trazado_692220" data-name="Trazado 692220" d="M360.926,98.067l-6.812,1.1a.8.8,0,0,0-.661.917l.329,2.021a.8.8,0,0,0,.9.661l6.794-1.008a.8.8,0,0,0,.673-.9l-.31-2.116A.8.8,0,0,0,360.926,98.067Z" transform="translate(-316.706 -98.056)" fill="#a1aeb9"/>
        <path id="Trazado_692221" data-name="Trazado 692221" d="M329.791,104.359l-6.813,1.1a.8.8,0,0,0-.66.917l.328,2.021a.8.8,0,0,0,.9.661l6.794-1.008a.8.8,0,0,0,.673-.9l-.31-2.116A.8.8,0,0,0,329.791,104.359Z" transform="translate(-322.308 -96.924)" fill="#a1aeb9"/>
        <path id="Trazado_692222" data-name="Trazado 692222" d="M361.076,146.979l-6.68,1.737a.8.8,0,0,0-.571.973l.517,1.982a.8.8,0,0,0,.963.573l6.669-1.641a.8.8,0,0,0,.585-.964l-.507-2.078A.8.8,0,0,0,361.076,146.979Z" transform="translate(-316.642 -89.259)" fill="#a1aeb9"/>
      </g>
      <g id="Grupo_948124" data-name="Grupo 948124" transform="translate(35.14 169.177)">
        <path id="Trazado_692223" data-name="Trazado 692223" d="M379.9,174.858l-6.361,2.677a.8.8,0,0,0-.426,1.045l.8,1.887a.8.8,0,0,0,1.036.429l6.365-2.579a.8.8,0,0,0,.44-1.038l-.8-1.983A.8.8,0,0,0,379.9,174.858Z" transform="translate(-330.248 -158.2)" fill="#a1aeb9"/>
        <path id="Trazado_692224" data-name="Trazado 692224" d="M374.71,172.933l-6.361,2.676a.8.8,0,0,0-.426,1.045l.8,1.888a.8.8,0,0,0,1.035.429l6.366-2.58a.8.8,0,0,0,.44-1.038l-.8-1.983A.8.8,0,0,0,374.71,172.933Z" transform="translate(-331.181 -158.546)" fill="#a1aeb9"/>
        <path id="Trazado_692225" data-name="Trazado 692225" d="M379.795,197.651l-6.137,3.159a.8.8,0,0,0-.343,1.075l.938,1.821a.8.8,0,0,0,1.065.348l6.147-3.062a.8.8,0,0,0,.359-1.069l-.95-1.916A.8.8,0,0,0,379.795,197.651Z" transform="translate(-330.216 -154.104)" fill="#a1aeb9"/>
        <path id="Trazado_692226" data-name="Trazado 692226" d="M375.05,162.666l-6.563,2.137a.8.8,0,0,0-.511,1.006l.636,1.947a.8.8,0,0,0,.995.513l6.559-2.039a.8.8,0,0,0,.525-1l-.632-2.044A.8.8,0,0,0,375.05,162.666Z" transform="translate(-331.168 -160.389)" fill="#a1aeb9"/>
        <path id="Trazado_692227" data-name="Trazado 692227" d="M343.888,160.77l-6.563,2.136a.8.8,0,0,0-.511,1.006l.635,1.948a.8.8,0,0,0,1,.513l6.558-2.04a.8.8,0,0,0,.525-1l-.631-2.044A.8.8,0,0,0,343.888,160.77Z" transform="translate(-336.774 -160.73)" fill="#a1aeb9"/>
        <path id="Trazado_692228" data-name="Trazado 692228" d="M354.863,184.048l-6.438,2.488a.8.8,0,0,0-.457,1.032l.741,1.91a.8.8,0,0,0,1.022.459l6.438-2.392a.8.8,0,0,0,.471-1.024l-.741-2.006A.8.8,0,0,0,354.863,184.048Z" transform="translate(-334.77 -156.545)" fill="#a1aeb9"/>
        <path id="Trazado_692229" data-name="Trazado 692229" d="M380.859,184.13l-6.316,2.78a.8.8,0,0,0-.409,1.054l.827,1.874a.8.8,0,0,0,1.042.412l6.322-2.684a.8.8,0,0,0,.424-1.045l-.833-1.969A.8.8,0,0,0,380.859,184.13Z" transform="translate(-330.065 -156.533)" fill="#a1aeb9"/>
        <path id="Trazado_692230" data-name="Trazado 692230" d="M372.438,178.04l-6.361,2.676a.8.8,0,0,0-.426,1.047l.8,1.887a.8.8,0,0,0,1.035.429l6.365-2.58a.8.8,0,0,0,.441-1.037l-.8-1.985A.8.8,0,0,0,372.438,178.04Z" transform="translate(-331.59 -157.627)" fill="#a1aeb9"/>
      </g>
      <g id="Grupo_948125" data-name="Grupo 948125" transform="translate(56.388 206.413)">
        <path id="Trazado_692231" data-name="Trazado 692231" d="M368.534,193.892l-6.132,3.167a.8.8,0,0,0-.342,1.076l.942,1.818a.8.8,0,0,0,1.065.347l6.144-3.07a.8.8,0,0,0,.358-1.07l-.953-1.915A.8.8,0,0,0,368.534,193.892Z" transform="translate(-353.49 -192.017)" fill="#a1aeb9"/>
        <path id="Trazado_692232" data-name="Trazado 692232" d="M363.211,192.379l-6.131,3.167a.8.8,0,0,0-.342,1.075l.94,1.819a.8.8,0,0,0,1.065.347l6.144-3.071a.8.8,0,0,0,.358-1.069l-.953-1.915A.8.8,0,0,0,363.211,192.379Z" transform="translate(-354.448 -192.289)" fill="#a1aeb9"/>
        <path id="Trazado_692233" data-name="Trazado 692233" d="M361.347,197.649l-6.132,3.166a.8.8,0,0,0-.342,1.076l.942,1.819a.8.8,0,0,0,1.065.347l6.143-3.071a.8.8,0,0,0,.358-1.069L362.427,198A.8.8,0,0,0,361.347,197.649Z" transform="translate(-354.783 -191.341)" fill="#a1aeb9"/>
      </g>
      <g id="Grupo_948126" data-name="Grupo 948126" transform="translate(28.425 151.671)">
        <path id="Trazado_692234" data-name="Trazado 692234" d="M331.71,149.97l7.03-1.779a.829.829,0,0,1,1,.591l.536,2.012a.829.829,0,0,1-.607,1.019l-6.979,1.687a.829.829,0,0,1-.988-.564l-.586-1.921A.829.829,0,0,1,331.71,149.97Z" transform="translate(-331.083 -145.486)" fill="#a1aeb9"/>
        <path id="Trazado_692235" data-name="Trazado 692235" d="M340.155,147.7l7.03-1.779a.829.829,0,0,1,1,.591l.536,2.013a.827.827,0,0,1-.607,1.018l-6.979,1.687a.827.827,0,0,1-.988-.564l-.586-1.921A.829.829,0,0,1,340.155,147.7Z" transform="translate(-329.564 -145.895)" fill="#a1aeb9"/>
        <path id="Trazado_692236" data-name="Trazado 692236" d="M337.216,152.6l7.029-1.779a.831.831,0,0,1,1.005.59l.536,2.013a.83.83,0,0,1-.607,1.019l-6.979,1.687a.83.83,0,0,1-.989-.564l-.585-1.921A.829.829,0,0,1,337.216,152.6Z" transform="translate(-330.092 -145.012)" fill="#a1aeb9"/>
      </g>
      <g id="Grupo_948127" data-name="Grupo 948127" transform="translate(50.996 159.88)">
        <path id="Trazado_692237" data-name="Trazado 692237" d="M357.307,155.624l-6.359,2.205a1.094,1.094,0,0,0-.668,1.411l.628,1.7a1.1,1.1,0,0,0,1.389.654l6.31-2.215A1.094,1.094,0,0,0,359.28,158L358.7,156.3A1.093,1.093,0,0,0,357.307,155.624Z" transform="translate(-350.213 -152.364)" fill="#a1aeb9"/>
        <path id="Trazado_692238" data-name="Trazado 692238" d="M365.887,152.895l-6.468,1.857a1.094,1.094,0,0,0-.743,1.373l.534,1.734a1.1,1.1,0,0,0,1.351.728l6.421-1.869a1.1,1.1,0,0,0,.747-1.349l-.487-1.723A1.094,1.094,0,0,0,365.887,152.895Z" transform="translate(-348.699 -152.852)" fill="#a1aeb9"/>
        <path id="Trazado_692239" data-name="Trazado 692239" d="M363.256,158.327l-6.4,2.081a1.094,1.094,0,0,0-.695,1.4l.595,1.716a1.093,1.093,0,0,0,1.376.68l6.352-2.092a1.093,1.093,0,0,0,.7-1.372l-.547-1.7A1.093,1.093,0,0,0,363.256,158.327Z" transform="translate(-349.153 -151.876)" fill="#a1aeb9"/>
      </g>
      <g id="Grupo_948128" data-name="Grupo 948128" transform="translate(70.593 225.555)">
        <path id="Trazado_692240" data-name="Trazado 692240" d="M373.021,213.257l-5.69,3.594a1.092,1.092,0,0,0-.329,1.526l1,1.516a1.093,1.093,0,0,0,1.5.321l5.641-3.592a1.093,1.093,0,0,0,.34-1.5l-.951-1.519A1.093,1.093,0,0,0,373.021,213.257Z" transform="translate(-366.822 -207.689)" fill="#a1aeb9"/>
        <path id="Trazado_692241" data-name="Trazado 692241" d="M380.769,208.651l-5.876,3.279a1.094,1.094,0,0,0-.412,1.507l.914,1.568a1.1,1.1,0,0,0,1.482.4l5.826-3.28a1.094,1.094,0,0,0,.421-1.482l-.866-1.567A1.094,1.094,0,0,0,380.769,208.651Z" transform="translate(-365.471 -208.512)" fill="#a1aeb9"/>
        <path id="Trazado_692242" data-name="Trazado 692242" d="M379.434,214.537l-5.758,3.483a1.094,1.094,0,0,0-.359,1.52l.969,1.535a1.094,1.094,0,0,0,1.495.349l5.708-3.481a1.094,1.094,0,0,0,.369-1.5l-.92-1.536A1.1,1.1,0,0,0,379.434,214.537Z" transform="translate(-365.684 -207.457)" fill="#a1aeb9"/>
      </g>
      <path id="Trazado_692243" data-name="Trazado 692243" d="M353.979,175.984l-5.965,2.455a1.048,1.048,0,0,0-.562,1.386l.693,1.6a1.049,1.049,0,0,0,1.364.551l5.917-2.461a1.047,1.047,0,0,0,.569-1.363l-.647-1.589A1.049,1.049,0,0,0,353.979,175.984Z" transform="translate(-299.729 11.176)" fill="#a1aeb9"/>
      <path id="Trazado_692244" data-name="Trazado 692244" d="M348.42,173.576l-7.468,2.845a.779.779,0,0,0-.454,1l.859,2.322a.779.779,0,0,0,1.014.455l7.471-2.91a.78.78,0,0,0,.445-1.005l-.861-2.255A.779.779,0,0,0,348.42,173.576Z" transform="translate(-300.973 10.748)" fill="#a1aeb9"/>
      <path id="Trazado_692245" data-name="Trazado 692245" d="M356.97,170.338l-7.579,2.537a.78.78,0,0,0-.494.978l.763,2.356a.778.778,0,0,0,.993.5l7.585-2.6a.781.781,0,0,0,.486-.985l-.769-2.289A.779.779,0,0,0,356.97,170.338Z" transform="translate(-299.461 10.167)" fill="#a1aeb9"/>
      <path id="Trazado_692246" data-name="Trazado 692246" d="M316.938,89.574a5.736,5.736,0,0,0,6.256,2.992c4.458-.821,4.386-4.667,4.386-4.667s2.6,5.7-4.022,6.9S316.938,89.574,316.938,89.574Z" transform="translate(-305.204 -4.658)" fill="#c8134b"/>
      <path id="Trazado_692247" data-name="Trazado 692247" d="M326.383,87.757a5.737,5.737,0,0,0,6.256,2.992c4.458-.821,4.386-4.667,4.386-4.667s2.6,5.7-4.022,6.9S326.383,87.757,326.383,87.757Z" transform="translate(-303.504 -4.984)" fill="#c8134b"/>
      <path id="Trazado_692248" data-name="Trazado 692248" d="M335.828,76.271a5.392,5.392,0,0,0,5.88,2.813,4.566,4.566,0,0,0,4.121-4.386s2.442,5.354-3.779,6.488S335.828,76.271,335.828,76.271Z" transform="translate(-301.805 -7.033)" fill="#c8134b"/>
      <path id="Trazado_692249" data-name="Trazado 692249" d="M320.924,84.123a5.734,5.734,0,0,0,6.256,2.992c4.458-.821,4.386-4.667,4.386-4.667s2.6,5.7-4.022,6.9S320.924,84.123,320.924,84.123Z" transform="translate(-304.487 -5.638)" fill="#c8134b"/>
      <path id="Trazado_692250" data-name="Trazado 692250" d="M344.245,74.967A5.391,5.391,0,0,0,350.33,77.3a4.569,4.569,0,0,0,3.76-4.7s2.86,5.143-3.252,6.769S344.245,74.967,344.245,74.967Z" transform="translate(-300.291 -7.41)" fill="#c8134b"/>
      <path id="Trazado_692251" data-name="Trazado 692251" d="M348,84.061a5.736,5.736,0,0,0,6.474,2.485c4.377-1.173,4-5,4-5s3.043,5.472-3.461,7.2S348,84.061,348,84.061Z" transform="translate(-299.616 -5.801)" fill="#c8134b"/>
      <path id="Trazado_692252" data-name="Trazado 692252" d="M331.2,50.526A4.256,4.256,0,0,0,336,52.37a3.607,3.607,0,0,0,2.97-3.711s2.258,4.061-2.568,5.345S331.2,50.526,331.2,50.526Z" transform="translate(-302.638 -11.718)" fill="#c8134b"/>
      <path id="Trazado_692253" data-name="Trazado 692253" d="M327.245,48.168a4.257,4.257,0,0,0,4.8,1.844,3.607,3.607,0,0,0,2.969-3.711s2.258,4.061-2.567,5.345S327.245,48.168,327.245,48.168Z" transform="translate(-303.349 -12.142)" fill="#c8134b"/>
      <path id="Trazado_692254" data-name="Trazado 692254" d="M325.271,65.119a5.1,5.1,0,0,0,5.751,2.208,4.316,4.316,0,0,0,3.553-4.441s2.7,4.86-3.073,6.4S325.271,65.119,325.271,65.119Z" transform="translate(-303.704 -9.158)" fill="#c8134b"/>
      <path id="Trazado_692255" data-name="Trazado 692255" d="M339.22,71.981a5.391,5.391,0,0,0,6.084,2.336,4.567,4.567,0,0,0,3.76-4.7s2.86,5.142-3.252,6.768S339.22,71.981,339.22,71.981Z" transform="translate(-301.195 -7.947)" fill="#c8134b"/>
      <path id="Trazado_692256" data-name="Trazado 692256" d="M328.13,60.2a5.1,5.1,0,0,0,5.75,2.209,4.318,4.318,0,0,0,3.554-4.442s2.7,4.861-3.074,6.4S328.13,60.2,328.13,60.2Z" transform="translate(-303.19 -10.043)" fill="#c8134b"/>
      <path id="Trazado_692257" data-name="Trazado 692257" d="M333.25,63.591A5.093,5.093,0,0,0,339,65.8a4.316,4.316,0,0,0,3.554-4.441s2.7,4.86-3.074,6.4S333.25,63.591,333.25,63.591Z" transform="translate(-302.269 -9.433)" fill="#c8134b"/>
      <path id="Trazado_692258" data-name="Trazado 692258" d="M327.345,28.131c6.083-3.213,10.871.815,17.358-.87s6.288-5.2,6.288-5.2c-.389,2.35-3.565,4.229-8.507,4.031a22.991,22.991,0,0,1-11.406-4.048c-3.106-2.185-5.325-1.64-5.325-1.64C329.214,21.439,329.482,24.154,327.345,28.131Z" transform="translate(-303.618 -16.813)" fill="#c8134b"/>
    </g>
    <g id="Grupo_948135" data-name="Grupo 948135" transform="translate(411.213 266.911)">
      <g id="Grupo_948134" data-name="Grupo 948134">
        <g id="Grupo_948131" data-name="Grupo 948131" transform="translate(66.89)">
          <path id="Trazado_692259" data-name="Trazado 692259" d="M418.237,260.055c4.291,3.507,5.907,2.524,5.907,2.524a24.268,24.268,0,0,0-.074-21.183c-5.076-10.329-11.925-13.584-12.773-12.258-.861,1.35,4.622,5.7,6.422,12.316,2.68,9.85-2.573,15.692-2.573,15.692A21.534,21.534,0,0,0,418.237,260.055Z" transform="translate(-411.206 -228.857)" fill="#ffe568"/>
          <g id="Grupo_948130" data-name="Grupo 948130" transform="translate(1.915 3.923)">
            <path id="Trazado_692260" data-name="Trazado 692260" d="M423.2,243.2c-2.077.046-4.643-1.311-6.147-2.236.083.43.137.842.191,1.253C421.828,244.641,423.2,243.2,423.2,243.2Z" transform="translate(-412.069 -230.602)" fill="#f4d05b"/>
            <path id="Trazado_692261" data-name="Trazado 692261" d="M416.58,249.314c-.2.537-.4,1.01-.612,1.448,5.639,4.492,8.187,3.29,8.187,3.29A13.829,13.829,0,0,1,416.58,249.314Z" transform="translate(-412.264 -229.1)" fill="#f4d05b"/>
            <path id="Trazado_692262" data-name="Trazado 692262" d="M412.829,232.182c.242.335.5.689.756,1.062,2.426.36,3.481-.4,3.481-.4A10.709,10.709,0,0,1,412.829,232.182Z" transform="translate(-412.829 -232.182)" fill="#f4d05b"/>
            <path id="Trazado_692263" data-name="Trazado 692263" d="M419.994,246.209a6.57,6.57,0,0,0,4.032.463c-3.029-.319-6.659-2.939-6.659-2.939l0,.019c.011.393,0,.769-.012,1.142A12.357,12.357,0,0,0,419.994,246.209Z" transform="translate(-412.015 -230.104)" fill="#f4d05b"/>
            <path id="Trazado_692264" data-name="Trazado 692264" d="M424.2,249.965c-2.741-.16-6.152-2.839-6.963-3.508-.059.4-.126.786-.206,1.155C422.426,251.566,424.2,249.965,424.2,249.965Z" transform="translate(-412.074 -229.614)" fill="#f4d05b"/>
            <path id="Trazado_692265" data-name="Trazado 692265" d="M419.764,236.422a12.069,12.069,0,0,1-4.884-1.154c.224.386.444.783.655,1.194C418.449,237.267,419.764,236.422,419.764,236.422Z" transform="translate(-412.46 -231.627)" fill="#f4d05b"/>
            <path id="Trazado_692266" data-name="Trazado 692266" d="M421.667,239.833c-1.582.042-3.8-.9-5.415-1.725.153.4.294.817.421,1.239C420.063,240.738,421.667,239.833,421.667,239.833Z" transform="translate(-412.213 -231.116)" fill="#f4d05b"/>
          </g>
        </g>
        <path id="Trazado_692267" data-name="Trazado 692267" d="M422.084,295.211c2.872,3.153,5.681,6.482,9.251,8.881a11.4,11.4,0,0,0,5.626,2.2,4.666,4.666,0,0,0,3.4-1.1c.511-.413,1.064-.808,1.541-1.26.284-.27.933-1.495,1.214-1.586a2.741,2.741,0,0,1-2.688-.937c-.691-.723-1.15-1.637-1.779-2.415a13,13,0,0,0-4.815-3.274,17.236,17.236,0,0,1-5.009-3.014c-1.393-1.377-2.5-4.219-1.08-6.383.8,5.048,4.715,5.554,7.778,6.273,5.114,1.2,6.776,5.783,11.7,6.9,1.863.421,5.244,0,7.064.579s3.557,2.224,3.28,4.114c3.535-1.3,4.38-5.4,6.27-8.213a20.729,20.729,0,0,0,1.568-2.36,3.165,3.165,0,0,0,.173-2.733,3.7,3.7,0,0,0-3.032-1.67,13.989,13.989,0,0,1-5.969-1.811,26.722,26.722,0,0,1-4.7-3.613c-1.81-1.7-5.649-5.236-4.926-8.126.83-4.087,4.146-10.751-4.145-11.772s-5.8-5.249-17-11.842-40.905-.275-57.305,19.281c-15.891,18.95-28.547,75.028,22.463,128.427V325.878s-11.028-11.293-8.688-28.214c2.035-14.721,12.987-24.619,20.174-24.527s.555,6.035,5.943,13.013S417.939,290.661,422.084,295.211Z" transform="translate(-354.516 -225.139)" fill="#49ae48"/>
        <path id="Trazado_692268" data-name="Trazado 692268" d="M424.834,274.9s.768-3.917-.874-6.09-5.124-1.847-5.124-1.847-.693,3.073.722,4.68C420.785,273.041,424.265,273.468,424.834,274.9Z" transform="translate(-342.974 -222.003)" fill="#009956"/>
        <path id="Trazado_692269" data-name="Trazado 692269" d="M421.437,267.2c-1.447-.346-2.608,1-2.6,2.664a3.743,3.743,0,0,0,3.351,3.372,2.244,2.244,0,0,0,2.616-2.536A4.2,4.2,0,0,0,421.437,267.2Z" transform="translate(-342.942 -221.969)" fill="#fecb2f"/>
        <path id="Trazado_692270" data-name="Trazado 692270" d="M441.752,286.026c-1.319,0-2.826,3.062-1.884,3.416S443.071,286.026,441.752,286.026Z" transform="translate(-339.212 -218.571)" fill="#01773f"/>
        <path id="Trazado_692271" data-name="Trazado 692271" d="M447.285,284.988c-1.319,0-2.827,3.063-1.884,3.416S448.6,284.988,447.285,284.988Z" transform="translate(-338.217 -218.758)" fill="#01773f"/>
        <path id="Trazado_692272" data-name="Trazado 692272" d="M417.147,253.059" transform="translate(-343.247 -224.503)" fill="#f2f2f2"/>
        <path id="Trazado_692273" data-name="Trazado 692273" d="M431.28,293.743c1.769,2.785.124,12.056-1.727,19-2.5,9.359-1.089,21.535,17.365,27.281,0,0-8.82-8.215-6.517-19.466S443.655,301.565,431.28,293.743Z" transform="translate(-341.185 -217.183)" fill="#f49338"/>
        <path id="Trazado_692274" data-name="Trazado 692274" d="M441.439,300.064c3.9.78,9.969,4.737,10.92,9.983,1.344,7.422-5.363,13.415-1.122,19.967a10.5,10.5,0,0,1-7.926-7.717C441.752,316.063,450.019,308.487,441.439,300.064Z" transform="translate(-338.876 -216.045)" fill="#f49338"/>
        <path id="Trazado_692275" data-name="Trazado 692275" d="M427.524,324.521c2.34,9.967,9.7,13.392,21.151,17.479,17.319,6.18,19.873,22.3,5.337,34.465,0,0,2.251-15.911-9.136-21.839C435.056,349.515,421.441,342.461,427.524,324.521Z" transform="translate(-341.652 -211.645)" fill="#f49338"/>
        <g id="Grupo_948133" data-name="Grupo 948133" transform="translate(41.029 5.918)">
          <path id="Trazado_692276" data-name="Trazado 692276" d="M412.67,256.594c5.526.421,6.288-1.31,6.288-1.31a24.267,24.267,0,0,0-12.179-17.331c-10.073-5.567-17.554-4.318-17.49-2.747.066,1.6,7.049,2.028,12.314,6.427,7.833,6.546,6.867,14.342,6.867,14.342A21.561,21.561,0,0,0,412.67,256.594Z" transform="translate(-389.289 -233.872)" fill="#ffe568"/>
          <g id="Grupo_948132" data-name="Grupo 948132" transform="translate(3.581 1.397)">
            <path id="Trazado_692277" data-name="Trazado 692277" d="M407.134,240.009c-1.677,1.226-4.558,1.582-6.321,1.684.313.3.594.611.873.919C406.832,241.977,407.134,240.009,407.134,240.009Z" transform="translate(-390.797 -234.165)" fill="#f4d05b"/>
            <path id="Trazado_692278" data-name="Trazado 692278" d="M405.125,248.677c.146.552.247,1.06.326,1.537,7.2.459,8.6-1.986,8.6-1.986A13.828,13.828,0,0,1,405.125,248.677Z" transform="translate(-390.021 -232.686)" fill="#f4d05b"/>
            <path id="Trazado_692279" data-name="Trazado 692279" d="M392.324,236.938c.389.136.8.282,1.227.438,2.2-1.093,2.626-2.32,2.626-2.32A10.71,10.71,0,0,1,392.324,236.938Z" transform="translate(-392.324 -235.056)" fill="#f4d05b"/>
            <path id="Trazado_692280" data-name="Trazado 692280" d="M406.223,244.27a6.57,6.57,0,0,0,3.572-1.927c-2.665,1.473-7.143,1.4-7.143,1.4l.008.018c.234.316.44.63.644.944A12.283,12.283,0,0,0,406.223,244.27Z" transform="translate(-390.466 -233.745)" fill="#f4d05b"/>
            <path id="Trazado_692281" data-name="Trazado 692281" d="M411.795,244.92c-2.341,1.436-6.671,1.191-7.718,1.106.179.36.346.717.492,1.065C411.259,247.244,411.795,244.92,411.795,244.92Z" transform="translate(-390.209 -233.281)" fill="#f4d05b"/>
            <path id="Trazado_692282" data-name="Trazado 692282" d="M400.438,236.443a12.1,12.1,0,0,1-4.667,1.848q.607.281,1.221.6C399.842,237.887,400.438,236.443,400.438,236.443Z" transform="translate(-391.704 -234.806)" fill="#f4d05b"/>
            <path id="Trazado_692283" data-name="Trazado 692283" d="M403.949,238.127c-1.273.939-3.629,1.431-5.428,1.683.356.243.708.5,1.055.775C403.151,239.786,403.949,238.127,403.949,238.127Z" transform="translate(-391.209 -234.503)" fill="#f4d05b"/>
          </g>
        </g>
        <path id="Trazado_692284" data-name="Trazado 692284" d="M412.205,254.718c-1.675.089.745-6.054-7.633-8.661s-11.845-1.839-12.473-.745c-1.366,2.385,3.685,11.727,9.382,13.217q.52.135,1.01.227a9.771,9.771,0,0,0,9.714-4.039Z" transform="translate(-347.794 -226.079)" fill="#49ae48"/>
      </g>
      <path id="Trazado_692285" data-name="Trazado 692285" d="M402.04,255.307c-6.057-2.052-9.941-10.035-8.79-10.78h0a1.927,1.927,0,0,0-1.15.745c-1.366,2.385,3.685,11.727,9.382,13.217q.52.134,1.01.227a9.771,9.771,0,0,0,9.714-4.039S408.1,257.357,402.04,255.307Z" transform="translate(-347.794 -226.038)" fill="#009956"/>
      <path id="Trazado_692286" data-name="Trazado 692286" d="M410.1,254.446s-.811-4.621-5.34-5.488-7.613.044-6.552.937S408.014,250.78,410.1,254.446Z" transform="translate(-346.693 -225.303)" fill="#009956"/>
      <path id="Trazado_692287" data-name="Trazado 692287" d="M380.224,294.64c2.035-14.721,12.987-24.619,20.174-24.527,2.016.025,2.944.512,3.356,1.352h0c-1.448-3.665-9.953-10.773-23.859,2.929s-18.6,45.589-8.507,72.239,17.524,32.3,17.524,32.3V322.854S377.884,311.561,380.224,294.64Z" transform="translate(-352.454 -222.115)" fill="#fecb2f"/>
      <path id="Trazado_692288" data-name="Trazado 692288" d="M373.449,350.832c-21.038-14.769-18.618-59.687-6.807-80.773-14.925,20.962-24.659,74.713,24.331,126V335.175C390.15,346.59,386.586,360.054,373.449,350.832Z" transform="translate(-354.516 -221.444)" fill="#074959" opacity="0.2" style="mix-blend-mode: multiply;isolation: isolate"/>
      <path id="Trazado_692289" data-name="Trazado 692289" d="M422.9,267.853a4.012,4.012,0,0,0-2.333,1.347,6.148,6.148,0,0,0-.617,2.926A3.555,3.555,0,0,0,422.9,267.853Z" transform="translate(-342.743 -221.841)" fill="#074959"/>
      <path id="Trazado_692290" data-name="Trazado 692290" d="M428.467,267.184c-1.681-1.557-5.924-3.786-9.71-2.831a21.7,21.7,0,0,1-7.278.5,13.31,13.31,0,0,0,5.9-2.228C420.872,260.446,423.975,262.155,428.467,267.184Z" transform="translate(-344.267 -222.949)" fill="#009956"/>
      <path id="Trazado_692291" data-name="Trazado 692291" d="M433.844,276.093a4.468,4.468,0,0,1-.728-3.009c.559-2.755,2.244-6.681.745-9.259.675,1.952-.912,2.754-2.018,4.645s.295,5.117,2,7.622Z" transform="translate(-340.674 -222.566)" fill="#009956"/>
      <path id="Trazado_692292" data-name="Trazado 692292" d="M404.527,286.9c-2.177-1.8-6.711-9.633-3.541-15.163s6.121-5.378,6.121-5.378-6.121-1.146-8.8,6.2C395.388,280.578,404.527,286.9,404.527,286.9Z" transform="translate(-346.74 -222.122)" fill="#009956"/>
      <path id="Trazado_692293" data-name="Trazado 692293" d="M423.963,268.764a4.63,4.63,0,0,0-2.58-1.556,8.159,8.159,0,0,0-2.573-.241,3.881,3.881,0,0,0,.406,1.391,4.225,4.225,0,0,1,3.619.933,4.582,4.582,0,0,1,1.235,3.5,3.624,3.624,0,0,1,.739,2.116,11.717,11.717,0,0,0,.012-3.961A3.61,3.61,0,0,0,423.963,268.764Z" transform="translate(-342.948 -222.004)" fill="#074959" opacity="0.2" style="mix-blend-mode: multiply;isolation: isolate"/>
      <path id="Trazado_692294" data-name="Trazado 692294" d="M386.85,268.372s1.809,0,4,3.039l-1.28.767A8.4,8.4,0,0,0,386.85,268.372Z" transform="translate(-348.698 -221.748)" fill="#f59d10"/>
      <path id="Trazado_692295" data-name="Trazado 692295" d="M386.757,274.694c-1.842-2.129-5.482-3.1-5.482-3.1a19.147,19.147,0,0,1,4.272,4.369Z" transform="translate(-349.701 -221.167)" fill="#f59d10"/>
      <path id="Trazado_692296" data-name="Trazado 692296" d="M383.418,278.871s-1.156-1.694-6.3-2.564c0,0,3.618,1.56,5.33,4.143Z" transform="translate(-350.449 -220.32)" fill="#f59d10"/>
      <path id="Trazado_692297" data-name="Trazado 692297" d="M380.968,283.917s-2.6-1.954-7.739-1.638a25.619,25.619,0,0,1,7.082,3.469Z" transform="translate(-351.149 -219.252)" fill="#f59d10"/>
      <path id="Trazado_692298" data-name="Trazado 692298" d="M379.506,290.492c-3-1.506-7.738-1.225-9.541-.636,0,0,6.123.65,9.339,2.461Z" transform="translate(-351.736 -217.967)" fill="#f59d10"/>
      <path id="Trazado_692299" data-name="Trazado 692299" d="M379.6,296.952a19.62,19.62,0,0,0-11.2,1.216s8.331-.2,11.5,1.186Z" transform="translate(-352.017 -216.664)" fill="#f59d10"/>
      <path id="Trazado_692300" data-name="Trazado 692300" d="M381.189,303.214s-9.489-.57-13.19,4.016c0,0,7.159-3.021,13.979-1.8Z" transform="translate(-352.09 -215.483)" fill="#f59d10"/>
      <path id="Trazado_692301" data-name="Trazado 692301" d="M384.21,309.5s-9.806.54-14.591,6.272c0,0,9.313-4.991,15.623-4.6Z" transform="translate(-351.798 -214.348)" fill="#f59d10"/>
      <path id="Trazado_692302" data-name="Trazado 692302" d="M387.817,314.235s-11.479,2.216-15.761,12.137c0,0,7.895-7.411,15.789-9.463Z" transform="translate(-351.36 -213.496)" fill="#f59d10"/>
      <path id="Trazado_692303" data-name="Trazado 692303" d="M387.3,321.745s-9.514,5.4-12.366,15.889c0,0,6.389-9.209,12.366-12.77Z" transform="translate(-350.842 -212.145)" fill="#f59d10"/>
      <path id="Trazado_692304" data-name="Trazado 692304" d="M445.39,294.576c-2.378-2.31-7-.884-9.757-1.562s-4.518-5.117-6.932-6.281c-3.1-1.494-7.714-.4-10.209-3.7a4.3,4.3,0,0,1-.884-3.6,4.191,4.191,0,0,0-1.027,1.511c.8,5.048,4.715,5.554,7.778,6.272,5.114,1.2,6.776,5.783,11.7,6.9,1.863.421,5.244,0,7.064.579s3.557,2.224,3.28,4.114C446.4,298.8,447.767,296.885,445.39,294.576Z" transform="translate(-343.349 -219.758)" fill="#009956"/>
      <path id="Trazado_692305" data-name="Trazado 692305" d="M355.263,303.837a3.5,3.5,0,0,0,3.294,2.647,2.962,2.962,0,0,0,3.252-2.158s.749,3.74-3.346,3.536A3.16,3.16,0,0,1,355.263,303.837Z" transform="translate(-354.396 -215.367)" fill="#07824a"/>
      <path id="Trazado_692306" data-name="Trazado 692306" d="M358.808,301.246a3.5,3.5,0,0,0,3.294,2.647,2.962,2.962,0,0,0,3.252-2.158s.748,3.742-3.347,3.536A3.16,3.16,0,0,1,358.808,301.246Z" transform="translate(-353.758 -215.833)" fill="#009956"/>
      <path id="Trazado_692307" data-name="Trazado 692307" d="M357.5,323.888a3.5,3.5,0,0,0,3.94,1.528,2.963,2.963,0,0,0,2.448-3.039s1.843,3.34-2.123,4.382A3.16,3.16,0,0,1,357.5,323.888Z" transform="translate(-353.979 -212.031)" fill="#07824a"/>
      <path id="Trazado_692308" data-name="Trazado 692308" d="M366,340.514a3.5,3.5,0,0,0,4.064,1.157,2.961,2.961,0,0,0,2.157-3.252s2.144,3.156-1.709,4.559A3.16,3.16,0,0,1,366,340.514Z" transform="translate(-352.449 -209.144)" fill="#07824a"/>
      <path id="Trazado_692309" data-name="Trazado 692309" d="M362.245,339.262a3.5,3.5,0,0,0,4.064,1.158,2.962,2.962,0,0,0,2.158-3.252s2.144,3.156-1.71,4.559A3.16,3.16,0,0,1,362.245,339.262Z" transform="translate(-353.125 -209.37)" fill="#07824a"/>
      <path id="Trazado_692310" data-name="Trazado 692310" d="M359.357,320.42a3.5,3.5,0,0,0,3.94,1.528,2.964,2.964,0,0,0,2.448-3.041s1.843,3.342-2.123,4.382A3.159,3.159,0,0,1,359.357,320.42Z" transform="translate(-353.645 -212.655)" fill="#009956"/>
      <path id="Trazado_692311" data-name="Trazado 692311" d="M362.413,286.235a3.5,3.5,0,0,0,3.065,2.909,2.963,2.963,0,0,0,3.419-1.883s.438,3.79-3.627,3.248A3.159,3.159,0,0,1,362.413,286.235Z" transform="translate(-353.125 -218.534)" fill="#009956"/>
      <path id="Trazado_692312" data-name="Trazado 692312" d="M360.873,282.632a3.5,3.5,0,0,0,2.513,3.4,2.962,2.962,0,0,0,3.694-1.26s-.229,3.809-4.137,2.569A3.161,3.161,0,0,1,360.873,282.632Z" transform="translate(-353.45 -219.182)" fill="#009956"/>
      <path id="Trazado_692313" data-name="Trazado 692313" d="M366.5,270.177a3.5,3.5,0,0,0,2.513,3.4,2.961,2.961,0,0,0,3.693-1.26s-.228,3.809-4.137,2.569A3.161,3.161,0,0,1,366.5,270.177Z" transform="translate(-352.437 -221.423)" fill="#009956"/>
      <path id="Trazado_692314" data-name="Trazado 692314" d="M377.66,260.388a3.494,3.494,0,0,0,.73,4.162,2.962,2.962,0,0,0,3.868.523s-1.9,3.3-4.848.45A3.159,3.159,0,0,1,377.66,260.388Z" transform="translate(-350.621 -223.184)" fill="#009956"/>
      <path id="Trazado_692315" data-name="Trazado 692315" d="M381.773,260.388a3.494,3.494,0,0,0,.73,4.162,2.962,2.962,0,0,0,3.868.523s-1.9,3.3-4.848.45A3.159,3.159,0,0,1,381.773,260.388Z" transform="translate(-349.881 -223.184)" fill="#009956"/>
      <path id="Trazado_692316" data-name="Trazado 692316" d="M392.444,253.614a3.5,3.5,0,0,0-1.668,3.883,2.962,2.962,0,0,0,2.95,2.556s-3.405,1.723-4.3-2.28A3.16,3.16,0,0,1,392.444,253.614Z" transform="translate(-348.259 -224.403)" fill="#009956"/>
      <path id="Trazado_692317" data-name="Trazado 692317" d="M396.063,255.84a3.5,3.5,0,0,0-2.072,3.684,2.961,2.961,0,0,0,2.661,2.854s-3.569,1.351-4.035-2.723A3.16,3.16,0,0,1,396.063,255.84Z" transform="translate(-347.668 -224.003)" fill="#009956"/>
      <path id="Trazado_692318" data-name="Trazado 692318" d="M394.245,258.99a3.5,3.5,0,0,0-1.862,3.793,2.962,2.962,0,0,0,2.818,2.7s-3.488,1.549-4.183-2.492A3.16,3.16,0,0,1,394.245,258.99Z" transform="translate(-347.963 -223.436)" fill="#009956"/>
      <path id="Trazado_692319" data-name="Trazado 692319" d="M405.524,257.369a3.5,3.5,0,0,0-.337,4.212,2.962,2.962,0,0,0,3.613,1.477s-2.674,2.721-4.806-.781A3.16,3.16,0,0,1,405.524,257.369Z" transform="translate(-345.733 -223.727)" fill="#009956"/>
      <path id="Trazado_692320" data-name="Trazado 692320" d="M433.367,296.626c.662,1.331,2.14,9.038-.015,14.743-1.884,4.989-1.986,15.006,6.179,20.081,0,0-4.414-6.832-1.765-14.616S439.2,300.683,433.367,296.626Z" transform="translate(-340.521 -216.664)" fill="#fecb2f"/>
      <path id="Trazado_692321" data-name="Trazado 692321" d="M434.986,299.752a14.253,14.253,0,0,1,2.483,8.539c-.3,3.934-3.015,8.249-2.277,11.864,0,0-1.552-2.947-.138-7.527A20.686,20.686,0,0,0,434.986,299.752Z" transform="translate(-340.132 -216.102)" fill="#ffeaa8"/>
      <path id="Trazado_692322" data-name="Trazado 692322" d="M443.855,301.723s5.574,2.964,6.439,7.876c.657,3.729-1.594,8.743-2.381,10.823-1.047,2.77.412,5.934.412,5.934s-3.43-2.258-2.655-7.451c.618-4.153,2-6.42,1.464-11.268C446.787,304.471,443.855,301.723,443.855,301.723Z" transform="translate(-338.442 -215.747)" fill="#fecb2f"/>
      <path id="Trazado_692323" data-name="Trazado 692323" d="M446.634,304.613a8.623,8.623,0,0,1,2.614,5.114c.293,2.875-1.289,7.006-1.289,7.006s.879-5,.6-7.307A16.5,16.5,0,0,0,446.634,304.613Z" transform="translate(-337.942 -215.227)" fill="#ffeaa8"/>
      <path id="Trazado_692324" data-name="Trazado 692324" d="M428.2,329.371s2.3,6.949,12,10.205,18.782,6.629,20.708,14.954c1.641,7.1-3.071,14.82-3.071,14.82s-.425-9.338-4.6-14.451-14.02-8.832-19.091-11.935C428.694,339.629,427.988,335.632,428.2,329.371Z" transform="translate(-341.265 -210.773)" fill="#fecb2f"/>
      <path id="Trazado_692325" data-name="Trazado 692325" d="M430.263,334.2s.769,3.431,8.668,6.287,9.017,2.216,15.1,6.435c-4.225-2.212-8.812-2.853-13.6-4.272C435.5,341.189,430.165,338.484,430.263,334.2Z" transform="translate(-340.887 -209.904)" fill="#ffeaa8"/>
    </g>
    <path id="Trazado_692326" data-name="Trazado 692326" d="M102.988,132.509H92.129v292l10.859-.327Z" transform="translate(9.489 20.719)" fill="#d9e5ec"/>
    <path id="Trazado_692327" data-name="Trazado 692327" d="M93.526,142.022l-9.16,3.153V408.523l9.16,3.247Z" transform="translate(8.092 22.431)" fill="#cad9e0"/>
    <path id="Trazado_692328" data-name="Trazado 692328" d="M165.67,91.03l1.175,6.038,5.64,2.455a1.6,1.6,0,0,1,.137,2.857l-5.38,2.983-.592,6.123a1.594,1.594,0,0,1-2.674,1.014l-4.5-4.195-6.007,1.329a1.594,1.594,0,0,1-1.789-2.23l2.6-5.575-3.12-5.3a1.594,1.594,0,0,1,1.568-2.391l6.106.748,4.078-4.605A1.6,1.6,0,0,1,165.67,91.03Z" transform="translate(20.07 13.024)" fill="#fff7e1"/>
    <path id="Trazado_692329" data-name="Trazado 692329" d="M414.032,72.332l3.884,4.77,6.131-.5a1.594,1.594,0,0,1,1.468,2.454l-3.337,5.168,2.365,5.679a1.594,1.594,0,0,1-1.88,2.153l-5.946-1.576-4.67,4a1.6,1.6,0,0,1-2.63-1.122l-.337-6.143-5.252-3.2a1.6,1.6,0,0,1,.256-2.848l5.737-2.218,1.424-5.985A1.594,1.594,0,0,1,414.032,72.332Z" transform="translate(65.433 9.786)" fill="#fff7e1"/>
    <path id="Trazado_692330" data-name="Trazado 692330" d="M459.105,219.443l3.884,4.77,6.131-.494a1.594,1.594,0,0,1,1.468,2.453l-3.337,5.168,2.365,5.679a1.593,1.593,0,0,1-1.88,2.153L461.79,237.6l-4.669,4a1.6,1.6,0,0,1-2.63-1.123l-.338-6.143-5.252-3.2a1.594,1.594,0,0,1,.255-2.847l5.738-2.219,1.424-5.985A1.594,1.594,0,0,1,459.105,219.443Z" transform="translate(73.542 36.254)" fill="#fff7e1"/>
    <path id="Trazado_692331" data-name="Trazado 692331" d="M50.356,216.107l3.883,4.77,6.132-.494a1.594,1.594,0,0,1,1.468,2.453L58.5,228l2.366,5.679a1.593,1.593,0,0,1-1.88,2.153l-5.947-1.576-4.67,4a1.594,1.594,0,0,1-2.629-1.123L45.4,231l-5.252-3.2a1.594,1.594,0,0,1,.255-2.847l5.738-2.219,1.424-5.985A1.594,1.594,0,0,1,50.356,216.107Z" transform="translate(0 35.654)" fill="#fff7e1"/>
    <g id="Grupo_948138" data-name="Grupo 948138" transform="translate(51.178 61.472)">
      <g id="Grupo_948137" data-name="Grupo 948137" transform="translate(0)">
        <circle id="Elipse_5537" data-name="Elipse 5537" cx="27.13" cy="27.13" r="27.13" transform="translate(0 42.96) rotate(-52.349)" fill="#ee7249"/>
        <path id="Trazado_692332" data-name="Trazado 692332" d="M71.742,72.756a3.6,3.6,0,0,0,.924,1.635c2.538,2.559,6.958,1.533,10.166,2.117,2.95.537,6.595.951,9.475,1.757,2.172.609,5.672,2.1,5.688-1.43a9.011,9.011,0,0,0-2.943-6.573c-2.8-2.9-7.95-4.2-11.943-4.331-3.746-.125-9.26,1.313-11.18,4.927A2.654,2.654,0,0,0,71.742,72.756Z" transform="translate(-45.373 -52.733)" fill="#ffedb2" opacity="0.15"/>
        <path id="Trazado_692333" data-name="Trazado 692333" d="M99.491,81.166a1.926,1.926,0,0,0,1.268-1.4,4.227,4.227,0,0,0-.044-1.957c-.485-2.28-1.749-5.048-4.114-5.839a1.429,1.429,0,0,0-1.429.123,1.446,1.446,0,0,0-.327,1.086,21.287,21.287,0,0,0,.461,4.48,4.058,4.058,0,0,0,1.246,2.452C97.226,80.643,98.61,81.4,99.491,81.166Z" transform="translate(-41.2 -51.668)" fill="#ffedb2" opacity="0.15"/>
        <path id="Trazado_692334" data-name="Trazado 692334" d="M112.8,93.05c-2.527,9.255-17.458,19.374-33.478,11.871-17.045-7.983-14.013-31.952-4.49-38.974A27.132,27.132,0,1,0,112.8,93.05Z" transform="translate(-47.715 -52.729)" fill="#eb5a41"/>
        <g id="Grupo_948136" data-name="Grupo 948136" transform="translate(4.044 20.212)">
          <path id="Trazado_692335" data-name="Trazado 692335" d="M65.1,106.886c-6.221.715-10.3-.447-11.8-3.535-1.619-3.324.847-7.708,5.865-10.426l.668-.37a31.214,31.214,0,0,0,.708,3.936c-2.983,1.751-4.4,4.06-3.839,5.2.8,1.645,8.182,4.129,30.828-5.7,26.083-11.326,29.72-18.553,29.223-19.737-.241-.571-2.459-1.232-6.208.3a26.769,26.769,0,0,0-2.1-3.221l.392-.171c5.39-2.2,10.079-1.524,11.405,1.628,2.514,5.98-8.858,14.973-31.2,24.676C79.287,103.7,71.172,106.185,65.1,106.886Z" transform="translate(-52.807 -71.875)" fill="#fff7e1"/>
        </g>
      </g>
    </g>
  </g>
</svg>
