<svg xmlns="http://www.w3.org/2000/svg" width="121" height="121" viewBox="0 0 121 121">
  <g id="Grupo_953274" data-name="Grupo 953274" transform="translate(-234.167 -495)">
    <circle id="Elipse_5412" data-name="Elipse 5412" cx="60.5" cy="60.5" r="60.5" transform="translate(234.167 495)" fill="#e8e8e8"/>
    <g id="fabula" transform="translate(239.821 504.475)">
      <g id="Grupo_947472" data-name="Grupo 947472" transform="translate(15.483 9.827)">
        <g id="Grupo_947462" data-name="Grupo 947462" transform="translate(0 20.827)">
          <g id="Grupo_947441" data-name="Grupo 947441" transform="translate(0 6.308)">
            <g id="Grupo_947439" data-name="Grupo 947439">
              <path id="Trazado_690810" data-name="Trazado 690810" d="M51.224,142.923H18.969a3.486,3.486,0,0,1-3.486-3.486V91.147a3.486,3.486,0,0,1,3.486-3.486H51.224a3.486,3.486,0,0,1,3.486,3.486v48.29A3.486,3.486,0,0,1,51.224,142.923Z" transform="translate(-15.483 -87.661)" fill="#8c77aa"/>
            </g>
            <g id="Grupo_947440" data-name="Grupo 947440" transform="translate(39.227)">
              <path id="Trazado_690811" data-name="Trazado 690811" d="M163.741,142.923H131.486A3.486,3.486,0,0,1,128,139.437V91.147a3.486,3.486,0,0,1,3.486-3.486h32.255a3.486,3.486,0,0,1,3.486,3.486v48.29A3.486,3.486,0,0,1,163.741,142.923Z" transform="translate(-128 -87.661)" fill="#8c77aa"/>
            </g>
          </g>
          <g id="Grupo_947444" data-name="Grupo 947444" transform="translate(0 3.068)">
            <g id="Grupo_947442" data-name="Grupo 947442">
              <path id="Trazado_690812" data-name="Trazado 690812" d="M51.224,133.629H18.969a3.486,3.486,0,0,1-3.486-3.486V81.853a3.486,3.486,0,0,1,3.486-3.486H51.224a3.486,3.486,0,0,1,3.486,3.486v48.29A3.486,3.486,0,0,1,51.224,133.629Z" transform="translate(-15.483 -78.367)" fill="#a48bc1"/>
            </g>
            <g id="Grupo_947443" data-name="Grupo 947443" transform="translate(39.227)">
              <path id="Trazado_690813" data-name="Trazado 690813" d="M163.741,133.629H131.486A3.486,3.486,0,0,1,128,130.143V81.853a3.486,3.486,0,0,1,3.486-3.486h32.255a3.486,3.486,0,0,1,3.486,3.486v48.29A3.486,3.486,0,0,1,163.741,133.629Z" transform="translate(-128 -78.367)" fill="#ba9dd6"/>
            </g>
          </g>
          <g id="Grupo_947445" data-name="Grupo 947445" transform="translate(3.002)">
            <path id="Trazado_690814" data-name="Trazado 690814" d="M56.833,123.917H27.581A3.486,3.486,0,0,1,24.1,120.43V73.053a3.486,3.486,0,0,1,3.486-3.486H56.833a3.486,3.486,0,0,1,3.486,3.486V120.43A3.486,3.486,0,0,1,56.833,123.917Z" transform="translate(-24.095 -69.567)" fill="#e8c197"/>
          </g>
          <g id="Grupo_947446" data-name="Grupo 947446" transform="translate(39.227)">
            <path id="Trazado_690815" data-name="Trazado 690815" d="M160.738,123.917H131.486A3.486,3.486,0,0,1,128,120.43V73.053a3.486,3.486,0,0,1,3.486-3.486h29.252a3.486,3.486,0,0,1,3.486,3.486V120.43A3.486,3.486,0,0,1,160.738,123.917Z" transform="translate(-128 -69.567)" fill="#e6e7e8"/>
          </g>
          <g id="Grupo_947447" data-name="Grupo 947447" transform="translate(39.227)">
            <path id="Trazado_690816" data-name="Trazado 690816" d="M160.738,123.917H131.486A3.486,3.486,0,0,1,128,120.43V73.053a3.486,3.486,0,0,1,3.486-3.486h29.252a3.486,3.486,0,0,1,3.486,3.486V120.43A3.486,3.486,0,0,1,160.738,123.917Z" transform="translate(-128 -69.567)" fill="#fedbb0"/>
          </g>
          <g id="Grupo_947448" data-name="Grupo 947448" transform="translate(64.993)">
            <path id="Trazado_690817" data-name="Trazado 690817" d="M208.878,69.567H201.9a3.486,3.486,0,0,1,3.486,3.486V120.43a3.486,3.486,0,0,1-3.486,3.486h6.973a3.486,3.486,0,0,0,3.486-3.486V73.053A3.486,3.486,0,0,0,208.878,69.567Z" transform="translate(-201.905 -69.567)" fill="#e8c197"/>
          </g>
          <g id="Grupo_947461" data-name="Grupo 947461" transform="translate(8.864 7.874)">
            <g id="Grupo_947454" data-name="Grupo 947454" transform="translate(36.77)">
              <g id="Grupo_947449" data-name="Grupo 947449" transform="translate(10.459)">
                <path id="Trazado_690818" data-name="Trazado 690818" d="M189.176,93.547h-12.1a.7.7,0,1,1,0-1.395h12.1a.7.7,0,1,1,0,1.395Z" transform="translate(-176.376 -92.152)" fill="#a86654"/>
              </g>
              <g id="Grupo_947450" data-name="Grupo 947450" transform="translate(10.459 9.295)">
                <path id="Trazado_690819" data-name="Trazado 690819" d="M189.176,120.207h-12.1a.7.7,0,1,1,0-1.395h12.1a.7.7,0,1,1,0,1.395Z" transform="translate(-176.376 -118.812)" fill="#a86654"/>
              </g>
              <g id="Grupo_947451" data-name="Grupo 947451" transform="translate(0 18.589)">
                <path id="Trazado_690820" data-name="Trazado 690820" d="M169.635,146.866H147.073a.7.7,0,0,1,0-1.395h22.562a.7.7,0,1,1,0,1.395Z" transform="translate(-146.376 -145.471)" fill="#a86654"/>
              </g>
              <g id="Grupo_947452" data-name="Grupo 947452" transform="translate(0 27.883)">
                <path id="Trazado_690821" data-name="Trazado 690821" d="M169.635,173.526H147.073a.7.7,0,0,1,0-1.395h22.562a.7.7,0,1,1,0,1.395Z" transform="translate(-146.376 -172.131)" fill="#a86654"/>
              </g>
              <g id="Grupo_947453" data-name="Grupo 947453" transform="translate(0 37.178)">
                <path id="Trazado_690822" data-name="Trazado 690822" d="M169.635,200.187H147.073a.7.7,0,0,1,0-1.395h22.562a.7.7,0,1,1,0,1.395Z" transform="translate(-146.376 -198.792)" fill="#a86654"/>
              </g>
            </g>
            <g id="Grupo_947460" data-name="Grupo 947460">
              <g id="Grupo_947455" data-name="Grupo 947455" transform="translate(0)">
                <path id="Trazado_690823" data-name="Trazado 690823" d="M53.708,93.547h-12.1a.7.7,0,1,1,0-1.395h12.1a.7.7,0,1,1,0,1.395Z" transform="translate(-40.908 -92.152)" fill="#a86654"/>
              </g>
              <g id="Grupo_947456" data-name="Grupo 947456" transform="translate(0 9.295)">
                <path id="Trazado_690824" data-name="Trazado 690824" d="M53.708,120.207h-12.1a.7.7,0,1,1,0-1.395h12.1a.7.7,0,1,1,0,1.395Z" transform="translate(-40.908 -118.812)" fill="#a86654"/>
              </g>
              <g id="Grupo_947457" data-name="Grupo 947457" transform="translate(0 18.589)">
                <path id="Trazado_690825" data-name="Trazado 690825" d="M64.167,146.866H41.605a.7.7,0,0,1,0-1.395H64.167a.7.7,0,0,1,0,1.395Z" transform="translate(-40.908 -145.471)" fill="#a86654"/>
              </g>
              <g id="Grupo_947458" data-name="Grupo 947458" transform="translate(0 27.883)">
                <path id="Trazado_690826" data-name="Trazado 690826" d="M64.167,173.526H41.605a.7.7,0,0,1,0-1.395H64.167a.7.7,0,0,1,0,1.395Z" transform="translate(-40.908 -172.131)" fill="#a86654"/>
              </g>
              <g id="Grupo_947459" data-name="Grupo 947459" transform="translate(0 37.178)">
                <path id="Trazado_690827" data-name="Trazado 690827" d="M64.167,200.187H41.605a.7.7,0,0,1,0-1.395H64.167a.7.7,0,0,1,0,1.395Z" transform="translate(-40.908 -198.792)" fill="#a86654"/>
              </g>
            </g>
          </g>
        </g>
        <g id="Grupo_947467" data-name="Grupo 947467" transform="translate(26.898 9.835)">
          <g id="Grupo_947463" data-name="Grupo 947463" transform="translate(0.773)">
            <path id="Trazado_690828" data-name="Trazado 690828" d="M127.4,41.88H114.049l-1.625-2.837a7.993,7.993,0,0,0-.689-1.007H99.287a7.933,7.933,0,0,0-1.7,4.15l-2.713,26.3a3.486,3.486,0,0,0,3.468,3.844h15.37a3.486,3.486,0,0,0,3.469-3.839l-.957-9.417a2.887,2.887,0,0,1,1.832-2.985l8.38-3.239a5.878,5.878,0,0,0,3.759-5.483v-2.7A2.789,2.789,0,0,0,127.4,41.88Z" transform="translate(-94.853 -38.036)" fill="#c68254"/>
          </g>
          <g id="Grupo_947464" data-name="Grupo 947464" transform="translate(31.428 3.844)">
            <path id="Trazado_690829" data-name="Trazado 690829" d="M187.466,53.44h-3.289a1.4,1.4,0,0,1-1.395-1.395V49.062h1.895a2.789,2.789,0,0,1,2.789,2.789Z" transform="translate(-182.782 -49.062)" fill="#422618"/>
          </g>
          <g id="Grupo_947465" data-name="Grupo 947465" transform="translate(14.12 2.45)">
            <circle id="Elipse_5502" data-name="Elipse 5502" cx="1.428" cy="1.428" r="1.428" fill="#422618"/>
          </g>
          <g id="Grupo_947466" data-name="Grupo 947466" transform="translate(0)">
            <path id="Trazado_690830" data-name="Trazado 690830" d="M103.616,38.917a4.322,4.322,0,0,0-.2-.881h-8.2a4.339,4.339,0,0,0-.18.761L92.7,55.175a6.449,6.449,0,1,0,12.791.18Z" transform="translate(-92.636 -38.036)" fill="#725246"/>
          </g>
        </g>
        <g id="Grupo_947468" data-name="Grupo 947468" transform="translate(14.163 6.801)">
          <path id="Trazado_690831" data-name="Trazado 690831" d="M65.943,34.1l.249.067a.342.342,0,0,1,0,.661l-.249.067a6.05,6.05,0,0,0-4.269,4.269l-.067.249a.342.342,0,0,1-.661,0l-.067-.249A6.05,6.05,0,0,0,56.61,34.9l-.249-.067a.342.342,0,0,1,0-.661l.249-.067a6.05,6.05,0,0,0,4.269-4.269l.067-.249a.342.342,0,0,1,.661,0l.067.249A6.05,6.05,0,0,0,65.943,34.1Z" transform="translate(-56.107 -29.333)" fill="#fcc171"/>
        </g>
        <g id="Grupo_947469" data-name="Grupo 947469" transform="translate(61.076 4.452)">
          <path id="Trazado_690832" data-name="Trazado 690832" d="M198.122,26.211l.189.051a.26.26,0,0,1,0,.5l-.189.051a4.584,4.584,0,0,0-3.235,3.235l-.051.189a.26.26,0,0,1-.5,0l-.051-.189a4.584,4.584,0,0,0-3.235-3.235l-.189-.051a.26.26,0,0,1,0-.5l.189-.051a4.584,4.584,0,0,0,3.235-3.235l.051-.189a.26.26,0,0,1,.5,0l.051.189A4.584,4.584,0,0,0,198.122,26.211Z" transform="translate(-190.67 -22.595)" fill="#fcc171"/>
        </g>
        <g id="Grupo_947470" data-name="Grupo 947470" transform="translate(51.858 1.95)">
          <path id="Trazado_690833" data-name="Trazado 690833" d="M169.253,17.858l.127.034a.175.175,0,0,1,0,.338l-.127.034a3.091,3.091,0,0,0-2.181,2.181l-.034.127a.175.175,0,0,1-.338,0l-.034-.127a3.091,3.091,0,0,0-2.181-2.181l-.127-.034a.175.175,0,0,1,0-.338l.127-.034a3.091,3.091,0,0,0,2.181-2.181l.034-.127a.175.175,0,0,1,.338,0l.034.127A3.091,3.091,0,0,0,169.253,17.858Z" transform="translate(-164.229 -15.421)" fill="#fcc171"/>
        </g>
        <g id="Grupo_947471" data-name="Grupo 947471" transform="translate(28.758)">
          <path id="Trazado_690834" data-name="Trazado 690834" d="M99.268,11.343l2.843,4.788,3.539-5.963a.7.7,0,0,1,1.2,0l3.541,5.963,2.844-4.789a.7.7,0,0,1,1.3.356v7.266a.7.7,0,0,1-.7.7H98.668a.7.7,0,0,1-.7-.7V11.7A.7.7,0,0,1,99.268,11.343Z" transform="translate(-97.971 -9.827)" fill="#fcc171"/>
        </g>
      </g>
    </g>
  </g>
</svg>
