<svg xmlns="http://www.w3.org/2000/svg" width="121" height="121" viewBox="0 0 121 121">
  <g id="Grupo_953277" data-name="Grupo 953277" transform="translate(-992.204 -495)">
    <circle id="Elipse_5500" data-name="Elipse 5500" cx="60.5" cy="60.5" r="60.5" transform="translate(992.204 495)" fill="#e8e8e8"/>
    <g id="cuento-de-hadas" transform="translate(973.16 514.302)">
      <path id="Trazado_690841" data-name="Trazado 690841" d="M113.411,6.533v57.52c0,3.608-2.925,14.269-6.533,14.269L53.122,75.847l-7.386.645V6.361A6.361,6.361,0,0,1,52.1,0h54.781a6.533,6.533,0,0,1,6.533,6.533Z" transform="translate(0)" fill="#78d090"/>
      <path id="Trazado_690842" data-name="Trazado 690842" d="M53.122,0V75.847l-7.386.645V6.361A6.362,6.362,0,0,1,52.1,0Z" transform="translate(0 0)" fill="#66b49d"/>
      <path id="Trazado_690843" data-name="Trazado 690843" d="M172.147,49.082V90.655a7.876,7.876,0,0,0-7.875,7.875H131.515a7.876,7.876,0,0,0-7.875-7.875V49.082a7.876,7.876,0,0,0,7.875-7.875h32.757a7.876,7.876,0,0,0,7.875,7.875Z" transform="translate(-65.367 -34.575)" fill="#b1e4f9"/>
      <path id="Trazado_690844" data-name="Trazado 690844" d="M113.419,398.021v12.472a5.87,5.87,0,0,1-5.871,5.871h-55.9a5.905,5.905,0,0,1,0-11.811h55.238A6.533,6.533,0,0,0,113.419,398.021Z" transform="translate(-0.006 -333.967)" fill="#f9f6f9"/>
      <path id="Trazado_690845" data-name="Trazado 690845" d="M137.661,427.608v3.636a5.87,5.87,0,0,1-5.871,5.871H76.453a1.819,1.819,0,0,1,0-3.637H131.79a5.87,5.87,0,0,0,5.871-5.869Z" transform="translate(-24.249 -358.792)" fill="#d0e2e7"/>
      <g id="Grupo_947480" data-name="Grupo 947480" transform="translate(58.273 22.963)">
        <path id="Trazado_690846" data-name="Trazado 690846" d="M150.632,183.682H131.515a7.876,7.876,0,0,0-7.875-7.875V159.7c.035-14.067,15.2-17.005,15.2-17.005l4.924,7.4v16.32C143.767,173.124,152.088,171.312,150.632,183.682Z" transform="translate(-123.64 -142.69)" fill="#dfeaef"/>
      </g>
      <g id="Grupo_947481" data-name="Grupo 947481" transform="translate(58.273 22.963)">
        <path id="Trazado_690847" data-name="Trazado 690847" d="M143.763,150.088v6.5L133.689,159.7c0,7.611-1.948,13.964-5.524,17.542a7.857,7.857,0,0,0-4.529-1.431V159.7c.035-14.067,15.2-17.005,15.2-17.005Z" transform="translate(-123.636 -142.69)" fill="#da4a54"/>
      </g>
      <path id="Trazado_690848" data-name="Trazado 690848" d="M281.615,122.37l-11.825,6.277-.591,8.213,7.794-1.01,6.277-11.825A1.224,1.224,0,0,0,281.615,122.37Z" transform="translate(-187.501 -102.552)" fill="#fff"/>
      <path id="Trazado_690849" data-name="Trazado 690849" d="M196.967,123.84l-3.985-3.985a1.271,1.271,0,0,0-2.168.822l-.6,9.918-2.386,2.386a8.3,8.3,0,0,0,8.05,13.872l3.995-1.089,1.814,1.814a7.8,7.8,0,0,0,11.038,0l3.991-3.991Z" transform="translate(-117.184 -100.252)" fill="#f9f6f9"/>
      <path id="Trazado_690850" data-name="Trazado 690850" d="M249.964,205.807a4.672,4.672,0,0,1-3.325-1.377,1.243,1.243,0,1,1,1.758-1.759,2.216,2.216,0,0,0,3.133,0,1.244,1.244,0,0,1,1.759,1.759A4.672,4.672,0,0,1,249.964,205.807Z" transform="translate(-168.265 -169.749)" fill="#595959"/>
      <g id="Grupo_947482" data-name="Grupo 947482" transform="translate(80.065 10.69)">
        <path id="Trazado_690851" data-name="Trazado 690851" d="M277.915,74.587a1.243,1.243,0,0,1-1.243-1.243V67.671a1.243,1.243,0,1,1,2.487,0v5.672A1.243,1.243,0,0,1,277.915,74.587Z" transform="translate(-273.836 -66.428)" fill="#f9f6f9"/>
        <path id="Trazado_690852" data-name="Trazado 690852" d="M265.966,86.538h-5.672a1.243,1.243,0,1,1,0-2.487h5.672a1.243,1.243,0,1,1,0,2.487Z" transform="translate(-259.051 -81.215)" fill="#f9f6f9"/>
      </g>
      <g id="Grupo_947483" data-name="Grupo 947483" transform="translate(95.45 27.387)">
        <path id="Trazado_690853" data-name="Trazado 690853" d="M373.516,178.335a1.243,1.243,0,0,1-1.243-1.243v-5.672a1.243,1.243,0,0,1,2.487,0v5.672A1.243,1.243,0,0,1,373.516,178.335Z" transform="translate(-369.437 -170.176)" fill="#f9f6f9"/>
        <path id="Trazado_690854" data-name="Trazado 690854" d="M361.566,190.285h-5.672a1.243,1.243,0,1,1,0-2.487h5.672a1.243,1.243,0,1,1,0,2.487Z" transform="translate(-354.651 -184.962)" fill="#f9f6f9"/>
      </g>
      <path id="Trazado_690855" data-name="Trazado 690855" d="M157.788,93.292H125.031a1.243,1.243,0,0,1-1.243-1.243,6.639,6.639,0,0,0-6.632-6.632,1.243,1.243,0,0,1-1.243-1.243V42.6a1.243,1.243,0,0,1,1.243-1.243,6.639,6.639,0,0,0,6.632-6.632,1.243,1.243,0,0,1,1.243-1.243h32.757a1.243,1.243,0,0,1,1.243,1.243,6.639,6.639,0,0,0,6.632,6.632,1.243,1.243,0,0,1,1.243,1.243V84.174a1.243,1.243,0,0,1-1.243,1.243,6.639,6.639,0,0,0-6.632,6.632A1.243,1.243,0,0,1,157.788,93.292Zm-31.6-2.487h30.439a9.139,9.139,0,0,1,7.79-7.791V43.759a9.138,9.138,0,0,1-7.79-7.791H126.19a9.139,9.139,0,0,1-7.79,7.791V83.015A9.139,9.139,0,0,1,126.19,90.805Z" transform="translate(-58.883 -28.094)" fill="#66b49d"/>
    </g>
  </g>
</svg>
