<svg xmlns="http://www.w3.org/2000/svg" width="400" height="194.376" viewBox="0 0 400 194.376">
  <g id="Grupo_947526" data-name="Grupo 947526" transform="translate(-129.829 -245.121)">
    <path id="Trazado_690900" data-name="Trazado 690900" d="M502.5,438.448l-54.517.826-36.8.222-1.855-.006-70.612-.232-194.316-.528s-.067-.069-.193-.2c-2-2.127-18.783-20.967-13.262-48.333,1.759-8.712,3.374-14.781,7.392-20.365a47.087,47.087,0,0,1,10.944-10.4c7.291-5.3,17.893-11.31,33.726-19.665a42.386,42.386,0,0,0,6.463-4.182,41.688,41.688,0,0,0,7.888-8.215,0,0,0,0,1,0,0v0c5.4-7.371,8.5-16.114,11.814-24.977,9.314-24.921,20.3-50.769,88.837-49.565a295.049,295.049,0,0,0,29.979-.995q3.782-.316,7.366-.7,1.86-.2,3.673-.406c38.164-4.395,60.985-12.53,98.119,6.1,21.394,10.735,23.739,21.669,27.027,34.408,1.679,6.507,3.606,13.483,8.444,21.145q.525.829,1.1,1.671c5.991,8.817,15.993,18.541,33.915,29.476q2.211,1.35,4.584,2.724c7.387,4.274,12.482,12.338,15.226,22.042a65.787,65.787,0,0,1,2.351,15.519C530.554,405.632,521.619,429.758,502.5,438.448Z" transform="translate(0)" fill="#99b9ff" opacity="0.7"/>
    <path id="Trazado_690901" data-name="Trazado 690901" d="M502.5,1172.479l-54.517.826-36.8.222-1.855-.006-70.612-.232-194.316-.528s-.067-.069-.193-.2c-2-2.127-18.783-20.967-13.262-48.333,1.759-8.713,3.374-14.781,7.392-20.365a47.086,47.086,0,0,1,10.944-10.4,79.787,79.787,0,0,0,37.858,4.594c23.348-3.109,31.2-2.083,52.7,6.755s47.1,2.225,68.919,6.816,41.852,24.514,67.819,18.549,37.05-19.648,62.783-18.707c24.728.906,67.489.445,88.079-9.148a65.788,65.788,0,0,1,2.351,15.519C530.554,1139.663,521.619,1163.789,502.5,1172.479Z" transform="translate(0 -734.031)" fill="#80aeff" opacity="0.4"/>
    <path id="Trazado_690902" data-name="Trazado 690902" d="M1693.7,1325.5H1506.532s2.313-5.43,23.7-12.607,83.767,10.806,116.3-20.1c24.975-23.727,59.684-23.381,74.456-21.94C1721.759,1292.681,1712.825,1316.807,1693.7,1325.5Z" transform="translate(-1191.205 -887.048)" fill="#80aeff"/>
    <path id="Trazado_690903" data-name="Trazado 690903" d="M305.556,1235.358H144.2a57.523,57.523,0,0,1-12.578-23.552,54.324,54.324,0,0,1-.684-24.781c1.757-8.712,3.373-14.781,7.392-20.364,9.651-1.422,25.592-1.369,37.465,10.7,18.2,18.5,10.356,31.229,46.321,26.886s48.445,6.011,52.761,13.552S306.57,1218.319,305.556,1235.358Z" transform="translate(-0.001 -796.83)" fill="#80aeff"/>
    <g id="Grupo_947513" data-name="Grupo 947513" transform="translate(362.896 285.431)">
      <path id="Trazado_690904" data-name="Trazado 690904" d="M1954.417,1621.956h16.443c1.178-.8-.318-8.61-.318-8.61s-4.488-1.7-5.263,1.76-5.716,4.561-8.33,4.983A2.814,2.814,0,0,0,1954.417,1621.956Z" transform="translate(-1941.638 -1468.939)" fill="#112a54"/>
      <path id="Trazado_690905" data-name="Trazado 690905" d="M2006.281,1066.8s-.452,8.369-1.039,18.531c-.486,8.357-1.06,17.925-1.553,25.046-.07,1.019-.139,1.99-.206,2.9-.018.242-.036.484-.054.725a146.131,146.131,0,0,1-5.113,27.578c-4.624.974-6.712-.807-6.712-.807s-3.185-37.332-4.365-52.389c-.018-.232-.038-.463-.056-.694-.259-3.308-.527-6.7-.774-9.836-.463-5.83-.779-9.774-.779-9.774h0c-.159-1.986-.254-3.186-.254-3.186Z" transform="translate(-1968.429 -994.751)" fill="#2b478b"/>
      <path id="Trazado_690906" data-name="Trazado 690906" d="M2075.3,1185.633c-.486,8.357-1.06,17.926-1.553,25.046l-7.4-29.866Z" transform="translate(-2038.487 -1095.048)" fill="#112a54"/>
      <path id="Trazado_690907" data-name="Trazado 690907" d="M2135.4,1621.956h16.443c1.178-.8-.318-8.61-.318-8.61s-4.488-1.7-5.262,1.76-5.716,4.561-8.33,4.983A2.813,2.813,0,0,0,2135.4,1621.956Z" transform="translate(-2098.239 -1468.939)" fill="#112a54"/>
      <path id="Trazado_690908" data-name="Trazado 690908" d="M2052.145,1103.575a6.513,6.513,0,0,1-2.556,1.058,8.078,8.078,0,0,1-3.48-.128s-7.541-27.685-10.214-35.576c-3.753-11.08-15.5-40.308-15.5-40.308s3.757-5.975,15.946-5.635c2.785.079,4.815,2.212,6.327,5.511,5.1,11.135,4.292,35.537,6.609,38.814l0,0a12.406,12.406,0,0,1,1.541,3.2c.1.3.2.617.295.941,0,0,0,0,0,0,.244.844.455,1.751.638,2.706C2053.938,1085.491,2052.145,1103.575,2052.145,1103.575Z" transform="translate(-1998.729 -958.476)" fill="#2b478b"/>
      <path id="Trazado_690909" data-name="Trazado 690909" d="M2122.186,1102.789c-.116-.131-3.891-4.427-6.468-16.675a32.931,32.931,0,0,0-11.06-18.694l10.919-3.444C2120.682,1075.11,2119.869,1099.511,2122.186,1102.789Z" transform="translate(-2071.635 -993.953)" fill="#183368"/>
      <path id="Trazado_690910" data-name="Trazado 690910" d="M2246.464,1376.755a1.536,1.536,0,0,1-.295-.941C2246.272,1376.118,2246.37,1376.431,2246.464,1376.755Z" transform="translate(-2194.074 -1263.774)" fill="#112a54"/>
      <path id="Trazado_690911" data-name="Trazado 690911" d="M2239.595,1432.314a6.511,6.511,0,0,1-2.556,1.058c.805-6.26,2.855-23.37,2.17-30.468C2241.388,1414.229,2239.595,1432.314,2239.595,1432.314Z" transform="translate(-2186.179 -1287.214)" fill="#183368"/>
      <path id="Trazado_690912" data-name="Trazado 690912" d="M1937.271,739.9s-11.778,20.582-9.415,27.68,9.373,2.824,9.373,2.824Z" transform="translate(-1918.385 -713.54)" fill="#80aeff"/>
      <path id="Trazado_690913" data-name="Trazado 690913" d="M2055.424,672.426a7.328,7.328,0,0,0,5.1-.028,10.5,10.5,0,0,0,3.193-1.908,10.12,10.12,0,0,0,1.225-1.223s-.072-.078-.2-.235c-.65-.823-2.693-3.825-2.712-9.106a3.714,3.714,0,0,0-1.249.391c-2.231.87-6.685,2.836-6.882,2.923h-.008s.1,1.1.179,3.078c.008.174.016.357.023.546.009.232.019.479.025.732A16.307,16.307,0,0,0,2055.424,672.426Z" transform="translate(-2027.714 -644.331)" fill="#ffb27d"/>
      <path id="Trazado_690914" data-name="Trazado 690914" d="M2054.076,668.93c3.555.307,7.982-5.5,7.982-5.5a5.479,5.479,0,0,0-1.272-.5c-2.231.87-6.685,2.836-6.882,2.923h-.008S2053.993,666.949,2054.076,668.93Z" transform="translate(-2027.714 -646.942)" fill="#ed975d"/>
      <path id="Trazado_690915" data-name="Trazado 690915" d="M2003.027,758.268c.245,1.89-1.584,2.914-3.243,3.3,0,0-1.531.329-3.464.656a38.007,38.007,0,0,1-5.787.62,52.141,52.141,0,0,1-15.142-2.494c-1.553,0-2.261-2.4-2.513-5.749a66.263,66.263,0,0,1-.011-7.662c.041-.87.09-1.742.144-2.6.106-1.693.236-3.318.35-4.756.108-1.35.206-2.533.267-3.451,0,0-.223-6.415-.136-12.063a15.325,15.325,0,0,1,2.906-8.339c1.651-1.746,6.432-2.85,7.389-3,.075-.01.111-.016.111-.016,3.933,2.207,9.419-.741,9.39-.738a10.642,10.642,0,0,1,1.845.18,20.283,20.283,0,0,1,5.542,1.58c.1.052.2.1.3.159l.015.01a5.194,5.194,0,0,1,1.211.89.735.735,0,0,1,.067.078c.779.959.866,3.811.735,6.621-.157,3.33-.623,6.6-.623,6.6.106,2.6.146,5.622.165,8.765q0,.567,0,1.139c0,.887,0,1.779.007,2.67.008,3.168.011,6.325.054,9.161.023,1.567.059,3.038.115,4.357,0,.1.008.193.013.288C2002.8,755.969,2002.9,757.26,2003.027,758.268Z" transform="translate(-1957.511 -689.375)" fill="#80aeff"/>
      <path id="Trazado_690916" data-name="Trazado 690916" d="M2061.308,712.328s-5.859,6.043-10.047,4.8c0,0-.558-.816,1.328-1.078S2056.511,715.9,2061.308,712.328Z" transform="translate(-2025.366 -689.687)" fill="#5895ed"/>
      <path id="Trazado_690917" data-name="Trazado 690917" d="M2054.768,885.783c-2.832-.895-1.19-6.417-1.954-9.185s-12.919-7.528-12.919-7.528l-3.588-8.93s9.635,6.137,12.129,4.828,2.525-9.272,4.378-9.436,4.716,5.543,4.716,5.543q0,.567,0,1.139c0,.887,0,1.779.007,2.67.008,3.168.011,6.325.054,9.161.023,1.567.059,3.038.115,4.357,0,.1.008.193.013.288.064,1.5.159,2.788.288,3.8C2058.256,884.376,2056.427,885.4,2054.768,885.783Z" transform="translate(-2012.494 -813.593)" fill="#5895ed"/>
      <g id="Grupo_947509" data-name="Grupo 947509" transform="translate(20.99 0)">
        <path id="Trazado_690918" data-name="Trazado 690918" d="M2030.931,591.873a17.688,17.688,0,0,0,3.34-.078c2.672-.317,6.014-1.4,6.275-4.8.441-5.722,1.923-9.466-3.917-10.25-3.127-.42-4.953-.014-6.07.742a4.392,4.392,0,0,0-1.69,2.444C2028.257,581.808,2028.555,591.5,2030.931,591.873Z" transform="translate(-2026.811 -572.229)" fill="#ffb27d"/>
        <path id="Trazado_690919" data-name="Trazado 690919" d="M2016.2,548.926a1.773,1.773,0,0,0,.167,3.107c2.4.877,4.748-.316,5.771-.144,1.465.245,2.27,2.39,2.474,3.084s.449,1.263,2.127.383a.9.9,0,0,1,.658-.129c.854.249.457,2.623.29,3.157,0,0-.017,1.632,1.086,2.139.133.06,2.126.381,4.739-7.337a6.335,6.335,0,0,0-1.171-5.693,9.894,9.894,0,0,0-9.465-2.928C2019.8,545.356,2018.564,547.66,2016.2,548.926Z" transform="translate(-2015.357 -544.293)" fill="#163560"/>
        <path id="Trazado_690920" data-name="Trazado 690920" d="M2039.138,663.712s.065.709,1.787.844c0,0,1.447.114,1.509-.647A4.659,4.659,0,0,0,2039.138,663.712Z" transform="translate(-2035.933 -647.452)" fill="#fff"/>
      </g>
      <path id="Trazado_690921" data-name="Trazado 690921" d="M1981.589,842.876l.007-.005L1966.51,825.2l.215-5.7-.814-.08-.444,4.558-3.688-4.319c-.774-.906-1.366-.9-2.064-.333s-1.236,1.492-.463,2.4l19.673,23.04h0l.145.169.007-.005a1.938,1.938,0,0,0,2.513.445A1.838,1.838,0,0,0,1981.589,842.876Z" transform="translate(-1945.493 -781.929)" fill="#233862"/>
      <g id="Grupo_947510" data-name="Grupo 947510" transform="translate(1.102 37.041)">
        <rect id="Rect치ngulo_337770" data-name="Rect치ngulo 337770" width="7.37" height="40.639" transform="matrix(-0.558, 0.83, -0.83, -0.558, 38.929, 23.07)" fill="#2b478b"/>
        <path id="Trazado_690922" data-name="Trazado 690922" d="M2116.992,988.109c-1.135,1.689-.989,3.776.328,4.661s3.3.234,4.44-1.455.989-3.776-.328-4.661S2118.127,986.421,2116.992,988.109Z" transform="translate(-2082.748 -963.75)" fill="#3f62a8"/>
        <path id="Trazado_690923" data-name="Trazado 690923" d="M1868.518,821.053c-1.135,1.689-.988,3.776.328,4.661s3.3.234,4.44-1.455.989-3.776-.328-4.661S1869.654,819.364,1868.518,821.053Z" transform="translate(-1867.754 -819.203)" fill="#2b478b"/>
      </g>
      <g id="Grupo_947511" data-name="Grupo 947511" transform="translate(12.119 46.547)">
        <path id="Trazado_690924" data-name="Trazado 690924" d="M1955.715,893.521l.972-2.658,24.36,8.811-.972,2.658Z" transform="translate(-1954.88 -890.713)" fill="#233862"/>
        <path id="Trazado_690925" data-name="Trazado 690925" d="M2125.581,955.589a1.893,1.893,0,1,0,2.208-.706A1.657,1.657,0,0,0,2125.581,955.589Z" transform="translate(-2101.8 -945.987)" fill="#233862"/>
        <path id="Trazado_690926" data-name="Trazado 690926" d="M1949.675,890.551c-.268.734-.271,1.663.68,2.007a1.462,1.462,0,1,0,.972-2.658C1950.376,889.557,1949.944,889.818,1949.675,890.551Z" transform="translate(-1949.521 -889.751)" fill="#233862"/>
      </g>
      <g id="Grupo_947512" data-name="Grupo 947512" transform="translate(0 44.135)">
        <path id="Trazado_690927" data-name="Trazado 690927" d="M1866.21,872.844l-.91-1-5.726,1.625.223.787Z" transform="translate(-1859.574 -871.847)" fill="#2b478b"/>
      </g>
      <path id="Trazado_690928" data-name="Trazado 690928" d="M1953.629,910.947a2.028,2.028,0,0,1,1.289-1.391,15.83,15.83,0,0,1,2.609-1.023c.9-.163,2.731-1.242,2.881-.681s-1.294,1.21-1.3,1.827,4.056,2.129,3.947,2.77a2.494,2.494,0,0,1-2.841,1.691c-1.574-.383-5.342-1.042-6.1-1.59A1.261,1.261,0,0,1,1953.629,910.947Z" transform="translate(-1940.871 -858.726)" fill="#ed975d"/>
      <path id="Trazado_690929" data-name="Trazado 690929" d="M2029.469,969.349s-5.131,1.781-6.447,1.025a8.6,8.6,0,0,1-2.829-3.17,5.515,5.515,0,0,1-.158-2.421l3.419,2.029c.631-.116,2.667.575,3.459.21S2029.469,969.349,2029.469,969.349Z" transform="translate(-1998.35 -908.125)" fill="#ed975d"/>
      <path id="Trazado_690930" data-name="Trazado 690930" d="M2099.368,756.238c-.653,1.037-3.487,2.675-7.377,4.036-.888.311-1.833.609-2.817.879a36.8,36.8,0,0,1-14.184,1.268s-2.649-2.412-2.115-3.341c0,0,11.8-4.81,16.245-7.088,1.031-.528,1.667-.919,1.669-1.083a12.181,12.181,0,0,0-1.68-2.726c-1.919-2.763-4.828-6.922-5.07-9.413-.25-2.58,1.363-8.117,2.39-11.309.447-1.391.783-2.336.808-2.4v0a2.625,2.625,0,0,1,.3.162l.015.01a8.622,8.622,0,0,1,1.278.969,24.567,24.567,0,0,1,5.01,6.837C2097.43,739.736,2100.823,753.931,2099.368,756.238Z" transform="translate(-2044.073 -700.701)" fill="#80aeff"/>
      <path id="Trazado_690931" data-name="Trazado 690931" d="M2156.466,746.109c-.653,1.037-3.487,2.675-7.377,4.036,0,0,5.708-3.4,6.191-5.363.4-1.633-5.633-15.568-8.616-22.093-.6-1.319-1.082-2.336-1.356-2.886a11.264,11.264,0,0,0-1.782-2.471,28.558,28.558,0,0,0-4.733-3.982,20.281,20.281,0,0,1,5.542,1.581v0a2.624,2.624,0,0,1,.3.162l.015.01a5.194,5.194,0,0,1,1.211.89.757.757,0,0,1,.067.079,24.564,24.564,0,0,1,5.01,6.837C2154.527,729.608,2157.92,743.8,2156.466,746.109Z" transform="translate(-2101.17 -690.572)" fill="#5895ed"/>
    </g>
    <path id="Trazado_690932" data-name="Trazado 690932" d="M708.514,321.363c-21.572,15.182-35.3,4.315-46.6,39.308-5.159,15.975-32.206,21.572-52.925,10.247-20.6-11.263-47.33,2.925-47.631,3.084v0q.773-1.2,1.489-2.451a41.687,41.687,0,0,0,7.888-8.215,0,0,0,0,1,0,0v0c20.589-28.1,7.752-76.175,100.651-74.542a300.181,300.181,0,0,0,37.344-1.692q1.86-.2,3.673-.406C720.141,299.258,717.181,315.266,708.514,321.363Z" transform="translate(-373.383 -35.967)" fill="#80aeff"/>
    <path id="Trazado_690933" data-name="Trazado 690933" d="M837.458,294.873c-6.909,12.8-17.764,22.214-27.628,23.874-37.193,6.266-43.01-18.421-86.008,22.629a33.333,33.333,0,0,1-5.18,4.056c9.314-24.922,20.3-50.769,88.837-49.565A295.05,295.05,0,0,0,837.458,294.873Z" transform="translate(-509.476 -43.049)" fill="#66a4ff"/>
    <g id="Grupo_947515" data-name="Grupo 947515" transform="translate(486.881 425.211)">
      <g id="Grupo_947514" data-name="Grupo 947514" transform="translate(0.326)">
        <path id="Trazado_690934" data-name="Trazado 690934" d="M2823.854,1594.039s.185-14.657,2.5-12.028S2823.854,1594.039,2823.854,1594.039Z" transform="translate(-2818.237 -1581.695)" fill="#4d96ff"/>
        <path id="Trazado_690935" data-name="Trazado 690935" d="M2837.793,1618.874s3.205-8.476,4.3-7.706S2837.793,1618.874,2837.793,1618.874Z" transform="translate(-2830.298 -1607.154)" fill="#4d96ff"/>
        <path id="Trazado_690936" data-name="Trazado 690936" d="M2786.717,1611.277c-.038-.13-1.332-11.447-3.935-9.794S2786.717,1611.277,2786.717,1611.277Z" transform="translate(-2782.17 -1598.674)" fill="#4d96ff"/>
      </g>
      <path id="Trazado_690937" data-name="Trazado 690937" d="M2781.24,1662.468c3.265-.828,7.658-1.406,11.052.109.725.324,1.72,1.411.926,1.411h-13.141C2779.169,1663.989,2780.359,1662.691,2781.24,1662.468Z" transform="translate(-2779.752 -1650.864)" fill="#4d96ff"/>
    </g>
    <g id="Grupo_947516" data-name="Grupo 947516" transform="translate(131.623 405.791)">
      <path id="Trazado_690938" data-name="Trazado 690938" d="M190.888,1526.919H155.721a57.524,57.524,0,0,1-12.578-23.552,47.141,47.141,0,0,1,6.008-.367c.172,0,.345,0,.514.008q.905.02,1.741.084c.372.027.733.062,1.087.1,9.264,1.051,12.058,6.13,15.809,9.557.319.293.647.574.985.837a11.809,11.809,0,0,0,1.506,1.013,10.381,10.381,0,0,0,1.048.516,11.227,11.227,0,0,0,4.248.844C186.423,1516.144,190.011,1524.331,190.888,1526.919Z" transform="translate(-143.143 -1494.182)" fill="#4d96ff"/>
      <path id="Trazado_690939" data-name="Trazado 690939" d="M321.221,1542.415s3.3-8.872,6.271-8.209S321.221,1542.415,321.221,1542.415Z" transform="translate(-297.227 -1521.154)" fill="#4d96ff"/>
      <path id="Trazado_690940" data-name="Trazado 690940" d="M335.891,1578.179s4.673-3.647,7.578-2.928S335.891,1578.179,335.891,1578.179Z" transform="translate(-309.92 -1556.617)" fill="#4d96ff"/>
      <path id="Trazado_690941" data-name="Trazado 690941" d="M183.984,1447.855s-1.989-10.131,0-10.287S183.984,1447.855,183.984,1447.855Z" transform="translate(-177.716 -1437.566)" fill="#4d96ff"/>
      <path id="Trazado_690942" data-name="Trazado 690942" d="M200.91,1486.356s.758-4.89,2.652-5.056S200.91,1486.356,200.91,1486.356Z" transform="translate(-193.126 -1475.404)" fill="#4d96ff"/>
    </g>
    <circle id="Elipse_5511" data-name="Elipse 5511" cx="4.087" cy="4.087" r="4.087" transform="translate(418.921 278.444)" fill="#ebf3fa"/>
    <g id="Grupo_947517" data-name="Grupo 947517" transform="translate(347.108 260.474)">
      <path id="Trazado_690943" data-name="Trazado 690943" d="M1803.144,466.872a.436.436,0,1,1,.557.263A.436.436,0,0,1,1803.144,466.872Z" transform="translate(-1794.938 -451.842)" fill="#ebf3fa"/>
      <path id="Trazado_690944" data-name="Trazado 690944" d="M2378.413,484.261a.436.436,0,1,1,.557.263A.436.436,0,0,1,2378.413,484.261Z" transform="translate(-2292.694 -466.888)" fill="#ebf3fa"/>
      <path id="Trazado_690945" data-name="Trazado 690945" d="M2158.947,360.244a.878.878,0,1,1,1.123.529A.877.877,0,0,1,2158.947,360.244Z" transform="translate(-2102.777 -359.07)" fill="#ebf3fa"/>
      <path id="Trazado_690946" data-name="Trazado 690946" d="M2473.558,508.547a.878.878,0,1,1,1.123.529A.877.877,0,0,1,2473.558,508.547Z" transform="translate(-2374.996 -487.39)" fill="#ebf3fa"/>
      <path id="Trazado_690947" data-name="Trazado 690947" d="M1742.455,771.205a.878.878,0,1,1,1.123.529A.878.878,0,0,1,1742.455,771.205Z" transform="translate(-1742.403 -714.658)" fill="#ebf3fa"/>
    </g>
    <g id="Grupo_947522" data-name="Grupo 947522" transform="translate(224.692 364.054)">
      <g id="Grupo_947521" data-name="Grupo 947521" transform="translate(0 0)">
        <path id="Trazado_690948" data-name="Trazado 690948" d="M935.882,1127.849s-5.255-.707-8.181,3.573c-1.743,2.55-5.381,8.679-5.726,14.458-.222,3.715,8.385,4.892,11.918,2.36,2.942-2.108,9.947,1.367,12.133-.017,3.845-2.435-.633-5.754-.9-8.406C944.226,1130.88,942.574,1127.44,935.882,1127.849Z" transform="translate(-910.1 -1127.805)" fill="#d35e2a"/>
        <path id="Trazado_690949" data-name="Trazado 690949" d="M972.54,1293.5c-.251-1.191-3.759-7.143-4.01-7.9s1.446-8.462,2.632-13.866-2.15-14.533-2.15-14.533-2.254-.544-5.441-1.485a2.4,2.4,0,0,1-1.714-2.154c-.118-1.845-.008-3.968-.008-3.968l-6.9.155a16.718,16.718,0,0,1-.117,4.329,1.91,1.91,0,0,1-1.43,1.6,29.286,29.286,0,0,0-6.109,2.5s.039.287.109.813l-.05-.041s-.125,3.888-.042,8.888c.076,4.511,2.8,15.718,3.335,17.865l.046.432c-1.836,3.006-4.454,7.364-4.454,7.364S972.791,1294.694,972.54,1293.5Z" transform="translate(-931.098 -1233.193)" fill="#ffb27d"/>
        <path id="Trazado_690950" data-name="Trazado 690950" d="M903.724,1539.08c-6.367,5.14-15.495,7.936-15.495,7.936s-7.348.136-15.681,0c-8.093-.131-16.008-9.74-16.008-9.74s6.748-.086,8.6-1.6a33.165,33.165,0,0,0,4.362-4.727c1.089-1.373,2.154-2.823,3.082-4.151,0,0,1.912,1.8,9.68,1.61s9.659-1.024,9.659-1.024.916,1.084,2.126,2.457c1.46,1.654,3.345,3.729,4.559,4.827C899.144,1535.147,903.724,1539.08,903.724,1539.08Z" transform="translate(-853.487 -1473.035)" fill="#112a54"/>
        <path id="Trazado_690951" data-name="Trazado 690951" d="M954.4,1530.957c-1.939,1.678-7.686,3.523-13.1,4.983-1.519.408-3.013.787-4.389,1.124-1.242.387-3.762,1.187-6.462,2.127a11.424,11.424,0,0,1-7.366.359c-1.889-.333-4.02.988-6.817-.035s-2.09-6.532-2.09-6.532c.947-.622,4.63-.8,7.124.99a9.57,9.57,0,0,0,5.835,1.456,2.151,2.151,0,0,0,.848-.4,66.941,66.941,0,0,0,6.895-4.978c1.437-1.146,3.088-2.513,4.937-4.125,3.526-3.075,6.568-7.121,10.082-7.866,5.988-1.271,8.117,1.055,8.117,1.055S959.485,1526.554,954.4,1530.957Z" transform="translate(-903.281 -1465.149)" fill="#091d3a"/>
        <path id="Trazado_690952" data-name="Trazado 690952" d="M1027.83,1530.468s13.616-12.177,17.87-13.694,9.244-.9,10.144.324,1.1,4.009.266,6.667-2.817,6.832-7.424,8.017-15.993,5.017-15.993,5.017l-5.454-2.887Z" transform="translate(-1001.185 -1463.589)" fill="#183368"/>
        <path id="Trazado_690953" data-name="Trazado 690953" d="M880.537,1533.98s-.127,4.8-1.887,5.369c-2.419.784-4.32-.472-6.316-.106a11.791,11.791,0,0,1-7.639-.519c-2.67-.934-5.176-1.736-6.558-2.17-.677-.182-1.379-.374-2.093-.575-5.345-1.508-11.426-3.524-13.371-5.342-4.706-4.4-2.9-12.214-2.9-12.214s1.531-1.953,7.069-.682c3.249.746,6.605,3.966,9.852,7.024,1.347,1.268,2.624,2.442,3.794,3.5,4.079,3.688,6.874,5.978,6.874,5.978l-.013.024a2.179,2.179,0,0,0,.867.407s2.125.843,5.818-.4C876.609,1533.408,879.539,1533.319,880.537,1533.98Z" transform="translate(-838.682 -1464.828)" fill="#112a54"/>
        <path id="Trazado_690954" data-name="Trazado 690954" d="M1011.607,1261.345s1.362,3.158,3.6,2.971,3.159-3.041,3.159-3.041Z" transform="translate(-987.659 -1243.29)" fill="#e8945b"/>
        <path id="Trazado_690955" data-name="Trazado 690955" d="M1043.232,1512.265c0,.41-.183.742-.409.742s-.409-.332-.409-.742.183-.741.409-.741S1043.232,1511.856,1043.232,1512.265Z" transform="translate(-1014.315 -1459.822)" fill="#f2a672"/>
        <g id="Grupo_947519" data-name="Grupo 947519" transform="translate(32.175 23.67)">
          <path id="Trazado_690956" data-name="Trazado 690956" d="M1105.252,1323.29s-9.415,9.378-14.4,8.777c-2.266-.274-4.779-2.851-7.328-5.788-.223-.258-.625-.975-.845-1.241a121.3,121.3,0,0,1-8.611-12.025l-.533-3.545-.865-5.766a10.657,10.657,0,0,1,5.3.257c1,.386,1.725.271,2.155.758,1.043,1.179,6,11.726,9.135,17.439,1.2,2.182,2.129,3.659,2.475,3.64a44.308,44.308,0,0,0,12.366-4.681l1.087,2.05Z" transform="translate(-1072.668 -1303.476)" fill="#ffb27d"/>
          <g id="Grupo_947518" data-name="Grupo 947518" transform="translate(31.433 16.892)">
            <path id="Trazado_690957" data-name="Trazado 690957" d="M1306.64,1435.26s3.446,1.627,4.458,1.583,4.4-.767,4.4-.767-.314-.755-1.943-.716-2.919-2.262-4.02-2.672a5.013,5.013,0,0,0-3.578-.087Z" transform="translate(-1305.956 -1431.854)" fill="#ffb27d"/>
            <path id="Trazado_690958" data-name="Trazado 690958" d="M1311.02,1429.4a12.251,12.251,0,0,1,3.448-.524c.585.109,1.468.913,2.9.976.494.022.182.423-.019.547a19.349,19.349,0,0,1-3.318.488Z" transform="translate(-1310.338 -1428.845)" fill="#ffb27d"/>
            <path id="Trazado_690959" data-name="Trazado 690959" d="M1344.2,1460.391c.146.007,4.124.863,4.124.863s-.13-1.1-.668-1.107S1344.2,1460.391,1344.2,1460.391Z" transform="translate(-1339.05 -1455.928)" fill="#ffb27d"/>
          </g>
        </g>
        <g id="Grupo_947520" data-name="Grupo 947520" transform="translate(20.526 3.617)">
          <path id="Trazado_690960" data-name="Trazado 690960" d="M997.331,1167.771c-1.646,1.91-3.675,4.439-8.946.635-1.031-.744-1.535-2.426-1.769-4.267a19.284,19.284,0,0,1-.368-4.359c.144-1.535,1.535-4.478,4.187-4.97,4.87-.9,6.836,2.127,7.2,4.571C998.413,1164.671,999,1165.829,997.331,1167.771Z" transform="translate(-986.213 -1154.648)" fill="#ffb27d"/>
          <path id="Trazado_690961" data-name="Trazado 690961" d="M1022.562,1242.171a2.317,2.317,0,0,0,1.694.871c.912-.091,1.164-.034,1.549-.3a2.886,2.886,0,0,0,.694-1.077A10.132,10.132,0,0,0,1022.562,1242.171Z" transform="translate(-1017.664 -1229.928)" fill="#fff"/>
        </g>
        <path id="Trazado_690962" data-name="Trazado 690962" d="M972.625,1148.531a3.742,3.742,0,0,1-2.685,3.95c-3.687,1.23-4.2,1.792-4.117,5,.1,4.076-4.577.818-3.759-3.206s2.863-7.787,5.89-8.36,6.954-.285,8.181,1.657,1.8,6.7,1.8,6.7h-.858S976.256,1149.8,972.625,1148.531Z" transform="translate(-944.707 -1143.246)" fill="#d35e2a"/>
        <path id="Trazado_690963" data-name="Trazado 690963" d="M862.538,1533s1.207-1.818-1.52-3.958-14.657-11.6-17.6-12.5-7.158-1.015-8.549.208-1.554,9.077,1.023,11.94,18.562,8.266,20.411,8.712a6.058,6.058,0,0,0,3.055-.126Z" transform="translate(-833.873 -1463.561)" fill="#2b478b"/>
        <path id="Trazado_690964" data-name="Trazado 690964" d="M878.368,1338.535s-1.22,1.839-2.911,4.278c-1.45,2.088-3.244,4.617-4.915,6.808-.265.348-.535.676-.8.982-3.439,3.881-7.24,4.459-7.24,1.127a2.455,2.455,0,0,1,.025-.327,15.271,15.271,0,0,1,1.3-3.616,0,0,0,0,0,0,0c.43-.931.941-1.955,1.5-3.028,2.094-4,4.881-8.658,6.671-11.587,1.068-1.747,1.783-2.878,1.783-2.878l1.052,1.891Z" transform="translate(-858.641 -1303.008)" fill="#ffb27d"/>
        <path id="Trazado_690965" data-name="Trazado 690965" d="M924.943,1317.333q-.076.142-.167.295a8.583,8.583,0,0,1-2.2,2.477,8.361,8.361,0,0,1-1.648.982,9.287,9.287,0,0,1-1.731.586c-.054.015-.111.026-.167.039q-.518-.6-1.028-1.222c-1.034-1.27-2.032-2.613-2.955-3.925,0,.026-.01.052-.016.078-.25,1.186-.87,5.257-.352,7.579,1.039,4.658-.638,4.681-.638,4.681l-.011,0h0c-.1.028-.764.208-1.832.424a42.915,42.915,0,0,1-9.347.852,29.155,29.155,0,0,1-6.522-.862c-.463-.119-.924-.254-1.381-.4-.169-.056-.337-.113-.5-.173l-.033-.011s-.923.075-1.317-1.437a8.144,8.144,0,0,1-.128-2.731,47.54,47.54,0,0,0-.178-4.918c-.175-2.551-.4-5.07-.4-5.07l-.159.237c-1.275,1.9-2.758,3.976-4.321,5.875-.133.162-.267.324-.4.483a8.189,8.189,0,0,1-3.293-1.839h0a7.153,7.153,0,0,1-1.922-3.025,4.739,4.739,0,0,1-.187-.779v0c3.1-5.885,7.026-14.784,8.164-15.628a17.837,17.837,0,0,1,6.381-2.487s-.875,5.416,6.284,5.353a8.513,8.513,0,0,0,5.267-1.507,5.357,5.357,0,0,0,1.942-2.909c.011-.042.021-.083.029-.121a1.421,1.421,0,0,0,.052-.521l.052.013c.556.137,1.628.342,2.16.442a3.823,3.823,0,0,1,.669.19,12.148,12.148,0,0,1,1.806.874l.021.011c.056.034.109.067.162.1a3.448,3.448,0,0,1,.708.56C916.851,1301.073,921.809,1311.619,924.943,1317.333Z" transform="translate(-875.609 -1274.556)" fill="#ffa15a"/>
        <path id="Trazado_690966" data-name="Trazado 690966" d="M890.272,1315.865s-.574,2.318-1.307,4.822a33.845,33.845,0,0,1-1.963,5.473c-1.309,2.373-3.547,8.3-3.547,8.3a7.122,7.122,0,0,1-1.16-2.191,4.736,4.736,0,0,1-.187-.779h0C885.208,1325.608,889.134,1316.709,890.272,1315.865Z" transform="translate(-875.609 -1290.526)" fill="#f2863d"/>
        <path id="Trazado_690967" data-name="Trazado 690967" d="M966.692,1413.883a29.142,29.142,0,0,1-6.522-.862c-.463-.119-.924-.253-1.381-.4-.169-.056-.337-.113-.5-.173l-.033-.011s-.923.075-1.317-1.437a8.144,8.144,0,0,1-.128-2.731,47.572,47.572,0,0,0-.178-4.918c-.175-2.551-.4-5.07-.4-5.07s-.522-3.649-.276-4.1,1.432,3.763,2.291,5.031.095,5.918,1.4,8.536S961.139,1413.093,966.692,1413.883Z" transform="translate(-939.447 -1358.258)" fill="#f2863d"/>
        <path id="Trazado_690968" data-name="Trazado 690968" d="M862.353,1475.763c2.6,1.275,11.53,5.564,16.714,6.951l.538-1.615s-9.966-9.1-12.093-9.755-5.048-1.117-5.491.219a8.359,8.359,0,0,0-.535,2.985A1.468,1.468,0,0,0,862.353,1475.763Z" transform="translate(-857.766 -1424.501)" fill="#ffb27d"/>
        <path id="Trazado_690969" data-name="Trazado 690969" d="M1132.36,1424.8a8.354,8.354,0,0,1-1.648.982,9.278,9.278,0,0,1-1.731.586c-.054.015-.111.026-.167.039q-.518-.6-1.028-1.222c-1.034-1.27-2.032-2.613-2.955-3.925,0,.026-.01.052-.016.078a12.187,12.187,0,0,1-.221-2.842c.164-.684,2.822,2.729,3.927,4.652S1132.36,1424.8,1132.36,1424.8Z" transform="translate(-1085.388 -1379.249)" fill="#f2863d"/>
      </g>
      <path id="Trazado_690970" data-name="Trazado 690970" d="M986.776,1543.6s3.8.628,4.2,1.934a7.267,7.267,0,0,1,.49,2.3c-.033.424-.7,1.653-1.045,1.343-.219-.2-.246-.55-.515-.991a2.759,2.759,0,0,0-1.369-1.027,5.04,5.04,0,0,1-1.757-.806,3.4,3.4,0,0,1-.645-.816Z" transform="translate(-965.616 -1487.577)" fill="#ffb27d"/>
      <path id="Trazado_690971" data-name="Trazado 690971" d="M992.923,1543.682a3.341,3.341,0,0,1,.831-.078c.779.042,1.684.222,2.414.223.836,0-.807,1.033-1.92.563A4.43,4.43,0,0,1,992.923,1543.682Z" transform="translate(-971.493 -1487.577)" fill="#ffb27d"/>
    </g>
    <g id="girl_2" data-name="girl 2" transform="translate(159.334 358.584)">
      <path id="Trazado_690972" data-name="Trazado 690972" d="M373.813,1089.374s-2.035-2.945-7.625-1.964-5.753,9.608-10.171,12.412-6.872,5.1-7.2,9.6,6.384,11.379,12.354,9.084,7.116-7.531,6.5-10.517-4.192-19.242,4.763-17.639Z" transform="translate(-348.807 -1087.21)" fill="#183368"/>
      <path id="Trazado_690973" data-name="Trazado 690973" d="M507.47,1099.9a10.036,10.036,0,0,0-5.666-4.833,6.879,6.879,0,0,0-8.038,1.718c-1.418,1.364-2.791,12.49,3.029,12.923S507.47,1099.9,507.47,1099.9Z" transform="translate(-473.164 -1093.474)" fill="#183368"/>
      <path id="Trazado_690974" data-name="Trazado 690974" d="M599.714,1286.625s12.925,10.908,12.762,11.508a2.932,2.932,0,0,1-4.2,1.745c-2.782-1.227-10.763-6.66-10.567-6.926S599.714,1286.625,599.714,1286.625Z" transform="translate(-564.169 -1259.756)" fill="#ed985f"/>
      <path id="Trazado_690975" data-name="Trazado 690975" d="M487.858,1222.913a14.641,14.641,0,0,1-5.118,2.178c-7.89,1.823-10.913-4.845-12.049-9.423a6.78,6.78,0,0,1,2.673-.821c.57-.067,1.17-.112,1.667-.137.886-.678,2.206-3.456,2.5-7.768l.371.1,6.218,1.7s-.285,1.977-.424,3.845c-.108,1.462-.125,2.859.152,3.2.485.105.776.174.776.174a.014.014,0,0,0,0,.006A40.037,40.037,0,0,1,487.858,1222.913Z" transform="translate(-454.268 -1190.81)" fill="#ffb27d"/>
      <path id="Trazado_690976" data-name="Trazado 690976" d="M530.408,1209.394s-.286,1.975-.424,3.845c-3.523-.353-5.158-3.707-5.794-5.546Z" transform="translate(-500.559 -1191.458)" fill="#ed985f"/>
      <path id="Trazado_690977" data-name="Trazado 690977" d="M526.736,1141.9s-8.361-.461-7.994-5.664-.464-8.766,4.89-8.692,6.25,2.133,6.55,3.9S528.921,1141.883,526.736,1141.9Z" transform="translate(-495.835 -1122.106)" fill="#ffb27d"/>
      <path id="Trazado_690978" data-name="Trazado 690978" d="M511.371,1115.529c-1.238-1.741-2.289-1.454-2.9-1a6.148,6.148,0,0,0-7.976.7,10.467,10.467,0,0,1-3.857,5.923s1.557,1.245,5.283.419a9.323,9.323,0,0,0,6.627-5.826,5.594,5.594,0,0,1,1.645,1.977,8.664,8.664,0,0,1,.971,4.313S513.228,1118.14,511.371,1115.529Z" transform="translate(-476.719 -1109.838)" fill="#183368"/>
      <path id="Trazado_690979" data-name="Trazado 690979" d="M416.78,1269.868c.45,4.03-.494,2.917-4.673,12.222a17.688,17.688,0,0,0,.476,14.948s-11.248,9.313-17.76,11.762a7.974,7.974,0,0,1-2.49.582,1.957,1.957,0,0,1-1.522-.5,3.655,3.655,0,0,1-.434-.558c-3.657-5.648-4.856-32.277,2.338-45.247a10.075,10.075,0,0,1,4.38-3.611h0a12.365,12.365,0,0,1,2.058-.674,16.983,16.983,0,0,1,3.429-.447h0q.562-.017,1.117.005c1.185.766,5.7,3.655,7.552,3.3l.1-.025c.874-.219,1.2-.833.475-1.361a8.873,8.873,0,0,1,4.769.717,20.461,20.461,0,0,1,5.371,4.323S419.428,1268.749,416.78,1269.868Z" transform="translate(-382.257 -1235.279)" fill="#f9ddbf"/>
      <path id="Trazado_690980" data-name="Trazado 690980" d="M394.823,1308.848c-.438.969-.7,1.538-.7,1.538s-.677-.355-1.792-.956c-.553-.3-1.214-.655-1.955-1.059-3.657-5.648-4.856-32.277,2.338-45.247a10.077,10.077,0,0,1,4.38-3.611h0a12.365,12.365,0,0,1,2.058-.674,16.983,16.983,0,0,1,3.429-.447c-.115.043-3.83,1.432-4.849,3.2-1.036,1.8-1.1,9.68-1.35,11.861s.8,3.013,1.677,5.966,5.126,3.171,5.89,5.515C404.6,1286.916,397.169,1303.647,394.823,1308.848Z" transform="translate(-382.257 -1235.328)" fill="#efc59e"/>
      <path id="Trazado_690981" data-name="Trazado 690981" d="M598.166,1321.156s-1.636-2.53-2.018-3.188-.327-.391-.376.7-.755,2.457-.053,3.711S598.166,1321.156,598.166,1321.156Z" transform="translate(-562.182 -1286.567)" fill="#efc59e"/>
      <path id="Trazado_690982" data-name="Trazado 690982" d="M499.63,1386.8a3.865,3.865,0,0,0,2.781-1.693q.151-.225.321-.484c2.367-3.583,3.288-14.555,8.611-26.243,1.3-2.846,5.951-3.357,7.22-6.574,0,0,3.124-10.427-5.979-10.734s-24.378,29.011-24.619,32.086C487.732,1376.133,481.948,1388.792,499.63,1386.8Z" transform="translate(-468.274 -1306.861)" fill="#112a54"/>
      <path id="Trazado_690983" data-name="Trazado 690983" d="M765.949,1635.524H752.993a5.384,5.384,0,0,1,.366-3.472,2.5,2.5,0,0,0-.093-2.982,5.032,5.032,0,0,0,2.182.411,4.565,4.565,0,0,0,1.927-.678,46.6,46.6,0,0,0,3.691,3.878C761.913,1633.289,765.688,1633.072,765.949,1635.524Z" transform="translate(-698.414 -1555.828)" fill="#112a54"/>
      <path id="Trazado_690984" data-name="Trazado 690984" d="M656.954,1379.274a10.381,10.381,0,0,1-2.809-2.084c-4.362-3.932-13.218-15.065-13.218-23.992,0-4.352-.077-12.664,3.088-14.778,1.088-.725,3.4-.425,5.281.383,1.494.643,2.719,1.607,2.857,2.634.612,4.6,2.628,16.995,6.073,26.461a40.947,40.947,0,0,0,3.127,6.854C663.085,1377.655,656.987,1379.282,656.954,1379.274Z" transform="translate(-601.566 -1304.216)" fill="#112a54"/>
      <path id="Trazado_690985" data-name="Trazado 690985" d="M425.077,1382.285s.48-.668,1.317-1.937a45.905,45.905,0,0,0,3.437-8.286c1.405-4,3.072-8.913,5.156-14.029.643-1.579,1.326-3.177,2.052-4.773,1.3-2.845,4.864-2.452,6.133-5.669,0,0,4.952-11.152-4.151-11.46s-27.163,27.221-28.157,30.14C409.775,1369.466,405.23,1385.346,425.077,1382.285Z" transform="translate(-401.446 -1302.589)" fill="#183368"/>
      <path id="Trazado_690986" data-name="Trazado 690986" d="M695.366,1635.524H682.41a5.385,5.385,0,0,1,.366-3.472,2.5,2.5,0,0,0-.093-2.982,5.032,5.032,0,0,0,2.182.411,4.565,4.565,0,0,0,1.927-.678,46.608,46.608,0,0,0,3.691,3.878C691.33,1633.289,695.105,1633.072,695.366,1635.524Z" transform="translate(-637.341 -1555.828)" fill="#183368"/>
      <path id="Trazado_690987" data-name="Trazado 690987" d="M589.246,1379.591a12.312,12.312,0,0,1-2.876,1.18,10.37,10.37,0,0,1-2.808-2.085c-4.364-3.931-13.22-15.065-13.22-23.992,0-4.352,5.108-12.315,8.272-14.427a3.094,3.094,0,0,1,1.585-.525,3.206,3.206,0,0,1,3.315,2.778c.781,5.848,1.88,24.722,7.253,33.729C591.631,1377.7,590.546,1378.828,589.246,1379.591Z" transform="translate(-540.492 -1305.712)" fill="#2b478b"/>
      <path id="Trazado_690988" data-name="Trazado 690988" d="M570.4,1210.676a7.716,7.716,0,0,0-3.015-.132s.118.868,1.759.953A1.308,1.308,0,0,0,570.4,1210.676Z" transform="translate(-537.938 -1193.877)" fill="#fff"/>
      <path id="Trazado_690989" data-name="Trazado 690989" d="M589.246,1379.612a12.312,12.312,0,0,1-2.876,1.18,10.375,10.375,0,0,1-2.808-2.085c-4.364-3.932-13.22-15.065-13.22-23.992,0-4.352,5.108-12.315,8.272-14.427a3.094,3.094,0,0,1,1.585-.525c-.142.082-1.751,1.085-1.541,4.838.218,3.927,5.512,29.812,8.4,31.96A5.742,5.742,0,0,1,589.246,1379.612Z" transform="translate(-540.492 -1305.733)" fill="#183368"/>
      <path id="Trazado_690990" data-name="Trazado 690990" d="M647.993,1415.139s2.551-.061,3.441-1.012.691-4.453,0-5.15-1.674,2.182-2.437,2.618.941-2.018.327-1.977-1.554,1.1-1.718,1.677-.318,1.239-.318,1.239Z" transform="translate(-607.07 -1365.527)" fill="#ffb27d"/>
      <path id="Trazado_690991" data-name="Trazado 690991" d="M445.166,1280.1s6.937,16.082,9.328,17.473c1.546.9,13.007,3.284,13.007,3.284l.705,2.606s-13.563,1.81-16.867-.4c-6.523-4.354-10.954-16.317-11.69-17.925S441.007,1278.531,445.166,1280.1Z" transform="translate(-427.283 -1253.847)" fill="#ffb27d"/>
      <path id="Trazado_690992" data-name="Trazado 690992" d="M447.9,1283.909a14.088,14.088,0,0,1-3.735,2.22,11.176,11.176,0,0,1-1.373.448,9.191,9.191,0,0,1-1.178.229,7.962,7.962,0,0,1-2.662-.092s-5.221-9.817.872-12.089a2.654,2.654,0,0,1,.386-.049,4.2,4.2,0,0,1,.8.016c.095.01.195.023.3.041C443.212,1274.95,446.445,1276.609,447.9,1283.909Z" transform="translate(-425.007 -1249.321)" fill="#f9ddbf"/>
      <path id="Trazado_690993" data-name="Trazado 690993" d="M443.8,1280.488a7.379,7.379,0,0,1-4.846.447s-5.221-9.817.872-12.089a2.654,2.654,0,0,1,.386-.049,4.2,4.2,0,0,1,.8.016c.095.01,1.559-.946,1.664-.928a8.259,8.259,0,0,0-2.32,2.715C438.479,1276.027,444.177,1280.331,443.8,1280.488Z" transform="translate(-425.007 -1243.54)" fill="#efc59e"/>
      <path id="Trazado_690994" data-name="Trazado 690994" d="M694.056,1372.429c-4.383-3.107-12.14-25.278-11.7-27.515s2.77-1.579,2.77-1.579l0,0c1.494.643,2.719,1.607,2.857,2.634C688.595,1350.567,690.61,1362.963,694.056,1372.429Z" transform="translate(-637.397 -1308.747)" fill="#183368"/>
      <path id="Trazado_690995" data-name="Trazado 690995" d="M719.7,1409.322s1.64.637,1.908,1.923a2.569,2.569,0,0,1-.954,2.786c-.814.643-2.154,1.607-2.582.589a3.933,3.933,0,0,1,.542-3.536A6.434,6.434,0,0,0,719.7,1409.322Z" transform="translate(-668.142 -1365.92)" fill="#ffb27d"/>
    </g>
    <g id="Grupo_947523" data-name="Grupo 947523" transform="translate(421.546 358.759)">
      <path id="Trazado_690996" data-name="Trazado 690996" d="M2528.933,1088.7a11.447,11.447,0,0,0-7.812,3.927c-2.675,2.905.118,5.7-1.652,9.162-3.324,6.5-.9,7.935,7.117,7.076S2528.933,1088.7,2528.933,1088.7Z" transform="translate(-2487.953 -1088.672)" fill="#233862"/>
      <path id="Trazado_690997" data-name="Trazado 690997" d="M2541.589,1099.9a10.035,10.035,0,0,1,5.667-4.833,6.879,6.879,0,0,1,8.038,1.718c1.418,1.364,2.791,12.49-3.029,12.923S2541.589,1099.9,2541.589,1099.9Z" transform="translate(-2508.344 -1093.649)" fill="#233862"/>
      <path id="Trazado_690998" data-name="Trazado 690998" d="M2546.905,1222.913a14.641,14.641,0,0,0,5.118,2.178c7.89,1.823,10.913-4.845,12.049-9.423a6.781,6.781,0,0,0-2.673-.821c-.57-.067-1.17-.112-1.667-.137-.886-.678-2.206-3.456-2.5-7.768l-.371.1-6.218,1.7s.285,1.977.425,3.845c.108,1.462.125,2.859-.152,3.2-.485.105-.776.174-.776.174a.018.018,0,0,1,0,.006A40.061,40.061,0,0,0,2546.905,1222.913Z" transform="translate(-2512.944 -1190.985)" fill="#ffb27d"/>
      <path id="Trazado_690999" data-name="Trazado 690999" d="M2574.664,1209.394s.286,1.975.424,3.845c3.522-.353,5.157-3.707,5.794-5.546Z" transform="translate(-2536.962 -1191.633)" fill="#ed985f"/>
      <path id="Trazado_691000" data-name="Trazado 691000" d="M2544.494,1141.9s8.361-.461,7.994-5.664.464-8.766-4.89-8.692-6.25,2.133-6.55,3.9S2542.309,1141.883,2544.494,1141.9Z" transform="translate(-2507.844 -1122.281)" fill="#ffb27d"/>
      <path id="Trazado_691001" data-name="Trazado 691001" d="M2536.853,1121.646c1.178-1.657,2.179-1.384,2.759-.953a5.853,5.853,0,0,1,7.593.662,9.962,9.962,0,0,0,3.671,5.638s-1.482,1.185-5.029.4a8.875,8.875,0,0,1-6.308-5.545,5.324,5.324,0,0,0-1.565,1.881,8.245,8.245,0,0,0-.924,4.106S2535.085,1124.131,2536.853,1121.646Z" transform="translate(-2503.608 -1115.396)" fill="#233862"/>
      <path id="Trazado_691002" data-name="Trazado 691002" d="M2555.239,1210.676a7.717,7.717,0,0,1,3.015-.132s-.118.868-1.759.953A1.308,1.308,0,0,1,2555.239,1210.676Z" transform="translate(-2520.155 -1194.052)" fill="#fff"/>
      <path id="Trazado_691003" data-name="Trazado 691003" d="M2577.942,1088.534s4.489-.466,7.207,2.59,3.535,7.308,5.5,9.476,1.5,3.617,0,5.356c-2.556,2.969-9.1,3.893-10.144,2.169s2.124-6.015-1.3-7.62-4.538-8.7-4.538-8.7Z" transform="translate(-2536.962 -1088.508)" fill="#233862"/>
      <path id="Trazado_691004" data-name="Trazado 691004" d="M2450.309,1286.625s-12.926,10.908-12.762,11.508a2.932,2.932,0,0,0,4.2,1.745c2.782-1.227,10.763-6.66,10.567-6.926S2450.309,1286.625,2450.309,1286.625Z" transform="translate(-2418.319 -1259.931)" fill="#ed985f"/>
      <path id="Trazado_691005" data-name="Trazado 691005" d="M2506.5,1269.868c-.45,4.03.494,2.917,4.673,12.222a17.688,17.688,0,0,1-.476,14.948s11.249,9.313,17.76,11.762a7.974,7.974,0,0,0,2.49.582,1.957,1.957,0,0,0,1.522-.5,3.655,3.655,0,0,0,.434-.558c3.656-5.648,4.856-32.277-2.338-45.247a10.073,10.073,0,0,0-4.38-3.611h0a12.36,12.36,0,0,0-2.058-.674,16.988,16.988,0,0,0-3.429-.447h0c-.374-.011-.748-.01-1.117.005-1.185.766-5.7,3.655-7.553,3.3l-.1-.025c-.874-.219-1.2-.833-.475-1.361a8.873,8.873,0,0,0-4.769.717,20.452,20.452,0,0,0-5.371,4.323S2503.855,1268.749,2506.5,1269.868Z" transform="translate(-2473.491 -1235.454)" fill="#f9ddbf"/>
      <path id="Trazado_691006" data-name="Trazado 691006" d="M2643.936,1308.848c.438.969.7,1.538.7,1.538s.677-.355,1.792-.956c.553-.3,1.214-.655,1.955-1.059,3.656-5.648,4.856-32.277-2.338-45.247a10.077,10.077,0,0,0-4.38-3.611h0a12.356,12.356,0,0,0-2.058-.674,16.988,16.988,0,0,0-3.429-.447c.115.043,3.83,1.432,4.85,3.2,1.036,1.8,1.1,9.68,1.35,11.861s-.8,3.013-1.677,5.966-5.126,3.171-5.89,5.515C2634.162,1286.916,2641.59,1303.647,2643.936,1308.848Z" transform="translate(-2588.967 -1235.503)" fill="#efc59e"/>
      <path id="Trazado_691007" data-name="Trazado 691007" d="M2529.014,1321.156s1.636-2.53,2.018-3.188.327-.391.376.7.755,2.457.053,3.711S2529.014,1321.156,2529.014,1321.156Z" transform="translate(-2497.463 -1286.742)" fill="#efc59e"/>
      <path id="Trazado_691008" data-name="Trazado 691008" d="M2438.457,1386.8a3.866,3.866,0,0,1-2.781-1.693q-.15-.225-.321-.484c-2.367-3.583-3.288-14.555-8.611-26.243-1.3-2.846-5.951-3.357-7.22-6.574,0,0-3.124-10.427,5.979-10.734s24.378,29.011,24.619,32.086C2450.355,1376.133,2456.14,1388.792,2438.457,1386.8Z" transform="translate(-2402.278 -1307.036)" fill="#d87430"/>
      <path id="Trazado_691009" data-name="Trazado 691009" d="M2294.855,1635.524h12.956a5.385,5.385,0,0,0-.366-3.472,2.5,2.5,0,0,1,.093-2.982,5.033,5.033,0,0,1-2.182.411,4.569,4.569,0,0,1-1.927-.678,46.536,46.536,0,0,1-3.691,3.878C2298.891,1633.289,2295.116,1633.072,2294.855,1635.524Z" transform="translate(-2294.855 -1556.003)" fill="#112a54"/>
      <path id="Trazado_691010" data-name="Trazado 691010" d="M2354.772,1379.274a10.386,10.386,0,0,0,2.81-2.084c4.362-3.932,13.218-15.065,13.218-23.992,0-4.352.077-12.664-3.087-14.778-1.088-.725-3.4-.425-5.281.383-1.494.643-2.719,1.607-2.857,2.634-.612,4.6-2.628,16.995-6.074,26.461a40.908,40.908,0,0,1-3.126,6.854C2348.642,1377.655,2354.74,1379.282,2354.772,1379.274Z" transform="translate(-2342.625 -1304.391)" fill="#d87430"/>
      <path id="Trazado_691011" data-name="Trazado 691011" d="M2495.869,1382.285s-.48-.668-1.317-1.937a45.948,45.948,0,0,1-3.437-8.286c-1.405-4-3.072-8.913-5.156-14.029-.643-1.579-1.325-3.177-2.052-4.773-1.3-2.845-4.864-2.452-6.133-5.669,0,0-4.952-11.152,4.151-11.46s27.163,27.221,28.157,30.14C2511.171,1369.466,2515.716,1385.346,2495.869,1382.285Z" transform="translate(-2451.965 -1302.764)" fill="#ed833b"/>
      <path id="Trazado_691012" data-name="Trazado 691012" d="M2365.439,1635.524h12.956a5.386,5.386,0,0,0-.366-3.472,2.5,2.5,0,0,1,.093-2.982,5.031,5.031,0,0,1-2.182.411,4.567,4.567,0,0,1-1.927-.678,46.536,46.536,0,0,1-3.691,3.878C2369.475,1633.289,2365.7,1633.072,2365.439,1635.524Z" transform="translate(-2355.928 -1556.003)" fill="#183368"/>
      <path id="Trazado_691013" data-name="Trazado 691013" d="M2422.484,1379.591a12.3,12.3,0,0,0,2.876,1.18,10.369,10.369,0,0,0,2.808-2.085c4.364-3.931,13.22-15.065,13.22-23.992,0-4.352-5.108-12.315-8.272-14.427a3.093,3.093,0,0,0-1.585-.525,3.206,3.206,0,0,0-3.315,2.778c-.781,5.848-1.88,24.722-7.253,33.729C2420.1,1377.7,2421.183,1378.828,2422.484,1379.591Z" transform="translate(-2403.703 -1305.887)" fill="#ffa561"/>
      <path id="Trazado_691014" data-name="Trazado 691014" d="M2434.244,1379.612a12.3,12.3,0,0,0,2.876,1.18,10.374,10.374,0,0,0,2.808-2.085c4.364-3.932,13.22-15.065,13.22-23.992,0-4.352-5.108-12.315-8.272-14.427a3.092,3.092,0,0,0-1.585-.525c.142.082,1.75,1.085,1.541,4.838-.217,3.927-5.512,29.812-8.4,31.96A5.74,5.74,0,0,0,2434.244,1379.612Z" transform="translate(-2415.463 -1305.908)" fill="#ed833b"/>
      <path id="Trazado_691015" data-name="Trazado 691015" d="M2466.446,1415.139s-2.551-.061-3.441-1.012-.691-4.453,0-5.15,1.674,2.182,2.438,2.618-.941-2.018-.327-1.977,1.554,1.1,1.718,1.677.318,1.239.318,1.239Z" transform="translate(-2439.833 -1365.702)" fill="#ffb27d"/>
      <path id="Trazado_691016" data-name="Trazado 691016" d="M2515.4,1280.1s-6.937,16.082-9.328,17.473c-1.546.9-13.007,3.284-13.007,3.284l-.705,2.606s13.563,1.81,16.867-.4c6.523-4.354,10.954-16.317,11.689-17.925S2519.561,1278.531,2515.4,1280.1Z" transform="translate(-2465.749 -1254.022)" fill="#ffb27d"/>
      <path id="Trazado_691017" data-name="Trazado 691017" d="M2626.148,1283.909a14.085,14.085,0,0,0,3.735,2.22,11.174,11.174,0,0,0,1.373.448,9.166,9.166,0,0,0,1.178.229,7.964,7.964,0,0,0,2.662-.092s5.221-9.817-.872-12.089a2.653,2.653,0,0,0-.386-.049,4.205,4.205,0,0,0-.8.016c-.095.01-.194.023-.3.041C2630.839,1274.95,2627.606,1276.609,2626.148,1283.909Z" transform="translate(-2581.509 -1249.496)" fill="#f9ddbf"/>
      <path id="Trazado_691018" data-name="Trazado 691018" d="M2656.478,1280.488a7.38,7.38,0,0,0,4.846.447s5.221-9.817-.872-12.089a2.653,2.653,0,0,0-.386-.049,4.2,4.2,0,0,0-.8.016c-.095.01-1.559-.946-1.663-.928a8.266,8.266,0,0,1,2.32,2.715C2661.8,1276.027,2656.1,1280.331,2656.478,1280.488Z" transform="translate(-2607.738 -1243.715)" fill="#efc59e"/>
      <path id="Trazado_691019" data-name="Trazado 691019" d="M2375.569,1372.429c4.383-3.107,12.14-25.278,11.7-27.515s-2.77-1.579-2.77-1.579l0,0c-1.494.643-2.719,1.607-2.857,2.634C2381.031,1350.567,2379.015,1362.963,2375.569,1372.429Z" transform="translate(-2364.694 -1308.922)" fill="#ffa561"/>
      <path id="Trazado_691020" data-name="Trazado 691020" d="M2400.637,1409.322s-1.64.637-1.908,1.923a2.57,2.57,0,0,0,.954,2.786c.814.643,2.154,1.607,2.582.589a3.933,3.933,0,0,0-.542-3.536A6.434,6.434,0,0,1,2400.637,1409.322Z" transform="translate(-2384.662 -1366.095)" fill="#ffb27d"/>
    </g>
    <path id="Trazado_691021" data-name="Trazado 691021" d="M2539.206,771.554a66.248,66.248,0,0,1-10.327,3.123c-16.545,3.863-12.7-9.516-30.563-3.429s-24.594-5.6-18.138-12.878,2.132-12.349,11.384-17.012c3.881-1.957,8.536-1.8,12.633-.951C2510.043,749.664,2520.145,759.923,2539.206,771.554Z" transform="translate(-2031.583 -428.035)" fill="#9cbeff"/>
    <path id="Trazado_691022" data-name="Trazado 691022" d="M2345.479,596.069c-4.358,2.912-9.661,5.355-14.46,5.244-10.566-.245-9.31-9.324-19.894-7.5s-22.546-4.278-16.345-10.371,7.149-2.4,17.764-9.636c8.471-5.779,21.228-.637,23.395-.552,1.678,6.507,3.606,13.483,8.444,21.145Q2344.908,595.228,2345.479,596.069Z" transform="translate(-1871.772 -282.026)" fill="#8bb6f5"/>
    <g id="Grupo_947525" data-name="Grupo 947525" transform="translate(298.721 274.508)">
      <g id="Grupo_947524" data-name="Grupo 947524" transform="translate(3.414 0)">
        <path id="Trazado_691023" data-name="Trazado 691023" d="M1418.215,1117.631s-23-22.4,2.268-46.852,18.157-35.916,18.157-35.916,15.684,6.31,17.129,19.775-1.23,18.241,2.4,20.725,5.922-6.416,4.776-10.658c0,0,7.068,5.279,10.315,16.661s-1.146,14.539,0,19.073,7.259-2.193,7.259-2.193,4.585,13.112-2.1,17.37S1420.287,1122.266,1418.215,1117.631Z" transform="translate(-1408.632 -957.841)" fill="#f47d42"/>
        <path id="Trazado_691024" data-name="Trazado 691024" d="M1540.892,1357.614a15.224,15.224,0,0,1-9.566-16.623c1.542-12.443,9.81-11.28,14.272-17.019s7.477-8.8,9.408-4.211.762,13.9,6.791,12.585,8.7-7.714,12.142-2.89-3.994,12.139-2.292,19.533-2.483,16.416-11.653,15.754S1540.892,1357.614,1540.892,1357.614Z" transform="translate(-1514.661 -1202.427)" fill="#ffa15a"/>
        <path id="Trazado_691025" data-name="Trazado 691025" d="M1534.595,955.487s6.584,8.479,3.719,15.51,4.766,9.006,7.45,5.281S1543.293,963.319,1534.595,955.487Z" transform="translate(-1517.623 -889.159)" fill="#f47d42"/>
        <path id="Trazado_691026" data-name="Trazado 691026" d="M1812.538,975.653h0a.575.575,0,0,1,.054-.809l2.875-2.516a.575.575,0,0,1,.809.054h0a.575.575,0,0,1-.054.809l-2.875,2.516A.575.575,0,0,1,1812.538,975.653Z" transform="translate(-1757.993 -903.609)" fill="#f47d42"/>
        <path id="Trazado_691027" data-name="Trazado 691027" d="M1827.454,574.531h0a.575.575,0,0,1,.054-.809l2.875-2.516a.575.575,0,0,1,.808.054h0a.575.575,0,0,1-.054.809l-2.875,2.516A.575.575,0,0,1,1827.454,574.531Z" transform="translate(-1770.9 -556.534)" fill="#ffc9a4"/>
        <path id="Trazado_691028" data-name="Trazado 691028" d="M1562.515,467.042h0a.337.337,0,0,1-.475-.032l-2.828-3.231a.338.338,0,0,1,.032-.475h0a.337.337,0,0,1,.475.032l2.828,3.231A.338.338,0,0,1,1562.515,467.042Z" transform="translate(-1538.852 -463.222)" fill="#f47d42"/>
        <path id="Trazado_691029" data-name="Trazado 691029" d="M1593.275,819.734h0a.575.575,0,0,1-.763-.274L1590.886,816a.575.575,0,0,1,.274-.763h0a.575.575,0,0,1,.763.275l1.627,3.457A.575.575,0,0,1,1593.275,819.734Z" transform="translate(-1566.282 -767.763)" fill="#f47d42"/>
        <path id="Trazado_691030" data-name="Trazado 691030" d="M1511.886,1138.735h0a.574.574,0,0,1-.762-.274L1509.5,1135a.575.575,0,0,1,.274-.763h0a.575.575,0,0,1,.763.275l1.627,3.457A.575.575,0,0,1,1511.886,1138.735Z" transform="translate(-1495.859 -1043.781)" fill="#f47d42"/>
        <path id="Trazado_691031" data-name="Trazado 691031" d="M1634.157,1461.963s-12.02-1.226-11.492-7.53,4.924-16.513,7.311-14.847,4.3,6.735,10.027,10.886S1639.862,1463.277,1634.157,1461.963Z" transform="translate(-1593.811 -1307.874)" fill="#ffc9a4"/>
      </g>
      <path id="Trazado_691032" data-name="Trazado 691032" d="M1457.724,1601.4s7.744-10.84,10.051-11.84,13.641,1.6,16.443,3.927,3.056,7.937,3.056,7.937Z" transform="translate(-1447.695 -1437.605)" fill="#c94d47"/>
      <path id="Trazado_691033" data-name="Trazado 691033" d="M1758.464,1610.714s1.827-6.679,7.557-8.81,11.653-2.737,13.945-1.1,4.513,9.7,4.513,9.7Z" transform="translate(-1707.913 -1446.718)" fill="#c94d47"/>
      <path id="Trazado_691034" data-name="Trazado 691034" d="M1631.339,1648.965s5.2-4.364,9.4-4.65,10.124,1.5,10.506,2.281a15.67,15.67,0,0,1,.766,2.585Z" transform="translate(-1597.917 -1485.148)" fill="#b5453c"/>
      <path id="Trazado_691035" data-name="Trazado 691035" d="M1383.292,1632.517s2.042-4.817,4.334-5.677,6.877-2.006,8.31-1.337,5.03,7.014,5.03,7.014Z" transform="translate(-1383.292 -1468.723)" fill="#b5453c"/>
    </g>
    <path id="Trazado_691036" data-name="Trazado 691036" d="M765.93,459.547s-6.495,1.984-6.519,8.528-3.46,10.962-11.8,10.144-7.853,1.636-12.435,4.254-16.53,5.445-16.53,5.445l16.2-22.461s17.834-5.931,18.816-5.911S765.93,459.547,765.93,459.547Z" transform="translate(-509.476 -185.534)" fill="#66a4ff"/>
    <path id="Rect치ngulo_337771" data-name="Rect치ngulo 337771" d="M.566,0H381.652a.566.566,0,0,1,.566.566v0a.566.566,0,0,1-.566.566H.566A.566.566,0,0,1,0,.566v0A.566.566,0,0,1,.566,0Z" transform="translate(133.471 438.336)" fill="#2e3552"/>
  </g>
</svg>
