<svg xmlns="http://www.w3.org/2000/svg" width="165" height="165" viewBox="0 0 165 165">
  <g id="Grupo_953281" data-name="Grupo 953281" transform="translate(-367 -2288)">
    <circle id="Elipse_5407" data-name="Elipse 5407" cx="82.5" cy="82.5" r="82.5" transform="translate(367 2288)" fill="#ccd3ca"/>
    <g id="publico-objetivo" transform="translate(378.002 2298.805)">
      <circle id="Elipse_5567" data-name="Elipse 5567" cx="61.703" cy="61.703" r="61.703" transform="translate(10.641 14.552)" fill="#f3f3f3"/>
      <g id="Grupo_950481" data-name="Grupo 950481" transform="translate(0.998 5.196)">
        <g id="Grupo_950472" data-name="Grupo 950472" transform="translate(45.41)">
          <g id="Grupo_950471" data-name="Grupo 950471" transform="translate(0 4.246)">
            <g id="Grupo_950470" data-name="Grupo 950470">
              <path id="Trazado_699769" data-name="Trazado 699769" d="M68.4,34.6H83.247V49.447H68.4Z" transform="translate(-48.826 -10.497)" fill="#f6bb53"/>
              <path id="Trazado_699770" data-name="Trazado 699770" d="M101.319,55.741c-.578-5.3-8.388-7.713-8.388-7.713l-7.231-2.8c-.771-.289,0,0-4.724-1.832L75.1,45.617,69.214,43.4c-4.339,1.735-3.567,1.35-4.724,1.832l-7.327,2.8s-7.906,2.41-8.388,7.713c-.289,2.8-.482,8.1-.675,12.534a6.775,6.775,0,0,0,6.749,7.038H95.342a6.716,6.716,0,0,0,6.749-7.038C101.9,63.936,101.608,58.537,101.319,55.741Z" transform="translate(-48.098 -10.813)" fill="#55c5ca"/>
              <path id="Trazado_699771" data-name="Trazado 699771" d="M79.345,48.689,77.706,45.7H74.235L72.5,48.689l1.928,2.989L72.886,71.635l3.085,3.76,2.989-3.76L77.417,51.678Z" transform="translate(-48.973 -10.895)" fill="#fff"/>
              <g id="Grupo_950468" data-name="Grupo 950468" transform="translate(17.549 31.141)">
                <path id="Trazado_699772" data-name="Trazado 699772" d="M83.524,41.9,76.1,45.564c5.013,5.592,3.182,5.688,9.352-.868Z" transform="translate(-66.652 -41.9)" fill="#7dcedc"/>
                <path id="Trazado_699773" data-name="Trazado 699773" d="M66.3,44.7c6.17,6.556,4.339,6.556,9.352.868L68.228,41.9Z" transform="translate(-66.3 -41.9)" fill="#7dcedc"/>
              </g>
              <g id="Grupo_950469" data-name="Grupo 950469" transform="translate(11.542)">
                <path id="Trazado_699774" data-name="Trazado 699774" d="M87.6,26.865c-.289,2.217.193,4.049,1.253,4.242.964.193,2.121-1.543,2.41-3.664C92.032,22.237,88.465,21.659,87.6,26.865Z" transform="translate(-61.054 -10.089)" fill="#fdda7f"/>
                <ellipse id="Elipse_5568" data-name="Elipse 5568" cx="4.049" cy="1.832" rx="4.049" ry="1.832" transform="translate(1.207 21.347) rotate(-98.568)" fill="#fdda7f"/>
                <path id="Trazado_699775" data-name="Trazado 699775" d="M75.551,9.6A11.919,11.919,0,0,0,63.692,21.169L63.5,30.328a7.274,7.274,0,0,0,1.832,5.11L68.609,39.1a8.878,8.878,0,0,0,13.5.193l3.374-3.856a7.274,7.274,0,0,0,1.832-5.11l-.193-9.159A11.421,11.421,0,0,0,75.551,9.6Z" transform="translate(-60.192 -9.6)" fill="#fdda7f"/>
              </g>
            </g>
          </g>
          <path id="Trazado_699776" data-name="Trazado 699776" d="M85.214,9.828S86.371,5.393,75.862,5.2s-13.3,6.267-14.173,10.412a17.7,17.7,0,0,0,.482,8.195s2.121,2.6,2.507,4.339c0,.1.1.1.193.1a.207.207,0,0,0,.193-.193,15.963,15.963,0,0,1,.289-5.881,4.5,4.5,0,0,0,.289-1.639c-.1-2.025,0-6.749,3.856-7.134,4.917-.482,3.567,2.8,13.5-.1,2.41,1.543,2.41,5.11,2.892,6.074a15.271,15.271,0,0,1,.771,7.906.353.353,0,0,0,.386.386c.193,0,.289-.1.386-.289a15.555,15.555,0,0,1,1.735-5.4c1.35-2.7.482-12.534-3.953-12.148Z" transform="translate(-48.575 -5.196)" fill="#474f59"/>
        </g>
        <g id="Grupo_950480" data-name="Grupo 950480" transform="translate(0 32.086)">
          <g id="Grupo_950477" data-name="Grupo 950477">
            <g id="Grupo_950476" data-name="Grupo 950476" transform="translate(0 5.422)">
              <g id="Grupo_950475" data-name="Grupo 950475">
                <path id="Trazado_699777" data-name="Trazado 699777" d="M21.4,69.2H36.344V84.144H21.4Z" transform="translate(-1.73 -45.001)" fill="#f6bb53"/>
                <path id="Trazado_699778" data-name="Trazado 699778" d="M54.6,90.437c-.578-5.3-8.484-7.809-8.484-7.809l-7.327-2.8-.482-.193L34.069,78l-5.881,2.217L22.307,78,18.45,79.446l-.868.386-7.327,2.892S2.35,85.231,1.771,90.534c-.386,2.8-.578,8.1-.771,12.534a6.854,6.854,0,0,0,6.845,7.038H48.531a6.854,6.854,0,0,0,6.845-7.038c-.193-4.435-.482-9.738-.771-12.63Z" transform="translate(-0.998 -45.316)" fill="#25313b"/>
                <path id="Trazado_699779" data-name="Trazado 699779" d="M32.542,83.389,30.806,80.4H27.335L25.6,83.389l1.928,2.989-1.543,20.15,3.085,3.76,2.989-3.76-1.543-20.15Z" transform="translate(-1.881 -45.403)" fill="#7dcedc"/>
                <g id="Grupo_950473" data-name="Grupo 950473" transform="translate(17.742 31.237)">
                  <path id="Trazado_699780" data-name="Trazado 699780" d="M36.624,76.5,29.2,80.26l3.374,3.76a1.11,1.11,0,0,0,1.639,0L38.648,79.3Z" transform="translate(-19.752 -76.5)" fill="#474f59"/>
                  <path id="Trazado_699781" data-name="Trazado 699781" d="M19.4,79.4l4.435,4.724a1.108,1.108,0,0,0,1.639,0l3.374-3.76L21.425,76.6Z" transform="translate(-19.4 -76.504)" fill="#474f59"/>
                </g>
                <g id="Grupo_950474" data-name="Grupo 950474" transform="translate(12.14)">
                  <path id="Trazado_699782" data-name="Trazado 699782" d="M40.8,61.462c-.771,5.3,2.892,5.881,3.664.578C45.327,56.738,41.567,56.16,40.8,61.462Z" transform="translate(-14.562 -44.59)" fill="#fdda7f"/>
                  <path id="Trazado_699783" data-name="Trazado 699783" d="M17.36,61.462c.771,5.3-2.892,5.881-3.664.578S16.588,56.16,17.36,61.462Z" transform="translate(-13.59 -44.59)" fill="#fdda7f"/>
                  <path id="Trazado_699784" data-name="Trazado 699784" d="M28.651,44.1A11.873,11.873,0,0,0,16.792,55.766L16.6,65.021a6.975,6.975,0,0,0,1.832,5.11l3.278,3.664a9.984,9.984,0,0,0,3.856,2.7A9.111,9.111,0,0,0,35.4,73.988l3.471-3.856a7.274,7.274,0,0,0,1.832-5.11l-.193-9.256A11.81,11.81,0,0,0,28.651,44.1Z" transform="translate(-13.698 -44.1)" fill="#fdda7f"/>
                </g>
              </g>
            </g>
            <path id="Trazado_699785" data-name="Trazado 699785" d="M39.775,46.308h-.386s4.146-7.231-10.316-7.809C12.972,37.824,15,52.093,15,52.093v.578c.675,5.013,1.735,6.074,1.832,8.484,0,.193.193.289.386.289a.256.256,0,0,0,.289-.289,31.925,31.925,0,0,1,.771-9.063c5.013,0,13.98.386,18.8-2.7,2.6,4.339,2.8,10.412,2.7,11.859a.256.256,0,0,0,.289.289c.193,0,.289-.1.386-.289.1-2.41.964-3.471,1.832-8.484.868-5.11-.771-6.363-2.507-6.46Z" transform="translate(-1.497 -38.476)" fill="#474f59"/>
          </g>
          <g id="Grupo_950479" data-name="Grupo 950479" transform="translate(90.048 5.889)">
            <path id="Trazado_699786" data-name="Trazado 699786" d="M127.48,85.98l-6.942,3.278L113.5,85.98,115.235,72h10.509Z" transform="translate(-95.083 -45.568)" fill="#f6bb53"/>
            <path id="Trazado_699787" data-name="Trazado 699787" d="M145.112,103.628c-.193-4.146-.386-9.159-.675-11.762-.579-5.3-8.1-7.327-14.655-9.93a17.48,17.48,0,0,1-3.76-1.735,7.885,7.885,0,0,1-12.437.1l.1-.1a25.35,25.35,0,0,1-2.989,1.35c-.964.386-.771.289-.868.289l-6.845,2.7s-7.424,2.314-7.906,7.231c-.289,2.6-.482,7.617-.675,11.762a6.34,6.34,0,0,0,6.363,6.556h37.986a6.151,6.151,0,0,0,6.363-6.46Z" transform="translate(-94.397 -45.863)" fill="#474f59"/>
            <g id="Grupo_950478" data-name="Grupo 950478" transform="translate(11.401)">
              <path id="Trazado_699788" data-name="Trazado 699788" d="M128.155,57.4c.193.1,3.856,7.424,1.639,14.558,0,0-1.446,3.76-2.892,5.013-1.446,1.157-3.278,3.856-6.363,3.76a5.716,5.716,0,0,1-4.628-2.217,8.6,8.6,0,0,1-4.724-5.881c-1.061-4.435.482-10.027.482-10.027L124.395,54.7Z" transform="translate(-106.388 -44.948)" fill="#fdda7f"/>
              <path id="Trazado_699789" data-name="Trazado 699789" d="M118.156,45.66s4.242-3.374,10.22,1.832c5.881,5.206,6.845,22.078,2.217,27.188a.354.354,0,0,1-.289.1.425.425,0,0,1-.386-.578,6.188,6.188,0,0,0,.578-2.314l-1.832,1.157s2.314-10.605-.964-15.329A164.077,164.077,0,0,1,112.082,68.7a6.507,6.507,0,0,0-.675,4.242s-.482,1.35-.771,0a12.065,12.065,0,0,0,1.543,4.531.464.464,0,0,1-.193.578.352.352,0,0,1-.482-.193,39.032,39.032,0,0,1-5.11-15.619c-1.157-9.738,3.664-18.7,11.762-16.583Z" transform="translate(-106.223 -44.585)" fill="#474f59"/>
            </g>
          </g>
        </g>
      </g>
      <circle id="Elipse_5569" data-name="Elipse 5569" cx="39.432" cy="39.432" r="39.432" transform="translate(31.948 55.334)" fill="#f37c5a"/>
      <circle id="Elipse_5570" data-name="Elipse 5570" cx="28.923" cy="28.923" r="28.923" transform="translate(42.457 65.843)" fill="#fff"/>
      <circle id="Elipse_5571" data-name="Elipse 5571" cx="18.704" cy="18.704" r="18.704" transform="translate(52.677 76.062)" fill="#f37c5a"/>
      <circle id="Elipse_5572" data-name="Elipse 5572" cx="8.484" cy="8.484" r="8.484" transform="translate(62.896 86.282)" fill="#fff"/>
      <g id="Grupo_950483" data-name="Grupo 950483" transform="translate(69.428 92.525)">
        <path id="Trazado_699790" data-name="Trazado 699790" d="M106.225,130.025a2.62,2.62,0,0,0,0-3.76L76.53,96.57a2.659,2.659,0,0,0-3.76,3.76l29.695,29.695a2.619,2.619,0,0,0,3.76,0Z" transform="translate(-71.975 -95.775)" fill="#474f59"/>
        <g id="Grupo_950482" data-name="Grupo 950482" transform="translate(16.8 16.8)">
          <path id="Trazado_699791" data-name="Trazado 699791" d="M100.777,132l.289-4.628L89.786,116l-.386,5.3a2.433,2.433,0,0,0,.578,1.639l9.448,9.448c.578.482,1.35.193,1.35-.386Z" transform="translate(-89.4 -113.3)" fill="#fdda7f"/>
          <path id="Trazado_699792" data-name="Trazado 699792" d="M108.1,124.673l-4.628.289L92.1,113.586l5.3-.386a2.433,2.433,0,0,1,1.639.578l9.448,9.448a.808.808,0,0,1-.386,1.446Z" transform="translate(-89.497 -113.2)" fill="#fdda7f"/>
        </g>
      </g>
    </g>
  </g>
</svg>
